<?xml version="1.0" standalone="no"?>
 <!DOCTYPE svg PUBLIC "-//W3C//DTD SVG 1.1//EN" 
 "http://www.w3.org/Graphics/SVG/1.1/DTD/svg11.dtd"> 
<svg xmlns="http://www.w3.org/2000/svg" version="1.1" 
    width="8.63346cm" height="6.68528cm" viewBox="0 0 33990 26320 ">
<title>SVG Picture created as modular_eside_rev8-brd.svg date 2017/09/14 00:07:07 </title>
  <desc>Picture generated by PCBNEW </desc>
<g style="fill:#000000; fill-opacity:1;stroke:#000000; stroke-opacity:1;
stroke-linecap:round; stroke-linejoin:round; "
 transform="translate(0 0) scale(1 1)">
</g>
<g style="fill:#000000; fill-opacity:0.0; 
stroke:#000000; stroke-width:-0.000393701; stroke-opacity:1; 
stroke-linecap:round; stroke-linejoin:round;">
</g>
<g style="fill:#000000; fill-opacity:0.0; 
stroke:#000000; stroke-width:19.685; stroke-opacity:1; 
stroke-linecap:round; stroke-linejoin:round;">
<path d="M27253 17480
L26033 17480
" />
<path d="M27253 17480
L27253 16771
" />
<path d="M26033 16771
L26033 17480
" />
<path d="M26033 16771
L27253 16771
" />
<path d="M7864 17814
L7864 16594
" />
<path d="M7864 17814
L8572 17814
" />
<path d="M8572 16594
L7864 16594
" />
<path d="M8572 16594
L8572 17814
" />
<path d="M10561 19704
L10561 18562
" />
<path d="M11072 19704
L10561 19704
" />
<path d="M11072 18562
L11072 19704
" />
<path d="M10561 18562
L11072 18562
" />
<path d="M9773 18562
L10285 18562
" />
<path d="M10285 18562
L10285 19704
" />
<path d="M10285 19704
L9773 19704
" />
<path d="M9773 19704
L9773 18562
" />
<path d="M8986 19704
L8986 18562
" />
<path d="M9498 19704
L8986 19704
" />
<path d="M9498 18562
L9498 19704
" />
<path d="M8986 18562
L9498 18562
" />
<path d="M8198 18562
L8710 18562
" />
<path d="M8710 18562
L8710 19704
" />
<path d="M8710 19704
L8198 19704
" />
<path d="M8198 19704
L8198 18562
" />
<path d="M7411 19704
L7411 18562
" />
<path d="M7923 19704
L7411 19704
" />
<path d="M7923 18562
L7923 19704
" />
<path d="M7411 18562
L7923 18562
" />
<path d="M8907 17814
L8907 16594
" />
<path d="M8907 17814
L10364 17814
" />
<path d="M10364 16594
L8907 16594
" />
<path d="M10364 16594
L10364 17814
" />
<path d="M29734 18661
L27647 18661
" />
<path d="M29734 17874
L29734 18661
" />
<path d="M27647 17874
L29734 17874
" />
<path d="M27647 18661
L27647 17874
" />
<path d="M20864 6122
L20864 4744
" />
<path d="M20864 6122
L21553 6122
" />
<path d="M21553 4744
L20864 4744
" />
<path d="M21553 4744
L21553 6122
" />
<path d="M25246 7295
L26624 7295
" />
<path d="M25246 7295
L25246 7984
" />
<path d="M26624 7984
L26624 7295
" />
<path d="M26624 7984
L25246 7984
" />
<path d="M28553 16779
L29931 16779
" />
<path d="M28553 16779
L28553 17468
" />
<path d="M29931 17468
L29931 16779
" />
<path d="M29931 17468
L28553 17468
" />
<path d="M8198 8456
L6820 8456
" />
<path d="M8198 8456
L8198 7767
" />
<path d="M6820 7767
L6820 8456
" />
<path d="M6820 7767
L8198 7767
" />
<path d="M22923 7027
L25875 7027
" />
<path d="M22923 4862
L25875 4862
" />
<path d="M25875 4862
L25875 7027
" />
<path d="M22923 4862
L22923 7027
" />
<path d="M27411 18622
L26190 18622
" />
<path d="M27411 18622
L27411 17913
" />
<path d="M26190 17913
L26190 18622
" />
<path d="M26190 17913
L27411 17913
" />
<path d="M30561 14606
L29340 14606
" />
<path d="M30561 14606
L30561 13897
" />
<path d="M29340 13897
L29340 14606
" />
<path d="M29340 13897
L30561 13897
" />
<path d="M4891 7755
L6112 7755
" />
<path d="M4891 7755
L4891 8464
" />
<path d="M6112 8464
L6112 7755
" />
<path d="M6112 8464
L4891 8464
" />
<path d="M27411 19724
L26190 19724
" />
<path d="M27411 19724
L27411 19015
" />
<path d="M26190 19015
L26190 19724
" />
<path d="M26190 19015
L27411 19015
" />
<path d="M22667 7657
L22667 8877
" />
<path d="M22667 7657
L21958 7657
" />
<path d="M21958 8877
L22667 8877
" />
<path d="M21958 8877
L21958 7657
" />
<path d="M21879 6043
L21879 4822
" />
<path d="M21879 6043
L22588 6043
" />
<path d="M22588 4822
L21879 4822
" />
<path d="M22588 4822
L22588 6043
" />
<path d="M11289 16318
L11289 15098
" />
<path d="M11289 16318
L11998 16318
" />
<path d="M11998 15098
L11289 15098
" />
<path d="M11998 15098
L11998 16318
" />
<path d="M8750 7598
L7057 7598
" />
<path d="M8750 7598
L8750 6417
" />
<path d="M7057 6417
L7057 7598
" />
<path d="M7057 6417
L8750 6417
" />
<path d="M27017 5826
L28238 5826
" />
<path d="M27017 5826
L27017 6535
" />
<path d="M28238 6535
L28238 5826
" />
<path d="M28238 6535
L27017 6535
" />
<path d="M27017 4960
L28238 4960
" />
<path d="M27017 4960
L27017 5669
" />
<path d="M28238 5669
L28238 4960
" />
<path d="M28238 5669
L27017 5669
" />
<path d="M28986 14153
L26033 14153
" />
<path d="M28986 16318
L26033 16318
" />
<path d="M26033 16318
L26033 14153
" />
<path d="M28986 16318
L28986 14153
" />
<path d="M29812 5059
L29812 5570
" />
<path d="M29812 5570
L28671 5570
" />
<path d="M28671 5570
L28671 5059
" />
<path d="M28671 5059
L29812 5059
" />
<path d="M29812 5925
L29812 6437
" />
<path d="M29812 6437
L28671 6437
" />
<path d="M28671 6437
L28671 5925
" />
<path d="M28671 5925
L29812 5925
" />
<path d="M11387 16515
L11899 16515
" />
<path d="M11899 16515
L11899 17657
" />
<path d="M11899 17657
L11387 17657
" />
<path d="M11387 17657
L11387 16515
" />
<path d="M12706 21299
L12706 20433
" />
<path d="M15147 21299
L12706 21299
" />
<path d="M15147 20433
L15147 21299
" />
<path d="M12706 20433
L15147 20433
" />
<path d="M26919 3267
L26919 2401
" />
<path d="M29360 3267
L26919 3267
" />
<path d="M29360 2401
L29360 3267
" />
<path d="M26919 2401
L29360 2401
" />
<path d="M26919 21299
L26919 20433
" />
<path d="M29360 21299
L26919 21299
" />
<path d="M29360 20433
L29360 21299
" />
<path d="M26919 20433
L29360 20433
" />
<path d="M12706 3267
L12706 2401
" />
<path d="M15147 3267
L12706 3267
" />
<path d="M15147 2401
L15147 3267
" />
<path d="M12706 2401
L15147 2401
" />
<path d="M12620 12066
L12620 13444
" />
<path d="M12620 12066
L11931 12066
" />
<path d="M11931 13444
L12620 13444
" />
<path d="M11931 13444
L11931 12066
" />
<path d="M12620 9901
L12620 11673
" />
<path d="M12620 9901
L11931 9901
" />
<path d="M11931 11673
L12620 11673
" />
<path d="M11931 11673
L11931 9901
" />
<path d="M13828 18425
L13828 19763
" />
<path d="M13828 19763
L12450 19763
" />
<path d="M12450 19763
L12450 18425
" />
<path d="M12450 18425
L13828 18425
" />
<path d="M4872 16515
L4872 17736
" />
<path d="M4872 16515
L4163 16515
" />
<path d="M4163 17736
L4872 17736
" />
<path d="M4163 17736
L4163 16515
" />
<path d="M15127 18208
L15127 19980
" />
<path d="M15127 18208
L14301 18208
" />
<path d="M14301 19980
L15127 19980
" />
<path d="M14301 19980
L14301 18208
" />
<path d="M5935 15255
L5935 16476
" />
<path d="M5935 15255
L5226 15255
" />
<path d="M5226 16476
L5935 16476
" />
<path d="M5226 16476
L5226 15255
" />
<path d="M2824 15196
L2824 8503
" />
<path d="M2824 8503
L1643 8503
" />
<path d="M1643 8503
L1643 15196
" />
<path d="M1643 15196
L2824 15196
" />
<path d="M4950 9212
L4950 14488
" />
<path d="M10226 9212
L10226 14488
" />
<path d="M4950 9212
L10226 9212
" />
<path d="M4950 14488
L10226 14488
" />
</g>
<g style="fill:#000000; fill-opacity:0.0; 
stroke:#000000; stroke-width:39.3701; stroke-opacity:1; 
stroke-linecap:round; stroke-linejoin:round;">
<path d="M26250 16881
L27037 16881
" />
<path d="M27037 16881
L27037 17370
" />
<path d="M27037 17370
L26250 17370
" />
<path d="M26250 17370
L26250 16881
" />
<path d="M8462 16811
L8462 17598
" />
<path d="M8462 17598
L7974 17598
" />
<path d="M7974 17598
L7974 16811
" />
<path d="M7974 16811
L8462 16811
" />
<path d="M10974 19448
L10659 19448
" />
<path d="M10659 19448
L10659 18818
" />
<path d="M10659 18818
L10974 18818
" />
<path d="M10974 18818
L10974 19448
" />
<path d="M10738 19074
L10895 19074
" />
<path d="M10895 19074
L10816 19192
" />
<path d="M10816 19192
L10738 19074
" />
<path d="M10738 19212
L10895 19212
" />
<path d="M9950 19212
L10108 19212
" />
<path d="M10029 19192
L9950 19074
" />
<path d="M10108 19074
L10029 19192
" />
<path d="M9950 19074
L10108 19074
" />
<path d="M10187 18818
L10187 19448
" />
<path d="M9872 18818
L10187 18818
" />
<path d="M9872 19448
L9872 18818
" />
<path d="M10187 19448
L9872 19448
" />
<path d="M9399 19448
L9084 19448
" />
<path d="M9084 19448
L9084 18818
" />
<path d="M9084 18818
L9399 18818
" />
<path d="M9399 18818
L9399 19448
" />
<path d="M9163 19074
L9320 19074
" />
<path d="M9320 19074
L9242 19192
" />
<path d="M9242 19192
L9163 19074
" />
<path d="M9163 19212
L9320 19212
" />
<path d="M8375 19212
L8533 19212
" />
<path d="M8454 19192
L8375 19074
" />
<path d="M8533 19074
L8454 19192
" />
<path d="M8375 19074
L8533 19074
" />
<path d="M8612 18818
L8612 19448
" />
<path d="M8297 18818
L8612 18818
" />
<path d="M8297 19448
L8297 18818
" />
<path d="M8612 19448
L8297 19448
" />
<path d="M7824 19448
L7509 19448
" />
<path d="M7509 19448
L7509 18818
" />
<path d="M7509 18818
L7824 18818
" />
<path d="M7824 18818
L7824 19448
" />
<path d="M7588 19074
L7746 19074
" />
<path d="M7746 19074
L7667 19192
" />
<path d="M7667 19192
L7588 19074
" />
<path d="M7588 19212
L7746 19212
" />
<path d="M9005 16889
L10265 16889
" />
<path d="M9005 17519
L9005 16889
" />
<path d="M10265 17519
L9005 17519
" />
<path d="M10265 16889
L10265 17519
" />
<path d="M29320 17952
L29320 18582
" />
<path d="M29320 18582
L28061 18582
" />
<path d="M28061 18582
L28061 17952
" />
<path d="M28061 17952
L29320 17952
" />
<path d="M28612 18425
L28612 18110
" />
<path d="M28612 18110
L28848 18267
" />
<path d="M28848 18267
L28612 18425
" />
<path d="M28868 18425
L28868 18110
" />
<path d="M21454 5826
L20966 5826
" />
<path d="M21454 5039
L21454 5826
" />
<path d="M20966 5039
L21454 5039
" />
<path d="M20966 5826
L20966 5039
" />
<path d="M26328 7881
L25541 7881
" />
<path d="M25541 7881
L25541 7393
" />
<path d="M25541 7393
L26328 7393
" />
<path d="M26328 7393
L26328 7881
" />
<path d="M28848 17370
L28848 16881
" />
<path d="M29635 17370
L28848 17370
" />
<path d="M29635 16881
L29635 17370
" />
<path d="M28848 16881
L29635 16881
" />
<path d="M7903 7866
L7903 8354
" />
<path d="M7116 7866
L7903 7866
" />
<path d="M7116 8354
L7116 7866
" />
<path d="M7903 8354
L7116 8354
" />
</g>
<g style="fill:#000000; fill-opacity:0.0; 
stroke:#000000; stroke-width:59.0551; stroke-opacity:1; 
stroke-linecap:round; stroke-linejoin:round;">
<path d="M23631 5374
L24025 4980
" />
<path d="M23631 6909
L23631 5374
" />
<path d="M25167 6909
L23631 6909
" />
<path d="M25167 4980
L25167 6909
" />
<path d="M24025 4980
L25167 4980
" />
</g>
<g style="fill:#000000; fill-opacity:0.0; 
stroke:#000000; stroke-width:39.3701; stroke-opacity:1; 
stroke-linecap:round; stroke-linejoin:round;">
<path d="M27194 18023
L27194 18511
" />
<path d="M26407 18023
L27194 18023
" />
<path d="M26407 18511
L26407 18023
" />
<path d="M27194 18511
L26407 18511
" />
<path d="M30344 14007
L30344 14496
" />
<path d="M29557 14007
L30344 14007
" />
<path d="M29557 14496
L29557 14007
" />
<path d="M30344 14496
L29557 14496
" />
<path d="M5108 8354
L5108 7866
" />
<path d="M5895 8354
L5108 8354
" />
<path d="M5895 7866
L5895 8354
" />
<path d="M5108 7866
L5895 7866
" />
<path d="M27194 19125
L27194 19614
" />
<path d="M26407 19125
L27194 19125
" />
<path d="M26407 19614
L26407 19125
" />
<path d="M27194 19614
L26407 19614
" />
<path d="M22068 8661
L22068 7874
" />
<path d="M22068 7874
L22557 7874
" />
<path d="M22557 7874
L22557 8661
" />
<path d="M22557 8661
L22068 8661
" />
<path d="M22478 5039
L22478 5826
" />
<path d="M22478 5826
L21990 5826
" />
<path d="M21990 5826
L21990 5039
" />
<path d="M21990 5039
L22478 5039
" />
<path d="M11887 16102
L11399 16102
" />
<path d="M11887 15314
L11887 16102
" />
<path d="M11399 15314
L11887 15314
" />
<path d="M11399 16102
L11399 15314
" />
<path d="M7273 6515
L8533 6515
" />
<path d="M8533 6515
L8533 7500
" />
<path d="M8533 7500
L7273 7500
" />
<path d="M7273 7500
L7273 6515
" />
<path d="M28021 6425
L27234 6425
" />
<path d="M27234 6425
L27234 5937
" />
<path d="M27234 5937
L28021 5937
" />
<path d="M28021 5937
L28021 6425
" />
<path d="M28021 5559
L27234 5559
" />
<path d="M27234 5559
L27234 5070
" />
<path d="M27234 5070
L28021 5070
" />
<path d="M28021 5070
L28021 5559
" />
</g>
<g style="fill:#000000; fill-opacity:0.0; 
stroke:#000000; stroke-width:59.0551; stroke-opacity:1; 
stroke-linecap:round; stroke-linejoin:round;">
<path d="M28277 15807
L27883 16200
" />
<path d="M28277 14271
L28277 15807
" />
<path d="M26742 14271
L28277 14271
" />
<path d="M26742 16200
L26742 14271
" />
<path d="M27883 16200
L26742 16200
" />
</g>
<g style="fill:#000000; fill-opacity:0.0; 
stroke:#000000; stroke-width:39.3701; stroke-opacity:1; 
stroke-linecap:round; stroke-linejoin:round;">
<path d="M29163 5236
L29163 5393
" />
<path d="M29183 5314
L29301 5236
" />
<path d="M29301 5393
L29183 5314
" />
<path d="M29301 5236
L29301 5393
" />
<path d="M29557 5472
L28927 5472
" />
<path d="M29557 5157
L29557 5472
" />
<path d="M28927 5157
L29557 5157
" />
<path d="M28927 5472
L28927 5157
" />
<path d="M29163 6102
L29163 6259
" />
<path d="M29183 6181
L29301 6102
" />
<path d="M29301 6259
L29183 6181
" />
<path d="M29301 6102
L29301 6259
" />
<path d="M29557 6338
L28927 6338
" />
<path d="M29557 6023
L29557 6338
" />
<path d="M28927 6023
L29557 6023
" />
<path d="M28927 6338
L28927 6023
" />
<path d="M11564 17165
L11722 17165
" />
<path d="M11643 17145
L11564 17027
" />
<path d="M11722 17027
L11643 17145
" />
<path d="M11564 17027
L11722 17027
" />
<path d="M11801 16771
L11801 17401
" />
<path d="M11486 16771
L11801 16771
" />
<path d="M11486 17401
L11486 16771
" />
<path d="M11801 17401
L11486 17401
" />
<path d="M12746 20472
L12746 21259
" />
<path d="M15108 20472
L12746 20472
" />
<path d="M15108 21259
L15108 20472
" />
<path d="M12746 21259
L15108 21259
" />
<path d="M26958 2440
L26958 3228
" />
<path d="M29320 2440
L26958 2440
" />
<path d="M29320 3228
L29320 2440
" />
<path d="M26958 3228
L29320 3228
" />
<path d="M26958 20472
L26958 21259
" />
<path d="M29320 20472
L26958 20472
" />
<path d="M29320 21259
L29320 20472
" />
<path d="M26958 21259
L29320 21259
" />
<path d="M12746 2440
L12746 3228
" />
<path d="M15108 2440
L12746 2440
" />
<path d="M15108 3228
L15108 2440
" />
<path d="M12746 3228
L15108 3228
" />
<path d="M12029 12362
L12517 12362
" />
<path d="M12029 13149
L12029 12362
" />
<path d="M12517 13149
L12029 13149
" />
<path d="M12517 12362
L12517 13149
" />
<path d="M12029 10393
L12517 10393
" />
<path d="M12029 11181
L12029 10393
" />
<path d="M12517 11181
L12029 11181
" />
<path d="M12517 10393
L12517 11181
" />
<path d="M13513 18818
L12549 18818
" />
<path d="M13738 19035
L13738 19370
" />
<path d="M13513 18818
L13738 19035
" />
<path d="M13738 19370
L12541 19370
" />
<path d="M12541 18818
L12541 19370
" />
<path d="M4273 16732
L4761 16732
" />
<path d="M4273 17519
L4273 16732
" />
<path d="M4761 17519
L4273 17519
" />
<path d="M4761 16732
L4761 17519
" />
<path d="M14399 18464
L15029 18464
" />
<path d="M14399 19724
L14399 18464
" />
<path d="M15029 19724
L14399 19724
" />
<path d="M15029 18464
L15029 19724
" />
<path d="M5336 15472
L5824 15472
" />
<path d="M5336 16259
L5336 15472
" />
<path d="M5824 16259
L5336 16259
" />
<path d="M5824 15472
L5824 16259
" />
<path d="M2431 15000
L1840 15000
" />
<path d="M1840 15000
L1840 8700
" />
<path d="M1840 8700
L2627 8700
" />
<path d="M2627 8700
L2627 14803
" />
<path d="M2627 14803
L2431 15000
" />
</g>
<g style="fill:#000000; fill-opacity:0.0; 
stroke:#000000; stroke-width:59.0551; stroke-opacity:1; 
stroke-linecap:round; stroke-linejoin:round;">
<path d="M6013 9881
L9557 9881
" />
<path d="M9557 9881
L9557 13818
" />
<path d="M9557 13818
L5620 13818
" />
<path d="M5620 13818
L5620 10275
" />
<path d="M5620 10275
L6013 9881
" />
<path d="M24384 17304
L24159 17304
" />
<path d="M24272 17304
L24272 16910
L24234 16966
L24197 17004
L24159 17022
" />
<path d="M24628 16910
L24665 16910
L24703 16929
L24722 16947
L24740 16985
L24759 17060
L24759 17154
L24740 17229
L24722 17266
L24703 17285
L24665 17304
L24628 17304
L24590 17285
L24572 17266
L24553 17229
L24534 17154
L24534 17060
L24553 16985
L24572 16947
L24590 16929
L24628 16910
" />
<path d="M25003 16910
L25040 16910
L25078 16929
L25097 16947
L25115 16985
L25134 17060
L25134 17154
L25115 17229
L25097 17266
L25078 17285
L25040 17304
L25003 17304
L24965 17285
L24947 17266
L24928 17229
L24909 17154
L24909 17060
L24928 16985
L24947 16947
L24965 16929
L25003 16910
" />
<path d="M25303 17304
L25303 16910
" />
<path d="M25528 17304
L25359 17079
" />
<path d="M25528 16910
L25303 17135
" />
<path d="M25678 17304
L25771 17304
L25771 17229
L25734 17210
L25696 17172
L25678 17116
L25678 17022
L25696 16966
L25734 16929
L25790 16910
L25865 16910
L25921 16929
L25959 16966
L25978 17022
L25978 17116
L25959 17172
L25921 17210
L25884 17229
L25884 17304
L25978 17304
" />
<path d="M7292 17956
L7273 17937
L7254 17900
L7254 17806
L7273 17769
L7292 17750
L7329 17731
L7367 17731
L7423 17750
L7648 17975
L7648 17731
" />
<path d="M7254 17600
L7254 17356
L7404 17487
L7404 17431
L7423 17394
L7442 17375
L7479 17356
L7573 17356
L7611 17375
L7629 17394
L7648 17431
L7648 17544
L7629 17581
L7611 17600
" />
<path d="M7254 17225
L7254 16962
L7648 17131
" />
<path d="M7648 16831
L7648 16737
L7573 16737
L7554 16775
L7517 16812
L7461 16831
L7367 16831
L7311 16812
L7273 16775
L7254 16719
L7254 16644
L7273 16587
L7311 16550
L7367 16531
L7461 16531
L7517 16550
L7554 16587
L7573 16625
L7648 16625
L7648 16531
" />
<path d="M10996 25924
L11015 25943
L11034 25999
L11034 26036
L11015 26092
L10978 26130
L10940 26149
L10865 26167
L10809 26167
L10734 26149
L10696 26130
L10659 26092
L10640 26036
L10640 25999
L10659 25943
L10678 25924
" />
<path d="M11034 25755
L10640 25755
" />
<path d="M10828 25755
L10828 25530
" />
<path d="M11034 25530
L10640 25530
" />
<path d="M11034 25118
L10846 25249
" />
<path d="M11034 25343
L10640 25343
L10640 25193
L10659 25155
L10678 25136
L10715 25118
L10771 25118
L10809 25136
L10828 25155
L10846 25193
L10846 25343
" />
<path d="M10659 24743
L10640 24780
L10640 24836
L10659 24893
L10696 24930
L10734 24949
L10809 24968
L10865 24968
L10940 24949
L10978 24930
L11015 24893
L11034 24836
L11034 24799
L11015 24743
L10996 24724
L10865 24724
L10865 24799
" />
<path d="M11071 24649
L11071 24349
" />
<path d="M11034 24255
L10640 24255
" />
<path d="M11034 24068
L10640 24068
L11034 23843
L10640 23843
" />
<path d="M11034 23655
L10640 23655
L10640 23562
L10659 23505
L10696 23468
L10734 23449
L10809 23430
L10865 23430
L10940 23449
L10978 23468
L11015 23505
L11034 23562
L11034 23655
" />
<path d="M11071 23355
L11071 23055
" />
<path d="M10828 22830
L10846 22774
L10865 22755
L10903 22737
L10959 22737
L10996 22755
L11015 22774
L11034 22812
L11034 22962
L10640 22962
L10640 22830
L10659 22793
L10678 22774
L10715 22755
L10753 22755
L10790 22774
L10809 22793
L10828 22830
L10828 22962
" />
<path d="M11034 22343
L10846 22474
" />
<path d="M11034 22568
L10640 22568
L10640 22418
L10659 22380
L10678 22362
L10715 22343
L10771 22343
L10809 22362
L10828 22380
L10846 22418
L10846 22568
" />
<path d="M10640 22230
L10640 22005
" />
<path d="M11034 22118
L10640 22118
" />
<path d="M10659 21668
L10640 21706
L10640 21762
L10659 21818
L10696 21856
L10734 21874
L10809 21893
L10865 21893
L10940 21874
L10978 21856
L11015 21818
L11034 21762
L11034 21724
L11015 21668
L10996 21649
L10865 21649
L10865 21724
" />
<path d="M11034 21256
L10846 21387
" />
<path d="M11034 21481
L10640 21481
L10640 21331
L10659 21293
L10678 21274
L10715 21256
L10771 21256
L10809 21274
L10828 21293
L10846 21331
L10846 21481
" />
<path d="M10828 21087
L10828 20956
" />
<path d="M11034 20899
L11034 21087
L10640 21087
L10640 20899
" />
<path d="M10828 20731
L10828 20599
" />
<path d="M11034 20543
L11034 20731
L10640 20731
L10640 20543
" />
<path d="M11034 20374
L10640 20374
L11034 20149
L10640 20149
" />
<path d="M10091 24908
L10110 24926
L10128 24983
L10128 25020
L10110 25076
L10072 25114
L10035 25133
L9960 25151
L9903 25151
L9828 25133
L9791 25114
L9753 25076
L9735 25020
L9735 24983
L9753 24926
L9772 24908
" />
<path d="M10128 24739
L9735 24739
" />
<path d="M9922 24739
L9922 24514
" />
<path d="M10128 24514
L9735 24514
" />
<path d="M10128 24101
L9941 24233
" />
<path d="M10128 24326
L9735 24326
L9735 24176
L9753 24139
L9772 24120
L9810 24101
L9866 24101
L9903 24120
L9922 24139
L9941 24176
L9941 24326
" />
<path d="M9753 23727
L9735 23764
L9735 23820
L9753 23877
L9791 23914
L9828 23933
L9903 23952
L9960 23952
L10035 23933
L10072 23914
L10110 23877
L10128 23820
L10128 23783
L10110 23727
L10091 23708
L9960 23708
L9960 23783
" />
<path d="M10166 23633
L10166 23333
" />
<path d="M10128 23239
L9735 23239
" />
<path d="M10128 23052
L9735 23052
L10128 22827
L9735 22827
" />
<path d="M10128 22639
L9735 22639
L9735 22545
L9753 22489
L9791 22452
L9828 22433
L9903 22414
L9960 22414
L10035 22433
L10072 22452
L10110 22489
L10128 22545
L10128 22639
" />
<path d="M10166 22339
L10166 22039
" />
<path d="M9753 21739
L9735 21777
L9735 21833
L9753 21889
L9791 21927
L9828 21946
L9903 21964
L9960 21964
L10035 21946
L10072 21927
L10110 21889
L10128 21833
L10128 21796
L10110 21739
L10091 21721
L9960 21721
L9960 21796
" />
<path d="M10128 21327
L9941 21458
" />
<path d="M10128 21552
L9735 21552
L9735 21402
L9753 21364
L9772 21346
L9810 21327
L9866 21327
L9903 21346
L9922 21364
L9941 21402
L9941 21552
" />
<path d="M9922 21158
L9922 21027
" />
<path d="M10128 20971
L10128 21158
L9735 21158
L9735 20971
" />
<path d="M9922 20802
L9922 20671
" />
<path d="M10128 20614
L10128 20802
L9735 20802
L9735 20614
" />
<path d="M10128 20446
L9735 20446
L10128 20221
L9735 20221
" />
<path d="M9343 25166
L9362 25185
L9380 25241
L9380 25279
L9362 25335
L9324 25373
L9287 25391
L9212 25410
L9155 25410
L9080 25391
L9043 25373
L9005 25335
L8987 25279
L8987 25241
L9005 25185
L9024 25166
" />
<path d="M9380 24998
L8987 24998
" />
<path d="M9174 24998
L9174 24773
" />
<path d="M9380 24773
L8987 24773
" />
<path d="M9380 24360
L9193 24491
" />
<path d="M9380 24585
L8987 24585
L8987 24435
L9005 24398
L9024 24379
L9062 24360
L9118 24360
L9155 24379
L9174 24398
L9193 24435
L9193 24585
" />
<path d="M9005 23985
L8987 24023
L8987 24079
L9005 24135
L9043 24173
L9080 24191
L9155 24210
L9212 24210
L9287 24191
L9324 24173
L9362 24135
L9380 24079
L9380 24041
L9362 23985
L9343 23967
L9212 23967
L9212 24041
" />
<path d="M9418 23892
L9418 23592
" />
<path d="M9380 23498
L8987 23498
" />
<path d="M9380 23310
L8987 23310
L9380 23085
L8987 23085
" />
<path d="M9380 22898
L8987 22898
L8987 22804
L9005 22748
L9043 22710
L9080 22692
L9155 22673
L9212 22673
L9287 22692
L9324 22710
L9362 22748
L9380 22804
L9380 22898
" />
<path d="M9418 22598
L9418 22298
" />
<path d="M9193 22129
L9380 22129
" />
<path d="M8987 22260
L9193 22129
L8987 21998
" />
<path d="M9174 21867
L9174 21736
" />
<path d="M9380 21679
L9380 21867
L8987 21867
L8987 21679
" />
<path d="M9380 21323
L9380 21511
L8987 21511
" />
<path d="M9380 21004
L9380 21192
L8987 21192
" />
<path d="M8987 20798
L8987 20723
L9005 20686
L9043 20648
L9118 20629
L9249 20629
L9324 20648
L9362 20686
L9380 20723
L9380 20798
L9362 20836
L9324 20873
L9249 20892
L9118 20892
L9043 20873
L9005 20836
L8987 20798
" />
<path d="M8987 20498
L9380 20404
L9099 20329
L9380 20254
L8987 20161
" />
<path d="M8595 25183
L8614 25202
L8632 25258
L8632 25296
L8614 25352
L8576 25389
L8539 25408
L8464 25427
L8407 25427
L8332 25408
L8295 25389
L8257 25352
L8239 25296
L8239 25258
L8257 25202
L8276 25183
" />
<path d="M8632 25014
L8239 25014
" />
<path d="M8426 25014
L8426 24790
" />
<path d="M8632 24790
L8239 24790
" />
<path d="M8632 24377
L8445 24508
" />
<path d="M8632 24602
L8239 24602
L8239 24452
L8257 24415
L8276 24396
L8314 24377
L8370 24377
L8407 24396
L8426 24415
L8445 24452
L8445 24602
" />
<path d="M8257 24002
L8239 24040
L8239 24096
L8257 24152
L8295 24190
L8332 24208
L8407 24227
L8464 24227
L8539 24208
L8576 24190
L8614 24152
L8632 24096
L8632 24058
L8614 24002
L8595 23983
L8464 23983
L8464 24058
" />
<path d="M8670 23908
L8670 23608
" />
<path d="M8632 23515
L8239 23515
" />
<path d="M8632 23327
L8239 23327
L8632 23102
L8239 23102
" />
<path d="M8632 22915
L8239 22915
L8239 22821
L8257 22765
L8295 22727
L8332 22709
L8407 22690
L8464 22690
L8539 22709
L8576 22727
L8614 22765
L8632 22821
L8632 22915
" />
<path d="M8670 22615
L8670 22315
" />
<path d="M8239 22146
L8239 22071
L8257 22034
L8295 21996
L8370 21977
L8501 21977
L8576 21996
L8614 22034
L8632 22071
L8632 22146
L8614 22184
L8576 22221
L8501 22240
L8370 22240
L8295 22221
L8257 22184
L8239 22146
" />
<path d="M8632 21584
L8445 21715
" />
<path d="M8632 21809
L8239 21809
L8239 21659
L8257 21621
L8276 21602
L8314 21584
L8370 21584
L8407 21602
L8426 21621
L8445 21659
L8445 21809
" />
<path d="M8520 21434
L8520 21246
" />
<path d="M8632 21471
L8239 21340
L8632 21209
" />
<path d="M8632 21077
L8239 21077
L8632 20853
L8239 20853
" />
<path d="M8257 20459
L8239 20496
L8239 20553
L8257 20609
L8295 20646
L8332 20665
L8407 20684
L8464 20684
L8539 20665
L8576 20646
L8614 20609
L8632 20553
L8632 20515
L8614 20459
L8595 20440
L8464 20440
L8464 20515
" />
<path d="M8426 20271
L8426 20140
" />
<path d="M8632 20084
L8632 20271
L8239 20271
L8239 20084
" />
<path d="M7768 23933
L7787 23952
L7806 24008
L7806 24045
L7787 24101
L7749 24139
L7712 24158
L7637 24176
L7581 24176
L7506 24158
L7468 24139
L7431 24101
L7412 24045
L7412 24008
L7431 23952
L7449 23933
" />
<path d="M7806 23764
L7412 23764
" />
<path d="M7599 23764
L7599 23539
" />
<path d="M7806 23539
L7412 23539
" />
<path d="M7806 23127
L7618 23258
" />
<path d="M7806 23352
L7412 23352
L7412 23202
L7431 23164
L7449 23145
L7487 23127
L7543 23127
L7581 23145
L7599 23164
L7618 23202
L7618 23352
" />
<path d="M7431 22752
L7412 22789
L7412 22845
L7431 22902
L7468 22939
L7506 22958
L7581 22977
L7637 22977
L7712 22958
L7749 22939
L7787 22902
L7806 22845
L7806 22808
L7787 22752
L7768 22733
L7637 22733
L7637 22808
" />
<path d="M7843 22658
L7843 22358
" />
<path d="M7806 22264
L7412 22264
" />
<path d="M7806 22077
L7412 22077
L7806 21852
L7412 21852
" />
<path d="M7806 21664
L7412 21664
L7412 21571
L7431 21514
L7468 21477
L7506 21458
L7581 21439
L7637 21439
L7712 21458
L7749 21477
L7787 21514
L7806 21571
L7806 21664
" />
<path d="M7843 21364
L7843 21064
" />
<path d="M7806 20746
L7618 20877
" />
<path d="M7806 20971
L7412 20971
L7412 20821
L7431 20783
L7449 20764
L7487 20746
L7543 20746
L7581 20764
L7599 20783
L7618 20821
L7618 20971
" />
<path d="M7599 20577
L7599 20446
" />
<path d="M7806 20389
L7806 20577
L7412 20577
L7412 20389
" />
<path d="M7806 20221
L7412 20221
L7412 20127
L7431 20071
L7468 20033
L7506 20014
L7581 19996
L7637 19996
L7712 20014
L7749 20033
L7787 20071
L7806 20127
L7806 20221
" />
<path d="M8046 16241
L7914 16053
" />
<path d="M7821 16241
L7821 15847
L7971 15847
L8008 15866
L8027 15884
L8046 15922
L8046 15978
L8027 16016
L8008 16034
L7971 16053
L7821 16053
" />
<path d="M8121 16278
L8420 16278
" />
<path d="M8514 16241
L8514 15847
L8664 15847
L8702 15866
L8720 15884
L8739 15922
L8739 15978
L8720 16016
L8702 16034
L8664 16053
L8514 16053
" />
<path d="M9077 16241
L9077 16034
L9058 15997
L9020 15978
L8945 15978
L8908 15997
" />
<path d="M9077 16222
L9039 16241
L8945 16241
L8908 16222
L8889 16184
L8889 16147
L8908 16109
L8945 16091
L9039 16091
L9077 16072
" />
<path d="M9433 16222
L9395 16241
L9320 16241
L9283 16222
L9264 16203
L9245 16166
L9245 16053
L9264 16016
L9283 15997
L9320 15978
L9395 15978
L9433 15997
" />
<path d="M9602 16241
L9602 15847
" />
<path d="M9639 16091
L9752 16241
" />
<path d="M9752 15978
L9602 16128
" />
<path d="M9827 16278
L10127 16278
" />
<path d="M10202 15884
L10220 15866
L10258 15847
L10351 15847
L10389 15866
L10408 15884
L10426 15922
L10426 15959
L10408 16016
L10183 16241
L10426 16241
" />
<path d="M10576 15884
L10595 15866
L10633 15847
L10726 15847
L10764 15866
L10783 15884
L10801 15922
L10801 15959
L10783 16016
L10558 16241
L10801 16241
" />
<path d="M11045 15847
L11083 15847
L11120 15866
L11139 15884
L11158 15922
L11176 15997
L11176 16091
L11158 16166
L11139 16203
L11120 16222
L11083 16241
L11045 16241
L11008 16222
L10989 16203
L10970 16166
L10951 16091
L10951 15997
L10970 15922
L10989 15884
L11008 15866
L11045 15847
" />
<path d="M11326 16241
L11420 16241
L11420 16166
L11383 16147
L11345 16109
L11326 16053
L11326 15959
L11345 15903
L11383 15866
L11439 15847
L11514 15847
L11570 15866
L11608 15903
L11626 15959
L11626 16053
L11608 16109
L11570 16147
L11533 16166
L11533 16241
L11626 16241
" />
<path d="M10916 17476
L10728 17607
" />
<path d="M10916 17701
L10522 17701
L10522 17551
L10541 17514
L10560 17495
L10597 17476
L10653 17476
L10691 17495
L10710 17514
L10728 17551
L10728 17701
" />
<path d="M10916 17307
L10522 17307
L10916 17082
L10522 17082
" />
<path d="M10916 16689
L10916 16914
" />
<path d="M10916 16801
L10522 16801
L10578 16839
L10616 16876
L10635 16914
" />
<path d="M30188 18485
L30188 18091
L30338 18091
L30376 18110
L30395 18128
L30413 18166
L30413 18222
L30395 18260
L30376 18278
L30338 18297
L30188 18297
" />
<path d="M30545 18091
L30638 18485
L30713 18203
L30788 18485
L30882 18091
" />
<path d="M31257 18485
L31126 18297
" />
<path d="M31032 18485
L31032 18091
L31182 18091
L31220 18110
L31238 18128
L31257 18166
L31257 18222
L31238 18260
L31220 18278
L31182 18297
L31032 18297
" />
<path d="M31613 18485
L31426 18485
L31426 18091
" />
<path d="M31744 18278
L31876 18278
" />
<path d="M31932 18485
L31744 18485
L31744 18091
L31932 18091
" />
<path d="M32101 18485
L32101 18091
L32194 18091
L32251 18110
L32288 18147
L32307 18185
L32326 18260
L32326 18316
L32307 18391
L32288 18428
L32251 18466
L32194 18485
L32101 18485
" />
<path d="M32401 18522
L32701 18522
" />
<path d="M33001 18110
L32963 18091
L32907 18091
L32851 18110
L32813 18147
L32794 18185
L32776 18260
L32776 18316
L32794 18391
L32813 18428
L32851 18466
L32907 18485
L32944 18485
L33001 18466
L33019 18447
L33019 18316
L32944 18316
" />
<path d="M33413 18485
L33282 18297
" />
<path d="M33188 18485
L33188 18091
L33338 18091
L33375 18110
L33394 18128
L33413 18166
L33413 18222
L33394 18260
L33375 18278
L33338 18297
L33188 18297
" />
<path d="M33582 18485
L33582 18091
L33807 18485
L33807 18091
" />
<path d="M21349 4190
L21349 4415
" />
<path d="M21349 4302
L20955 4302
L21011 4340
L21049 4377
L21068 4415
" />
<path d="M20955 3946
L20955 3908
L20974 3871
L20993 3852
L21030 3833
L21105 3815
L21199 3815
L21274 3833
L21311 3852
L21330 3871
L21349 3908
L21349 3946
L21330 3983
L21311 4002
L21274 4021
L21199 4040
L21105 4040
L21030 4021
L20993 4002
L20974 3983
L20955 3946
" />
<path d="M21086 3646
L21480 3646
" />
<path d="M21293 3458
L21330 3440
L21349 3402
" />
<path d="M21293 3646
L21330 3627
L21349 3590
L21349 3515
L21330 3477
L21293 3458
L21086 3458
" />
<path d="M21143 3102
L21143 3233
" />
<path d="M21349 3233
L20955 3233
L20955 3046
" />
<path d="M26981 7815
L26756 7815
" />
<path d="M26868 7815
L26868 7422
L26831 7478
L26793 7515
L26756 7534
" />
<path d="M27224 7422
L27262 7422
L27299 7440
L27318 7459
L27337 7497
L27356 7572
L27356 7665
L27337 7740
L27318 7778
L27299 7797
L27262 7815
L27224 7815
L27187 7797
L27168 7778
L27149 7740
L27131 7665
L27131 7572
L27149 7497
L27168 7459
L27187 7440
L27224 7422
" />
<path d="M27524 7553
L27524 7947
" />
<path d="M27712 7759
L27731 7797
L27768 7815
" />
<path d="M27524 7759
L27543 7797
L27581 7815
L27656 7815
L27693 7797
L27712 7759
L27712 7553
" />
<path d="M28068 7609
L27937 7609
" />
<path d="M27937 7815
L27937 7422
L28124 7422
" />
<path d="M30239 17304
L30014 17304
" />
<path d="M30127 17304
L30127 16910
L30089 16966
L30052 17004
L30014 17022
" />
<path d="M30408 17041
L30408 17435
" />
<path d="M30595 17247
L30614 17285
L30651 17304
" />
<path d="M30408 17247
L30426 17285
L30464 17304
L30539 17304
L30576 17285
L30595 17247
L30595 17041
" />
<path d="M30951 17097
L30820 17097
" />
<path d="M30820 17304
L30820 16910
L31008 16910
" />
<path d="M8533 8288
L8308 8288
" />
<path d="M8420 8288
L8420 7894
L8383 7950
L8345 7988
L8308 8007
" />
<path d="M8777 7894
L8814 7894
L8852 7913
L8870 7932
L8889 7969
L8908 8044
L8908 8138
L8889 8213
L8870 8250
L8852 8269
L8814 8288
L8777 8288
L8739 8269
L8720 8250
L8702 8213
L8683 8138
L8683 8044
L8702 7969
L8720 7932
L8739 7913
L8777 7894
" />
<path d="M9152 7894
L9189 7894
L9227 7913
L9245 7932
L9264 7969
L9283 8044
L9283 8138
L9264 8213
L9245 8250
L9227 8269
L9189 8288
L9152 8288
L9114 8269
L9095 8250
L9077 8213
L9058 8138
L9058 8044
L9077 7969
L9095 7932
L9114 7913
L9152 7894
" />
<path d="M9452 8025
L9452 8288
" />
<path d="M9452 8063
L9470 8044
L9508 8025
L9564 8025
L9602 8044
L9620 8082
L9620 8288
" />
<path d="M9939 8082
L9808 8082
" />
<path d="M9808 8288
L9808 7894
L9995 7894
" />
<path d="M10052 8325
L10351 8325
" />
<path d="M10614 8288
L10614 7894
" />
<path d="M10614 8269
L10576 8288
L10501 8288
L10464 8269
L10445 8250
L10426 8213
L10426 8100
L10445 8063
L10464 8044
L10501 8025
L10576 8025
L10614 8044
" />
<path d="M10951 8269
L10914 8288
L10839 8288
L10801 8269
L10783 8232
L10783 8082
L10801 8044
L10839 8025
L10914 8025
L10951 8044
L10970 8082
L10970 8119
L10783 8157
" />
<path d="M11308 8269
L11270 8288
L11195 8288
L11158 8269
L11139 8250
L11120 8213
L11120 8100
L11139 8063
L11158 8044
L11195 8025
L11270 8025
L11308 8044
" />
<path d="M11533 8288
L11495 8269
L11476 8250
L11458 8213
L11458 8100
L11476 8063
L11495 8044
L11533 8025
L11589 8025
L11626 8044
L11645 8063
L11664 8100
L11664 8213
L11645 8250
L11626 8269
L11589 8288
L11533 8288
" />
<path d="M12001 8025
L12001 8288
" />
<path d="M11833 8025
L11833 8232
L11851 8269
L11889 8288
L11945 8288
L11983 8269
L12001 8250
" />
<path d="M12189 8025
L12189 8419
" />
<path d="M12189 8044
L12226 8025
L12301 8025
L12339 8044
L12357 8063
L12376 8100
L12376 8213
L12357 8250
L12339 8269
L12301 8288
L12226 8288
L12189 8269
" />
<path d="M12601 8288
L12564 8269
L12545 8232
L12545 7894
" />
<path d="M12751 8288
L12751 8025
" />
<path d="M12751 7894
L12732 7913
L12751 7932
L12770 7913
L12751 7894
L12751 7932
" />
<path d="M12939 8025
L12939 8288
" />
<path d="M12939 8063
L12957 8044
L12995 8025
L13051 8025
L13089 8044
L13107 8082
L13107 8288
" />
<path d="M13464 8025
L13464 8344
L13445 8382
L13426 8400
L13389 8419
L13332 8419
L13295 8400
" />
<path d="M13464 8269
L13426 8288
L13351 8288
L13314 8269
L13295 8250
L13276 8213
L13276 8100
L13295 8063
L13314 8044
L13351 8025
L13426 8025
L13464 8044
" />
<path d="M23379 4154
L23604 4154
" />
<path d="M23492 4548
L23492 4154
" />
<path d="M23735 4548
L23735 4154
L23885 4154
L23923 4173
L23942 4191
L23960 4229
L23960 4285
L23942 4323
L23923 4341
L23885 4360
L23735 4360
" />
<path d="M24298 4285
L24298 4548
" />
<path d="M24204 4135
L24110 4416
L24354 4416
" />
<path d="M24579 4154
L24617 4154
L24654 4173
L24673 4191
L24692 4229
L24710 4304
L24710 4398
L24692 4473
L24673 4510
L24654 4529
L24617 4548
L24579 4548
L24542 4529
L24523 4510
L24504 4473
L24485 4398
L24485 4304
L24504 4229
L24523 4191
L24542 4173
L24579 4154
" />
<path d="M25067 4154
L24879 4154
L24860 4341
L24879 4323
L24917 4304
L25010 4304
L25048 4323
L25067 4341
L25085 4379
L25085 4473
L25067 4510
L25048 4529
L25010 4548
L24917 4548
L24879 4529
L24860 4510
" />
<path d="M25423 4154
L25348 4154
L25310 4173
L25291 4191
L25254 4248
L25235 4323
L25235 4473
L25254 4510
L25273 4529
L25310 4548
L25385 4548
L25423 4529
L25441 4510
L25460 4473
L25460 4379
L25441 4341
L25423 4323
L25385 4304
L25310 4304
L25273 4323
L25254 4341
L25235 4379
" />
<path d="M24474 18128
L24493 18110
L24530 18091
L24624 18091
L24662 18110
L24680 18128
L24699 18166
L24699 18203
L24680 18260
L24455 18485
L24699 18485
" />
<path d="M24830 18091
L25074 18091
L24943 18241
L24999 18241
L25037 18260
L25055 18278
L25074 18316
L25074 18410
L25055 18447
L25037 18466
L24999 18485
L24887 18485
L24849 18466
L24830 18447
" />
<path d="M25205 18091
L25468 18091
L25299 18485
" />
<path d="M25599 18485
L25693 18485
L25693 18410
L25655 18391
L25618 18353
L25599 18297
L25599 18203
L25618 18147
L25655 18110
L25711 18091
L25786 18091
L25843 18110
L25880 18147
L25899 18203
L25899 18297
L25880 18353
L25843 18391
L25805 18410
L25805 18485
L25899 18485
" />
<path d="M27918 13957
L27693 13957
" />
<path d="M27806 13957
L27806 13563
L27768 13620
L27731 13657
L27693 13676
" />
<path d="M28162 13563
L28199 13563
L28237 13582
L28255 13601
L28274 13638
L28293 13713
L28293 13807
L28274 13882
L28255 13920
L28237 13938
L28199 13957
L28162 13957
L28124 13938
L28106 13920
L28087 13882
L28068 13807
L28068 13713
L28087 13638
L28106 13601
L28124 13582
L28162 13563
" />
<path d="M28462 13957
L28462 13563
" />
<path d="M28687 13957
L28518 13732
" />
<path d="M28687 13563
L28462 13788
" />
<path d="M28837 13957
L28930 13957
L28930 13882
L28893 13863
L28855 13826
L28837 13770
L28837 13676
L28855 13620
L28893 13582
L28949 13563
L29024 13563
L29080 13582
L29118 13620
L29137 13676
L29137 13770
L29118 13826
L29080 13863
L29043 13882
L29043 13957
L29137 13957
" />
<path d="M5044 7619
L4819 7619
" />
<path d="M4932 7619
L4932 7225
L4894 7281
L4857 7319
L4819 7337
" />
<path d="M5288 7225
L5325 7225
L5363 7244
L5381 7262
L5400 7300
L5419 7375
L5419 7469
L5400 7544
L5381 7581
L5363 7600
L5325 7619
L5288 7619
L5250 7600
L5232 7581
L5213 7544
L5194 7469
L5194 7375
L5213 7300
L5232 7262
L5250 7244
L5288 7225
" />
<path d="M5588 7619
L5588 7225
" />
<path d="M5813 7619
L5644 7394
" />
<path d="M5813 7225
L5588 7450
" />
<path d="M5963 7619
L6056 7619
L6056 7544
L6019 7525
L5981 7487
L5963 7431
L5963 7337
L5981 7281
L6019 7244
L6075 7225
L6150 7225
L6206 7244
L6244 7281
L6263 7337
L6263 7431
L6244 7487
L6206 7525
L6169 7544
L6169 7619
L6263 7619
" />
<path d="M24453 19508
L24229 19508
" />
<path d="M24341 19508
L24341 19115
L24303 19171
L24266 19208
L24229 19227
" />
<path d="M24697 19115
L24735 19115
L24772 19133
L24791 19152
L24810 19190
L24828 19265
L24828 19358
L24810 19433
L24791 19471
L24772 19490
L24735 19508
L24697 19508
L24660 19490
L24641 19471
L24622 19433
L24603 19358
L24603 19265
L24622 19190
L24641 19152
L24660 19133
L24697 19115
" />
<path d="M24997 19508
L24997 19115
" />
<path d="M25222 19508
L25053 19283
" />
<path d="M25222 19115
L24997 19340
" />
<path d="M25372 19508
L25466 19508
L25466 19433
L25428 19415
L25391 19377
L25372 19321
L25372 19227
L25391 19171
L25428 19133
L25485 19115
L25560 19115
L25616 19133
L25653 19171
L25672 19227
L25672 19321
L25653 19377
L25616 19415
L25578 19433
L25578 19508
L25672 19508
" />
<path d="M20132 8445
L19907 8445
" />
<path d="M20020 8445
L20020 8052
L19982 8108
L19945 8145
L19907 8164
" />
<path d="M20376 8052
L20413 8052
L20451 8070
L20470 8089
L20488 8127
L20507 8202
L20507 8295
L20488 8370
L20470 8408
L20451 8427
L20413 8445
L20376 8445
L20338 8427
L20320 8408
L20301 8370
L20282 8295
L20282 8202
L20301 8127
L20320 8089
L20338 8070
L20376 8052
" />
<path d="M20751 8052
L20788 8052
L20826 8070
L20845 8089
L20863 8127
L20882 8202
L20882 8295
L20863 8370
L20845 8408
L20826 8427
L20788 8445
L20751 8445
L20713 8427
L20695 8408
L20676 8370
L20657 8295
L20657 8202
L20676 8127
L20695 8089
L20713 8070
L20751 8052
" />
<path d="M21051 8445
L21051 8052
" />
<path d="M21276 8445
L21107 8220
" />
<path d="M21276 8052
L21051 8277
" />
<path d="M21426 8445
L21519 8445
L21519 8370
L21482 8352
L21444 8314
L21426 8258
L21426 8164
L21444 8108
L21482 8070
L21538 8052
L21613 8052
L21669 8070
L21707 8108
L21726 8164
L21726 8258
L21707 8314
L21669 8352
L21632 8370
L21632 8445
L21726 8445
" />
<path d="M22412 4409
L22412 4634
" />
<path d="M22412 4521
L22018 4521
L22074 4559
L22112 4596
L22131 4634
" />
<path d="M22374 4240
L22393 4221
L22412 4240
L22393 4259
L22374 4240
L22412 4240
" />
<path d="M22056 4071
L22037 4053
L22018 4015
L22018 3922
L22037 3884
L22056 3865
L22093 3847
L22131 3847
L22187 3865
L22412 4090
L22412 3847
" />
<path d="M22412 3678
L22018 3678
" />
<path d="M22412 3453
L22187 3622
" />
<path d="M22018 3453
L22243 3678
" />
<path d="M22412 3303
L22412 3209
L22337 3209
L22318 3247
L22281 3284
L22224 3303
L22131 3303
L22074 3284
L22037 3247
L22018 3190
L22018 3115
L22037 3059
L22074 3022
L22131 3003
L22224 3003
L22281 3022
L22318 3059
L22337 3097
L22412 3097
L22412 3003
" />
<path d="M12191 15530
L12209 15511
L12247 15493
L12341 15493
L12378 15511
L12397 15530
L12416 15568
L12416 15605
L12397 15661
L12172 15886
L12416 15886
" />
<path d="M12547 15493
L12791 15493
L12659 15643
L12716 15643
L12753 15661
L12772 15680
L12791 15718
L12791 15811
L12772 15849
L12753 15868
L12716 15886
L12603 15886
L12566 15868
L12547 15849
" />
<path d="M12922 15493
L13184 15493
L13016 15886
" />
<path d="M13315 15886
L13409 15886
L13409 15811
L13372 15793
L13334 15755
L13315 15699
L13315 15605
L13334 15549
L13372 15511
L13428 15493
L13503 15493
L13559 15511
L13597 15549
L13615 15605
L13615 15699
L13597 15755
L13559 15793
L13522 15811
L13522 15886
L13615 15886
" />
<path d="M9375 7146
L9150 7146
" />
<path d="M9262 7146
L9262 6752
L9225 6809
L9187 6846
L9150 6865
" />
<path d="M9731 6752
L9543 6752
L9525 6940
L9543 6921
L9581 6902
L9675 6902
L9712 6921
L9731 6940
L9750 6977
L9750 7071
L9731 7109
L9712 7127
L9675 7146
L9581 7146
L9543 7127
L9525 7109
" />
<path d="M9918 7146
L9918 6752
" />
<path d="M10143 7146
L9975 6921
" />
<path d="M10143 6752
L9918 6977
" />
<path d="M10293 7146
L10387 7146
L10387 7071
L10350 7052
L10312 7015
L10293 6959
L10293 6865
L10312 6809
L10350 6771
L10406 6752
L10481 6752
L10537 6771
L10575 6809
L10593 6865
L10593 6959
L10575 7015
L10537 7052
L10500 7071
L10500 7146
L10593 7146
" />
<path d="M26098 6359
L25873 6359
" />
<path d="M25985 6359
L25985 5965
L25948 6021
L25910 6059
L25873 6077
" />
<path d="M26266 6359
L26266 5965
" />
<path d="M26491 6359
L26323 6134
" />
<path d="M26491 5965
L26266 6190
" />
<path d="M26641 6359
L26735 6359
L26735 6284
L26698 6265
L26660 6227
L26641 6171
L26641 6077
L26660 6021
L26698 5984
L26754 5965
L26829 5965
L26885 5984
L26923 6021
L26941 6077
L26941 6171
L26923 6227
L26885 6265
L26848 6284
L26848 6359
L26941 6359
" />
<path d="M26058 5532
L25833 5532
" />
<path d="M25946 5532
L25946 5138
L25908 5194
L25871 5232
L25833 5251
" />
<path d="M26227 5532
L26227 5138
" />
<path d="M26452 5532
L26283 5307
" />
<path d="M26452 5138
L26227 5363
" />
<path d="M26602 5532
L26696 5532
L26696 5457
L26658 5438
L26621 5401
L26602 5344
L26602 5251
L26621 5194
L26658 5157
L26714 5138
L26789 5138
L26846 5157
L26883 5194
L26902 5251
L26902 5344
L26883 5401
L26846 5438
L26808 5457
L26808 5532
L26902 5532
" />
<path d="M26394 15414
L26394 15020
" />
<path d="M26806 15414
L26675 15226
" />
<path d="M26581 15414
L26581 15020
L26731 15020
L26769 15039
L26788 15058
L26806 15095
L26806 15151
L26788 15189
L26769 15208
L26731 15226
L26581 15226
" />
<path d="M27106 15208
L26975 15208
" />
<path d="M26975 15414
L26975 15020
L27163 15020
" />
<path d="M27275 15020
L27537 15020
L27369 15414
" />
<path d="M27650 15020
L27894 15020
L27762 15170
L27819 15170
L27856 15189
L27875 15208
L27894 15245
L27894 15339
L27875 15376
L27856 15395
L27819 15414
L27706 15414
L27669 15395
L27650 15376
" />
<path d="M28269 15414
L28044 15414
" />
<path d="M28156 15414
L28156 15020
L28119 15076
L28081 15114
L28044 15133
" />
<path d="M28456 15414
L28531 15414
L28569 15395
L28587 15376
L28625 15320
L28644 15245
L28644 15095
L28625 15058
L28606 15039
L28569 15020
L28494 15020
L28456 15039
L28437 15058
L28419 15095
L28419 15189
L28437 15226
L28456 15245
L28494 15264
L28569 15264
L28606 15245
L28625 15226
L28644 15189
" />
<path d="M30760 5256
L30629 5069
" />
<path d="M30535 5256
L30535 4863
L30685 4863
L30723 4881
L30741 4900
L30760 4938
L30760 4994
L30741 5031
L30723 5050
L30685 5069
L30535 5069
" />
<path d="M30929 5050
L31060 5050
" />
<path d="M31116 5256
L30929 5256
L30929 4863
L31116 4863
" />
<path d="M31285 5256
L31285 4863
L31379 4863
L31435 4881
L31473 4919
L31491 4956
L31510 5031
L31510 5088
L31491 5163
L31473 5200
L31435 5238
L31379 5256
L31285 5256
" />
<path d="M30554 5984
L30516 5965
L30460 5965
L30404 5984
L30366 6021
L30348 6059
L30329 6134
L30329 6190
L30348 6265
L30366 6302
L30404 6340
L30460 6359
L30498 6359
L30554 6340
L30573 6321
L30573 6190
L30498 6190
" />
<path d="M30966 6359
L30835 6171
" />
<path d="M30741 6359
L30741 5965
L30891 5965
L30929 5984
L30948 6003
L30966 6040
L30966 6096
L30948 6134
L30929 6152
L30891 6171
L30741 6171
" />
<path d="M31135 6152
L31266 6152
" />
<path d="M31323 6359
L31135 6359
L31135 5965
L31323 5965
" />
<path d="M31491 6152
L31623 6152
" />
<path d="M31679 6359
L31491 6359
L31491 5965
L31679 5965
" />
<path d="M31848 6359
L31848 5965
L32073 6359
L32073 5965
" />
<path d="M12110 16871
L12335 16871
" />
<path d="M12223 17264
L12223 16871
" />
<path d="M12466 17264
L12466 16871
L12597 17152
L12729 16871
L12729 17264
" />
<path d="M12916 17264
L12916 16871
L13066 16871
L13104 16889
L13122 16908
L13141 16946
L13141 17002
L13122 17039
L13104 17058
L13066 17077
L12916 17077
" />
<path d="M13272 16871
L13366 17264
L13441 16983
L13516 17264
L13610 16871
" />
<path d="M13741 17152
L13929 17152
" />
<path d="M13704 17264
L13835 16871
L13966 17264
" />
<path d="M14322 17264
L14191 17077
" />
<path d="M14097 17264
L14097 16871
L14247 16871
L14285 16889
L14303 16908
L14322 16946
L14322 17002
L14303 17039
L14285 17058
L14247 17077
L14097 17077
" />
<path d="M14491 17264
L14491 16871
L14716 17264
L14716 16871
" />
<path d="M14810 17302
L15110 17302
" />
<path d="M15428 17264
L15297 17077
" />
<path d="M15203 17264
L15203 16871
L15353 16871
L15391 16889
L15410 16908
L15428 16946
L15428 17002
L15410 17039
L15391 17058
L15353 17077
L15203 17077
" />
<path d="M15597 17058
L15728 17058
" />
<path d="M15785 17264
L15597 17264
L15597 16871
L15785 16871
" />
<path d="M15953 17264
L15953 16871
L16047 16871
L16103 16889
L16141 16927
L16160 16964
L16178 17039
L16178 17095
L16160 17170
L16141 17208
L16103 17245
L16047 17264
L15953 17264
" />
<path d="M33417 17208
L33435 17152
L33435 17058
L33417 17020
L33398 17002
L33360 16983
L33323 16983
L33285 17002
L33267 17020
L33248 17058
L33229 17133
L33211 17170
L33192 17189
L33154 17208
L33117 17208
L33079 17189
L33061 17170
L33042 17133
L33042 17039
L33061 16983
" />
<path d="M33042 16852
L33435 16758
L33154 16683
L33435 16608
L33042 16514
" />
<path d="M33473 16458
L33473 16158
" />
<path d="M33435 16064
L33042 16064
L33042 15914
L33061 15877
L33079 15858
L33117 15839
L33173 15839
L33211 15858
L33229 15877
L33248 15914
L33248 16064
" />
<path d="M33042 15708
L33435 15614
L33154 15539
L33435 15464
L33042 15371
" />
<path d="M33435 14996
L33248 15127
" />
<path d="M33435 15221
L33042 15221
L33042 15071
L33061 15033
L33079 15014
L33117 14996
L33173 14996
L33211 15014
L33229 15033
L33248 15071
L33248 15221
" />
<path d="M1212 7750
L1231 7694
L1231 7600
L1212 7562
L1193 7544
L1156 7525
L1118 7525
L1081 7544
L1062 7562
L1043 7600
L1025 7675
L1006 7712
L987 7731
L950 7750
L912 7750
L875 7731
L856 7712
L837 7675
L837 7581
L856 7525
" />
<path d="M837 7394
L1231 7300
L950 7225
L1231 7150
L837 7056
" />
<path d="M1268 7000
L1268 6700
" />
<path d="M1231 6606
L837 6606
L1118 6475
L837 6344
L1231 6344
" />
<path d="M837 6081
L837 6006
L856 5969
L893 5931
L968 5913
L1100 5913
L1175 5931
L1212 5969
L1231 6006
L1231 6081
L1212 6119
L1175 6156
L1100 6175
L968 6175
L893 6156
L856 6119
L837 6081
" />
<path d="M1231 5744
L837 5744
L837 5650
L856 5594
L893 5556
L931 5538
L1006 5519
L1062 5519
L1137 5538
L1175 5556
L1212 5594
L1231 5650
L1231 5744
" />
<path d="M1025 5350
L1025 5219
" />
<path d="M1231 5163
L1231 5350
L837 5350
L837 5163
" />
<path d="M13076 22148
L13057 22167
L13001 22185
L12963 22185
L12907 22167
L12869 22129
L12851 22092
L12832 22017
L12832 21961
L12851 21886
L12869 21848
L12907 21811
L12963 21792
L13001 21792
L13057 21811
L13076 21829
" />
<path d="M13319 21792
L13394 21792
L13432 21811
L13469 21848
L13488 21923
L13488 22054
L13469 22129
L13432 22167
L13394 22185
L13319 22185
L13282 22167
L13244 22129
L13226 22054
L13226 21923
L13244 21848
L13282 21811
L13319 21792
" />
<path d="M13657 22185
L13657 21792
L13882 22185
L13882 21792
" />
<path d="M14069 22185
L14069 21792
L14294 22185
L14294 21792
" />
<path d="M14388 22223
L14688 22223
" />
<path d="M14782 22185
L14782 21792
L14932 21792
L14969 21811
L14988 21829
L15007 21867
L15007 21923
L14988 21961
L14969 21979
L14932 21998
L14782 21998
" />
<path d="M15138 21792
L15232 22185
L15306 21904
L15381 22185
L15475 21792
" />
<path d="M15625 22185
L15625 21792
L15756 22073
L15888 21792
L15888 22185
" />
<path d="M15981 22223
L16281 22223
" />
<path d="M16356 21829
L16375 21811
L16413 21792
L16506 21792
L16544 21811
L16563 21829
L16581 21867
L16581 21904
L16563 21961
L16338 22185
L16581 22185
" />
<path d="M16656 22223
L16956 22223
" />
<path d="M17181 21979
L17050 21979
" />
<path d="M17050 22185
L17050 21792
L17238 21792
" />
<path d="M17387 21979
L17519 21979
" />
<path d="M17575 22185
L17387 22185
L17387 21792
L17575 21792
" />
<path d="M17744 22185
L17744 21792
L17875 22073
L18006 21792
L18006 22185
" />
<path d="M18175 22073
L18362 22073
" />
<path d="M18137 22185
L18269 21792
L18400 22185
" />
<path d="M18719 22185
L18531 22185
L18531 21792
" />
<path d="M18850 21979
L18981 21979
" />
<path d="M19037 22185
L18850 22185
L18850 21792
L19037 21792
" />
<path d="M25190 1794
L25172 1812
L25115 1831
L25078 1831
L25022 1812
L24984 1775
L24965 1737
L24947 1662
L24947 1606
L24965 1531
L24984 1494
L25022 1456
L25078 1437
L25115 1437
L25172 1456
L25190 1475
" />
<path d="M25434 1437
L25509 1437
L25546 1456
L25584 1494
L25603 1569
L25603 1700
L25584 1775
L25546 1812
L25509 1831
L25434 1831
L25396 1812
L25359 1775
L25340 1700
L25340 1569
L25359 1494
L25396 1456
L25434 1437
" />
<path d="M25771 1831
L25771 1437
L25996 1831
L25996 1437
" />
<path d="M26184 1831
L26184 1437
L26409 1831
L26409 1437
" />
<path d="M26503 1869
L26803 1869
" />
<path d="M26840 1437
L26971 1831
L27103 1437
" />
<path d="M27459 1794
L27440 1812
L27384 1831
L27346 1831
L27290 1812
L27252 1775
L27234 1737
L27215 1662
L27215 1606
L27234 1531
L27252 1494
L27290 1456
L27346 1437
L27384 1437
L27440 1456
L27459 1475
" />
<path d="M27852 1794
L27834 1812
L27777 1831
L27740 1831
L27684 1812
L27646 1775
L27627 1737
L27609 1662
L27609 1606
L27627 1531
L27646 1494
L27684 1456
L27740 1437
L27777 1437
L27834 1456
L27852 1475
" />
<path d="M27927 1869
L28227 1869
" />
<path d="M28452 1625
L28321 1625
" />
<path d="M28321 1831
L28321 1437
L28509 1437
" />
<path d="M28659 1625
L28790 1625
" />
<path d="M28846 1831
L28659 1831
L28659 1437
L28846 1437
" />
<path d="M29015 1831
L29015 1437
L29146 1719
L29277 1437
L29277 1831
" />
<path d="M29446 1719
L29633 1719
" />
<path d="M29408 1831
L29540 1437
L29671 1831
" />
<path d="M29990 1831
L29802 1831
L29802 1437
" />
<path d="M30121 1625
L30252 1625
" />
<path d="M30308 1831
L30121 1831
L30121 1437
L30308 1437
" />
<path d="M24690 22305
L24671 22324
L24615 22343
L24577 22343
L24521 22324
L24483 22287
L24465 22249
L24446 22174
L24446 22118
L24465 22043
L24483 22005
L24521 21968
L24577 21949
L24615 21949
L24671 21968
L24690 21987
" />
<path d="M24933 21949
L25008 21949
L25046 21968
L25083 22005
L25102 22080
L25102 22212
L25083 22287
L25046 22324
L25008 22343
L24933 22343
L24896 22324
L24858 22287
L24840 22212
L24840 22080
L24858 22005
L24896 21968
L24933 21949
" />
<path d="M25271 22343
L25271 21949
L25496 22343
L25496 21949
" />
<path d="M25683 22343
L25683 21949
L25908 22343
L25908 21949
" />
<path d="M26002 22380
L26302 22380
" />
<path d="M26396 22343
L26396 21949
L26546 21949
L26583 21968
L26602 21987
L26621 22024
L26621 22080
L26602 22118
L26583 22137
L26546 22155
L26396 22155
" />
<path d="M26752 21949
L26846 22343
L26921 22062
L26996 22343
L27089 21949
" />
<path d="M27239 22343
L27239 21949
L27371 22230
L27502 21949
L27502 22343
" />
<path d="M27596 22380
L27896 22380
" />
<path d="M28196 22343
L27971 22343
" />
<path d="M28083 22343
L28083 21949
L28046 22005
L28008 22043
L27971 22062
" />
<path d="M28270 22380
L28570 22380
" />
<path d="M28795 22137
L28664 22137
" />
<path d="M28664 22343
L28664 21949
L28852 21949
" />
<path d="M29002 22137
L29133 22137
" />
<path d="M29189 22343
L29002 22343
L29002 21949
L29189 21949
" />
<path d="M29358 22343
L29358 21949
L29489 22230
L29620 21949
L29620 22343
" />
<path d="M29789 22230
L29977 22230
" />
<path d="M29752 22343
L29883 21949
L30014 22343
" />
<path d="M30333 22343
L30145 22343
L30145 21949
" />
<path d="M30464 22137
L30595 22137
" />
<path d="M30651 22343
L30464 22343
L30464 21949
L30651 21949
" />
<path d="M15689 5271
L15708 5290
L15727 5346
L15727 5384
L15708 5440
L15671 5478
L15633 5496
L15558 5515
L15502 5515
L15427 5496
L15389 5478
L15352 5440
L15333 5384
L15333 5346
L15352 5290
L15371 5271
" />
<path d="M15333 5028
L15333 4953
L15352 4915
L15389 4878
L15464 4859
L15596 4859
L15671 4878
L15708 4915
L15727 4953
L15727 5028
L15708 5065
L15671 5103
L15596 5121
L15464 5121
L15389 5103
L15352 5065
L15333 5028
" />
<path d="M15727 4690
L15333 4690
L15727 4465
L15333 4465
" />
<path d="M15727 4278
L15333 4278
L15727 4053
L15333 4053
" />
<path d="M15764 3959
L15764 3659
" />
<path d="M15333 3622
L15727 3490
L15333 3359
" />
<path d="M15689 3003
L15708 3022
L15727 3078
L15727 3115
L15708 3172
L15671 3209
L15633 3228
L15558 3247
L15502 3247
L15427 3228
L15389 3209
L15352 3172
L15333 3115
L15333 3078
L15352 3022
L15371 3003
" />
<path d="M15689 2609
L15708 2628
L15727 2684
L15727 2722
L15708 2778
L15671 2815
L15633 2834
L15558 2853
L15502 2853
L15427 2834
L15389 2815
L15352 2778
L15333 2722
L15333 2684
L15352 2628
L15371 2609
" />
<path d="M15764 2534
L15764 2234
" />
<path d="M15521 2009
L15521 2140
" />
<path d="M15727 2140
L15333 2140
L15333 1953
" />
<path d="M15521 1803
L15521 1672
" />
<path d="M15727 1616
L15727 1803
L15333 1803
L15333 1616
" />
<path d="M15727 1447
L15333 1447
L15614 1316
L15333 1184
L15727 1184
" />
<path d="M15614 1016
L15614 828
" />
<path d="M15727 1053
L15333 922
L15727 791
" />
<path d="M15727 472
L15727 659
L15333 659
" />
<path d="M15521 341
L15521 209
" />
<path d="M15727 153
L15727 341
L15333 341
L15333 153
" />
<path d="M13593 12934
L13368 12934
" />
<path d="M13480 12934
L13480 12540
L13443 12596
L13405 12634
L13368 12652
" />
<path d="M13837 12540
L13874 12540
L13912 12559
L13930 12577
L13949 12615
L13968 12690
L13968 12784
L13949 12859
L13930 12896
L13912 12915
L13874 12934
L13837 12934
L13799 12915
L13780 12896
L13762 12859
L13743 12784
L13743 12690
L13762 12615
L13780 12577
L13799 12559
L13837 12540
" />
<path d="M14212 12540
L14249 12540
L14287 12559
L14305 12577
L14324 12615
L14343 12690
L14343 12784
L14324 12859
L14305 12896
L14287 12915
L14249 12934
L14212 12934
L14174 12915
L14155 12896
L14137 12859
L14118 12784
L14118 12690
L14137 12615
L14155 12577
L14174 12559
L14212 12540
" />
<path d="M14512 12671
L14512 12934
" />
<path d="M14512 12709
L14530 12690
L14568 12671
L14624 12671
L14662 12690
L14680 12727
L14680 12934
" />
<path d="M14999 12727
L14868 12727
" />
<path d="M14868 12934
L14868 12540
L15055 12540
" />
<path d="M13004 12821
L13023 12840
L13042 12896
L13042 12934
L13023 12990
L12986 13027
L12948 13046
L12873 13065
L12817 13065
L12742 13046
L12704 13027
L12667 12990
L12648 12934
L12648 12896
L12667 12840
L12686 12821
" />
<path d="M12648 12484
L12648 12559
L12667 12596
L12686 12615
L12742 12652
L12817 12671
L12967 12671
L13004 12652
L13023 12634
L13042 12596
L13042 12521
L13023 12484
L13004 12465
L12967 12446
L12873 12446
L12836 12465
L12817 12484
L12798 12521
L12798 12596
L12817 12634
L12836 12652
L12873 12671
" />
<path d="M13645 10965
L13420 10965
" />
<path d="M13533 10965
L13533 10571
L13495 10628
L13458 10665
L13420 10684
" />
<path d="M13889 10571
L13927 10571
L13964 10590
L13983 10609
L14002 10646
L14020 10721
L14020 10815
L14002 10890
L13983 10928
L13964 10946
L13927 10965
L13889 10965
L13852 10946
L13833 10928
L13814 10890
L13795 10815
L13795 10721
L13814 10646
L13833 10609
L13852 10590
L13889 10571
" />
<path d="M14264 10571
L14302 10571
L14339 10590
L14358 10609
L14377 10646
L14395 10721
L14395 10815
L14377 10890
L14358 10928
L14339 10946
L14302 10965
L14264 10965
L14227 10946
L14208 10928
L14189 10890
L14170 10815
L14170 10721
L14189 10646
L14208 10609
L14227 10590
L14264 10571
" />
<path d="M14564 10703
L14564 11096
" />
<path d="M14752 10909
L14770 10946
L14808 10965
" />
<path d="M14564 10909
L14583 10946
L14620 10965
L14695 10965
L14733 10946
L14752 10909
L14752 10703
" />
<path d="M14977 10965
L14977 10571
" />
<path d="M14977 10759
L15202 10759
" />
<path d="M15202 10965
L15202 10571
" />
<path d="M13140 10853
L13140 11040
L12747 11040
" />
<path d="M13140 10515
L13140 10740
" />
<path d="M13140 10628
L12747 10628
L12803 10665
L12840 10703
L12859 10740
" />
<path d="M11609 18248
L11609 17855
" />
<path d="M12022 18248
L11891 18061
" />
<path d="M11797 18248
L11797 17855
L11947 17855
L11984 17874
L12003 17892
L12022 17930
L12022 17986
L12003 18023
L11984 18042
L11947 18061
L11797 18061
" />
<path d="M12378 18248
L12191 18248
L12191 17855
" />
<path d="M12509 18248
L12509 17855
L12641 18136
L12772 17855
L12772 18248
" />
<path d="M13147 18248
L12959 18248
L12959 17855
" />
<path d="M13447 17855
L13372 17855
L13334 17874
L13315 17892
L13278 17949
L13259 18023
L13259 18173
L13278 18211
L13297 18230
L13334 18248
L13409 18248
L13447 18230
L13465 18211
L13484 18173
L13484 18080
L13465 18042
L13447 18023
L13409 18005
L13334 18005
L13297 18023
L13278 18042
L13259 18080
" />
<path d="M13634 17892
L13653 17874
L13690 17855
L13784 17855
L13822 17874
L13840 17892
L13859 17930
L13859 17967
L13840 18023
L13615 18248
L13859 18248
" />
<path d="M14197 17986
L14197 18248
" />
<path d="M14103 17836
L14009 18117
L14253 18117
" />
<path d="M14572 17986
L14572 18248
" />
<path d="M14478 17836
L14384 18117
L14628 18117
" />
</g>
<g style="fill:#000000; fill-opacity:0.0; 
stroke:#000000; stroke-width:29.5276; stroke-opacity:1; 
stroke-linecap:round; stroke-linejoin:round;">
<path d="M13121 19202
L13102 19192
L13083 19174
L13055 19146
L13036 19136
L13017 19136
" />
<path d="M13027 19183
L13008 19174
L12989 19155
L12980 19117
L12980 19052
L12989 19014
L13008 18996
L13027 18986
L13064 18986
L13083 18996
L13102 19014
L13111 19052
L13111 19117
L13102 19155
L13083 19174
L13064 19183
L13027 19183
" />
<path d="M13186 19005
L13196 18996
L13214 18986
L13261 18986
L13280 18996
L13289 19005
L13299 19024
L13299 19042
L13289 19071
L13177 19183
L13299 19183
" />
</g>
<g style="fill:#000000; fill-opacity:0.0; 
stroke:#000000; stroke-width:59.0551; stroke-opacity:1; 
stroke-linecap:round; stroke-linejoin:round;">
<path d="M4695 19236
L4695 19461
" />
<path d="M4695 19349
L4302 19349
L4358 19386
L4395 19424
L4414 19461
" />
<path d="M4302 18993
L4302 18955
L4320 18918
L4339 18899
L4377 18880
L4452 18862
L4545 18862
L4620 18880
L4658 18899
L4677 18918
L4695 18955
L4695 18993
L4677 19030
L4658 19049
L4620 19068
L4545 19086
L4452 19086
L4377 19068
L4339 19049
L4320 19030
L4302 18993
" />
<path d="M4695 18693
L4302 18693
" />
<path d="M4695 18468
L4470 18637
" />
<path d="M4302 18468
L4527 18693
" />
<path d="M4695 18318
L4695 18224
L4620 18224
L4602 18262
L4564 18299
L4508 18318
L4414 18318
L4358 18299
L4320 18262
L4302 18205
L4302 18130
L4320 18074
L4358 18037
L4414 18018
L4508 18018
L4564 18037
L4602 18074
L4620 18112
L4695 18112
L4695 18018
" />
</g>
<g style="fill:#000000; fill-opacity:0.0; 
stroke:#000000; stroke-width:29.5276; stroke-opacity:1; 
stroke-linecap:round; stroke-linejoin:round;">
<path d="M4606 17158
L4513 17224
" />
<path d="M4606 17271
L4409 17271
L4409 17196
L4419 17177
L4428 17168
L4447 17158
L4475 17158
L4494 17168
L4503 17177
L4513 17196
L4513 17271
" />
<path d="M4606 17065
L4606 17027
L4597 17008
L4588 16999
L4559 16980
L4522 16971
L4447 16971
L4428 16980
L4419 16990
L4409 17008
L4409 17046
L4419 17065
L4428 17074
L4447 17083
L4494 17083
L4513 17074
L4522 17065
L4531 17046
L4531 17008
L4522 16990
L4513 16980
L4494 16971
" />
</g>
<g style="fill:#000000; fill-opacity:0.0; 
stroke:#000000; stroke-width:59.0551; stroke-opacity:1; 
stroke-linecap:round; stroke-linejoin:round;">
<path d="M1094 18607
L1113 18550
L1113 18457
L1094 18419
L1075 18400
L1038 18382
L1000 18382
L963 18400
L944 18419
L925 18457
L906 18532
L888 18569
L869 18588
L831 18607
L794 18607
L756 18588
L738 18569
L719 18532
L719 18438
L738 18382
" />
<path d="M719 18250
L1113 18157
L831 18082
L1113 18007
L719 17913
" />
<path d="M1150 17857
L1150 17557
" />
<path d="M1113 17463
L719 17463
L1000 17332
L719 17200
L1113 17200
" />
<path d="M719 16938
L719 16863
L738 16826
L775 16788
L850 16769
L981 16769
L1056 16788
L1094 16826
L1113 16863
L1113 16938
L1094 16976
L1056 17013
L981 17032
L850 17032
L775 17013
L738 16976
L719 16938
" />
<path d="M1113 16601
L719 16601
L719 16507
L738 16451
L775 16413
L813 16394
L888 16376
L944 16376
L1019 16394
L1056 16413
L1094 16451
L1113 16507
L1113 16601
" />
<path d="M906 16207
L906 16076
" />
<path d="M1113 16019
L1113 16207
L719 16207
L719 16019
" />
<path d="M756 15869
L738 15851
L719 15813
L719 15719
L738 15682
L756 15663
L794 15644
L831 15644
L888 15663
L1113 15888
L1113 15644
" />
<path d="M16235 19193
L16010 19193
" />
<path d="M16122 19193
L16122 18800
L16085 18856
L16047 18893
L16010 18912
" />
<path d="M16478 18800
L16516 18800
L16553 18818
L16572 18837
L16591 18875
L16609 18950
L16609 19043
L16591 19118
L16572 19156
L16553 19175
L16516 19193
L16478 19193
L16441 19175
L16422 19156
L16403 19118
L16384 19043
L16384 18950
L16403 18875
L16422 18837
L16441 18818
L16478 18800
" />
<path d="M16778 18931
L16778 19325
" />
<path d="M16966 19137
L16984 19175
L17022 19193
" />
<path d="M16778 19137
L16797 19175
L16834 19193
L16909 19193
L16947 19175
L16966 19137
L16966 18931
" />
<path d="M17322 18987
L17191 18987
" />
<path d="M17191 19193
L17191 18800
L17378 18800
" />
<path d="M17772 18800
L17997 18800
" />
<path d="M17884 19193
L17884 18800
" />
<path d="M18109 19081
L18297 19081
" />
<path d="M18072 19193
L18203 18800
L18334 19193
" />
<path d="M18465 19193
L18465 18800
L18690 19193
L18690 18800
" />
<path d="M18822 18800
L19047 18800
" />
<path d="M18934 19193
L18934 18800
" />
<path d="M15544 19160
L15562 19178
L15581 19235
L15581 19272
L15562 19328
L15525 19366
L15487 19385
L15412 19403
L15356 19403
L15281 19385
L15244 19366
L15206 19328
L15187 19272
L15187 19235
L15206 19178
L15225 19160
" />
<path d="M15319 18822
L15581 18822
" />
<path d="M15169 18916
L15450 19010
L15450 18766
" />
<path d="M4247 16004
L4022 16004
" />
<path d="M4135 16004
L4135 15611
L4097 15667
L4060 15704
L4022 15723
" />
<path d="M4416 16004
L4416 15611
" />
<path d="M4641 16004
L4472 15779
" />
<path d="M4641 15611
L4416 15836
" />
<path d="M4791 16004
L4885 16004
L4885 15929
L4847 15911
L4810 15873
L4791 15817
L4791 15723
L4810 15667
L4847 15629
L4903 15611
L4978 15611
L5035 15629
L5072 15667
L5091 15723
L5091 15817
L5072 15873
L5035 15911
L4997 15929
L4997 16004
L5091 16004
" />
</g>
<g style="fill:#000000; fill-opacity:0.0; 
stroke:#000000; stroke-width:29.5276; stroke-opacity:1; 
stroke-linecap:round; stroke-linejoin:round;">
<path d="M5669 15992
L5576 16058
" />
<path d="M5669 16105
L5472 16105
L5472 16030
L5482 16011
L5491 16002
L5510 15992
L5538 15992
L5557 16002
L5566 16011
L5576 16030
L5576 16105
" />
<path d="M5669 15805
L5669 15917
" />
<path d="M5669 15861
L5472 15861
L5501 15880
L5519 15898
L5529 15917
" />
<path d="M5472 15683
L5472 15664
L5482 15645
L5491 15636
L5510 15627
L5547 15617
L5594 15617
L5632 15627
L5651 15636
L5660 15645
L5669 15664
L5669 15683
L5660 15702
L5651 15711
L5632 15720
L5594 15730
L5547 15730
L5510 15720
L5491 15711
L5482 15702
L5472 15683
" />
</g>
<g style="fill:#000000; fill-opacity:0.0; 
stroke:#000000; stroke-width:59.0551; stroke-opacity:1; 
stroke-linecap:round; stroke-linejoin:round;">
<path d="M524 13788
L543 13807
L561 13863
L561 13901
L543 13957
L505 13995
L468 14013
L393 14032
L336 14032
L261 14013
L224 13995
L187 13957
L168 13901
L168 13863
L187 13807
L205 13788
" />
<path d="M168 13545
L168 13470
L187 13432
L224 13395
L299 13376
L430 13376
L505 13395
L543 13432
L561 13470
L561 13545
L543 13582
L505 13620
L430 13638
L299 13638
L224 13620
L187 13582
L168 13545
" />
<path d="M561 13207
L168 13207
L561 12982
L168 12982
" />
<path d="M561 12795
L168 12795
L561 12570
L168 12570
" />
<path d="M599 12476
L599 12176
" />
<path d="M168 12007
L168 11970
L187 11932
L205 11914
L243 11895
L318 11876
L411 11876
L486 11895
L524 11914
L543 11932
L561 11970
L561 12007
L543 12045
L524 12064
L486 12082
L411 12101
L318 12101
L243 12082
L205 12064
L187 12045
L168 12007
" />
<path d="M561 11501
L561 11726
" />
<path d="M561 11614
L168 11614
L224 11651
L261 11689
L280 11726
" />
<path d="M168 11370
L561 11107
" />
<path d="M168 11107
L561 11370
" />
<path d="M168 10883
L168 10845
L187 10808
L205 10789
L243 10770
L318 10751
L411 10751
L486 10770
L524 10789
L543 10808
L561 10845
L561 10883
L543 10920
L524 10939
L486 10958
L411 10976
L318 10976
L243 10958
L205 10939
L187 10920
L168 10883
" />
<path d="M336 10526
L318 10564
L299 10583
L261 10601
L243 10601
L205 10583
L187 10564
L168 10526
L168 10451
L187 10414
L205 10395
L243 10376
L261 10376
L299 10395
L318 10414
L336 10451
L336 10526
L355 10564
L374 10583
L411 10601
L486 10601
L524 10583
L543 10564
L561 10526
L561 10451
L543 10414
L524 10395
L486 10376
L411 10376
L374 10395
L355 10414
L336 10451
" />
<path d="M2018 11981
L2299 11981
L2356 12000
L2393 12037
L2412 12094
L2412 12131
" />
<path d="M2056 11812
L2037 11794
L2018 11756
L2018 11662
L2037 11625
L2056 11606
L2093 11587
L2131 11587
L2187 11606
L2412 11831
L2412 11587
" />
<path d="M5207 14849
L5395 14849
" />
<path d="M5170 14961
L5301 14567
L5432 14961
" />
<path d="M5507 14567
L5732 14567
" />
<path d="M5620 14961
L5620 14567
" />
<path d="M5863 14961
L5863 14567
L5995 14849
L6126 14567
L6126 14961
" />
<path d="M6313 14755
L6444 14755
" />
<path d="M6501 14961
L6313 14961
L6313 14567
L6501 14567
" />
<path d="M6876 14586
L6838 14567
L6782 14567
L6726 14586
L6688 14624
L6669 14661
L6651 14736
L6651 14792
L6669 14867
L6688 14905
L6726 14942
L6782 14961
L6819 14961
L6876 14942
L6894 14924
L6894 14792
L6819 14792
" />
<path d="M7044 14849
L7232 14849
" />
<path d="M7007 14961
L7138 14567
L7269 14961
" />
<path d="M7607 14961
L7382 14961
" />
<path d="M7494 14961
L7494 14567
L7457 14624
L7419 14661
L7382 14680
" />
<path d="M7944 14567
L7869 14567
L7832 14586
L7813 14605
L7776 14661
L7757 14736
L7757 14886
L7776 14924
L7794 14942
L7832 14961
L7907 14961
L7944 14942
L7963 14924
L7982 14886
L7982 14792
L7963 14755
L7944 14736
L7907 14717
L7832 14717
L7794 14736
L7776 14755
L7757 14792
" />
<path d="M8151 14811
L8450 14811
" />
<path d="M8844 14961
L8619 14961
" />
<path d="M8732 14961
L8732 14567
L8694 14624
L8657 14661
L8619 14680
" />
<path d="M9182 14567
L9107 14567
L9069 14586
L9050 14605
L9013 14661
L8994 14736
L8994 14886
L9013 14924
L9032 14942
L9069 14961
L9144 14961
L9182 14942
L9200 14924
L9219 14886
L9219 14792
L9200 14755
L9182 14736
L9144 14717
L9069 14717
L9032 14736
L9013 14755
L8994 14792
" />
<path d="M9369 14849
L9557 14849
" />
<path d="M9332 14961
L9463 14567
L9594 14961
" />
<path d="M9725 14567
L9725 14886
L9744 14924
L9763 14942
L9800 14961
L9875 14961
L9913 14942
L9932 14924
L9950 14886
L9950 14567
" />
<path d="M7288 11634
L7288 11953
L7307 11991
L7326 12009
L7363 12028
L7438 12028
L7476 12009
L7494 11991
L7513 11953
L7513 11634
" />
<path d="M7682 11672
L7701 11653
L7738 11634
L7832 11634
L7869 11653
L7888 11672
L7907 11709
L7907 11747
L7888 11803
L7663 12028
L7907 12028
" />
</g> 
</svg>
