<?xml version="1.0" standalone="no"?>
 <!DOCTYPE svg PUBLIC "-//W3C//DTD SVG 1.1//EN" 
 "http://www.w3.org/Graphics/SVG/1.1/DTD/svg11.dtd"> 
<svg xmlns="http://www.w3.org/2000/svg" version="1.1" 
    width="11.9736cm" height="5.03936cm" viewBox="0 0 47140 19840 ">
<title>SVG Picture created as ledside_rev15-Eco2.User.svg date 2018/08/19 18:47:25 </title>
  <desc>Picture generated by PCBNEW </desc>
<g style="fill:#000000; fill-opacity:1;stroke:#000000; stroke-opacity:1;
stroke-linecap:round; stroke-linejoin:round; "
 transform="translate(0 0) scale(1 1)">
</g>
<g style="fill:#000000; fill-opacity:0.0; 
stroke:#000000; stroke-width:-0.000393701; stroke-opacity:1; 
stroke-linecap:round; stroke-linejoin:round;">
</g>
<g style="fill:#000000; fill-opacity:1.0; 
stroke:#000000; stroke-width:3.93701; stroke-opacity:1; 
stroke-linecap:round; stroke-linejoin:round;">
<polyline style="fill-rule:evenodd;"
points="30816,6808
30660,6808
30660,6621
30660,6549
30659,6475
30657,6407
30654,6352
30653,6332
30646,6230
30816,6230
30816,6808
" /> 
<polyline style="fill-rule:evenodd;"
points="29772,6808
29605,6808
29605,6230
29772,6230
29772,6808
" /> 
<polyline style="fill-rule:evenodd;"
points="33760,9319
33183,9319
33183,9152
33760,9152
33760,9319
" /> 
<polyline style="fill-rule:evenodd;"
points="27260,9319
26683,9319
26683,9167
26834,9159
26907,9157
26988,9154
27067,9153
27123,9152
27260,9152
27260,9319
" /> 
<polyline style="fill-rule:evenodd;"
points="33749,10363
33172,10363
33172,10208
33369,10208
33441,10207
33513,10206
33579,10204
33633,10202
33658,10200
33749,10193
33749,10363
" /> 
<polyline style="fill-rule:evenodd;"
points="27260,10363
26672,10363
26672,10197
27260,10197
27260,10363
" /> 
<polyline style="fill-rule:evenodd;"
points="29772,13297
29619,13297
29612,13145
29609,13072
29607,12991
29605,12912
29605,12856
29605,12719
29772,12719
29772,13297
" /> 
<polyline style="fill-rule:evenodd;"
points="30816,13308
30660,13308
30660,12730
30816,12730
30816,13308
" /> 
<polyline style="fill-rule:evenodd;"
points="30394,6178
30394,6241
30395,6320
30397,6407
30399,6495
30401,6573
30408,6808
30294,6808
30294,7052
32916,7052
32922,9680
33047,9683
33172,9686
33172,9574
33960,9574
33960,9941
33734,9941
33651,9941
33561,9943
33472,9944
33392,9946
33340,9948
33172,9956
33172,9841
32916,9841
32916,12463
30294,12463
30294,12719
30405,12719
30405,13508
30027,13508
30027,12719
30139,12719
30136,12594
30133,12469
27505,12463
27505,11619
27672,11619
27672,12297
28338,12297
28338,11952
28505,11952
28505,12308
28872,12308
28872,12187
29020,12187
29022,12229
29030,12308
29195,12308
29192,12222
29188,12136
29112,12132
29072,12132
29041,12134
29025,12139
29025,12139
29020,12155
29020,12187
28872,12187
28872,12130
31238,12130
31238,12295
31280,12300
31322,12303
31363,12306
31405,12308
31405,12130
31238,12130
28872,12130
28872,11952
28505,11952
28338,11952
28338,11619
27672,11619
27505,11619
27505,11108
27672,11108
27672,11474
28027,11474
28027,11108
27672,11108
27505,11108
27505,10951
27672,10951
27730,10955
27781,10959
27814,10959
27833,10953
27842,10937
27844,10910
27844,10874
27844,10791
27758,10788
27672,10785
27672,10951
27505,10951
27505,9841
27894,9841
27894,9903
27895,9940
27900,9992
27906,10050
27912,10089
27955,10311
28018,10525
28101,10731
28202,10927
28322,11112
28458,11285
28610,11444
28778,11590
28960,11719
29155,11831
29188,11848
29334,11912
29488,11969
29648,12015
29806,12051
29957,12075
30085,12084
30138,12086
30138,11833
30129,11832
30294,11832
30294,12088
30391,12080
30445,12075
30510,12067
30578,12057
30615,12051
30831,12004
31024,11941
31549,11941
31549,12117
31550,12177
31551,12230
31553,12270
31555,12295
31557,12300
31570,12303
31601,12305
31647,12307
31703,12308
31740,12308
31916,12308
31916,11941
31549,11941
31024,11941
31040,11936
31239,11849
31429,11744
31609,11622
31612,11619
32083,11619
32083,12297
32749,12297
32749,11619
32083,11619
31612,11619
31776,11484
31929,11330
32069,11163
32114,11097
32394,11097
32394,11463
32760,11463
32760,11097
32394,11097
32114,11097
32192,10984
32299,10792
32302,10786
32583,10786
32583,10952
32760,10952
32760,10786
32583,10786
32302,10786
32387,10590
32448,10407
32479,10286
32505,10156
32525,10028
32533,9944
32541,9841
32285,9841
32278,9922
32247,10141
32197,10351
32126,10552
32036,10742
31927,10922
31798,11091
31676,11223
31516,11368
31345,11494
31163,11600
30971,11687
30769,11754
30557,11801
30374,11825
30294,11832
30129,11832
30013,11820
29801,11788
29596,11734
29399,11662
29212,11570
29035,11460
28871,11334
28720,11191
28583,11033
28462,10860
28357,10674
28355,10670
28290,10520
28235,10361
28192,10198
28163,10038
28153,9939
28146,9841
27894,9841
27505,9841
27260,9841
27260,9952
26472,9952
26472,9757
28310,9757
28320,9957
28351,10155
28402,10348
28474,10535
28567,10715
28624,10808
28748,10974
28886,11125
29038,11258
29203,11374
29380,11472
29569,11552
29768,11612
29937,11647
30007,11655
30092,11659
30187,11661
30288,11659
30387,11654
30479,11646
30558,11636
30587,11631
30783,11580
30970,11510
31148,11422
31315,11316
31470,11195
31611,11059
31738,10909
31849,10747
31943,10574
32018,10391
32074,10200
32083,10161
32115,9958
32125,9757
32114,9558
32082,9363
32031,9173
31961,8989
31872,8814
31764,8648
31640,8494
31498,8352
31340,8224
31277,8180
31100,8074
30916,7990
30727,7926
30533,7882
30336,7860
30137,7858
29939,7877
29742,7918
29548,7979
29366,8059
29302,8092
29234,8131
29169,8170
29117,8204
29116,8205
29049,8257
28973,8322
28895,8397
28817,8475
28746,8553
28686,8625
28658,8663
28608,8740
28556,8830
28505,8927
28460,9024
28423,9113
28407,9158
28353,9356
28321,9556
28310,9757
26472,9757
26472,9686
27890,9686
28017,9683
28144,9680
28152,9586
28182,9374
28232,9169
28302,8972
28391,8784
28498,8607
28622,8441
28763,8288
28919,8150
29090,8027
29275,7920
29310,7902
29505,7819
29708,7756
29914,7714
30038,7699
30133,7691
30136,7566
30139,7441
30294,7441
30294,7693
30392,7700
30546,7719
30708,7753
30871,7800
31028,7859
31123,7902
31309,8006
31482,8127
31640,8263
31783,8414
31910,8579
32020,8755
32112,8942
32186,9138
32239,9343
32273,9555
32273,9561
32286,9686
32538,9686
32538,9652
32534,9564
32522,9462
32502,9350
32477,9234
32447,9118
32419,9026
32339,8818
32240,8620
32211,8574
32583,8574
32583,8741
32749,8741
32749,8574
32583,8574
32211,8574
32123,8434
31989,8260
31839,8099
31799,8063
32394,8063
32394,8430
32749,8430
32749,8063
32394,8063
31799,8063
31676,7954
31499,7824
31310,7710
31111,7615
30902,7539
30787,7507
30707,7489
30620,7472
30534,7458
30453,7448
30385,7442
30355,7441
30294,7441
30139,7441
30080,7441
30005,7445
29915,7455
29814,7471
29710,7492
29708,7492
29490,7552
29281,7631
29082,7730
28894,7847
28718,7981
28555,8132
28407,8298
28275,8478
28160,8672
28129,8733
28063,8882
28005,9040
27958,9203
27923,9364
27902,9518
27898,9568
27890,9686
26472,9686
26472,9574
27260,9574
27260,9686
27505,9686
27505,8574
27672,8574
27672,8616
27674,8658
27679,8699
27679,8699
27686,8741
27849,8741
27849,8574
27672,8574
27505,8574
27505,8063
27672,8063
27672,8239
27672,8300
27673,8352
27675,8392
27677,8417
27679,8423
27692,8425
27723,8427
27769,8429
27825,8430
27862,8430
28038,8430
28038,8063
27672,8063
27505,8063
27505,7219
27672,7219
27672,7886
28338,7886
28338,7219
28516,7219
28516,7586
28883,7586
28883,7219
29027,7219
29027,7397
29194,7397
29194,7335
31227,7335
31231,7368
31242,7386
31266,7394
31305,7397
31322,7397
31405,7397
31405,7342
31403,7302
31400,7264
31398,7253
31391,7219
31549,7219
31549,7586
31730,7583
31910,7580
31914,7399
31917,7219
32083,7219
32083,7886
32749,7886
32749,7219
32083,7219
31917,7219
31549,7219
31391,7219
31391,7218
31233,7224
31229,7285
31227,7335
29194,7335
29194,7219
29027,7219
28883,7219
28516,7219
28338,7219
27672,7219
27505,7219
27505,7052
30138,7052
30138,6808
30027,6808
30027,6019
30394,6019
30394,6178
" /> 
<polyline style="fill-rule:evenodd;"
points="30605,2808
30449,2808
30449,2641
30605,2641
30605,2808
" /> 
<polyline style="fill-rule:evenodd;"
points="30294,2808
30138,2808
30138,2641
30294,2641
30294,2808
" /> 
<polyline style="fill-rule:evenodd;"
points="29984,2808
29815,2808
29822,2647
29977,2647
29984,2808
" /> 
<polyline style="fill-rule:evenodd;"
points="29138,4486
28983,4486
28983,3486
29138,3486
29138,4486
" /> 
<polyline style="fill-rule:evenodd;"
points="28716,4486
28560,4486
28560,3697
28716,3697
28716,4486
" /> 
<polyline style="fill-rule:evenodd;"
points="31872,4497
31705,4497
31705,4137
31705,4048
31706,3965
31707,3891
31708,3828
31709,3780
31711,3750
31712,3742
31719,3708
31872,3708
31872,4497
" /> 
<polyline style="fill-rule:evenodd;"
points="31449,4497
31294,4497
31294,3497
31449,3497
31449,4497
" /> 
<polyline style="fill-rule:evenodd;"
points="30990,3287
31020,3292
31033,3298
31035,3311
31036,3344
31036,3395
31036,3463
31036,3544
31036,3637
31035,3739
31033,3849
31033,3903
31024,4497
30872,4497
30872,3286
30949,3286
30990,3287
" /> 
<polyline style="fill-rule:evenodd;"
points="29560,4497
29405,4497
29405,3286
29560,3286
29560,4497
" /> 
<polyline style="fill-rule:evenodd;"
points="36283,8263
35483,8263
35483,8108
36283,8108
36283,8263
" /> 
<polyline style="fill-rule:evenodd;"
points="24949,8263
24160,8263
24160,8108
24949,8108
24949,8263
" /> 
<polyline style="fill-rule:evenodd;"
points="36494,8686
35483,8686
35483,8530
36494,8530
36494,8686
" /> 
<polyline style="fill-rule:evenodd;"
points="24123,8522
24202,8522
24291,8523
24389,8524
24460,8526
24949,8533
24949,8686
23949,8686
23949,8608
23951,8569
23955,8539
23960,8525
23960,8524
23973,8523
24006,8522
24057,8522
24123,8522
" /> 
<polyline style="fill-rule:evenodd;"
points="36706,9108
35482,9108
35488,8947
36699,8947
36706,9108
" /> 
<polyline style="fill-rule:evenodd;"
points="24949,9108
23738,9108
23738,8941
24949,8941
24949,9108
" /> 
<polyline style="fill-rule:evenodd;"
points="23260,9519
23094,9519
23094,9363
23260,9363
23260,9519
" /> 
<polyline style="fill-rule:evenodd;"
points="37316,9530
37160,9530
37160,9363
37316,9363
37316,9530
" /> 
<polyline style="fill-rule:evenodd;"
points="37316,9841
37160,9841
37160,9686
37316,9686
37316,9841
" /> 
<polyline style="fill-rule:evenodd;"
points="23255,9680
23261,9841
23094,9841
23094,9673
23255,9680
" /> 
<polyline style="fill-rule:evenodd;"
points="37316,10163
37160,10163
37160,9997
37316,9997
37316,10163
" /> 
<polyline style="fill-rule:evenodd;"
points="23260,10163
23185,10163
23145,10162
23115,10160
23101,10156
23101,10156
23097,10142
23095,10112
23094,10073
23094,9997
23260,9997
23260,10163
" /> 
<polyline style="fill-rule:evenodd;"
points="24938,10574
23727,10574
23727,10419
24938,10419
24938,10574
" /> 
<polyline style="fill-rule:evenodd;"
points="36683,10586
35483,10586
35483,10419
36683,10419
36683,10586
" /> 
<polyline style="fill-rule:evenodd;"
points="36483,10997
35483,10997
35483,10841
36483,10841
36483,10997
" /> 
<polyline style="fill-rule:evenodd;"
points="24949,10997
23949,10997
23949,10830
24949,10830
24949,10997
" /> 
<polyline style="fill-rule:evenodd;"
points="35685,11252
35770,11253
35865,11254
35961,11256
36049,11258
36080,11260
36272,11267
36272,11419
35483,11419
35483,11252
35685,11252
" /> 
<polyline style="fill-rule:evenodd;"
points="24949,11419
24160,11419
24160,11252
24949,11252
24949,11419
" /> 
<polyline style="fill-rule:evenodd;"
points="31872,15819
31716,15819
31716,15030
31872,15030
31872,15819
" /> 
<polyline style="fill-rule:evenodd;"
points="28725,15422
28722,15813
28560,15820
28560,15030
28727,15030
28725,15422
" /> 
<polyline style="fill-rule:evenodd;"
points="29138,16030
28983,16030
28983,15030
29138,15030
29138,16030
" /> 
<polyline style="fill-rule:evenodd;"
points="31449,16041
31371,16041
31322,16039
31294,16033
31288,16027
31287,16013
31286,15980
31285,15929
31285,15862
31285,15783
31285,15693
31285,15595
31285,15524
31288,15036
31449,15029
31449,16041
" /> 
<polyline style="fill-rule:evenodd;"
points="29560,16230
29405,16230
29405,15765
29405,15659
29404,15555
29403,15456
29402,15365
29401,15285
29400,15221
29398,15174
29398,15165
29390,15030
29560,15030
29560,16230
" /> 
<polyline style="fill-rule:evenodd;"
points="31027,16252
30872,16252
30872,15030
31027,15030
31027,16252
" /> 
<polyline style="fill-rule:evenodd;"
points="30616,4497
30294,4497
30294,4752
35227,4752
35227,9686
35352,9683
35477,9680
35480,9522
35483,9363
36894,9363
36894,10163
35483,10163
35483,9841
35227,9841
35224,12305
35222,14769
32758,14772
30294,14774
30294,15030
30616,15030
30616,16441
29816,16441
29816,15031
29974,15027
30133,15024
30136,14899
30139,14774
25205,14774
25205,13319
25372,13319
25372,14608
26660,14608
26660,13930
26838,13930
26838,14608
27516,14608
27516,14141
27683,14141
27683,14608
28149,14608
28149,14352
28316,14352
28316,14608
28572,14608
28572,14352
28316,14352
28149,14352
28149,14141
27683,14141
27516,14141
27516,13930
26838,13930
26660,13930
26660,13319
25372,13319
25205,13319
25205,13130
25372,13130
26050,13130
26047,12794
26044,12458
25708,12455
25372,12452
25372,13130
25205,13130
25205,11830
25372,11830
25372,12297
25602,12294
25833,12291
25839,11830
25372,11830
25205,11830
25205,11408
25372,11408
25372,11663
25627,11663
25627,11408
25372,11408
25205,11408
25205,9841
25579,9841
25586,10011
25610,10310
25655,10609
25720,10906
25807,11200
25913,11489
26038,11772
26183,12046
26345,12312
26524,12567
26667,12746
26876,12978
27100,13196
27339,13398
27592,13583
27856,13752
28130,13902
28413,14034
28704,14145
29001,14236
29055,14250
29259,14297
29464,14336
29667,14366
29861,14386
30042,14395
30052,14395
30138,14397
30138,14144
30132,14144
30294,14144
30294,14400
30447,14392
30520,14387
30601,14381
30681,14374
30738,14368
30843,14352
31860,14352
31860,14608
32116,14608
32116,14352
31860,14352
30843,14352
31057,14320
31369,14251
31674,14161
31729,14141
32283,14141
32283,14608
32749,14608
32749,14141
32283,14141
31729,14141
31971,14052
32242,13930
32905,13930
32905,14608
33583,14608
33583,13930
32905,13930
32242,13930
32258,13923
32535,13775
32802,13608
33057,13424
33183,13319
33772,13319
33772,14608
35060,14608
35060,13319
33772,13319
33183,13319
33299,13222
33529,13002
33744,12767
33941,12519
33987,12452
34383,12452
34383,13130
35060,13130
35060,12452
34383,12452
33987,12452
34122,12255
34285,11982
34361,11830
34594,11830
34594,12297
35060,12297
35060,11830
34594,11830
34361,11830
34427,11698
34549,11408
34805,11408
34805,11663
35060,11663
35060,11408
34805,11408
34549,11408
34550,11406
34652,11106
34733,10799
34793,10486
34833,10168
34845,9994
34853,9841
34597,9841
34589,9972
34568,10226
34536,10469
34490,10707
34461,10830
34376,11125
34271,11411
34147,11688
34005,11954
33845,12208
33669,12451
33477,12680
33270,12896
33049,13097
32814,13283
32567,13453
32308,13607
32038,13742
31758,13859
31469,13957
31173,14035
30947,14078
30708,14112
30462,14134
30424,14136
30294,14144
30132,14144
30008,14136
29702,14110
29409,14065
29126,14003
28849,13922
28577,13822
28308,13702
28250,13674
27979,13526
27720,13360
27680,13330
28305,13330
28305,13586
28560,13586
28560,13330
28727,13330
28727,13586
28983,13586
28983,13330
28727,13330
28560,13330
28305,13330
27680,13330
27475,13178
27245,12980
27172,12908
27472,12908
27472,13163
27727,13163
27882,13163
28150,13163
28147,13038
28144,12913
27888,12913
27882,13163
27727,13163
27727,12908
28305,12908
28305,13163
28560,13163
28560,12908
28716,12908
28716,13163
28983,13163
28983,12908
28716,12908
28560,12908
28305,12908
27727,12908
27472,12908
27172,12908
27029,12767
26830,12540
26646,12300
26622,12263
26838,12263
26838,12519
27094,12519
27094,12263
26838,12263
26622,12263
26480,12048
26362,11841
26838,11841
26838,12097
27094,12097
27094,11841
26838,11841
26362,11841
26331,11785
26200,11511
26163,11419
26416,11419
26416,11545
26417,11596
26418,11638
26421,11667
26423,11678
26437,11681
26468,11684
26511,11685
26551,11686
26672,11686
26672,11419
26838,11419
26838,11686
27094,11686
27094,11419
26838,11419
26672,11419
26416,11419
26163,11419
26088,11228
26018,11008
26416,11008
26416,11263
26672,11263
26838,11263
27106,11263
27099,11013
26838,11007
26838,11263
26672,11263
26672,11008
26416,11008
26018,11008
25996,10937
25924,10637
25883,10402
25869,10304
25858,10203
25849,10105
25842,10015
25839,9939
25838,9916
25838,9841
25579,9841
25205,9841
24949,9841
24949,10152
23527,10152
23527,9761
25993,9761
26205,10084
26416,10406
26416,10830
26672,10830
26672,10630
26827,10630
26827,10830
26958,10830
27088,10830
27081,10618
27168,10621
27255,10624
27258,11672
27261,12719
29349,12719
29349,12886
29138,12886
29138,13141
29349,13141
29349,13308
29138,13308
29138,13563
29358,13563
29577,13563
29894,13774
29968,13824
30037,13870
30097,13909
30147,13942
30184,13967
30206,13982
30212,13985
30222,13980
30248,13963
30288,13937
30340,13902
30402,13861
30472,13815
30534,13774
30854,13563
31283,13563
31283,13319
31460,13319
31460,13574
31716,13574
31716,13319
31872,13319
31872,13574
32138,13574
32138,13319
31872,13319
31716,13319
31460,13319
31283,13319
31283,13309
31185,13305
31088,13302
31082,13141
31283,13141
31283,12897
31460,12897
31460,13152
31716,13152
31871,13152
32139,13152
32136,13027
32133,12902
31877,12902
31874,13027
31871,13152
31716,13152
31716,12897
32294,12897
32294,13152
32549,13152
32549,12897
32716,12897
32716,13152
32972,13152
32972,12897
32716,12897
32549,12897
32294,12897
31716,12897
31460,12897
31283,12897
31283,12882
31177,12889
31072,12895
31072,12832
31073,12792
31076,12758
31079,12744
31085,12719
33172,12719
33172,12252
33338,12252
33338,12508
33594,12508
33594,12252
33338,12252
33172,12252
33172,11830
33338,11830
33338,12086
33594,12086
33594,11830
33338,11830
33172,11830
33172,11408
33338,11408
33338,11675
33588,11669
33590,11579
33751,11579
33751,11621
33753,11650
33754,11660
33762,11667
33781,11671
33815,11673
33867,11672
33885,11672
34010,11669
34010,11413
33755,11413
33752,11529
33751,11579
33590,11579
33595,11408
33338,11408
33172,11408
33172,10997
33327,10997
33327,11252
33583,11252
33583,10997
33749,10997
33749,11117
33750,11167
33752,11208
33755,11236
33757,11245
33771,11248
33802,11250
33845,11250
33888,11250
34010,11247
34017,10997
33749,10997
33583,10997
33327,10997
33172,10997
33172,10630
33338,10630
33338,10830
33594,10830
33594,10630
33760,10630
33760,10830
34016,10830
34016,10400
34437,9763
34225,9440
34013,9118
34020,8907
34028,8697
33901,8697
33843,8697
33804,8699
33779,8706
33766,8722
33761,8749
33760,8790
33760,8814
33760,8897
33594,8897
33594,8686
33336,8686
33340,8794
33341,8844
33341,8876
33338,8893
33332,8900
33324,8901
33303,8900
33268,8899
33238,8898
33172,8897
33172,8252
33316,8252
33316,8519
33572,8519
33572,8263
33738,8263
33738,8519
34005,8519
34005,8263
33738,8263
33572,8263
33572,8252
33316,8252
33172,8252
33172,7841
33327,7841
33327,8097
33583,8097
33738,8097
34006,8097
33999,7847
33869,7843
33738,7840
33738,8097
33583,8097
33583,7841
33327,7841
33172,7841
33172,7419
33327,7419
33327,7674
33583,7674
33583,7419
33327,7419
33172,7419
33172,7264
33327,7264
33577,7258
33577,7002
33327,6996
33327,7264
33172,7264
33172,6808
31083,6808
31083,6630
31283,6630
31283,6386
31449,6386
31449,6511
31450,6562
31452,6605
31454,6634
31457,6645
31470,6648
31501,6650
31544,6652
31585,6652
31705,6652
31705,6386
31860,6386
31860,6641
32127,6641
32127,6386
32283,6386
32283,6641
32538,6641
32538,6386
32705,6386
32705,6641
32960,6641
32960,6386
32705,6386
32538,6386
32283,6386
32127,6386
31860,6386
31705,6386
31449,6386
31283,6386
31283,6374
31083,6374
31083,6219
31283,6219
31283,5963
31449,5963
31449,6219
31705,6219
31860,6219
32128,6219
32122,5969
31860,5963
31860,6219
31705,6219
31705,5963
31449,5963
31283,5963
30860,5963
30538,5751
30217,5539
29900,5747
29584,5954
29366,5953
29149,5951
29149,6208
29208,6208
29251,6209
29293,6213
29308,6215
29349,6222
29349,6386
29138,6386
29138,6641
29349,6641
29349,6808
27261,6808
27258,7849
27255,8891
27095,8898
27091,8794
27088,8691
26958,8688
26827,8685
26827,8897
26672,8897
26672,8686
26416,8686
26416,9118
26229,9399
26181,9471
26136,9540
26096,9601
26062,9653
26036,9692
26020,9717
26018,9721
25993,9761
23527,9761
23527,9686
25579,9686
25706,9683
25833,9680
25840,9547
25856,9340
25880,9141
25900,9013
25963,8712
26046,8419
26098,8274
26405,8274
26405,8530
26660,8530
26660,8434
26829,8434
26829,8477
26831,8506
26832,8516
26840,8522
26859,8527
26893,8528
26945,8528
26963,8528
27088,8524
27088,8269
26833,8269
26830,8385
26829,8434
26660,8434
26660,8274
26405,8274
26098,8274
26149,8133
26272,7856
26273,7852
26405,7852
26405,8108
26660,8108
26660,7852
26827,7852
26827,8108
27083,8108
27083,7852
26827,7852
26660,7852
26405,7852
26273,7852
26413,7588
26511,7430
26827,7430
26827,7697
27083,7697
27083,7430
26827,7430
26511,7430
26572,7332
26748,7087
26804,7019
26827,7019
26827,7274
27083,7274
27083,7019
26827,7019
26804,7019
26941,6854
27149,6635
27373,6430
27415,6397
27460,6397
27460,6652
27716,6652
27716,6397
27872,6397
27872,6652
28127,6652
28127,6397
28294,6397
28294,6652
28549,6652
28549,6568
28706,6568
28707,6610
28708,6639
28710,6649
28718,6656
28737,6660
28771,6662
28822,6661
28841,6661
28966,6658
28966,6402
28710,6402
28707,6518
28706,6568
28549,6568
28549,6397
28294,6397
28127,6397
27872,6397
27716,6397
27460,6397
27415,6397
27611,6241
27862,6068
28021,5974
28294,5974
28294,6230
28549,6230
28549,5974
28716,5974
28716,6230
28972,6230
28972,5974
28716,5974
28549,5974
28294,5974
28021,5974
28127,5912
28330,5808
28612,5686
28901,5583
29198,5502
29502,5441
29816,5400
30072,5383
30084,5382
30294,5382
30451,5390
30753,5415
31050,5462
31343,5529
31629,5617
31909,5723
32180,5849
32442,5992
32693,6153
32934,6331
33162,6524
33376,6733
33577,6957
33762,7194
33930,7445
34082,7709
34110,7763
34231,8019
34334,8274
34418,8530
34485,8792
34537,9062
34572,9344
34589,9561
34597,9686
34853,9686
34845,9538
34818,9219
34770,8905
34702,8598
34613,8297
34505,8005
34441,7863
34805,7863
34805,8119
35060,8119
35060,7863
34805,7863
34441,7863
34377,7722
34232,7448
34096,7230
34594,7230
34594,7697
35060,7697
35060,7230
34594,7230
34096,7230
34069,7185
33888,6934
33691,6694
33477,6468
33387,6386
34383,6386
34383,7063
35060,7063
35060,6386
34383,6386
33387,6386
33248,6257
33004,6059
32746,5878
32473,5714
32277,5610
32005,5485
31725,5378
31438,5289
31149,5219
30859,5169
30572,5139
30463,5133
30294,5127
30294,5382
30084,5382
30133,5380
30136,5255
30139,5130
30040,5130
29993,5131
29930,5134
29860,5139
29789,5145
29770,5146
29453,5188
29143,5250
28839,5333
28544,5435
28257,5557
27980,5698
27713,5857
27457,6033
27214,6227
26983,6437
26766,6663
26564,6905
26376,7162
26205,7432
26102,7619
25979,7873
25870,8140
25778,8416
25702,8697
25644,8980
25605,9261
25586,9516
25579,9686
23527,9686
23527,9363
24949,9363
24949,9686
25205,9686
25205,7852
25360,7852
25360,8108
25616,8108
25616,7852
25360,7852
25205,7852
25205,7219
25360,7219
25360,7686
25827,7686
25827,7219
25360,7219
25205,7219
25205,6374
25360,6374
25360,7052
26038,7052
26038,6374
25360,6374
25205,6374
25205,5876
25362,5876
25363,5967
25363,6046
25363,6110
25364,6157
25365,6186
25366,6194
25371,6197
25386,6200
25411,6202
25449,6203
25500,6204
25566,6205
25648,6206
25749,6206
25869,6206
26009,6205
26013,6205
26655,6202
26655,4913
25366,4913
25363,5547
25363,5663
25362,5774
25362,5876
25205,5876
25205,4908
26838,4908
26838,5574
27516,5574
27516,4908
27672,4908
27672,5134
27672,5202
27673,5263
27674,5313
27676,5349
27679,5366
27679,5367
27692,5369
27724,5371
27771,5372
27830,5372
27898,5372
27915,5372
28144,5369
28150,4908
28305,4908
28305,5163
28560,5163
28560,4919
31860,4919
31860,5174
32116,5174
32116,4919
32283,4919
32283,5386
32744,5380
32747,5149
32750,4919
32905,4919
32905,5250
32905,5334
32906,5410
32907,5477
32908,5530
32910,5568
32912,5587
32912,5589
32925,5591
32957,5593
33005,5594
33068,5595
33141,5596
33223,5597
33251,5597
33583,5597
33583,4919
33772,4919
33772,6208
35060,6208
35060,4919
33772,4919
33583,4919
32905,4919
32750,4919
32283,4919
32116,4919
31860,4919
28560,4919
28560,4908
28305,4908
28150,4908
27672,4908
27516,4908
26838,4908
25205,4908
25205,4752
30133,4747
30136,4622
30139,4497
29816,4497
29819,3788
29822,3080
30219,3077
30616,3074
30616,4497
" /> 
<polyline style="fill-rule:evenodd;"
points="30617,16863
30448,16863
30455,16702
30610,16702
30617,16863
" /> 
<polyline style="fill-rule:evenodd;"
points="30294,16863
30138,16863
30138,16697
30294,16697
30294,16863
" /> 
<polyline style="fill-rule:evenodd;"
points="29983,16863
29815,16863
29822,16702
29902,16699
29983,16696
29983,16863
" /> 
<polyline style="fill-rule:evenodd;"
points="25641,932
25947,932
26246,932
26539,933
26824,933
27101,933
27370,933
27628,933
27876,934
28113,934
28337,934
28549,934
28748,935
28932,935
29102,935
29255,935
29393,936
29513,936
29615,936
29698,936
29763,937
29807,937
29830,937
29833,937
29384,969
28941,1022
28504,1097
28073,1193
27650,1309
27233,1447
26825,1605
26424,1784
26031,1983
25647,2203
25299,2424
24946,2674
24603,2943
24273,3229
23956,3531
23656,3848
23372,4177
23341,4215
23073,4565
22824,4926
22592,5299
22380,5683
22188,6076
22015,6478
21862,6888
21730,7306
21618,7730
21528,8159
21472,8502
21457,8613
21442,8739
21428,8871
21416,9004
21405,9130
21397,9243
21395,9274
21395,9277
21394,9257
21393,9217
21392,9156
21392,9076
21391,8976
21391,8858
21390,8723
21389,8570
21389,8400
21388,8215
21388,8014
21387,7799
21387,7569
21386,7327
21386,7071
21386,6803
21385,6524
21385,6234
21385,5934
21385,5624
21384,5305
21384,5188
21383,930
25641,932
" /> 
<polyline style="fill-rule:evenodd;"
points="39049,5241
39049,5549
39049,5852
39049,6148
39049,6437
39049,6718
39049,6990
39049,7253
39049,7505
39048,7747
39048,7976
39048,8194
39048,8398
39047,8588
39047,8763
39047,8923
39046,9066
39046,9193
39046,9302
39045,9392
39045,9463
39045,9513
39044,9544
39044,9552
39041,9542
39039,9514
39038,9475
39038,9453
39035,9302
39025,9133
39009,8950
38988,8756
38961,8556
38931,8353
38896,8150
38858,7951
38816,7759
38783,7619
38665,7193
38527,6777
38369,6369
38192,5971
37996,5583
37781,5206
37548,4840
37297,4487
37029,4146
36745,3818
36444,3504
36127,3204
35795,2919
35449,2650
35087,2397
34712,2160
34510,2044
34131,1843
33740,1661
33340,1499
32930,1356
32513,1234
32089,1131
31658,1049
31223,988
30783,948
30599,937
30606,937
30633,937
30682,937
30750,936
30838,936
30944,936
31067,936
31208,935
31366,935
31538,935
31726,935
31927,934
32142,934
32369,934
32608,934
32859,933
33119,933
33389,933
33668,933
33955,933
34250,932
34550,932
34791,932
39049,930
39049,5241
" /> 
<polyline style="fill-rule:evenodd;"
points="39042,10067
39042,10093
39042,10140
39043,10206
39043,10292
39043,10396
39043,10518
39044,10658
39044,10813
39044,10984
39044,11170
39045,11371
39045,11584
39045,11811
39045,12049
39046,12299
39046,12559
39046,12829
39046,13107
39047,13394
39047,13689
39047,13991
39047,14283
39049,18597
34730,18594
34422,18594
34121,18594
33826,18594
33539,18594
33260,18593
32990,18593
32730,18593
32480,18593
32242,18593
32015,18592
31801,18592
31601,18592
31415,18592
31244,18591
31088,18591
30949,18591
30827,18591
30722,18590
30637,18590
30570,18590
30524,18590
30498,18589
30494,18589
30942,18562
31383,18515
31818,18446
32247,18357
32671,18246
32799,18208
33209,18072
33612,17915
34008,17737
34396,17540
34775,17324
35143,17089
35499,16837
35841,16568
36044,16396
36366,16098
36673,15784
36963,15456
37237,15115
37493,14760
37732,14394
37953,14016
38154,13628
38337,13231
38499,12824
38640,12411
38666,12329
38770,11952
38859,11564
38932,11168
38987,10770
39025,10375
39042,10063
39042,10067
" /> 
<polyline style="fill-rule:evenodd;"
points="30308,1272
30310,1613
30422,1616
30837,1636
31251,1678
31662,1741
32069,1826
32471,1931
32868,2057
33258,2203
33640,2368
34014,2553
34378,2757
34732,2980
35075,3221
35377,3457
35586,3635
35790,3821
35992,4018
36283,4326
36557,4647
36812,4981
37050,5326
37269,5683
37469,6049
37650,6426
37811,6811
37952,7204
38073,7604
38174,8011
38253,8423
38311,8841
38321,8936
38329,9028
38337,9128
38345,9232
38351,9333
38356,9428
38359,9511
38360,9577
38360,9580
38360,9675
39049,9669
39049,9761
39049,9852
38364,9852
38356,10061
38330,10484
38282,10904
38213,11319
38122,11729
38011,12134
37878,12531
37726,12922
37553,13304
37361,13677
37149,14040
36918,14393
36667,14735
36597,14825
36544,14891
36485,14963
36426,15034
36371,15099
36344,15131
36290,15191
36223,15262
36146,15343
36062,15429
35974,15517
35886,15605
35800,15689
35719,15767
35647,15834
35587,15888
35585,15889
35254,16163
34912,16418
34559,16654
34196,16870
33824,17067
33443,17243
33055,17400
32659,17536
32256,17651
31846,17745
31431,17819
31011,17870
30587,17901
30513,17904
30305,17911
30305,18597
30213,18597
30122,18597
30128,17908
30030,17908
29965,17907
29882,17903
29786,17898
29683,17892
29577,17884
29473,17875
29399,17869
28984,17817
28571,17743
28163,17648
27760,17533
27364,17396
26976,17240
26596,17063
26244,16877
26162,16830
26094,16792
26035,16757
25981,16725
25926,16691
25868,16653
25799,16609
25722,16558
25375,16316
25044,16057
24727,15783
24425,15494
24139,15190
23870,14873
23617,14543
23381,14200
23164,13847
22964,13482
22783,13108
22622,12724
22480,12332
22359,11932
22258,11525
22223,11358
22189,11177
22159,10989
22133,10798
22111,10607
22093,10422
22080,10246
22073,10084
22072,9984
22072,9852
21383,9852
21383,9841
22216,9841
22216,9872
22217,9919
22220,9984
22223,10062
22228,10150
22234,10243
22241,10336
22247,10426
22254,10507
22260,10577
22261,10586
22314,11000
22389,11410
22485,11814
22601,12211
22738,12600
22894,12982
23070,13354
23265,13717
23479,14070
23711,14413
23961,14743
24229,15061
24514,15367
24816,15659
25124,15927
25450,16183
25789,16422
26141,16642
26503,16844
26876,17027
27257,17191
27646,17334
28042,17457
28444,17560
28850,17640
28921,17652
29157,17687
29389,17715
29612,17735
29824,17747
29969,17751
30139,17752
30136,17627
30133,17502
29984,17497
30294,17497
30294,17752
30426,17752
30489,17751
30564,17749
30644,17746
30719,17742
30729,17741
31153,17702
31572,17641
31984,17560
32389,17457
32788,17333
33180,17188
33564,17023
33866,16875
34228,16677
34579,16460
34919,16226
35246,15975
35558,15709
35855,15429
36090,15184
36370,14862
36632,14529
36875,14184
37098,13829
37302,13463
37486,13088
37651,12703
37795,12309
37918,11906
38020,11502
38057,11325
38091,11137
38122,10943
38148,10746
38170,10552
38187,10364
38199,10187
38205,10025
38205,9974
38205,9841
37949,9841
37949,9961
37947,10087
37939,10230
37927,10386
37912,10549
37893,10716
37871,10881
37847,11040
37843,11062
37764,11463
37665,11857
37546,12243
37407,12620
37250,12988
37074,13345
36881,13692
36670,14028
36444,14353
36201,14665
35943,14964
35670,15249
35383,15520
35082,15777
34768,16018
34442,16243
34104,16452
33755,16644
33395,16818
33025,16973
32645,17110
32256,17227
31859,17324
31780,17341
31610,17373
31431,17403
31247,17430
31063,17452
30883,17471
30711,17485
30551,17494
30409,17497
30294,17497
29984,17497
29927,17494
29514,17468
29104,17420
28698,17350
28298,17260
27903,17148
27516,17016
27164,16874
28094,16874
28094,17130
28349,17130
28349,16874
28516,16874
28516,17130
28772,17130
28772,16874
28516,16874
28349,16874
28094,16874
27164,16874
27136,16863
26765,16690
26402,16497
26326,16452
27049,16452
27049,16708
27305,16708
27305,16452
27472,16452
27472,16708
27727,16708
27727,16452
27883,16452
27883,16708
28149,16708
28149,16452
27883,16452
27727,16452
27472,16452
27305,16452
27049,16452
26326,16452
26244,16405
25895,16183
25682,16030
26205,16030
26205,16286
26460,16286
26460,16030
26627,16030
26627,16286
26883,16286
26883,16030
27049,16030
27049,16286
27305,16286
27305,16030
27472,16030
27472,16286
27727,16286
27727,16030
27472,16030
27305,16030
27049,16030
26883,16030
26627,16030
26460,16030
26205,16030
25682,16030
25560,15943
25460,15863
25571,15863
25839,15863
25836,15738
25833,15613
25577,15613
25574,15738
25571,15863
25460,15863
25239,15688
25149,15608
25994,15608
25994,15863
26249,15863
26249,15608
25994,15608
25149,15608
25136,15597
26405,15597
26405,15852
26660,15852
26660,15608
26838,15608
26838,15863
27094,15863
27094,15608
27260,15608
27260,15863
27516,15863
27671,15863
27939,15863
27936,15738
27933,15613
27677,15613
27674,15738
27671,15863
27516,15863
27516,15608
27260,15608
27094,15608
26838,15608
26660,15608
26660,15597
26405,15597
25136,15597
24973,15452
25160,15452
25417,15452
25414,15357
25573,15357
25574,15399
25575,15428
25577,15438
25584,15445
25603,15449
25637,15450
25689,15450
25707,15450
25833,15447
25833,15357
25995,15357
25996,15399
25997,15428
25999,15438
26008,15444
26031,15449
26070,15451
26127,15452
26249,15452
26415,15452
26672,15452
26672,15186
26838,15186
26838,15452
27094,15452
27260,15452
27517,15452
27514,15357
27673,15357
27674,15399
27675,15428
27677,15438
27684,15445
27703,15449
27737,15450
27789,15450
27807,15450
27933,15447
27933,15191
27677,15191
27674,15307
27673,15357
27514,15357
27510,15191
27260,15185
27260,15452
27094,15452
27094,15186
26838,15186
26672,15186
26672,15185
26422,15191
26415,15452
26249,15452
26249,15185
25999,15191
25996,15307
25995,15357
25833,15357
25833,15191
25577,15191
25574,15307
25573,15357
25414,15357
25410,15191
25160,15185
25160,15452
24973,15452
24933,15416
24642,15129
24366,14828
24148,14563
24516,14563
24516,14819
24772,14819
24772,14563
24516,14563
24148,14563
24107,14513
23865,14186
23836,14141
24094,14141
24094,14397
24349,14397
24349,14141
24516,14141
24516,14397
24772,14397
24772,14141
24516,14141
24349,14141
24094,14141
23836,14141
23641,13845
23593,13763
23671,13763
23939,13763
23938,13719
24094,13719
24094,13974
24349,13974
24349,13719
24516,13719
24516,13974
24772,13974
24772,13719
24516,13719
24349,13719
24094,13719
23938,13719
23936,13638
23934,13575
24116,13575
24366,13569
24366,13313
24116,13307
24116,13575
23934,13575
23933,13513
23677,13513
23674,13638
23671,13763
23593,13763
23435,13494
23247,13131
23231,13097
23672,13097
23672,13217
23672,13267
23674,13308
23677,13336
23679,13345
23693,13348
23724,13350
23767,13350
23810,13350
23933,13347
23934,13297
24516,13297
24516,13563
24772,13563
24772,13297
24516,13297
23934,13297
23936,13222
23939,13097
23672,13097
23231,13097
23078,12757
23046,12674
23260,12674
23260,12930
23516,12930
23516,12674
23672,12674
23672,12931
23802,12928
23933,12924
23934,12886
24094,12886
24094,13141
24349,13141
24349,12886
24516,12886
24516,13141
24772,13141
24772,12886
24516,12886
24349,12886
24094,12886
23934,12886
23936,12799
23939,12674
23672,12674
23516,12674
23260,12674
23046,12674
22929,12375
22887,12252
23260,12252
23260,12508
23516,12508
23516,12252
23672,12252
23672,12508
23938,12508
23938,12463
24094,12463
24094,12719
24349,12719
24349,12463
24516,12463
24516,12719
24772,12719
24772,12463
24516,12463
24349,12463
24094,12463
23938,12463
23938,12252
23672,12252
23516,12252
23260,12252
22887,12252
22873,12212
22776,11897
22703,11619
22838,11619
22838,11874
23094,11874
23094,11830
23260,11830
23260,12086
23516,12086
23516,11830
23260,11830
23094,11830
23094,11619
22838,11619
22703,11619
22691,11575
22667,11463
22838,11463
23095,11463
23088,11202
22838,11196
22838,11463
22667,11463
22620,11249
22563,10923
22521,10602
22494,10290
22488,10169
22486,10102
22482,10036
22479,9976
22476,9930
22476,9922
22470,9841
22216,9841
21383,9841
21383,9763
22636,9763
22639,9778
22650,9810
22666,9858
22686,9918
22711,9989
22738,10065
22743,10081
22849,10381
22849,11041
23116,11041
23116,10419
23272,10419
23272,11674
23527,11674
23530,11255
23533,10836
23694,10829
23694,12097
23949,12097
23949,12041
24094,12041
24094,12297
24349,12297
24349,12041
24516,12041
24516,12297
24772,12297
24772,12041
24516,12041
24349,12041
24094,12041
23949,12041
23949,11674
24116,11674
24116,11886
24372,11886
24372,11674
24538,11674
24538,11886
24794,11886
24794,11674
24949,11674
24949,15030
28305,15030
28305,15186
28094,15186
28094,15441
28305,15441
28305,15608
28094,15608
28094,15863
28306,15863
28299,16024
28091,16027
27883,16030
27883,16286
29138,16286
29138,16441
28305,16441
28305,16697
29560,16697
29560,16863
28938,16863
28938,17119
29258,17119
29577,17120
29883,17229
29961,17257
30034,17283
30097,17305
30149,17322
30186,17334
30206,17340
30208,17340
30223,17337
30256,17327
30304,17311
30366,17291
30437,17266
30515,17239
30540,17230
30854,17119
31505,17119
31505,16863
31672,16863
31672,17119
31927,17119
31927,16863
32083,16863
32083,17119
32338,17119
32338,16863
32083,16863
31927,16863
31672,16863
31505,16863
30872,16863
30872,16697
32127,16697
32127,16441
32294,16441
32294,16697
32549,16697
32549,16441
32716,16441
32716,16697
32972,16697
32972,16441
33138,16441
33138,16697
33394,16697
33394,16441
33138,16441
32972,16441
32716,16441
32549,16441
32294,16441
32127,16441
31294,16441
31294,16286
32549,16286
32549,16030
32341,16027
32133,16024
32132,16019
32716,16019
32716,16274
32972,16274
32972,16019
33138,16019
33138,16274
33394,16274
33394,16019
33560,16019
33560,16274
33816,16274
33816,16019
33972,16019
33972,16274
34238,16274
34238,16019
33972,16019
33816,16019
33560,16019
33394,16019
33138,16019
32972,16019
32716,16019
32132,16019
32126,15863
32338,15863
32338,15609
32235,15605
32133,15602
32132,15597
32505,15597
32505,15852
32760,15852
32760,15597
32927,15597
32927,15852
33183,15852
33183,15597
33349,15597
33349,15852
33605,15852
33605,15597
33349,15597
33183,15597
32927,15597
32760,15597
32505,15597
32132,15597
32132,15586
33772,15586
33772,15841
34038,15841
34038,15597
34183,15597
34183,15852
34438,15852
34438,15597
34605,15597
34605,15852
34860,15852
34860,15597
34605,15597
34438,15597
34183,15597
34038,15597
34038,15586
33772,15586
32132,15586
32126,15441
32338,15441
32338,15186
32127,15186
32127,15174
32505,15174
32505,15441
32760,15441
32760,15174
32927,15174
32927,15441
33183,15441
33183,15174
33349,15174
33349,15441
33605,15441
33605,15346
33762,15346
33762,15388
33764,15417
33765,15427
33773,15434
33792,15438
33826,15439
33878,15439
33896,15439
34022,15436
34022,15346
34184,15346
34185,15388
34186,15417
34187,15426
34197,15433
34219,15438
34259,15440
34316,15441
34438,15441
34438,15174
34605,15174
34605,15441
34860,15441
34860,15174
35027,15174
35027,15441
35283,15441
35283,15174
35027,15174
34860,15174
34605,15174
34438,15174
34438,15174
34188,15180
34185,15296
34184,15346
34022,15346
34022,15180
33766,15180
33763,15296
33762,15346
33605,15346
33605,15174
33349,15174
33183,15174
32927,15174
32760,15174
32505,15174
32127,15174
32127,15030
35483,15030
35483,14563
35649,14563
35649,14819
35905,14819
35905,14563
35649,14563
35483,14563
35483,14141
35649,14141
35649,14397
35905,14397
35905,14141
36060,14141
36060,14397
36316,14397
36316,14141
36060,14141
35905,14141
35649,14141
35483,14141
35483,13719
35649,13719
35649,13974
35905,13974
35905,13719
36060,13719
36060,13974
36316,13974
36316,13719
36060,13719
35905,13719
35649,13719
35483,13719
35483,13564
35649,13564
35899,13558
35899,13308
36049,13308
36049,13574
36305,13574
36305,13508
36483,13508
36483,13763
36738,13763
36738,13508
36483,13508
36305,13508
36305,13308
36049,13308
35899,13308
35899,13302
35649,13296
35649,13564
35483,13564
35483,12886
35649,12886
35649,13141
35905,13141
35905,12886
36060,12886
36060,13141
36316,13141
36316,13097
36483,13097
36483,13352
36738,13352
36738,13097
36483,13097
36316,13097
36316,12886
36060,12886
35905,12886
35649,12886
35483,12886
35483,12463
35649,12463
35649,12719
35905,12719
35905,12463
36060,12463
36060,12719
36316,12719
36316,12674
36483,12674
36483,12930
36738,12930
36738,12674
36905,12674
36905,12930
37160,12930
37160,12674
36905,12674
36738,12674
36483,12674
36316,12674
36316,12463
36060,12463
35905,12463
35649,12463
35483,12463
35483,12041
35649,12041
35649,12297
35905,12297
35905,12041
36060,12041
36060,12297
36316,12297
36316,12252
36483,12252
36483,12508
36738,12508
36738,12252
36905,12252
36905,12508
37160,12508
37160,12252
36905,12252
36738,12252
36483,12252
36316,12252
36316,12041
36060,12041
35905,12041
35649,12041
35483,12041
35483,11674
35638,11674
35638,11886
35894,11886
35894,11674
36060,11674
36060,11886
36316,11886
36316,11673
36477,11680
36480,11888
36483,12097
36738,12097
36738,11830
36905,11830
36905,12086
37160,12086
37160,11830
36905,11830
36738,11830
36738,10841
36894,10841
36894,11674
37160,11674
37160,11619
37327,11619
37327,11874
37583,11874
37583,11619
37327,11619
37160,11619
37160,11463
37327,11463
37583,11463
37580,11333
37577,11202
37327,11196
37327,11463
37160,11463
37160,10419
37316,10419
37316,11052
37572,11052
37572,10410
37683,10092
37710,10012
37736,9938
37758,9874
37775,9821
37787,9783
37793,9763
37794,9760
37790,9746
37780,9715
37764,9668
37743,9608
37719,9538
37692,9460
37683,9436
37572,9124
37572,8805
37572,8486
37316,8486
37316,9108
37160,9108
37160,8052
37316,8052
37316,8308
37572,8308
37572,8052
37316,8052
37160,8052
37160,7852
36894,7852
36894,8697
36738,8697
36738,7430
36483,7430
36483,7852
36316,7852
36316,7641
36060,7641
36060,7852
35894,7852
35894,7641
35638,7641
35638,7852
35483,7852
35483,7379
35629,7379
35629,7421
35631,7450
35632,7460
35640,7467
35659,7471
35693,7473
35745,7472
35763,7472
35888,7469
35888,7379
36051,7379
36051,7421
36053,7450
36054,7460
36063,7467
36086,7471
36125,7474
36182,7474
36305,7474
36305,7419
36894,7419
36894,7674
37149,7674
37149,7630
37316,7630
37316,7886
37572,7886
37572,7630
37316,7630
37149,7630
37149,7419
36894,7419
36305,7419
36305,7207
36055,7213
36052,7329
36051,7379
35888,7379
35888,7213
35633,7213
35630,7329
35629,7379
35483,7379
35483,6797
35627,6797
35627,6917
35628,6967
35630,7008
35632,7036
35635,7045
35649,7048
35680,7050
35723,7050
35765,7050
35888,7047
35891,6922
35895,6797
36049,6797
36049,7052
36305,7052
36305,6997
36472,6997
36472,7263
36727,7263
36727,6997
36894,6997
36894,7263
37149,7263
37149,6997
36894,6997
36727,6997
36472,6997
36305,6997
36305,6797
36049,6797
35895,6797
35627,6797
35483,6797
35483,6374
35627,6374
35627,6630
35894,6630
35894,6374
36049,6374
36049,6630
36305,6630
36305,6586
36472,6586
36472,6841
36727,6841
36727,6586
36894,6586
36894,6841
37149,6841
37149,6586
36894,6586
36727,6586
36472,6586
36305,6586
36305,6374
36049,6374
35894,6374
35627,6374
35483,6374
35483,5952
35627,5952
35627,6208
35894,6208
35894,5952
35627,5952
35483,5952
35483,5941
36038,5941
36038,6197
36294,6197
36294,6163
36472,6163
36472,6419
36727,6419
36727,6163
36472,6163
36294,6163
36294,5941
36038,5941
35483,5941
35483,5786
35626,5786
35895,5786
35891,5661
35888,5536
35633,5536
35626,5786
35483,5786
35483,5530
36049,5530
36049,5786
36305,5786
36305,5741
36472,5741
36472,5997
36727,5997
36727,5741
36472,5741
36305,5741
36305,5530
36049,5530
35483,5530
35483,5279
35629,5279
35629,5321
35631,5350
35632,5360
35640,5367
35659,5371
35693,5373
35745,5372
35763,5372
35888,5369
35888,5279
36051,5279
36051,5321
36053,5350
36054,5360
36063,5367
36086,5371
36125,5374
36182,5374
36305,5374
36305,5107
36055,5113
36052,5229
36051,5279
35888,5279
35888,5113
35633,5113
35630,5229
35629,5279
35483,5279
35483,4697
35627,4697
35627,4817
35628,4867
35630,4908
35632,4936
35635,4945
35649,4948
35680,4950
35723,4950
35765,4950
35888,4947
35891,4822
35895,4697
35627,4697
35483,4697
35483,4497
32127,4497
32127,4341
32338,4341
32338,4086
32235,4083
32133,4080
32132,4063
32494,4063
32494,4319
32749,4319
32749,4063
32916,4063
32916,4319
33172,4319
33172,4063
33338,4063
33338,4319
33594,4319
33594,4063
33749,4063
33749,4319
34016,4319
34016,4063
34172,4063
34172,4319
34427,4319
34427,4063
34594,4063
34594,4319
34849,4319
34849,4063
35016,4063
35016,4319
35272,4319
35272,4063
35016,4063
34849,4063
34594,4063
34427,4063
34172,4063
34016,4063
33749,4063
33594,4063
33338,4063
33172,4063
32916,4063
32749,4063
32494,4063
32132,4063
32129,3999
32126,3919
32338,3919
32338,3664
32235,3661
32133,3658
32132,3641
32494,3641
32494,3897
32749,3897
32749,3641
32916,3641
32916,3897
33172,3897
33172,3641
33338,3641
33338,3897
33594,3897
33594,3663
33760,3663
33760,3784
33761,3833
33763,3875
33766,3902
33768,3912
33782,3915
33813,3916
33856,3917
33899,3916
34022,3913
34028,3663
33760,3663
33594,3663
33594,3641
34172,3641
34172,3897
34427,3897
34427,3641
34594,3641
34594,3897
34849,3897
34849,3641
34594,3641
34427,3641
34172,3641
33594,3641
33338,3641
33172,3641
32916,3641
32749,3641
32494,3641
32132,3641
32126,3497
32549,3497
32549,3241
31294,3241
31294,3219
32705,3219
32705,3474
32960,3474
32960,3219
33127,3219
33127,3474
33383,3474
33549,3474
33806,3474
33960,3474
34216,3474
34216,3218
34091,3221
33966,3224
33960,3474
33806,3474
33799,3224
33674,3221
33549,3218
33549,3474
33383,3474
33383,3219
33127,3219
32960,3219
32705,3219
31294,3219
31294,3074
32127,3074
32127,2819
30872,2819
30872,2808
32283,2808
32283,3063
32538,3063
32538,2808
32705,2808
32705,3063
32960,3063
32960,2808
33127,2808
33127,3063
33383,3063
33383,2808
33127,2808
32960,2808
32705,2808
32538,2808
32283,2808
30872,2808
30872,2664
31499,2658
31499,2402
31155,2396
30810,2391
30796,2386
31649,2386
31649,2641
31916,2641
31916,2386
32072,2386
32072,2641
32327,2641
32327,2386
32072,2386
31916,2386
31649,2386
30796,2386
30512,2284
30214,2177
29902,2287
29590,2397
28938,2397
28938,2663
29560,2663
29560,2819
28305,2819
28305,3074
29138,3074
29138,3241
27883,3241
27883,3497
28305,3497
28305,3663
28094,3663
28094,3919
28306,3919
28303,3999
28299,4080
28197,4083
28094,4086
28094,4341
28305,4341
28305,4497
24949,4497
24949,7852
24794,7852
24794,7641
24539,7641
24536,7744
24533,7847
24452,7850
24372,7853
24372,7641
24117,7641
24114,7744
24110,7847
23955,7847
23952,7638
23949,7430
23694,7430
23694,8686
23527,8686
23527,7852
23272,7852
23272,9108
23116,9108
23113,8794
23110,8480
22980,8477
22849,8474
22849,9133
22742,9440
22715,9519
22690,9591
22669,9654
22652,9706
22641,9742
22636,9762
22636,9763
21383,9763
21383,9761
21383,9669
21725,9672
22068,9675
22070,9609
22219,9609
22219,9648
22221,9671
22222,9674
22235,9679
22266,9683
22311,9685
22348,9686
22468,9686
22476,9627
22479,9588
22481,9537
22483,9482
22483,9467
22484,9400
22488,9314
22495,9216
22504,9109
22514,8998
22526,8888
22538,8782
22545,8730
22611,8319
22668,8052
22827,8052
22827,8308
23083,8308
23083,8052
22827,8052
22668,8052
22698,7915
22776,7630
22827,7630
22827,7886
23083,7886
23083,7674
23238,7674
23506,7674
23499,7424
23244,7424
23238,7674
23083,7674
23083,7630
22827,7630
22776,7630
22806,7518
22922,7168
23240,7168
23240,7210
23242,7239
23243,7249
23251,7256
23270,7260
23304,7262
23356,7261
23374,7261
23499,7258
23499,7168
23662,7168
23662,7210
23664,7239
23665,7249
23674,7256
23697,7260
23737,7263
23793,7263
23916,7263
23916,7208
24083,7208
24083,7334
24083,7384
24085,7427
24087,7456
24090,7467
24104,7470
24134,7472
24178,7474
24218,7474
24338,7474
24338,7208
24505,7208
24505,7474
24760,7474
24760,7208
24505,7208
24338,7208
24083,7208
23916,7208
23916,6996
23666,7002
23663,7118
23662,7168
23499,7168
23499,7002
23244,7002
23241,7118
23240,7168
22922,7168
22936,7128
23086,6746
23159,6586
23238,6586
23238,6706
23239,6756
23241,6797
23243,6824
23246,6834
23259,6837
23290,6839
23334,6841
23379,6841
23505,6841
23505,6586
23660,6586
23660,6841
23916,6841
23916,6797
24083,6797
24083,7052
24338,7052
24338,6797
24505,6797
24505,7052
24760,7052
24760,6797
24505,6797
24338,6797
24083,6797
23916,6797
23916,6586
23660,6586
23505,6586
23238,6586
23159,6586
23256,6372
23365,6163
23660,6163
23660,6419
23916,6419
23916,6374
24083,6374
24083,6630
24338,6630
24338,6374
24505,6374
24505,6630
24760,6630
24760,6374
24505,6374
24338,6374
24083,6374
23916,6374
23916,6163
23660,6163
23365,6163
23448,6006
23605,5741
23660,5741
23660,5997
23916,5997
23916,5941
24105,5941
24105,6197
24360,6197
24360,5952
24505,5952
24505,6208
24760,6208
24760,5952
24505,5952
24360,5952
24360,5941
24105,5941
23916,5941
23916,5741
23660,5741
23605,5741
23659,5649
23736,5530
24083,5530
24083,5786
24338,5786
24338,5530
24505,5530
24505,5786
24760,5786
24760,5530
24505,5530
24338,5530
24083,5530
23736,5530
23754,5502
23992,5161
24034,5108
24083,5108
24083,5374
24338,5374
24338,5108
24505,5108
24505,5374
24760,5374
24760,5108
24505,5108
24338,5108
24083,5108
24034,5108
24247,4836
24367,4697
24505,4697
24505,4952
24760,4952
24760,4697
24505,4697
24367,4697
24517,4525
24802,4230
24970,4074
25149,4074
25149,4330
25405,4330
25405,4074
25560,4074
25560,4330
25827,4330
25827,4074
25983,4074
25983,4330
26238,4330
26238,4074
26405,4074
26405,4330
26660,4330
26660,4074
26827,4074
26827,4330
27083,4330
27083,4074
27249,4074
27249,4330
27505,4330
27505,4074
27660,4074
27660,4330
27927,4330
27927,4074
27660,4074
27505,4074
27249,4074
27083,4074
26827,4074
26660,4074
26405,4074
26238,4074
25983,4074
25827,4074
25560,4074
25405,4074
25149,4074
24970,4074
25102,3951
25154,3908
25560,3908
25828,3908
25822,3658
25566,3658
25560,3908
25154,3908
25416,3689
25466,3652
25983,3652
25983,3908
26238,3908
26238,3674
26394,3674
26394,3930
26649,3930
26649,3674
26394,3674
26238,3674
26238,3652
26827,3652
26827,3908
27083,3908
27083,3652
27249,3652
27249,3908
27505,3908
27660,3908
27928,3908
27922,3658
27666,3658
27660,3908
27505,3908
27505,3652
27249,3652
27083,3652
26827,3652
26238,3652
25983,3652
25466,3652
25743,3444
26064,3230
26194,3230
26194,3356
26194,3407
26196,3449
26199,3478
26201,3489
26215,3492
26246,3495
26289,3496
26329,3497
26449,3497
26449,3230
26616,3230
26616,3497
26872,3497
26872,3230
27038,3230
27038,3497
27460,3497
27585,3494
27710,3491
27710,3236
27460,3229
27460,3497
27038,3497
27163,3494
27288,3491
27295,3230
27038,3230
26872,3230
26616,3230
26449,3230
26194,3230
26064,3230
26083,3217
26435,3008
26795,2819
27038,2819
27038,3074
27294,3074
27294,2819
27460,2819
27460,3075
27710,3069
27717,2819
27872,2819
27872,3074
28127,3074
28127,2819
27872,2819
27717,2819
27460,2819
27294,2819
27038,2819
26795,2819
26799,2817
27173,2645
27558,2492
27840,2397
28083,2397
28083,2652
28338,2652
28338,2397
28505,2397
28505,2652
28760,2652
28760,2397
28505,2397
28338,2397
28083,2397
27840,2397
27922,2368
28194,2290
28476,2220
28763,2160
29052,2110
29336,2072
29611,2046
29783,2036
29850,2033
29921,2029
29987,2026
30036,2023
30139,2017
30139,2016
30294,2016
30362,2023
30408,2026
30465,2029
30520,2030
30522,2030
30636,2033
30768,2041
30914,2053
31070,2070
31232,2090
31397,2114
31562,2141
31721,2170
31805,2187
32202,2280
32590,2394
32970,2527
33340,2679
33701,2850
34051,3039
34391,3245
34718,3468
35034,3707
35336,3961
35625,4231
35901,4514
36161,4812
36407,5122
36636,5445
36849,5780
37046,6126
37225,6482
37385,6849
37527,7225
37649,7610
37752,8004
37815,8302
37845,8470
37872,8646
37896,8825
37916,9003
37932,9175
37943,9337
37949,9485
37949,9557
37950,9605
37952,9645
37955,9671
37957,9678
37970,9681
38001,9684
38044,9685
38085,9686
38205,9686
38205,9547
38203,9424
38196,9282
38185,9127
38169,8961
38160,8869
38103,8455
38025,8046
37926,7644
37806,7248
37666,6860
37507,6480
37328,6109
37130,5748
36913,5397
36679,5057
36426,4728
36156,4413
35869,4110
35565,3821
35245,3547
35216,3523
34884,3270
34540,3035
34184,2819
33817,2621
33439,2443
33053,2285
32658,2147
32256,2030
32128,1997
31877,1939
31630,1891
31382,1850
31129,1818
30866,1793
30588,1774
30458,1768
30294,1761
30294,2016
30139,2016
30136,1893
30133,1769
29960,1772
29778,1779
29581,1792
29376,1810
29169,1834
28966,1863
28788,1892
28378,1977
27973,2084
27577,2211
27188,2358
26808,2525
26437,2712
26076,2918
25726,3144
25387,3388
25060,3650
24746,3930
24561,4109
24273,4412
24004,4725
23754,5048
23522,5385
23306,5735
23107,6099
23043,6224
22872,6593
22722,6963
22591,7338
22481,7718
22390,8105
22318,8500
22265,8905
22231,9320
22222,9499
22220,9558
22219,9609
22070,9609
22075,9439
22097,9052
22140,8660
22205,8262
22291,7859
22328,7711
22442,7309
22577,6915
22733,6529
22908,6151
23103,5782
23316,5424
23548,5077
23797,4741
24064,4418
24347,4108
24647,3813
24962,3532
25122,3401
25458,3145
25805,2908
26164,2690
26533,2491
26911,2311
27298,2151
27693,2012
28094,1893
28501,1794
28914,1717
29330,1662
29705,1630
29780,1626
29855,1622
29926,1619
29985,1617
30016,1616
30122,1613
30125,1272
30127,930
30305,930
30308,1272
" /> 
<polyline style="fill-rule:evenodd;"
points="21422,10596
21475,11039
21550,11475
21646,11906
21763,12331
21902,12750
22062,13163
22088,13224
22270,13623
22471,14011
22691,14388
22928,14752
23183,15104
23454,15443
23741,15767
24044,16078
24361,16373
24693,16652
25038,16916
25396,17162
25766,17391
26148,17602
26541,17794
26944,17967
26973,17978
27386,18129
27805,18259
28231,18368
28663,18455
29103,18522
29550,18567
29938,18589
29933,18589
29907,18590
29860,18590
29792,18590
29706,18590
29601,18591
29478,18591
29338,18591
29181,18591
29010,18592
28823,18592
28622,18592
28408,18592
28181,18593
27942,18593
27692,18593
27431,18593
27161,18593
26881,18594
26594,18594
26299,18594
25997,18594
25702,18594
21383,18597
21385,14338
21385,14033
21385,13733
21385,13440
21386,13155
21386,12878
21386,12610
21386,12351
21386,12103
21387,11867
21387,11642
21387,11430
21387,11232
21388,11047
21388,10878
21388,10724
21388,10587
21389,10467
21389,10364
21389,10281
21389,10217
21390,10173
21390,10150
21390,10147
21422,10596
" /> 
</g>
<g style="fill:#000000; fill-opacity:1.0; 
stroke:#000000; stroke-width:59.0551; stroke-opacity:1; 
stroke-linecap:round; stroke-linejoin:round;">
</g>
<g style="fill:#000000; fill-opacity:0.0; 
stroke:#000000; stroke-width:59.0551; stroke-opacity:1; 
stroke-linecap:round; stroke-linejoin:round;">
<path d="M45531 18228
L45531 1299
" />
<path d="M15807 19212
L44547 19212
" />
<path d="M14822 1299
L14822 18228
" />
<path d="M44547 314
L15807 314
" />
<path d="M15807.1 314.961 A984.252 984.252 0.0 0 0 14822.8 1299.21 " />
<path d="M14822.8 18228.3 A984.252 984.252 0.0 0 0 15807.1 19212.6 " />
<path d="M44547.2 19212.6 A984.252 984.252 0.0 0 0 45531.5 18228.3 " />
<path d="M45531.5 1299.21 A984.252 984.252 0.0 0 0 44547.2 314.961 " />
</g> 
</svg>
