<?xml version="1.0" standalone="no"?>
 <!DOCTYPE svg PUBLIC "-//W3C//DTD SVG 1.1//EN" 
 "http://www.w3.org/Graphics/SVG/1.1/DTD/svg11.dtd"> 
<svg xmlns="http://www.w3.org/2000/svg" version="1.1" 
    width="11.9736cm" height="5.03936cm" viewBox="0 0 47140 19840 ">
<title>SVG Picture created as ledside_rev15-F.Cu.svg date 2018/08/25 22:06:39 </title>
  <desc>Picture generated by PCBNEW </desc>
<g style="fill:#000000; fill-opacity:1;stroke:#000000; stroke-opacity:1;
stroke-linecap:round; stroke-linejoin:round; "
 transform="translate(0 0) scale(1 1)">
</g>
<g style="fill:#000000; fill-opacity:0.0; 
stroke:#000000; stroke-width:-0.000393701; stroke-opacity:1; 
stroke-linecap:round; stroke-linejoin:round;">
</g>
<g style="fill:#000000; fill-opacity:0.0; 
stroke:#000000; stroke-width:0; stroke-opacity:1; 
stroke-linecap:round; stroke-linejoin:round;">
</g>
<g style="fill:#000000; fill-opacity:1.0; 
stroke:#000000; stroke-width:0; stroke-opacity:1; 
stroke-linecap:round; stroke-linejoin:round;">
<polyline style="fill-rule:evenodd;"
points="44281,9635
44281,9104
44812,9104
44812,9635
44281,9635
" /> 
</g>
<g style="fill:#000000; fill-opacity:1.0; 
stroke:#000000; stroke-width:531.496; stroke-opacity:1; 
stroke-linecap:round; stroke-linejoin:round;">
</g>
<g style="fill:#000000; fill-opacity:0.0; 
stroke:#000000; stroke-width:531.496; stroke-opacity:1; 
stroke-linecap:round; stroke-linejoin:round;">
<path d="M44547 10157
L44547 10157
" />
</g>
<g style="fill:#000000; fill-opacity:1.0; 
stroke:#000000; stroke-width:0; stroke-opacity:1; 
stroke-linecap:round; stroke-linejoin:round;">
<circle cx="15807.1" cy="18228.3" r="866.142" /> 
</g>
<g style="fill:#000000; fill-opacity:1.0; 
stroke:#000000; stroke-width:39.3701; stroke-opacity:1; 
stroke-linecap:round; stroke-linejoin:round;">
</g>
<g style="fill:#000000; fill-opacity:1.0; 
stroke:#000000; stroke-width:0; stroke-opacity:1; 
stroke-linecap:round; stroke-linejoin:round;">
<circle cx="15807.1" cy="1299.21" r="866.142" /> 
</g>
<g style="fill:#000000; fill-opacity:1.0; 
stroke:#000000; stroke-width:39.3701; stroke-opacity:1; 
stroke-linecap:round; stroke-linejoin:round;">
</g>
<g style="fill:#000000; fill-opacity:1.0; 
stroke:#000000; stroke-width:0; stroke-opacity:1; 
stroke-linecap:round; stroke-linejoin:round;">
<circle cx="44547.2" cy="1299.21" r="866.142" /> 
</g>
<g style="fill:#000000; fill-opacity:1.0; 
stroke:#000000; stroke-width:39.3701; stroke-opacity:1; 
stroke-linecap:round; stroke-linejoin:round;">
</g>
<g style="fill:#000000; fill-opacity:1.0; 
stroke:#000000; stroke-width:0; stroke-opacity:1; 
stroke-linecap:round; stroke-linejoin:round;">
<circle cx="44547.2" cy="18228.3" r="866.142" /> 
</g>
<g style="fill:#000000; fill-opacity:1.0; 
stroke:#000000; stroke-width:39.3701; stroke-opacity:1; 
stroke-linecap:round; stroke-linejoin:round;">
</g>
<g style="fill:#000000; fill-opacity:1.0; 
stroke:#000000; stroke-width:0; stroke-opacity:1; 
stroke-linecap:round; stroke-linejoin:round;">
<polyline style="fill-rule:evenodd;"
points="35206,11634
35216,11635
35225,11638
35234,11641
35243,11645
35251,11650
35259,11656
35266,11662
35272,11669
35278,11677
35283,11685
35287,11694
35291,11703
35293,11713
35294,11722
35295,11732
35295,11988
35294,11997
35293,12007
35291,12016
35287,12025
35283,12034
35278,12042
35272,12050
35266,12057
35259,12064
35251,12070
35243,12074
35234,12079
35225,12082
35216,12084
35206,12086
35196,12086
34842,12086
34832,12086
34823,12084
34813,12082
34804,12079
34796,12074
34787,12070
34780,12064
34772,12057
34766,12050
34760,12042
34755,12034
34751,12025
34748,12016
34745,12007
34744,11997
34744,11988
34744,11732
34744,11722
34745,11713
34748,11703
34751,11694
34755,11685
34760,11677
34766,11669
34772,11662
34780,11656
34787,11650
34796,11645
34804,11641
34813,11638
34823,11635
34832,11634
34842,11633
35196,11633
35206,11634
" /> 
<polyline style="fill-rule:evenodd;"
points="35206,10827
35216,10828
35225,10831
35234,10834
35243,10838
35251,10843
35259,10849
35266,10855
35272,10862
35278,10870
35283,10878
35287,10887
35291,10896
35293,10905
35294,10915
35295,10925
35295,11181
35294,11190
35293,11200
35291,11209
35287,11218
35283,11227
35278,11235
35272,11243
35266,11250
35259,11257
35251,11262
35243,11267
35234,11272
35225,11275
35216,11277
35206,11279
35196,11279
34842,11279
34832,11279
34823,11277
34813,11275
34804,11272
34796,11267
34787,11262
34780,11257
34772,11250
34766,11243
34760,11235
34755,11227
34751,11218
34748,11209
34745,11200
34744,11190
34744,11181
34744,10925
34744,10915
34745,10905
34748,10896
34751,10887
34755,10878
34760,10870
34766,10862
34772,10855
34780,10849
34787,10843
34796,10838
34804,10834
34813,10831
34823,10828
34832,10827
34842,10826
35196,10826
35206,10827
" /> 
<polyline style="fill-rule:evenodd;"
points="30019,9960
30019,9566
30413,9566
30413,9960
30019,9960
" /> 
<polyline style="fill-rule:evenodd;"
points="44350,5393
44350,5000
44744,5000
44744,5393
44350,5393
" /> 
<polyline style="fill-rule:evenodd;"
points="30748,15177
29685,15177
29685,14901
30748,14901
30748,15177
" /> 
<polyline style="fill-rule:evenodd;"
points="30748,14763
29685,14763
29685,14370
30748,14370
30748,14763
" /> 
<polyline style="fill-rule:evenodd;"
points="30748,14232
29685,14232
29685,13956
30748,13956
30748,14232
" /> 
<polyline style="fill-rule:evenodd;"
points="25748,10295
25748,9232
26023,9232
26023,10295
25748,10295
" /> 
<polyline style="fill-rule:evenodd;"
points="25216,10295
25216,9232
25610,9232
25610,10295
25216,10295
" /> 
<polyline style="fill-rule:evenodd;"
points="24803,10295
24803,9232
25078,9232
25078,10295
24803,10295
" /> 
<polyline style="fill-rule:evenodd;"
points="29685,4350
30748,4350
30748,4625
29685,4625
29685,4350
" /> 
<polyline style="fill-rule:evenodd;"
points="29685,4763
30748,4763
30748,5157
29685,5157
29685,4763
" /> 
<polyline style="fill-rule:evenodd;"
points="29685,5295
30748,5295
30748,5570
29685,5570
29685,5295
" /> 
<polyline style="fill-rule:evenodd;"
points="34685,9232
34685,10295
34409,10295
34409,9232
34685,9232
" /> 
<polyline style="fill-rule:evenodd;"
points="35216,9232
35216,10295
34822,10295
34822,9232
35216,9232
" /> 
<polyline style="fill-rule:evenodd;"
points="35629,9232
35629,10295
35354,10295
35354,9232
35629,9232
" /> 
<circle cx="30216.5" cy="11023.6" r="275.591" /> 
</g>
<g style="fill:#000000; fill-opacity:1.0; 
stroke:#000000; stroke-width:39.3701; stroke-opacity:1; 
stroke-linecap:round; stroke-linejoin:round;">
</g>
<g style="fill:#000000; fill-opacity:1.0; 
stroke:#000000; stroke-width:0; stroke-opacity:1; 
stroke-linecap:round; stroke-linejoin:round;">
<circle cx="29311" cy="8897.64" r="275.591" /> 
</g>
<g style="fill:#000000; fill-opacity:1.0; 
stroke:#000000; stroke-width:39.3701; stroke-opacity:1; 
stroke-linecap:round; stroke-linejoin:round;">
</g>
<g style="fill:#000000; fill-opacity:1.0; 
stroke:#000000; stroke-width:0; stroke-opacity:1; 
stroke-linecap:round; stroke-linejoin:round;">
<circle cx="31082.7" cy="8897.64" r="275.591" /> 
</g>
<g style="fill:#000000; fill-opacity:1.0; 
stroke:#000000; stroke-width:39.3701; stroke-opacity:1; 
stroke-linecap:round; stroke-linejoin:round;">
</g>
<g style="fill:#000000; fill-opacity:1.0; 
stroke:#000000; stroke-width:0; stroke-opacity:1; 
stroke-linecap:round; stroke-linejoin:round;">
<circle cx="34744.1" cy="6732.28" r="275.591" /> 
</g>
<g style="fill:#000000; fill-opacity:1.0; 
stroke:#000000; stroke-width:39.3701; stroke-opacity:1; 
stroke-linecap:round; stroke-linejoin:round;">
</g>
<g style="fill:#000000; fill-opacity:1.0; 
stroke:#000000; stroke-width:0; stroke-opacity:1; 
stroke-linecap:round; stroke-linejoin:round;">
<circle cx="34744.1" cy="12795.3" r="275.591" /> 
</g>
<g style="fill:#000000; fill-opacity:1.0; 
stroke:#000000; stroke-width:39.3701; stroke-opacity:1; 
stroke-linecap:round; stroke-linejoin:round;">
</g>
<g style="fill:#000000; fill-opacity:1.0; 
stroke:#000000; stroke-width:157.48; stroke-opacity:1; 
stroke-linecap:round; stroke-linejoin:round;">
</g>
<g style="fill:#000000; fill-opacity:0.0; 
stroke:#000000; stroke-width:157.48; stroke-opacity:1; 
stroke-linecap:round; stroke-linejoin:round;">
<path d="M44547 1299
L44192 1299
" />
<path d="M44547 1299
L44350 1299
" />
</g>
<g style="fill:#000000; fill-opacity:0.0; 
stroke:#000000; stroke-width:98.4252; stroke-opacity:1; 
stroke-linecap:round; stroke-linejoin:round;">
<path d="M25885 9763
L34547 9763
" />
<path d="M30216 5433
L30216 14094
" />
</g>
<g style="fill:#000000; fill-opacity:1.0; 
stroke:#000000; stroke-width:100; stroke-opacity:1; 
stroke-linecap:round; stroke-linejoin:round;">
<polyline style="fill-rule:evenodd;"
points="44722,412
44891,463
45047,545
45184,657
45296,793
45380,948
45433,1117
45451,1296
45451,1299
45451,17573
45414,17516
45258,17361
45075,17239
44872,17155
44657,17112
44437,17112
44221,17155
44018,17239
43835,17361
43680,17516
43558,17699
43473,17902
43431,18118
43431,18338
43473,18553
43558,18757
43680,18939
43835,19095
43892,19133
43416,19133
43416,10157
44150,10157
44158,10234
44181,10309
44217,10377
44266,10437
44327,10487
44395,10523
44469,10546
44527,10551
44566,10551
44624,10546
44698,10523
44767,10487
44827,10437
44876,10377
44913,10309
44936,10234
44943,10157
44936,10080
44913,10005
44876,9937
44827,9877
44767,9827
44698,9791
44624,9768
44588,9765
44812,9765
44838,9762
44862,9755
44884,9743
44904,9727
44920,9707
44932,9685
44939,9661
44942,9635
44942,9104
44939,9079
44932,9054
44920,9032
44904,9012
44884,8996
44862,8984
44838,8977
44812,8974
44281,8974
44256,8977
44231,8984
44209,8996
44190,9012
44173,9032
44161,9054
44154,9079
44152,9104
44152,9635
44154,9661
44161,9685
44173,9707
44190,9727
44209,9743
44231,9755
44256,9762
44281,9765
44505,9765
44469,9768
44395,9791
44327,9827
44266,9877
44217,9937
44181,10005
44158,10080
44150,10157
43416,10157
43416,394
44543,394
44722,412
" /> 
<polyline style="fill-rule:evenodd;"
points="17213,19133
16754,19133
16824,19063
16967,18848
17066,18610
17116,18357
17116,18099
17066,17846
16967,17607
16824,17393
16642,17210
16427,17067
16189,16968
15936,16918
15678,16918
15425,16968
15186,17067
14972,17210
14902,17280
14902,1954
14940,2010
15095,2166
15278,2288
15481,2372
15697,2415
15917,2415
16132,2372
16335,2288
16518,2166
16674,2010
16796,1827
16880,1624
16923,1409
16923,1189
16880,973
16796,770
16674,587
16518,432
16462,394
17213,394
17213,19133
" /> 
<polyline style="fill-rule:evenodd;"
points="43316,579
17313,579
17313,394
43316,394
43316,579
" /> 
<polyline style="fill-rule:evenodd;"
points="43316,19133
17313,19133
17313,18947
43316,18947
43316,19133
" /> 
</g>
<g style="fill:#FFFFFF; fill-opacity:1.0; 
stroke:#FFFFFF; stroke-width:100; stroke-opacity:1; 
stroke-linecap:round; stroke-linejoin:round;">
</g>
<g style="fill:#FFFFFF; fill-opacity:1.0; 
stroke:#FFFFFF; stroke-width:0; stroke-opacity:1; 
stroke-linecap:round; stroke-linejoin:round;">
<circle cx="30216.5" cy="11023.6" r="157.48" /> 
</g>
<g style="fill:#FFFFFF; fill-opacity:1.0; 
stroke:#FFFFFF; stroke-width:39.3701; stroke-opacity:1; 
stroke-linecap:round; stroke-linejoin:round;">
</g>
<g style="fill:#FFFFFF; fill-opacity:1.0; 
stroke:#FFFFFF; stroke-width:0; stroke-opacity:1; 
stroke-linecap:round; stroke-linejoin:round;">
<circle cx="29311" cy="8897.64" r="157.48" /> 
</g>
<g style="fill:#FFFFFF; fill-opacity:1.0; 
stroke:#FFFFFF; stroke-width:39.3701; stroke-opacity:1; 
stroke-linecap:round; stroke-linejoin:round;">
</g>
<g style="fill:#FFFFFF; fill-opacity:1.0; 
stroke:#FFFFFF; stroke-width:0; stroke-opacity:1; 
stroke-linecap:round; stroke-linejoin:round;">
<circle cx="31082.7" cy="8897.64" r="157.48" /> 
</g>
<g style="fill:#FFFFFF; fill-opacity:1.0; 
stroke:#FFFFFF; stroke-width:39.3701; stroke-opacity:1; 
stroke-linecap:round; stroke-linejoin:round;">
</g>
<g style="fill:#FFFFFF; fill-opacity:1.0; 
stroke:#FFFFFF; stroke-width:0; stroke-opacity:1; 
stroke-linecap:round; stroke-linejoin:round;">
<circle cx="34744.1" cy="6732.28" r="157.48" /> 
</g>
<g style="fill:#FFFFFF; fill-opacity:1.0; 
stroke:#FFFFFF; stroke-width:39.3701; stroke-opacity:1; 
stroke-linecap:round; stroke-linejoin:round;">
</g>
<g style="fill:#FFFFFF; fill-opacity:1.0; 
stroke:#FFFFFF; stroke-width:0; stroke-opacity:1; 
stroke-linecap:round; stroke-linejoin:round;">
<circle cx="34744.1" cy="12795.3" r="157.48" /> 
</g>
<g style="fill:#FFFFFF; fill-opacity:1.0; 
stroke:#FFFFFF; stroke-width:39.3701; stroke-opacity:1; 
stroke-linecap:round; stroke-linejoin:round;">
</g>
<g style="fill:#FFFFFF; fill-opacity:1.0; 
stroke:#FFFFFF; stroke-width:0; stroke-opacity:1; 
stroke-linecap:round; stroke-linejoin:round;">
<circle cx="44547.2" cy="9370.08" r="157.48" /> 
</g>
<g style="fill:#FFFFFF; fill-opacity:1.0; 
stroke:#FFFFFF; stroke-width:39.3701; stroke-opacity:1; 
stroke-linecap:round; stroke-linejoin:round;">
</g>
<g style="fill:#FFFFFF; fill-opacity:1.0; 
stroke:#FFFFFF; stroke-width:0; stroke-opacity:1; 
stroke-linecap:round; stroke-linejoin:round;">
<circle cx="44547.2" cy="10157.5" r="157.48" /> 
</g>
<g style="fill:#FFFFFF; fill-opacity:1.0; 
stroke:#FFFFFF; stroke-width:39.3701; stroke-opacity:1; 
stroke-linecap:round; stroke-linejoin:round;">
</g>
<g style="fill:#FFFFFF; fill-opacity:1.0; 
stroke:#FFFFFF; stroke-width:0; stroke-opacity:1; 
stroke-linecap:round; stroke-linejoin:round;">
<circle cx="15807.1" cy="18228.3" r="433.071" /> 
</g>
<g style="fill:#FFFFFF; fill-opacity:1.0; 
stroke:#FFFFFF; stroke-width:39.3701; stroke-opacity:1; 
stroke-linecap:round; stroke-linejoin:round;">
</g>
<g style="fill:#FFFFFF; fill-opacity:1.0; 
stroke:#FFFFFF; stroke-width:0; stroke-opacity:1; 
stroke-linecap:round; stroke-linejoin:round;">
<circle cx="15807.1" cy="1299.21" r="433.071" /> 
</g>
<g style="fill:#FFFFFF; fill-opacity:1.0; 
stroke:#FFFFFF; stroke-width:39.3701; stroke-opacity:1; 
stroke-linecap:round; stroke-linejoin:round;">
</g>
<g style="fill:#FFFFFF; fill-opacity:1.0; 
stroke:#FFFFFF; stroke-width:0; stroke-opacity:1; 
stroke-linecap:round; stroke-linejoin:round;">
<circle cx="44547.2" cy="1299.21" r="433.071" /> 
</g>
<g style="fill:#FFFFFF; fill-opacity:1.0; 
stroke:#FFFFFF; stroke-width:39.3701; stroke-opacity:1; 
stroke-linecap:round; stroke-linejoin:round;">
</g>
<g style="fill:#FFFFFF; fill-opacity:1.0; 
stroke:#FFFFFF; stroke-width:0; stroke-opacity:1; 
stroke-linecap:round; stroke-linejoin:round;">
<circle cx="44547.2" cy="18228.3" r="433.071" /> 
</g>
<g style="fill:#FFFFFF; fill-opacity:1.0; 
stroke:#FFFFFF; stroke-width:39.3701; stroke-opacity:1; 
stroke-linecap:round; stroke-linejoin:round;">
</g>
<g style="fill:#000000; fill-opacity:1.0; 
stroke:#000000; stroke-width:39.3701; stroke-opacity:1; 
stroke-linecap:round; stroke-linejoin:round;">
</g>
<g style="fill:#000000; fill-opacity:1.0; 
stroke:#000000; stroke-width:59.0551; stroke-opacity:1; 
stroke-linecap:round; stroke-linejoin:round;">
</g>
<g style="fill:#000000; fill-opacity:0.0; 
stroke:#000000; stroke-width:59.0551; stroke-opacity:1; 
stroke-linecap:round; stroke-linejoin:round;">
<path d="M45531 18228
L45531 1299
" />
<path d="M15807 19212
L44547 19212
" />
<path d="M14822 1299
L14822 18228
" />
<path d="M44547 314
L15807 314
" />
<path d="M15807.1 314.961 A984.252 984.252 0.0 0 0 14822.8 1299.21 " />
<path d="M14822.8 18228.3 A984.252 984.252 0.0 0 0 15807.1 19212.6 " />
<path d="M44547.2 19212.6 A984.252 984.252 0.0 0 0 45531.5 18228.3 " />
<path d="M45531.5 1299.21 A984.252 984.252 0.0 0 0 44547.2 314.961 " />
</g> 
</svg>
