<?xml version="1.0" standalone="no"?>
 <!DOCTYPE svg PUBLIC "-//W3C//DTD SVG 1.1//EN" 
 "http://www.w3.org/Graphics/SVG/1.1/DTD/svg11.dtd"> 
<svg xmlns="http://www.w3.org/2000/svg" version="1.1" 
    width="11.9736cm" height="5.03936cm" viewBox="0 0 47140 19840 ">
<title>SVG Picture created as ledside_rev15-Eco1.User.svg date 2018/08/19 18:16:16 </title>
  <desc>Picture generated by PCBNEW </desc>
<g style="fill:#000000; fill-opacity:1;stroke:#000000; stroke-opacity:1;
stroke-linecap:round; stroke-linejoin:round; "
 transform="translate(0 0) scale(1 1)">
</g>
<g style="fill:#000000; fill-opacity:0.0; 
stroke:#000000; stroke-width:-0.000393701; stroke-opacity:1; 
stroke-linecap:round; stroke-linejoin:round;">
</g>
<g style="fill:#000000; fill-opacity:0.0; 
stroke:#000000; stroke-width:78.7402; stroke-opacity:1; 
stroke-linecap:round; stroke-linejoin:round;">
<path d="M47106 9763
L14192 9763
" />
<path d="M30177 39
L30177 19803
" />
</g>
<g style="fill:#000000; fill-opacity:0.0; 
stroke:#000000; stroke-width:59.0551; stroke-opacity:1; 
stroke-linecap:round; stroke-linejoin:round;">
<path d="M45531 18228
L45531 1299
" />
<path d="M15807 19212
L44547 19212
" />
<path d="M14822 1299
L14822 18228
" />
<path d="M44547 314
L15807 314
" />
<path d="M15807.1 314.961 A984.252 984.252 0.0 0 0 14822.8 1299.21 " />
<path d="M14822.8 18228.3 A984.252 984.252 0.0 0 0 15807.1 19212.6 " />
<path d="M44547.2 19212.6 A984.252 984.252 0.0 0 0 45531.5 18228.3 " />
<path d="M45531.5 1299.21 A984.252 984.252 0.0 0 0 44547.2 314.961 " />
</g> 
</svg>
