M48
; DRILL file {KiCad 5.1.2} date Thu 04 Jul 2019 05:20:20 CEST
; FORMAT={-:-/ absolute / metric / decimal}
; #@! TF.CreationDate,2019-07-04T05:20:20+02:00
; #@! TF.GenerationSoftware,Kicad,Pcbnew,5.1.2
FMAT,2
METRIC
T1C0.400
T2C0.800
T3C2.200
%
G90
G05
T1
X35.25Y-30.2
X35.25Y-40.2
X35.25Y-50.2
X35.25Y-60.2
X35.3Y-70.2
X39.5Y-74.4
X44.5Y-26.0
X44.5Y-74.4
X54.5Y-26.0
X54.5Y-74.4
X64.5Y-26.0
X64.5Y-74.4
X74.5Y-26.0
X74.5Y-74.4
X84.5Y-26.0
X84.5Y-74.4
X90.4Y-52.0
X92.4Y-52.0
X94.4Y-52.0
X94.5Y-26.0
X94.5Y-74.4
X97.8Y-43.8
X97.8Y-45.8
X97.8Y-47.8
X97.8Y-58.1
X97.8Y-60.1
X97.8Y-62.2
X100.95Y-45.6
X100.95Y-47.0
X100.95Y-48.4
X104.5Y-26.0
X104.5Y-74.4
X113.7Y-30.2
X113.7Y-40.2
X113.7Y-50.2
X113.7Y-60.2
X113.7Y-70.2
X35.35Y-72.7
X35.833Y-71.533
X35.833Y-73.867
X37.0Y-71.05
X37.0Y-74.35
X38.167Y-71.533
X38.167Y-73.867
X38.65Y-72.7
X110.35Y-27.7
X110.833Y-26.533
X110.833Y-28.867
X112.0Y-26.05
X112.0Y-29.35
X113.167Y-26.533
X113.167Y-28.867
X113.65Y-27.7
X110.3Y-72.7
X110.783Y-71.533
X110.783Y-73.867
X111.95Y-71.05
X111.95Y-74.35
X113.117Y-71.533
X113.117Y-73.867
X113.6Y-72.7
X35.3Y-27.7
X35.783Y-26.533
X35.783Y-28.867
X36.95Y-26.05
X36.95Y-29.35
X38.117Y-26.533
X38.117Y-28.867
X38.6Y-27.7
T2
X110.5Y-49.2
X110.5Y-51.2
T3
X37.0Y-72.7
X112.0Y-27.7
X111.95Y-72.7
X36.95Y-27.7
T0
M30
