<?xml version="1.0" standalone="no"?>
 <!DOCTYPE svg PUBLIC "-//W3C//DTD SVG 1.1//EN" 
 "http://www.w3.org/Graphics/SVG/1.1/DTD/svg11.dtd"> 
<svg xmlns="http://www.w3.org/2000/svg" version="1.1" 
    width="18.0442cm" height="6.35cm" viewBox="0 0 71040 25000 ">
<title>SVG Picture created as modular_eside_rev4-B.Cu.svg date 2017/04/16 13:51:36 </title>
  <desc>Picture generated by PCBNEW </desc>
<g style="fill:#000000; fill-opacity:1;stroke:#000000; stroke-opacity:1;
stroke-linecap:round; stroke-linejoin:round; "
 transform="translate(0 0) scale(1 1)">
</g>
<g style="fill:#000000; fill-opacity:0.0; 
stroke:#000000; stroke-width:-0.000393701; stroke-opacity:1; 
stroke-linecap:round; stroke-linejoin:round;">
</g>
<g style="fill:#000000; fill-opacity:0.0; 
stroke:#000000; stroke-width:0; stroke-opacity:1; 
stroke-linecap:round; stroke-linejoin:round;">
</g>
<g style="fill:#000000; fill-opacity:1.0; 
stroke:#000000; stroke-width:0; stroke-opacity:1; 
stroke-linecap:round; stroke-linejoin:round;">
<polyline style="fill-rule:evenodd;"
points="6496,21062
7028,21062
7028,21850
6496,21850
6496,21062
" /> 
<polyline style="fill-rule:evenodd;"
points="7283,21062
7815,21062
7815,21850
7283,21850
7283,21062
" /> 
<polyline style="fill-rule:evenodd;"
points="8071,21062
8602,21062
8602,21850
8071,21850
8071,21062
" /> 
<polyline style="fill-rule:evenodd;"
points="64508,21850
63976,21850
63976,21062
64508,21062
64508,21850
" /> 
<polyline style="fill-rule:evenodd;"
points="65295,21850
64764,21850
64764,21062
65295,21062
65295,21850
" /> 
<polyline style="fill-rule:evenodd;"
points="66083,21850
65551,21850
65551,21062
66083,21062
66083,21850
" /> 
<polyline style="fill-rule:evenodd;"
points="6496,2716
7028,2716
7028,3503
6496,3503
6496,2716
" /> 
<polyline style="fill-rule:evenodd;"
points="7283,2716
7815,2716
7815,3503
7283,3503
7283,2716
" /> 
<polyline style="fill-rule:evenodd;"
points="8071,2716
8602,2716
8602,3503
8071,3503
8071,2716
" /> 
<polyline style="fill-rule:evenodd;"
points="51378,2716
51909,2716
51909,3503
51378,3503
51378,2716
" /> 
<polyline style="fill-rule:evenodd;"
points="50591,2716
51122,2716
51122,3503
50591,3503
50591,2716
" /> 
<polyline style="fill-rule:evenodd;"
points="49803,2716
50335,2716
50335,3503
49803,3503
49803,2716
" /> 
<polyline style="fill-rule:evenodd;"
points="38652,8218
38652,7687
39439,7687
39439,8218
38652,8218
" /> 
<polyline style="fill-rule:evenodd;"
points="38652,7431
38652,6899
39439,6899
39439,7431
38652,7431
" /> 
<polyline style="fill-rule:evenodd;"
points="38652,6643
38652,6112
39439,6112
39439,6643
38652,6643
" /> 
<polyline style="fill-rule:evenodd;"
points="38652,9202
38652,8671
39439,8671
39439,9202
38652,9202
" /> 
<polyline style="fill-rule:evenodd;"
points="38652,9990
38652,9458
39439,9458
39439,9990
38652,9990
" /> 
<polyline style="fill-rule:evenodd;"
points="38652,10777
38652,10246
39439,10246
39439,10777
38652,10777
" /> 
<polyline style="fill-rule:evenodd;"
points="66083,3503
65551,3503
65551,2716
66083,2716
66083,3503
" /> 
<polyline style="fill-rule:evenodd;"
points="65295,3503
64764,3503
64764,2716
65295,2716
65295,3503
" /> 
<polyline style="fill-rule:evenodd;"
points="64508,3503
63976,3503
63976,2716
64508,2716
64508,3503
" /> 
<polyline style="fill-rule:evenodd;"
points="21201,3503
20669,3503
20669,2716
21201,2716
21201,3503
" /> 
<polyline style="fill-rule:evenodd;"
points="21988,3503
21457,3503
21457,2716
21988,2716
21988,3503
" /> 
<polyline style="fill-rule:evenodd;"
points="22776,3503
22244,3503
22244,2716
22776,2716
22776,3503
" /> 
<polyline style="fill-rule:evenodd;"
points="49803,21062
50335,21062
50335,21850
49803,21850
49803,21062
" /> 
<polyline style="fill-rule:evenodd;"
points="50591,21062
51122,21062
51122,21850
50591,21850
50591,21062
" /> 
<polyline style="fill-rule:evenodd;"
points="51378,21062
51909,21062
51909,21850
51378,21850
51378,21062
" /> 
<polyline style="fill-rule:evenodd;"
points="21201,21850
20669,21850
20669,21062
21201,21062
21201,21850
" /> 
<polyline style="fill-rule:evenodd;"
points="21988,21850
21457,21850
21457,21062
21988,21062
21988,21850
" /> 
<polyline style="fill-rule:evenodd;"
points="22776,21850
22244,21850
22244,21062
22776,21062
22776,21850
" /> 
<polyline style="fill-rule:evenodd;"
points="38652,13336
38652,12805
39439,12805
39439,13336
38652,13336
" /> 
<polyline style="fill-rule:evenodd;"
points="38652,12549
38652,12017
39439,12017
39439,12549
38652,12549
" /> 
<polyline style="fill-rule:evenodd;"
points="38652,11761
38652,11230
39439,11230
39439,11761
38652,11761
" /> 
<polyline style="fill-rule:evenodd;"
points="33140,11761
33140,11230
33927,11230
33927,11761
33140,11761
" /> 
<polyline style="fill-rule:evenodd;"
points="33140,12549
33140,12017
33927,12017
33927,12549
33140,12549
" /> 
<polyline style="fill-rule:evenodd;"
points="33140,13336
33140,12805
33927,12805
33927,13336
33140,13336
" /> 
<polyline style="fill-rule:evenodd;"
points="66447,14055
66447,13267
68415,13267
68415,14055
66447,14055
" /> 
<polyline style="fill-rule:evenodd;"
points="66447,12677
66447,11889
68415,11889
68415,12677
66447,12677
" /> 
<polyline style="fill-rule:evenodd;"
points="66447,11299
66447,10511
68415,10511
68415,11299
66447,11299
" /> 
<polyline style="fill-rule:evenodd;"
points="68179,5728
68967,5728
68967,5925
68179,5925
68179,5728
" /> 
<polyline style="fill-rule:evenodd;"
points="68223,7991
68223,8149
67692,8149
67692,7991
68223,7991
" /> 
<polyline style="fill-rule:evenodd;"
points="68223,7735
68223,7893
67692,7893
67692,7735
68223,7735
" /> 
<polyline style="fill-rule:evenodd;"
points="68223,7479
68223,7637
67692,7637
67692,7479
68223,7479
" /> 
<polyline style="fill-rule:evenodd;"
points="68223,7224
68223,7381
67692,7381
67692,7224
68223,7224
" /> 
<polyline style="fill-rule:evenodd;"
points="68223,6968
68223,7125
67692,7125
67692,6968
68223,6968
" /> 
<polyline style="fill-rule:evenodd;"
points="68140,9192
68927,9192
68927,9389
68140,9389
68140,9192
" /> 
<polyline style="fill-rule:evenodd;"
points="69400,15236
68612,15236
68612,14606
69400,14606
69400,15236
" /> 
<polyline style="fill-rule:evenodd;"
points="69400,17598
68612,17598
68612,16968
69400,16968
69400,17598
" /> 
<polyline style="fill-rule:evenodd;"
points="39793,16338
39006,16338
39006,15708
39793,15708
39793,16338
" /> 
<polyline style="fill-rule:evenodd;"
points="39793,18700
39006,18700
39006,18070
39793,18070
39793,18700
" /> 
<circle cx="50659.9" cy="4881.89" r="354.331" /> 
</g>
<g style="fill:#000000; fill-opacity:1.0; 
stroke:#000000; stroke-width:39.3701; stroke-opacity:1; 
stroke-linecap:round; stroke-linejoin:round;">
</g>
<g style="fill:#000000; fill-opacity:1.0; 
stroke:#000000; stroke-width:0; stroke-opacity:1; 
stroke-linecap:round; stroke-linejoin:round;">
<circle cx="60620.5" cy="7874.02" r="354.331" /> 
</g>
<g style="fill:#000000; fill-opacity:1.0; 
stroke:#000000; stroke-width:39.3701; stroke-opacity:1; 
stroke-linecap:round; stroke-linejoin:round;">
</g>
<g style="fill:#000000; fill-opacity:1.0; 
stroke:#000000; stroke-width:0; stroke-opacity:1; 
stroke-linecap:round; stroke-linejoin:round;">
<circle cx="51486.7" cy="15787.4" r="354.331" /> 
</g>
<g style="fill:#000000; fill-opacity:1.0; 
stroke:#000000; stroke-width:39.3701; stroke-opacity:1; 
stroke-linecap:round; stroke-linejoin:round;">
</g>
<g style="fill:#000000; fill-opacity:1.0; 
stroke:#000000; stroke-width:0; stroke-opacity:1; 
stroke-linecap:round; stroke-linejoin:round;">
<circle cx="67077.2" cy="18543.3" r="354.331" /> 
</g>
<g style="fill:#000000; fill-opacity:1.0; 
stroke:#000000; stroke-width:39.3701; stroke-opacity:1; 
stroke-linecap:round; stroke-linejoin:round;">
</g>
<g style="fill:#000000; fill-opacity:1.0; 
stroke:#000000; stroke-width:0; stroke-opacity:1; 
stroke-linecap:round; stroke-linejoin:round;">
<circle cx="42037.9" cy="10511.8" r="354.331" /> 
</g>
<g style="fill:#000000; fill-opacity:1.0; 
stroke:#000000; stroke-width:39.3701; stroke-opacity:1; 
stroke-linecap:round; stroke-linejoin:round;">
</g>
<g style="fill:#000000; fill-opacity:1.0; 
stroke:#000000; stroke-width:0; stroke-opacity:1; 
stroke-linecap:round; stroke-linejoin:round;">
<circle cx="66053.6" cy="4448.82" r="354.331" /> 
</g>
<g style="fill:#000000; fill-opacity:1.0; 
stroke:#000000; stroke-width:39.3701; stroke-opacity:1; 
stroke-linecap:round; stroke-linejoin:round;">
</g>
<g style="fill:#000000; fill-opacity:1.0; 
stroke:#000000; stroke-width:0; stroke-opacity:1; 
stroke-linecap:round; stroke-linejoin:round;">
<circle cx="69124.5" cy="13661.4" r="354.331" /> 
</g>
<g style="fill:#000000; fill-opacity:1.0; 
stroke:#000000; stroke-width:39.3701; stroke-opacity:1; 
stroke-linecap:round; stroke-linejoin:round;">
</g>
<g style="fill:#000000; fill-opacity:1.0; 
stroke:#000000; stroke-width:0; stroke-opacity:1; 
stroke-linecap:round; stroke-linejoin:round;">
<circle cx="64282" cy="18543.3" r="354.331" /> 
</g>
<g style="fill:#000000; fill-opacity:1.0; 
stroke:#000000; stroke-width:39.3701; stroke-opacity:1; 
stroke-linecap:round; stroke-linejoin:round;">
</g>
<g style="fill:#000000; fill-opacity:1.0; 
stroke:#000000; stroke-width:0; stroke-opacity:1; 
stroke-linecap:round; stroke-linejoin:round;">
<circle cx="42037.9" cy="11456.7" r="354.331" /> 
</g>
<g style="fill:#000000; fill-opacity:1.0; 
stroke:#000000; stroke-width:39.3701; stroke-opacity:1; 
stroke-linecap:round; stroke-linejoin:round;">
</g>
<g style="fill:#000000; fill-opacity:1.0; 
stroke:#000000; stroke-width:0; stroke-opacity:1; 
stroke-linecap:round; stroke-linejoin:round;">
<circle cx="40384.3" cy="6377.95" r="354.331" /> 
</g>
<g style="fill:#000000; fill-opacity:1.0; 
stroke:#000000; stroke-width:39.3701; stroke-opacity:1; 
stroke-linecap:round; stroke-linejoin:round;">
</g>
<g style="fill:#000000; fill-opacity:1.0; 
stroke:#000000; stroke-width:0; stroke-opacity:1; 
stroke-linecap:round; stroke-linejoin:round;">
<circle cx="48022.1" cy="15787.4" r="354.331" /> 
</g>
<g style="fill:#000000; fill-opacity:1.0; 
stroke:#000000; stroke-width:39.3701; stroke-opacity:1; 
stroke-linecap:round; stroke-linejoin:round;">
</g>
<g style="fill:#000000; fill-opacity:1.0; 
stroke:#000000; stroke-width:0; stroke-opacity:1; 
stroke-linecap:round; stroke-linejoin:round;">
<circle cx="44596.9" cy="9724.41" r="354.331" /> 
</g>
<g style="fill:#000000; fill-opacity:1.0; 
stroke:#000000; stroke-width:39.3701; stroke-opacity:1; 
stroke-linecap:round; stroke-linejoin:round;">
</g>
<g style="fill:#000000; fill-opacity:1.0; 
stroke:#000000; stroke-width:0; stroke-opacity:1; 
stroke-linecap:round; stroke-linejoin:round;">
<circle cx="49124.5" cy="15787.4" r="354.331" /> 
</g>
<g style="fill:#000000; fill-opacity:1.0; 
stroke:#000000; stroke-width:39.3701; stroke-opacity:1; 
stroke-linecap:round; stroke-linejoin:round;">
</g>
<g style="fill:#000000; fill-opacity:1.0; 
stroke:#000000; stroke-width:0; stroke-opacity:1; 
stroke-linecap:round; stroke-linejoin:round;">
<circle cx="43258.3" cy="15787.4" r="354.331" /> 
</g>
<g style="fill:#000000; fill-opacity:1.0; 
stroke:#000000; stroke-width:39.3701; stroke-opacity:1; 
stroke-linecap:round; stroke-linejoin:round;">
</g>
<g style="fill:#000000; fill-opacity:1.0; 
stroke:#000000; stroke-width:157.48; stroke-opacity:1; 
stroke-linecap:round; stroke-linejoin:round;">
</g>
<g style="fill:#000000; fill-opacity:0.0; 
stroke:#000000; stroke-width:157.48; stroke-opacity:1; 
stroke-linecap:round; stroke-linejoin:round;">
<path d="M60620 7874
L59518 7874
" />
<path d="M59518 7874
L51486 15787
" />
<path d="M67958 8070
L66446 8070
" />
<path d="M66446 8070
L66407 8031
" />
<path d="M67958 7814
L66427 7814
" />
<path d="M66427 7814
L66407 7834
" />
<path d="M67958 7046
L66250 7046
" />
<path d="M66053 6850
L66053 4448
" />
<path d="M66250 7046
L66053 6850
" />
</g>
<g style="fill:#000000; fill-opacity:0.0; 
stroke:#000000; stroke-width:236.22; stroke-opacity:1; 
stroke-linecap:round; stroke-linejoin:round;">
<path d="M67431 13661
L69124 13661
" />
<path d="M64321 14921
L69124 14921
" />
<path d="M64281 18543
L64321 14921
" />
</g>
<g style="fill:#000000; fill-opacity:0.0; 
stroke:#000000; stroke-width:157.48; stroke-opacity:1; 
stroke-linecap:round; stroke-linejoin:round;">
<path d="M41998 11496
L40384 11496
" />
<path d="M42037 11456
L41998 11496
" />
<path d="M40384 18188
L40384 11496
" />
<path d="M40384 11496
L40384 6377
" />
<path d="M40384 18188
L40463 18110
" />
<path d="M44596 9724
L44596 14606
" />
<path d="M49124 15787
L49124 16968
" />
<path d="M43258 16771
L43258 15787
" />
<path d="M43573 17086
L43258 16771
" />
<path d="M49006 17086
L43573 17086
" />
<path d="M49124 16968
L49006 17086
" />
</g>
<g style="fill:#000000; fill-opacity:1.0; 
stroke:#000000; stroke-width:39.3701; stroke-opacity:1; 
stroke-linecap:round; stroke-linejoin:round;">
<polyline style="fill-rule:evenodd;"
points="49380,2764
49380,3779
49381,3785
49383,3790
49386,3793
49504,3911
49508,3914
49513,3916
49518,3917
52195,3917
52200,3916
52205,3914
52209,3911
52327,3793
52330,3789
52332,3783
52333,3779
52333,2764
52410,2687
63476,2687
63553,2764
63553,3818
63554,3824
63556,3829
63559,3832
63677,3950
63681,3954
63687,3956
63691,3956
65021,3956
65128,4063
65128,7440
65129,7446
65131,7451
65134,7454
65252,7572
65256,7576
65261,7578
65266,7578
66360,7578
66512,7730
66516,7733
66521,7735
66526,7736
66714,7736
66821,7842
66821,8062
66714,8169
66565,8169
66559,8170
66554,8172
66551,8175
66433,8293
66430,8297
66428,8302
66427,8307
66427,8503
66428,8509
66430,8514
66433,8517
66551,8635
66555,8639
66561,8641
66565,8641
66714,8641
66821,8748
66821,8818
66822,8824
66824,8829
66827,8832
66945,8950
66949,8954
66954,8956
66959,8956
68809,8956
68815,8955
68820,8953
68823,8950
68941,8832
68944,8828
68946,8823
68947,8818
68947,6299
68946,6293
68944,6288
68941,6285
68823,6167
68819,6163
68813,6161
68809,6161
67085,6161
66978,6054
66978,2764
67055,2687
68570,2687
68793,2708
69004,2772
69199,2876
69370,3015
69511,3186
69616,3380
69681,3591
69705,3813
69705,3818
69705,9706
69628,9783
67155,9783
67150,9784
67145,9786
67142,9789
67023,9907
67020,9911
67018,9916
67018,9921
67018,10275
67018,10281
67021,10286
67023,10289
67142,10407
67146,10410
67151,10412
67155,10413
68880,10413
68986,10519
68986,11291
68880,11397
65156,11397
65049,11291
65049,10118
65048,10112
65046,10107
65043,10104
64925,9986
64921,9982
64916,9980
64911,9980
63573,9980
63567,9981
63562,9983
63559,9986
63441,10104
63437,10108
63435,10113
63435,10118
63435,19251
63436,19257
63438,19262
63441,19265
63559,19383
63563,19387
63568,19389
63573,19389
65029,19389
65035,19388
65040,19386
65043,19383
65162,19265
65165,19261
65167,19256
65167,19251
65167,15795
65274,15688
67974,15688
68081,15795
68081,18307
68081,18312
68084,18317
68086,18321
68205,18439
68209,18442
68214,18444
68218,18444
69628,18444
69705,18521
69705,20745
69683,20967
69619,21179
69515,21374
69376,21545
69206,21686
69011,21791
68800,21856
68578,21879
68573,21879
66583,21879
66506,21802
66506,20787
66505,20781
66503,20776
66500,20773
66382,20655
66378,20652
66372,20650
66368,20649
63691,20649
63685,20650
63680,20652
63677,20655
63559,20773
63556,20777
63554,20783
63553,20787
63553,21802
63476,21879
52410,21879
52333,21802
52333,20787
52332,20781
52330,20776
52327,20773
52209,20655
52204,20652
52199,20650
52195,20649
49518,20649
49512,20650
49507,20652
49504,20655
49386,20773
49382,20777
49380,20783
49380,20787
49380,21802
49303,21879
39835,21879
39613,21858
39401,21794
39206,21690
39035,21551
38894,21380
38789,21186
38724,20975
38701,20753
38701,20747
38701,19269
38778,19192
41014,19192
41019,19192
41024,19189
41028,19187
41146,19069
41149,19064
41151,19059
41152,19055
41152,13464
42411,13464
42411,17480
42412,17485
42414,17490
42417,17494
42535,17612
42540,17615
42545,17617
42549,17618
49872,17618
49878,17617
49883,17615
49886,17612
50004,17494
50007,17489
50009,17484
50010,17480
50010,15078
50009,15073
50007,15068
50004,15064
49886,14946
49882,14943
49876,14941
49872,14940
45628,14940
45522,14834
45522,8937
45521,8931
45519,8926
45516,8923
45398,8804
45393,8801
45388,8799
45384,8799
43809,8799
43804,8799
43798,8802
43795,8804
43677,8923
43674,8927
43672,8932
43671,8937
43671,13220
43565,13326
42549,13326
42544,13327
42539,13329
42535,13332
42417,13450
42414,13455
42412,13460
42411,13464
41152,13464
41152,12330
41258,12224
42667,12224
42673,12223
42678,12221
42681,12218
42799,12100
42803,12096
42805,12090
42805,12086
42805,10905
42804,10900
42802,10894
42799,10891
42681,10773
42677,10770
42672,10768
42667,10767
41258,10767
41152,10661
41152,5748
41151,5742
41148,5737
41146,5734
41028,5616
41023,5612
41018,5610
41014,5610
38778,5610
38701,5533
38701,3821
38723,3599
38786,3387
38890,3192
39030,3021
39200,2880
39394,2775
39605,2710
39827,2687
39833,2687
49303,2687
49380,2764
" /> 
<polyline style="fill-rule:evenodd;"
points="2870,21220
2872,21224
2873,21228
2874,21229
2983,21431
2986,21435
2988,21439
2989,21439
3136,21617
3139,21620
3142,21623
3143,21624
3321,21769
3325,21772
3329,21774
3329,21775
3533,21883
3537,21885
3541,21886
3542,21887
3616,21909
2951,21909
2844,21802
2844,21137
2870,21220
" /> 
<polyline style="fill-rule:evenodd;"
points="33907,21802
33801,21909
33136,21909
33218,21883
33222,21882
33227,21880
33227,21880
33430,21770
33434,21768
33437,21765
33438,21765
33615,21618
33619,21615
33622,21611
33622,21611
33768,21432
33770,21429
33773,21425
33773,21424
33881,21221
33883,21217
33885,21212
33885,21212
33907,21138
33907,21802
" /> 
<polyline style="fill-rule:evenodd;"
points="6073,2764
6073,3779
6074,3785
6076,3790
6079,3793
6197,3911
6201,3914
6206,3916
6211,3917
8888,3917
8893,3916
8898,3914
8902,3911
9020,3793
9023,3789
9025,3783
9026,3779
9026,2764
9103,2687
20169,2687
20246,2764
20246,3779
20247,3785
20249,3790
20252,3793
20370,3911
20374,3914
20380,3916
20384,3917
23061,3917
23066,3916
23072,3914
23075,3911
23193,3793
23196,3789
23198,3783
23199,3779
23199,2764
23276,2687
32744,2687
32966,2708
33177,2772
33372,2876
33543,3015
33684,3186
33789,3380
33855,3591
33878,3813
33878,3818
33878,10730
33801,10807
32864,10807
32859,10807
32854,10810
32850,10812
32732,10930
32729,10935
32727,10940
32726,10944
32726,13622
32727,13627
32729,13632
32732,13635
32850,13754
32855,13757
32860,13759
32864,13759
33801,13759
33878,13836
33878,20745
33856,20967
33792,21179
33689,21374
33549,21545
33379,21686
33185,21791
32974,21856
32752,21879
32746,21879
23276,21879
23199,21802
23199,20787
23198,20781
23196,20776
23193,20773
23075,20655
23070,20652
23065,20650
23061,20649
20384,20649
20378,20650
20373,20652
20370,20655
20252,20773
20248,20777
20247,20783
20246,20787
20246,21802
20169,21879
9103,21879
9026,21802
9026,20787
9025,20781
9023,20776
9020,20773
8902,20655
8897,20652
8892,20650
8888,20649
6211,20649
6205,20650
6200,20652
6197,20655
6079,20773
6075,20777
6073,20783
6073,20787
6073,21802
5996,21879
4008,21879
3786,21858
3575,21794
3380,21690
3208,21551
3068,21380
2963,21186
2897,20975
2874,20753
2874,20747
2874,3821
2896,3599
2960,3387
3063,3192
3203,3021
3373,2880
3567,2775
3778,2710
4000,2687
4006,2687
5996,2687
6073,2764
" /> 
<polyline style="fill-rule:evenodd;"
points="33907,2764
33907,3429
33882,3346
33880,3342
33878,3338
33878,3337
33768,3135
33766,3131
33764,3127
33763,3127
33616,2949
33613,2946
33610,2943
33609,2942
33431,2796
33427,2794
33423,2792
33423,2791
33219,2683
33215,2681
33211,2680
33210,2679
33136,2657
33801,2657
33907,2764
" /> 
<polyline style="fill-rule:evenodd;"
points="3534,2683
3530,2684
3525,2686
3525,2686
3322,2796
3318,2798
3315,2801
3314,2801
3136,2948
3133,2951
3130,2955
3130,2955
2984,3134
2982,3137
2979,3141
2979,3142
2870,3345
2869,3349
2867,3353
2867,3354
2844,3428
2844,2764
2951,2657
3616,2657
3534,2683
" /> 
<polyline style="fill-rule:evenodd;"
points="45089,9338
45089,15236
45089,15241
45092,15246
45094,15250
45212,15368
45217,15371
45222,15373
45226,15374
48328,15374
48435,15480
48435,16094
48328,16200
44211,16200
44104,16094
44104,9338
44211,9232
44982,9232
45089,9338
" /> 
<polyline style="fill-rule:evenodd;"
points="40718,6149
40718,10984
40719,10989
40722,10994
40724,10998
40842,11116
40847,11119
40852,11121
40856,11122
42265,11122
42372,11228
42372,11684
42265,11791
40856,11791
40851,11792
40846,11794
40842,11797
40724,11915
40721,11919
40719,11924
40718,11929
40718,18653
40612,18759
38778,18759
38701,18682
38701,17498
38778,17421
40069,17421
40074,17420
40079,17418
40083,17415
40201,17297
40204,17292
40206,17287
40207,17283
40207,6771
40206,6766
40204,6761
40201,6757
40083,6639
40078,6636
40073,6634
40069,6633
38778,6633
38701,6556
38701,6199
38778,6122
39990,6122
39996,6121
40001,6118
40004,6116
40077,6043
40612,6043
40718,6149
" /> 
<polyline style="fill-rule:evenodd;"
points="66545,4063
66545,6811
66546,6816
66548,6821
66551,6824
66669,6943
66674,6946
66679,6948
66683,6948
66714,6948
66813,7047
66714,7145
65668,7145
65561,7039
65561,4063
65668,3956
66439,3956
66545,4063
" /> 
<polyline style="fill-rule:evenodd;"
points="43671,13866
43671,16496
43672,16501
43674,16506
43677,16509
43795,16628
43800,16631
43805,16633
43809,16633
48573,16633
48578,16633
48583,16630
48587,16628
48705,16509
48708,16505
48710,16500
48711,16496
48711,15480
48817,15374
49431,15374
49537,15480
49537,17078
49431,17185
42951,17185
42844,17078
42844,13866
42951,13759
43565,13759
43671,13866
" /> 
<polyline style="fill-rule:evenodd;"
points="69537,13275
69537,14046
69431,14153
65156,14153
65049,14046
65049,13275
65156,13169
69431,13169
69537,13275
" /> 
<polyline style="fill-rule:evenodd;"
points="69705,14663
69705,15178
69628,15255
64833,15255
64827,15256
64822,15258
64819,15261
64701,15379
64697,15384
64695,15389
64695,15393
64695,18850
64588,18956
63975,18956
63868,18850
63868,14693
63975,14586
69628,14586
69705,14663
" /> 
<polyline style="fill-rule:evenodd;"
points="69705,16632
69705,17934
69628,18011
68620,18011
68514,17905
68514,16661
68620,16555
69628,16555
69705,16632
" /> 
<polyline style="fill-rule:evenodd;"
points="39774,13866
39774,16881
39667,16988
38778,16988
38701,16911
38701,13836
38778,13759
39667,13759
39774,13866
" /> 
</g>
<g style="fill:#FFFFFF; fill-opacity:1.0; 
stroke:#FFFFFF; stroke-width:39.3701; stroke-opacity:1; 
stroke-linecap:round; stroke-linejoin:round;">
</g>
<g style="fill:#FFFFFF; fill-opacity:1.0; 
stroke:#FFFFFF; stroke-width:0; stroke-opacity:1; 
stroke-linecap:round; stroke-linejoin:round;">
<circle cx="50659.9" cy="4881.89" r="196.85" /> 
</g>
<g style="fill:#FFFFFF; fill-opacity:1.0; 
stroke:#FFFFFF; stroke-width:39.3701; stroke-opacity:1; 
stroke-linecap:round; stroke-linejoin:round;">
</g>
<g style="fill:#FFFFFF; fill-opacity:1.0; 
stroke:#FFFFFF; stroke-width:0; stroke-opacity:1; 
stroke-linecap:round; stroke-linejoin:round;">
<circle cx="60620.5" cy="7874.02" r="196.85" /> 
</g>
<g style="fill:#FFFFFF; fill-opacity:1.0; 
stroke:#FFFFFF; stroke-width:39.3701; stroke-opacity:1; 
stroke-linecap:round; stroke-linejoin:round;">
</g>
<g style="fill:#FFFFFF; fill-opacity:1.0; 
stroke:#FFFFFF; stroke-width:0; stroke-opacity:1; 
stroke-linecap:round; stroke-linejoin:round;">
<circle cx="51486.7" cy="15787.4" r="196.85" /> 
</g>
<g style="fill:#FFFFFF; fill-opacity:1.0; 
stroke:#FFFFFF; stroke-width:39.3701; stroke-opacity:1; 
stroke-linecap:round; stroke-linejoin:round;">
</g>
<g style="fill:#FFFFFF; fill-opacity:1.0; 
stroke:#FFFFFF; stroke-width:0; stroke-opacity:1; 
stroke-linecap:round; stroke-linejoin:round;">
<circle cx="67077.2" cy="18543.3" r="196.85" /> 
</g>
<g style="fill:#FFFFFF; fill-opacity:1.0; 
stroke:#FFFFFF; stroke-width:39.3701; stroke-opacity:1; 
stroke-linecap:round; stroke-linejoin:round;">
</g>
<g style="fill:#FFFFFF; fill-opacity:1.0; 
stroke:#FFFFFF; stroke-width:0; stroke-opacity:1; 
stroke-linecap:round; stroke-linejoin:round;">
<circle cx="42037.9" cy="10511.8" r="196.85" /> 
</g>
<g style="fill:#FFFFFF; fill-opacity:1.0; 
stroke:#FFFFFF; stroke-width:39.3701; stroke-opacity:1; 
stroke-linecap:round; stroke-linejoin:round;">
</g>
<g style="fill:#FFFFFF; fill-opacity:1.0; 
stroke:#FFFFFF; stroke-width:0; stroke-opacity:1; 
stroke-linecap:round; stroke-linejoin:round;">
<circle cx="66053.6" cy="4448.82" r="196.85" /> 
</g>
<g style="fill:#FFFFFF; fill-opacity:1.0; 
stroke:#FFFFFF; stroke-width:39.3701; stroke-opacity:1; 
stroke-linecap:round; stroke-linejoin:round;">
</g>
<g style="fill:#FFFFFF; fill-opacity:1.0; 
stroke:#FFFFFF; stroke-width:0; stroke-opacity:1; 
stroke-linecap:round; stroke-linejoin:round;">
<circle cx="69124.5" cy="13661.4" r="196.85" /> 
</g>
<g style="fill:#FFFFFF; fill-opacity:1.0; 
stroke:#FFFFFF; stroke-width:39.3701; stroke-opacity:1; 
stroke-linecap:round; stroke-linejoin:round;">
</g>
<g style="fill:#FFFFFF; fill-opacity:1.0; 
stroke:#FFFFFF; stroke-width:0; stroke-opacity:1; 
stroke-linecap:round; stroke-linejoin:round;">
<circle cx="64282" cy="18543.3" r="196.85" /> 
</g>
<g style="fill:#FFFFFF; fill-opacity:1.0; 
stroke:#FFFFFF; stroke-width:39.3701; stroke-opacity:1; 
stroke-linecap:round; stroke-linejoin:round;">
</g>
<g style="fill:#FFFFFF; fill-opacity:1.0; 
stroke:#FFFFFF; stroke-width:0; stroke-opacity:1; 
stroke-linecap:round; stroke-linejoin:round;">
<circle cx="42037.9" cy="11456.7" r="196.85" /> 
</g>
<g style="fill:#FFFFFF; fill-opacity:1.0; 
stroke:#FFFFFF; stroke-width:39.3701; stroke-opacity:1; 
stroke-linecap:round; stroke-linejoin:round;">
</g>
<g style="fill:#FFFFFF; fill-opacity:1.0; 
stroke:#FFFFFF; stroke-width:0; stroke-opacity:1; 
stroke-linecap:round; stroke-linejoin:round;">
<circle cx="40384.3" cy="6377.95" r="196.85" /> 
</g>
<g style="fill:#FFFFFF; fill-opacity:1.0; 
stroke:#FFFFFF; stroke-width:39.3701; stroke-opacity:1; 
stroke-linecap:round; stroke-linejoin:round;">
</g>
<g style="fill:#FFFFFF; fill-opacity:1.0; 
stroke:#FFFFFF; stroke-width:0; stroke-opacity:1; 
stroke-linecap:round; stroke-linejoin:round;">
<circle cx="48022.1" cy="15787.4" r="196.85" /> 
</g>
<g style="fill:#FFFFFF; fill-opacity:1.0; 
stroke:#FFFFFF; stroke-width:39.3701; stroke-opacity:1; 
stroke-linecap:round; stroke-linejoin:round;">
</g>
<g style="fill:#FFFFFF; fill-opacity:1.0; 
stroke:#FFFFFF; stroke-width:0; stroke-opacity:1; 
stroke-linecap:round; stroke-linejoin:round;">
<circle cx="44596.9" cy="9724.41" r="196.85" /> 
</g>
<g style="fill:#FFFFFF; fill-opacity:1.0; 
stroke:#FFFFFF; stroke-width:39.3701; stroke-opacity:1; 
stroke-linecap:round; stroke-linejoin:round;">
</g>
<g style="fill:#FFFFFF; fill-opacity:1.0; 
stroke:#FFFFFF; stroke-width:0; stroke-opacity:1; 
stroke-linecap:round; stroke-linejoin:round;">
<circle cx="49124.5" cy="15787.4" r="196.85" /> 
</g>
<g style="fill:#FFFFFF; fill-opacity:1.0; 
stroke:#FFFFFF; stroke-width:39.3701; stroke-opacity:1; 
stroke-linecap:round; stroke-linejoin:round;">
</g>
<g style="fill:#FFFFFF; fill-opacity:1.0; 
stroke:#FFFFFF; stroke-width:0; stroke-opacity:1; 
stroke-linecap:round; stroke-linejoin:round;">
<circle cx="43258.3" cy="15787.4" r="196.85" /> 
</g>
<g style="fill:#FFFFFF; fill-opacity:1.0; 
stroke:#FFFFFF; stroke-width:39.3701; stroke-opacity:1; 
stroke-linecap:round; stroke-linejoin:round;">
</g>
<g style="fill:#FFFFFF; fill-opacity:1.0; 
stroke:#FFFFFF; stroke-width:0; stroke-opacity:1; 
stroke-linecap:round; stroke-linejoin:round;">
<circle cx="6762.28" cy="21456.7" r="157.48" /> 
</g>
<g style="fill:#FFFFFF; fill-opacity:1.0; 
stroke:#FFFFFF; stroke-width:39.3701; stroke-opacity:1; 
stroke-linecap:round; stroke-linejoin:round;">
</g>
<g style="fill:#FFFFFF; fill-opacity:1.0; 
stroke:#FFFFFF; stroke-width:0; stroke-opacity:1; 
stroke-linecap:round; stroke-linejoin:round;">
<circle cx="7549.68" cy="21456.7" r="157.48" /> 
</g>
<g style="fill:#FFFFFF; fill-opacity:1.0; 
stroke:#FFFFFF; stroke-width:39.3701; stroke-opacity:1; 
stroke-linecap:round; stroke-linejoin:round;">
</g>
<g style="fill:#FFFFFF; fill-opacity:1.0; 
stroke:#FFFFFF; stroke-width:0; stroke-opacity:1; 
stroke-linecap:round; stroke-linejoin:round;">
<circle cx="8337.08" cy="21456.7" r="157.48" /> 
</g>
<g style="fill:#FFFFFF; fill-opacity:1.0; 
stroke:#FFFFFF; stroke-width:39.3701; stroke-opacity:1; 
stroke-linecap:round; stroke-linejoin:round;">
</g>
<g style="fill:#FFFFFF; fill-opacity:1.0; 
stroke:#FFFFFF; stroke-width:0; stroke-opacity:1; 
stroke-linecap:round; stroke-linejoin:round;">
<circle cx="64242.6" cy="21456.7" r="157.48" /> 
</g>
<g style="fill:#FFFFFF; fill-opacity:1.0; 
stroke:#FFFFFF; stroke-width:39.3701; stroke-opacity:1; 
stroke-linecap:round; stroke-linejoin:round;">
</g>
<g style="fill:#FFFFFF; fill-opacity:1.0; 
stroke:#FFFFFF; stroke-width:0; stroke-opacity:1; 
stroke-linecap:round; stroke-linejoin:round;">
<circle cx="65030" cy="21456.7" r="157.48" /> 
</g>
<g style="fill:#FFFFFF; fill-opacity:1.0; 
stroke:#FFFFFF; stroke-width:39.3701; stroke-opacity:1; 
stroke-linecap:round; stroke-linejoin:round;">
</g>
<g style="fill:#FFFFFF; fill-opacity:1.0; 
stroke:#FFFFFF; stroke-width:0; stroke-opacity:1; 
stroke-linecap:round; stroke-linejoin:round;">
<circle cx="65817.4" cy="21456.7" r="157.48" /> 
</g>
<g style="fill:#FFFFFF; fill-opacity:1.0; 
stroke:#FFFFFF; stroke-width:39.3701; stroke-opacity:1; 
stroke-linecap:round; stroke-linejoin:round;">
</g>
<g style="fill:#FFFFFF; fill-opacity:1.0; 
stroke:#FFFFFF; stroke-width:0; stroke-opacity:1; 
stroke-linecap:round; stroke-linejoin:round;">
<circle cx="6762.28" cy="3110.24" r="157.48" /> 
</g>
<g style="fill:#FFFFFF; fill-opacity:1.0; 
stroke:#FFFFFF; stroke-width:39.3701; stroke-opacity:1; 
stroke-linecap:round; stroke-linejoin:round;">
</g>
<g style="fill:#FFFFFF; fill-opacity:1.0; 
stroke:#FFFFFF; stroke-width:0; stroke-opacity:1; 
stroke-linecap:round; stroke-linejoin:round;">
<circle cx="7549.68" cy="3110.24" r="157.48" /> 
</g>
<g style="fill:#FFFFFF; fill-opacity:1.0; 
stroke:#FFFFFF; stroke-width:39.3701; stroke-opacity:1; 
stroke-linecap:round; stroke-linejoin:round;">
</g>
<g style="fill:#FFFFFF; fill-opacity:1.0; 
stroke:#FFFFFF; stroke-width:0; stroke-opacity:1; 
stroke-linecap:round; stroke-linejoin:round;">
<circle cx="8337.08" cy="3110.24" r="157.48" /> 
</g>
<g style="fill:#FFFFFF; fill-opacity:1.0; 
stroke:#FFFFFF; stroke-width:39.3701; stroke-opacity:1; 
stroke-linecap:round; stroke-linejoin:round;">
</g>
<g style="fill:#FFFFFF; fill-opacity:1.0; 
stroke:#FFFFFF; stroke-width:0; stroke-opacity:1; 
stroke-linecap:round; stroke-linejoin:round;">
<circle cx="51644.2" cy="3110.24" r="157.48" /> 
</g>
<g style="fill:#FFFFFF; fill-opacity:1.0; 
stroke:#FFFFFF; stroke-width:39.3701; stroke-opacity:1; 
stroke-linecap:round; stroke-linejoin:round;">
</g>
<g style="fill:#FFFFFF; fill-opacity:1.0; 
stroke:#FFFFFF; stroke-width:0; stroke-opacity:1; 
stroke-linecap:round; stroke-linejoin:round;">
<circle cx="50856.8" cy="3110.24" r="157.48" /> 
</g>
<g style="fill:#FFFFFF; fill-opacity:1.0; 
stroke:#FFFFFF; stroke-width:39.3701; stroke-opacity:1; 
stroke-linecap:round; stroke-linejoin:round;">
</g>
<g style="fill:#FFFFFF; fill-opacity:1.0; 
stroke:#FFFFFF; stroke-width:0; stroke-opacity:1; 
stroke-linecap:round; stroke-linejoin:round;">
<circle cx="50069.4" cy="3110.24" r="157.48" /> 
</g>
<g style="fill:#FFFFFF; fill-opacity:1.0; 
stroke:#FFFFFF; stroke-width:39.3701; stroke-opacity:1; 
stroke-linecap:round; stroke-linejoin:round;">
</g>
<g style="fill:#FFFFFF; fill-opacity:1.0; 
stroke:#FFFFFF; stroke-width:0; stroke-opacity:1; 
stroke-linecap:round; stroke-linejoin:round;">
<circle cx="39045.7" cy="7952.76" r="157.48" /> 
</g>
<g style="fill:#FFFFFF; fill-opacity:1.0; 
stroke:#FFFFFF; stroke-width:39.3701; stroke-opacity:1; 
stroke-linecap:round; stroke-linejoin:round;">
</g>
<g style="fill:#FFFFFF; fill-opacity:1.0; 
stroke:#FFFFFF; stroke-width:0; stroke-opacity:1; 
stroke-linecap:round; stroke-linejoin:round;">
<circle cx="39045.7" cy="7165.35" r="157.48" /> 
</g>
<g style="fill:#FFFFFF; fill-opacity:1.0; 
stroke:#FFFFFF; stroke-width:39.3701; stroke-opacity:1; 
stroke-linecap:round; stroke-linejoin:round;">
</g>
<g style="fill:#FFFFFF; fill-opacity:1.0; 
stroke:#FFFFFF; stroke-width:0; stroke-opacity:1; 
stroke-linecap:round; stroke-linejoin:round;">
<circle cx="39045.7" cy="6377.95" r="157.48" /> 
</g>
<g style="fill:#FFFFFF; fill-opacity:1.0; 
stroke:#FFFFFF; stroke-width:39.3701; stroke-opacity:1; 
stroke-linecap:round; stroke-linejoin:round;">
</g>
<g style="fill:#FFFFFF; fill-opacity:1.0; 
stroke:#FFFFFF; stroke-width:0; stroke-opacity:1; 
stroke-linecap:round; stroke-linejoin:round;">
<circle cx="39045.7" cy="8937.01" r="157.48" /> 
</g>
<g style="fill:#FFFFFF; fill-opacity:1.0; 
stroke:#FFFFFF; stroke-width:39.3701; stroke-opacity:1; 
stroke-linecap:round; stroke-linejoin:round;">
</g>
<g style="fill:#FFFFFF; fill-opacity:1.0; 
stroke:#FFFFFF; stroke-width:0; stroke-opacity:1; 
stroke-linecap:round; stroke-linejoin:round;">
<circle cx="39045.7" cy="9724.41" r="157.48" /> 
</g>
<g style="fill:#FFFFFF; fill-opacity:1.0; 
stroke:#FFFFFF; stroke-width:39.3701; stroke-opacity:1; 
stroke-linecap:round; stroke-linejoin:round;">
</g>
<g style="fill:#FFFFFF; fill-opacity:1.0; 
stroke:#FFFFFF; stroke-width:0; stroke-opacity:1; 
stroke-linecap:round; stroke-linejoin:round;">
<circle cx="39045.7" cy="10511.8" r="157.48" /> 
</g>
<g style="fill:#FFFFFF; fill-opacity:1.0; 
stroke:#FFFFFF; stroke-width:39.3701; stroke-opacity:1; 
stroke-linecap:round; stroke-linejoin:round;">
</g>
<g style="fill:#FFFFFF; fill-opacity:1.0; 
stroke:#FFFFFF; stroke-width:0; stroke-opacity:1; 
stroke-linecap:round; stroke-linejoin:round;">
<circle cx="65817.4" cy="3110.24" r="157.48" /> 
</g>
<g style="fill:#FFFFFF; fill-opacity:1.0; 
stroke:#FFFFFF; stroke-width:39.3701; stroke-opacity:1; 
stroke-linecap:round; stroke-linejoin:round;">
</g>
<g style="fill:#FFFFFF; fill-opacity:1.0; 
stroke:#FFFFFF; stroke-width:0; stroke-opacity:1; 
stroke-linecap:round; stroke-linejoin:round;">
<circle cx="65030" cy="3110.24" r="157.48" /> 
</g>
<g style="fill:#FFFFFF; fill-opacity:1.0; 
stroke:#FFFFFF; stroke-width:39.3701; stroke-opacity:1; 
stroke-linecap:round; stroke-linejoin:round;">
</g>
<g style="fill:#FFFFFF; fill-opacity:1.0; 
stroke:#FFFFFF; stroke-width:0; stroke-opacity:1; 
stroke-linecap:round; stroke-linejoin:round;">
<circle cx="64242.6" cy="3110.24" r="157.48" /> 
</g>
<g style="fill:#FFFFFF; fill-opacity:1.0; 
stroke:#FFFFFF; stroke-width:39.3701; stroke-opacity:1; 
stroke-linecap:round; stroke-linejoin:round;">
</g>
<g style="fill:#FFFFFF; fill-opacity:1.0; 
stroke:#FFFFFF; stroke-width:0; stroke-opacity:1; 
stroke-linecap:round; stroke-linejoin:round;">
<circle cx="20935.5" cy="3110.24" r="157.48" /> 
</g>
<g style="fill:#FFFFFF; fill-opacity:1.0; 
stroke:#FFFFFF; stroke-width:39.3701; stroke-opacity:1; 
stroke-linecap:round; stroke-linejoin:round;">
</g>
<g style="fill:#FFFFFF; fill-opacity:1.0; 
stroke:#FFFFFF; stroke-width:0; stroke-opacity:1; 
stroke-linecap:round; stroke-linejoin:round;">
<circle cx="21722.9" cy="3110.24" r="157.48" /> 
</g>
<g style="fill:#FFFFFF; fill-opacity:1.0; 
stroke:#FFFFFF; stroke-width:39.3701; stroke-opacity:1; 
stroke-linecap:round; stroke-linejoin:round;">
</g>
<g style="fill:#FFFFFF; fill-opacity:1.0; 
stroke:#FFFFFF; stroke-width:0; stroke-opacity:1; 
stroke-linecap:round; stroke-linejoin:round;">
<circle cx="22510.3" cy="3110.24" r="157.48" /> 
</g>
<g style="fill:#FFFFFF; fill-opacity:1.0; 
stroke:#FFFFFF; stroke-width:39.3701; stroke-opacity:1; 
stroke-linecap:round; stroke-linejoin:round;">
</g>
<g style="fill:#FFFFFF; fill-opacity:1.0; 
stroke:#FFFFFF; stroke-width:0; stroke-opacity:1; 
stroke-linecap:round; stroke-linejoin:round;">
<circle cx="50069.4" cy="21456.7" r="157.48" /> 
</g>
<g style="fill:#FFFFFF; fill-opacity:1.0; 
stroke:#FFFFFF; stroke-width:39.3701; stroke-opacity:1; 
stroke-linecap:round; stroke-linejoin:round;">
</g>
<g style="fill:#FFFFFF; fill-opacity:1.0; 
stroke:#FFFFFF; stroke-width:0; stroke-opacity:1; 
stroke-linecap:round; stroke-linejoin:round;">
<circle cx="50856.8" cy="21456.7" r="157.48" /> 
</g>
<g style="fill:#FFFFFF; fill-opacity:1.0; 
stroke:#FFFFFF; stroke-width:39.3701; stroke-opacity:1; 
stroke-linecap:round; stroke-linejoin:round;">
</g>
<g style="fill:#FFFFFF; fill-opacity:1.0; 
stroke:#FFFFFF; stroke-width:0; stroke-opacity:1; 
stroke-linecap:round; stroke-linejoin:round;">
<circle cx="51644.2" cy="21456.7" r="157.48" /> 
</g>
<g style="fill:#FFFFFF; fill-opacity:1.0; 
stroke:#FFFFFF; stroke-width:39.3701; stroke-opacity:1; 
stroke-linecap:round; stroke-linejoin:round;">
</g>
<g style="fill:#FFFFFF; fill-opacity:1.0; 
stroke:#FFFFFF; stroke-width:0; stroke-opacity:1; 
stroke-linecap:round; stroke-linejoin:round;">
<circle cx="20935.5" cy="21456.7" r="157.48" /> 
</g>
<g style="fill:#FFFFFF; fill-opacity:1.0; 
stroke:#FFFFFF; stroke-width:39.3701; stroke-opacity:1; 
stroke-linecap:round; stroke-linejoin:round;">
</g>
<g style="fill:#FFFFFF; fill-opacity:1.0; 
stroke:#FFFFFF; stroke-width:0; stroke-opacity:1; 
stroke-linecap:round; stroke-linejoin:round;">
<circle cx="21722.9" cy="21456.7" r="157.48" /> 
</g>
<g style="fill:#FFFFFF; fill-opacity:1.0; 
stroke:#FFFFFF; stroke-width:39.3701; stroke-opacity:1; 
stroke-linecap:round; stroke-linejoin:round;">
</g>
<g style="fill:#FFFFFF; fill-opacity:1.0; 
stroke:#FFFFFF; stroke-width:0; stroke-opacity:1; 
stroke-linecap:round; stroke-linejoin:round;">
<circle cx="22510.3" cy="21456.7" r="157.48" /> 
</g>
<g style="fill:#FFFFFF; fill-opacity:1.0; 
stroke:#FFFFFF; stroke-width:39.3701; stroke-opacity:1; 
stroke-linecap:round; stroke-linejoin:round;">
</g>
<g style="fill:#FFFFFF; fill-opacity:1.0; 
stroke:#FFFFFF; stroke-width:0; stroke-opacity:1; 
stroke-linecap:round; stroke-linejoin:round;">
<circle cx="39045.7" cy="13070.9" r="157.48" /> 
</g>
<g style="fill:#FFFFFF; fill-opacity:1.0; 
stroke:#FFFFFF; stroke-width:39.3701; stroke-opacity:1; 
stroke-linecap:round; stroke-linejoin:round;">
</g>
<g style="fill:#FFFFFF; fill-opacity:1.0; 
stroke:#FFFFFF; stroke-width:0; stroke-opacity:1; 
stroke-linecap:round; stroke-linejoin:round;">
<circle cx="39045.7" cy="12283.5" r="157.48" /> 
</g>
<g style="fill:#FFFFFF; fill-opacity:1.0; 
stroke:#FFFFFF; stroke-width:39.3701; stroke-opacity:1; 
stroke-linecap:round; stroke-linejoin:round;">
</g>
<g style="fill:#FFFFFF; fill-opacity:1.0; 
stroke:#FFFFFF; stroke-width:0; stroke-opacity:1; 
stroke-linecap:round; stroke-linejoin:round;">
<circle cx="39045.7" cy="11496.1" r="157.48" /> 
</g>
<g style="fill:#FFFFFF; fill-opacity:1.0; 
stroke:#FFFFFF; stroke-width:39.3701; stroke-opacity:1; 
stroke-linecap:round; stroke-linejoin:round;">
</g>
<g style="fill:#FFFFFF; fill-opacity:1.0; 
stroke:#FFFFFF; stroke-width:0; stroke-opacity:1; 
stroke-linecap:round; stroke-linejoin:round;">
<circle cx="33533.9" cy="11496.1" r="157.48" /> 
</g>
<g style="fill:#FFFFFF; fill-opacity:1.0; 
stroke:#FFFFFF; stroke-width:39.3701; stroke-opacity:1; 
stroke-linecap:round; stroke-linejoin:round;">
</g>
<g style="fill:#FFFFFF; fill-opacity:1.0; 
stroke:#FFFFFF; stroke-width:0; stroke-opacity:1; 
stroke-linecap:round; stroke-linejoin:round;">
<circle cx="33533.9" cy="12283.5" r="157.48" /> 
</g>
<g style="fill:#FFFFFF; fill-opacity:1.0; 
stroke:#FFFFFF; stroke-width:39.3701; stroke-opacity:1; 
stroke-linecap:round; stroke-linejoin:round;">
</g>
<g style="fill:#FFFFFF; fill-opacity:1.0; 
stroke:#FFFFFF; stroke-width:0; stroke-opacity:1; 
stroke-linecap:round; stroke-linejoin:round;">
<circle cx="33533.9" cy="13070.9" r="157.48" /> 
</g>
<g style="fill:#FFFFFF; fill-opacity:1.0; 
stroke:#FFFFFF; stroke-width:39.3701; stroke-opacity:1; 
stroke-linecap:round; stroke-linejoin:round;">
</g>
<g style="fill:#FFFFFF; fill-opacity:1.0; 
stroke:#FFFFFF; stroke-width:0; stroke-opacity:1; 
stroke-linecap:round; stroke-linejoin:round;">
<circle cx="69006.4" cy="14921.3" r="196.85" /> 
</g>
<g style="fill:#FFFFFF; fill-opacity:1.0; 
stroke:#FFFFFF; stroke-width:39.3701; stroke-opacity:1; 
stroke-linecap:round; stroke-linejoin:round;">
</g>
<g style="fill:#FFFFFF; fill-opacity:1.0; 
stroke:#FFFFFF; stroke-width:0; stroke-opacity:1; 
stroke-linecap:round; stroke-linejoin:round;">
<circle cx="69006.4" cy="17283.5" r="196.85" /> 
</g>
<g style="fill:#FFFFFF; fill-opacity:1.0; 
stroke:#FFFFFF; stroke-width:39.3701; stroke-opacity:1; 
stroke-linecap:round; stroke-linejoin:round;">
</g>
<g style="fill:#FFFFFF; fill-opacity:1.0; 
stroke:#FFFFFF; stroke-width:0; stroke-opacity:1; 
stroke-linecap:round; stroke-linejoin:round;">
<circle cx="39400.1" cy="16023.6" r="196.85" /> 
</g>
<g style="fill:#FFFFFF; fill-opacity:1.0; 
stroke:#FFFFFF; stroke-width:39.3701; stroke-opacity:1; 
stroke-linecap:round; stroke-linejoin:round;">
</g>
<g style="fill:#FFFFFF; fill-opacity:1.0; 
stroke:#FFFFFF; stroke-width:0; stroke-opacity:1; 
stroke-linecap:round; stroke-linejoin:round;">
<circle cx="39400.1" cy="18385.8" r="196.85" /> 
</g>
<g style="fill:#FFFFFF; fill-opacity:1.0; 
stroke:#FFFFFF; stroke-width:39.3701; stroke-opacity:1; 
stroke-linecap:round; stroke-linejoin:round;">
</g>
<g style="fill:#000000; fill-opacity:1.0; 
stroke:#000000; stroke-width:39.3701; stroke-opacity:1; 
stroke-linecap:round; stroke-linejoin:round;">
</g> 
</svg>
