<?xml version="1.0" standalone="no"?>
 <!DOCTYPE svg PUBLIC "-//W3C//DTD SVG 1.1//EN" 
 "http://www.w3.org/Graphics/SVG/1.1/DTD/svg11.dtd"> 
<svg xmlns="http://www.w3.org/2000/svg" version="1.1" 
    width="18.0442cm" height="6.35cm" viewBox="0 0 71040 25000 ">
<title>SVG Picture created as modular_eside_rev4-F.Cu.svg date 2017/04/16 13:51:36 </title>
  <desc>Picture generated by PCBNEW </desc>
<g style="fill:#000000; fill-opacity:1;stroke:#000000; stroke-opacity:1;
stroke-linecap:round; stroke-linejoin:round; "
 transform="translate(0 0) scale(1 1)">
</g>
<g style="fill:#000000; fill-opacity:0.0; 
stroke:#000000; stroke-width:-0.000393701; stroke-opacity:1; 
stroke-linecap:round; stroke-linejoin:round;">
</g>
<g style="fill:#000000; fill-opacity:0.0; 
stroke:#000000; stroke-width:0; stroke-opacity:1; 
stroke-linecap:round; stroke-linejoin:round;">
</g>
<g style="fill:#000000; fill-opacity:1.0; 
stroke:#000000; stroke-width:0; stroke-opacity:1; 
stroke-linecap:round; stroke-linejoin:round;">
<polyline style="fill-rule:evenodd;"
points="44931,16181
45443,16181
45443,16456
44931,16456
44931,16181
" /> 
<polyline style="fill-rule:evenodd;"
points="44931,15433
45443,15433
45443,15708
44931,15708
44931,15433
" /> 
<polyline style="fill-rule:evenodd;"
points="47667,18110
47982,18110
47982,18425
47667,18425
47667,18110
" /> 
<polyline style="fill-rule:evenodd;"
points="47667,17480
47982,17480
47982,17795
47667,17795
47667,17480
" /> 
<polyline style="fill-rule:evenodd;"
points="46880,17480
47195,17480
47195,17795
46880,17795
46880,17480
" /> 
<polyline style="fill-rule:evenodd;"
points="46880,18110
47195,18110
47195,18425
46880,18425
46880,18110
" /> 
<polyline style="fill-rule:evenodd;"
points="46092,18110
46407,18110
46407,18425
46092,18425
46092,18110
" /> 
<polyline style="fill-rule:evenodd;"
points="46092,17480
46407,17480
46407,17795
46092,17795
46092,17480
" /> 
<polyline style="fill-rule:evenodd;"
points="45305,17480
45620,17480
45620,17795
45305,17795
45305,17480
" /> 
<polyline style="fill-rule:evenodd;"
points="45305,18110
45620,18110
45620,18425
45305,18425
45305,18110
" /> 
<polyline style="fill-rule:evenodd;"
points="44518,18110
44833,18110
44833,18425
44518,18425
44518,18110
" /> 
<polyline style="fill-rule:evenodd;"
points="44518,17480
44833,17480
44833,17795
44518,17795
44518,17480
" /> 
<polyline style="fill-rule:evenodd;"
points="53730,6062
53100,6062
53100,5669
53730,5669
53730,6062
" /> 
<polyline style="fill-rule:evenodd;"
points="53730,7244
53100,7244
53100,6850
53730,6850
53730,7244
" /> 
<polyline style="fill-rule:evenodd;"
points="55305,6062
54675,6062
54675,5669
55305,5669
55305,6062
" /> 
<polyline style="fill-rule:evenodd;"
points="55305,7244
54675,7244
54675,6850
55305,6850
55305,7244
" /> 
<polyline style="fill-rule:evenodd;"
points="46073,16141
46270,16141
46270,16456
46073,16456
46073,16141
" /> 
<polyline style="fill-rule:evenodd;"
points="46407,16141
46565,16141
46565,16456
46407,16456
46407,16141
" /> 
<polyline style="fill-rule:evenodd;"
points="47018,16141
47215,16141
47215,16456
47018,16456
47018,16141
" /> 
<polyline style="fill-rule:evenodd;"
points="46722,16141
46880,16141
46880,16456
46722,16456
46722,16141
" /> 
<polyline style="fill-rule:evenodd;"
points="46073,15433
46270,15433
46270,15748
46073,15748
46073,15433
" /> 
<polyline style="fill-rule:evenodd;"
points="46722,15433
46880,15433
46880,15748
46722,15748
46722,15433
" /> 
<polyline style="fill-rule:evenodd;"
points="46407,15433
46565,15433
46565,15748
46407,15748
46407,15433
" /> 
<polyline style="fill-rule:evenodd;"
points="47018,15433
47215,15433
47215,15748
47018,15748
47018,15433
" /> 
<polyline style="fill-rule:evenodd;"
points="6496,21062
7028,21062
7028,21850
6496,21850
6496,21062
" /> 
<polyline style="fill-rule:evenodd;"
points="7283,21062
7815,21062
7815,21850
7283,21850
7283,21062
" /> 
<polyline style="fill-rule:evenodd;"
points="8071,21062
8602,21062
8602,21850
8071,21850
8071,21062
" /> 
<polyline style="fill-rule:evenodd;"
points="64508,21850
63976,21850
63976,21062
64508,21062
64508,21850
" /> 
<polyline style="fill-rule:evenodd;"
points="65295,21850
64764,21850
64764,21062
65295,21062
65295,21850
" /> 
<polyline style="fill-rule:evenodd;"
points="66083,21850
65551,21850
65551,21062
66083,21062
66083,21850
" /> 
<polyline style="fill-rule:evenodd;"
points="6496,2716
7028,2716
7028,3503
6496,3503
6496,2716
" /> 
<polyline style="fill-rule:evenodd;"
points="7283,2716
7815,2716
7815,3503
7283,3503
7283,2716
" /> 
<polyline style="fill-rule:evenodd;"
points="8071,2716
8602,2716
8602,3503
8071,3503
8071,2716
" /> 
<polyline style="fill-rule:evenodd;"
points="51378,2716
51909,2716
51909,3503
51378,3503
51378,2716
" /> 
<polyline style="fill-rule:evenodd;"
points="50591,2716
51122,2716
51122,3503
50591,3503
50591,2716
" /> 
<polyline style="fill-rule:evenodd;"
points="49803,2716
50335,2716
50335,3503
49803,3503
49803,2716
" /> 
<polyline style="fill-rule:evenodd;"
points="65778,19940
65778,19350
66368,19350
66368,19940
65778,19940
" /> 
<polyline style="fill-rule:evenodd;"
points="64478,19940
64478,19350
65069,19350
65069,19940
64478,19940
" /> 
<polyline style="fill-rule:evenodd;"
points="59646,6259
59154,6259
59154,5866
59646,5866
59646,6259
" /> 
<polyline style="fill-rule:evenodd;"
points="59646,5472
59154,5472
59154,5078
59646,5078
59646,5472
" /> 
<polyline style="fill-rule:evenodd;"
points="63258,7627
63258,8120
62864,8120
62864,7627
63258,7627
" /> 
<polyline style="fill-rule:evenodd;"
points="64045,7627
64045,8120
63652,8120
63652,7627
64045,7627
" /> 
<polyline style="fill-rule:evenodd;"
points="65108,18592
65108,18100
65502,18100
65502,18592
65108,18592
" /> 
<polyline style="fill-rule:evenodd;"
points="65896,18592
65896,18100
66289,18100
66289,18592
65896,18592
" /> 
<polyline style="fill-rule:evenodd;"
points="50846,12007
51339,12007
51339,12401
50846,12401
50846,12007
" /> 
<polyline style="fill-rule:evenodd;"
points="50846,12795
51339,12795
51339,13188
50846,13188
50846,12795
" /> 
<polyline style="fill-rule:evenodd;"
points="43770,10757
43770,10265
44163,10265
44163,10757
43770,10757
" /> 
<polyline style="fill-rule:evenodd;"
points="42982,10757
42982,10265
43376,10265
43376,10757
42982,10757
" /> 
<polyline style="fill-rule:evenodd;"
points="62008,6181
62008,5718
62470,5718
62470,6181
62008,6181
" /> 
<polyline style="fill-rule:evenodd;"
points="62008,6643
62008,6181
62470,6181
62470,6643
62008,6643
" /> 
<polyline style="fill-rule:evenodd;"
points="62470,6181
62470,5718
62933,5718
62933,6181
62470,6181
" /> 
<polyline style="fill-rule:evenodd;"
points="62470,6643
62470,6181
62933,6181
62933,6643
62470,6643
" /> 
<polyline style="fill-rule:evenodd;"
points="63228,5549
63228,5312
63839,5312
63839,5549
63228,5549
" /> 
<polyline style="fill-rule:evenodd;"
points="63228,6049
63228,5812
63839,5812
63839,6049
63228,6049
" /> 
<polyline style="fill-rule:evenodd;"
points="63228,6549
63228,6312
63839,6312
63839,6549
63228,6549
" /> 
<polyline style="fill-rule:evenodd;"
points="63228,7049
63228,6812
63839,6812
63839,7049
63228,7049
" /> 
<polyline style="fill-rule:evenodd;"
points="61102,7049
61102,6812
61713,6812
61713,7049
61102,7049
" /> 
<polyline style="fill-rule:evenodd;"
points="61102,6549
61102,6312
61713,6312
61713,6549
61102,6549
" /> 
<polyline style="fill-rule:evenodd;"
points="61102,6049
61102,5812
61713,5812
61713,6049
61102,6049
" /> 
<polyline style="fill-rule:evenodd;"
points="61102,5549
61102,5312
61713,5312
61713,5549
61102,5549
" /> 
<polyline style="fill-rule:evenodd;"
points="43967,11791
43967,11122
44321,11122
44321,11791
43967,11791
" /> 
<polyline style="fill-rule:evenodd;"
points="42825,11791
42825,11122
43179,11122
43179,11791
42825,11791
" /> 
<polyline style="fill-rule:evenodd;"
points="63455,19389
63455,19901
63179,19901
63179,19389
63455,19389
" /> 
<polyline style="fill-rule:evenodd;"
points="62707,19389
62707,19901
62431,19901
62431,19389
62707,19389
" /> 
<polyline style="fill-rule:evenodd;"
points="67352,15177
67352,15688
67077,15688
67077,15177
67352,15177
" /> 
<polyline style="fill-rule:evenodd;"
points="66604,15177
66604,15688
66329,15688
66329,15177
66604,15177
" /> 
<polyline style="fill-rule:evenodd;"
points="47136,8976
47648,8976
47648,9251
47136,9251
47136,8976
" /> 
<polyline style="fill-rule:evenodd;"
points="47136,8228
47648,8228
47648,8503
47136,8503
47136,8228
" /> 
<polyline style="fill-rule:evenodd;"
points="48868,17440
49380,17440
49380,17716
48868,17716
48868,17440
" /> 
<polyline style="fill-rule:evenodd;"
points="48868,18188
49380,18188
49380,18464
48868,18464
48868,18188
" /> 
<polyline style="fill-rule:evenodd;"
points="48002,8976
48514,8976
48514,9251
48002,9251
48002,8976
" /> 
<polyline style="fill-rule:evenodd;"
points="48002,8228
48514,8228
48514,8503
48002,8503
48002,8228
" /> 
<polyline style="fill-rule:evenodd;"
points="63455,20295
63455,20807
63179,20807
63179,20295
63455,20295
" /> 
<polyline style="fill-rule:evenodd;"
points="62707,20295
62707,20807
62431,20807
62431,20295
62707,20295
" /> 
<polyline style="fill-rule:evenodd;"
points="58041,8425
57529,8425
57529,8149
58041,8149
58041,8425
" /> 
<polyline style="fill-rule:evenodd;"
points="58041,9173
57529,9173
57529,8897
58041,8897
58041,9173
" /> 
<polyline style="fill-rule:evenodd;"
points="60049,5787
60561,5787
60561,6062
60049,6062
60049,5787
" /> 
<polyline style="fill-rule:evenodd;"
points="60049,5039
60561,5039
60561,5314
60049,5314
60049,5039
" /> 
<polyline style="fill-rule:evenodd;"
points="50522,16456
50010,16456
50010,16181
50522,16181
50522,16456
" /> 
<polyline style="fill-rule:evenodd;"
points="50522,15708
50010,15708
50010,15433
50522,15433
50522,15708
" /> 
<polyline style="fill-rule:evenodd;"
points="31388,12519
31900,12519
31900,12795
31388,12795
31388,12519
" /> 
<polyline style="fill-rule:evenodd;"
points="31388,11771
31900,11771
31900,12047
31388,12047
31388,11771
" /> 
<polyline style="fill-rule:evenodd;"
points="40010,11889
40994,11889
40994,12244
40010,12244
40010,11889
" /> 
<polyline style="fill-rule:evenodd;"
points="40010,10748
40994,10748
40994,11102
40010,11102
40010,10748
" /> 
<polyline style="fill-rule:evenodd;"
points="47923,4389
47608,4389
47608,4035
47923,4035
47923,4389
" /> 
<polyline style="fill-rule:evenodd;"
points="48297,5177
47982,5177
47982,4822
48297,4822
48297,5177
" /> 
<polyline style="fill-rule:evenodd;"
points="47549,5177
47234,5177
47234,4822
47549,4822
47549,5177
" /> 
<polyline style="fill-rule:evenodd;"
points="38652,8218
38652,7687
39439,7687
39439,8218
38652,8218
" /> 
<polyline style="fill-rule:evenodd;"
points="38652,7431
38652,6899
39439,6899
39439,7431
38652,7431
" /> 
<polyline style="fill-rule:evenodd;"
points="38652,6643
38652,6112
39439,6112
39439,6643
38652,6643
" /> 
<polyline style="fill-rule:evenodd;"
points="38652,9202
38652,8671
39439,8671
39439,9202
38652,9202
" /> 
<polyline style="fill-rule:evenodd;"
points="38652,9990
38652,9458
39439,9458
39439,9990
38652,9990
" /> 
<polyline style="fill-rule:evenodd;"
points="38652,10777
38652,10246
39439,10246
39439,10777
38652,10777
" /> 
<polyline style="fill-rule:evenodd;"
points="66083,3503
65551,3503
65551,2716
66083,2716
66083,3503
" /> 
<polyline style="fill-rule:evenodd;"
points="65295,3503
64764,3503
64764,2716
65295,2716
65295,3503
" /> 
<polyline style="fill-rule:evenodd;"
points="64508,3503
63976,3503
63976,2716
64508,2716
64508,3503
" /> 
<polyline style="fill-rule:evenodd;"
points="21201,3503
20669,3503
20669,2716
21201,2716
21201,3503
" /> 
<polyline style="fill-rule:evenodd;"
points="21988,3503
21457,3503
21457,2716
21988,2716
21988,3503
" /> 
<polyline style="fill-rule:evenodd;"
points="22776,3503
22244,3503
22244,2716
22776,2716
22776,3503
" /> 
<polyline style="fill-rule:evenodd;"
points="49803,21062
50335,21062
50335,21850
49803,21850
49803,21062
" /> 
<polyline style="fill-rule:evenodd;"
points="50591,21062
51122,21062
51122,21850
50591,21850
50591,21062
" /> 
<polyline style="fill-rule:evenodd;"
points="51378,21062
51909,21062
51909,21850
51378,21850
51378,21062
" /> 
<polyline style="fill-rule:evenodd;"
points="21201,21850
20669,21850
20669,21062
21201,21062
21201,21850
" /> 
<polyline style="fill-rule:evenodd;"
points="21988,21850
21457,21850
21457,21062
21988,21062
21988,21850
" /> 
<polyline style="fill-rule:evenodd;"
points="22776,21850
22244,21850
22244,21062
22776,21062
22776,21850
" /> 
<polyline style="fill-rule:evenodd;"
points="38652,13336
38652,12805
39439,12805
39439,13336
38652,13336
" /> 
<polyline style="fill-rule:evenodd;"
points="38652,12549
38652,12017
39439,12017
39439,12549
38652,12549
" /> 
<polyline style="fill-rule:evenodd;"
points="38652,11761
38652,11230
39439,11230
39439,11761
38652,11761
" /> 
<polyline style="fill-rule:evenodd;"
points="33140,11761
33140,11230
33927,11230
33927,11761
33140,11761
" /> 
<polyline style="fill-rule:evenodd;"
points="33140,12549
33140,12017
33927,12017
33927,12549
33140,12549
" /> 
<polyline style="fill-rule:evenodd;"
points="33140,13336
33140,12805
33927,12805
33927,13336
33140,13336
" /> 
<polyline style="fill-rule:evenodd;"
points="64990,6200
64990,6712
64715,6712
64715,6200
64990,6200
" /> 
<polyline style="fill-rule:evenodd;"
points="65738,6200
65738,6712
65463,6712
65463,6200
65738,6200
" /> 
<polyline style="fill-rule:evenodd;"
points="63179,18602
63179,18090
63455,18090
63455,18602
63179,18602
" /> 
<polyline style="fill-rule:evenodd;"
points="62431,18602
62431,18090
62707,18090
62707,18602
62431,18602
" /> 
<polyline style="fill-rule:evenodd;"
points="64990,5334
64990,5846
64715,5846
64715,5334
64990,5334
" /> 
<polyline style="fill-rule:evenodd;"
points="65738,5334
65738,5846
65463,5846
65463,5334
65738,5334
" /> 
<polyline style="fill-rule:evenodd;"
points="63484,17246
63484,17482
62874,17482
62874,17246
63484,17246
" /> 
<polyline style="fill-rule:evenodd;"
points="63484,16746
63484,16982
62874,16982
62874,16746
63484,16746
" /> 
<polyline style="fill-rule:evenodd;"
points="63484,16246
63484,16482
62874,16482
62874,16246
63484,16246
" /> 
<polyline style="fill-rule:evenodd;"
points="63484,15746
63484,15982
62874,15982
62874,15746
63484,15746
" /> 
<polyline style="fill-rule:evenodd;"
points="65610,15746
65610,15982
65000,15982
65000,15746
65610,15746
" /> 
<polyline style="fill-rule:evenodd;"
points="65610,16246
65610,16482
65000,16482
65000,16246
65610,16246
" /> 
<polyline style="fill-rule:evenodd;"
points="65610,16746
65610,16982
65000,16982
65000,16746
65610,16746
" /> 
<polyline style="fill-rule:evenodd;"
points="65610,17246
65610,17482
65000,17482
65000,17246
65610,17246
" /> 
<polyline style="fill-rule:evenodd;"
points="56801,4389
56486,4389
56486,4035
56801,4035
56801,4389
" /> 
<polyline style="fill-rule:evenodd;"
points="57175,5177
56860,5177
56860,4822
57175,4822
57175,5177
" /> 
<polyline style="fill-rule:evenodd;"
points="56427,5177
56112,5177
56112,4822
56427,4822
56427,5177
" /> 
<polyline style="fill-rule:evenodd;"
points="69400,15236
68612,15236
68612,14606
69400,14606
69400,15236
" /> 
<polyline style="fill-rule:evenodd;"
points="69400,17598
68612,17598
68612,16968
69400,16968
69400,17598
" /> 
<polyline style="fill-rule:evenodd;"
points="39793,16338
39006,16338
39006,15708
39793,15708
39793,16338
" /> 
<polyline style="fill-rule:evenodd;"
points="39793,18700
39006,18700
39006,18070
39793,18070
39793,18700
" /> 
<polyline style="fill-rule:evenodd;"
points="67785,6220
67785,6535
67470,6535
67470,6220
67785,6220
" /> 
<polyline style="fill-rule:evenodd;"
points="67155,6220
67155,6535
66841,6535
66841,6220
67155,6220
" /> 
<polyline style="fill-rule:evenodd;"
points="67785,8582
67785,8897
67470,8897
67470,8582
67785,8582
" /> 
<polyline style="fill-rule:evenodd;"
points="67155,8582
67155,8897
66841,8897
66841,8582
67155,8582
" /> 
<polyline style="fill-rule:evenodd;"
points="50108,17480
50423,17480
50423,17795
50108,17795
50108,17480
" /> 
<polyline style="fill-rule:evenodd;"
points="50108,18110
50423,18110
50423,18425
50108,18425
50108,18110
" /> 
<polyline style="fill-rule:evenodd;"
points="4045,9822
4045,9232
4636,9232
4636,9822
4045,9822
" /> 
<polyline style="fill-rule:evenodd;"
points="5344,9822
5344,9232
5935,9232
5935,9822
5344,9822
" /> 
<polyline style="fill-rule:evenodd;"
points="4045,18090
4045,17500
4636,17500
4636,18090
4045,18090
" /> 
<polyline style="fill-rule:evenodd;"
points="5344,18090
5344,17500
5935,17500
5935,18090
5344,18090
" /> 
<polyline style="fill-rule:evenodd;"
points="4045,12578
4045,11988
4636,11988
4636,12578
4045,12578
" /> 
<polyline style="fill-rule:evenodd;"
points="5344,12578
5344,11988
5935,11988
5935,12578
5344,12578
" /> 
<polyline style="fill-rule:evenodd;"
points="4045,15334
4045,14744
4636,14744
4636,15334
4045,15334
" /> 
<polyline style="fill-rule:evenodd;"
points="5344,15334
5344,14744
5935,14744
5935,15334
5344,15334
" /> 
<polyline style="fill-rule:evenodd;"
points="4045,7066
4045,6476
4636,6476
4636,7066
4045,7066
" /> 
<polyline style="fill-rule:evenodd;"
points="5344,7066
5344,6476
5935,6476
5935,7066
5344,7066
" /> 
<polyline style="fill-rule:evenodd;"
points="25207,17539
25207,18838
25010,18838
25010,17539
25207,17539
" /> 
<polyline style="fill-rule:evenodd;"
points="26309,17539
26309,18838
26112,18838
26112,17539
26309,17539
" /> 
<polyline style="fill-rule:evenodd;"
points="25915,17539
25915,18838
25404,18838
25404,17539
25915,17539
" /> 
<polyline style="fill-rule:evenodd;"
points="25856,17647
25856,17942
25463,17942
25463,17647
25856,17647
" /> 
<polyline style="fill-rule:evenodd;"
points="25856,18041
25856,18336
25463,18336
25463,18041
25856,18041
" /> 
<polyline style="fill-rule:evenodd;"
points="25856,18435
25856,18730
25463,18730
25463,18435
25856,18435
" /> 
<polyline style="fill-rule:evenodd;"
points="18238,18838
18238,17539
18435,17539
18435,18838
18238,18838
" /> 
<polyline style="fill-rule:evenodd;"
points="17136,18838
17136,17539
17333,17539
17333,18838
17136,18838
" /> 
<polyline style="fill-rule:evenodd;"
points="17529,18838
17529,17539
18041,17539
18041,18838
17529,18838
" /> 
<polyline style="fill-rule:evenodd;"
points="17589,18730
17589,18435
17982,18435
17982,18730
17589,18730
" /> 
<polyline style="fill-rule:evenodd;"
points="17589,18336
17589,18041
17982,18041
17982,18336
17589,18336
" /> 
<polyline style="fill-rule:evenodd;"
points="17589,17942
17589,17647
17982,17647
17982,17942
17589,17942
" /> 
<polyline style="fill-rule:evenodd;"
points="15089,11358
15089,10059
15285,10059
15285,11358
15089,11358
" /> 
<polyline style="fill-rule:evenodd;"
points="13986,11358
13986,10059
14183,10059
14183,11358
13986,11358
" /> 
<polyline style="fill-rule:evenodd;"
points="14380,11358
14380,10059
14892,10059
14892,11358
14380,11358
" /> 
<polyline style="fill-rule:evenodd;"
points="14439,11250
14439,10954
14833,10954
14833,11250
14439,11250
" /> 
<polyline style="fill-rule:evenodd;"
points="14439,10856
14439,10561
14833,10561
14833,10856
14439,10856
" /> 
<polyline style="fill-rule:evenodd;"
points="14439,10462
14439,10167
14833,10167
14833,10462
14439,10462
" /> 
<polyline style="fill-rule:evenodd;"
points="28356,10059
28356,11358
28159,11358
28159,10059
28356,10059
" /> 
<polyline style="fill-rule:evenodd;"
points="29459,10059
29459,11358
29262,11358
29262,10059
29459,10059
" /> 
<polyline style="fill-rule:evenodd;"
points="29065,10059
29065,11358
28553,11358
28553,10059
29065,10059
" /> 
<polyline style="fill-rule:evenodd;"
points="29006,10167
29006,10462
28612,10462
28612,10167
29006,10167
" /> 
<polyline style="fill-rule:evenodd;"
points="29006,10561
29006,10856
28612,10856
28612,10561
29006,10561
" /> 
<polyline style="fill-rule:evenodd;"
points="29006,10954
29006,11250
28612,11250
28612,10954
29006,10954
" /> 
<polyline style="fill-rule:evenodd;"
points="21073,7421
22372,7421
22372,7618
21073,7618
21073,7421
" /> 
<polyline style="fill-rule:evenodd;"
points="21073,6318
22372,6318
22372,6515
21073,6515
21073,6318
" /> 
<polyline style="fill-rule:evenodd;"
points="21073,6712
22372,6712
22372,7224
21073,7224
21073,6712
" /> 
<polyline style="fill-rule:evenodd;"
points="21181,6771
21476,6771
21476,7165
21181,7165
21181,6771
" /> 
<polyline style="fill-rule:evenodd;"
points="21575,6771
21870,6771
21870,7165
21575,7165
21575,6771
" /> 
<polyline style="fill-rule:evenodd;"
points="21968,6771
22264,6771
22264,7165
21968,7165
21968,6771
" /> 
<polyline style="fill-rule:evenodd;"
points="4045,13956
4045,13366
4636,13366
4636,13956
4045,13956
" /> 
<polyline style="fill-rule:evenodd;"
points="5344,13956
5344,13366
5935,13366
5935,13956
5344,13956
" /> 
<polyline style="fill-rule:evenodd;"
points="4045,8444
4045,7854
4636,7854
4636,8444
4045,8444
" /> 
<polyline style="fill-rule:evenodd;"
points="5344,8444
5344,7854
5935,7854
5935,8444
5344,8444
" /> 
<polyline style="fill-rule:evenodd;"
points="4045,11200
4045,10610
4636,10610
4636,11200
4045,11200
" /> 
<polyline style="fill-rule:evenodd;"
points="5344,11200
5344,10610
5935,10610
5935,11200
5344,11200
" /> 
<polyline style="fill-rule:evenodd;"
points="4045,5688
4045,5098
4636,5098
4636,5688
4045,5688
" /> 
<polyline style="fill-rule:evenodd;"
points="5344,5688
5344,5098
5935,5098
5935,5688
5344,5688
" /> 
<polyline style="fill-rule:evenodd;"
points="4045,16712
4045,16122
4636,16122
4636,16712
4045,16712
" /> 
<polyline style="fill-rule:evenodd;"
points="5344,16712
5344,16122
5935,16122
5935,16712
5344,16712
" /> 
<polyline style="fill-rule:evenodd;"
points="4045,19468
4045,18877
4636,18877
4636,19468
4045,19468
" /> 
<polyline style="fill-rule:evenodd;"
points="5344,19468
5344,18877
5935,18877
5935,19468
5344,19468
" /> 
<polyline style="fill-rule:evenodd;"
points="49852,13297
49852,13474
49222,13474
49222,13297
49852,13297
" /> 
<polyline style="fill-rule:evenodd;"
points="49852,12982
49852,13159
49222,13159
49222,12982
49852,12982
" /> 
<polyline style="fill-rule:evenodd;"
points="49852,12667
49852,12844
49222,12844
49222,12667
49852,12667
" /> 
<polyline style="fill-rule:evenodd;"
points="49852,12352
49852,12529
49222,12529
49222,12352
49852,12352
" /> 
<polyline style="fill-rule:evenodd;"
points="49852,12037
49852,12214
49222,12214
49222,12037
49852,12037
" /> 
<polyline style="fill-rule:evenodd;"
points="49852,11722
49852,11899
49222,11899
49222,11722
49852,11722
" /> 
<polyline style="fill-rule:evenodd;"
points="49852,11407
49852,11584
49222,11584
49222,11407
49852,11407
" /> 
<polyline style="fill-rule:evenodd;"
points="49852,11092
49852,11269
49222,11269
49222,11092
49852,11092
" /> 
<polyline style="fill-rule:evenodd;"
points="48878,10295
49055,10295
49055,10925
48878,10925
48878,10295
" /> 
<polyline style="fill-rule:evenodd;"
points="48563,10295
48740,10295
48740,10925
48563,10925
48563,10295
" /> 
<polyline style="fill-rule:evenodd;"
points="48248,10295
48425,10295
48425,10925
48248,10925
48248,10295
" /> 
<polyline style="fill-rule:evenodd;"
points="47933,10295
48110,10295
48110,10925
47933,10925
47933,10295
" /> 
<polyline style="fill-rule:evenodd;"
points="47618,10295
47795,10295
47795,10925
47618,10925
47618,10295
" /> 
<polyline style="fill-rule:evenodd;"
points="47303,10295
47480,10295
47480,10925
47303,10925
47303,10295
" /> 
<polyline style="fill-rule:evenodd;"
points="46988,10295
47165,10295
47165,10925
46988,10925
46988,10295
" /> 
<polyline style="fill-rule:evenodd;"
points="46673,10295
46850,10295
46850,10925
46673,10925
46673,10295
" /> 
<polyline style="fill-rule:evenodd;"
points="46506,11092
46506,11269
45876,11269
45876,11092
46506,11092
" /> 
<polyline style="fill-rule:evenodd;"
points="46506,11407
46506,11584
45876,11584
45876,11407
46506,11407
" /> 
<polyline style="fill-rule:evenodd;"
points="46506,11722
46506,11899
45876,11899
45876,11722
46506,11722
" /> 
<polyline style="fill-rule:evenodd;"
points="46506,12037
46506,12214
45876,12214
45876,12037
46506,12037
" /> 
<polyline style="fill-rule:evenodd;"
points="46506,12352
46506,12529
45876,12529
45876,12352
46506,12352
" /> 
<polyline style="fill-rule:evenodd;"
points="46506,12667
46506,12844
45876,12844
45876,12667
46506,12667
" /> 
<polyline style="fill-rule:evenodd;"
points="46506,12982
46506,13159
45876,13159
45876,12982
46506,12982
" /> 
<polyline style="fill-rule:evenodd;"
points="46506,13297
46506,13474
45876,13474
45876,13297
46506,13297
" /> 
<polyline style="fill-rule:evenodd;"
points="46673,13641
46850,13641
46850,14271
46673,14271
46673,13641
" /> 
<polyline style="fill-rule:evenodd;"
points="46988,13641
47165,13641
47165,14271
46988,14271
46988,13641
" /> 
<polyline style="fill-rule:evenodd;"
points="47303,13641
47480,13641
47480,14271
47303,14271
47303,13641
" /> 
<polyline style="fill-rule:evenodd;"
points="47618,13641
47795,13641
47795,14271
47618,14271
47618,13641
" /> 
<polyline style="fill-rule:evenodd;"
points="47933,13641
48110,13641
48110,14271
47933,14271
47933,13641
" /> 
<polyline style="fill-rule:evenodd;"
points="48248,13641
48425,13641
48425,14271
48248,14271
48248,13641
" /> 
<polyline style="fill-rule:evenodd;"
points="48563,13641
48740,13641
48740,14271
48563,14271
48563,13641
" /> 
<polyline style="fill-rule:evenodd;"
points="48878,13641
49055,13641
49055,14271
48878,14271
48878,13641
" /> 
<circle cx="50659.9" cy="4881.89" r="354.331" /> 
</g>
<g style="fill:#000000; fill-opacity:1.0; 
stroke:#000000; stroke-width:39.3701; stroke-opacity:1; 
stroke-linecap:round; stroke-linejoin:round;">
</g>
<g style="fill:#000000; fill-opacity:1.0; 
stroke:#000000; stroke-width:0; stroke-opacity:1; 
stroke-linecap:round; stroke-linejoin:round;">
<circle cx="60620.5" cy="7874.02" r="354.331" /> 
</g>
<g style="fill:#000000; fill-opacity:1.0; 
stroke:#000000; stroke-width:39.3701; stroke-opacity:1; 
stroke-linecap:round; stroke-linejoin:round;">
</g>
<g style="fill:#000000; fill-opacity:1.0; 
stroke:#000000; stroke-width:0; stroke-opacity:1; 
stroke-linecap:round; stroke-linejoin:round;">
<circle cx="51486.7" cy="15787.4" r="354.331" /> 
</g>
<g style="fill:#000000; fill-opacity:1.0; 
stroke:#000000; stroke-width:39.3701; stroke-opacity:1; 
stroke-linecap:round; stroke-linejoin:round;">
</g>
<g style="fill:#000000; fill-opacity:1.0; 
stroke:#000000; stroke-width:0; stroke-opacity:1; 
stroke-linecap:round; stroke-linejoin:round;">
<circle cx="67077.2" cy="18543.3" r="354.331" /> 
</g>
<g style="fill:#000000; fill-opacity:1.0; 
stroke:#000000; stroke-width:39.3701; stroke-opacity:1; 
stroke-linecap:round; stroke-linejoin:round;">
</g>
<g style="fill:#000000; fill-opacity:1.0; 
stroke:#000000; stroke-width:0; stroke-opacity:1; 
stroke-linecap:round; stroke-linejoin:round;">
<circle cx="42037.9" cy="10511.8" r="354.331" /> 
</g>
<g style="fill:#000000; fill-opacity:1.0; 
stroke:#000000; stroke-width:39.3701; stroke-opacity:1; 
stroke-linecap:round; stroke-linejoin:round;">
</g>
<g style="fill:#000000; fill-opacity:1.0; 
stroke:#000000; stroke-width:0; stroke-opacity:1; 
stroke-linecap:round; stroke-linejoin:round;">
<circle cx="66053.6" cy="4448.82" r="354.331" /> 
</g>
<g style="fill:#000000; fill-opacity:1.0; 
stroke:#000000; stroke-width:39.3701; stroke-opacity:1; 
stroke-linecap:round; stroke-linejoin:round;">
</g>
<g style="fill:#000000; fill-opacity:1.0; 
stroke:#000000; stroke-width:0; stroke-opacity:1; 
stroke-linecap:round; stroke-linejoin:round;">
<circle cx="69124.5" cy="13661.4" r="354.331" /> 
</g>
<g style="fill:#000000; fill-opacity:1.0; 
stroke:#000000; stroke-width:39.3701; stroke-opacity:1; 
stroke-linecap:round; stroke-linejoin:round;">
</g>
<g style="fill:#000000; fill-opacity:1.0; 
stroke:#000000; stroke-width:0; stroke-opacity:1; 
stroke-linecap:round; stroke-linejoin:round;">
<circle cx="64282" cy="18543.3" r="354.331" /> 
</g>
<g style="fill:#000000; fill-opacity:1.0; 
stroke:#000000; stroke-width:39.3701; stroke-opacity:1; 
stroke-linecap:round; stroke-linejoin:round;">
</g>
<g style="fill:#000000; fill-opacity:1.0; 
stroke:#000000; stroke-width:0; stroke-opacity:1; 
stroke-linecap:round; stroke-linejoin:round;">
<circle cx="42037.9" cy="11456.7" r="354.331" /> 
</g>
<g style="fill:#000000; fill-opacity:1.0; 
stroke:#000000; stroke-width:39.3701; stroke-opacity:1; 
stroke-linecap:round; stroke-linejoin:round;">
</g>
<g style="fill:#000000; fill-opacity:1.0; 
stroke:#000000; stroke-width:0; stroke-opacity:1; 
stroke-linecap:round; stroke-linejoin:round;">
<circle cx="40384.3" cy="6377.95" r="354.331" /> 
</g>
<g style="fill:#000000; fill-opacity:1.0; 
stroke:#000000; stroke-width:39.3701; stroke-opacity:1; 
stroke-linecap:round; stroke-linejoin:round;">
</g>
<g style="fill:#000000; fill-opacity:1.0; 
stroke:#000000; stroke-width:0; stroke-opacity:1; 
stroke-linecap:round; stroke-linejoin:round;">
<circle cx="48022.1" cy="15787.4" r="354.331" /> 
</g>
<g style="fill:#000000; fill-opacity:1.0; 
stroke:#000000; stroke-width:39.3701; stroke-opacity:1; 
stroke-linecap:round; stroke-linejoin:round;">
</g>
<g style="fill:#000000; fill-opacity:1.0; 
stroke:#000000; stroke-width:0; stroke-opacity:1; 
stroke-linecap:round; stroke-linejoin:round;">
<circle cx="44596.9" cy="9724.41" r="354.331" /> 
</g>
<g style="fill:#000000; fill-opacity:1.0; 
stroke:#000000; stroke-width:39.3701; stroke-opacity:1; 
stroke-linecap:round; stroke-linejoin:round;">
</g>
<g style="fill:#000000; fill-opacity:1.0; 
stroke:#000000; stroke-width:0; stroke-opacity:1; 
stroke-linecap:round; stroke-linejoin:round;">
<circle cx="49124.5" cy="15787.4" r="354.331" /> 
</g>
<g style="fill:#000000; fill-opacity:1.0; 
stroke:#000000; stroke-width:39.3701; stroke-opacity:1; 
stroke-linecap:round; stroke-linejoin:round;">
</g>
<g style="fill:#000000; fill-opacity:1.0; 
stroke:#000000; stroke-width:0; stroke-opacity:1; 
stroke-linecap:round; stroke-linejoin:round;">
<circle cx="43258.3" cy="15787.4" r="354.331" /> 
</g>
<g style="fill:#000000; fill-opacity:1.0; 
stroke:#000000; stroke-width:39.3701; stroke-opacity:1; 
stroke-linecap:round; stroke-linejoin:round;">
</g>
<g style="fill:#000000; fill-opacity:1.0; 
stroke:#000000; stroke-width:236.22; stroke-opacity:1; 
stroke-linecap:round; stroke-linejoin:round;">
</g>
<g style="fill:#000000; fill-opacity:0.0; 
stroke:#000000; stroke-width:236.22; stroke-opacity:1; 
stroke-linecap:round; stroke-linejoin:round;">
<path d="M56270 5000
L56270 6200
" />
<path d="M56014 6456
L52234 6456
" />
<path d="M56270 6200
L56014 6456
" />
<path d="M48258 8366
L48258 7913
" />
<path d="M65305 15864
L64480 15864
" />
<path d="M64006 17125
L63061 17125
" />
<path d="M64242 16889
L64006 17125
" />
<path d="M64242 16102
L64242 16889
" />
<path d="M64480 15864
L64242 16102
" />
<path d="M66467 15433
L66211 15433
" />
<path d="M66211 15433
L65779 15864
" />
<path d="M65779 15864
L65305 15864
" />
<path d="M63317 20551
L66762 20551
" />
<path d="M66762 20551
L66801 20590
" />
<path d="M65305 16864
L69098 16864
" />
<path d="M69098 16864
L69124 16889
" />
<path d="M48140 5000
L48140 5669
" />
<path d="M49793 5748
L50659 4881
" />
<path d="M48218 5748
L49793 5748
" />
<path d="M48140 5669
L48218 5748
" />
</g>
<g style="fill:#000000; fill-opacity:0.0; 
stroke:#000000; stroke-width:157.48; stroke-opacity:1; 
stroke-linecap:round; stroke-linejoin:round;">
<path d="M49537 12755
L47982 12755
" />
<path d="M47982 12755
L47667 12440
" />
<path d="M46191 12440
L47667 12440
" />
<path d="M47667 12440
L47707 12440
" />
<path d="M47707 12440
L48022 12125
" />
<path d="M48022 12125
L49537 12125
" />
<path d="M49124 18326
L49124 18779
" />
<path d="M63061 7874
L60620 7874
" />
<path d="M51092 12992
L51092 13818
" />
<path d="M51092 13818
L51211 13937
" />
<path d="M49537 12755
L50266 12755
" />
<path d="M50266 12755
L50502 12992
" />
</g>
<g style="fill:#000000; fill-opacity:0.0; 
stroke:#000000; stroke-width:236.22; stroke-opacity:1; 
stroke-linecap:round; stroke-linejoin:round;">
<path d="M57785 8287
L57785 7952
" />
</g>
<g style="fill:#000000; fill-opacity:0.0; 
stroke:#000000; stroke-width:157.48; stroke-opacity:1; 
stroke-linecap:round; stroke-linejoin:round;">
<path d="M50266 18267
L50266 19370
" />
</g>
<g style="fill:#000000; fill-opacity:0.0; 
stroke:#000000; stroke-width:236.22; stroke-opacity:1; 
stroke-linecap:round; stroke-linejoin:round;">
<path d="M65305 17364
L66130 17364
" />
<path d="M66130 17364
L66132 17362
" />
<path d="M66092 18346
L66998 18543
" />
<path d="M66998 18543
L67077 18543
" />
<path d="M60305 5177
L60305 4527
" />
</g>
<g style="fill:#000000; fill-opacity:0.0; 
stroke:#000000; stroke-width:314.961; stroke-opacity:1; 
stroke-linecap:round; stroke-linejoin:round;">
<path d="M57018 5000
L57018 6476
" />
<path d="M57018 6476
L57037 6496
" />
</g>
<g style="fill:#000000; fill-opacity:0.0; 
stroke:#000000; stroke-width:157.48; stroke-opacity:1; 
stroke-linecap:round; stroke-linejoin:round;">
<path d="M59400 5275
L59400 4803
" />
<path d="M44675 18267
L44675 18818
" />
<path d="M45463 18267
L45463 18818
" />
<path d="M46250 18267
L46250 18818
" />
<path d="M47037 18267
L47037 18818
" />
<path d="M47825 18267
L47825 18818
" />
</g>
<g style="fill:#000000; fill-opacity:0.0; 
stroke:#000000; stroke-width:236.22; stroke-opacity:1; 
stroke-linecap:round; stroke-linejoin:round;">
<path d="M43179 10511
L42037 10511
" />
<path d="M61407 6431
L62220 6431
" />
</g>
<g style="fill:#000000; fill-opacity:0.0; 
stroke:#000000; stroke-width:157.48; stroke-opacity:1; 
stroke-linecap:round; stroke-linejoin:round;">
<path d="M62220 6431
L62239 6412
" />
</g>
<g style="fill:#000000; fill-opacity:0.0; 
stroke:#000000; stroke-width:236.22; stroke-opacity:1; 
stroke-linecap:round; stroke-linejoin:round;">
<path d="M61407 5431
L62232 5431
" />
</g>
<g style="fill:#000000; fill-opacity:0.0; 
stroke:#000000; stroke-width:157.48; stroke-opacity:1; 
stroke-linecap:round; stroke-linejoin:round;">
<path d="M62232 5431
L62234 5433
" />
</g>
<g style="fill:#000000; fill-opacity:0.0; 
stroke:#000000; stroke-width:236.22; stroke-opacity:1; 
stroke-linecap:round; stroke-linejoin:round;">
<path d="M40502 10925
L40502 10511
" />
</g>
<g style="fill:#000000; fill-opacity:0.0; 
stroke:#000000; stroke-width:157.48; stroke-opacity:1; 
stroke-linecap:round; stroke-linejoin:round;">
<path d="M43179 10511
L42746 10511
" />
</g>
<g style="fill:#000000; fill-opacity:0.0; 
stroke:#000000; stroke-width:236.22; stroke-opacity:1; 
stroke-linecap:round; stroke-linejoin:round;">
<path d="M67628 6377
L68967 6377
" />
<path d="M67628 8740
L68888 8740
" />
</g>
<g style="fill:#000000; fill-opacity:0.0; 
stroke:#000000; stroke-width:157.48; stroke-opacity:1; 
stroke-linecap:round; stroke-linejoin:round;">
<path d="M59400 6062
L59400 6574
" />
</g>
<g style="fill:#000000; fill-opacity:0.0; 
stroke:#000000; stroke-width:236.22; stroke-opacity:1; 
stroke-linecap:round; stroke-linejoin:round;">
<path d="M61407 6931
L60150 6931
" />
</g>
<g style="fill:#000000; fill-opacity:0.0; 
stroke:#000000; stroke-width:157.48; stroke-opacity:1; 
stroke-linecap:round; stroke-linejoin:round;">
<path d="M60150 6931
L60148 6929
" />
</g>
<g style="fill:#000000; fill-opacity:0.0; 
stroke:#000000; stroke-width:236.22; stroke-opacity:1; 
stroke-linecap:round; stroke-linejoin:round;">
<path d="M63533 5431
L64087 5431
" />
<path d="M64281 5236
L64281 4842
" />
<path d="M64087 5431
L64281 5236
" />
<path d="M67215 15433
L67746 15433
" />
<path d="M65305 16364
L66079 16364
" />
</g>
<g style="fill:#000000; fill-opacity:0.0; 
stroke:#000000; stroke-width:157.48; stroke-opacity:1; 
stroke-linecap:round; stroke-linejoin:round;">
<path d="M66079 16364
L66092 16377
" />
<path d="M63848 7874
L64439 7874
" />
</g>
<g style="fill:#000000; fill-opacity:0.0; 
stroke:#000000; stroke-width:236.22; stroke-opacity:1; 
stroke-linecap:round; stroke-linejoin:round;">
<path d="M63533 6931
L64240 6931
" />
</g>
<g style="fill:#000000; fill-opacity:0.0; 
stroke:#000000; stroke-width:157.48; stroke-opacity:1; 
stroke-linecap:round; stroke-linejoin:round;">
<path d="M64240 6931
L64242 6929
" />
</g>
<g style="fill:#000000; fill-opacity:0.0; 
stroke:#000000; stroke-width:236.22; stroke-opacity:1; 
stroke-linecap:round; stroke-linejoin:round;">
<path d="M61407 5931
L60311 5931
" />
<path d="M60311 5931
L60305 5925
" />
<path d="M63533 6431
L64827 6431
" />
</g>
<g style="fill:#000000; fill-opacity:0.0; 
stroke:#000000; stroke-width:157.48; stroke-opacity:1; 
stroke-linecap:round; stroke-linejoin:round;">
<path d="M64827 6431
L64852 6456
" />
</g>
<g style="fill:#000000; fill-opacity:0.0; 
stroke:#000000; stroke-width:236.22; stroke-opacity:1; 
stroke-linecap:round; stroke-linejoin:round;">
<path d="M63533 5931
L64256 5931
" />
<path d="M64596 5590
L64852 5590
" />
<path d="M64256 5931
L64596 5590
" />
<path d="M63317 18346
L63967 18346
" />
<path d="M63967 18346
L64281 18543
" />
</g>
<g style="fill:#000000; fill-opacity:0.0; 
stroke:#000000; stroke-width:157.48; stroke-opacity:1; 
stroke-linecap:round; stroke-linejoin:round;">
<path d="M51092 12204
L51092 11614
" />
</g>
<g style="fill:#000000; fill-opacity:0.0; 
stroke:#000000; stroke-width:236.22; stroke-opacity:1; 
stroke-linecap:round; stroke-linejoin:round;">
<path d="M57785 9035
L57785 9409
" />
</g>
<g style="fill:#000000; fill-opacity:0.0; 
stroke:#000000; stroke-width:157.48; stroke-opacity:1; 
stroke-linecap:round; stroke-linejoin:round;">
<path d="M49537 11811
L50384 11811
" />
<path d="M49537 12440
L50266 12440
" />
<path d="M50266 12440
L50423 12283
" />
</g>
<g style="fill:#000000; fill-opacity:0.0; 
stroke:#000000; stroke-width:393.701; stroke-opacity:1; 
stroke-linecap:round; stroke-linejoin:round;">
<path d="M54990 7047
L54990 7755
" />
<path d="M53415 7047
L53415 7637
" />
</g>
<g style="fill:#000000; fill-opacity:0.0; 
stroke:#000000; stroke-width:236.22; stroke-opacity:1; 
stroke-linecap:round; stroke-linejoin:round;">
<path d="M43002 11456
L42037 11456
" />
</g>
<g style="fill:#000000; fill-opacity:0.0; 
stroke:#000000; stroke-width:157.48; stroke-opacity:1; 
stroke-linecap:round; stroke-linejoin:round;">
<path d="M40384 6377
L39045 6377
" />
<path d="M65029 21456
L65817 21456
" />
<path d="M64242 21456
L65029 21456
" />
<path d="M53376 21456
L64242 21456
" />
<path d="M39242 18188
L40384 18188
" />
<path d="M51644 21456
L53376 21456
" />
<path d="M50856 21456
L51644 21456
" />
<path d="M50069 21456
L50856 21456
" />
<path d="M47116 16299
L47116 16574
" />
<path d="M47825 17283
L47825 17637
" />
<path d="M47116 16574
L47825 17283
" />
</g>
<g style="fill:#000000; fill-opacity:0.0; 
stroke:#000000; stroke-width:236.22; stroke-opacity:1; 
stroke-linecap:round; stroke-linejoin:round;">
<path d="M63317 19645
L64774 19645
" />
<path d="M50266 16318
L50266 17578
" />
<path d="M47766 4212
L47766 3681
" />
<path d="M47766 3681
L47785 3661
" />
<path d="M53415 5866
L53415 5236
" />
</g>
<g style="fill:#000000; fill-opacity:0.0; 
stroke:#000000; stroke-width:157.48; stroke-opacity:1; 
stroke-linecap:round; stroke-linejoin:round;">
<path d="M51644 3110
L50856 3110
" />
<path d="M50069 3110
L50856 3110
" />
<path d="M33533 11496
L31801 11496
" />
<path d="M31644 11653
L31644 11909
" />
<path d="M31801 11496
L31644 11653
" />
<path d="M33533 13070
L31762 13070
" />
<path d="M31644 12952
L31644 12657
" />
<path d="M31762 13070
L31644 12952
" />
</g>
<g style="fill:#000000; fill-opacity:0.0; 
stroke:#000000; stroke-width:236.22; stroke-opacity:1; 
stroke-linecap:round; stroke-linejoin:round;">
<path d="M40502 12066
L40502 12913
" />
</g>
<g style="fill:#000000; fill-opacity:0.0; 
stroke:#000000; stroke-width:157.48; stroke-opacity:1; 
stroke-linecap:round; stroke-linejoin:round;">
<path d="M40502 12913
L40344 13070
" />
<path d="M39045 13070
L40344 13070
" />
<path d="M40344 13070
L46191 13070
" />
<path d="M39045 11496
L41014 11496
" />
<path d="M41644 12125
L46191 12125
" />
<path d="M41014 11496
L41644 12125
" />
</g>
<g style="fill:#000000; fill-opacity:0.0; 
stroke:#000000; stroke-width:314.961; stroke-opacity:1; 
stroke-linecap:round; stroke-linejoin:round;">
<path d="M56644 4212
L56644 3740
" />
</g>
<g style="fill:#000000; fill-opacity:0.0; 
stroke:#000000; stroke-width:236.22; stroke-opacity:1; 
stroke-linecap:round; stroke-linejoin:round;">
<path d="M54990 5866
L54990 5236
" />
</g>
<g style="fill:#000000; fill-opacity:0.0; 
stroke:#000000; stroke-width:157.48; stroke-opacity:1; 
stroke-linecap:round; stroke-linejoin:round;">
<path d="M65029 3110
L65817 3110
" />
<path d="M64242 3110
L65029 3110
" />
<path d="M46191 11181
L45699 11181
" />
<path d="M45581 11062
L45581 9173
" />
<path d="M45699 11181
L45581 11062
" />
<path d="M48022 13956
L48022 15787
" />
<path d="M39045 9724
L44596 9724
" />
<path d="M46762 10610
L46762 10157
" />
<path d="M46132 9527
L46132 9251
" />
<path d="M46762 10157
L46132 9527
" />
<path d="M47077 10610
L47077 10000
" />
<path d="M46683 9606
L46683 9133
" />
<path d="M47077 10000
L46683 9606
" />
</g>
<g style="fill:#000000; fill-opacity:0.0; 
stroke:#000000; stroke-width:236.22; stroke-opacity:1; 
stroke-linecap:round; stroke-linejoin:round;">
<path d="M47392 5000
L47392 6535
" />
<path d="M47392 8366
L47392 7952
" />
<path d="M49124 15787
L49124 17578
" />
</g>
<g style="fill:#000000; fill-opacity:0.0; 
stroke:#000000; stroke-width:157.48; stroke-opacity:1; 
stroke-linecap:round; stroke-linejoin:round;">
<path d="M48337 14527
L49124 15314
" />
<path d="M49124 15314
L49124 15787
" />
<path d="M48337 13956
L48337 14527
" />
<path d="M48652 13956
L48652 14370
" />
<path d="M50266 14921
L50266 15570
" />
<path d="M50108 14763
L50266 14921
" />
<path d="M49045 14763
L50108 14763
" />
<path d="M48652 14370
L49045 14763
" />
</g>
<g style="fill:#000000; fill-opacity:0.0; 
stroke:#000000; stroke-width:236.22; stroke-opacity:1; 
stroke-linecap:round; stroke-linejoin:round;">
<path d="M65600 5590
L66053 5590
" />
<path d="M66486 6377
L66939 6377
" />
<path d="M66211 6102
L66486 6377
" />
<path d="M66211 5748
L66211 6102
" />
<path d="M66053 5590
L66211 5748
" />
<path d="M65600 6456
L65817 6456
" />
<path d="M66368 8740
L66939 8740
" />
<path d="M66211 8582
L66368 8740
" />
<path d="M66211 6850
L66211 8582
" />
<path d="M65817 6456
L66211 6850
" />
</g>
<g style="fill:#000000; fill-opacity:0.0; 
stroke:#000000; stroke-width:157.48; stroke-opacity:1; 
stroke-linecap:round; stroke-linejoin:round;">
<path d="M47707 10610
L47707 10039
" />
<path d="M48258 9488
L48258 9114
" />
<path d="M47707 10039
L48258 9488
" />
<path d="M47392 10610
L47392 9114
" />
</g>
<g style="fill:#000000; fill-opacity:0.0; 
stroke:#000000; stroke-width:236.22; stroke-opacity:1; 
stroke-linecap:round; stroke-linejoin:round;">
<path d="M43967 10511
L44833 10511
" />
<path d="M44144 11456
L44793 11456
" />
</g>
<g style="fill:#000000; fill-opacity:0.0; 
stroke:#000000; stroke-width:157.48; stroke-opacity:1; 
stroke-linecap:round; stroke-linejoin:round;">
<path d="M46191 11496
L44951 11496
" />
<path d="M44183 11496
L44144 11456
" />
<path d="M4400 19173
L3848 19173
" />
<path d="M3848 19173
L3809 19133
" />
<path d="M4400 16417
L3770 16417
" />
<path d="M3730 16456
L3691 16456
" />
<path d="M3770 16417
L3730 16456
" />
<path d="M4400 17795
L3809 17795
" />
<path d="M3809 17795
L3770 17755
" />
<path d="M4400 15039
L3848 15039
" />
<path d="M4400 13661
L3848 13661
" />
<path d="M4400 12283
L3809 12283
" />
<path d="M3809 12283
L3770 12322
" />
<path d="M4400 10905
L3770 10905
" />
<path d="M3770 10905
L3730 10866
" />
<path d="M4400 9527
L3967 9527
" />
<path d="M3967 9527
L3888 9448
" />
<path d="M4400 8149
L3770 8149
" />
<path d="M3770 8149
L3691 8070
" />
<path d="M4400 6771
L3691 6771
" />
<path d="M3691 6771
L3652 6811
" />
<path d="M4400 5393
L3730 5393
" />
<path d="M3730 5393
L3691 5354
" />
<path d="M5581 19173
L6171 19173
" />
<path d="M6171 19173
L6211 19133
" />
<path d="M5581 16417
L6250 16417
" />
<path d="M6250 16417
L6289 16377
" />
<path d="M5581 17795
L6211 17795
" />
<path d="M6211 17795
L6289 17716
" />
<path d="M5581 15039
L6289 15039
" />
<path d="M6289 15039
L6329 15039
" />
<path d="M5581 13661
L6171 13661
" />
<path d="M6171 13661
L6211 13622
" />
<path d="M5581 12283
L6132 12283
" />
<path d="M5581 10905
L6171 10905
" />
<path d="M6171 10905
L6211 10866
" />
<path d="M5581 9527
L6329 9527
" />
<path d="M6329 9527
L6368 9488
" />
<path d="M5581 8149
L6211 8149
" />
<path d="M5581 6771
L6132 6771
" />
<path d="M5581 5393
L6092 5393
" />
<path d="M46801 16299
L46801 16811
" />
<path d="M47037 17047
L47037 17637
" />
<path d="M46801 16811
L47037 17047
" />
<path d="M46486 16299
L46486 16811
" />
<path d="M46250 17047
L46250 17637
" />
<path d="M46486 16811
L46250 17047
" />
<path d="M46171 16299
L46171 16535
" />
<path d="M45463 17244
L45463 17637
" />
<path d="M46171 16535
L45463 17244
" />
<path d="M45187 16318
L45187 16653
" />
<path d="M44675 17165
L44675 17637
" />
<path d="M45187 16653
L44675 17165
" />
<path d="M45187 15570
L45187 13622
" />
<path d="M45423 13385
L46191 13385
" />
<path d="M45187 13622
L45423 13385
" />
<path d="M46762 13956
L46762 14370
" />
<path d="M46171 14960
L46171 15590
" />
<path d="M46762 14370
L46171 14960
" />
<path d="M47392 13956
L47392 14606
" />
<path d="M46801 15196
L46801 15590
" />
<path d="M47392 14606
L46801 15196
" />
<path d="M47077 13956
L47077 14488
" />
<path d="M46486 15078
L46486 15590
" />
<path d="M47077 14488
L46486 15078
" />
<path d="M47707 13956
L47707 14763
" />
<path d="M47116 15354
L47116 15590
" />
<path d="M47707 14763
L47116 15354
" />
</g>
<g style="fill:#000000; fill-opacity:1.0; 
stroke:#000000; stroke-width:39.3701; stroke-opacity:1; 
stroke-linecap:round; stroke-linejoin:round;">
<polyline style="fill-rule:evenodd;"
points="68793,2708
69004,2772
69199,2876
69370,3015
69511,3186
69616,3380
69681,3591
69705,3813
69705,3818
69705,8919
69628,8996
68817,8996
68711,8889
68711,8590
68817,8484
69045,8484
69051,8483
69056,8481
69059,8478
69177,8360
69181,8355
69183,8350
69183,8346
69183,8307
69182,8301
69180,8296
69177,8293
69059,8175
69055,8171
69050,8169
69045,8169
66770,8169
66663,8062
66663,7055
66770,6948
69045,6948
69051,6948
69056,6945
69059,6943
69177,6824
69181,6820
69183,6815
69183,6811
69183,6771
69182,6766
69180,6761
69177,6757
69059,6639
69055,6636
69050,6634
69045,6633
68817,6633
68711,6527
68711,6228
68817,6122
69045,6122
69051,6121
69056,6118
69059,6116
69177,5998
69181,5993
69183,5988
69183,5984
69183,5787
69182,5781
69180,5776
69177,5773
69059,5655
69055,5652
69050,5650
69045,5649
66691,5649
66585,5543
66585,5078
66584,5073
66582,5068
66579,5064
66461,4946
66456,4943
66451,4941
66447,4940
63345,4940
63238,4834
63238,4212
63237,4207
63235,4202
63232,4198
63114,4080
63110,4077
63105,4075
63100,4074
58770,4074
58764,4075
58759,4077
58756,4080
58638,4198
58634,4203
58632,4208
58632,4212
58632,6653
58633,6659
58635,6664
58638,6667
58756,6785
58760,6788
58765,6790
58770,6791
59045,6791
59051,6790
59056,6788
59059,6785
59177,6667
59181,6663
59183,6657
59183,6653
59183,6189
59290,6082
59510,6082
59616,6189
59616,6653
59617,6659
59619,6664
59622,6667
59740,6785
59744,6788
59750,6790
59754,6791
60730,6791
60837,6897
60837,6960
60730,7066
57833,7066
57726,6960
57726,3945
57833,3838
66604,3838
66610,3837
66615,3835
66618,3832
66736,3714
66740,3710
66742,3705
66742,3700
66742,2764
66819,2687
68570,2687
68793,2708
" /> 
<polyline style="fill-rule:evenodd;"
points="22333,7606
22333,9960
22333,9966
22336,9971
22338,9974
22457,10092
22461,10095
22466,10097
22470,10098
28171,10098
28278,10205
28278,11212
28171,11318
26526,11318
26518,11320
26319,11407
26313,11411
22851,15136
22847,15142
22767,15347
22766,15354
22766,17440
22766,17446
22769,17451
22771,17454
22890,17572
22894,17576
22899,17578
22904,17578
25021,17578
25128,17685
25128,18692
25021,18799
22904,18799
22898,18799
22893,18802
22890,18804
22771,18923
22768,18927
22766,18932
22766,18937
22766,21802
22689,21879
20756,21879
20679,21802
20679,18937
20678,18931
20676,18926
20673,18923
20555,18804
20551,18801
20546,18799
20541,18799
18423,18799
18317,18692
18317,17685
18423,17578
20541,17578
20547,17577
20552,17575
20555,17572
20673,17454
20677,17450
20679,17445
20679,17440
20679,15354
20678,15347
20597,15142
20593,15136
17132,11411
17126,11407
16927,11320
16919,11318
15274,11318
15167,11212
15167,10205
15274,10098
20974,10098
20980,10097
20985,10095
20988,10092
21106,9974
21110,9970
21112,9964
21112,9960
21112,7606
21219,7500
22226,7500
22333,7606
" /> 
<polyline style="fill-rule:evenodd;"
points="32018,2764
32018,11094
31911,11200
31211,11200
31205,11201
31200,11203
31197,11206
31079,11324
31075,11329
31073,11334
31073,11338
31073,13228
31074,13233
31076,13238
31079,13242
31197,13360
31201,13363
31206,13365
31211,13366
31911,13366
32018,13472
32018,21802
31941,21879
27646,21879
27569,21802
27569,18937
27568,18931
27566,18926
27563,18923
27445,18804
27441,18801
27435,18799
27431,18799
26297,18799
26191,18692
26191,17685
26297,17578
30620,17578
30626,17577
30631,17575
30634,17572
30752,17454
30755,17450
30757,17445
30758,17440
30758,11456
30757,11451
30755,11446
30752,11442
30634,11324
30630,11321
30624,11319
30620,11318
29447,11318
29341,11212
29341,10205
29447,10098
30581,10098
30586,10097
30591,10095
30595,10092
30713,9974
30716,9970
30718,9964
30718,9960
30718,5196
30718,5191
30715,5186
30713,5182
30595,5064
30590,5061
30585,5059
30581,5059
22470,5059
22465,5059
22460,5062
22457,5064
22338,5182
22335,5187
22333,5192
22333,5196
22333,6330
22226,6437
21219,6437
21112,6330
21112,5196
21111,5191
21109,5186
21106,5182
20988,5064
20984,5061
20979,5059
20974,5059
12864,5059
12859,5059
12854,5062
12850,5064
12732,5182
12729,5187
12727,5192
12726,5196
12726,9960
12727,9966
12729,9971
12732,9974
12850,10092
12855,10095
12860,10097
12864,10098
13998,10098
14104,10205
14104,11212
13998,11318
12864,11318
12859,11319
12854,11321
12850,11324
12732,11442
12729,11447
12727,11452
12726,11456
12726,17440
12727,17446
12729,17451
12732,17454
12850,17572
12855,17576
12860,17578
12864,17578
17147,17578
17254,17685
17254,18692
17147,18799
16014,18799
16008,18799
16003,18802
16000,18804
15882,18923
15878,18927
15876,18932
15876,18937
15876,21802
15799,21879
9457,21879
9419,21842
9419,2803
9526,2696
15059,2687
31940,2687
32018,2764
" /> 
<polyline style="fill-rule:evenodd;"
points="18002,19094
18003,19099
18005,19105
18008,19108
18126,19226
18130,19229
18135,19231
18140,19232
20139,19232
20246,19338
20246,21802
20169,21879
16386,21879
16309,21802
16309,19338
16416,19232
17431,19232
17437,19231
17442,19229
17445,19226
17563,19108
17566,19103
17568,19098
17569,19094
17569,18937
18002,18937
18002,19094
" /> 
<polyline style="fill-rule:evenodd;"
points="25876,19094
25877,19099
25879,19105
25882,19108
26000,19226
26004,19229
26009,19231
26014,19232
27029,19232
27136,19338
27136,21802
27059,21879
23276,21879
23199,21802
23199,19338
23305,19232
25305,19232
25311,19231
25316,19229
25319,19226
25437,19108
25440,19103
25442,19098
25443,19094
25443,18937
25876,18937
25876,19094
" /> 
<polyline style="fill-rule:evenodd;"
points="29026,11614
29026,11619
29029,11624
29031,11628
29149,11746
29154,11749
29159,11751
29163,11751
30218,11751
30325,11858
30325,17039
30218,17145
26014,17145
26008,17146
26003,17148
26000,17151
25882,17269
25878,17273
25876,17279
25876,17283
25876,17440
25443,17440
25443,17283
25442,17277
25440,17272
25437,17269
25319,17151
25315,17148
25309,17146
25305,17145
23305,17145
23199,17039
23199,15476
23276,15278
26457,11835
26648,11751
28455,11751
28460,11751
28465,11748
28469,11746
28587,11628
28590,11623
28592,11618
28592,11614
28592,11457
29026,11457
29026,11614
" /> 
<polyline style="fill-rule:evenodd;"
points="14852,11614
14853,11619
14855,11624
14858,11628
14976,11746
14981,11749
14986,11751
14990,11751
16797,11751
16988,11835
20169,15278
20246,15476
20246,17039
20139,17145
18140,17145
18134,17146
18129,17148
18126,17151
18008,17269
18004,17273
18002,17279
18002,17283
18002,17440
17569,17440
17569,17283
17568,17277
17566,17272
17563,17269
17445,17151
17441,17148
17435,17146
17431,17145
13266,17145
13159,17039
13159,11858
13266,11751
14281,11751
14287,11751
14292,11748
14295,11746
14413,11628
14417,11623
14419,11618
14419,11614
14419,11457
14852,11457
14852,11614
" /> 
<polyline style="fill-rule:evenodd;"
points="30285,5598
30285,9558
30179,9665
29163,9665
29158,9666
29153,9668
29149,9671
29031,9789
29028,9793
29026,9798
29026,9803
29026,9960
28592,9960
28592,9803
28592,9797
28589,9792
28587,9789
28469,9671
28464,9667
28459,9665
28455,9665
22872,9665
22766,9558
22766,7322
22765,7317
22763,7312
22760,7308
22642,7190
22637,7187
22632,7185
22628,7185
22471,7185
22471,6751
22628,6751
22633,6751
22638,6748
22642,6746
22760,6628
22763,6623
22765,6618
22766,6614
22766,5598
22872,5492
30179,5492
30285,5598
" /> 
<polyline style="fill-rule:evenodd;"
points="20679,5598
20679,6614
20680,6619
20682,6624
20685,6628
20803,6746
20807,6749
20813,6751
20817,6751
20974,6751
20974,7185
20817,7185
20811,7185
20806,7188
20803,7190
20685,7308
20682,7313
20680,7318
20679,7322
20679,9558
20573,9665
14990,9665
14985,9666
14980,9668
14976,9671
14858,9789
14855,9793
14853,9798
14852,9803
14852,9960
14419,9960
14419,9803
14418,9797
14416,9792
14413,9789
14295,9671
14291,9667
14286,9665
14281,9665
13266,9665
13159,9558
13159,5598
13266,5492
20573,5492
20679,5598
" /> 
<polyline style="fill-rule:evenodd;"
points="8986,2764
8986,19558
8880,19665
5943,19665
5837,19558
5837,4606
5836,4600
5834,4595
5831,4592
5713,4474
5708,4470
5703,4468
5699,4468
2951,4468
2874,4391
2874,3821
2896,3599
2960,3387
3063,3192
3203,3021
3373,2880
3567,2775
3778,2710
4000,2687
4006,2687
8909,2687
8986,2764
" /> 
<polyline style="fill-rule:evenodd;"
points="4144,5008
4144,19960
4144,19966
4147,19971
4149,19974
4268,20092
4272,20095
4277,20097
4281,20098
8880,20098
8986,20205
8986,21802
8909,21879
4008,21879
3786,21858
3575,21794
3380,21690
3208,21551
3068,21380
2963,21186
2897,20975
2874,20753
2874,20747
2874,4978
2951,4901
4037,4901
4144,5008
" /> 
<polyline style="fill-rule:evenodd;"
points="32966,2708
33177,2772
33372,2876
33543,3015
33684,3186
33789,3380
33855,3591
33878,3813
33878,3818
33878,11674
33801,11751
32557,11751
32451,11645
32451,2764
32528,2687
32744,2687
32966,2708
" /> 
<polyline style="fill-rule:evenodd;"
points="33885,12899
33886,12900
33886,12901
33886,12901
33889,12904
33892,12908
33892,12908
33892,12908
33896,12911
33899,12914
33899,12914
33900,12914
33902,12916
33907,12921
33907,13222
33904,13224
33900,13226
33900,13226
33900,13226
33896,13229
33893,13232
33893,13232
33892,13232
33890,13236
33887,13239
33886,13240
33886,13240
33884,13244
33882,13248
33882,13248
33882,13248
33880,13253
33879,13257
33879,13257
33879,13257
33878,13262
33878,13267
33878,13267
33878,13267
33878,13267
33878,13267
33878,20745
33856,20967
33792,21179
33689,21374
33549,21545
33379,21686
33185,21791
32974,21856
32752,21879
32746,21879
32528,21879
32451,21802
32451,12921
32557,12814
33801,12814
33885,12899
" /> 
<polyline style="fill-rule:evenodd;"
points="44852,9575
44852,9873
44746,9980
38778,9980
38701,9903
38701,9545
38778,9468
44746,9468
44852,9575
" /> 
<polyline style="fill-rule:evenodd;"
points="45718,8787
45718,9283
45612,9389
45530,9389
45339,9198
45334,9195
45329,9193
45325,9192
38778,9192
38701,9115
38701,8758
38778,8681
45612,8681
45718,8787
" /> 
<polyline style="fill-rule:evenodd;"
points="46270,7803
46270,9283
46163,9389
46101,9389
45994,9283
45994,8346
45993,8340
45991,8335
45988,8332
45870,8214
45866,8211
45861,8209
45856,8208
38778,8208
38701,8131
38701,7773
38778,7696
46163,7696
46270,7803
" /> 
<polyline style="fill-rule:evenodd;"
points="46821,7016
46821,9283
46714,9389
46652,9389
46545,9283
46545,7559
46544,7553
46542,7548
46539,7545
46421,7427
46417,7423
46412,7421
46407,7421
38778,7421
38701,7344
38701,6986
38778,6909
46714,6909
46821,7016
" /> 
<polyline style="fill-rule:evenodd;"
points="40797,6228
40797,6527
40691,6633
38778,6633
38701,6556
38701,6159
38738,6122
40691,6122
40797,6228
" /> 
<polyline style="fill-rule:evenodd;"
points="42608,10362
42608,10661
42502,10767
38778,10767
38701,10690
38701,10332
38778,10255
42502,10255
42608,10362
" /> 
<polyline style="fill-rule:evenodd;"
points="45167,10519
45167,11448
45061,11555
44683,11555
44577,11448
44577,10519
44683,10413
45061,10413
45167,10519
" /> 
<polyline style="fill-rule:evenodd;"
points="44144,12921
44144,13220
44037,13326
38778,13326
38694,13242
38693,13240
38693,13240
38693,13240
38690,13236
38687,13233
38687,13233
38686,13233
38683,13230
38679,13227
38679,13227
38679,13226
38677,13225
38671,13220
38671,12921
38677,12916
38678,12915
38679,12915
38679,12915
38682,12912
38686,12909
38686,12909
38686,12908
38689,12905
38692,12901
38692,12901
38692,12901
38694,12899
38778,12814
44037,12814
44144,12921
" /> 
<polyline style="fill-rule:evenodd;"
points="44144,13866
44144,16881
44037,16988
38778,16988
38701,16911
38701,13836
38778,13759
44037,13759
44144,13866
" /> 
<polyline style="fill-rule:evenodd;"
points="66309,2764
66309,3377
66202,3484
57037,3484
57032,3485
57027,3487
57023,3490
56905,3608
56902,3612
56900,3617
56900,3622
56900,3928
56793,4035
56494,4035
56388,3928
56388,3622
56387,3616
56385,3611
56382,3608
56264,3490
56259,3486
56254,3484
56250,3484
55699,3484
55693,3485
55688,3487
55685,3490
55567,3608
55563,3612
55561,3617
55561,3622
55561,5543
55454,5649
54526,5649
54419,5543
54419,2764
54496,2687
66232,2687
66309,2764
" /> 
<polyline style="fill-rule:evenodd;"
points="53986,2764
53986,5543
53880,5649
52951,5649
52844,5543
52844,3622
52844,3616
52841,3611
52839,3608
52721,3490
52716,3486
52711,3484
52707,3484
48100,3484
48095,3485
48090,3487
48086,3490
47968,3608
47965,3612
47963,3617
47963,3622
47963,3732
47856,3838
47675,3838
47569,3732
47569,3622
47568,3616
47566,3611
47563,3608
47445,3490
47441,3486
47435,3484
47431,3484
46959,3484
46953,3485
46948,3487
46945,3490
46827,3608
46823,3612
46821,3617
46821,3622
46821,6527
46714,6633
41337,6633
41230,6527
41230,5748
41230,5742
41227,5737
41225,5734
41106,5616
41102,5612
41097,5610
41092,5610
38778,5610
38701,5533
38701,3821
38723,3599
38786,3387
38890,3192
39030,3021
39200,2880
39394,2775
39605,2710
39827,2687
39833,2687
53909,2687
53986,2764
" /> 
<polyline style="fill-rule:evenodd;"
points="47608,6425
47608,7983
47502,8090
47282,8090
47175,7983
47175,6425
47282,6318
47502,6318
47608,6425
" /> 
<polyline style="fill-rule:evenodd;"
points="52411,6425
52411,6487
52305,6594
48612,6594
48607,6595
48602,6597
48598,6600
48480,6718
48477,6722
48475,6727
48474,6732
48474,7983
48368,8090
48148,8090
48041,7983
48041,6425
48148,6318
52305,6318
52411,6425
" /> 
<polyline style="fill-rule:evenodd;"
points="52411,4023
52411,5779
52305,5885
48109,5885
48002,5779
48002,5519
48109,5413
48191,5413
48382,5604
48386,5607
48391,5609
48396,5610
48730,5610
48736,5609
48741,5607
48744,5604
48862,5486
48866,5481
48868,5476
48868,5472
48868,4023
48975,3917
52305,3917
52411,4023
" /> 
<polyline style="fill-rule:evenodd;"
points="62923,4535
62923,8102
62817,8208
56849,8208
56742,8102
56742,6307
56849,6200
57187,6200
57293,6307
57293,7401
57294,7407
57296,7412
57299,7415
57417,7533
57422,7536
57427,7538
57431,7539
61880,7539
61885,7538
61890,7536
61894,7533
62012,7415
62015,7411
62017,7405
62018,7401
62018,4803
62017,4797
62015,4792
62012,4789
61894,4671
61889,4667
61884,4665
61880,4665
59754,4665
59748,4666
59743,4668
59740,4671
59622,4789
59619,4793
59617,4798
59616,4803
59616,5109
59510,5216
59290,5216
59183,5109
59183,4535
59290,4429
62817,4429
62923,4535
" /> 
<polyline style="fill-rule:evenodd;"
points="50561,12882
50561,13267
50562,13273
50564,13278
50567,13281
50685,13399
50689,13403
50694,13405
50699,13405
51486,13405
51492,13404
51497,13402
51500,13399
51618,13281
51622,13277
51624,13272
51624,13267
51624,12882
51731,12775
51990,12775
52096,12882
52096,20543
51990,20649
42242,20649
42136,20543
42136,17527
42242,17421
44037,17421
44144,17527
44144,18779
44144,18785
44147,18790
44149,18793
44268,18911
44272,18914
44277,18916
44281,18917
44400,18917
44405,18916
44410,18914
44413,18911
44532,18793
44535,18789
44537,18783
44537,18779
44537,18669
44644,18562
44706,18562
44813,18669
44813,18779
44814,18785
44816,18790
44819,18793
44937,18911
44941,18914
44946,18916
44951,18917
45187,18917
45192,18916
45198,18914
45201,18911
45319,18793
45322,18789
45324,18783
45325,18779
45325,18669
45431,18562
45494,18562
45600,18669
45600,18779
45601,18785
45603,18790
45606,18793
45724,18911
45729,18914
45734,18916
45738,18917
45974,18917
45980,18916
45985,18914
45988,18911
46106,18793
46110,18789
46112,18783
46112,18779
46112,18669
46219,18562
46281,18562
46388,18669
46388,18779
46389,18785
46391,18790
46394,18793
46512,18911
46516,18914
46521,18916
46526,18917
46762,18917
46767,18916
46772,18914
46776,18911
46894,18793
46897,18789
46899,18783
46900,18779
46900,18669
47006,18562
47069,18562
47175,18669
47175,18779
47176,18785
47178,18790
47181,18793
47299,18911
47303,18914
47309,18916
47313,18917
47549,18917
47555,18916
47560,18914
47563,18911
47681,18793
47685,18789
47686,18783
47687,18779
47687,18669
47794,18562
47856,18562
47963,18669
47963,18779
47963,18785
47966,18790
47968,18793
48086,18911
48091,18914
48096,18916
48100,18917
48848,18917
48854,18916
48859,18914
48862,18911
48980,18793
48984,18789
48986,18783
48986,18779
48986,18669
49093,18562
49155,18562
49262,18669
49262,18779
49263,18785
49265,18790
49268,18793
49386,18911
49390,18914
49395,18916
49400,18917
49990,18917
49996,18916
50001,18914
50004,18911
50122,18793
50125,18789
50127,18783
50128,18779
50128,18669
50235,18562
50297,18562
50404,18669
50404,18779
50404,18785
50407,18790
50409,18793
50527,18911
50532,18914
50537,18916
50541,18917
50738,18917
50744,18916
50749,18914
50752,18911
50870,18793
50874,18789
50875,18783
50876,18779
50876,14685
50875,14679
50873,14674
50870,14671
50752,14553
50748,14549
50742,14547
50738,14547
50392,14547
50285,14440
50285,12882
50392,12775
50454,12775
50561,12882
" /> 
<polyline style="fill-rule:evenodd;"
points="48435,15480
48435,16094
48328,16200
47715,16200
47608,16094
47608,15480
47715,15374
48328,15374
48435,15480
" /> 
<polyline style="fill-rule:evenodd;"
points="49537,15480
49537,16094
49431,16200
48817,16200
48711,16094
48711,15480
48817,15374
49431,15374
49537,15480
" /> 
<polyline style="fill-rule:evenodd;"
points="64583,7061
64587,7064
64592,7066
64596,7066
65691,7066
65797,7173
65797,9251
65798,9257
65800,9262
65803,9265
65921,9383
65926,9387
65931,9389
65935,9389
69588,9389
69695,9496
69695,14046
69588,14153
68218,14153
68213,14154
68208,14156
68205,14159
68086,14277
68083,14281
68081,14287
68081,14291
68081,16428
67974,16535
65983,16535
65876,16428
65876,16307
65983,16200
67431,16200
67437,16200
67442,16197
67445,16195
67563,16076
67566,16072
67568,16067
67569,16062
67569,15748
67568,15742
67566,15737
67563,15734
67445,15616
67441,15612
67435,15610
67431,15610
67360,15610
67254,15503
67254,15362
67360,15255
67431,15255
67437,15255
67442,15252
67445,15250
67563,15132
67566,15127
67568,15122
67569,15118
67569,14881
67568,14876
67566,14871
67563,14867
67445,14749
67441,14746
67435,14744
67431,14744
64132,14744
64026,14637
64026,6937
64132,6830
64352,6830
64583,7061
" /> 
<polyline style="fill-rule:evenodd;"
points="42608,11307
42608,11606
42502,11712
41573,11712
41467,11606
41467,11307
41573,11200
42502,11200
42608,11307
" /> 
<polyline style="fill-rule:evenodd;"
points="63474,16897
63474,17314
63368,17421
62352,17421
62347,17422
62342,17424
62338,17427
62220,17545
62217,17549
62215,17554
62215,17559
62215,17992
62215,17997
62218,18002
62220,18006
62338,18124
62343,18127
62348,18129
62352,18129
62462,18129
62569,18236
62569,18456
62462,18562
62164,18562
62057,18456
62057,16897
62164,16791
63368,16791
63474,16897
" /> 
<polyline style="fill-rule:evenodd;"
points="65443,18236
65443,18456
65336,18562
64833,18562
64827,18563
64822,18566
64819,18568
64701,18686
64697,18691
64695,18696
64695,18700
64695,18850
64588,18956
63975,18956
63868,18850
63868,18700
63867,18695
63865,18690
63862,18686
63744,18568
63740,18565
63735,18563
63730,18562
63345,18562
63238,18456
63238,18236
63345,18129
65336,18129
65443,18236
" /> 
<polyline style="fill-rule:evenodd;"
points="67529,17370
67529,19755
67423,19862
65983,19862
65876,19755
65876,19535
65983,19429
66565,19429
66570,19428
66575,19426
66579,19423
66697,19305
66700,19300
66702,19295
66703,19291
66703,18700
66702,18695
66700,18690
66697,18686
66579,18568
66574,18565
66569,18563
66565,18562
66061,18562
65955,18456
65955,18236
66061,18129
66565,18129
66570,18129
66575,18126
66579,18124
66697,18006
66700,18001
66702,17996
66703,17992
66703,17598
66702,17592
66700,17587
66697,17584
66579,17466
66574,17463
66569,17461
66565,17460
65983,17460
65884,17362
65983,17263
67423,17263
67529,17370
" /> 
<polyline style="fill-rule:evenodd;"
points="69705,16632
69705,20745
69683,20967
69619,21179
69515,21374
69376,21545
69206,21686
69011,21791
68800,21856
68578,21879
68573,21879
66662,21879
66585,21802
66585,20559
66691,20452
67825,20452
67830,20451
67835,20449
67839,20446
67957,20328
67960,20324
67962,20319
67963,20314
67963,17370
68069,17263
68376,17263
68381,17263
68386,17260
68390,17258
68508,17139
68511,17135
68513,17130
68514,17125
68514,16661
68620,16555
69628,16555
69705,16632
" /> 
<polyline style="fill-rule:evenodd;"
points="69705,14663
69705,15178
69628,15255
68620,15255
68514,15149
68514,14693
68620,14586
69628,14586
69705,14663
" /> 
<polyline style="fill-rule:evenodd;"
points="52411,7134
52411,7834
52412,7840
52414,7845
52417,7848
52535,7966
52540,7970
52545,7971
52549,7972
52982,7972
52988,7971
52993,7969
52996,7966
53114,7848
53118,7844
53120,7838
53120,7834
53120,7606
53227,7500
53604,7500
53711,7606
53711,7834
53711,7840
53714,7845
53716,7848
53834,7966
53839,7970
53844,7971
53848,7972
54557,7972
54563,7971
54568,7969
54571,7966
54689,7848
54692,7844
54694,7838
54695,7834
54695,7606
54801,7500
55179,7500
55285,7606
55285,7834
55286,7840
55288,7845
55291,7848
55409,7966
55414,7970
55419,7971
55423,7972
56202,7972
56309,8079
56309,8503
56310,8509
56312,8514
56315,8517
56433,8635
56437,8639
56443,8641
56447,8641
57029,8641
57136,8748
57136,8976
57137,8981
57139,8986
57142,8990
57260,9108
57264,9111
57269,9113
57274,9114
58258,9114
58263,9113
58268,9111
58272,9108
58390,8990
58393,8985
58395,8980
58396,8976
58396,8748
58502,8641
63486,8641
63592,8748
63592,14637
63486,14744
62549,14744
62544,14744
62539,14747
62535,14749
62417,14867
62414,14872
62412,14877
62411,14881
62411,15669
62412,15674
62414,15679
62417,15683
62535,15801
62540,15804
62545,15806
62549,15807
63328,15807
63435,15913
63435,16330
63328,16437
61762,16437
61756,16437
61751,16440
61748,16442
61630,16560
61626,16565
61624,16570
61624,16574
61624,18897
61625,18903
61627,18908
61630,18911
61748,19029
61752,19032
61757,19034
61762,19035
61950,19035
62057,19142
62057,19330
62058,19336
62060,19341
62063,19344
62181,19462
62185,19466
62191,19468
62195,19468
62502,19468
62608,19575
62608,19716
62502,19822
62195,19822
62189,19823
62184,19825
62181,19828
62063,19946
62059,19951
62058,19956
62057,19960
62057,20236
62058,20241
62060,20246
62063,20250
62181,20368
62185,20371
62191,20373
62195,20374
62541,20374
62648,20480
62648,20621
62541,20728
62195,20728
62189,20729
62184,20731
62181,20734
62063,20852
62059,20856
62058,20861
62057,20866
62057,21062
62058,21068
62060,21073
62063,21076
62181,21195
62185,21198
62191,21200
62195,21200
63789,21200
63795,21200
63800,21197
63803,21195
63994,21003
66045,21003
66152,21110
66152,21802
66074,21879
39835,21879
39613,21858
39401,21794
39206,21690
39035,21551
38894,21380
38789,21186
38724,20975
38701,20753
38701,20747
38701,17498
38778,17421
41596,17421
41703,17527
41703,20944
41704,20950
41706,20955
41708,20958
41827,21076
41831,21080
41836,21082
41841,21082
52392,21082
52397,21081
52402,21079
52406,21076
52524,20958
52527,20954
52529,20949
52529,20944
52529,12559
52529,12553
52526,12548
52524,12545
52406,12427
52401,12423
52396,12421
52392,12421
51731,12421
51624,12314
51624,11929
51623,11923
51621,11918
51618,11915
51500,11797
51496,11793
51490,11791
51486,11791
50699,11791
50693,11792
50688,11794
50685,11797
50567,11915
50563,11919
50561,11924
50561,11929
50561,12314
50454,12421
50392,12421
50285,12314
50285,9921
50285,9915
50282,9910
50280,9907
50162,9789
50157,9785
50152,9783
50148,9783
49053,9783
48947,9676
48947,7134
49053,7027
52305,7027
52411,7134
" /> 
</g>
<g style="fill:#FFFFFF; fill-opacity:1.0; 
stroke:#FFFFFF; stroke-width:39.3701; stroke-opacity:1; 
stroke-linecap:round; stroke-linejoin:round;">
</g>
<g style="fill:#FFFFFF; fill-opacity:1.0; 
stroke:#FFFFFF; stroke-width:0; stroke-opacity:1; 
stroke-linecap:round; stroke-linejoin:round;">
<circle cx="50659.9" cy="4881.89" r="196.85" /> 
</g>
<g style="fill:#FFFFFF; fill-opacity:1.0; 
stroke:#FFFFFF; stroke-width:39.3701; stroke-opacity:1; 
stroke-linecap:round; stroke-linejoin:round;">
</g>
<g style="fill:#FFFFFF; fill-opacity:1.0; 
stroke:#FFFFFF; stroke-width:0; stroke-opacity:1; 
stroke-linecap:round; stroke-linejoin:round;">
<circle cx="60620.5" cy="7874.02" r="196.85" /> 
</g>
<g style="fill:#FFFFFF; fill-opacity:1.0; 
stroke:#FFFFFF; stroke-width:39.3701; stroke-opacity:1; 
stroke-linecap:round; stroke-linejoin:round;">
</g>
<g style="fill:#FFFFFF; fill-opacity:1.0; 
stroke:#FFFFFF; stroke-width:0; stroke-opacity:1; 
stroke-linecap:round; stroke-linejoin:round;">
<circle cx="51486.7" cy="15787.4" r="196.85" /> 
</g>
<g style="fill:#FFFFFF; fill-opacity:1.0; 
stroke:#FFFFFF; stroke-width:39.3701; stroke-opacity:1; 
stroke-linecap:round; stroke-linejoin:round;">
</g>
<g style="fill:#FFFFFF; fill-opacity:1.0; 
stroke:#FFFFFF; stroke-width:0; stroke-opacity:1; 
stroke-linecap:round; stroke-linejoin:round;">
<circle cx="67077.2" cy="18543.3" r="196.85" /> 
</g>
<g style="fill:#FFFFFF; fill-opacity:1.0; 
stroke:#FFFFFF; stroke-width:39.3701; stroke-opacity:1; 
stroke-linecap:round; stroke-linejoin:round;">
</g>
<g style="fill:#FFFFFF; fill-opacity:1.0; 
stroke:#FFFFFF; stroke-width:0; stroke-opacity:1; 
stroke-linecap:round; stroke-linejoin:round;">
<circle cx="42037.9" cy="10511.8" r="196.85" /> 
</g>
<g style="fill:#FFFFFF; fill-opacity:1.0; 
stroke:#FFFFFF; stroke-width:39.3701; stroke-opacity:1; 
stroke-linecap:round; stroke-linejoin:round;">
</g>
<g style="fill:#FFFFFF; fill-opacity:1.0; 
stroke:#FFFFFF; stroke-width:0; stroke-opacity:1; 
stroke-linecap:round; stroke-linejoin:round;">
<circle cx="66053.6" cy="4448.82" r="196.85" /> 
</g>
<g style="fill:#FFFFFF; fill-opacity:1.0; 
stroke:#FFFFFF; stroke-width:39.3701; stroke-opacity:1; 
stroke-linecap:round; stroke-linejoin:round;">
</g>
<g style="fill:#FFFFFF; fill-opacity:1.0; 
stroke:#FFFFFF; stroke-width:0; stroke-opacity:1; 
stroke-linecap:round; stroke-linejoin:round;">
<circle cx="69124.5" cy="13661.4" r="196.85" /> 
</g>
<g style="fill:#FFFFFF; fill-opacity:1.0; 
stroke:#FFFFFF; stroke-width:39.3701; stroke-opacity:1; 
stroke-linecap:round; stroke-linejoin:round;">
</g>
<g style="fill:#FFFFFF; fill-opacity:1.0; 
stroke:#FFFFFF; stroke-width:0; stroke-opacity:1; 
stroke-linecap:round; stroke-linejoin:round;">
<circle cx="64282" cy="18543.3" r="196.85" /> 
</g>
<g style="fill:#FFFFFF; fill-opacity:1.0; 
stroke:#FFFFFF; stroke-width:39.3701; stroke-opacity:1; 
stroke-linecap:round; stroke-linejoin:round;">
</g>
<g style="fill:#FFFFFF; fill-opacity:1.0; 
stroke:#FFFFFF; stroke-width:0; stroke-opacity:1; 
stroke-linecap:round; stroke-linejoin:round;">
<circle cx="42037.9" cy="11456.7" r="196.85" /> 
</g>
<g style="fill:#FFFFFF; fill-opacity:1.0; 
stroke:#FFFFFF; stroke-width:39.3701; stroke-opacity:1; 
stroke-linecap:round; stroke-linejoin:round;">
</g>
<g style="fill:#FFFFFF; fill-opacity:1.0; 
stroke:#FFFFFF; stroke-width:0; stroke-opacity:1; 
stroke-linecap:round; stroke-linejoin:round;">
<circle cx="40384.3" cy="6377.95" r="196.85" /> 
</g>
<g style="fill:#FFFFFF; fill-opacity:1.0; 
stroke:#FFFFFF; stroke-width:39.3701; stroke-opacity:1; 
stroke-linecap:round; stroke-linejoin:round;">
</g>
<g style="fill:#FFFFFF; fill-opacity:1.0; 
stroke:#FFFFFF; stroke-width:0; stroke-opacity:1; 
stroke-linecap:round; stroke-linejoin:round;">
<circle cx="48022.1" cy="15787.4" r="196.85" /> 
</g>
<g style="fill:#FFFFFF; fill-opacity:1.0; 
stroke:#FFFFFF; stroke-width:39.3701; stroke-opacity:1; 
stroke-linecap:round; stroke-linejoin:round;">
</g>
<g style="fill:#FFFFFF; fill-opacity:1.0; 
stroke:#FFFFFF; stroke-width:0; stroke-opacity:1; 
stroke-linecap:round; stroke-linejoin:round;">
<circle cx="44596.9" cy="9724.41" r="196.85" /> 
</g>
<g style="fill:#FFFFFF; fill-opacity:1.0; 
stroke:#FFFFFF; stroke-width:39.3701; stroke-opacity:1; 
stroke-linecap:round; stroke-linejoin:round;">
</g>
<g style="fill:#FFFFFF; fill-opacity:1.0; 
stroke:#FFFFFF; stroke-width:0; stroke-opacity:1; 
stroke-linecap:round; stroke-linejoin:round;">
<circle cx="49124.5" cy="15787.4" r="196.85" /> 
</g>
<g style="fill:#FFFFFF; fill-opacity:1.0; 
stroke:#FFFFFF; stroke-width:39.3701; stroke-opacity:1; 
stroke-linecap:round; stroke-linejoin:round;">
</g>
<g style="fill:#FFFFFF; fill-opacity:1.0; 
stroke:#FFFFFF; stroke-width:0; stroke-opacity:1; 
stroke-linecap:round; stroke-linejoin:round;">
<circle cx="43258.3" cy="15787.4" r="196.85" /> 
</g>
<g style="fill:#FFFFFF; fill-opacity:1.0; 
stroke:#FFFFFF; stroke-width:39.3701; stroke-opacity:1; 
stroke-linecap:round; stroke-linejoin:round;">
</g>
<g style="fill:#FFFFFF; fill-opacity:1.0; 
stroke:#FFFFFF; stroke-width:0; stroke-opacity:1; 
stroke-linecap:round; stroke-linejoin:round;">
<circle cx="6762.28" cy="21456.7" r="157.48" /> 
</g>
<g style="fill:#FFFFFF; fill-opacity:1.0; 
stroke:#FFFFFF; stroke-width:39.3701; stroke-opacity:1; 
stroke-linecap:round; stroke-linejoin:round;">
</g>
<g style="fill:#FFFFFF; fill-opacity:1.0; 
stroke:#FFFFFF; stroke-width:0; stroke-opacity:1; 
stroke-linecap:round; stroke-linejoin:round;">
<circle cx="7549.68" cy="21456.7" r="157.48" /> 
</g>
<g style="fill:#FFFFFF; fill-opacity:1.0; 
stroke:#FFFFFF; stroke-width:39.3701; stroke-opacity:1; 
stroke-linecap:round; stroke-linejoin:round;">
</g>
<g style="fill:#FFFFFF; fill-opacity:1.0; 
stroke:#FFFFFF; stroke-width:0; stroke-opacity:1; 
stroke-linecap:round; stroke-linejoin:round;">
<circle cx="8337.08" cy="21456.7" r="157.48" /> 
</g>
<g style="fill:#FFFFFF; fill-opacity:1.0; 
stroke:#FFFFFF; stroke-width:39.3701; stroke-opacity:1; 
stroke-linecap:round; stroke-linejoin:round;">
</g>
<g style="fill:#FFFFFF; fill-opacity:1.0; 
stroke:#FFFFFF; stroke-width:0; stroke-opacity:1; 
stroke-linecap:round; stroke-linejoin:round;">
<circle cx="64242.6" cy="21456.7" r="157.48" /> 
</g>
<g style="fill:#FFFFFF; fill-opacity:1.0; 
stroke:#FFFFFF; stroke-width:39.3701; stroke-opacity:1; 
stroke-linecap:round; stroke-linejoin:round;">
</g>
<g style="fill:#FFFFFF; fill-opacity:1.0; 
stroke:#FFFFFF; stroke-width:0; stroke-opacity:1; 
stroke-linecap:round; stroke-linejoin:round;">
<circle cx="65030" cy="21456.7" r="157.48" /> 
</g>
<g style="fill:#FFFFFF; fill-opacity:1.0; 
stroke:#FFFFFF; stroke-width:39.3701; stroke-opacity:1; 
stroke-linecap:round; stroke-linejoin:round;">
</g>
<g style="fill:#FFFFFF; fill-opacity:1.0; 
stroke:#FFFFFF; stroke-width:0; stroke-opacity:1; 
stroke-linecap:round; stroke-linejoin:round;">
<circle cx="65817.4" cy="21456.7" r="157.48" /> 
</g>
<g style="fill:#FFFFFF; fill-opacity:1.0; 
stroke:#FFFFFF; stroke-width:39.3701; stroke-opacity:1; 
stroke-linecap:round; stroke-linejoin:round;">
</g>
<g style="fill:#FFFFFF; fill-opacity:1.0; 
stroke:#FFFFFF; stroke-width:0; stroke-opacity:1; 
stroke-linecap:round; stroke-linejoin:round;">
<circle cx="6762.28" cy="3110.24" r="157.48" /> 
</g>
<g style="fill:#FFFFFF; fill-opacity:1.0; 
stroke:#FFFFFF; stroke-width:39.3701; stroke-opacity:1; 
stroke-linecap:round; stroke-linejoin:round;">
</g>
<g style="fill:#FFFFFF; fill-opacity:1.0; 
stroke:#FFFFFF; stroke-width:0; stroke-opacity:1; 
stroke-linecap:round; stroke-linejoin:round;">
<circle cx="7549.68" cy="3110.24" r="157.48" /> 
</g>
<g style="fill:#FFFFFF; fill-opacity:1.0; 
stroke:#FFFFFF; stroke-width:39.3701; stroke-opacity:1; 
stroke-linecap:round; stroke-linejoin:round;">
</g>
<g style="fill:#FFFFFF; fill-opacity:1.0; 
stroke:#FFFFFF; stroke-width:0; stroke-opacity:1; 
stroke-linecap:round; stroke-linejoin:round;">
<circle cx="8337.08" cy="3110.24" r="157.48" /> 
</g>
<g style="fill:#FFFFFF; fill-opacity:1.0; 
stroke:#FFFFFF; stroke-width:39.3701; stroke-opacity:1; 
stroke-linecap:round; stroke-linejoin:round;">
</g>
<g style="fill:#FFFFFF; fill-opacity:1.0; 
stroke:#FFFFFF; stroke-width:0; stroke-opacity:1; 
stroke-linecap:round; stroke-linejoin:round;">
<circle cx="51644.2" cy="3110.24" r="157.48" /> 
</g>
<g style="fill:#FFFFFF; fill-opacity:1.0; 
stroke:#FFFFFF; stroke-width:39.3701; stroke-opacity:1; 
stroke-linecap:round; stroke-linejoin:round;">
</g>
<g style="fill:#FFFFFF; fill-opacity:1.0; 
stroke:#FFFFFF; stroke-width:0; stroke-opacity:1; 
stroke-linecap:round; stroke-linejoin:round;">
<circle cx="50856.8" cy="3110.24" r="157.48" /> 
</g>
<g style="fill:#FFFFFF; fill-opacity:1.0; 
stroke:#FFFFFF; stroke-width:39.3701; stroke-opacity:1; 
stroke-linecap:round; stroke-linejoin:round;">
</g>
<g style="fill:#FFFFFF; fill-opacity:1.0; 
stroke:#FFFFFF; stroke-width:0; stroke-opacity:1; 
stroke-linecap:round; stroke-linejoin:round;">
<circle cx="50069.4" cy="3110.24" r="157.48" /> 
</g>
<g style="fill:#FFFFFF; fill-opacity:1.0; 
stroke:#FFFFFF; stroke-width:39.3701; stroke-opacity:1; 
stroke-linecap:round; stroke-linejoin:round;">
</g>
<g style="fill:#FFFFFF; fill-opacity:1.0; 
stroke:#FFFFFF; stroke-width:0; stroke-opacity:1; 
stroke-linecap:round; stroke-linejoin:round;">
<circle cx="39045.7" cy="7952.76" r="157.48" /> 
</g>
<g style="fill:#FFFFFF; fill-opacity:1.0; 
stroke:#FFFFFF; stroke-width:39.3701; stroke-opacity:1; 
stroke-linecap:round; stroke-linejoin:round;">
</g>
<g style="fill:#FFFFFF; fill-opacity:1.0; 
stroke:#FFFFFF; stroke-width:0; stroke-opacity:1; 
stroke-linecap:round; stroke-linejoin:round;">
<circle cx="39045.7" cy="7165.35" r="157.48" /> 
</g>
<g style="fill:#FFFFFF; fill-opacity:1.0; 
stroke:#FFFFFF; stroke-width:39.3701; stroke-opacity:1; 
stroke-linecap:round; stroke-linejoin:round;">
</g>
<g style="fill:#FFFFFF; fill-opacity:1.0; 
stroke:#FFFFFF; stroke-width:0; stroke-opacity:1; 
stroke-linecap:round; stroke-linejoin:round;">
<circle cx="39045.7" cy="6377.95" r="157.48" /> 
</g>
<g style="fill:#FFFFFF; fill-opacity:1.0; 
stroke:#FFFFFF; stroke-width:39.3701; stroke-opacity:1; 
stroke-linecap:round; stroke-linejoin:round;">
</g>
<g style="fill:#FFFFFF; fill-opacity:1.0; 
stroke:#FFFFFF; stroke-width:0; stroke-opacity:1; 
stroke-linecap:round; stroke-linejoin:round;">
<circle cx="39045.7" cy="8937.01" r="157.48" /> 
</g>
<g style="fill:#FFFFFF; fill-opacity:1.0; 
stroke:#FFFFFF; stroke-width:39.3701; stroke-opacity:1; 
stroke-linecap:round; stroke-linejoin:round;">
</g>
<g style="fill:#FFFFFF; fill-opacity:1.0; 
stroke:#FFFFFF; stroke-width:0; stroke-opacity:1; 
stroke-linecap:round; stroke-linejoin:round;">
<circle cx="39045.7" cy="9724.41" r="157.48" /> 
</g>
<g style="fill:#FFFFFF; fill-opacity:1.0; 
stroke:#FFFFFF; stroke-width:39.3701; stroke-opacity:1; 
stroke-linecap:round; stroke-linejoin:round;">
</g>
<g style="fill:#FFFFFF; fill-opacity:1.0; 
stroke:#FFFFFF; stroke-width:0; stroke-opacity:1; 
stroke-linecap:round; stroke-linejoin:round;">
<circle cx="39045.7" cy="10511.8" r="157.48" /> 
</g>
<g style="fill:#FFFFFF; fill-opacity:1.0; 
stroke:#FFFFFF; stroke-width:39.3701; stroke-opacity:1; 
stroke-linecap:round; stroke-linejoin:round;">
</g>
<g style="fill:#FFFFFF; fill-opacity:1.0; 
stroke:#FFFFFF; stroke-width:0; stroke-opacity:1; 
stroke-linecap:round; stroke-linejoin:round;">
<circle cx="65817.4" cy="3110.24" r="157.48" /> 
</g>
<g style="fill:#FFFFFF; fill-opacity:1.0; 
stroke:#FFFFFF; stroke-width:39.3701; stroke-opacity:1; 
stroke-linecap:round; stroke-linejoin:round;">
</g>
<g style="fill:#FFFFFF; fill-opacity:1.0; 
stroke:#FFFFFF; stroke-width:0; stroke-opacity:1; 
stroke-linecap:round; stroke-linejoin:round;">
<circle cx="65030" cy="3110.24" r="157.48" /> 
</g>
<g style="fill:#FFFFFF; fill-opacity:1.0; 
stroke:#FFFFFF; stroke-width:39.3701; stroke-opacity:1; 
stroke-linecap:round; stroke-linejoin:round;">
</g>
<g style="fill:#FFFFFF; fill-opacity:1.0; 
stroke:#FFFFFF; stroke-width:0; stroke-opacity:1; 
stroke-linecap:round; stroke-linejoin:round;">
<circle cx="64242.6" cy="3110.24" r="157.48" /> 
</g>
<g style="fill:#FFFFFF; fill-opacity:1.0; 
stroke:#FFFFFF; stroke-width:39.3701; stroke-opacity:1; 
stroke-linecap:round; stroke-linejoin:round;">
</g>
<g style="fill:#FFFFFF; fill-opacity:1.0; 
stroke:#FFFFFF; stroke-width:0; stroke-opacity:1; 
stroke-linecap:round; stroke-linejoin:round;">
<circle cx="20935.5" cy="3110.24" r="157.48" /> 
</g>
<g style="fill:#FFFFFF; fill-opacity:1.0; 
stroke:#FFFFFF; stroke-width:39.3701; stroke-opacity:1; 
stroke-linecap:round; stroke-linejoin:round;">
</g>
<g style="fill:#FFFFFF; fill-opacity:1.0; 
stroke:#FFFFFF; stroke-width:0; stroke-opacity:1; 
stroke-linecap:round; stroke-linejoin:round;">
<circle cx="21722.9" cy="3110.24" r="157.48" /> 
</g>
<g style="fill:#FFFFFF; fill-opacity:1.0; 
stroke:#FFFFFF; stroke-width:39.3701; stroke-opacity:1; 
stroke-linecap:round; stroke-linejoin:round;">
</g>
<g style="fill:#FFFFFF; fill-opacity:1.0; 
stroke:#FFFFFF; stroke-width:0; stroke-opacity:1; 
stroke-linecap:round; stroke-linejoin:round;">
<circle cx="22510.3" cy="3110.24" r="157.48" /> 
</g>
<g style="fill:#FFFFFF; fill-opacity:1.0; 
stroke:#FFFFFF; stroke-width:39.3701; stroke-opacity:1; 
stroke-linecap:round; stroke-linejoin:round;">
</g>
<g style="fill:#FFFFFF; fill-opacity:1.0; 
stroke:#FFFFFF; stroke-width:0; stroke-opacity:1; 
stroke-linecap:round; stroke-linejoin:round;">
<circle cx="50069.4" cy="21456.7" r="157.48" /> 
</g>
<g style="fill:#FFFFFF; fill-opacity:1.0; 
stroke:#FFFFFF; stroke-width:39.3701; stroke-opacity:1; 
stroke-linecap:round; stroke-linejoin:round;">
</g>
<g style="fill:#FFFFFF; fill-opacity:1.0; 
stroke:#FFFFFF; stroke-width:0; stroke-opacity:1; 
stroke-linecap:round; stroke-linejoin:round;">
<circle cx="50856.8" cy="21456.7" r="157.48" /> 
</g>
<g style="fill:#FFFFFF; fill-opacity:1.0; 
stroke:#FFFFFF; stroke-width:39.3701; stroke-opacity:1; 
stroke-linecap:round; stroke-linejoin:round;">
</g>
<g style="fill:#FFFFFF; fill-opacity:1.0; 
stroke:#FFFFFF; stroke-width:0; stroke-opacity:1; 
stroke-linecap:round; stroke-linejoin:round;">
<circle cx="51644.2" cy="21456.7" r="157.48" /> 
</g>
<g style="fill:#FFFFFF; fill-opacity:1.0; 
stroke:#FFFFFF; stroke-width:39.3701; stroke-opacity:1; 
stroke-linecap:round; stroke-linejoin:round;">
</g>
<g style="fill:#FFFFFF; fill-opacity:1.0; 
stroke:#FFFFFF; stroke-width:0; stroke-opacity:1; 
stroke-linecap:round; stroke-linejoin:round;">
<circle cx="20935.5" cy="21456.7" r="157.48" /> 
</g>
<g style="fill:#FFFFFF; fill-opacity:1.0; 
stroke:#FFFFFF; stroke-width:39.3701; stroke-opacity:1; 
stroke-linecap:round; stroke-linejoin:round;">
</g>
<g style="fill:#FFFFFF; fill-opacity:1.0; 
stroke:#FFFFFF; stroke-width:0; stroke-opacity:1; 
stroke-linecap:round; stroke-linejoin:round;">
<circle cx="21722.9" cy="21456.7" r="157.48" /> 
</g>
<g style="fill:#FFFFFF; fill-opacity:1.0; 
stroke:#FFFFFF; stroke-width:39.3701; stroke-opacity:1; 
stroke-linecap:round; stroke-linejoin:round;">
</g>
<g style="fill:#FFFFFF; fill-opacity:1.0; 
stroke:#FFFFFF; stroke-width:0; stroke-opacity:1; 
stroke-linecap:round; stroke-linejoin:round;">
<circle cx="22510.3" cy="21456.7" r="157.48" /> 
</g>
<g style="fill:#FFFFFF; fill-opacity:1.0; 
stroke:#FFFFFF; stroke-width:39.3701; stroke-opacity:1; 
stroke-linecap:round; stroke-linejoin:round;">
</g>
<g style="fill:#FFFFFF; fill-opacity:1.0; 
stroke:#FFFFFF; stroke-width:0; stroke-opacity:1; 
stroke-linecap:round; stroke-linejoin:round;">
<circle cx="39045.7" cy="13070.9" r="157.48" /> 
</g>
<g style="fill:#FFFFFF; fill-opacity:1.0; 
stroke:#FFFFFF; stroke-width:39.3701; stroke-opacity:1; 
stroke-linecap:round; stroke-linejoin:round;">
</g>
<g style="fill:#FFFFFF; fill-opacity:1.0; 
stroke:#FFFFFF; stroke-width:0; stroke-opacity:1; 
stroke-linecap:round; stroke-linejoin:round;">
<circle cx="39045.7" cy="12283.5" r="157.48" /> 
</g>
<g style="fill:#FFFFFF; fill-opacity:1.0; 
stroke:#FFFFFF; stroke-width:39.3701; stroke-opacity:1; 
stroke-linecap:round; stroke-linejoin:round;">
</g>
<g style="fill:#FFFFFF; fill-opacity:1.0; 
stroke:#FFFFFF; stroke-width:0; stroke-opacity:1; 
stroke-linecap:round; stroke-linejoin:round;">
<circle cx="39045.7" cy="11496.1" r="157.48" /> 
</g>
<g style="fill:#FFFFFF; fill-opacity:1.0; 
stroke:#FFFFFF; stroke-width:39.3701; stroke-opacity:1; 
stroke-linecap:round; stroke-linejoin:round;">
</g>
<g style="fill:#FFFFFF; fill-opacity:1.0; 
stroke:#FFFFFF; stroke-width:0; stroke-opacity:1; 
stroke-linecap:round; stroke-linejoin:round;">
<circle cx="33533.9" cy="11496.1" r="157.48" /> 
</g>
<g style="fill:#FFFFFF; fill-opacity:1.0; 
stroke:#FFFFFF; stroke-width:39.3701; stroke-opacity:1; 
stroke-linecap:round; stroke-linejoin:round;">
</g>
<g style="fill:#FFFFFF; fill-opacity:1.0; 
stroke:#FFFFFF; stroke-width:0; stroke-opacity:1; 
stroke-linecap:round; stroke-linejoin:round;">
<circle cx="33533.9" cy="12283.5" r="157.48" /> 
</g>
<g style="fill:#FFFFFF; fill-opacity:1.0; 
stroke:#FFFFFF; stroke-width:39.3701; stroke-opacity:1; 
stroke-linecap:round; stroke-linejoin:round;">
</g>
<g style="fill:#FFFFFF; fill-opacity:1.0; 
stroke:#FFFFFF; stroke-width:0; stroke-opacity:1; 
stroke-linecap:round; stroke-linejoin:round;">
<circle cx="33533.9" cy="13070.9" r="157.48" /> 
</g>
<g style="fill:#FFFFFF; fill-opacity:1.0; 
stroke:#FFFFFF; stroke-width:39.3701; stroke-opacity:1; 
stroke-linecap:round; stroke-linejoin:round;">
</g>
<g style="fill:#FFFFFF; fill-opacity:1.0; 
stroke:#FFFFFF; stroke-width:0; stroke-opacity:1; 
stroke-linecap:round; stroke-linejoin:round;">
<circle cx="69006.4" cy="14921.3" r="196.85" /> 
</g>
<g style="fill:#FFFFFF; fill-opacity:1.0; 
stroke:#FFFFFF; stroke-width:39.3701; stroke-opacity:1; 
stroke-linecap:round; stroke-linejoin:round;">
</g>
<g style="fill:#FFFFFF; fill-opacity:1.0; 
stroke:#FFFFFF; stroke-width:0; stroke-opacity:1; 
stroke-linecap:round; stroke-linejoin:round;">
<circle cx="69006.4" cy="17283.5" r="196.85" /> 
</g>
<g style="fill:#FFFFFF; fill-opacity:1.0; 
stroke:#FFFFFF; stroke-width:39.3701; stroke-opacity:1; 
stroke-linecap:round; stroke-linejoin:round;">
</g>
<g style="fill:#FFFFFF; fill-opacity:1.0; 
stroke:#FFFFFF; stroke-width:0; stroke-opacity:1; 
stroke-linecap:round; stroke-linejoin:round;">
<circle cx="39400.1" cy="16023.6" r="196.85" /> 
</g>
<g style="fill:#FFFFFF; fill-opacity:1.0; 
stroke:#FFFFFF; stroke-width:39.3701; stroke-opacity:1; 
stroke-linecap:round; stroke-linejoin:round;">
</g>
<g style="fill:#FFFFFF; fill-opacity:1.0; 
stroke:#FFFFFF; stroke-width:0; stroke-opacity:1; 
stroke-linecap:round; stroke-linejoin:round;">
<circle cx="39400.1" cy="18385.8" r="196.85" /> 
</g>
<g style="fill:#FFFFFF; fill-opacity:1.0; 
stroke:#FFFFFF; stroke-width:39.3701; stroke-opacity:1; 
stroke-linecap:round; stroke-linejoin:round;">
</g>
<g style="fill:#000000; fill-opacity:1.0; 
stroke:#000000; stroke-width:39.3701; stroke-opacity:1; 
stroke-linecap:round; stroke-linejoin:round;">
</g> 
</svg>
