<?xml version="1.0" standalone="no"?>
 <!DOCTYPE svg PUBLIC "-//W3C//DTD SVG 1.1//EN" 
 "http://www.w3.org/Graphics/SVG/1.1/DTD/svg11.dtd"> 
<svg xmlns="http://www.w3.org/2000/svg" version="1.1" 
    width="18.0442cm" height="6.38556cm" viewBox="0 0 71040 25140 ">
<title>SVG Picture created as modular_eside_rev4-F.Fab.svg date 2017/04/16 15:07:33 </title>
  <desc>Picture generated by PCBNEW </desc>
<g style="fill:#000000; fill-opacity:1;stroke:#000000; stroke-opacity:1;
stroke-linecap:round; stroke-linejoin:round; "
 transform="translate(0 0) scale(1 1)">
</g>
<g style="fill:#000000; fill-opacity:0.0; 
stroke:#000000; stroke-width:-0.000393701; stroke-opacity:1; 
stroke-linecap:round; stroke-linejoin:round;">
</g>
<g style="fill:#000000; fill-opacity:0.0; 
stroke:#000000; stroke-width:59.0551; stroke-opacity:1; 
stroke-linecap:round; stroke-linejoin:round;">
<path d="M44261 16696
L44242 16677
L44223 16640
L44223 16546
L44242 16509
L44261 16490
L44298 16471
L44336 16471
L44392 16490
L44617 16715
L44617 16471
" />
<path d="M44223 16340
L44223 16096
L44373 16227
L44373 16171
L44392 16134
L44411 16115
L44448 16096
L44542 16096
L44580 16115
L44598 16134
L44617 16171
L44617 16284
L44598 16321
L44580 16340
" />
<path d="M44223 15965
L44223 15703
L44617 15871
" />
<path d="M44617 15571
L44617 15478
L44542 15478
L44523 15515
L44486 15553
L44430 15571
L44336 15571
L44280 15553
L44242 15515
L44223 15459
L44223 15384
L44242 15328
L44280 15290
L44336 15271
L44430 15271
L44486 15290
L44523 15328
L44542 15365
L44617 15365
L44617 15271
" />
<path d="M48005 24743
L48023 24761
L48042 24818
L48042 24855
L48023 24911
L47986 24949
L47949 24968
L47874 24986
L47817 24986
L47742 24968
L47705 24949
L47667 24911
L47649 24855
L47649 24818
L47667 24761
L47686 24743
" />
<path d="M48042 24574
L47649 24574
" />
<path d="M47836 24574
L47836 24349
" />
<path d="M48042 24349
L47649 24349
" />
<path d="M48042 23937
L47855 24068
" />
<path d="M48042 24161
L47649 24161
L47649 24011
L47667 23974
L47686 23955
L47724 23937
L47780 23937
L47817 23955
L47836 23974
L47855 24011
L47855 24161
" />
<path d="M47667 23562
L47649 23599
L47649 23655
L47667 23712
L47705 23749
L47742 23768
L47817 23787
L47874 23787
L47949 23768
L47986 23749
L48023 23712
L48042 23655
L48042 23618
L48023 23562
L48005 23543
L47874 23543
L47874 23618
" />
<path d="M48080 23468
L48080 23168
" />
<path d="M48042 23074
L47649 23074
" />
<path d="M48042 22887
L47649 22887
L48042 22662
L47649 22662
" />
<path d="M48042 22474
L47649 22474
L47649 22380
L47667 22324
L47705 22287
L47742 22268
L47817 22249
L47874 22249
L47949 22268
L47986 22287
L48023 22324
L48042 22380
L48042 22474
" />
<path d="M48080 22174
L48080 21874
" />
<path d="M47836 21649
L47855 21593
L47874 21574
L47911 21556
L47967 21556
L48005 21574
L48023 21593
L48042 21631
L48042 21781
L47649 21781
L47649 21649
L47667 21612
L47686 21593
L47724 21574
L47761 21574
L47799 21593
L47817 21612
L47836 21649
L47836 21781
" />
<path d="M48042 21162
L47855 21293
" />
<path d="M48042 21387
L47649 21387
L47649 21237
L47667 21199
L47686 21181
L47724 21162
L47780 21162
L47817 21181
L47836 21199
L47855 21237
L47855 21387
" />
<path d="M47649 21049
L47649 20824
" />
<path d="M48042 20937
L47649 20937
" />
<path d="M47667 20487
L47649 20524
L47649 20581
L47667 20637
L47705 20674
L47742 20693
L47817 20712
L47874 20712
L47949 20693
L47986 20674
L48023 20637
L48042 20581
L48042 20543
L48023 20487
L48005 20468
L47874 20468
L47874 20543
" />
<path d="M48042 20074
L47855 20206
" />
<path d="M48042 20299
L47649 20299
L47649 20149
L47667 20112
L47686 20093
L47724 20074
L47780 20074
L47817 20093
L47836 20112
L47855 20149
L47855 20299
" />
<path d="M47836 19906
L47836 19775
" />
<path d="M48042 19718
L48042 19906
L47649 19906
L47649 19718
" />
<path d="M47836 19550
L47836 19418
" />
<path d="M48042 19362
L48042 19550
L47649 19550
L47649 19362
" />
<path d="M48042 19193
L47649 19193
L48042 18968
L47649 18968
" />
<path d="M47099 23727
L47118 23745
L47137 23802
L47137 23839
L47118 23895
L47080 23933
L47043 23952
L46968 23970
L46912 23970
L46837 23952
L46799 23933
L46762 23895
L46743 23839
L46743 23802
L46762 23745
L46781 23727
" />
<path d="M47137 23558
L46743 23558
" />
<path d="M46931 23558
L46931 23333
" />
<path d="M47137 23333
L46743 23333
" />
<path d="M47137 22920
L46949 23052
" />
<path d="M47137 23145
L46743 23145
L46743 22995
L46762 22958
L46781 22939
L46818 22920
L46874 22920
L46912 22939
L46931 22958
L46949 22995
L46949 23145
" />
<path d="M46762 22545
L46743 22583
L46743 22639
L46762 22695
L46799 22733
L46837 22752
L46912 22770
L46968 22770
L47043 22752
L47080 22733
L47118 22695
L47137 22639
L47137 22602
L47118 22545
L47099 22527
L46968 22527
L46968 22602
" />
<path d="M47174 22452
L47174 22152
" />
<path d="M47137 22058
L46743 22058
" />
<path d="M47137 21871
L46743 21871
L47137 21646
L46743 21646
" />
<path d="M47137 21458
L46743 21458
L46743 21364
L46762 21308
L46799 21271
L46837 21252
L46912 21233
L46968 21233
L47043 21252
L47080 21271
L47118 21308
L47137 21364
L47137 21458
" />
<path d="M47174 21158
L47174 20858
" />
<path d="M46762 20558
L46743 20596
L46743 20652
L46762 20708
L46799 20746
L46837 20764
L46912 20783
L46968 20783
L47043 20764
L47080 20746
L47118 20708
L47137 20652
L47137 20614
L47118 20558
L47099 20539
L46968 20539
L46968 20614
" />
<path d="M47137 20146
L46949 20277
" />
<path d="M47137 20371
L46743 20371
L46743 20221
L46762 20183
L46781 20164
L46818 20146
L46874 20146
L46912 20164
L46931 20183
L46949 20221
L46949 20371
" />
<path d="M46931 19977
L46931 19846
" />
<path d="M47137 19790
L47137 19977
L46743 19977
L46743 19790
" />
<path d="M46931 19621
L46931 19490
" />
<path d="M47137 19433
L47137 19621
L46743 19621
L46743 19433
" />
<path d="M47137 19265
L46743 19265
L47137 19040
L46743 19040
" />
<path d="M46351 23985
L46370 24004
L46389 24060
L46389 24098
L46370 24154
L46332 24191
L46295 24210
L46220 24229
L46164 24229
L46089 24210
L46051 24191
L46014 24154
L45995 24098
L45995 24060
L46014 24004
L46032 23985
" />
<path d="M46389 23817
L45995 23817
" />
<path d="M46182 23817
L46182 23592
" />
<path d="M46389 23592
L45995 23592
" />
<path d="M46389 23179
L46201 23310
" />
<path d="M46389 23404
L45995 23404
L45995 23254
L46014 23217
L46032 23198
L46070 23179
L46126 23179
L46164 23198
L46182 23217
L46201 23254
L46201 23404
" />
<path d="M46014 22804
L45995 22842
L45995 22898
L46014 22954
L46051 22992
L46089 23010
L46164 23029
L46220 23029
L46295 23010
L46332 22992
L46370 22954
L46389 22898
L46389 22860
L46370 22804
L46351 22785
L46220 22785
L46220 22860
" />
<path d="M46426 22710
L46426 22410
" />
<path d="M46389 22317
L45995 22317
" />
<path d="M46389 22129
L45995 22129
L46389 21904
L45995 21904
" />
<path d="M46389 21717
L45995 21717
L45995 21623
L46014 21567
L46051 21529
L46089 21511
L46164 21492
L46220 21492
L46295 21511
L46332 21529
L46370 21567
L46389 21623
L46389 21717
" />
<path d="M46426 21417
L46426 21117
" />
<path d="M46201 20948
L46389 20948
" />
<path d="M45995 21079
L46201 20948
L45995 20817
" />
<path d="M46182 20686
L46182 20554
" />
<path d="M46389 20498
L46389 20686
L45995 20686
L45995 20498
" />
<path d="M46389 20142
L46389 20329
L45995 20329
" />
<path d="M46389 19823
L46389 20011
L45995 20011
" />
<path d="M45995 19617
L45995 19542
L46014 19505
L46051 19467
L46126 19448
L46257 19448
L46332 19467
L46370 19505
L46389 19542
L46389 19617
L46370 19655
L46332 19692
L46257 19711
L46126 19711
L46051 19692
L46014 19655
L45995 19617
" />
<path d="M45995 19317
L46389 19223
L46107 19148
L46389 19073
L45995 18980
" />
<path d="M45603 24002
L45622 24021
L45641 24077
L45641 24115
L45622 24171
L45584 24208
L45547 24227
L45472 24246
L45416 24246
L45341 24227
L45303 24208
L45266 24171
L45247 24115
L45247 24077
L45266 24021
L45284 24002
" />
<path d="M45641 23833
L45247 23833
" />
<path d="M45434 23833
L45434 23608
" />
<path d="M45641 23608
L45247 23608
" />
<path d="M45641 23196
L45453 23327
" />
<path d="M45641 23421
L45247 23421
L45247 23271
L45266 23233
L45284 23215
L45322 23196
L45378 23196
L45416 23215
L45434 23233
L45453 23271
L45453 23421
" />
<path d="M45266 22821
L45247 22859
L45247 22915
L45266 22971
L45303 23008
L45341 23027
L45416 23046
L45472 23046
L45547 23027
L45584 23008
L45622 22971
L45641 22915
L45641 22877
L45622 22821
L45603 22802
L45472 22802
L45472 22877
" />
<path d="M45678 22727
L45678 22427
" />
<path d="M45641 22334
L45247 22334
" />
<path d="M45641 22146
L45247 22146
L45641 21921
L45247 21921
" />
<path d="M45641 21734
L45247 21734
L45247 21640
L45266 21584
L45303 21546
L45341 21527
L45416 21509
L45472 21509
L45547 21527
L45584 21546
L45622 21584
L45641 21640
L45641 21734
" />
<path d="M45678 21434
L45678 21134
" />
<path d="M45247 20965
L45247 20890
L45266 20853
L45303 20815
L45378 20796
L45509 20796
L45584 20815
L45622 20853
L45641 20890
L45641 20965
L45622 21003
L45584 21040
L45509 21059
L45378 21059
L45303 21040
L45266 21003
L45247 20965
" />
<path d="M45641 20403
L45453 20534
" />
<path d="M45641 20628
L45247 20628
L45247 20478
L45266 20440
L45284 20421
L45322 20403
L45378 20403
L45416 20421
L45434 20440
L45453 20478
L45453 20628
" />
<path d="M45528 20253
L45528 20065
" />
<path d="M45641 20290
L45247 20159
L45641 20028
" />
<path d="M45641 19896
L45247 19896
L45641 19671
L45247 19671
" />
<path d="M45266 19278
L45247 19315
L45247 19371
L45266 19428
L45303 19465
L45341 19484
L45416 19503
L45472 19503
L45547 19484
L45584 19465
L45622 19428
L45641 19371
L45641 19334
L45622 19278
L45603 19259
L45472 19259
L45472 19334
" />
<path d="M45434 19090
L45434 18959
" />
<path d="M45641 18903
L45641 19090
L45247 19090
L45247 18903
" />
<path d="M44776 22752
L44795 22770
L44814 22827
L44814 22864
L44795 22920
L44758 22958
L44720 22977
L44645 22995
L44589 22995
L44514 22977
L44476 22958
L44439 22920
L44420 22864
L44420 22827
L44439 22770
L44458 22752
" />
<path d="M44814 22583
L44420 22583
" />
<path d="M44608 22583
L44608 22358
" />
<path d="M44814 22358
L44420 22358
" />
<path d="M44814 21946
L44626 22077
" />
<path d="M44814 22170
L44420 22170
L44420 22020
L44439 21983
L44458 21964
L44495 21946
L44551 21946
L44589 21964
L44608 21983
L44626 22020
L44626 22170
" />
<path d="M44439 21571
L44420 21608
L44420 21664
L44439 21721
L44476 21758
L44514 21777
L44589 21796
L44645 21796
L44720 21777
L44758 21758
L44795 21721
L44814 21664
L44814 21627
L44795 21571
L44776 21552
L44645 21552
L44645 21627
" />
<path d="M44851 21477
L44851 21177
" />
<path d="M44814 21083
L44420 21083
" />
<path d="M44814 20896
L44420 20896
L44814 20671
L44420 20671
" />
<path d="M44814 20483
L44420 20483
L44420 20389
L44439 20333
L44476 20296
L44514 20277
L44589 20258
L44645 20258
L44720 20277
L44758 20296
L44795 20333
L44814 20389
L44814 20483
" />
<path d="M44851 20183
L44851 19883
" />
<path d="M44814 19565
L44626 19696
" />
<path d="M44814 19790
L44420 19790
L44420 19640
L44439 19602
L44458 19583
L44495 19565
L44551 19565
L44589 19583
L44608 19602
L44626 19640
L44626 19790
" />
<path d="M44608 19396
L44608 19265
" />
<path d="M44814 19208
L44814 19396
L44420 19396
L44420 19208
" />
<path d="M44814 19040
L44420 19040
L44420 18946
L44439 18890
L44476 18852
L44514 18833
L44589 18815
L44645 18815
L44720 18833
L44758 18852
L44795 18890
L44814 18946
L44814 19040
" />
<path d="M53593 8875
L53593 9100
" />
<path d="M53593 8987
L53200 8987
L53256 9025
L53293 9062
L53312 9100
" />
<path d="M53200 8631
L53200 8593
L53218 8556
L53237 8537
L53275 8518
L53350 8500
L53443 8500
L53518 8518
L53556 8537
L53575 8556
L53593 8593
L53593 8631
L53575 8668
L53556 8687
L53518 8706
L53443 8725
L53350 8725
L53275 8706
L53237 8687
L53218 8668
L53200 8631
" />
<path d="M53331 8331
L53725 8331
" />
<path d="M53537 8143
L53575 8125
L53593 8087
" />
<path d="M53537 8331
L53575 8312
L53593 8275
L53593 8200
L53575 8162
L53537 8143
L53331 8143
" />
<path d="M53387 7787
L53387 7919
" />
<path d="M53593 7919
L53200 7919
L53200 7731
" />
<path d="M52867 6522
L52886 6541
L52904 6597
L52904 6634
L52886 6691
L52848 6728
L52811 6747
L52736 6766
L52679 6766
L52604 6747
L52567 6728
L52529 6691
L52511 6634
L52511 6597
L52529 6541
L52548 6522
" />
<path d="M52511 6184
L52511 6259
L52529 6297
L52548 6316
L52604 6353
L52679 6372
L52829 6372
L52867 6353
L52886 6334
L52904 6297
L52904 6222
L52886 6184
L52867 6166
L52829 6147
L52736 6147
L52698 6166
L52679 6184
L52661 6222
L52661 6297
L52679 6334
L52698 6353
L52736 6372
" />
<path d="M55129 8757
L55129 8982
" />
<path d="M55129 8869
L54735 8869
L54791 8907
L54829 8944
L54848 8982
" />
<path d="M54735 8513
L54735 8475
L54754 8438
L54773 8419
L54810 8400
L54885 8382
L54979 8382
L55054 8400
L55091 8419
L55110 8438
L55129 8475
L55129 8513
L55110 8550
L55091 8569
L55054 8588
L54979 8607
L54885 8607
L54810 8588
L54773 8569
L54754 8550
L54735 8513
" />
<path d="M54866 8213
L55260 8213
" />
<path d="M55073 8025
L55110 8007
L55129 7969
" />
<path d="M55073 8213
L55110 8194
L55129 8157
L55129 8082
L55110 8044
L55073 8025
L54866 8025
" />
<path d="M54923 7669
L54923 7800
" />
<path d="M55129 7800
L54735 7800
L54735 7613
" />
<path d="M54442 6522
L54461 6541
L54479 6597
L54479 6634
L54461 6691
L54423 6728
L54386 6747
L54311 6766
L54254 6766
L54179 6747
L54142 6728
L54104 6691
L54086 6634
L54086 6597
L54104 6541
L54123 6522
" />
<path d="M54086 6166
L54086 6353
L54273 6372
L54254 6353
L54236 6316
L54236 6222
L54254 6184
L54273 6166
L54311 6147
L54404 6147
L54442 6166
L54461 6184
L54479 6222
L54479 6316
L54461 6353
L54442 6372
" />
<path d="M45054 14981
L44923 14793
" />
<path d="M44829 14981
L44829 14587
L44979 14587
L45016 14606
L45035 14625
L45054 14662
L45054 14718
L45035 14756
L45016 14775
L44979 14793
L44829 14793
" />
<path d="M45129 15018
L45429 15018
" />
<path d="M45523 14981
L45523 14587
L45673 14587
L45710 14606
L45729 14625
L45748 14662
L45748 14718
L45729 14756
L45710 14775
L45673 14793
L45523 14793
" />
<path d="M46085 14981
L46085 14775
L46066 14737
L46029 14718
L45954 14718
L45916 14737
" />
<path d="M46085 14962
L46047 14981
L45954 14981
L45916 14962
L45898 14925
L45898 14887
L45916 14850
L45954 14831
L46047 14831
L46085 14812
" />
<path d="M46441 14962
L46404 14981
L46329 14981
L46291 14962
L46272 14943
L46254 14906
L46254 14793
L46272 14756
L46291 14737
L46329 14718
L46404 14718
L46441 14737
" />
<path d="M46610 14981
L46610 14587
" />
<path d="M46647 14831
L46760 14981
" />
<path d="M46760 14718
L46610 14868
" />
<path d="M46835 15018
L47135 15018
" />
<path d="M47210 14625
L47229 14606
L47266 14587
L47360 14587
L47397 14606
L47416 14625
L47435 14662
L47435 14700
L47416 14756
L47191 14981
L47435 14981
" />
<path d="M47585 14625
L47604 14606
L47641 14587
L47735 14587
L47772 14606
L47791 14625
L47810 14662
L47810 14700
L47791 14756
L47566 14981
L47810 14981
" />
<path d="M48053 14587
L48091 14587
L48128 14606
L48147 14625
L48166 14662
L48185 14737
L48185 14831
L48166 14906
L48147 14943
L48128 14962
L48091 14981
L48053 14981
L48016 14962
L47997 14943
L47979 14906
L47960 14831
L47960 14737
L47979 14662
L47997 14625
L48016 14606
L48053 14587
" />
<path d="M48335 14981
L48428 14981
L48428 14906
L48391 14887
L48353 14850
L48335 14793
L48335 14700
L48353 14643
L48391 14606
L48447 14587
L48522 14587
L48578 14606
L48616 14643
L48635 14700
L48635 14793
L48616 14850
L48578 14887
L48541 14906
L48541 14981
L48635 14981
" />
<path d="M47924 16216
L47737 16347
" />
<path d="M47924 16441
L47530 16441
L47530 16291
L47549 16254
L47568 16235
L47605 16216
L47662 16216
L47699 16235
L47718 16254
L47737 16291
L47737 16441
" />
<path d="M47924 16047
L47530 16047
L47924 15823
L47530 15823
" />
<path d="M47924 15429
L47924 15654
" />
<path d="M47924 15541
L47530 15541
L47587 15579
L47624 15616
L47643 15654
" />
<path d="M66537 19469
L66762 19469
" />
<path d="M66649 19863
L66649 19469
" />
<path d="M66968 19469
L67043 19469
L67080 19488
L67118 19525
L67137 19600
L67137 19731
L67118 19806
L67080 19844
L67043 19863
L66968 19863
L66931 19844
L66893 19806
L66874 19731
L66874 19600
L66893 19525
L66931 19488
L66968 19469
" />
<path d="M67305 19863
L67305 19469
L67455 19469
L67493 19488
L67512 19506
L67530 19544
L67530 19600
L67512 19638
L67493 19656
L67455 19675
L67305 19675
" />
<path d="M67887 19863
L67699 19863
L67699 19469
" />
<path d="M68018 19656
L68149 19656
" />
<path d="M68205 19863
L68018 19863
L68018 19469
L68205 19469
" />
<path d="M68374 19863
L68374 19469
L68468 19469
L68524 19488
L68562 19525
L68580 19563
L68599 19638
L68599 19694
L68580 19769
L68562 19806
L68524 19844
L68468 19863
L68374 19863
" />
<path d="M68674 19900
L68974 19900
" />
<path d="M69274 19488
L69236 19469
L69180 19469
L69124 19488
L69086 19525
L69068 19563
L69049 19638
L69049 19694
L69068 19769
L69086 19806
L69124 19844
L69180 19863
L69218 19863
L69274 19844
L69293 19825
L69293 19694
L69218 19694
" />
<path d="M69686 19863
L69555 19675
" />
<path d="M69461 19863
L69461 19469
L69611 19469
L69649 19488
L69668 19506
L69686 19544
L69686 19600
L69668 19638
L69649 19656
L69611 19675
L69461 19675
" />
<path d="M69855 19863
L69855 19469
L70080 19863
L70080 19469
" />
<path d="M59538 4426
L59538 4651
" />
<path d="M59538 4538
L59145 4538
L59201 4576
L59238 4613
L59257 4651
" />
<path d="M59145 4182
L59145 4145
L59163 4107
L59182 4088
L59220 4070
L59295 4051
L59388 4051
L59463 4070
L59501 4088
L59520 4107
L59538 4145
L59538 4182
L59520 4220
L59501 4238
L59463 4257
L59388 4276
L59295 4276
L59220 4257
L59182 4238
L59163 4220
L59145 4182
" />
<path d="M59276 3882
L59670 3882
" />
<path d="M59482 3695
L59520 3676
L59538 3638
" />
<path d="M59482 3882
L59520 3863
L59538 3826
L59538 3751
L59520 3713
L59482 3695
L59276 3695
" />
<path d="M59332 3338
L59332 3470
" />
<path d="M59538 3470
L59145 3470
L59145 3282
" />
<path d="M64501 8052
L64276 8052
" />
<path d="M64388 8052
L64388 7658
L64351 7714
L64313 7752
L64276 7770
" />
<path d="M64745 7658
L64782 7658
L64820 7677
L64838 7695
L64857 7733
L64876 7808
L64876 7902
L64857 7977
L64838 8014
L64820 8033
L64782 8052
L64745 8052
L64707 8033
L64688 8014
L64670 7977
L64651 7902
L64651 7808
L64670 7733
L64688 7695
L64707 7677
L64745 7658
" />
<path d="M65044 7789
L65044 8183
" />
<path d="M65232 7995
L65251 8033
L65288 8052
" />
<path d="M65044 7995
L65063 8033
L65101 8052
L65176 8052
L65213 8033
L65232 7995
L65232 7789
" />
<path d="M65588 7845
L65457 7845
" />
<path d="M65457 8052
L65457 7658
L65644 7658
" />
<path d="M66381 17855
L66156 17855
" />
<path d="M66269 17855
L66269 17461
L66231 17517
L66194 17555
L66156 17574
" />
<path d="M66550 17592
L66550 17986
" />
<path d="M66737 17799
L66756 17836
L66794 17855
" />
<path d="M66550 17799
L66569 17836
L66606 17855
L66681 17855
L66719 17836
L66737 17799
L66737 17592
" />
<path d="M67094 17649
L66962 17649
" />
<path d="M66962 17855
L66962 17461
L67150 17461
" />
<path d="M52294 15000
L52294 15224
" />
<path d="M52294 15112
L51901 15112
L51957 15149
L51994 15187
L52013 15224
" />
<path d="M51901 14756
L51901 14718
L51919 14681
L51938 14662
L51976 14643
L52050 14625
L52144 14625
L52219 14643
L52257 14662
L52275 14681
L52294 14718
L52294 14756
L52275 14793
L52257 14812
L52219 14831
L52144 14850
L52050 14850
L51976 14831
L51938 14812
L51919 14793
L51901 14756
" />
<path d="M51901 14381
L51901 14343
L51919 14306
L51938 14287
L51976 14268
L52050 14250
L52144 14250
L52219 14268
L52257 14287
L52275 14306
L52294 14343
L52294 14381
L52275 14418
L52257 14437
L52219 14456
L52144 14475
L52050 14475
L51976 14456
L51938 14437
L51919 14418
L51901 14381
" />
<path d="M52032 14081
L52294 14081
" />
<path d="M52069 14081
L52050 14062
L52032 14025
L52032 13968
L52050 13931
L52088 13912
L52294 13912
" />
<path d="M52088 13593
L52088 13725
" />
<path d="M52294 13725
L51901 13725
L51901 13537
" />
<path d="M52332 13481
L52332 13181
" />
<path d="M52294 12919
L51901 12919
" />
<path d="M52275 12919
L52294 12956
L52294 13031
L52275 13068
L52257 13087
L52219 13106
L52107 13106
L52069 13087
L52050 13068
L52032 13031
L52032 12956
L52050 12919
" />
<path d="M52275 12581
L52294 12619
L52294 12694
L52275 12731
L52238 12750
L52088 12750
L52050 12731
L52032 12694
L52032 12619
L52050 12581
L52088 12562
L52125 12562
L52163 12750
" />
<path d="M52275 12225
L52294 12262
L52294 12337
L52275 12375
L52257 12394
L52219 12412
L52107 12412
L52069 12394
L52050 12375
L52032 12337
L52032 12262
L52050 12225
" />
<path d="M52294 12000
L52275 12037
L52257 12056
L52219 12075
L52107 12075
L52069 12056
L52050 12037
L52032 12000
L52032 11944
L52050 11906
L52069 11887
L52107 11869
L52219 11869
L52257 11887
L52275 11906
L52294 11944
L52294 12000
" />
<path d="M52032 11531
L52294 11531
" />
<path d="M52032 11700
L52238 11700
L52275 11681
L52294 11644
L52294 11587
L52275 11550
L52257 11531
" />
<path d="M52032 11344
L52425 11344
" />
<path d="M52050 11344
L52032 11306
L52032 11231
L52050 11194
L52069 11175
L52107 11156
L52219 11156
L52257 11175
L52275 11194
L52294 11231
L52294 11306
L52275 11344
" />
<path d="M52294 10931
L52275 10969
L52238 10988
L51901 10988
" />
<path d="M52294 10781
L52032 10781
" />
<path d="M51901 10781
L51919 10800
L51938 10781
L51919 10763
L51901 10781
L51938 10781
" />
<path d="M52032 10594
L52294 10594
" />
<path d="M52069 10594
L52050 10575
L52032 10538
L52032 10481
L52050 10444
L52088 10425
L52294 10425
" />
<path d="M52032 10069
L52350 10069
L52388 10088
L52407 10106
L52425 10144
L52425 10200
L52407 10238
" />
<path d="M52275 10069
L52294 10106
L52294 10181
L52275 10219
L52257 10238
L52219 10256
L52107 10256
L52069 10238
L52050 10219
L52032 10181
L52032 10106
L52050 10069
" />
<path d="M44696 10689
L44471 10689
" />
<path d="M44583 10689
L44583 10296
L44546 10352
L44508 10389
L44471 10408
" />
<path d="M44940 10296
L44977 10296
L45014 10314
L45033 10333
L45052 10371
L45071 10446
L45071 10539
L45052 10614
L45033 10652
L45014 10671
L44977 10689
L44940 10689
L44902 10671
L44883 10652
L44865 10614
L44846 10539
L44846 10446
L44865 10371
L44883 10333
L44902 10314
L44940 10296
" />
<path d="M45314 10296
L45352 10296
L45389 10314
L45408 10333
L45427 10371
L45446 10446
L45446 10539
L45427 10614
L45408 10652
L45389 10671
L45352 10689
L45314 10689
L45277 10671
L45258 10652
L45239 10614
L45221 10539
L45221 10446
L45239 10371
L45258 10333
L45277 10314
L45314 10296
" />
<path d="M45614 10427
L45614 10689
" />
<path d="M45614 10464
L45633 10446
L45671 10427
L45727 10427
L45764 10446
L45783 10483
L45783 10689
" />
<path d="M46102 10483
L45971 10483
" />
<path d="M45971 10689
L45971 10296
L46158 10296
" />
<path d="M61411 7343
L61636 7343
" />
<path d="M61524 7737
L61524 7343
" />
<path d="M61767 7737
L61767 7343
L61917 7343
L61955 7362
L61974 7380
L61992 7418
L61992 7474
L61974 7512
L61955 7530
L61917 7549
L61767 7549
" />
<path d="M62330 7474
L62330 7737
" />
<path d="M62236 7324
L62142 7605
L62386 7605
" />
<path d="M62611 7343
L62649 7343
L62686 7362
L62705 7380
L62724 7418
L62742 7493
L62742 7587
L62724 7662
L62705 7699
L62686 7718
L62649 7737
L62611 7737
L62574 7718
L62555 7699
L62536 7662
L62517 7587
L62517 7493
L62536 7418
L62555 7380
L62574 7362
L62611 7343
" />
<path d="M63098 7343
L62911 7343
L62892 7530
L62911 7512
L62949 7493
L63042 7493
L63080 7512
L63098 7530
L63117 7568
L63117 7662
L63098 7699
L63080 7718
L63042 7737
L62949 7737
L62911 7718
L62892 7699
" />
<path d="M63455 7343
L63380 7343
L63342 7362
L63323 7380
L63286 7437
L63267 7512
L63267 7662
L63286 7699
L63305 7718
L63342 7737
L63417 7737
L63455 7718
L63473 7699
L63492 7662
L63492 7568
L63473 7530
L63455 7512
L63417 7493
L63342 7493
L63305 7512
L63286 7530
L63267 7568
" />
<path d="M44660 11595
L44435 11595
" />
<path d="M44548 11595
L44548 11201
L44510 11257
L44473 11295
L44435 11314
" />
<path d="M44904 11201
L44941 11201
L44979 11220
L44998 11239
L45016 11276
L45035 11351
L45035 11445
L45016 11520
L44998 11557
L44979 11576
L44941 11595
L44904 11595
L44866 11576
L44848 11557
L44829 11520
L44810 11445
L44810 11351
L44829 11276
L44848 11239
L44866 11220
L44904 11201
" />
<path d="M45204 11332
L45204 11726
" />
<path d="M45391 11539
L45410 11576
L45448 11595
" />
<path d="M45204 11539
L45223 11576
L45260 11595
L45335 11595
L45373 11576
L45391 11539
L45391 11332
" />
<path d="M45616 11595
L45616 11201
" />
<path d="M45616 11389
L45841 11389
" />
<path d="M45841 11595
L45841 11201
" />
<path d="M60616 19506
L60635 19488
L60673 19469
L60766 19469
L60804 19488
L60823 19506
L60841 19544
L60841 19581
L60823 19638
L60598 19863
L60841 19863
" />
<path d="M60973 19469
L61216 19469
L61085 19619
L61141 19619
L61179 19638
L61197 19656
L61216 19694
L61216 19788
L61197 19825
L61179 19844
L61141 19863
L61029 19863
L60991 19844
L60973 19825
" />
<path d="M61347 19469
L61610 19469
L61441 19863
" />
<path d="M61741 19863
L61835 19863
L61835 19788
L61797 19769
L61760 19731
L61741 19675
L61741 19581
L61760 19525
L61797 19488
L61854 19469
L61929 19469
L61985 19488
L62022 19525
L62041 19581
L62041 19675
L62022 19731
L61985 19769
L61947 19788
L61947 19863
L62041 19863
" />
<path d="M67840 15611
L67615 15611
" />
<path d="M67727 15611
L67727 15217
L67690 15273
L67652 15311
L67615 15329
" />
<path d="M68083 15217
L68121 15217
L68158 15236
L68177 15254
L68196 15292
L68215 15367
L68215 15461
L68196 15536
L68177 15573
L68158 15592
L68121 15611
L68083 15611
L68046 15592
L68027 15573
L68008 15536
L67990 15461
L67990 15367
L68008 15292
L68027 15254
L68046 15236
L68083 15217
" />
<path d="M68383 15611
L68383 15217
" />
<path d="M68608 15611
L68440 15386
" />
<path d="M68608 15217
L68383 15442
" />
<path d="M68758 15611
L68852 15611
L68852 15536
L68815 15517
L68777 15479
L68758 15423
L68758 15329
L68777 15273
L68815 15236
L68871 15217
L68946 15217
L69002 15236
L69040 15273
L69058 15329
L69058 15423
L69040 15479
L69002 15517
L68965 15536
L68965 15611
L69058 15611
" />
<path d="M47570 7632
L47570 7857
" />
<path d="M47570 7744
L47176 7744
L47232 7782
L47270 7819
L47289 7857
" />
<path d="M47570 7463
L47176 7463
" />
<path d="M47570 7238
L47345 7407
" />
<path d="M47176 7238
L47401 7463
" />
<path d="M47570 7088
L47570 6994
L47495 6994
L47476 7032
L47439 7069
L47382 7088
L47289 7088
L47232 7069
L47195 7032
L47176 6976
L47176 6901
L47195 6844
L47232 6807
L47289 6788
L47382 6788
L47439 6807
L47476 6844
L47495 6882
L47570 6882
L47570 6788
" />
<path d="M49302 20526
L49302 20751
" />
<path d="M49302 20639
L48908 20639
L48965 20676
L49002 20714
L49021 20751
" />
<path d="M48908 20283
L48908 20245
L48927 20208
L48946 20189
L48983 20170
L49058 20151
L49152 20151
L49227 20170
L49265 20189
L49283 20208
L49302 20245
L49302 20283
L49283 20320
L49265 20339
L49227 20358
L49152 20376
L49058 20376
L48983 20358
L48946 20339
L48927 20320
L48908 20283
" />
<path d="M48908 19908
L48908 19870
L48927 19833
L48946 19814
L48983 19795
L49058 19776
L49152 19776
L49227 19795
L49265 19814
L49283 19833
L49302 19870
L49302 19908
L49283 19945
L49265 19964
L49227 19983
L49152 20001
L49058 20001
L48983 19983
L48946 19964
L48927 19945
L48908 19908
" />
<path d="M49302 19608
L48908 19608
" />
<path d="M49302 19383
L49077 19551
" />
<path d="M48908 19383
L49133 19608
" />
<path d="M49302 19233
L49302 19139
L49227 19139
L49208 19176
L49171 19214
L49115 19233
L49021 19233
L48965 19214
L48927 19176
L48908 19120
L48908 19045
L48927 18989
L48965 18952
L49021 18933
L49115 18933
L49171 18952
L49208 18989
L49227 19026
L49302 19026
L49302 18933
" />
<path d="M48436 7671
L48436 7896
" />
<path d="M48436 7784
L48042 7784
L48098 7821
L48136 7859
L48155 7896
" />
<path d="M48436 7502
L48042 7502
" />
<path d="M48436 7277
L48211 7446
" />
<path d="M48042 7277
L48267 7502
" />
<path d="M48436 7127
L48436 7034
L48361 7034
L48342 7071
L48305 7109
L48248 7127
L48155 7127
L48098 7109
L48061 7071
L48042 7015
L48042 6940
L48061 6884
L48098 6846
L48155 6827
L48248 6827
L48305 6846
L48342 6884
L48361 6921
L48436 6921
L48436 6827
" />
<path d="M60596 20689
L60371 20689
" />
<path d="M60483 20689
L60483 20296
L60446 20352
L60408 20389
L60371 20408
" />
<path d="M60839 20296
L60877 20296
L60914 20314
L60933 20333
L60952 20371
L60971 20446
L60971 20539
L60952 20614
L60933 20652
L60914 20671
L60877 20689
L60839 20689
L60802 20671
L60783 20652
L60764 20614
L60746 20539
L60746 20446
L60764 20371
L60783 20333
L60802 20314
L60839 20296
" />
<path d="M61139 20689
L61139 20296
" />
<path d="M61364 20689
L61196 20464
" />
<path d="M61364 20296
L61139 20521
" />
<path d="M61514 20689
L61608 20689
L61608 20614
L61571 20596
L61533 20558
L61514 20502
L61514 20408
L61533 20352
L61571 20314
L61627 20296
L61702 20296
L61758 20314
L61796 20352
L61814 20408
L61814 20502
L61796 20558
L61758 20596
L61721 20614
L61721 20689
L61814 20689
" />
<path d="M57255 9424
L57255 9649
" />
<path d="M57255 9536
L56861 9536
L56917 9574
L56955 9611
L56974 9649
" />
<path d="M56861 9180
L56861 9143
L56880 9105
L56899 9086
L56936 9068
L57011 9049
L57105 9049
L57180 9068
L57217 9086
L57236 9105
L57255 9143
L57255 9180
L57236 9218
L57217 9236
L57180 9255
L57105 9274
L57011 9274
L56936 9255
L56899 9236
L56880 9218
L56861 9180
" />
<path d="M56861 8805
L56861 8768
L56880 8730
L56899 8712
L56936 8693
L57011 8674
L57105 8674
L57180 8693
L57217 8712
L57236 8730
L57255 8768
L57255 8805
L57236 8843
L57217 8862
L57180 8880
L57105 8899
L57011 8899
L56936 8880
L56899 8862
L56880 8843
L56861 8805
" />
<path d="M57255 8505
L56861 8505
" />
<path d="M57255 8280
L57030 8449
" />
<path d="M56861 8280
L57086 8505
" />
<path d="M57255 8130
L57255 8037
L57180 8037
L57161 8074
L57124 8112
L57067 8130
L56974 8130
L56917 8112
L56880 8074
L56861 8018
L56861 7943
L56880 7887
L56917 7849
L56974 7830
L57067 7830
L57124 7849
L57161 7887
L57180 7924
L57255 7924
L57255 7830
" />
<path d="M60483 4527
L60483 4752
" />
<path d="M60483 4640
L60089 4640
L60146 4677
L60183 4715
L60202 4752
" />
<path d="M60446 4358
L60464 4340
L60483 4358
L60464 4377
L60446 4358
L60483 4358
" />
<path d="M60127 4190
L60108 4171
L60089 4133
L60089 4040
L60108 4002
L60127 3983
L60164 3965
L60202 3965
L60258 3983
L60483 4208
L60483 3965
" />
<path d="M60483 3796
L60089 3796
" />
<path d="M60483 3571
L60258 3740
" />
<path d="M60089 3571
L60314 3796
" />
<path d="M60483 3421
L60483 3327
L60408 3327
L60389 3365
L60352 3402
L60296 3421
L60202 3421
L60146 3402
L60108 3365
L60089 3308
L60089 3233
L60108 3177
L60146 3140
L60202 3121
L60296 3121
L60352 3140
L60389 3177
L60408 3215
L60483 3215
L60483 3121
" />
<path d="M50088 15082
L50069 15063
L50050 15026
L50050 14932
L50069 14895
L50088 14876
L50125 14857
L50163 14857
L50219 14876
L50444 15101
L50444 14857
" />
<path d="M50050 14726
L50050 14482
L50200 14613
L50200 14557
L50219 14520
L50238 14501
L50275 14482
L50369 14482
L50406 14501
L50425 14520
L50444 14557
L50444 14670
L50425 14707
L50406 14726
" />
<path d="M50050 14351
L50050 14088
L50444 14257
" />
<path d="M50444 13957
L50444 13863
L50369 13863
L50350 13901
L50313 13938
L50256 13957
L50163 13957
L50106 13938
L50069 13901
L50050 13845
L50050 13770
L50069 13713
L50106 13676
L50163 13657
L50256 13657
L50313 13676
L50350 13713
L50369 13751
L50444 13751
L50444 13657
" />
<path d="M31133 13258
L31133 13483
" />
<path d="M31133 13370
L30739 13370
L30795 13408
L30833 13445
L30852 13483
" />
<path d="M30739 12902
L30739 13089
L30927 13108
L30908 13089
L30889 13052
L30889 12958
L30908 12920
L30927 12902
L30964 12883
L31058 12883
L31095 12902
L31114 12920
L31133 12958
L31133 13052
L31114 13089
L31095 13108
" />
<path d="M31133 12714
L30739 12714
" />
<path d="M31133 12489
L30908 12658
" />
<path d="M30739 12489
L30964 12714
" />
<path d="M31133 12020
L30739 12020
L31133 11796
L30739 11796
" />
<path d="M30739 11664
L30739 11439
" />
<path d="M31133 11552
L30739 11552
" />
<path d="M31095 11083
L31114 11102
L31133 11158
L31133 11196
L31114 11252
L31077 11289
L31039 11308
L30964 11327
L30908 11327
L30833 11308
L30795 11289
L30758 11252
L30739 11196
L30739 11158
L30758 11102
L30777 11083
" />
<path d="M40641 10103
L40641 10328
" />
<path d="M40641 10215
L40247 10215
L40303 10253
L40341 10290
L40359 10328
" />
<path d="M40247 9746
L40247 9934
L40434 9953
L40416 9934
L40397 9896
L40397 9803
L40416 9765
L40434 9746
L40472 9728
L40566 9728
L40603 9746
L40622 9765
L40641 9803
L40641 9896
L40622 9934
L40603 9953
" />
<path d="M40641 9559
L40247 9559
" />
<path d="M40641 9334
L40416 9503
" />
<path d="M40247 9334
L40472 9559
" />
<path d="M40641 9184
L40641 9090
L40566 9090
L40547 9128
L40509 9165
L40453 9184
L40359 9184
L40303 9165
L40266 9128
L40247 9071
L40247 8997
L40266 8940
L40303 8903
L40359 8884
L40453 8884
L40509 8903
L40547 8940
L40566 8978
L40641 8978
L40641 8884
" />
<path d="M48928 6096
L48534 6096
" />
<path d="M48928 5684
L48741 5815
" />
<path d="M48928 5909
L48534 5909
L48534 5759
L48553 5721
L48572 5703
L48609 5684
L48666 5684
L48703 5703
L48722 5721
L48741 5759
L48741 5909
" />
<path d="M48928 5328
L48928 5515
L48534 5515
" />
<path d="M48928 5196
L48534 5196
L48816 5065
L48534 4934
L48928 4934
" />
<path d="M48928 4559
L48928 4746
L48534 4746
" />
<path d="M48534 4259
L48534 4334
L48553 4371
L48572 4390
L48628 4428
L48703 4446
L48853 4446
L48891 4428
L48909 4409
L48928 4371
L48928 4296
L48909 4259
L48891 4240
L48853 4221
L48759 4221
L48722 4240
L48703 4259
L48684 4296
L48684 4371
L48703 4409
L48722 4428
L48759 4446
" />
<path d="M48572 4071
L48553 4053
L48534 4015
L48534 3922
L48553 3884
L48572 3865
L48609 3847
L48647 3847
L48703 3865
L48928 4090
L48928 3847
" />
<path d="M48666 3509
L48928 3509
" />
<path d="M48516 3603
L48797 3697
L48797 3453
" />
<path d="M48666 3134
L48928 3134
" />
<path d="M48516 3228
L48797 3322
L48797 3078
" />
<path d="M63697 6634
L63472 6634
" />
<path d="M63584 6634
L63584 6241
L63547 6297
L63509 6334
L63472 6353
" />
<path d="M63865 6634
L63865 6241
" />
<path d="M64090 6634
L63922 6409
" />
<path d="M64090 6241
L63865 6466
" />
<path d="M64240 6634
L64334 6634
L64334 6559
L64296 6541
L64259 6503
L64240 6447
L64240 6353
L64259 6297
L64296 6259
L64353 6241
L64428 6241
L64484 6259
L64521 6297
L64540 6353
L64540 6447
L64521 6503
L64484 6541
L64446 6559
L64446 6634
L64540 6634
" />
<path d="M60684 18524
L60459 18524
" />
<path d="M60571 18524
L60571 18130
L60534 18187
L60496 18224
L60459 18243
" />
<path d="M60928 18130
L60965 18130
L61002 18149
L61021 18168
L61040 18205
L61059 18280
L61059 18374
L61040 18449
L61021 18487
L61002 18505
L60965 18524
L60928 18524
L60890 18505
L60871 18487
L60853 18449
L60834 18374
L60834 18280
L60853 18205
L60871 18168
L60890 18149
L60928 18130
" />
<path d="M61302 18130
L61340 18130
L61377 18149
L61396 18168
L61415 18205
L61434 18280
L61434 18374
L61415 18449
L61396 18487
L61377 18505
L61340 18524
L61302 18524
L61265 18505
L61246 18487
L61227 18449
L61209 18374
L61209 18280
L61227 18205
L61246 18168
L61265 18149
L61302 18130
" />
<path d="M61602 18524
L61602 18130
" />
<path d="M61827 18524
L61659 18299
" />
<path d="M61827 18130
L61602 18355
" />
<path d="M61977 18524
L62071 18524
L62071 18449
L62034 18430
L61996 18393
L61977 18337
L61977 18243
L61996 18187
L62034 18149
L62090 18130
L62165 18130
L62221 18149
L62259 18187
L62277 18243
L62277 18337
L62259 18393
L62221 18430
L62184 18449
L62184 18524
L62277 18524
" />
<path d="M63657 5808
L63432 5808
" />
<path d="M63545 5808
L63545 5414
L63507 5470
L63470 5508
L63432 5526
" />
<path d="M63826 5808
L63826 5414
" />
<path d="M64051 5808
L63882 5583
" />
<path d="M64051 5414
L63826 5639
" />
<path d="M64201 5808
L64295 5808
L64295 5733
L64257 5714
L64220 5676
L64201 5620
L64201 5526
L64220 5470
L64257 5433
L64313 5414
L64388 5414
L64445 5433
L64482 5470
L64501 5526
L64501 5620
L64482 5676
L64445 5714
L64407 5733
L64407 5808
L64501 5808
" />
<path d="M63127 16792
L63127 16398
" />
<path d="M63539 16792
L63408 16604
" />
<path d="M63314 16792
L63314 16398
L63464 16398
L63502 16417
L63520 16436
L63539 16473
L63539 16529
L63520 16567
L63502 16586
L63464 16604
L63314 16604
" />
<path d="M63839 16586
L63708 16586
" />
<path d="M63708 16792
L63708 16398
L63895 16398
" />
<path d="M64008 16398
L64270 16398
L64101 16792
" />
<path d="M64383 16398
L64626 16398
L64495 16548
L64551 16548
L64589 16567
L64608 16586
L64626 16623
L64626 16717
L64608 16754
L64589 16773
L64551 16792
L64439 16792
L64401 16773
L64383 16754
" />
<path d="M65001 16792
L64776 16792
" />
<path d="M64889 16792
L64889 16398
L64851 16454
L64814 16492
L64776 16511
" />
<path d="M65189 16792
L65264 16792
L65301 16773
L65320 16754
L65358 16698
L65376 16623
L65376 16473
L65358 16436
L65339 16417
L65301 16398
L65226 16398
L65189 16417
L65170 16436
L65151 16473
L65151 16567
L65170 16604
L65189 16623
L65226 16642
L65301 16642
L65339 16623
L65358 16604
L65376 16567
" />
<path d="M57806 6096
L57412 6096
" />
<path d="M57806 5684
L57619 5815
" />
<path d="M57806 5909
L57412 5909
L57412 5759
L57431 5721
L57450 5703
L57487 5684
L57544 5684
L57581 5703
L57600 5721
L57619 5759
L57619 5909
" />
<path d="M57806 5328
L57806 5515
L57412 5515
" />
<path d="M57806 5196
L57412 5196
L57694 5065
L57412 4934
L57806 4934
" />
<path d="M57806 4559
L57806 4746
L57412 4746
" />
<path d="M57412 4259
L57412 4334
L57431 4371
L57450 4390
L57506 4428
L57581 4446
L57731 4446
L57769 4428
L57787 4409
L57806 4371
L57806 4296
L57787 4259
L57769 4240
L57731 4221
L57637 4221
L57600 4240
L57581 4259
L57562 4296
L57562 4371
L57581 4409
L57600 4428
L57637 4446
" />
<path d="M57450 4071
L57431 4053
L57412 4015
L57412 3922
L57431 3884
L57450 3865
L57487 3847
L57525 3847
L57581 3865
L57806 4090
L57806 3847
" />
<path d="M57544 3509
L57806 3509
" />
<path d="M57394 3603
L57675 3697
L57675 3453
" />
<path d="M57544 3134
L57806 3134
" />
<path d="M57394 3228
L57675 3322
L57675 3078
" />
<path d="M70779 17208
L70798 17152
L70798 17058
L70779 17020
L70761 17002
L70723 16983
L70686 16983
L70648 17002
L70629 17020
L70611 17058
L70592 17133
L70573 17170
L70554 17189
L70517 17208
L70479 17208
L70442 17189
L70423 17170
L70404 17133
L70404 17039
L70423 16983
" />
<path d="M70404 16852
L70798 16758
L70517 16683
L70798 16608
L70404 16514
" />
<path d="M70836 16458
L70836 16158
" />
<path d="M70798 16064
L70404 16064
L70404 15914
L70423 15877
L70442 15858
L70479 15839
L70536 15839
L70573 15858
L70592 15877
L70611 15914
L70611 16064
" />
<path d="M70404 15708
L70798 15614
L70517 15539
L70798 15464
L70404 15371
" />
<path d="M70798 14996
L70611 15127
" />
<path d="M70798 15221
L70404 15221
L70404 15071
L70423 15033
L70442 15014
L70479 14996
L70536 14996
L70573 15014
L70592 15033
L70611 15071
L70611 15221
" />
<path d="M41173 18498
L41192 18442
L41192 18348
L41173 18310
L41154 18292
L41117 18273
L41079 18273
L41042 18292
L41023 18310
L41004 18348
L40986 18423
L40967 18460
L40948 18479
L40911 18498
L40873 18498
L40836 18479
L40817 18460
L40798 18423
L40798 18329
L40817 18273
" />
<path d="M40798 18142
L41192 18048
L40911 17973
L41192 17898
L40798 17804
" />
<path d="M41229 17748
L41229 17448
" />
<path d="M41192 17354
L40798 17354
L41079 17223
L40798 17092
L41192 17092
" />
<path d="M40798 16829
L40798 16754
L40817 16717
L40854 16679
L40929 16661
L41061 16661
L41136 16679
L41173 16717
L41192 16754
L41192 16829
L41173 16867
L41136 16904
L41061 16923
L40929 16923
L40854 16904
L40817 16867
L40798 16829
" />
<path d="M41192 16492
L40798 16492
L40798 16398
L40817 16342
L40854 16304
L40892 16286
L40967 16267
L41023 16267
L41098 16286
L41136 16304
L41173 16342
L41192 16398
L41192 16492
" />
<path d="M40986 16098
L40986 15967
" />
<path d="M41192 15911
L41192 16098
L40798 16098
L40798 15911
" />
<path d="M67060 7087
L66929 6900
" />
<path d="M66835 7087
L66835 6693
L66985 6693
L67022 6712
L67041 6731
L67060 6768
L67060 6825
L67041 6862
L67022 6881
L66985 6900
L66835 6900
" />
<path d="M67229 6881
L67360 6881
" />
<path d="M67416 7087
L67229 7087
L67229 6693
L67416 6693
" />
<path d="M67585 7087
L67585 6693
L67679 6693
L67735 6712
L67772 6750
L67791 6787
L67810 6862
L67810 6918
L67791 6993
L67772 7031
L67735 7068
L67679 7087
L67585 7087
" />
<path d="M66657 9074
L66619 9056
L66563 9056
L66507 9074
L66469 9112
L66451 9149
L66432 9224
L66432 9281
L66451 9356
L66469 9393
L66507 9431
L66563 9449
L66601 9449
L66657 9431
L66676 9412
L66676 9281
L66601 9281
" />
<path d="M67069 9449
L66938 9262
" />
<path d="M66844 9449
L66844 9056
L66994 9056
L67032 9074
L67050 9093
L67069 9131
L67069 9187
L67050 9224
L67032 9243
L66994 9262
L66844 9262
" />
<path d="M67238 9243
L67369 9243
" />
<path d="M67425 9449
L67238 9449
L67238 9056
L67425 9056
" />
<path d="M67594 9243
L67725 9243
" />
<path d="M67782 9449
L67594 9449
L67594 9056
L67782 9056
" />
<path d="M67950 9449
L67950 9056
L68175 9449
L68175 9056
" />
<path d="M51182 18130
L51051 17943
" />
<path d="M50958 18130
L50958 17737
L51107 17737
L51145 17755
L51164 17774
L51182 17812
L51182 17868
L51164 17905
L51145 17924
L51107 17943
L50958 17943
" />
<path d="M51351 17924
L51482 17924
" />
<path d="M51539 18130
L51351 18130
L51351 17737
L51539 17737
" />
<path d="M51707 18130
L51707 17737
L51801 17737
L51857 17755
L51895 17793
L51914 17830
L51932 17905
L51932 17962
L51914 18037
L51895 18074
L51857 18112
L51801 18130
L51707 18130
" />
<path d="M52007 18168
L52307 18168
" />
<path d="M52345 17737
L52570 17737
" />
<path d="M52457 18130
L52457 17737
" />
<path d="M52701 18130
L52701 17737
L52832 18018
L52964 17737
L52964 18130
" />
<path d="M53151 18130
L53151 17737
L53301 17737
L53338 17755
L53357 17774
L53376 17812
L53376 17868
L53357 17905
L53338 17924
L53301 17943
L53151 17943
" />
<path d="M53507 17737
L53601 18130
L53676 17849
L53751 18130
L53845 17737
" />
<path d="M54220 18130
L54088 17943
" />
<path d="M53995 18130
L53995 17737
L54145 17737
L54182 17755
L54201 17774
L54220 17812
L54220 17868
L54201 17905
L54182 17924
L54145 17943
L53995 17943
" />
<path d="M54388 18130
L54388 17737
L54613 18130
L54613 17737
" />
<path d="M4737 9036
L4550 9036
L4550 8642
" />
<path d="M4868 8830
L5000 8830
" />
<path d="M5056 9036
L4868 9036
L4868 8642
L5056 8642
" />
<path d="M5224 9036
L5224 8642
L5318 8642
L5374 8661
L5412 8698
L5431 8736
L5449 8811
L5449 8867
L5431 8942
L5412 8980
L5374 9017
L5318 9036
L5224 9036
" />
<path d="M4737 17304
L4550 17304
L4550 16910
" />
<path d="M4868 17097
L5000 17097
" />
<path d="M5056 17304
L4868 17304
L4868 16910
L5056 16910
" />
<path d="M5224 17304
L5224 16910
L5318 16910
L5374 16929
L5412 16966
L5431 17004
L5449 17079
L5449 17135
L5431 17210
L5412 17247
L5374 17285
L5318 17304
L5224 17304
" />
<path d="M4737 11792
L4550 11792
L4550 11398
" />
<path d="M4868 11586
L5000 11586
" />
<path d="M5056 11792
L4868 11792
L4868 11398
L5056 11398
" />
<path d="M5224 11792
L5224 11398
L5318 11398
L5374 11417
L5412 11454
L5431 11492
L5449 11567
L5449 11623
L5431 11698
L5412 11736
L5374 11773
L5318 11792
L5224 11792
" />
<path d="M4737 14548
L4550 14548
L4550 14154
" />
<path d="M4868 14341
L5000 14341
" />
<path d="M5056 14548
L4868 14548
L4868 14154
L5056 14154
" />
<path d="M5224 14548
L5224 14154
L5318 14154
L5374 14173
L5412 14210
L5431 14248
L5449 14323
L5449 14379
L5431 14454
L5412 14491
L5374 14529
L5318 14548
L5224 14548
" />
<path d="M4737 6280
L4550 6280
L4550 5886
" />
<path d="M4868 6074
L5000 6074
" />
<path d="M5056 6280
L4868 6280
L4868 5886
L5056 5886
" />
<path d="M5224 6280
L5224 5886
L5318 5886
L5374 5905
L5412 5943
L5431 5980
L5449 6055
L5449 6111
L5431 6186
L5412 6224
L5374 6261
L5318 6280
L5224 6280
" />
<path d="M25406 19449
L25219 19449
L25219 19056
" />
<path d="M25538 19243
L25669 19243
" />
<path d="M25725 19449
L25538 19449
L25538 19056
L25725 19056
" />
<path d="M25894 19449
L25894 19056
L25988 19056
L26044 19074
L26081 19112
L26100 19149
L26119 19224
L26119 19281
L26100 19356
L26081 19393
L26044 19431
L25988 19449
L25894 19449
" />
<path d="M17532 17284
L17345 17284
L17345 16890
" />
<path d="M17664 17078
L17795 17078
" />
<path d="M17851 17284
L17664 17284
L17664 16890
L17851 16890
" />
<path d="M18020 17284
L18020 16890
L18113 16890
L18170 16909
L18207 16946
L18226 16984
L18245 17059
L18245 17115
L18226 17190
L18207 17228
L18170 17265
L18113 17284
L18020 17284
" />
<path d="M14383 9804
L14195 9804
L14195 9410
" />
<path d="M14514 9597
L14645 9597
" />
<path d="M14701 9804
L14514 9804
L14514 9410
L14701 9410
" />
<path d="M14870 9804
L14870 9410
L14964 9410
L15020 9429
L15058 9466
L15076 9504
L15095 9579
L15095 9635
L15076 9710
L15058 9747
L15020 9785
L14964 9804
L14870 9804
" />
<path d="M28556 11969
L28368 11969
L28368 11575
" />
<path d="M28687 11763
L28818 11763
" />
<path d="M28875 11969
L28687 11969
L28687 11575
L28875 11575
" />
<path d="M29043 11969
L29043 11575
L29137 11575
L29193 11594
L29231 11631
L29250 11669
L29268 11744
L29268 11800
L29250 11875
L29231 11913
L29193 11950
L29137 11969
L29043 11969
" />
<path d="M22983 7221
L22983 7409
L22589 7409
" />
<path d="M22777 7090
L22777 6959
" />
<path d="M22983 6902
L22983 7090
L22589 7090
L22589 6902
" />
<path d="M22983 6734
L22589 6734
L22589 6640
L22608 6584
L22646 6546
L22683 6527
L22758 6509
L22814 6509
L22889 6527
L22927 6546
L22964 6584
L22983 6640
L22983 6734
" />
<path d="M4737 13170
L4550 13170
L4550 12776
" />
<path d="M4868 12964
L5000 12964
" />
<path d="M5056 13170
L4868 13170
L4868 12776
L5056 12776
" />
<path d="M5224 13170
L5224 12776
L5318 12776
L5374 12795
L5412 12832
L5431 12870
L5449 12945
L5449 13001
L5431 13076
L5412 13113
L5374 13151
L5318 13170
L5224 13170
" />
<path d="M4737 7658
L4550 7658
L4550 7264
" />
<path d="M4868 7452
L5000 7452
" />
<path d="M5056 7658
L4868 7658
L4868 7264
L5056 7264
" />
<path d="M5224 7658
L5224 7264
L5318 7264
L5374 7283
L5412 7320
L5431 7358
L5449 7433
L5449 7489
L5431 7564
L5412 7602
L5374 7639
L5318 7658
L5224 7658
" />
<path d="M4737 10414
L4550 10414
L4550 10020
" />
<path d="M4868 10208
L5000 10208
" />
<path d="M5056 10414
L4868 10414
L4868 10020
L5056 10020
" />
<path d="M5224 10414
L5224 10020
L5318 10020
L5374 10039
L5412 10076
L5431 10114
L5449 10189
L5449 10245
L5431 10320
L5412 10358
L5374 10395
L5318 10414
L5224 10414
" />
<path d="M4737 4902
L4550 4902
L4550 4508
" />
<path d="M4868 4696
L5000 4696
" />
<path d="M5056 4902
L4868 4902
L4868 4508
L5056 4508
" />
<path d="M5224 4902
L5224 4508
L5318 4508
L5374 4527
L5412 4565
L5431 4602
L5449 4677
L5449 4733
L5431 4808
L5412 4846
L5374 4883
L5318 4902
L5224 4902
" />
<path d="M4737 15926
L4550 15926
L4550 15532
" />
<path d="M4868 15719
L5000 15719
" />
<path d="M5056 15926
L4868 15926
L4868 15532
L5056 15532
" />
<path d="M5224 15926
L5224 15532
L5318 15532
L5374 15551
L5412 15588
L5431 15626
L5449 15701
L5449 15757
L5431 15832
L5412 15869
L5374 15907
L5318 15926
L5224 15926
" />
<path d="M4737 18682
L4550 18682
L4550 18288
" />
<path d="M4868 18475
L5000 18475
" />
<path d="M5056 18682
L4868 18682
L4868 18288
L5056 18288
" />
<path d="M5224 18682
L5224 18288
L5318 18288
L5374 18307
L5412 18344
L5431 18382
L5449 18457
L5449 18513
L5431 18588
L5412 18625
L5374 18663
L5318 18682
L5224 18682
" />
<path d="M45877 9967
L46064 9967
" />
<path d="M45839 10079
L45971 9685
L46102 10079
" />
<path d="M46177 9685
L46402 9685
" />
<path d="M46289 10079
L46289 9685
" />
<path d="M46533 10079
L46533 9685
L46664 9967
L46796 9685
L46796 10079
" />
<path d="M46983 9873
L47114 9873
" />
<path d="M47170 10079
L46983 10079
L46983 9685
L47170 9685
" />
<path d="M47545 9704
L47508 9685
L47452 9685
L47395 9704
L47358 9742
L47339 9779
L47320 9854
L47320 9910
L47339 9985
L47358 10023
L47395 10060
L47452 10079
L47489 10079
L47545 10060
L47564 10042
L47564 9910
L47489 9910
" />
<path d="M47714 9967
L47902 9967
" />
<path d="M47677 10079
L47808 9685
L47939 10079
" />
<path d="M48127 9854
L48089 9835
L48070 9817
L48052 9779
L48052 9760
L48070 9723
L48089 9704
L48127 9685
L48202 9685
L48239 9704
L48258 9723
L48277 9760
L48277 9779
L48258 9817
L48239 9835
L48202 9854
L48127 9854
L48089 9873
L48070 9892
L48052 9929
L48052 10004
L48070 10042
L48089 10060
L48127 10079
L48202 10079
L48239 10060
L48258 10042
L48277 10004
L48277 9929
L48258 9892
L48239 9873
L48202 9854
" />
<path d="M48427 9967
L48614 9967
" />
<path d="M48389 10079
L48520 9685
L48652 10079
" />
<path d="M48783 9929
L49083 9929
" />
<path d="M49251 9967
L49439 9967
" />
<path d="M49214 10079
L49345 9685
L49476 10079
" />
<path d="M49608 9685
L49608 10004
L49626 10042
L49645 10060
L49683 10079
L49758 10079
L49795 10060
L49814 10042
L49833 10004
L49833 9685
" />
<path d="M47564 12067
L47564 12386
L47583 12424
L47602 12442
L47639 12461
L47714 12461
L47752 12442
L47770 12424
L47789 12386
L47789 12067
" />
<path d="M47939 12067
L48183 12067
L48052 12217
L48108 12217
L48145 12236
L48164 12255
L48183 12292
L48183 12386
L48164 12424
L48145 12442
L48108 12461
L47995 12461
L47958 12442
L47939 12424
" />
</g>
<g style="fill:#000000; fill-opacity:0.0; 
stroke:#000000; stroke-width:39.3701; stroke-opacity:1; 
stroke-linecap:round; stroke-linejoin:round;">
<path d="M45431 15551
L45431 16338
" />
<path d="M45431 16338
L44943 16338
" />
<path d="M44943 16338
L44943 15551
" />
<path d="M44943 15551
L45431 15551
" />
<path d="M47982 18267
L47667 18267
" />
<path d="M47667 18267
L47667 17637
" />
<path d="M47667 17637
L47982 17637
" />
<path d="M47982 17637
L47982 18267
" />
<path d="M47746 17893
L47904 17893
" />
<path d="M47904 17893
L47825 18011
" />
<path d="M47825 18011
L47746 17893
" />
<path d="M47746 18031
L47904 18031
" />
<path d="M46959 18031
L47116 18031
" />
<path d="M47037 18011
L46959 17893
" />
<path d="M47116 17893
L47037 18011
" />
<path d="M46959 17893
L47116 17893
" />
<path d="M47195 17637
L47195 18267
" />
<path d="M46880 17637
L47195 17637
" />
<path d="M46880 18267
L46880 17637
" />
<path d="M47195 18267
L46880 18267
" />
<path d="M46407 18267
L46092 18267
" />
<path d="M46092 18267
L46092 17637
" />
<path d="M46092 17637
L46407 17637
" />
<path d="M46407 17637
L46407 18267
" />
<path d="M46171 17893
L46329 17893
" />
<path d="M46329 17893
L46250 18011
" />
<path d="M46250 18011
L46171 17893
" />
<path d="M46171 18031
L46329 18031
" />
<path d="M45384 18031
L45541 18031
" />
<path d="M45463 18011
L45384 17893
" />
<path d="M45541 17893
L45463 18011
" />
<path d="M45384 17893
L45541 17893
" />
<path d="M45620 17637
L45620 18267
" />
<path d="M45305 17637
L45620 17637
" />
<path d="M45305 18267
L45305 17637
" />
<path d="M45620 18267
L45305 18267
" />
<path d="M44833 18267
L44518 18267
" />
<path d="M44518 18267
L44518 17637
" />
<path d="M44518 17637
L44833 17637
" />
<path d="M44833 17637
L44833 18267
" />
<path d="M44596 17893
L44754 17893
" />
<path d="M44754 17893
L44675 18011
" />
<path d="M44675 18011
L44596 17893
" />
<path d="M44596 18031
L44754 18031
" />
<path d="M53100 7086
L53100 5826
" />
<path d="M53100 5826
L53730 5826
" />
<path d="M53730 5826
L53730 7086
" />
<path d="M53730 7086
L53100 7086
" />
<path d="M54675 7086
L54675 5826
" />
<path d="M54675 5826
L55305 5826
" />
<path d="M55305 5826
L55305 7086
" />
<path d="M55305 7086
L54675 7086
" />
<path d="M46014 15629
L47274 15629
" />
<path d="M46014 16259
L46014 15629
" />
<path d="M47274 16259
L46014 16259
" />
<path d="M47274 15629
L47274 16259
" />
<path d="M66053 19330
L66053 19960
" />
<path d="M66053 19960
L64793 19960
" />
<path d="M64793 19960
L64793 19330
" />
<path d="M64793 19330
L66053 19330
" />
<path d="M65344 19803
L65344 19488
" />
<path d="M65344 19488
L65581 19645
" />
<path d="M65581 19645
L65344 19803
" />
<path d="M65600 19803
L65600 19488
" />
<path d="M59644 6062
L59155 6062
" />
<path d="M59644 5275
L59644 6062
" />
<path d="M59155 5275
L59644 5275
" />
<path d="M59155 6062
L59155 5275
" />
<path d="M63848 8118
L63061 8118
" />
<path d="M63061 8118
L63061 7629
" />
<path d="M63061 7629
L63848 7629
" />
<path d="M63848 7629
L63848 8118
" />
<path d="M65305 18590
L65305 18102
" />
<path d="M66092 18590
L65305 18590
" />
<path d="M66092 18102
L66092 18590
" />
<path d="M65305 18102
L66092 18102
" />
<path d="M50848 12204
L51337 12204
" />
<path d="M50848 12992
L50848 12204
" />
<path d="M51337 12992
L50848 12992
" />
<path d="M51337 12204
L51337 12992
" />
<path d="M43179 10267
L43967 10267
" />
<path d="M43967 10267
L43967 10755
" />
<path d="M43967 10755
L43179 10755
" />
<path d="M43179 10755
L43179 10267
" />
</g>
<g style="fill:#000000; fill-opacity:0.0; 
stroke:#000000; stroke-width:59.0551; stroke-opacity:1; 
stroke-linecap:round; stroke-linejoin:round;">
<path d="M61703 5610
L62096 5216
" />
<path d="M61703 7145
L61703 5610
" />
<path d="M63238 7145
L61703 7145
" />
<path d="M63238 5216
L63238 7145
" />
<path d="M62096 5216
L63238 5216
" />
</g>
<g style="fill:#000000; fill-opacity:0.0; 
stroke:#000000; stroke-width:39.3701; stroke-opacity:1; 
stroke-linecap:round; stroke-linejoin:round;">
<path d="M42943 11141
L44203 11141
" />
<path d="M44203 11141
L44203 11771
" />
<path d="M44203 11771
L42943 11771
" />
<path d="M42943 11771
L42943 11141
" />
<path d="M63337 19401
L63337 19889
" />
<path d="M62549 19401
L63337 19401
" />
<path d="M62549 19889
L62549 19401
" />
<path d="M63337 19889
L62549 19889
" />
<path d="M67234 15188
L67234 15677
" />
<path d="M66447 15188
L67234 15188
" />
<path d="M66447 15677
L66447 15188
" />
<path d="M67234 15677
L66447 15677
" />
<path d="M47636 8346
L47636 9133
" />
<path d="M47636 9133
L47148 9133
" />
<path d="M47148 9133
L47148 8346
" />
<path d="M47148 8346
L47636 8346
" />
<path d="M48880 17559
L49368 17559
" />
<path d="M48880 18346
L48880 17559
" />
<path d="M49368 18346
L48880 18346
" />
<path d="M49368 17559
L49368 18346
" />
<path d="M48502 8346
L48502 9133
" />
<path d="M48502 9133
L48014 9133
" />
<path d="M48014 9133
L48014 8346
" />
<path d="M48014 8346
L48502 8346
" />
<path d="M63337 20307
L63337 20795
" />
<path d="M62549 20307
L63337 20307
" />
<path d="M62549 20795
L62549 20307
" />
<path d="M63337 20795
L62549 20795
" />
<path d="M57541 9055
L57541 8267
" />
<path d="M57541 8267
L58029 8267
" />
<path d="M58029 8267
L58029 9055
" />
<path d="M58029 9055
L57541 9055
" />
<path d="M60549 5157
L60549 5944
" />
<path d="M60549 5944
L60061 5944
" />
<path d="M60061 5944
L60061 5157
" />
<path d="M60061 5157
L60549 5157
" />
<path d="M50510 16338
L50022 16338
" />
<path d="M50510 15551
L50510 16338
" />
<path d="M50022 15551
L50510 15551
" />
<path d="M50022 16338
L50022 15551
" />
<path d="M31888 11889
L31888 12677
" />
<path d="M31888 12677
L31400 12677
" />
<path d="M31400 12677
L31400 11889
" />
<path d="M31400 11889
L31888 11889
" />
<path d="M40994 10866
L40994 12125
" />
<path d="M40994 12125
L40010 12125
" />
<path d="M40010 12125
L40010 10866
" />
<path d="M40010 10866
L40994 10866
" />
<path d="M48364 4881
L48364 4330
" />
<path d="M47167 4330
L48364 4330
" />
<path d="M47392 4881
L47167 4665
" />
<path d="M47167 4665
L47167 4330
" />
<path d="M47392 4881
L48356 4881
" />
<path d="M65620 6700
L64833 6700
" />
<path d="M64833 6700
L64833 6212
" />
<path d="M64833 6212
L65620 6212
" />
<path d="M65620 6212
L65620 6700
" />
<path d="M62549 18102
L63337 18102
" />
<path d="M63337 18102
L63337 18590
" />
<path d="M63337 18590
L62549 18590
" />
<path d="M62549 18590
L62549 18102
" />
<path d="M65620 5834
L64833 5834
" />
<path d="M64833 5834
L64833 5346
" />
<path d="M64833 5346
L65620 5346
" />
<path d="M65620 5346
L65620 5834
" />
</g>
<g style="fill:#000000; fill-opacity:0.0; 
stroke:#000000; stroke-width:59.0551; stroke-opacity:1; 
stroke-linecap:round; stroke-linejoin:round;">
<path d="M65010 17185
L64616 17578
" />
<path d="M65010 15649
L65010 17185
" />
<path d="M63474 15649
L65010 15649
" />
<path d="M63474 17578
L63474 15649
" />
<path d="M64616 17578
L63474 17578
" />
</g>
<g style="fill:#000000; fill-opacity:0.0; 
stroke:#000000; stroke-width:39.3701; stroke-opacity:1; 
stroke-linecap:round; stroke-linejoin:round;">
<path d="M57242 4881
L57242 4330
" />
<path d="M56045 4330
L57242 4330
" />
<path d="M56270 4881
L56045 4665
" />
<path d="M56045 4665
L56045 4330
" />
<path d="M56270 4881
L57234 4881
" />
<path d="M67234 6299
L67234 6456
" />
<path d="M67254 6377
L67372 6299
" />
<path d="M67372 6456
L67254 6377
" />
<path d="M67372 6299
L67372 6456
" />
<path d="M67628 6535
L66998 6535
" />
<path d="M67628 6220
L67628 6535
" />
<path d="M66998 6220
L67628 6220
" />
<path d="M66998 6535
L66998 6220
" />
<path d="M67234 8661
L67234 8818
" />
<path d="M67254 8740
L67372 8661
" />
<path d="M67372 8818
L67254 8740
" />
<path d="M67372 8661
L67372 8818
" />
<path d="M67628 8897
L66998 8897
" />
<path d="M67628 8582
L67628 8897
" />
<path d="M66998 8582
L67628 8582
" />
<path d="M66998 8897
L66998 8582
" />
<path d="M50187 18031
L50344 18031
" />
<path d="M50266 18011
L50187 17893
" />
<path d="M50344 17893
L50266 18011
" />
<path d="M50187 17893
L50344 17893
" />
<path d="M50423 17637
L50423 18267
" />
<path d="M50108 17637
L50423 17637
" />
<path d="M50108 18267
L50108 17637
" />
<path d="M50423 18267
L50108 18267
" />
<path d="M5167 9685
L5167 9370
" />
<path d="M5148 9527
L4911 9685
" />
<path d="M4911 9370
L5148 9527
" />
<path d="M4911 9685
L4911 9370
" />
<path d="M4360 9212
L5620 9212
" />
<path d="M4360 9842
L4360 9212
" />
<path d="M5620 9842
L4360 9842
" />
<path d="M5620 9212
L5620 9842
" />
<path d="M5167 17952
L5167 17637
" />
<path d="M5148 17795
L4911 17952
" />
<path d="M4911 17637
L5148 17795
" />
<path d="M4911 17952
L4911 17637
" />
<path d="M4360 17480
L5620 17480
" />
<path d="M4360 18110
L4360 17480
" />
<path d="M5620 18110
L4360 18110
" />
<path d="M5620 17480
L5620 18110
" />
<path d="M5167 12440
L5167 12125
" />
<path d="M5148 12283
L4911 12440
" />
<path d="M4911 12125
L5148 12283
" />
<path d="M4911 12440
L4911 12125
" />
<path d="M4360 11968
L5620 11968
" />
<path d="M4360 12598
L4360 11968
" />
<path d="M5620 12598
L4360 12598
" />
<path d="M5620 11968
L5620 12598
" />
<path d="M5167 15196
L5167 14881
" />
<path d="M5148 15039
L4911 15196
" />
<path d="M4911 14881
L5148 15039
" />
<path d="M4911 15196
L4911 14881
" />
<path d="M4360 14724
L5620 14724
" />
<path d="M4360 15354
L4360 14724
" />
<path d="M5620 15354
L4360 15354
" />
<path d="M5620 14724
L5620 15354
" />
<path d="M5167 6929
L5167 6614
" />
<path d="M5148 6771
L4911 6929
" />
<path d="M4911 6614
L5148 6771
" />
<path d="M4911 6929
L4911 6614
" />
<path d="M4360 6456
L5620 6456
" />
<path d="M4360 7086
L4360 6456
" />
<path d="M5620 7086
L4360 7086
" />
<path d="M5620 6456
L5620 7086
" />
<path d="M25856 18385
L25856 17992
" />
<path d="M25856 18188
L25463 18385
" />
<path d="M25463 17992
L25856 18188
" />
<path d="M25463 18385
L25463 17992
" />
<path d="M26152 18188
L25856 18188
" />
<path d="M25167 18188
L25463 18188
" />
<path d="M26309 17539
L26309 18838
" />
<path d="M25010 17539
L26309 17539
" />
<path d="M25010 18838
L25010 17539
" />
<path d="M26309 18838
L25010 18838
" />
<path d="M17589 17992
L17589 18385
" />
<path d="M17589 18188
L17982 17992
" />
<path d="M17982 18385
L17589 18188
" />
<path d="M17982 17992
L17982 18385
" />
<path d="M17293 18188
L17589 18188
" />
<path d="M18278 18188
L17982 18188
" />
<path d="M17136 18838
L17136 17539
" />
<path d="M18435 18838
L17136 18838
" />
<path d="M18435 17539
L18435 18838
" />
<path d="M17136 17539
L18435 17539
" />
<path d="M14439 10511
L14439 10905
" />
<path d="M14439 10708
L14833 10511
" />
<path d="M14833 10905
L14439 10708
" />
<path d="M14833 10511
L14833 10905
" />
<path d="M14144 10708
L14439 10708
" />
<path d="M15128 10708
L14833 10708
" />
<path d="M13986 11358
L13986 10059
" />
<path d="M15285 11358
L13986 11358
" />
<path d="M15285 10059
L15285 11358
" />
<path d="M13986 10059
L15285 10059
" />
<path d="M29006 10905
L29006 10511
" />
<path d="M29006 10708
L28612 10905
" />
<path d="M28612 10511
L29006 10708
" />
<path d="M28612 10905
L28612 10511
" />
<path d="M29301 10708
L29006 10708
" />
<path d="M28317 10708
L28612 10708
" />
<path d="M29459 10059
L29459 11358
" />
<path d="M28159 10059
L29459 10059
" />
<path d="M28159 11358
L28159 10059
" />
<path d="M29459 11358
L28159 11358
" />
<path d="M21919 6771
L21526 6771
" />
<path d="M21722 6771
L21919 7165
" />
<path d="M21526 7165
L21722 6771
" />
<path d="M21919 7165
L21526 7165
" />
<path d="M21722 6476
L21722 6771
" />
<path d="M21722 7460
L21722 7165
" />
<path d="M21073 6318
L22372 6318
" />
<path d="M21073 7618
L21073 6318
" />
<path d="M22372 7618
L21073 7618
" />
<path d="M22372 6318
L22372 7618
" />
<path d="M5167 13818
L5167 13503
" />
<path d="M5148 13661
L4911 13818
" />
<path d="M4911 13503
L5148 13661
" />
<path d="M4911 13818
L4911 13503
" />
<path d="M4360 13346
L5620 13346
" />
<path d="M4360 13976
L4360 13346
" />
<path d="M5620 13976
L4360 13976
" />
<path d="M5620 13346
L5620 13976
" />
<path d="M5167 8307
L5167 7992
" />
<path d="M5148 8149
L4911 8307
" />
<path d="M4911 7992
L5148 8149
" />
<path d="M4911 8307
L4911 7992
" />
<path d="M4360 7834
L5620 7834
" />
<path d="M4360 8464
L4360 7834
" />
<path d="M5620 8464
L4360 8464
" />
<path d="M5620 7834
L5620 8464
" />
<path d="M5167 11062
L5167 10748
" />
<path d="M5148 10905
L4911 11062
" />
<path d="M4911 10748
L5148 10905
" />
<path d="M4911 11062
L4911 10748
" />
<path d="M4360 10590
L5620 10590
" />
<path d="M4360 11220
L4360 10590
" />
<path d="M5620 11220
L4360 11220
" />
<path d="M5620 10590
L5620 11220
" />
<path d="M5167 5551
L5167 5236
" />
<path d="M5148 5393
L4911 5551
" />
<path d="M4911 5236
L5148 5393
" />
<path d="M4911 5551
L4911 5236
" />
<path d="M4360 5078
L5620 5078
" />
<path d="M4360 5708
L4360 5078
" />
<path d="M5620 5708
L4360 5708
" />
<path d="M5620 5078
L5620 5708
" />
<path d="M5167 16574
L5167 16259
" />
<path d="M5148 16417
L4911 16574
" />
<path d="M4911 16259
L5148 16417
" />
<path d="M4911 16574
L4911 16259
" />
<path d="M4360 16102
L5620 16102
" />
<path d="M4360 16732
L4360 16102
" />
<path d="M5620 16732
L4360 16732
" />
<path d="M5620 16102
L5620 16732
" />
<path d="M5167 19330
L5167 19015
" />
<path d="M5148 19173
L4911 19330
" />
<path d="M4911 19015
L5148 19173
" />
<path d="M4911 19330
L4911 19015
" />
<path d="M4360 18858
L5620 18858
" />
<path d="M4360 19488
L4360 18858
" />
<path d="M5620 19488
L4360 19488
" />
<path d="M5620 18858
L5620 19488
" />
</g>
<g style="fill:#000000; fill-opacity:0.0; 
stroke:#000000; stroke-width:59.0551; stroke-opacity:1; 
stroke-linecap:round; stroke-linejoin:round;">
<path d="M49242 13267
L48848 13661
" />
<path d="M49242 10905
L49242 13267
" />
<path d="M46486 10905
L49242 10905
" />
<path d="M46486 13661
L46486 10905
" />
<path d="M48848 13661
L46486 13661
" />
</g> 
</svg>
