G04 #@! TF.GenerationSoftware,KiCad,Pcbnew,5.1.5*
G04 #@! TF.CreationDate,2020-01-04T17:24:04+01:00*
G04 #@! TF.ProjectId,ledside_rev18A,6c656473-6964-4655-9f72-65763138412e,rev?*
G04 #@! TF.SameCoordinates,Original*
G04 #@! TF.FileFunction,Copper,L2,Bot*
G04 #@! TF.FilePolarity,Positive*
%FSLAX46Y46*%
G04 Gerber Fmt 4.6, Leading zero omitted, Abs format (unit mm)*
G04 Created by KiCad (PCBNEW 5.1.5) date 2020-01-04 17:24:04*
%MOMM*%
%LPD*%
G04 APERTURE LIST*
%ADD10O,1.350000X1.350000*%
%ADD11R,1.350000X1.350000*%
%ADD12C,4.400000*%
%ADD13C,0.700000*%
%ADD14C,0.600000*%
%ADD15C,5.000000*%
%ADD16C,0.600000*%
%ADD17C,0.800000*%
%ADD18C,0.254000*%
G04 APERTURE END LIST*
D10*
X118500000Y-47000000D03*
X118500000Y-49000000D03*
X118500000Y-51000000D03*
D11*
X118500000Y-53000000D03*
D12*
X117500000Y-77500000D03*
D13*
X119150000Y-77500000D03*
X118666726Y-76333274D03*
X117500000Y-75850000D03*
X116333274Y-76333274D03*
X115850000Y-77500000D03*
X116333274Y-78666726D03*
X117500000Y-79150000D03*
X118666726Y-78666726D03*
X118666726Y-23666726D03*
X117500000Y-24150000D03*
X116333274Y-23666726D03*
X115850000Y-22500000D03*
X116333274Y-21333274D03*
X117500000Y-20850000D03*
X118666726Y-21333274D03*
X119150000Y-22500000D03*
D12*
X117500000Y-22500000D03*
X70000000Y-77500000D03*
D13*
X71650000Y-77500000D03*
X71166726Y-76333274D03*
X70000000Y-75850000D03*
X68833274Y-76333274D03*
X68350000Y-77500000D03*
X68833274Y-78666726D03*
X70000000Y-79150000D03*
X71166726Y-78666726D03*
X71166726Y-23666726D03*
X70000000Y-24150000D03*
X68833274Y-23666726D03*
X68350000Y-22500000D03*
X68833274Y-21333274D03*
X70000000Y-20850000D03*
X71166726Y-21333274D03*
X71650000Y-22500000D03*
D12*
X70000000Y-22500000D03*
X22500000Y-77500000D03*
D13*
X24150000Y-77500000D03*
X23666726Y-76333274D03*
X22500000Y-75850000D03*
X21333274Y-76333274D03*
X20850000Y-77500000D03*
X21333274Y-78666726D03*
X22500000Y-79150000D03*
X23666726Y-78666726D03*
X23666726Y-23666726D03*
X22500000Y-24150000D03*
X21333274Y-23666726D03*
X20850000Y-22500000D03*
X21333274Y-21333274D03*
X22500000Y-20850000D03*
X23666726Y-21333274D03*
X24150000Y-22500000D03*
D12*
X22500000Y-22500000D03*
D14*
X21500000Y-45000000D03*
X21500000Y-42500000D03*
X21500000Y-47500000D03*
X21500000Y-62500000D03*
X21500000Y-50000000D03*
X21500000Y-65000000D03*
X21500000Y-40000000D03*
X21500000Y-30000000D03*
X21500000Y-27500000D03*
X21500000Y-37500000D03*
X21500000Y-35000000D03*
X21500000Y-32500000D03*
X21500000Y-67500000D03*
X21500000Y-72500000D03*
X21500000Y-70000000D03*
X118500000Y-40000000D03*
X118500000Y-65000000D03*
X118500000Y-70000000D03*
X118500000Y-35000000D03*
X118500000Y-67500000D03*
X118500000Y-62500000D03*
X118500000Y-37500000D03*
X118500000Y-27500000D03*
X118500000Y-32500000D03*
X118500000Y-30000000D03*
X118500000Y-72500000D03*
X107500000Y-48450000D03*
X107500000Y-53650000D03*
X107500000Y-50150000D03*
X107500000Y-51900000D03*
X21500000Y-55000000D03*
X21500000Y-60000000D03*
X21500000Y-57500000D03*
X21500000Y-52500000D03*
X118500000Y-57500000D03*
X118500000Y-60000000D03*
X118500000Y-55000000D03*
X118500000Y-45000000D03*
X118500000Y-42500000D03*
X75000000Y-78500000D03*
X77500000Y-78500000D03*
X80000000Y-78500000D03*
X82500000Y-78500000D03*
X85000000Y-78500000D03*
X92500000Y-78500000D03*
X87500000Y-78500000D03*
X90000000Y-78500000D03*
X107500000Y-78500000D03*
X95000000Y-78500000D03*
X102500000Y-78500000D03*
X112500000Y-78500000D03*
X97500000Y-78500000D03*
X105000000Y-78500000D03*
X100000000Y-78500000D03*
X110000000Y-78500000D03*
X47500000Y-78500000D03*
X40000000Y-78500000D03*
X27500000Y-78500000D03*
X35000000Y-78500000D03*
X45000000Y-78500000D03*
X60000000Y-78500000D03*
X30000000Y-78500000D03*
X37500000Y-78500000D03*
X50000000Y-78500000D03*
X57500000Y-78500000D03*
X52500000Y-78500000D03*
X65000000Y-78500000D03*
X32500000Y-78500000D03*
X62500000Y-78500000D03*
X42500000Y-78500000D03*
X55000000Y-78500000D03*
X95000000Y-21500000D03*
X50000000Y-21500000D03*
X87500000Y-21500000D03*
X75000000Y-21500000D03*
X82500000Y-21500000D03*
X92500000Y-21500000D03*
X107500000Y-21500000D03*
X37500000Y-21500000D03*
X35000000Y-21500000D03*
X32500000Y-21500000D03*
X55000000Y-21500000D03*
X77500000Y-21500000D03*
X62500000Y-21500000D03*
X85000000Y-21500000D03*
X97500000Y-21500000D03*
X105000000Y-21500000D03*
X27500000Y-21500000D03*
X45000000Y-21500000D03*
X52500000Y-21500000D03*
X30000000Y-21500000D03*
X40000000Y-21500000D03*
X65000000Y-21500000D03*
X100000000Y-21500000D03*
X42500000Y-21500000D03*
X60000000Y-21500000D03*
X47500000Y-21500000D03*
X112500000Y-21500000D03*
X80000000Y-21500000D03*
X110000000Y-21500000D03*
X90000000Y-21500000D03*
X57500000Y-21500000D03*
X102500000Y-21500000D03*
X107500000Y-46700000D03*
X107300000Y-27799992D03*
X108100000Y-67000000D03*
D15*
X70000000Y-77300000D02*
X70000000Y-44800000D01*
X70000000Y-44900000D02*
X70000000Y-22800000D01*
D16*
X107300000Y-46400000D02*
X107300000Y-27799992D01*
X118500000Y-47000000D02*
X107900000Y-47000000D01*
X107900000Y-47000000D02*
X107300000Y-46400000D01*
D17*
X107900000Y-66800000D02*
X108100000Y-67000000D01*
X107900000Y-53800000D02*
X107900000Y-66800000D01*
X118500000Y-53000000D02*
X108700000Y-53000000D01*
X108700000Y-53000000D02*
X107900000Y-53800000D01*
D18*
G36*
X24873000Y-24800000D02*
G01*
X24875440Y-24824776D01*
X24882667Y-24848601D01*
X24894403Y-24870557D01*
X24910197Y-24889803D01*
X24929443Y-24905597D01*
X24951399Y-24917333D01*
X24975224Y-24924560D01*
X25000000Y-24927000D01*
X67073000Y-24927000D01*
X67073000Y-25400000D01*
X67075440Y-25424776D01*
X67082667Y-25448601D01*
X67094403Y-25470557D01*
X67110197Y-25489803D01*
X67119001Y-25497028D01*
X67119000Y-45041525D01*
X67119001Y-45041535D01*
X67119000Y-74477328D01*
X67101399Y-74482667D01*
X67079443Y-74494403D01*
X67060197Y-74510197D01*
X67044403Y-74529443D01*
X67032667Y-74551399D01*
X67025440Y-74575224D01*
X67023000Y-74600000D01*
X67023000Y-75073000D01*
X25000000Y-75073000D01*
X24975224Y-75075440D01*
X24951399Y-75082667D01*
X24929443Y-75094403D01*
X24910197Y-75110197D01*
X24894403Y-75129443D01*
X24882667Y-75151399D01*
X24875440Y-75175224D01*
X24873000Y-75200000D01*
X24873000Y-79594000D01*
X22519854Y-79594000D01*
X22093654Y-79552211D01*
X21702781Y-79434199D01*
X21342274Y-79242514D01*
X21025865Y-78984457D01*
X20765609Y-78669860D01*
X20571414Y-78310704D01*
X20450677Y-77920667D01*
X20406000Y-77495594D01*
X20406000Y-22519854D01*
X20447789Y-22093655D01*
X20565802Y-21702778D01*
X20757484Y-21342277D01*
X21015539Y-21025869D01*
X21330138Y-20765610D01*
X21689295Y-20571414D01*
X22079333Y-20450677D01*
X22504406Y-20406000D01*
X24873000Y-20406000D01*
X24873000Y-24800000D01*
G37*
X24873000Y-24800000D02*
X24875440Y-24824776D01*
X24882667Y-24848601D01*
X24894403Y-24870557D01*
X24910197Y-24889803D01*
X24929443Y-24905597D01*
X24951399Y-24917333D01*
X24975224Y-24924560D01*
X25000000Y-24927000D01*
X67073000Y-24927000D01*
X67073000Y-25400000D01*
X67075440Y-25424776D01*
X67082667Y-25448601D01*
X67094403Y-25470557D01*
X67110197Y-25489803D01*
X67119001Y-25497028D01*
X67119000Y-45041525D01*
X67119001Y-45041535D01*
X67119000Y-74477328D01*
X67101399Y-74482667D01*
X67079443Y-74494403D01*
X67060197Y-74510197D01*
X67044403Y-74529443D01*
X67032667Y-74551399D01*
X67025440Y-74575224D01*
X67023000Y-74600000D01*
X67023000Y-75073000D01*
X25000000Y-75073000D01*
X24975224Y-75075440D01*
X24951399Y-75082667D01*
X24929443Y-75094403D01*
X24910197Y-75110197D01*
X24894403Y-75129443D01*
X24882667Y-75151399D01*
X24875440Y-75175224D01*
X24873000Y-75200000D01*
X24873000Y-79594000D01*
X22519854Y-79594000D01*
X22093654Y-79552211D01*
X21702781Y-79434199D01*
X21342274Y-79242514D01*
X21025865Y-78984457D01*
X20765609Y-78669860D01*
X20571414Y-78310704D01*
X20450677Y-77920667D01*
X20406000Y-77495594D01*
X20406000Y-22519854D01*
X20447789Y-22093655D01*
X20565802Y-21702778D01*
X20757484Y-21342277D01*
X21015539Y-21025869D01*
X21330138Y-20765610D01*
X21689295Y-20571414D01*
X22079333Y-20450677D01*
X22504406Y-20406000D01*
X24873000Y-20406000D01*
X24873000Y-24800000D01*
G36*
X117906345Y-20447789D02*
G01*
X118297222Y-20565802D01*
X118657723Y-20757484D01*
X118974131Y-21015539D01*
X119234390Y-21330138D01*
X119428586Y-21689295D01*
X119549323Y-22079333D01*
X119594000Y-22504406D01*
X119594001Y-77480136D01*
X119552211Y-77906346D01*
X119434199Y-78297219D01*
X119242514Y-78657726D01*
X118984457Y-78974135D01*
X118669860Y-79234391D01*
X118310704Y-79428586D01*
X117920667Y-79549323D01*
X117495594Y-79594000D01*
X115127000Y-79594000D01*
X115127000Y-75200000D01*
X115124560Y-75175224D01*
X115117333Y-75151399D01*
X115105597Y-75129443D01*
X115089803Y-75110197D01*
X115070557Y-75094403D01*
X115048601Y-75082667D01*
X115024776Y-75075440D01*
X115000000Y-75073000D01*
X72977000Y-75073000D01*
X72977000Y-74600000D01*
X72974560Y-74575224D01*
X72967333Y-74551399D01*
X72955597Y-74529443D01*
X72939803Y-74510197D01*
X72920557Y-74494403D01*
X72898601Y-74482667D01*
X72881000Y-74477328D01*
X72881000Y-46400000D01*
X106615705Y-46400000D01*
X106625689Y-46501360D01*
X106628854Y-46533498D01*
X106667794Y-46661867D01*
X106731030Y-46780173D01*
X106816130Y-46883869D01*
X106842122Y-46905200D01*
X106851966Y-46915044D01*
X106896506Y-47022574D01*
X106971033Y-47134112D01*
X107065888Y-47228967D01*
X107177426Y-47303494D01*
X107284955Y-47348034D01*
X107394800Y-47457879D01*
X107416130Y-47483870D01*
X107519826Y-47568970D01*
X107638132Y-47632206D01*
X107727560Y-47659333D01*
X107766500Y-47671146D01*
X107899999Y-47684295D01*
X107933452Y-47681000D01*
X117687590Y-47681000D01*
X117826839Y-47820249D01*
X117999796Y-47935815D01*
X118154751Y-48000000D01*
X117999796Y-48064185D01*
X117826839Y-48179751D01*
X117679751Y-48326839D01*
X117564185Y-48499796D01*
X117484581Y-48691976D01*
X117444000Y-48895993D01*
X117444000Y-49104007D01*
X117484581Y-49308024D01*
X117564185Y-49500204D01*
X117679751Y-49673161D01*
X117826839Y-49820249D01*
X117999796Y-49935815D01*
X118154751Y-50000000D01*
X117999796Y-50064185D01*
X117826839Y-50179751D01*
X117679751Y-50326839D01*
X117564185Y-50499796D01*
X117484581Y-50691976D01*
X117444000Y-50895993D01*
X117444000Y-51104007D01*
X117484581Y-51308024D01*
X117564185Y-51500204D01*
X117679751Y-51673161D01*
X117826839Y-51820249D01*
X117999796Y-51935815D01*
X118015107Y-51942157D01*
X117825000Y-51942157D01*
X117750311Y-51949513D01*
X117678492Y-51971299D01*
X117612304Y-52006678D01*
X117554289Y-52054289D01*
X117506678Y-52112304D01*
X117471299Y-52178492D01*
X117459011Y-52219000D01*
X108738357Y-52219000D01*
X108700000Y-52215222D01*
X108661643Y-52219000D01*
X108661640Y-52219000D01*
X108546897Y-52230301D01*
X108399678Y-52274960D01*
X108331840Y-52311220D01*
X108264000Y-52347481D01*
X108174874Y-52420625D01*
X108145078Y-52445078D01*
X108120626Y-52474873D01*
X107374878Y-53220622D01*
X107345078Y-53245078D01*
X107320625Y-53274875D01*
X107247481Y-53364001D01*
X107211221Y-53431840D01*
X107174960Y-53499679D01*
X107130301Y-53646898D01*
X107122605Y-53725040D01*
X107115222Y-53800000D01*
X107119000Y-53838357D01*
X107119001Y-66761633D01*
X107115222Y-66800000D01*
X107130302Y-66953102D01*
X107174960Y-67100320D01*
X107247481Y-67235999D01*
X107320625Y-67325125D01*
X107345079Y-67354922D01*
X107374874Y-67379374D01*
X107574875Y-67579375D01*
X107664001Y-67652519D01*
X107799680Y-67725040D01*
X107946897Y-67769698D01*
X108100000Y-67784778D01*
X108253102Y-67769698D01*
X108400321Y-67725040D01*
X108535999Y-67652519D01*
X108654922Y-67554922D01*
X108752519Y-67435999D01*
X108825040Y-67300321D01*
X108869698Y-67153102D01*
X108884778Y-67000000D01*
X108869698Y-66846897D01*
X108825040Y-66699680D01*
X108752519Y-66564001D01*
X108681000Y-66476855D01*
X108681000Y-54123500D01*
X109023501Y-53781000D01*
X117459011Y-53781000D01*
X117471299Y-53821508D01*
X117506678Y-53887696D01*
X117554289Y-53945711D01*
X117612304Y-53993322D01*
X117678492Y-54028701D01*
X117750311Y-54050487D01*
X117825000Y-54057843D01*
X119175000Y-54057843D01*
X119249689Y-54050487D01*
X119321508Y-54028701D01*
X119387696Y-53993322D01*
X119445711Y-53945711D01*
X119493322Y-53887696D01*
X119528701Y-53821508D01*
X119550487Y-53749689D01*
X119557843Y-53675000D01*
X119557843Y-52325000D01*
X119550487Y-52250311D01*
X119528701Y-52178492D01*
X119493322Y-52112304D01*
X119445711Y-52054289D01*
X119387696Y-52006678D01*
X119321508Y-51971299D01*
X119249689Y-51949513D01*
X119175000Y-51942157D01*
X118984893Y-51942157D01*
X119000204Y-51935815D01*
X119173161Y-51820249D01*
X119320249Y-51673161D01*
X119435815Y-51500204D01*
X119515419Y-51308024D01*
X119556000Y-51104007D01*
X119556000Y-50895993D01*
X119515419Y-50691976D01*
X119435815Y-50499796D01*
X119320249Y-50326839D01*
X119173161Y-50179751D01*
X119000204Y-50064185D01*
X118845249Y-50000000D01*
X119000204Y-49935815D01*
X119173161Y-49820249D01*
X119320249Y-49673161D01*
X119435815Y-49500204D01*
X119515419Y-49308024D01*
X119556000Y-49104007D01*
X119556000Y-48895993D01*
X119515419Y-48691976D01*
X119435815Y-48499796D01*
X119320249Y-48326839D01*
X119173161Y-48179751D01*
X119000204Y-48064185D01*
X118845249Y-48000000D01*
X119000204Y-47935815D01*
X119173161Y-47820249D01*
X119320249Y-47673161D01*
X119435815Y-47500204D01*
X119515419Y-47308024D01*
X119556000Y-47104007D01*
X119556000Y-46895993D01*
X119515419Y-46691976D01*
X119435815Y-46499796D01*
X119320249Y-46326839D01*
X119173161Y-46179751D01*
X119000204Y-46064185D01*
X118808024Y-45984581D01*
X118604007Y-45944000D01*
X118395993Y-45944000D01*
X118191976Y-45984581D01*
X117999796Y-46064185D01*
X117826839Y-46179751D01*
X117687590Y-46319000D01*
X108182079Y-46319000D01*
X107981000Y-46117922D01*
X107981000Y-27732919D01*
X107974441Y-27699945D01*
X107971146Y-27666493D01*
X107961388Y-27634324D01*
X107954829Y-27601352D01*
X107941965Y-27570296D01*
X107932206Y-27538124D01*
X107916358Y-27508475D01*
X107903494Y-27477418D01*
X107884817Y-27449467D01*
X107868970Y-27419818D01*
X107847643Y-27393830D01*
X107828967Y-27365880D01*
X107805200Y-27342113D01*
X107783870Y-27316122D01*
X107757879Y-27294792D01*
X107734112Y-27271025D01*
X107706162Y-27252349D01*
X107680174Y-27231022D01*
X107650525Y-27215175D01*
X107622574Y-27196498D01*
X107591517Y-27183634D01*
X107561868Y-27167786D01*
X107529696Y-27158027D01*
X107498640Y-27145163D01*
X107465668Y-27138604D01*
X107433499Y-27128846D01*
X107400047Y-27125551D01*
X107367073Y-27118992D01*
X107333453Y-27118992D01*
X107300000Y-27115697D01*
X107266547Y-27118992D01*
X107232927Y-27118992D01*
X107199952Y-27125551D01*
X107166502Y-27128846D01*
X107134335Y-27138604D01*
X107101360Y-27145163D01*
X107070301Y-27158028D01*
X107038133Y-27167786D01*
X107008487Y-27183632D01*
X106977426Y-27196498D01*
X106949471Y-27215177D01*
X106919827Y-27231022D01*
X106893844Y-27252346D01*
X106865888Y-27271025D01*
X106842116Y-27294797D01*
X106816131Y-27316122D01*
X106794806Y-27342107D01*
X106771033Y-27365880D01*
X106752353Y-27393837D01*
X106731031Y-27419818D01*
X106715188Y-27449459D01*
X106696506Y-27477418D01*
X106683639Y-27508483D01*
X106667795Y-27538124D01*
X106658039Y-27570287D01*
X106645171Y-27601352D01*
X106638610Y-27634334D01*
X106628855Y-27666493D01*
X106625561Y-27699935D01*
X106619000Y-27732919D01*
X106619000Y-27867065D01*
X106619001Y-27867070D01*
X106619000Y-46366547D01*
X106615705Y-46400000D01*
X72881000Y-46400000D01*
X72881000Y-25497027D01*
X72889803Y-25489803D01*
X72905597Y-25470557D01*
X72917333Y-25448601D01*
X72924560Y-25424776D01*
X72927000Y-25400000D01*
X72927000Y-24927000D01*
X115000000Y-24927000D01*
X115024776Y-24924560D01*
X115048601Y-24917333D01*
X115070557Y-24905597D01*
X115089803Y-24889803D01*
X115105597Y-24870557D01*
X115117333Y-24848601D01*
X115124560Y-24824776D01*
X115127000Y-24800000D01*
X115127000Y-20406000D01*
X117480146Y-20406000D01*
X117906345Y-20447789D01*
G37*
X117906345Y-20447789D02*
X118297222Y-20565802D01*
X118657723Y-20757484D01*
X118974131Y-21015539D01*
X119234390Y-21330138D01*
X119428586Y-21689295D01*
X119549323Y-22079333D01*
X119594000Y-22504406D01*
X119594001Y-77480136D01*
X119552211Y-77906346D01*
X119434199Y-78297219D01*
X119242514Y-78657726D01*
X118984457Y-78974135D01*
X118669860Y-79234391D01*
X118310704Y-79428586D01*
X117920667Y-79549323D01*
X117495594Y-79594000D01*
X115127000Y-79594000D01*
X115127000Y-75200000D01*
X115124560Y-75175224D01*
X115117333Y-75151399D01*
X115105597Y-75129443D01*
X115089803Y-75110197D01*
X115070557Y-75094403D01*
X115048601Y-75082667D01*
X115024776Y-75075440D01*
X115000000Y-75073000D01*
X72977000Y-75073000D01*
X72977000Y-74600000D01*
X72974560Y-74575224D01*
X72967333Y-74551399D01*
X72955597Y-74529443D01*
X72939803Y-74510197D01*
X72920557Y-74494403D01*
X72898601Y-74482667D01*
X72881000Y-74477328D01*
X72881000Y-46400000D01*
X106615705Y-46400000D01*
X106625689Y-46501360D01*
X106628854Y-46533498D01*
X106667794Y-46661867D01*
X106731030Y-46780173D01*
X106816130Y-46883869D01*
X106842122Y-46905200D01*
X106851966Y-46915044D01*
X106896506Y-47022574D01*
X106971033Y-47134112D01*
X107065888Y-47228967D01*
X107177426Y-47303494D01*
X107284955Y-47348034D01*
X107394800Y-47457879D01*
X107416130Y-47483870D01*
X107519826Y-47568970D01*
X107638132Y-47632206D01*
X107727560Y-47659333D01*
X107766500Y-47671146D01*
X107899999Y-47684295D01*
X107933452Y-47681000D01*
X117687590Y-47681000D01*
X117826839Y-47820249D01*
X117999796Y-47935815D01*
X118154751Y-48000000D01*
X117999796Y-48064185D01*
X117826839Y-48179751D01*
X117679751Y-48326839D01*
X117564185Y-48499796D01*
X117484581Y-48691976D01*
X117444000Y-48895993D01*
X117444000Y-49104007D01*
X117484581Y-49308024D01*
X117564185Y-49500204D01*
X117679751Y-49673161D01*
X117826839Y-49820249D01*
X117999796Y-49935815D01*
X118154751Y-50000000D01*
X117999796Y-50064185D01*
X117826839Y-50179751D01*
X117679751Y-50326839D01*
X117564185Y-50499796D01*
X117484581Y-50691976D01*
X117444000Y-50895993D01*
X117444000Y-51104007D01*
X117484581Y-51308024D01*
X117564185Y-51500204D01*
X117679751Y-51673161D01*
X117826839Y-51820249D01*
X117999796Y-51935815D01*
X118015107Y-51942157D01*
X117825000Y-51942157D01*
X117750311Y-51949513D01*
X117678492Y-51971299D01*
X117612304Y-52006678D01*
X117554289Y-52054289D01*
X117506678Y-52112304D01*
X117471299Y-52178492D01*
X117459011Y-52219000D01*
X108738357Y-52219000D01*
X108700000Y-52215222D01*
X108661643Y-52219000D01*
X108661640Y-52219000D01*
X108546897Y-52230301D01*
X108399678Y-52274960D01*
X108331840Y-52311220D01*
X108264000Y-52347481D01*
X108174874Y-52420625D01*
X108145078Y-52445078D01*
X108120626Y-52474873D01*
X107374878Y-53220622D01*
X107345078Y-53245078D01*
X107320625Y-53274875D01*
X107247481Y-53364001D01*
X107211221Y-53431840D01*
X107174960Y-53499679D01*
X107130301Y-53646898D01*
X107122605Y-53725040D01*
X107115222Y-53800000D01*
X107119000Y-53838357D01*
X107119001Y-66761633D01*
X107115222Y-66800000D01*
X107130302Y-66953102D01*
X107174960Y-67100320D01*
X107247481Y-67235999D01*
X107320625Y-67325125D01*
X107345079Y-67354922D01*
X107374874Y-67379374D01*
X107574875Y-67579375D01*
X107664001Y-67652519D01*
X107799680Y-67725040D01*
X107946897Y-67769698D01*
X108100000Y-67784778D01*
X108253102Y-67769698D01*
X108400321Y-67725040D01*
X108535999Y-67652519D01*
X108654922Y-67554922D01*
X108752519Y-67435999D01*
X108825040Y-67300321D01*
X108869698Y-67153102D01*
X108884778Y-67000000D01*
X108869698Y-66846897D01*
X108825040Y-66699680D01*
X108752519Y-66564001D01*
X108681000Y-66476855D01*
X108681000Y-54123500D01*
X109023501Y-53781000D01*
X117459011Y-53781000D01*
X117471299Y-53821508D01*
X117506678Y-53887696D01*
X117554289Y-53945711D01*
X117612304Y-53993322D01*
X117678492Y-54028701D01*
X117750311Y-54050487D01*
X117825000Y-54057843D01*
X119175000Y-54057843D01*
X119249689Y-54050487D01*
X119321508Y-54028701D01*
X119387696Y-53993322D01*
X119445711Y-53945711D01*
X119493322Y-53887696D01*
X119528701Y-53821508D01*
X119550487Y-53749689D01*
X119557843Y-53675000D01*
X119557843Y-52325000D01*
X119550487Y-52250311D01*
X119528701Y-52178492D01*
X119493322Y-52112304D01*
X119445711Y-52054289D01*
X119387696Y-52006678D01*
X119321508Y-51971299D01*
X119249689Y-51949513D01*
X119175000Y-51942157D01*
X118984893Y-51942157D01*
X119000204Y-51935815D01*
X119173161Y-51820249D01*
X119320249Y-51673161D01*
X119435815Y-51500204D01*
X119515419Y-51308024D01*
X119556000Y-51104007D01*
X119556000Y-50895993D01*
X119515419Y-50691976D01*
X119435815Y-50499796D01*
X119320249Y-50326839D01*
X119173161Y-50179751D01*
X119000204Y-50064185D01*
X118845249Y-50000000D01*
X119000204Y-49935815D01*
X119173161Y-49820249D01*
X119320249Y-49673161D01*
X119435815Y-49500204D01*
X119515419Y-49308024D01*
X119556000Y-49104007D01*
X119556000Y-48895993D01*
X119515419Y-48691976D01*
X119435815Y-48499796D01*
X119320249Y-48326839D01*
X119173161Y-48179751D01*
X119000204Y-48064185D01*
X118845249Y-48000000D01*
X119000204Y-47935815D01*
X119173161Y-47820249D01*
X119320249Y-47673161D01*
X119435815Y-47500204D01*
X119515419Y-47308024D01*
X119556000Y-47104007D01*
X119556000Y-46895993D01*
X119515419Y-46691976D01*
X119435815Y-46499796D01*
X119320249Y-46326839D01*
X119173161Y-46179751D01*
X119000204Y-46064185D01*
X118808024Y-45984581D01*
X118604007Y-45944000D01*
X118395993Y-45944000D01*
X118191976Y-45984581D01*
X117999796Y-46064185D01*
X117826839Y-46179751D01*
X117687590Y-46319000D01*
X108182079Y-46319000D01*
X107981000Y-46117922D01*
X107981000Y-27732919D01*
X107974441Y-27699945D01*
X107971146Y-27666493D01*
X107961388Y-27634324D01*
X107954829Y-27601352D01*
X107941965Y-27570296D01*
X107932206Y-27538124D01*
X107916358Y-27508475D01*
X107903494Y-27477418D01*
X107884817Y-27449467D01*
X107868970Y-27419818D01*
X107847643Y-27393830D01*
X107828967Y-27365880D01*
X107805200Y-27342113D01*
X107783870Y-27316122D01*
X107757879Y-27294792D01*
X107734112Y-27271025D01*
X107706162Y-27252349D01*
X107680174Y-27231022D01*
X107650525Y-27215175D01*
X107622574Y-27196498D01*
X107591517Y-27183634D01*
X107561868Y-27167786D01*
X107529696Y-27158027D01*
X107498640Y-27145163D01*
X107465668Y-27138604D01*
X107433499Y-27128846D01*
X107400047Y-27125551D01*
X107367073Y-27118992D01*
X107333453Y-27118992D01*
X107300000Y-27115697D01*
X107266547Y-27118992D01*
X107232927Y-27118992D01*
X107199952Y-27125551D01*
X107166502Y-27128846D01*
X107134335Y-27138604D01*
X107101360Y-27145163D01*
X107070301Y-27158028D01*
X107038133Y-27167786D01*
X107008487Y-27183632D01*
X106977426Y-27196498D01*
X106949471Y-27215177D01*
X106919827Y-27231022D01*
X106893844Y-27252346D01*
X106865888Y-27271025D01*
X106842116Y-27294797D01*
X106816131Y-27316122D01*
X106794806Y-27342107D01*
X106771033Y-27365880D01*
X106752353Y-27393837D01*
X106731031Y-27419818D01*
X106715188Y-27449459D01*
X106696506Y-27477418D01*
X106683639Y-27508483D01*
X106667795Y-27538124D01*
X106658039Y-27570287D01*
X106645171Y-27601352D01*
X106638610Y-27634334D01*
X106628855Y-27666493D01*
X106625561Y-27699935D01*
X106619000Y-27732919D01*
X106619000Y-27867065D01*
X106619001Y-27867070D01*
X106619000Y-46366547D01*
X106615705Y-46400000D01*
X72881000Y-46400000D01*
X72881000Y-25497027D01*
X72889803Y-25489803D01*
X72905597Y-25470557D01*
X72917333Y-25448601D01*
X72924560Y-25424776D01*
X72927000Y-25400000D01*
X72927000Y-24927000D01*
X115000000Y-24927000D01*
X115024776Y-24924560D01*
X115048601Y-24917333D01*
X115070557Y-24905597D01*
X115089803Y-24889803D01*
X115105597Y-24870557D01*
X115117333Y-24848601D01*
X115124560Y-24824776D01*
X115127000Y-24800000D01*
X115127000Y-20406000D01*
X117480146Y-20406000D01*
X117906345Y-20447789D01*
G36*
X114473000Y-79594000D02*
G01*
X25527000Y-79594000D01*
X25527000Y-75727000D01*
X114473000Y-75727000D01*
X114473000Y-79594000D01*
G37*
X114473000Y-79594000D02*
X25527000Y-79594000D01*
X25527000Y-75727000D01*
X114473000Y-75727000D01*
X114473000Y-79594000D01*
G36*
X114473000Y-24273000D02*
G01*
X25527000Y-24273000D01*
X25527000Y-20406000D01*
X114473000Y-20406000D01*
X114473000Y-24273000D01*
G37*
X114473000Y-24273000D02*
X25527000Y-24273000D01*
X25527000Y-20406000D01*
X114473000Y-20406000D01*
X114473000Y-24273000D01*
M02*
