G04 #@! TF.GenerationSoftware,KiCad,Pcbnew,5.1.5*
G04 #@! TF.CreationDate,2020-01-04T17:24:04+01:00*
G04 #@! TF.ProjectId,ledside_rev18A,6c656473-6964-4655-9f72-65763138412e,rev?*
G04 #@! TF.SameCoordinates,Original*
G04 #@! TF.FileFunction,Legend,Bot*
G04 #@! TF.FilePolarity,Positive*
%FSLAX46Y46*%
G04 Gerber Fmt 4.6, Leading zero omitted, Abs format (unit mm)*
G04 Created by KiCad (PCBNEW 5.1.5) date 2020-01-04 17:24:04*
%MOMM*%
%LPD*%
G04 APERTURE LIST*
%ADD10C,0.120000*%
%ADD11C,0.150000*%
G04 APERTURE END LIST*
D10*
X117440000Y-54060000D02*
X118500000Y-54060000D01*
X117440000Y-53000000D02*
X117440000Y-54060000D01*
X117440000Y-52000000D02*
X119560000Y-52000000D01*
X119560000Y-52000000D02*
X119560000Y-45940000D01*
X117440000Y-52000000D02*
X117440000Y-45940000D01*
X117440000Y-45940000D02*
X119560000Y-45940000D01*
D11*
X118833333Y-54512380D02*
X118833333Y-55226666D01*
X118880952Y-55369523D01*
X118976190Y-55464761D01*
X119119047Y-55512380D01*
X119214285Y-55512380D01*
X117833333Y-55512380D02*
X118404761Y-55512380D01*
X118119047Y-55512380D02*
X118119047Y-54512380D01*
X118214285Y-54655238D01*
X118309523Y-54750476D01*
X118404761Y-54798095D01*
X117261904Y-74352380D02*
X117261904Y-73352380D01*
X117261904Y-73828571D02*
X116690476Y-73828571D01*
X116690476Y-74352380D02*
X116690476Y-73352380D01*
X115785714Y-73352380D02*
X115976190Y-73352380D01*
X116071428Y-73400000D01*
X116119047Y-73447619D01*
X116214285Y-73590476D01*
X116261904Y-73780952D01*
X116261904Y-74161904D01*
X116214285Y-74257142D01*
X116166666Y-74304761D01*
X116071428Y-74352380D01*
X115880952Y-74352380D01*
X115785714Y-74304761D01*
X115738095Y-74257142D01*
X115690476Y-74161904D01*
X115690476Y-73923809D01*
X115738095Y-73828571D01*
X115785714Y-73780952D01*
X115880952Y-73733333D01*
X116071428Y-73733333D01*
X116166666Y-73780952D01*
X116214285Y-73828571D01*
X116261904Y-73923809D01*
X118261904Y-26152380D02*
X118261904Y-25152380D01*
X118261904Y-25628571D02*
X117690476Y-25628571D01*
X117690476Y-26152380D02*
X117690476Y-25152380D01*
X116738095Y-25152380D02*
X117214285Y-25152380D01*
X117261904Y-25628571D01*
X117214285Y-25580952D01*
X117119047Y-25533333D01*
X116880952Y-25533333D01*
X116785714Y-25580952D01*
X116738095Y-25628571D01*
X116690476Y-25723809D01*
X116690476Y-25961904D01*
X116738095Y-26057142D01*
X116785714Y-26104761D01*
X116880952Y-26152380D01*
X117119047Y-26152380D01*
X117214285Y-26104761D01*
X117261904Y-26057142D01*
X70861904Y-73252380D02*
X70861904Y-72252380D01*
X70861904Y-72728571D02*
X70290476Y-72728571D01*
X70290476Y-73252380D02*
X70290476Y-72252380D01*
X69385714Y-72585714D02*
X69385714Y-73252380D01*
X69623809Y-72204761D02*
X69861904Y-72919047D01*
X69242857Y-72919047D01*
X70761904Y-26152380D02*
X70761904Y-25152380D01*
X70761904Y-25628571D02*
X70190476Y-25628571D01*
X70190476Y-26152380D02*
X70190476Y-25152380D01*
X69809523Y-25152380D02*
X69190476Y-25152380D01*
X69523809Y-25533333D01*
X69380952Y-25533333D01*
X69285714Y-25580952D01*
X69238095Y-25628571D01*
X69190476Y-25723809D01*
X69190476Y-25961904D01*
X69238095Y-26057142D01*
X69285714Y-26104761D01*
X69380952Y-26152380D01*
X69666666Y-26152380D01*
X69761904Y-26104761D01*
X69809523Y-26057142D01*
X25061904Y-74052380D02*
X25061904Y-73052380D01*
X25061904Y-73528571D02*
X24490476Y-73528571D01*
X24490476Y-74052380D02*
X24490476Y-73052380D01*
X24061904Y-73147619D02*
X24014285Y-73100000D01*
X23919047Y-73052380D01*
X23680952Y-73052380D01*
X23585714Y-73100000D01*
X23538095Y-73147619D01*
X23490476Y-73242857D01*
X23490476Y-73338095D01*
X23538095Y-73480952D01*
X24109523Y-74052380D01*
X23490476Y-74052380D01*
X23261904Y-26152380D02*
X23261904Y-25152380D01*
X23261904Y-25628571D02*
X22690476Y-25628571D01*
X22690476Y-26152380D02*
X22690476Y-25152380D01*
X21690476Y-26152380D02*
X22261904Y-26152380D01*
X21976190Y-26152380D02*
X21976190Y-25152380D01*
X22071428Y-25295238D01*
X22166666Y-25390476D01*
X22261904Y-25438095D01*
M02*
