G04 #@! TF.GenerationSoftware,KiCad,Pcbnew,5.1.2*
G04 #@! TF.CreationDate,2019-07-04T05:17:55+02:00*
G04 #@! TF.ProjectId,eside_rev17,65736964-655f-4726-9576-31372e6b6963,rev?*
G04 #@! TF.SameCoordinates,Original*
G04 #@! TF.FileFunction,Soldermask,Bot*
G04 #@! TF.FilePolarity,Negative*
%FSLAX46Y46*%
G04 Gerber Fmt 4.6, Leading zero omitted, Abs format (unit mm)*
G04 Created by KiCad (PCBNEW 5.1.2) date 2019-07-04 05:17:55*
%MOMM*%
%LPD*%
G04 APERTURE LIST*
%ADD10C,0.100000*%
G04 APERTURE END LIST*
D10*
G36*
X117775880Y-75259776D02*
G01*
X118156593Y-75335504D01*
X118566249Y-75505189D01*
X118934929Y-75751534D01*
X119248466Y-76065071D01*
X119494811Y-76433751D01*
X119664496Y-76843407D01*
X119751000Y-77278296D01*
X119751000Y-77721704D01*
X119664496Y-78156593D01*
X119494811Y-78566249D01*
X119248466Y-78934929D01*
X118934929Y-79248466D01*
X118566249Y-79494811D01*
X118156593Y-79664496D01*
X117775880Y-79740224D01*
X117721705Y-79751000D01*
X117278295Y-79751000D01*
X117224120Y-79740224D01*
X116843407Y-79664496D01*
X116433751Y-79494811D01*
X116065071Y-79248466D01*
X115751534Y-78934929D01*
X115505189Y-78566249D01*
X115335504Y-78156593D01*
X115249000Y-77721704D01*
X115249000Y-77278296D01*
X115335504Y-76843407D01*
X115505189Y-76433751D01*
X115751534Y-76065071D01*
X116065071Y-75751534D01*
X116433751Y-75505189D01*
X116843407Y-75335504D01*
X117224120Y-75259776D01*
X117278295Y-75249000D01*
X117721705Y-75249000D01*
X117775880Y-75259776D01*
X117775880Y-75259776D01*
G37*
G36*
X42775880Y-75259776D02*
G01*
X43156593Y-75335504D01*
X43566249Y-75505189D01*
X43934929Y-75751534D01*
X44248466Y-76065071D01*
X44494811Y-76433751D01*
X44664496Y-76843407D01*
X44751000Y-77278296D01*
X44751000Y-77721704D01*
X44664496Y-78156593D01*
X44494811Y-78566249D01*
X44248466Y-78934929D01*
X43934929Y-79248466D01*
X43566249Y-79494811D01*
X43156593Y-79664496D01*
X42775880Y-79740224D01*
X42721705Y-79751000D01*
X42278295Y-79751000D01*
X42224120Y-79740224D01*
X41843407Y-79664496D01*
X41433751Y-79494811D01*
X41065071Y-79248466D01*
X40751534Y-78934929D01*
X40505189Y-78566249D01*
X40335504Y-78156593D01*
X40249000Y-77721704D01*
X40249000Y-77278296D01*
X40335504Y-76843407D01*
X40505189Y-76433751D01*
X40751534Y-76065071D01*
X41065071Y-75751534D01*
X41433751Y-75505189D01*
X41843407Y-75335504D01*
X42224120Y-75259776D01*
X42278295Y-75249000D01*
X42721705Y-75249000D01*
X42775880Y-75259776D01*
X42775880Y-75259776D01*
G37*
G36*
X44201000Y-71301000D02*
G01*
X43799000Y-71301000D01*
X43799000Y-70395805D01*
X43801613Y-70396598D01*
X43825999Y-70399000D01*
X44154001Y-70399000D01*
X44178387Y-70396598D01*
X44201000Y-70389739D01*
X44201000Y-71301000D01*
X44201000Y-71301000D01*
G37*
G36*
X43326000Y-69649001D02*
G01*
X43328402Y-69673387D01*
X43335515Y-69696836D01*
X43347066Y-69718447D01*
X43362611Y-69737389D01*
X43381553Y-69752934D01*
X43403164Y-69764485D01*
X43426613Y-69771598D01*
X43450999Y-69774000D01*
X43674001Y-69774000D01*
X43698387Y-69771598D01*
X43701000Y-69770805D01*
X43701000Y-70229195D01*
X43698387Y-70228402D01*
X43674001Y-70226000D01*
X43450999Y-70226000D01*
X43426613Y-70228402D01*
X43403164Y-70235515D01*
X43381553Y-70247066D01*
X43362611Y-70262611D01*
X43347066Y-70281553D01*
X43335515Y-70303164D01*
X43328402Y-70326613D01*
X43326000Y-70350999D01*
X43326000Y-71301000D01*
X42874000Y-71301000D01*
X42874000Y-70350999D01*
X42871598Y-70326613D01*
X42864485Y-70303164D01*
X42852934Y-70281553D01*
X42837389Y-70262611D01*
X42818447Y-70247066D01*
X42796836Y-70235515D01*
X42773387Y-70228402D01*
X42749001Y-70226000D01*
X42599000Y-70226000D01*
X42599000Y-69774000D01*
X42749001Y-69774000D01*
X42773387Y-69771598D01*
X42796836Y-69764485D01*
X42818447Y-69752934D01*
X42837389Y-69737389D01*
X42852934Y-69718447D01*
X42864485Y-69696836D01*
X42871598Y-69673387D01*
X42874000Y-69649001D01*
X42874000Y-68699000D01*
X43326000Y-68699000D01*
X43326000Y-69649001D01*
X43326000Y-69649001D01*
G37*
G36*
X45126000Y-69649001D02*
G01*
X45128402Y-69673387D01*
X45135515Y-69696836D01*
X45147066Y-69718447D01*
X45162611Y-69737389D01*
X45181553Y-69752934D01*
X45203164Y-69764485D01*
X45226613Y-69771598D01*
X45250999Y-69774000D01*
X45381000Y-69774000D01*
X45381000Y-70226000D01*
X45250999Y-70226000D01*
X45226613Y-70228402D01*
X45203164Y-70235515D01*
X45181553Y-70247066D01*
X45162611Y-70262611D01*
X45147066Y-70281553D01*
X45135515Y-70303164D01*
X45128402Y-70326613D01*
X45126000Y-70350999D01*
X45126000Y-71301000D01*
X44674000Y-71301000D01*
X44674000Y-70350999D01*
X44671598Y-70326613D01*
X44664485Y-70303164D01*
X44652934Y-70281553D01*
X44637389Y-70262611D01*
X44618447Y-70247066D01*
X44596836Y-70235515D01*
X44573387Y-70228402D01*
X44549001Y-70226000D01*
X44325999Y-70226000D01*
X44301613Y-70228402D01*
X44279000Y-70235261D01*
X44279000Y-69764739D01*
X44301613Y-69771598D01*
X44325999Y-69774000D01*
X44549001Y-69774000D01*
X44573387Y-69771598D01*
X44596836Y-69764485D01*
X44618447Y-69752934D01*
X44637389Y-69737389D01*
X44652934Y-69718447D01*
X44664485Y-69696836D01*
X44671598Y-69673387D01*
X44674000Y-69649001D01*
X44674000Y-68699000D01*
X45126000Y-68699000D01*
X45126000Y-69649001D01*
X45126000Y-69649001D01*
G37*
G36*
X118851000Y-71176000D02*
G01*
X117749000Y-71176000D01*
X117749000Y-69524000D01*
X118851000Y-69524000D01*
X118851000Y-71176000D01*
X118851000Y-71176000D01*
G37*
G36*
X117126000Y-69951000D02*
G01*
X116024000Y-69951000D01*
X116024000Y-69249000D01*
X117126000Y-69249000D01*
X117126000Y-69951000D01*
X117126000Y-69951000D01*
G37*
G36*
X44201000Y-69610261D02*
G01*
X44178387Y-69603402D01*
X44154001Y-69601000D01*
X43825999Y-69601000D01*
X43801613Y-69603402D01*
X43799000Y-69604195D01*
X43799000Y-68699000D01*
X44201000Y-68699000D01*
X44201000Y-69610261D01*
X44201000Y-69610261D01*
G37*
G36*
X117126000Y-66726000D02*
G01*
X116024000Y-66726000D01*
X116024000Y-66024000D01*
X117126000Y-66024000D01*
X117126000Y-66726000D01*
X117126000Y-66726000D01*
G37*
G36*
X118851000Y-66476000D02*
G01*
X117749000Y-66476000D01*
X117749000Y-64824000D01*
X118851000Y-64824000D01*
X118851000Y-66476000D01*
X118851000Y-66476000D01*
G37*
G36*
X42251000Y-65176000D02*
G01*
X41149000Y-65176000D01*
X41149000Y-63524000D01*
X42251000Y-63524000D01*
X42251000Y-65176000D01*
X42251000Y-65176000D01*
G37*
G36*
X43976000Y-63976000D02*
G01*
X42874000Y-63976000D01*
X42874000Y-63274000D01*
X43976000Y-63274000D01*
X43976000Y-63976000D01*
X43976000Y-63976000D01*
G37*
G36*
X43976000Y-60751000D02*
G01*
X42874000Y-60751000D01*
X42874000Y-60049000D01*
X43976000Y-60049000D01*
X43976000Y-60751000D01*
X43976000Y-60751000D01*
G37*
G36*
X42251000Y-60476000D02*
G01*
X41149000Y-60476000D01*
X41149000Y-58824000D01*
X42251000Y-58824000D01*
X42251000Y-60476000D01*
X42251000Y-60476000D01*
G37*
G36*
X116143919Y-60339069D02*
G01*
X113891919Y-60339069D01*
X113891919Y-58737069D01*
X116143919Y-58737069D01*
X116143919Y-60339069D01*
X116143919Y-60339069D01*
G37*
G36*
X117668919Y-58251000D02*
G01*
X116566919Y-58251000D01*
X116566919Y-56749000D01*
X117668919Y-56749000D01*
X117668919Y-58251000D01*
X117668919Y-58251000D01*
G37*
G36*
X44726000Y-56726000D02*
G01*
X43274000Y-56726000D01*
X43274000Y-55274000D01*
X44726000Y-55274000D01*
X44726000Y-56726000D01*
X44726000Y-56726000D01*
G37*
G36*
X117668919Y-55701000D02*
G01*
X116566919Y-55701000D01*
X116566919Y-54299000D01*
X117668919Y-54299000D01*
X117668919Y-55701000D01*
X117668919Y-55701000D01*
G37*
G36*
X44071213Y-53277502D02*
G01*
X44142321Y-53284505D01*
X44279172Y-53326019D01*
X44279175Y-53326020D01*
X44405294Y-53393432D01*
X44515843Y-53484157D01*
X44606568Y-53594706D01*
X44673980Y-53720825D01*
X44673981Y-53720828D01*
X44715495Y-53857679D01*
X44729512Y-54000000D01*
X44715495Y-54142321D01*
X44673981Y-54279172D01*
X44673980Y-54279175D01*
X44606568Y-54405294D01*
X44515843Y-54515843D01*
X44405294Y-54606568D01*
X44279175Y-54673980D01*
X44279172Y-54673981D01*
X44142321Y-54715495D01*
X44071213Y-54722498D01*
X44035660Y-54726000D01*
X43964340Y-54726000D01*
X43928787Y-54722498D01*
X43857679Y-54715495D01*
X43720828Y-54673981D01*
X43720825Y-54673980D01*
X43594706Y-54606568D01*
X43484157Y-54515843D01*
X43393432Y-54405294D01*
X43326020Y-54279175D01*
X43326019Y-54279172D01*
X43284505Y-54142321D01*
X43270488Y-54000000D01*
X43284505Y-53857679D01*
X43326019Y-53720828D01*
X43326020Y-53720825D01*
X43393432Y-53594706D01*
X43484157Y-53484157D01*
X43594706Y-53393432D01*
X43720825Y-53326020D01*
X43720828Y-53326019D01*
X43857679Y-53284505D01*
X43928787Y-53277502D01*
X43964340Y-53274000D01*
X44035660Y-53274000D01*
X44071213Y-53277502D01*
X44071213Y-53277502D01*
G37*
G36*
X117668919Y-53251000D02*
G01*
X116566919Y-53251000D01*
X116566919Y-51749000D01*
X117668919Y-51749000D01*
X117668919Y-53251000D01*
X117668919Y-53251000D01*
G37*
G36*
X116143919Y-51339069D02*
G01*
X113891919Y-51339069D01*
X113891919Y-49737069D01*
X116143919Y-49737069D01*
X116143919Y-51339069D01*
X116143919Y-51339069D01*
G37*
G36*
X42251000Y-51176000D02*
G01*
X41149000Y-51176000D01*
X41149000Y-49524000D01*
X42251000Y-49524000D01*
X42251000Y-51176000D01*
X42251000Y-51176000D01*
G37*
G36*
X43976000Y-49976000D02*
G01*
X42874000Y-49976000D01*
X42874000Y-49274000D01*
X43976000Y-49274000D01*
X43976000Y-49976000D01*
X43976000Y-49976000D01*
G37*
G36*
X118903952Y-46152653D02*
G01*
X118957819Y-46157958D01*
X119034518Y-46181225D01*
X119061498Y-46189409D01*
X119157038Y-46240476D01*
X119240790Y-46309210D01*
X119309524Y-46392962D01*
X119360591Y-46488502D01*
X119360592Y-46488506D01*
X119392042Y-46592181D01*
X119402661Y-46700000D01*
X119392042Y-46807819D01*
X119368775Y-46884518D01*
X119360591Y-46911498D01*
X119309524Y-47007038D01*
X119240790Y-47090790D01*
X119157038Y-47159524D01*
X119061498Y-47210591D01*
X119034518Y-47218775D01*
X118957819Y-47242042D01*
X118903952Y-47247347D01*
X118877019Y-47250000D01*
X118022981Y-47250000D01*
X117996048Y-47247347D01*
X117942181Y-47242042D01*
X117865482Y-47218775D01*
X117838502Y-47210591D01*
X117742962Y-47159524D01*
X117659210Y-47090790D01*
X117590476Y-47007038D01*
X117539409Y-46911498D01*
X117531225Y-46884518D01*
X117507958Y-46807819D01*
X117497339Y-46700000D01*
X117507958Y-46592181D01*
X117539408Y-46488506D01*
X117539409Y-46488502D01*
X117590476Y-46392962D01*
X117659210Y-46309210D01*
X117742962Y-46240476D01*
X117838502Y-46189409D01*
X117865482Y-46181225D01*
X117942181Y-46157958D01*
X117996048Y-46152653D01*
X118022981Y-46150000D01*
X118877019Y-46150000D01*
X118903952Y-46152653D01*
X118903952Y-46152653D01*
G37*
G36*
X115003952Y-46152653D02*
G01*
X115057819Y-46157958D01*
X115134518Y-46181225D01*
X115161498Y-46189409D01*
X115257038Y-46240476D01*
X115340790Y-46309210D01*
X115409524Y-46392962D01*
X115460591Y-46488502D01*
X115460592Y-46488506D01*
X115492042Y-46592181D01*
X115502661Y-46700000D01*
X115492042Y-46807819D01*
X115468775Y-46884518D01*
X115460591Y-46911498D01*
X115409524Y-47007038D01*
X115340790Y-47090790D01*
X115257038Y-47159524D01*
X115161498Y-47210591D01*
X115134518Y-47218775D01*
X115057819Y-47242042D01*
X115003952Y-47247347D01*
X114977019Y-47250000D01*
X114122981Y-47250000D01*
X114096048Y-47247347D01*
X114042181Y-47242042D01*
X113965482Y-47218775D01*
X113938502Y-47210591D01*
X113842962Y-47159524D01*
X113759210Y-47090790D01*
X113690476Y-47007038D01*
X113639409Y-46911498D01*
X113631225Y-46884518D01*
X113607958Y-46807819D01*
X113597339Y-46700000D01*
X113607958Y-46592181D01*
X113639408Y-46488506D01*
X113639409Y-46488502D01*
X113690476Y-46392962D01*
X113759210Y-46309210D01*
X113842962Y-46240476D01*
X113938502Y-46189409D01*
X113965482Y-46181225D01*
X114042181Y-46157958D01*
X114096048Y-46152653D01*
X114122981Y-46150000D01*
X114977019Y-46150000D01*
X115003952Y-46152653D01*
X115003952Y-46152653D01*
G37*
G36*
X43976000Y-46751000D02*
G01*
X42874000Y-46751000D01*
X42874000Y-46049000D01*
X43976000Y-46049000D01*
X43976000Y-46751000D01*
X43976000Y-46751000D01*
G37*
G36*
X42251000Y-46476000D02*
G01*
X41149000Y-46476000D01*
X41149000Y-44824000D01*
X42251000Y-44824000D01*
X42251000Y-46476000D01*
X42251000Y-46476000D01*
G37*
G36*
X116050000Y-44550000D02*
G01*
X114600000Y-44550000D01*
X114600000Y-41450000D01*
X116050000Y-41450000D01*
X116050000Y-44550000D01*
X116050000Y-44550000D01*
G37*
G36*
X119050000Y-44050000D02*
G01*
X116950000Y-44050000D01*
X116950000Y-41950000D01*
X119050000Y-41950000D01*
X119050000Y-44050000D01*
X119050000Y-44050000D01*
G37*
G36*
X44201000Y-41301000D02*
G01*
X43799000Y-41301000D01*
X43799000Y-40395805D01*
X43801613Y-40396598D01*
X43825999Y-40399000D01*
X44154001Y-40399000D01*
X44178387Y-40396598D01*
X44201000Y-40389739D01*
X44201000Y-41301000D01*
X44201000Y-41301000D01*
G37*
G36*
X43326000Y-39649001D02*
G01*
X43328402Y-39673387D01*
X43335515Y-39696836D01*
X43347066Y-39718447D01*
X43362611Y-39737389D01*
X43381553Y-39752934D01*
X43403164Y-39764485D01*
X43426613Y-39771598D01*
X43450999Y-39774000D01*
X43674001Y-39774000D01*
X43698387Y-39771598D01*
X43701000Y-39770805D01*
X43701000Y-40229195D01*
X43698387Y-40228402D01*
X43674001Y-40226000D01*
X43450999Y-40226000D01*
X43426613Y-40228402D01*
X43403164Y-40235515D01*
X43381553Y-40247066D01*
X43362611Y-40262611D01*
X43347066Y-40281553D01*
X43335515Y-40303164D01*
X43328402Y-40326613D01*
X43326000Y-40350999D01*
X43326000Y-41301000D01*
X42874000Y-41301000D01*
X42874000Y-40350999D01*
X42871598Y-40326613D01*
X42864485Y-40303164D01*
X42852934Y-40281553D01*
X42837389Y-40262611D01*
X42818447Y-40247066D01*
X42796836Y-40235515D01*
X42773387Y-40228402D01*
X42749001Y-40226000D01*
X42599000Y-40226000D01*
X42599000Y-39774000D01*
X42749001Y-39774000D01*
X42773387Y-39771598D01*
X42796836Y-39764485D01*
X42818447Y-39752934D01*
X42837389Y-39737389D01*
X42852934Y-39718447D01*
X42864485Y-39696836D01*
X42871598Y-39673387D01*
X42874000Y-39649001D01*
X42874000Y-38699000D01*
X43326000Y-38699000D01*
X43326000Y-39649001D01*
X43326000Y-39649001D01*
G37*
G36*
X45126000Y-39649001D02*
G01*
X45128402Y-39673387D01*
X45135515Y-39696836D01*
X45147066Y-39718447D01*
X45162611Y-39737389D01*
X45181553Y-39752934D01*
X45203164Y-39764485D01*
X45226613Y-39771598D01*
X45250999Y-39774000D01*
X45381000Y-39774000D01*
X45381000Y-40226000D01*
X45250999Y-40226000D01*
X45226613Y-40228402D01*
X45203164Y-40235515D01*
X45181553Y-40247066D01*
X45162611Y-40262611D01*
X45147066Y-40281553D01*
X45135515Y-40303164D01*
X45128402Y-40326613D01*
X45126000Y-40350999D01*
X45126000Y-41301000D01*
X44674000Y-41301000D01*
X44674000Y-40350999D01*
X44671598Y-40326613D01*
X44664485Y-40303164D01*
X44652934Y-40281553D01*
X44637389Y-40262611D01*
X44618447Y-40247066D01*
X44596836Y-40235515D01*
X44573387Y-40228402D01*
X44549001Y-40226000D01*
X44325999Y-40226000D01*
X44301613Y-40228402D01*
X44279000Y-40235261D01*
X44279000Y-39764739D01*
X44301613Y-39771598D01*
X44325999Y-39774000D01*
X44549001Y-39774000D01*
X44573387Y-39771598D01*
X44596836Y-39764485D01*
X44618447Y-39752934D01*
X44637389Y-39737389D01*
X44652934Y-39718447D01*
X44664485Y-39696836D01*
X44671598Y-39673387D01*
X44674000Y-39649001D01*
X44674000Y-38699000D01*
X45126000Y-38699000D01*
X45126000Y-39649001D01*
X45126000Y-39649001D01*
G37*
G36*
X115003952Y-38777653D02*
G01*
X115057819Y-38782958D01*
X115134518Y-38806225D01*
X115161498Y-38814409D01*
X115257038Y-38865476D01*
X115340790Y-38934210D01*
X115409524Y-39017962D01*
X115460591Y-39113502D01*
X115460592Y-39113506D01*
X115492042Y-39217181D01*
X115502661Y-39325000D01*
X115492042Y-39432819D01*
X115468775Y-39509518D01*
X115460591Y-39536498D01*
X115409524Y-39632038D01*
X115409522Y-39632041D01*
X115409521Y-39632042D01*
X115340790Y-39715790D01*
X115269862Y-39774000D01*
X115257038Y-39784524D01*
X115161498Y-39835591D01*
X115140232Y-39842042D01*
X115057819Y-39867042D01*
X115003952Y-39872347D01*
X114977019Y-39875000D01*
X114122981Y-39875000D01*
X114096048Y-39872347D01*
X114042181Y-39867042D01*
X113959768Y-39842042D01*
X113938502Y-39835591D01*
X113842962Y-39784524D01*
X113830139Y-39774000D01*
X113759210Y-39715790D01*
X113690479Y-39632042D01*
X113690478Y-39632041D01*
X113690476Y-39632038D01*
X113639409Y-39536498D01*
X113631225Y-39509518D01*
X113607958Y-39432819D01*
X113597339Y-39325000D01*
X113607958Y-39217181D01*
X113639408Y-39113506D01*
X113639409Y-39113502D01*
X113690476Y-39017962D01*
X113759210Y-38934210D01*
X113842962Y-38865476D01*
X113938502Y-38814409D01*
X113965482Y-38806225D01*
X114042181Y-38782958D01*
X114096048Y-38777653D01*
X114122981Y-38775000D01*
X114977019Y-38775000D01*
X115003952Y-38777653D01*
X115003952Y-38777653D01*
G37*
G36*
X118903952Y-38752653D02*
G01*
X118957819Y-38757958D01*
X119034518Y-38781225D01*
X119061498Y-38789409D01*
X119157038Y-38840476D01*
X119157041Y-38840478D01*
X119157042Y-38840479D01*
X119187504Y-38865479D01*
X119240790Y-38909210D01*
X119309524Y-38992962D01*
X119360591Y-39088502D01*
X119360592Y-39088506D01*
X119392042Y-39192181D01*
X119402661Y-39300000D01*
X119392042Y-39407819D01*
X119384458Y-39432819D01*
X119360591Y-39511498D01*
X119309524Y-39607038D01*
X119309522Y-39607041D01*
X119309521Y-39607042D01*
X119240790Y-39690790D01*
X119184010Y-39737389D01*
X119157038Y-39759524D01*
X119061498Y-39810591D01*
X119034518Y-39818775D01*
X118957819Y-39842042D01*
X118903952Y-39847347D01*
X118877019Y-39850000D01*
X118022981Y-39850000D01*
X117996048Y-39847347D01*
X117942181Y-39842042D01*
X117865482Y-39818775D01*
X117838502Y-39810591D01*
X117742962Y-39759524D01*
X117715991Y-39737389D01*
X117659210Y-39690790D01*
X117590479Y-39607042D01*
X117590478Y-39607041D01*
X117590476Y-39607038D01*
X117539409Y-39511498D01*
X117515542Y-39432819D01*
X117507958Y-39407819D01*
X117497339Y-39300000D01*
X117507958Y-39192181D01*
X117539408Y-39088506D01*
X117539409Y-39088502D01*
X117590476Y-38992962D01*
X117659210Y-38909210D01*
X117712496Y-38865479D01*
X117742958Y-38840479D01*
X117742959Y-38840478D01*
X117742962Y-38840476D01*
X117838502Y-38789409D01*
X117865482Y-38781225D01*
X117942181Y-38757958D01*
X117996048Y-38752653D01*
X118022981Y-38750000D01*
X118877019Y-38750000D01*
X118903952Y-38752653D01*
X118903952Y-38752653D01*
G37*
G36*
X44201000Y-39610261D02*
G01*
X44178387Y-39603402D01*
X44154001Y-39601000D01*
X43825999Y-39601000D01*
X43801613Y-39603402D01*
X43799000Y-39604195D01*
X43799000Y-38699000D01*
X44201000Y-38699000D01*
X44201000Y-39610261D01*
X44201000Y-39610261D01*
G37*
G36*
X117775880Y-30259776D02*
G01*
X118156593Y-30335504D01*
X118566249Y-30505189D01*
X118934929Y-30751534D01*
X119248466Y-31065071D01*
X119494811Y-31433751D01*
X119664496Y-31843407D01*
X119751000Y-32278296D01*
X119751000Y-32721704D01*
X119664496Y-33156593D01*
X119494811Y-33566249D01*
X119248466Y-33934929D01*
X118934929Y-34248466D01*
X118566249Y-34494811D01*
X118156593Y-34664496D01*
X117775880Y-34740224D01*
X117721705Y-34751000D01*
X117278295Y-34751000D01*
X117224120Y-34740224D01*
X116843407Y-34664496D01*
X116433751Y-34494811D01*
X116065071Y-34248466D01*
X115751534Y-33934929D01*
X115505189Y-33566249D01*
X115335504Y-33156593D01*
X115249000Y-32721704D01*
X115249000Y-32278296D01*
X115335504Y-31843407D01*
X115505189Y-31433751D01*
X115751534Y-31065071D01*
X116065071Y-30751534D01*
X116433751Y-30505189D01*
X116843407Y-30335504D01*
X117224120Y-30259776D01*
X117278295Y-30249000D01*
X117721705Y-30249000D01*
X117775880Y-30259776D01*
X117775880Y-30259776D01*
G37*
G36*
X42775880Y-30259776D02*
G01*
X43156593Y-30335504D01*
X43566249Y-30505189D01*
X43934929Y-30751534D01*
X44248466Y-31065071D01*
X44494811Y-31433751D01*
X44664496Y-31843407D01*
X44751000Y-32278296D01*
X44751000Y-32721704D01*
X44664496Y-33156593D01*
X44494811Y-33566249D01*
X44248466Y-33934929D01*
X43934929Y-34248466D01*
X43566249Y-34494811D01*
X43156593Y-34664496D01*
X42775880Y-34740224D01*
X42721705Y-34751000D01*
X42278295Y-34751000D01*
X42224120Y-34740224D01*
X41843407Y-34664496D01*
X41433751Y-34494811D01*
X41065071Y-34248466D01*
X40751534Y-33934929D01*
X40505189Y-33566249D01*
X40335504Y-33156593D01*
X40249000Y-32721704D01*
X40249000Y-32278296D01*
X40335504Y-31843407D01*
X40505189Y-31433751D01*
X40751534Y-31065071D01*
X41065071Y-30751534D01*
X41433751Y-30505189D01*
X41843407Y-30335504D01*
X42224120Y-30259776D01*
X42278295Y-30249000D01*
X42721705Y-30249000D01*
X42775880Y-30259776D01*
X42775880Y-30259776D01*
G37*
G36*
X50451000Y-33551000D02*
G01*
X49349000Y-33551000D01*
X49349000Y-31449000D01*
X50451000Y-31449000D01*
X50451000Y-33551000D01*
X50451000Y-33551000D01*
G37*
G36*
X52451000Y-33551000D02*
G01*
X51349000Y-33551000D01*
X51349000Y-31449000D01*
X52451000Y-31449000D01*
X52451000Y-33551000D01*
X52451000Y-33551000D01*
G37*
G36*
X54451000Y-33551000D02*
G01*
X53349000Y-33551000D01*
X53349000Y-31449000D01*
X54451000Y-31449000D01*
X54451000Y-33551000D01*
X54451000Y-33551000D01*
G37*
G36*
X56451000Y-33551000D02*
G01*
X55349000Y-33551000D01*
X55349000Y-31449000D01*
X56451000Y-31449000D01*
X56451000Y-33551000D01*
X56451000Y-33551000D01*
G37*
G36*
X60451000Y-33551000D02*
G01*
X59349000Y-33551000D01*
X59349000Y-31449000D01*
X60451000Y-31449000D01*
X60451000Y-33551000D01*
X60451000Y-33551000D01*
G37*
G36*
X63251000Y-33551000D02*
G01*
X62149000Y-33551000D01*
X62149000Y-31449000D01*
X63251000Y-31449000D01*
X63251000Y-33551000D01*
X63251000Y-33551000D01*
G37*
G36*
X65251000Y-33551000D02*
G01*
X64149000Y-33551000D01*
X64149000Y-31449000D01*
X65251000Y-31449000D01*
X65251000Y-33551000D01*
X65251000Y-33551000D01*
G37*
G36*
X67251000Y-33551000D02*
G01*
X66149000Y-33551000D01*
X66149000Y-31449000D01*
X67251000Y-31449000D01*
X67251000Y-33551000D01*
X67251000Y-33551000D01*
G37*
G36*
X58451000Y-33551000D02*
G01*
X57349000Y-33551000D01*
X57349000Y-31449000D01*
X58451000Y-31449000D01*
X58451000Y-33551000D01*
X58451000Y-33551000D01*
G37*
M02*
