M48
; DRILL file {KiCad 5.1.2} date Thu 04 Jul 2019 05:17:57 CEST
; FORMAT={-:-/ absolute / metric / decimal}
; #@! TF.CreationDate,2019-07-04T05:17:57+02:00
; #@! TF.GenerationSoftware,Kicad,Pcbnew,5.1.2
FMAT,2
METRIC
T1C0.300
T2C0.400
T3C0.800
T4C2.200
T5C0.500
%
G90
G05
T1
X40.8Y-35.0
X40.8Y-40.0
X40.8Y-55.0
X40.8Y-70.0
X40.8Y-75.0
X43.1Y-37.05
X43.4Y-58.4
X44.0Y-35.95
X45.0Y-30.8
X45.0Y-79.2
X45.175Y-49.625
X46.0Y-42.5
X46.3Y-66.8
X47.9Y-40.2
X50.0Y-79.2
X51.9Y-40.9
X52.9Y-41.9
X52.9Y-46.2
X52.9Y-47.7
X52.9Y-73.6
X53.9Y-40.9
X54.9Y-41.9
X54.9Y-46.2
X54.9Y-47.7
X54.9Y-50.3
X54.9Y-53.3
X55.0Y-79.2
X55.9Y-40.1
X56.8Y-57.0
X58.8Y-53.3
X58.8Y-62.2
X58.8Y-73.6
X58.805Y-69.65
X59.7Y-62.9
X59.7Y-68.8
X59.7Y-73.6
X59.7Y-53.3
X59.75Y-40.1
X60.0Y-79.2
X60.0Y-50.3
X61.8Y-50.3
X62.4Y-54.1
X62.5Y-57.8
X62.7Y-50.3
X63.4Y-54.1
X63.5Y-57.8
X63.6Y-50.3
X65.0Y-79.2
X65.1Y-37.6
X65.1Y-38.9
X65.1Y-40.1
X65.1Y-42.1
X65.1Y-58.7
X66.3Y-49.1
X66.3Y-54.1
X70.0Y-30.8
X70.0Y-79.2
X75.0Y-30.8
X75.0Y-79.2
X76.2Y-70.0
X77.2Y-69.1
X78.8Y-79.2
X80.0Y-30.8
X80.3Y-79.2
X85.0Y-30.8
X85.0Y-79.2
X90.0Y-30.8
X90.0Y-79.2
X91.2Y-40.1
X95.0Y-30.8
X95.0Y-79.2
X100.0Y-30.8
X100.0Y-79.2
X101.1Y-43.6
X101.1Y-44.4
X101.1Y-45.2
X101.1Y-46.9
X102.0Y-46.9
X102.3Y-56.2
X102.3Y-57.6
X102.3Y-59.3
X104.5Y-40.5
X104.5Y-46.9
X105.0Y-30.8
X105.0Y-79.2
X105.5Y-40.5
X105.5Y-46.9
X105.5Y-56.9
X107.6Y-57.5
X108.4Y-38.0
X108.4Y-40.5
X108.6Y-57.5
X108.9Y-65.3
X109.6Y-57.5
X110.0Y-30.8
X110.0Y-79.2
X110.6Y-57.5
X112.9Y-73.6
X114.9Y-62.7
X115.0Y-30.8
X115.0Y-69.6
X115.0Y-79.2
X119.2Y-35.0
X119.2Y-50.0
X119.2Y-55.0
X119.2Y-60.0
X119.2Y-65.0
X119.2Y-70.0
X119.2Y-73.6
X119.2Y-75.0
T2
X40.85Y-32.5
X41.333Y-31.333
X41.333Y-33.667
X42.5Y-30.85
X42.5Y-34.15
X43.667Y-31.333
X43.667Y-33.667
X44.15Y-32.5
X40.85Y-77.5
X41.333Y-76.333
X41.333Y-78.667
X42.5Y-75.85
X42.5Y-79.15
X43.667Y-76.333
X43.667Y-78.667
X44.15Y-77.5
X115.85Y-77.5
X116.333Y-76.333
X116.333Y-78.667
X117.5Y-75.85
X117.5Y-79.15
X118.667Y-76.333
X118.667Y-78.667
X119.15Y-77.5
X115.85Y-32.5
X116.333Y-31.333
X116.333Y-33.667
X117.5Y-30.85
X117.5Y-34.15
X118.667Y-31.333
X118.667Y-33.667
X119.15Y-32.5
T3
X44.0Y-54.0
X44.0Y-56.0
T4
X42.5Y-32.5
X42.5Y-77.5
X117.5Y-77.5
X117.5Y-32.5
T5
X42.1Y-47.15
X42.1Y-48.85
X117.9Y-67.15
X117.9Y-68.85
X42.1Y-61.15
X42.1Y-62.85
T2
G00X114.85Y-39.325
M15
G01X114.25Y-39.325
M16
G05
G00X114.85Y-46.7
M15
G01X114.25Y-46.7
M16
G05
G00X118.75Y-39.3
M15
G01X118.15Y-39.3
M16
G05
G00X118.75Y-46.7
M15
G01X118.15Y-46.7
M16
G05
T0
M30
