<?xml version="1.0" standalone="no"?>
 <!DOCTYPE svg PUBLIC "-//W3C//DTD SVG 1.1//EN" 
 "http://www.w3.org/Graphics/SVG/1.1/DTD/svg11.dtd"> 
<svg xmlns="http://www.w3.org/2000/svg" version="1.1" 
    width="8.45312cm" height="5.58546cm" viewBox="0 0 33280 21990 ">
<title>SVG Picture created as modular_SMALL_rgb_neopixel_matrix-B.Cu.svg date 2017/09/14 10:47:07 </title>
  <desc>Picture generated by PCBNEW </desc>
<g style="fill:#000000; fill-opacity:1;stroke:#000000; stroke-opacity:1;
stroke-linecap:round; stroke-linejoin:round; "
 transform="translate(0 0) scale(1 1)">
</g>
<g style="fill:#000000; fill-opacity:0.0; 
stroke:#000000; stroke-width:-0.000393701; stroke-opacity:1; 
stroke-linecap:round; stroke-linejoin:round;">
</g>
<g style="fill:#000000; fill-opacity:0.0; 
stroke:#000000; stroke-width:0; stroke-opacity:1; 
stroke-linecap:round; stroke-linejoin:round;">
</g>
<g style="fill:#000000; fill-opacity:1.0; 
stroke:#000000; stroke-width:0; stroke-opacity:1; 
stroke-linecap:round; stroke-linejoin:round;">
<polyline style="fill-rule:evenodd;"
points="31692,13458
31692,14048
30905,14048
30905,13458
31692,13458
" /> 
<polyline style="fill-rule:evenodd;"
points="31692,12670
31692,13261
30905,13261
30905,12670
31692,12670
" /> 
<polyline style="fill-rule:evenodd;"
points="31692,11883
31692,12473
30905,12473
30905,11883
31692,11883
" /> 
<polyline style="fill-rule:evenodd;"
points="31692,11095
31692,11686
30905,11686
30905,11095
31692,11095
" /> 
<polyline style="fill-rule:evenodd;"
points="31692,10308
31692,10898
30905,10898
30905,10308
31692,10308
" /> 
<polyline style="fill-rule:evenodd;"
points="31692,9520
31692,10111
30905,10111
30905,9520
31692,9520
" /> 
<polyline style="fill-rule:evenodd;"
points="31692,8733
31692,9324
30905,9324
30905,8733
31692,8733
" /> 
<polyline style="fill-rule:evenodd;"
points="31692,7946
31692,8536
30905,8536
30905,7946
31692,7946
" /> 
<polyline style="fill-rule:evenodd;"
points="18523,1587
19114,1587
19114,2375
18523,2375
18523,1587
" /> 
<polyline style="fill-rule:evenodd;"
points="19311,1587
19901,1587
19901,2375
19311,2375
19311,1587
" /> 
<polyline style="fill-rule:evenodd;"
points="20098,1587
20688,1587
20688,2375
20098,2375
20098,1587
" /> 
<polyline style="fill-rule:evenodd;"
points="4311,19619
4901,19619
4901,20406
4311,20406
4311,19619
" /> 
<polyline style="fill-rule:evenodd;"
points="5098,19619
5688,19619
5688,20406
5098,20406
5098,19619
" /> 
<polyline style="fill-rule:evenodd;"
points="5885,19619
6476,19619
6476,20406
5885,20406
5885,19619
" /> 
<polyline style="fill-rule:evenodd;"
points="18523,19619
19114,19619
19114,20406
18523,20406
18523,19619
" /> 
<polyline style="fill-rule:evenodd;"
points="19311,19619
19901,19619
19901,20406
19311,20406
19311,19619
" /> 
<polyline style="fill-rule:evenodd;"
points="20098,19619
20688,19619
20688,20406
20098,20406
20098,19619
" /> 
<polyline style="fill-rule:evenodd;"
points="4311,1587
4901,1587
4901,2375
4311,2375
4311,1587
" /> 
<polyline style="fill-rule:evenodd;"
points="5098,1587
5688,1587
5688,2375
5098,2375
5098,1587
" /> 
<polyline style="fill-rule:evenodd;"
points="5885,1587
6476,1587
6476,2375
5885,2375
5885,1587
" /> 
</g>
<g style="fill:#000000; fill-opacity:1.0; 
stroke:#000000; stroke-width:100; stroke-opacity:1; 
stroke-linecap:round; stroke-linejoin:round;">
<polyline style="fill-rule:evenodd;"
points="18138,2690
18140,2704
18146,2717
18155,2727
18167,2735
18181,2739
18188,2740
20984,2740
20998,2738
21011,2732
21021,2723
21029,2711
21033,2698
21034,2690
21034,1628
30586,1628
30804,1649
31010,1711
31199,1812
31366,1948
31503,2113
31605,2302
31669,2508
31692,2725
31692,2729
31692,7522
30551,7522
30537,7524
30524,7529
30513,7539
30505,7550
30501,7564
30501,7572
30501,14343
30503,14357
30508,14370
30518,14381
30529,14389
30543,14393
30551,14393
31692,14393
31692,18920
31689,19285
31670,19478
31608,19684
31507,19874
31371,20041
31206,20178
31017,20280
30811,20343
30594,20366
30590,20366
21073,20366
21073,19383
21071,19369
21065,19356
21056,19345
21044,19337
21031,19333
21023,19333
18188,19333
18175,19335
18162,19340
18151,19350
18143,19361
18139,19375
18138,19383
18138,20366
6861,20366
6861,19383
6859,19369
6853,19356
6844,19345
6832,19337
6818,19333
6811,19333
3976,19333
3962,19335
3949,19340
3938,19350
3931,19361
3927,19375
3926,19383
3926,20366
2444,20366
2227,20345
2021,20283
1831,20182
1665,20046
1528,19880
1425,19691
1362,19486
1339,19269
1339,19264
1339,2733
1360,2515
1422,2310
1523,2120
1659,1953
1825,1816
2014,1714
2219,1650
2437,1628
2441,1628
18138,1628
18138,2690
" /> 
<polyline style="fill-rule:evenodd;"
points="20698,2325
18475,2325
18475,1628
20698,1628
20698,2325
" /> 
<polyline style="fill-rule:evenodd;"
points="20658,20366
18553,20366
18553,19669
20658,19669
20658,20366
" /> 
<polyline style="fill-rule:evenodd;"
points="6446,20366
4341,20366
4341,19669
6446,19669
6446,20366
" /> 
</g>
<g style="fill:#FFFFFF; fill-opacity:1.0; 
stroke:#FFFFFF; stroke-width:100; stroke-opacity:1; 
stroke-linecap:round; stroke-linejoin:round;">
</g>
<g style="fill:#FFFFFF; fill-opacity:1.0; 
stroke:#FFFFFF; stroke-width:0; stroke-opacity:1; 
stroke-linecap:round; stroke-linejoin:round;">
<circle cx="31299.2" cy="13753.3" r="157.48" /> 
</g>
<g style="fill:#FFFFFF; fill-opacity:1.0; 
stroke:#FFFFFF; stroke-width:39.3701; stroke-opacity:1; 
stroke-linecap:round; stroke-linejoin:round;">
</g>
<g style="fill:#FFFFFF; fill-opacity:1.0; 
stroke:#FFFFFF; stroke-width:0; stroke-opacity:1; 
stroke-linecap:round; stroke-linejoin:round;">
<circle cx="31299.2" cy="12965.9" r="157.48" /> 
</g>
<g style="fill:#FFFFFF; fill-opacity:1.0; 
stroke:#FFFFFF; stroke-width:39.3701; stroke-opacity:1; 
stroke-linecap:round; stroke-linejoin:round;">
</g>
<g style="fill:#FFFFFF; fill-opacity:1.0; 
stroke:#FFFFFF; stroke-width:0; stroke-opacity:1; 
stroke-linecap:round; stroke-linejoin:round;">
<circle cx="31299.2" cy="12178.5" r="157.48" /> 
</g>
<g style="fill:#FFFFFF; fill-opacity:1.0; 
stroke:#FFFFFF; stroke-width:39.3701; stroke-opacity:1; 
stroke-linecap:round; stroke-linejoin:round;">
</g>
<g style="fill:#FFFFFF; fill-opacity:1.0; 
stroke:#FFFFFF; stroke-width:0; stroke-opacity:1; 
stroke-linecap:round; stroke-linejoin:round;">
<circle cx="31299.2" cy="11391.1" r="157.48" /> 
</g>
<g style="fill:#FFFFFF; fill-opacity:1.0; 
stroke:#FFFFFF; stroke-width:39.3701; stroke-opacity:1; 
stroke-linecap:round; stroke-linejoin:round;">
</g>
<g style="fill:#FFFFFF; fill-opacity:1.0; 
stroke:#FFFFFF; stroke-width:0; stroke-opacity:1; 
stroke-linecap:round; stroke-linejoin:round;">
<circle cx="31299.2" cy="10603.7" r="157.48" /> 
</g>
<g style="fill:#FFFFFF; fill-opacity:1.0; 
stroke:#FFFFFF; stroke-width:39.3701; stroke-opacity:1; 
stroke-linecap:round; stroke-linejoin:round;">
</g>
<g style="fill:#FFFFFF; fill-opacity:1.0; 
stroke:#FFFFFF; stroke-width:0; stroke-opacity:1; 
stroke-linecap:round; stroke-linejoin:round;">
<circle cx="31299.2" cy="9816.27" r="157.48" /> 
</g>
<g style="fill:#FFFFFF; fill-opacity:1.0; 
stroke:#FFFFFF; stroke-width:39.3701; stroke-opacity:1; 
stroke-linecap:round; stroke-linejoin:round;">
</g>
<g style="fill:#FFFFFF; fill-opacity:1.0; 
stroke:#FFFFFF; stroke-width:0; stroke-opacity:1; 
stroke-linecap:round; stroke-linejoin:round;">
<circle cx="31299.2" cy="9028.87" r="157.48" /> 
</g>
<g style="fill:#FFFFFF; fill-opacity:1.0; 
stroke:#FFFFFF; stroke-width:39.3701; stroke-opacity:1; 
stroke-linecap:round; stroke-linejoin:round;">
</g>
<g style="fill:#FFFFFF; fill-opacity:1.0; 
stroke:#FFFFFF; stroke-width:0; stroke-opacity:1; 
stroke-linecap:round; stroke-linejoin:round;">
<circle cx="31299.2" cy="8241.47" r="157.48" /> 
</g>
<g style="fill:#FFFFFF; fill-opacity:1.0; 
stroke:#FFFFFF; stroke-width:39.3701; stroke-opacity:1; 
stroke-linecap:round; stroke-linejoin:round;">
</g>
<g style="fill:#FFFFFF; fill-opacity:1.0; 
stroke:#FFFFFF; stroke-width:0; stroke-opacity:1; 
stroke-linecap:round; stroke-linejoin:round;">
<circle cx="18818.9" cy="1981.63" r="157.48" /> 
</g>
<g style="fill:#FFFFFF; fill-opacity:1.0; 
stroke:#FFFFFF; stroke-width:39.3701; stroke-opacity:1; 
stroke-linecap:round; stroke-linejoin:round;">
</g>
<g style="fill:#FFFFFF; fill-opacity:1.0; 
stroke:#FFFFFF; stroke-width:0; stroke-opacity:1; 
stroke-linecap:round; stroke-linejoin:round;">
<circle cx="19606.3" cy="1981.63" r="157.48" /> 
</g>
<g style="fill:#FFFFFF; fill-opacity:1.0; 
stroke:#FFFFFF; stroke-width:39.3701; stroke-opacity:1; 
stroke-linecap:round; stroke-linejoin:round;">
</g>
<g style="fill:#FFFFFF; fill-opacity:1.0; 
stroke:#FFFFFF; stroke-width:0; stroke-opacity:1; 
stroke-linecap:round; stroke-linejoin:round;">
<circle cx="20393.7" cy="1981.63" r="157.48" /> 
</g>
<g style="fill:#FFFFFF; fill-opacity:1.0; 
stroke:#FFFFFF; stroke-width:39.3701; stroke-opacity:1; 
stroke-linecap:round; stroke-linejoin:round;">
</g>
<g style="fill:#FFFFFF; fill-opacity:1.0; 
stroke:#FFFFFF; stroke-width:0; stroke-opacity:1; 
stroke-linecap:round; stroke-linejoin:round;">
<circle cx="4606.3" cy="20013.1" r="157.48" /> 
</g>
<g style="fill:#FFFFFF; fill-opacity:1.0; 
stroke:#FFFFFF; stroke-width:39.3701; stroke-opacity:1; 
stroke-linecap:round; stroke-linejoin:round;">
</g>
<g style="fill:#FFFFFF; fill-opacity:1.0; 
stroke:#FFFFFF; stroke-width:0; stroke-opacity:1; 
stroke-linecap:round; stroke-linejoin:round;">
<circle cx="5393.7" cy="20013.1" r="157.48" /> 
</g>
<g style="fill:#FFFFFF; fill-opacity:1.0; 
stroke:#FFFFFF; stroke-width:39.3701; stroke-opacity:1; 
stroke-linecap:round; stroke-linejoin:round;">
</g>
<g style="fill:#FFFFFF; fill-opacity:1.0; 
stroke:#FFFFFF; stroke-width:0; stroke-opacity:1; 
stroke-linecap:round; stroke-linejoin:round;">
<circle cx="6181.1" cy="20013.1" r="157.48" /> 
</g>
<g style="fill:#FFFFFF; fill-opacity:1.0; 
stroke:#FFFFFF; stroke-width:39.3701; stroke-opacity:1; 
stroke-linecap:round; stroke-linejoin:round;">
</g>
<g style="fill:#FFFFFF; fill-opacity:1.0; 
stroke:#FFFFFF; stroke-width:0; stroke-opacity:1; 
stroke-linecap:round; stroke-linejoin:round;">
<circle cx="18818.9" cy="20013.1" r="157.48" /> 
</g>
<g style="fill:#FFFFFF; fill-opacity:1.0; 
stroke:#FFFFFF; stroke-width:39.3701; stroke-opacity:1; 
stroke-linecap:round; stroke-linejoin:round;">
</g>
<g style="fill:#FFFFFF; fill-opacity:1.0; 
stroke:#FFFFFF; stroke-width:0; stroke-opacity:1; 
stroke-linecap:round; stroke-linejoin:round;">
<circle cx="19606.3" cy="20013.1" r="157.48" /> 
</g>
<g style="fill:#FFFFFF; fill-opacity:1.0; 
stroke:#FFFFFF; stroke-width:39.3701; stroke-opacity:1; 
stroke-linecap:round; stroke-linejoin:round;">
</g>
<g style="fill:#FFFFFF; fill-opacity:1.0; 
stroke:#FFFFFF; stroke-width:0; stroke-opacity:1; 
stroke-linecap:round; stroke-linejoin:round;">
<circle cx="20393.7" cy="20013.1" r="157.48" /> 
</g>
<g style="fill:#FFFFFF; fill-opacity:1.0; 
stroke:#FFFFFF; stroke-width:39.3701; stroke-opacity:1; 
stroke-linecap:round; stroke-linejoin:round;">
</g>
<g style="fill:#FFFFFF; fill-opacity:1.0; 
stroke:#FFFFFF; stroke-width:0; stroke-opacity:1; 
stroke-linecap:round; stroke-linejoin:round;">
<circle cx="4606.3" cy="1981.63" r="157.48" /> 
</g>
<g style="fill:#FFFFFF; fill-opacity:1.0; 
stroke:#FFFFFF; stroke-width:39.3701; stroke-opacity:1; 
stroke-linecap:round; stroke-linejoin:round;">
</g>
<g style="fill:#FFFFFF; fill-opacity:1.0; 
stroke:#FFFFFF; stroke-width:0; stroke-opacity:1; 
stroke-linecap:round; stroke-linejoin:round;">
<circle cx="5393.7" cy="1981.63" r="157.48" /> 
</g>
<g style="fill:#FFFFFF; fill-opacity:1.0; 
stroke:#FFFFFF; stroke-width:39.3701; stroke-opacity:1; 
stroke-linecap:round; stroke-linejoin:round;">
</g>
<g style="fill:#FFFFFF; fill-opacity:1.0; 
stroke:#FFFFFF; stroke-width:0; stroke-opacity:1; 
stroke-linecap:round; stroke-linejoin:round;">
<circle cx="6181.1" cy="1981.63" r="157.48" /> 
</g>
<g style="fill:#FFFFFF; fill-opacity:1.0; 
stroke:#FFFFFF; stroke-width:39.3701; stroke-opacity:1; 
stroke-linecap:round; stroke-linejoin:round;">
</g>
<g style="fill:#000000; fill-opacity:1.0; 
stroke:#000000; stroke-width:39.3701; stroke-opacity:1; 
stroke-linecap:round; stroke-linejoin:round;">
</g> 
</svg>
