<?xml version="1.0" standalone="no"?>
 <!DOCTYPE svg PUBLIC "-//W3C//DTD SVG 1.1//EN" 
 "http://www.w3.org/Graphics/SVG/1.1/DTD/svg11.dtd"> 
<svg xmlns="http://www.w3.org/2000/svg" version="1.1" 
    width="8.2042cm" height="5.08254cm" viewBox="0 0 32300 20010 ">
<title>SVG Picture created as eside_rev15-F.Mask.svg date 2018/08/29 18:39:15 </title>
  <desc>Picture generated by PCBNEW </desc>
<g style="fill:#000000; fill-opacity:1;stroke:#000000; stroke-opacity:1;
stroke-linecap:round; stroke-linejoin:round; "
 transform="translate(0 0) scale(1 1)">
</g>
<g style="fill:#000000; fill-opacity:0.0; 
stroke:#000000; stroke-width:-0.000393701; stroke-opacity:1; 
stroke-linecap:round; stroke-linejoin:round;">
</g>
<g style="fill:#000000; fill-opacity:1.0; 
stroke:#000000; stroke-width:3.93701; stroke-opacity:1; 
stroke-linecap:round; stroke-linejoin:round;">
<polyline style="fill-rule:evenodd;"
points="27315,1490
27318,1522
27321,1555
27089,1555
27089,1484
27315,1490
" /> 
<polyline style="fill-rule:evenodd;"
points="25753,1490
25756,1522
25759,1555
25528,1555
25528,1484
25753,1490
" /> 
<polyline style="fill-rule:evenodd;"
points="24242,1490
24248,1555
24016,1555
24016,1484
24242,1490
" /> 
<polyline style="fill-rule:evenodd;"
points="28057,1636
28067,1642
28070,1660
28070,1680
28070,1708
28065,1721
28051,1725
28035,1725
28014,1724
28004,1717
28001,1700
28000,1680
28001,1652
28006,1639
28020,1635
28035,1635
28057,1636
" /> 
<polyline style="fill-rule:evenodd;"
points="27839,1295
27864,1299
27882,1308
27895,1325
27903,1352
27907,1391
27910,1444
27910,1515
27910,1539
27910,1725
27830,1725
27830,1635
27705,1635
27652,1635
27616,1634
27592,1631
27576,1627
27564,1619
27553,1609
27537,1587
27531,1564
27534,1548
27622,1548
27633,1559
27662,1564
27709,1565
27725,1565
27830,1565
27830,1375
27798,1375
27780,1375
27766,1378
27752,1386
27736,1401
27712,1427
27682,1461
27647,1501
27627,1530
27622,1548
27534,1548
27537,1536
27555,1501
27587,1457
27617,1420
27658,1372
27690,1339
27717,1316
27742,1303
27769,1296
27801,1295
27807,1295
27839,1295
" /> 
<polyline style="fill-rule:evenodd;"
points="26676,1288
26698,1294
26723,1311
26738,1332
26746,1350
26759,1383
26776,1426
26795,1477
26816,1530
26836,1583
26854,1631
26869,1670
26875,1687
26888,1725
26846,1725
26804,1725
26738,1547
26713,1483
26694,1435
26679,1402
26668,1382
26659,1372
26653,1370
26644,1373
26635,1386
26622,1410
26605,1447
26584,1499
26565,1547
26495,1725
26411,1725
26491,1522
26515,1462
26537,1408
26556,1362
26571,1328
26581,1309
26583,1307
26606,1294
26640,1287
26676,1288
" /> 
<polyline style="fill-rule:evenodd;"
points="26339,1375
26218,1375
26157,1375
26114,1378
26085,1384
26068,1394
26060,1409
26058,1423
26062,1448
26074,1463
26098,1472
26138,1475
26153,1475
26225,1479
26283,1490
26324,1508
26336,1517
26356,1548
26365,1589
26362,1633
26354,1658
26340,1682
26322,1699
26296,1712
26261,1719
26212,1723
26147,1725
26129,1725
25988,1725
25988,1645
26119,1645
26170,1644
26215,1642
26249,1639
26268,1635
26269,1635
26283,1618
26289,1593
26285,1569
26276,1558
26261,1554
26231,1550
26191,1547
26156,1545
26108,1542
26076,1539
26054,1535
26039,1527
26025,1515
26017,1508
25996,1484
25987,1459
25984,1427
25986,1383
25997,1350
26017,1326
26049,1310
26095,1300
26157,1295
26208,1295
26339,1295
26339,1375
" /> 
<polyline style="fill-rule:evenodd;"
points="25055,1384
25079,1421
25099,1451
25113,1470
25117,1474
25125,1467
25140,1445
25162,1414
25181,1384
25240,1295
25329,1295
25296,1342
25274,1373
25247,1413
25217,1454
25210,1464
25157,1538
25157,1725
25077,1725
25077,1537
25011,1443
24982,1403
24956,1366
24936,1337
24925,1322
24906,1295
24998,1295
25055,1384
" /> 
<polyline style="fill-rule:evenodd;"
points="24684,1295
24729,1298
24766,1302
24791,1308
24791,1308
24829,1333
24851,1369
24857,1411
24851,1452
24832,1483
24808,1512
24832,1535
24849,1556
24856,1584
24857,1604
24850,1652
24829,1687
24791,1711
24791,1711
24767,1717
24730,1721
24685,1724
24636,1725
24588,1725
24546,1723
24515,1719
24499,1713
24499,1713
24494,1699
24491,1668
24489,1645
24567,1645
24660,1645
24706,1644
24736,1642
24755,1638
24767,1630
24772,1625
24785,1604
24782,1581
24781,1577
24776,1565
24769,1557
24755,1552
24732,1549
24694,1548
24669,1547
24567,1544
24567,1645
24489,1645
24488,1626
24487,1575
24486,1519
24486,1463
24488,1410
24490,1365
24567,1365
24567,1475
24657,1475
24702,1474
24731,1472
24751,1466
24764,1458
24767,1455
24782,1435
24787,1420
24780,1402
24767,1385
24754,1375
24737,1369
24711,1366
24670,1365
24657,1365
24567,1365
24490,1365
24490,1364
24493,1329
24497,1309
24499,1307
24515,1301
24546,1297
24587,1295
24635,1294
24684,1295
" /> 
<polyline style="fill-rule:evenodd;"
points="23786,1373
23670,1376
23620,1378
23586,1380
23564,1384
23549,1390
23538,1399
23531,1407
23509,1445
23499,1491
23500,1540
23512,1585
23535,1619
23537,1621
23549,1629
23567,1635
23594,1639
23635,1642
23672,1643
23786,1647
23786,1725
23678,1724
23631,1723
23588,1720
23555,1717
23542,1715
23506,1696
23472,1665
23446,1629
23436,1605
23429,1564
23426,1512
23428,1460
23435,1417
23436,1414
23455,1376
23487,1340
23525,1313
23546,1304
23571,1300
23610,1297
23656,1295
23683,1295
23786,1295
23786,1373
" /> 
<polyline style="fill-rule:evenodd;"
points="23356,1373
23240,1376
23190,1378
23156,1380
23133,1384
23119,1390
23108,1399
23100,1407
23079,1445
23069,1491
23070,1540
23082,1585
23104,1619
23106,1621
23119,1629
23137,1635
23164,1639
23204,1642
23242,1643
23356,1647
23356,1725
23248,1724
23200,1723
23157,1720
23125,1717
23111,1715
23076,1696
23042,1665
23015,1629
23005,1605
22998,1564
22996,1512
22998,1460
23004,1417
23005,1414
23024,1376
23056,1340
23095,1313
23116,1304
23141,1300
23179,1297
23225,1295
23253,1295
23356,1295
23356,1373
" /> 
<polyline style="fill-rule:evenodd;"
points="28350,1288
28405,1306
28447,1336
28481,1382
28501,1440
28508,1507
28501,1571
28483,1633
28454,1680
28413,1711
28358,1728
28327,1732
28281,1732
28245,1725
28226,1717
28181,1689
28150,1652
28130,1604
28121,1541
28121,1508
28121,1500
28191,1500
28195,1554
28210,1599
28237,1631
28244,1636
28284,1651
28330,1652
28373,1640
28399,1621
28412,1606
28420,1591
28424,1569
28426,1536
28426,1510
28425,1468
28423,1440
28417,1422
28407,1407
28399,1398
28371,1378
28334,1369
28324,1368
28273,1371
28234,1389
28208,1423
28201,1442
28191,1500
28121,1500
28126,1438
28141,1384
28168,1342
28209,1312
28233,1300
28291,1285
28350,1288
" /> 
<polyline style="fill-rule:evenodd;"
points="13860,7474
13869,7414
13881,7343
13898,7263
13918,7177
13940,7087
13965,6997
14013,6854
14072,6722
14140,6602
14216,6497
14299,6409
14387,6340
14452,6302
14520,6273
14584,6253
14651,6242
14727,6238
14808,6240
14928,6250
15037,6272
15133,6304
15213,6345
15277,6394
15323,6451
15345,6501
15356,6564
15357,6638
15347,6713
15332,6770
15281,6885
15210,6992
15118,7090
15083,7120
14990,7190
14897,7247
14796,7294
14684,7332
14556,7363
14527,7369
14435,7388
14361,7404
14301,7420
14251,7435
14209,7451
14169,7470
14168,7470
14105,7511
14054,7562
14019,7619
14003,7678
14002,7694
13996,7714
13982,7724
13971,7720
13968,7707
13964,7675
13961,7631
13958,7577
13958,7567
13952,7423
13914,7491
13894,7524
13876,7549
13865,7559
13865,7559
13858,7548
13857,7519
13860,7474
" /> 
<polyline style="fill-rule:evenodd;"
points="15097,4940
15103,4872
15113,4819
15118,4803
15148,4742
15189,4685
15238,4638
15272,4616
15338,4593
15416,4583
15498,4587
15547,4596
15607,4615
15680,4646
15760,4685
15843,4731
15922,4779
15994,4829
16002,4834
16183,4980
16348,5135
16496,5297
16625,5465
16736,5639
16828,5816
16899,5997
16950,6179
16980,6362
16985,6420
16990,6506
16994,6576
16996,6634
16996,6686
16994,6736
16991,6790
16991,6797
16969,6968
16926,7136
16861,7304
16814,7399
16762,7492
16705,7578
16642,7661
16567,7747
16486,7831
16374,7937
16258,8035
16135,8126
16001,8212
15855,8295
15694,8377
15513,8460
15455,8485
15393,8511
15348,8529
15319,8540
15301,8544
15293,8543
15291,8538
15299,8527
15320,8504
15352,8471
15392,8433
15414,8412
15493,8335
15576,8249
15657,8160
15732,8074
15793,7997
15899,7847
15985,7702
16053,7557
16103,7409
16137,7256
16156,7093
16161,6936
16153,6738
16127,6553
16085,6383
16027,6227
15952,6085
15941,6068
15897,6005
15851,5949
15800,5899
15741,5851
15670,5804
15585,5754
15483,5699
15481,5698
15381,5642
15300,5587
15236,5530
15187,5467
15150,5395
15123,5313
15107,5235
15098,5169
15094,5094
15093,5016
15097,4940
" /> 
<polyline style="fill-rule:evenodd;"
points="16082,9069
16084,8999
16089,8944
16089,8940
16116,8810
16161,8684
16222,8566
16296,8458
16382,8366
16418,8334
16522,8264
16643,8206
16779,8161
16928,8129
17090,8111
17261,8106
17408,8114
17559,8130
17698,8155
17831,8191
17964,8238
18101,8299
18190,8343
18247,8373
18298,8398
18339,8417
18367,8428
18378,8431
18376,8419
18368,8391
18354,8351
18341,8317
18319,8259
18294,8191
18268,8122
18253,8081
18234,8025
18221,7983
18213,7947
18209,7910
18208,7863
18208,7820
18212,7723
18222,7641
18242,7565
18272,7488
18278,7475
18328,7391
18398,7308
18484,7228
18586,7153
18700,7084
18824,7023
18929,6981
18974,6965
19012,6950
19037,6939
19043,6935
19053,6919
19066,6889
19080,6851
19118,6751
19170,6653
19238,6550
19238,6550
19265,6511
19286,6479
19298,6459
19300,6453
19288,6450
19258,6446
19247,6445
19247,5602
19346,5598
19454,5585
19575,5562
19712,5530
19729,5525
19823,5503
19905,5486
19983,5473
20061,5465
20146,5461
20245,5459
20291,5459
20365,5458
20419,5457
20458,5455
20485,5451
20502,5446
20511,5441
20523,5432
20529,5422
20531,5407
20528,5383
20520,5348
20505,5296
20495,5259
20458,5151
20405,5035
20340,4912
20265,4788
20181,4667
20124,4592
20065,4523
19997,4450
19924,4377
19851,4309
19781,4250
19719,4204
19710,4198
19586,4126
19447,4062
19297,4006
19143,3962
18991,3930
18880,3915
18740,3910
18613,3922
18499,3951
18399,3996
18313,4057
18242,4133
18187,4225
18153,4314
18141,4370
18132,4440
18127,4518
18127,4595
18131,4666
18135,4692
18167,4832
18219,4962
18291,5083
18383,5194
18494,5296
18626,5388
18774,5469
18878,5517
18973,5553
19065,5580
19155,5596
19247,5602
19247,6445
19213,6441
19157,6435
19113,6431
18984,6418
18871,6404
18770,6389
18673,6372
18576,6352
18547,6346
18376,6302
18222,6251
18080,6190
17947,6117
17819,6031
17692,5929
17562,5808
17524,5771
17470,5715
17416,5657
17367,5601
17325,5552
17297,5515
17239,5426
17181,5322
17124,5208
17072,5089
17026,4973
16989,4863
16967,4775
16961,4739
16957,4685
16954,4611
16953,4517
16952,4403
16953,4296
16954,4208
16957,4134
16962,4071
16970,4016
16981,3964
16995,3911
17013,3855
17026,3817
17094,3653
17176,3506
17273,3374
17386,3258
17515,3156
17660,3068
17823,2995
17919,2960
17974,2943
18027,2930
18083,2919
18145,2912
18216,2907
18298,2905
18397,2905
18510,2906
18600,2907
18671,2909
18727,2911
18772,2913
18810,2917
18843,2922
18877,2929
18913,2938
18941,2945
19163,3010
19374,3087
19573,3175
19757,3273
19924,3380
20027,3458
20072,3496
20129,3548
20193,3609
20262,3676
20331,3745
20397,3814
20457,3878
20508,3933
20522,3950
20633,4098
20727,4260
20804,4436
20831,4512
20852,4580
20871,4651
20888,4724
20902,4793
20914,4857
20921,4912
20924,4955
20922,4983
20915,4992
20908,4982
20897,4955
20882,4915
20865,4865
20864,4861
20829,4755
20799,4666
20771,4591
20744,4525
20716,4466
20707,4447
20684,4403
20662,4365
20644,4336
20632,4319
20626,4316
20628,4325
20633,4342
20643,4375
20658,4419
20672,4465
20709,4588
20735,4699
20752,4805
20760,4911
20761,4970
20760,5059
20753,5132
20741,5198
20720,5263
20691,5333
20680,5357
20661,5398
20647,5432
20641,5454
20641,5459
20654,5467
20681,5479
20701,5486
20778,5520
20834,5565
20872,5621
20890,5686
20889,5761
20869,5845
20829,5938
20801,5988
20772,6030
20730,6081
20678,6139
20622,6197
20565,6254
20510,6304
20465,6340
20376,6403
20289,6458
20208,6501
20137,6532
20136,6532
20087,6546
20020,6559
19939,6572
19873,6580
19775,6593
19696,6607
19629,6623
19572,6643
19519,6668
19481,6690
19441,6717
19400,6749
19360,6784
19326,6818
19302,6846
19291,6866
19291,6867
19294,6875
19305,6879
19328,6880
19366,6879
19416,6877
19620,6867
19806,6863
19977,6864
20137,6871
20288,6885
20435,6906
20581,6934
20729,6969
20883,7013
20997,7048
21275,7148
21538,7263
21784,7393
22015,7537
22228,7695
22425,7867
22445,7886
22612,8061
22758,8241
22882,8425
22985,8616
23068,8813
23130,9016
23147,9088
23156,9133
23163,9180
23168,9232
23171,9294
23173,9371
23175,9431
23175,9502
23176,9568
23176,9623
23175,9665
23174,9689
23173,9692
23161,9764
23149,9820
23138,9868
23125,9913
23117,9942
23050,10117
22964,10285
22857,10447
22732,10599
22588,10742
22428,10873
22302,10961
22147,11053
21985,11131
21813,11196
21628,11249
21429,11291
21241,11319
21164,11329
21086,11340
21014,11351
20953,11362
20908,11370
20906,11371
20781,11403
20645,11448
20501,11503
20356,11567
20215,11637
20081,11711
20030,11742
19971,11778
19928,11804
19899,11821
19881,11829
19872,11831
19869,11827
19869,11826
19878,11813
19901,11790
19937,11760
19981,11726
20031,11690
20081,11655
20131,11623
20132,11623
20178,11595
20238,11562
20304,11526
20369,11491
20389,11481
20442,11454
20487,11429
20521,11411
20540,11399
20543,11396
20530,11397
20500,11406
20456,11422
20401,11443
20337,11469
20268,11497
20200,11527
20061,11591
19920,11665
19774,11747
19623,11840
19466,11944
19300,12060
19125,12190
18940,12333
18742,12490
18532,12664
18488,12701
18427,12752
18372,12797
18324,12835
18287,12865
18262,12884
18252,12890
18252,12890
18256,12879
18271,12853
18296,12815
18327,12767
18364,12712
18405,12652
18447,12591
18489,12532
18529,12477
18547,12451
18702,12249
18864,12051
19031,11860
19201,11678
19371,11508
19538,11353
19702,11214
19809,11130
19979,11009
20145,10907
20311,10821
20482,10749
20663,10688
20858,10638
20861,10637
20985,10606
21092,10573
21185,10537
21269,10495
21348,10446
21397,10411
21481,10336
21557,10250
21620,10156
21668,10060
21690,9997
21696,9961
21700,9908
21702,9844
21702,9772
21700,9699
21697,9631
21691,9571
21685,9528
21651,9403
21602,9271
21540,9134
21465,8997
21381,8865
21290,8741
21286,8736
21128,8553
20969,8392
20808,8252
20643,8133
20474,8034
20301,7956
20122,7898
19937,7859
19746,7839
19636,7836
19497,7840
19377,7853
19276,7873
19193,7902
19125,7940
19122,7942
19072,7991
19041,8051
19028,8122
19033,8203
19057,8294
19099,8393
19158,8499
19235,8613
19237,8616
19267,8654
19310,8703
19362,8759
19419,8820
19481,8882
19543,8944
19602,9001
19656,9052
19702,9092
19736,9120
19743,9125
19778,9150
19804,9173
19821,9199
19832,9232
19838,9275
19840,9333
19840,9392
19834,9513
19821,9616
19798,9702
19765,9774
19720,9834
19663,9885
19592,9928
19574,9936
19511,9961
19428,9982
19329,10000
19217,10015
19096,10026
18968,10033
18836,10035
18763,10035
18695,10033
18645,10031
18608,10027
18581,10023
18559,10016
18538,10006
18536,10005
18500,9984
18469,9963
18459,9955
18425,9916
18389,9862
18356,9798
18332,9741
18260,9581
18172,9431
18069,9294
17953,9172
17825,9065
17687,8977
17622,8944
17539,8907
17467,8881
17397,8865
17323,8856
17236,8853
17224,8853
17154,8854
17102,8857
17060,8862
17026,8870
17013,8874
16917,8914
16837,8961
16775,9016
16731,9076
16707,9141
16702,9182
16709,9231
16728,9292
16757,9359
16794,9427
16811,9455
16877,9546
16955,9641
17047,9741
17155,9845
17277,9956
17417,10074
17574,10199
17749,10333
17897,10442
17985,10506
18056,10559
18114,10602
18159,10637
18193,10664
18218,10687
18237,10705
18251,10721
18260,10734
18277,10779
18275,10826
18253,10871
18229,10897
18184,10933
18123,10979
18047,11033
17960,11095
17863,11162
17837,11180
17739,11247
17657,11304
17588,11353
17530,11397
17479,11437
17434,11475
17392,11514
17349,11556
17330,11574
17279,11627
17240,11671
17210,11713
17183,11757
17165,11790
17143,11832
17124,11865
17112,11885
17108,11890
17105,11878
17098,11849
17088,11805
17077,11751
17069,11714
17038,11577
17002,11447
16963,11330
16924,11230
16919,11219
16904,11188
16879,11140
16847,11081
16810,11014
16770,10942
16738,10885
16609,10655
16495,10441
16395,10244
16309,10063
16237,9899
16179,9752
16135,9621
16106,9509
16099,9460
16092,9394
16087,9316
16084,9233
16082,9149
16082,9069
" /> 
<polyline style="fill-rule:evenodd;"
points="16697,16928
16597,16928
16597,16817
16697,16817
16697,16928
" /> 
<polyline style="fill-rule:evenodd;"
points="15997,16928
15897,16928
15897,16817
15997,16817
15997,16928
" /> 
<polyline style="fill-rule:evenodd;"
points="11852,16928
11752,16928
11752,16817
11852,16817
11852,16928
" /> 
<polyline style="fill-rule:evenodd;"
points="13941,17205
13630,17205
13630,17117
13941,17117
13941,17205
" /> 
<polyline style="fill-rule:evenodd;"
points="18919,16972
18573,16972
18577,17025
18580,17078
18714,17083
18782,17087
18832,17094
18868,17104
18895,17120
18916,17142
18925,17156
18936,17187
18941,17230
18940,17279
18933,17325
18921,17361
18913,17372
18892,17394
18868,17409
18840,17421
18802,17428
18751,17433
18684,17436
18649,17437
18474,17441
18474,17328
18629,17328
18702,17327
18755,17323
18792,17316
18816,17304
18829,17286
18833,17261
18834,17250
18831,17225
18823,17208
18805,17196
18775,17188
18730,17185
18666,17183
18646,17183
18581,17183
18536,17181
18507,17177
18490,17171
18486,17168
18480,17148
18477,17107
18476,17045
18477,17009
18480,16867
18919,16861
18919,16972
" /> 
<polyline style="fill-rule:evenodd;"
points="18260,16863
18289,16870
18312,16885
18315,16888
18347,16915
18350,17177
18354,17439
18241,17439
18235,16978
18194,16974
18152,16971
18152,16861
18218,16861
18260,16863
" /> 
<polyline style="fill-rule:evenodd;"
points="17613,16984
17659,16985
17692,16988
17717,16994
17739,17002
17752,17008
17785,17027
17809,17045
17826,17068
17838,17099
17844,17141
17848,17198
17850,17267
17854,17439
17752,17439
17752,17301
17751,17245
17749,17195
17746,17156
17742,17135
17742,17135
17728,17111
17705,17095
17670,17085
17619,17080
17581,17079
17480,17078
17477,17258
17474,17439
17374,17439
17374,17233
17375,17159
17377,17097
17379,17048
17383,17016
17386,17005
17392,16996
17403,16990
17422,16986
17452,16984
17498,16983
17550,16983
17613,16984
" /> 
<polyline style="fill-rule:evenodd;"
points="17110,16987
17158,16995
17183,17004
17226,17038
17257,17088
17276,17150
17280,17220
17274,17275
17256,17335
17227,17380
17184,17410
17125,17428
17066,17434
17017,17434
16969,17432
16934,17427
16933,17427
16877,17403
16836,17363
16810,17306
16797,17232
16797,17204
16798,17190
16900,17190
16901,17248
16915,17290
16942,17318
16952,17325
16988,17335
17035,17338
17083,17335
17123,17325
17130,17322
17154,17305
17169,17279
17176,17241
17177,17203
17169,17148
17144,17107
17104,17083
17049,17074
17002,17077
16954,17089
16923,17110
16906,17144
16900,17190
16798,17190
16804,17128
16826,17067
16864,17023
16905,16999
16943,16989
16995,16983
17053,16983
17110,16987
" /> 
<polyline style="fill-rule:evenodd;"
points="16697,17439
16597,17439
16597,16983
16697,16983
16697,17439
" /> 
<polyline style="fill-rule:evenodd;"
points="16497,17072
16363,17072
16306,17073
16266,17074
16240,17077
16223,17083
16210,17092
16207,17095
16192,17115
16194,17135
16197,17139
16206,17151
16222,17158
16251,17161
16289,17161
16368,17165
16427,17177
16469,17198
16495,17229
16507,17270
16508,17290
16500,17348
16477,17391
16445,17416
16417,17424
16368,17430
16301,17435
16255,17436
16097,17441
16097,17339
16243,17336
16304,17335
16346,17332
16374,17329
16390,17324
16399,17316
16401,17314
16407,17290
16401,17275
16391,17265
16372,17259
16339,17254
16290,17250
16279,17250
16210,17244
16160,17232
16127,17214
16107,17185
16098,17146
16097,17110
16099,17068
16109,17036
16127,17014
16158,16998
16204,16989
16267,16984
16340,16983
16497,16983
16497,17072
" /> 
<polyline style="fill-rule:evenodd;"
points="15997,17439
15897,17439
15897,16983
15997,16983
15997,17439
" /> 
<polyline style="fill-rule:evenodd;"
points="15461,17153
15490,17222
15511,17274
15527,17309
15539,17332
15547,17344
15553,17348
15559,17347
15560,17346
15568,17334
15582,17306
15602,17263
15625,17210
15646,17162
15722,16983
15777,16983
15811,16985
15826,16991
15827,16997
15799,17064
15770,17133
15740,17202
15711,17266
15684,17323
15662,17369
15646,17401
15637,17414
15609,17431
15569,17439
15526,17438
15489,17428
15476,17419
15463,17402
15444,17363
15417,17305
15383,17228
15343,17132
15297,17018
15289,16997
15292,16988
15314,16984
15338,16983
15392,16983
15461,17153
" /> 
<polyline style="fill-rule:evenodd;"
points="15043,16985
15102,16987
15143,16989
15171,16992
15188,16997
15201,17006
15212,17018
15214,17019
15241,17067
15250,17123
15242,17173
15230,17202
15213,17223
15187,17237
15149,17245
15095,17249
15030,17250
14897,17250
14897,17283
14904,17314
14918,17327
14937,17332
14973,17335
15021,17338
15077,17339
15085,17339
15230,17339
15230,17439
15088,17438
15030,17436
14976,17434
14933,17432
14906,17428
14905,17428
14865,17416
14835,17396
14815,17364
14803,17318
14797,17255
14797,17211
14797,17172
14895,17172
15010,17172
15072,17171
15115,17167
15137,17160
15139,17159
15151,17133
15144,17106
15127,17089
15100,17079
15059,17074
15012,17072
14968,17076
14934,17085
14930,17086
14906,17108
14899,17136
14895,17172
14797,17172
14798,17136
14805,17079
14820,17038
14846,17010
14885,16994
14939,16986
15012,16985
15043,16985
" /> 
<polyline style="fill-rule:evenodd;"
points="14506,16862
14567,16864
14611,16868
14639,16874
14645,16876
14690,16906
14721,16949
14737,16999
14738,17054
14723,17108
14693,17157
14674,17176
14629,17214
14691,17320
14715,17364
14735,17400
14748,17424
14752,17433
14742,17436
14716,17438
14693,17439
14633,17439
14503,17217
14352,17217
14352,17439
14239,17439
14243,17295
14245,17229
14248,17182
14256,17149
14272,17128
14300,17116
14341,17110
14399,17107
14444,17105
14601,17100
14618,17069
14629,17045
14627,17025
14618,17008
14601,16978
14421,16975
14241,16972
14241,16861
14425,16861
14506,16862
" /> 
<polyline style="fill-rule:evenodd;"
points="13252,16983
13374,16983
13374,17072
13252,17072
13252,17192
13253,17256
13257,17300
13264,17324
13265,17325
13284,17334
13315,17338
13327,17339
13374,17339
13374,17439
13327,17438
13286,17435
13248,17429
13242,17428
13211,17418
13189,17405
13173,17385
13163,17354
13158,17308
13155,17245
13154,17222
13150,17072
13123,17072
13106,17070
13098,17058
13097,17030
13097,17028
13098,16999
13105,16986
13122,16983
13124,16983
13141,16981
13149,16972
13152,16950
13152,16928
13152,16872
13252,16872
13252,16983
" /> 
<polyline style="fill-rule:evenodd;"
points="12641,16981
12774,16985
12840,16988
12888,16994
12924,17004
12951,17021
12975,17046
12994,17072
13004,17088
13010,17105
13015,17127
13017,17159
13018,17204
13019,17266
13019,17274
13019,17439
12919,17439
12919,17290
12918,17227
12917,17183
12914,17153
12908,17133
12901,17119
12899,17117
12867,17094
12815,17080
12741,17073
12716,17072
12641,17072
12641,17439
12598,17439
12569,17437
12550,17433
12548,17431
12547,17419
12545,17387
12543,17338
12542,17276
12541,17204
12541,17123
12541,17109
12541,16794
12641,16794
12641,16981
" /> 
<polyline style="fill-rule:evenodd;"
points="11852,17439
11752,17439
11752,16983
11852,16983
11852,17439
" /> 
<polyline style="fill-rule:evenodd;"
points="11641,17439
11541,17439
11541,16794
11641,16794
11641,17439
" /> 
<polyline style="fill-rule:evenodd;"
points="11341,16983
11463,16983
11463,17072
11341,17072
11341,17184
11342,17246
11346,17289
11354,17316
11368,17331
11390,17338
11414,17339
11463,17339
11463,17439
11416,17438
11376,17435
11338,17429
11333,17428
11300,17417
11276,17399
11259,17371
11249,17331
11243,17275
11241,17200
11241,17192
11241,17072
11213,17072
11195,17070
11187,17058
11185,17032
11185,17028
11187,16999
11194,16986
11211,16983
11213,16983
11230,16981
11238,16972
11241,16950
11241,16928
11241,16872
11341,16872
11341,16983
" /> 
<polyline style="fill-rule:evenodd;"
points="10849,16983
10922,16984
10975,16987
11015,16992
11043,17000
11064,17014
11082,17032
11090,17042
11099,17057
11106,17073
11110,17096
11112,17130
11113,17178
11113,17234
11113,17304
11111,17356
11105,17391
11091,17414
11067,17426
11030,17432
10979,17434
10938,17435
10881,17435
10827,17434
10784,17432
10758,17428
10712,17411
10682,17380
10666,17334
10664,17298
10759,17298
10771,17316
10784,17328
10804,17335
10835,17337
10881,17337
10901,17336
11013,17333
11017,17286
11020,17239
10908,17239
10856,17239
10821,17242
10798,17246
10782,17254
10774,17261
10760,17282
10759,17298
10664,17298
10663,17294
10666,17248
10678,17214
10699,17190
10734,17174
10785,17165
10854,17161
10892,17161
10947,17161
10983,17159
11005,17157
11015,17152
11019,17144
11019,17141
11012,17116
11003,17099
10994,17090
10981,17084
10959,17080
10925,17077
10875,17075
10836,17074
10685,17070
10685,16983
10849,16983
" /> 
<polyline style="fill-rule:evenodd;"
points="10552,17439
10452,17439
10452,16794
10552,16794
10552,17439
" /> 
<polyline style="fill-rule:evenodd;"
points="10352,16972
10209,16972
10140,16973
10090,16977
10055,16985
10033,16998
10020,17018
10013,17047
10011,17058
10005,17105
10352,17105
10352,17205
10008,17205
10008,17439
9908,17439
9908,17208
9908,17122
9910,17054
9914,17003
9920,16965
9931,16937
9946,16916
9966,16900
9993,16885
9996,16884
10017,16874
10040,16868
10069,16864
10111,16862
10167,16861
10196,16861
10352,16861
10352,16972
" /> 
<polyline style="fill-rule:evenodd;"
points="12261,16984
12301,16987
12330,16992
12351,17000
12360,17005
12383,17020
12400,17037
12412,17059
12421,17087
12426,17127
12428,17180
12429,17250
12428,17318
12424,17541
12388,17573
12352,17605
11997,17605
11997,17517
12139,17517
12209,17516
12261,17512
12295,17504
12317,17491
12327,17473
12330,17450
12330,17419
12197,17415
12132,17412
12085,17407
12050,17397
12023,17381
11998,17357
11981,17335
11964,17299
11955,17249
11952,17192
11952,17191
12052,17191
12054,17239
12068,17278
12070,17282
12088,17301
12110,17315
12143,17322
12190,17326
12233,17327
12330,17328
12330,17224
12329,17164
12322,17124
12308,17098
12282,17084
12242,17079
12194,17078
12149,17079
12120,17082
12101,17088
12087,17100
12079,17109
12060,17145
12052,17191
11952,17191
11957,17136
11969,17087
11972,17080
11993,17042
12021,17016
12058,16998
12108,16988
12175,16984
12204,16983
12261,16984
" /> 
<polyline style="fill-rule:evenodd;"
points="2719,5013
2747,5054
2769,5104
2773,5157
2760,5209
2731,5253
2706,5273
2661,5290
2607,5296
2564,5291
2530,5276
2495,5250
2489,5243
2459,5196
2450,5143
2461,5088
2480,5054
2508,5013
2508,4225
2719,4225
2719,5013
" /> 
<polyline style="fill-rule:evenodd;"
points="2663,3364
2697,3367
2722,3372
2743,3383
2765,3397
2801,3428
2836,3466
2846,3479
2880,3527
2883,4182
2886,4837
2928,4875
2958,4907
2988,4948
3003,4971
3017,4999
3027,5023
3032,5050
3035,5086
3036,5136
3036,5153
3035,5208
3033,5248
3028,5277
3020,5302
3007,5329
3006,5330
2960,5398
2898,5460
2829,5510
2810,5520
2778,5535
2747,5545
2713,5550
2667,5554
2630,5555
2568,5556
2522,5553
2485,5547
2457,5539
2382,5502
2313,5450
2255,5386
2212,5316
2196,5276
2190,5240
2187,5188
2188,5132
2188,5120
2402,5120
2405,5175
2423,5227
2455,5273
2501,5309
2557,5330
2605,5336
2647,5333
2686,5325
2700,5321
2745,5292
2785,5249
2812,5202
2818,5187
2823,5130
2810,5074
2781,5026
2773,5018
2741,4987
2741,3567
2703,3529
2675,3505
2649,3494
2613,3491
2577,3494
2551,3505
2523,3529
2486,3567
2486,4978
2452,5014
2418,5065
2402,5120
2188,5120
2191,5078
2197,5039
2207,5007
2223,4974
2224,4971
2250,4931
2281,4892
2298,4875
2340,4837
2344,4182
2347,3527
2380,3479
2411,3442
2449,3407
2462,3397
2486,3381
2508,3372
2533,3366
2568,3364
2613,3364
2663,3364
" /> 
<polyline style="fill-rule:evenodd;"
points="1928,14515
1949,14511
1988,14507
2038,14505
2095,14504
2100,14504
2243,14504
2246,14385
2249,14265
2938,14265
2941,14385
2944,14504
3088,14504
3145,14505
3195,14507
3235,14510
3259,14514
3260,14515
3288,14526
3288,15604
3288,15790
3288,15955
3288,16099
3287,16225
3286,16333
3286,16425
3285,16500
3284,16561
3282,16609
3281,16644
3279,16669
3277,16683
3274,16688
3261,16689
3227,16689
3175,16690
3107,16691
3025,16691
2929,16691
2824,16691
2710,16691
2660,16690
2660,15990
2663,15836
2665,15770
2668,15725
2672,15696
2677,15683
2680,15682
2695,15685
2727,15695
2773,15709
2828,15727
2877,15743
2944,15765
2993,15782
3027,15793
3048,15799
3060,15802
3065,15803
3066,15801
3066,15800
3058,15792
3035,15770
3000,15738
2954,15696
2900,15646
2838,15590
2794,15550
2521,15303
2521,15465
2521,15522
2521,15570
2520,15605
2519,15624
2518,15626
2507,15623
2479,15614
2435,15599
2381,15581
2319,15561
2316,15560
2254,15539
2199,15521
2156,15507
2127,15499
2115,15496
2115,15496
2123,15504
2145,15524
2180,15557
2225,15598
2280,15648
2341,15704
2387,15744
2660,15990
2660,16690
2589,16690
2583,16690
1905,16687
1902,15607
1899,14526
1928,14515
" /> 
<polyline style="fill-rule:evenodd;"
points="30118,12667
30142,12626
30179,12601
30189,12598
30207,12597
30243,12595
30296,12595
30362,12594
30439,12594
30523,12595
30557,12595
30898,12598
30927,12627
30949,12662
30962,12708
30962,12753
30955,12776
30940,12800
30921,12820
30913,12827
30903,12832
30888,12836
30866,12839
30834,12841
30790,12842
30732,12844
30656,12845
30561,12846
30556,12846
30470,12846
30390,12847
30320,12846
30262,12846
30218,12845
30193,12843
30189,12843
30149,12822
30122,12785
30110,12734
30110,12720
30118,12667
" /> 
<polyline style="fill-rule:evenodd;"
points="30242,12261
30263,12225
30344,12126
30442,12040
30553,11967
30674,11912
30699,11903
30758,11889
30833,11878
30916,11872
31001,11871
31081,11875
31149,11884
31157,11886
31239,11910
31327,11947
31410,11991
31452,12017
31540,12089
31621,12177
31692,12277
31748,12382
31772,12443
31785,12481
31793,12515
31799,12551
31803,12595
31805,12652
31806,12698
31807,12769
31806,12823
31803,12866
31798,12904
31789,12941
31788,12947
31742,13074
31678,13191
31597,13296
31501,13387
31392,13462
31271,13519
31176,13550
31134,13559
31096,13566
31055,13569
31006,13569
30942,13568
30927,13567
30838,13562
30765,13553
30701,13538
30640,13516
30575,13485
30555,13474
30479,13427
30408,13375
30346,13318
30294,13261
30256,13206
30234,13155
30229,13124
30236,13072
30260,13033
30296,13009
30344,12995
30390,13002
30434,13031
30460,13057
30528,13131
30591,13188
30655,13233
30704,13260
30810,13300
30918,13319
31026,13317
31132,13295
31233,13253
31327,13190
31381,13142
31455,13054
31509,12957
31544,12855
31559,12750
31555,12644
31531,12540
31488,12440
31425,12346
31381,12299
31293,12225
31196,12171
31093,12136
30986,12121
30878,12126
30771,12152
30704,12181
30637,12219
30573,12267
30509,12329
30460,12383
30415,12425
30371,12444
30324,12442
30296,12432
30256,12402
30233,12362
30229,12313
30242,12261
" /> 
</g>
<g style="fill:#000000; fill-opacity:1.0; 
stroke:#000000; stroke-width:0; stroke-opacity:1; 
stroke-linecap:round; stroke-linejoin:round;">
<polyline style="fill-rule:evenodd;"
points="11643,7470
11643,6919
12194,6919
12194,7470
11643,7470
" /> 
<polyline style="fill-rule:evenodd;"
points="30057,10778
30070,10780
30082,10783
30095,10787
30106,10793
30118,10799
30128,10807
30138,10816
30147,10826
30154,10836
30161,10847
30167,10859
30171,10871
30174,10884
30176,10897
30177,10910
30177,11215
30176,11228
30174,11241
30171,11254
30167,11266
30161,11278
30154,11289
30147,11299
30138,11309
30128,11318
30118,11326
30106,11332
30095,11338
30082,11342
30070,11345
30057,11347
30044,11348
29778,11348
29765,11347
29752,11345
29739,11342
29727,11338
29715,11332
29704,11326
29694,11318
29684,11309
29675,11299
29668,11289
29661,11278
29655,11266
29651,11254
29648,11241
29646,11228
29645,11215
29645,10910
29646,10897
29648,10884
29651,10871
29655,10859
29661,10847
29668,10836
29675,10826
29684,10816
29694,10807
29704,10799
29715,10793
29727,10787
29739,10783
29752,10780
29765,10778
29778,10777
30044,10777
30057,10778
" /> 
<polyline style="fill-rule:evenodd;"
points="30057,11467
30070,11469
30082,11472
30095,11476
30106,11482
30118,11488
30128,11496
30138,11505
30147,11515
30154,11525
30161,11536
30167,11548
30171,11560
30174,11573
30176,11586
30177,11599
30177,11904
30176,11917
30174,11930
30171,11943
30167,11955
30161,11967
30154,11978
30147,11988
30138,11998
30128,12007
30118,12015
30106,12021
30095,12027
30082,12031
30070,12034
30057,12036
30044,12037
29778,12037
29765,12036
29752,12034
29739,12031
29727,12027
29715,12021
29704,12015
29694,12007
29684,11998
29675,11988
29668,11978
29661,11967
29655,11955
29651,11943
29648,11930
29646,11917
29645,11904
29645,11599
29646,11586
29648,11573
29651,11560
29655,11548
29661,11536
29668,11525
29675,11515
29684,11505
29694,11496
29704,11488
29715,11482
29727,11476
29739,11472
29752,11469
29765,11467
29778,11466
30044,11466
30057,11467
" /> 
<polyline style="fill-rule:evenodd;"
points="5726,6959
5739,6961
5752,6964
5764,6968
5776,6974
5787,6981
5797,6988
5807,6997
5816,7007
5824,7017
5830,7028
5836,7040
5840,7052
5843,7065
5845,7078
5846,7091
5846,7396
5845,7409
5843,7422
5840,7435
5836,7447
5830,7459
5824,7470
5816,7480
5807,7490
5797,7499
5787,7507
5776,7513
5764,7519
5752,7523
5739,7526
5726,7528
5713,7529
5447,7529
5434,7528
5421,7526
5409,7523
5396,7519
5385,7513
5374,7507
5363,7499
5353,7490
5345,7480
5337,7470
5330,7459
5325,7447
5320,7435
5317,7422
5315,7409
5314,7396
5314,7091
5315,7078
5317,7065
5320,7052
5325,7040
5330,7028
5337,7017
5345,7007
5353,6997
5363,6988
5374,6981
5385,6974
5396,6968
5409,6964
5421,6961
5434,6959
5447,6958
5713,6958
5726,6959
" /> 
<polyline style="fill-rule:evenodd;"
points="5726,7648
5739,7650
5752,7653
5764,7657
5776,7663
5787,7670
5797,7677
5807,7686
5816,7696
5824,7706
5830,7717
5836,7729
5840,7741
5843,7754
5845,7767
5846,7780
5846,8085
5845,8098
5843,8111
5840,8124
5836,8136
5830,8148
5824,8159
5816,8169
5807,8179
5797,8188
5787,8196
5776,8202
5764,8208
5752,8212
5739,8215
5726,8217
5713,8218
5447,8218
5434,8217
5421,8215
5409,8212
5396,8208
5385,8202
5374,8196
5363,8188
5353,8179
5345,8169
5337,8159
5330,8148
5325,8136
5320,8124
5317,8111
5315,8098
5314,8085
5314,7780
5315,7767
5317,7754
5320,7741
5325,7729
5330,7717
5337,7706
5345,7696
5353,7686
5363,7677
5374,7670
5385,7663
5396,7657
5409,7653
5421,7650
5434,7648
5447,7647
5713,7647
5726,7648
" /> 
<polyline style="fill-rule:evenodd;"
points="12882,9410
12895,9412
12907,9415
12919,9419
12931,9425
12942,9431
12953,9439
12963,9448
12971,9458
12979,9468
12986,9479
12991,9491
12996,9503
12999,9516
13001,9529
13001,9542
13001,9808
13001,9821
12999,9833
12996,9846
12991,9858
12986,9870
12979,9881
12971,9892
12963,9902
12953,9910
12942,9918
12931,9925
12919,9930
12907,9935
12895,9938
12882,9940
12869,9940
12563,9940
12550,9940
12538,9938
12525,9935
12513,9930
12501,9925
12490,9918
12479,9910
12470,9902
12461,9892
12453,9881
12446,9870
12441,9858
12436,9846
12433,9833
12431,9821
12431,9808
12431,9542
12431,9529
12433,9516
12436,9503
12441,9491
12446,9479
12453,9468
12461,9458
12470,9448
12479,9439
12490,9431
12501,9425
12513,9419
12525,9415
12538,9412
12550,9410
12563,9409
12869,9409
12882,9410
" /> 
<polyline style="fill-rule:evenodd;"
points="13571,9410
13583,9412
13596,9415
13608,9419
13620,9425
13631,9431
13642,9439
13652,9448
13660,9458
13668,9468
13675,9479
13680,9491
13685,9503
13688,9516
13690,9529
13690,9542
13690,9808
13690,9821
13688,9833
13685,9846
13680,9858
13675,9870
13668,9881
13660,9892
13652,9902
13642,9910
13631,9918
13620,9925
13608,9930
13596,9935
13583,9938
13571,9940
13558,9940
13252,9940
13239,9940
13227,9938
13214,9935
13202,9930
13190,9925
13179,9918
13168,9910
13158,9902
13150,9892
13142,9881
13135,9870
13130,9858
13125,9846
13122,9833
13120,9821
13120,9808
13120,9542
13120,9529
13122,9516
13125,9503
13130,9491
13135,9479
13142,9468
13150,9458
13158,9448
13168,9439
13179,9431
13190,9425
13202,9419
13214,9415
13227,9412
13239,9410
13252,9409
13558,9409
13571,9410
" /> 
<polyline style="fill-rule:evenodd;"
points="5411,4734
5424,4736
5437,4739
5449,4744
5461,4749
5472,4756
5482,4764
5492,4773
5501,4782
5509,4793
5515,4804
5521,4816
5525,4828
5528,4841
5530,4854
5531,4867
5531,5172
5530,5185
5528,5198
5525,5210
5521,5223
5515,5234
5509,5246
5501,5256
5492,5266
5482,5274
5472,5282
5461,5289
5449,5295
5437,5299
5424,5302
5411,5304
5398,5305
5132,5305
5119,5304
5106,5302
5094,5299
5082,5295
5070,5289
5059,5282
5048,5274
5038,5266
5030,5256
5022,5246
5015,5234
5010,5223
5005,5210
5002,5198
5000,5185
5000,5172
5000,4867
5000,4854
5002,4841
5005,4828
5010,4816
5015,4804
5022,4793
5030,4782
5038,4773
5048,4764
5059,4756
5070,4749
5082,4744
5094,4739
5106,4736
5119,4734
5132,4734
5398,4734
5411,4734
" /> 
<polyline style="fill-rule:evenodd;"
points="5411,4045
5424,4047
5437,4050
5449,4055
5461,4060
5472,4067
5482,4075
5492,4084
5501,4093
5509,4104
5515,4115
5521,4127
5525,4139
5528,4152
5530,4165
5531,4178
5531,4483
5530,4496
5528,4509
5525,4521
5521,4534
5515,4545
5509,4557
5501,4567
5492,4577
5482,4585
5472,4593
5461,4600
5449,4606
5437,4610
5424,4613
5411,4615
5398,4616
5132,4616
5119,4615
5106,4613
5094,4610
5082,4606
5070,4600
5059,4593
5048,4585
5038,4577
5030,4567
5022,4557
5015,4545
5010,4534
5005,4521
5002,4509
5000,4496
5000,4483
5000,4178
5000,4165
5002,4152
5005,4139
5010,4127
5015,4115
5022,4104
5030,4093
5038,4084
5048,4075
5059,4067
5070,4060
5082,4055
5094,4050
5106,4047
5119,4045
5132,4045
5398,4045
5411,4045
" /> 
<polyline style="fill-rule:evenodd;"
points="5096,14164
5109,14165
5122,14169
5134,14173
5146,14179
5157,14185
5167,14193
5177,14202
5186,14211
5194,14222
5200,14233
5206,14245
5210,14257
5213,14270
5215,14283
5216,14296
5216,14601
5215,14614
5213,14627
5210,14639
5206,14652
5200,14664
5194,14675
5186,14685
5177,14695
5167,14704
5157,14711
5146,14718
5134,14724
5122,14728
5109,14731
5096,14733
5083,14734
4817,14734
4804,14733
4791,14731
4779,14728
4767,14724
4755,14718
4744,14711
4733,14704
4723,14695
4715,14685
4707,14675
4700,14664
4695,14652
4690,14639
4687,14627
4685,14614
4685,14601
4685,14296
4685,14283
4687,14270
4690,14257
4695,14245
4700,14233
4707,14222
4715,14211
4723,14202
4733,14193
4744,14185
4755,14179
4767,14173
4779,14169
4791,14165
4804,14164
4817,14163
5083,14163
5096,14164
" /> 
<polyline style="fill-rule:evenodd;"
points="5096,13475
5109,13476
5122,13480
5134,13484
5146,13490
5157,13496
5167,13504
5177,13513
5186,13522
5194,13533
5200,13544
5206,13556
5210,13568
5213,13581
5215,13594
5216,13607
5216,13912
5215,13925
5213,13938
5210,13950
5206,13963
5200,13975
5194,13986
5186,13996
5177,14006
5167,14015
5157,14022
5146,14029
5134,14035
5122,14039
5109,14042
5096,14044
5083,14045
4817,14045
4804,14044
4791,14042
4779,14039
4767,14035
4755,14029
4744,14022
4733,14015
4723,14006
4715,13996
4707,13986
4700,13975
4695,13963
4690,13950
4687,13938
4685,13925
4685,13912
4685,13607
4685,13594
4687,13581
4690,13568
4695,13556
4700,13544
4707,13533
4715,13522
4723,13513
4733,13504
4744,13496
4755,13490
4767,13484
4779,13480
4791,13476
4804,13475
4817,13474
5083,13474
5096,13475
" /> 
<polyline style="fill-rule:evenodd;"
points="12016,4006
12029,4008
12041,4011
12053,4016
12065,4021
12076,4028
12087,4036
12096,4044
12105,4054
12113,4064
12120,4076
12125,4087
12130,4100
12133,4112
12135,4125
12135,4138
12135,4581
12135,4594
12133,4607
12130,4620
12125,4632
12120,4644
12113,4655
12105,4666
12096,4675
12087,4684
12076,4692
12065,4698
12053,4704
12041,4708
12029,4712
12016,4713
12003,4714
11658,4714
11645,4713
11632,4712
11619,4708
11607,4704
11595,4698
11584,4692
11574,4684
11564,4675
11555,4666
11547,4655
11541,4644
11535,4632
11531,4620
11528,4607
11526,4594
11525,4581
11525,4138
11526,4125
11528,4112
11531,4100
11535,4087
11541,4076
11547,4064
11555,4054
11564,4044
11574,4036
11584,4028
11595,4021
11607,4016
11619,4011
11632,4008
11645,4006
11658,4005
12003,4005
12016,4006
" /> 
<polyline style="fill-rule:evenodd;"
points="12823,4006
12836,4008
12848,4011
12861,4016
12872,4021
12883,4028
12894,4036
12904,4044
12912,4054
12920,4064
12927,4076
12932,4087
12937,4100
12940,4112
12942,4125
12942,4138
12942,4581
12942,4594
12940,4607
12937,4620
12932,4632
12927,4644
12920,4655
12912,4666
12904,4675
12894,4684
12883,4692
12872,4698
12861,4704
12848,4708
12836,4712
12823,4713
12810,4714
12465,4714
12452,4713
12439,4712
12426,4708
12414,4704
12402,4698
12391,4692
12381,4684
12371,4675
12362,4666
12355,4655
12348,4644
12342,4632
12338,4620
12335,4607
12333,4594
12332,4581
12332,4138
12333,4125
12335,4112
12338,4100
12342,4087
12348,4076
12355,4064
12362,4054
12371,4044
12381,4036
12391,4028
12402,4021
12414,4016
12426,4011
12439,4008
12452,4006
12465,4005
12810,4005
12823,4006
" /> 
<polyline style="fill-rule:evenodd;"
points="2642,12303
2654,12305
2666,12308
2678,12312
2689,12318
2699,12324
2709,12331
2718,12340
2727,12349
2734,12359
2741,12369
2746,12380
2750,12392
2753,12404
2755,12416
2755,12429
2755,12895
2755,12907
2753,12920
2750,12932
2746,12943
2741,12955
2734,12965
2727,12975
2718,12984
2709,12993
2699,13000
2689,13006
2678,13012
2666,13016
2654,13019
2642,13021
2629,13021
1681,13021
1668,13021
1656,13019
1644,13016
1632,13012
1621,13006
1611,13000
1601,12993
1592,12984
1583,12975
1576,12965
1570,12955
1564,12943
1560,12932
1557,12920
1555,12907
1555,12895
1555,12429
1555,12416
1557,12404
1560,12392
1564,12380
1570,12369
1576,12359
1583,12349
1592,12340
1601,12331
1611,12324
1621,12318
1632,12312
1644,12308
1656,12305
1668,12303
1681,12303
2629,12303
2642,12303
" /> 
<polyline style="fill-rule:evenodd;"
points="2642,11132
2654,11134
2666,11137
2678,11141
2689,11146
2699,11153
2709,11160
2718,11168
2727,11177
2734,11187
2741,11198
2746,11209
2750,11221
2753,11233
2755,11245
2755,11257
2755,11724
2755,11736
2753,11748
2750,11760
2746,11772
2741,11783
2734,11794
2727,11804
2718,11813
2709,11821
2699,11829
2689,11835
2678,11840
2666,11844
2654,11847
2642,11849
2629,11850
1681,11850
1668,11849
1656,11847
1644,11844
1632,11840
1621,11835
1611,11829
1601,11821
1592,11813
1583,11804
1576,11794
1570,11783
1564,11772
1560,11760
1557,11748
1555,11736
1555,11724
1555,11257
1555,11245
1557,11233
1560,11221
1564,11209
1570,11198
1576,11187
1583,11177
1592,11168
1601,11160
1611,11153
1621,11146
1632,11141
1644,11137
1656,11134
1668,11132
1681,11131
2629,11131
2642,11132
" /> 
<polyline style="fill-rule:evenodd;"
points="9045,2627
9596,2627
9596,3572
9045,3572
9045,2627
" /> 
<polyline style="fill-rule:evenodd;"
points="8257,2627
8809,2627
8809,3572
8257,3572
8257,2627
" /> 
<polyline style="fill-rule:evenodd;"
points="7470,2627
8021,2627
8021,3572
7470,3572
7470,2627
" /> 
<polyline style="fill-rule:evenodd;"
points="6683,2627
7234,2627
7234,3572
6683,3572
6683,2627
" /> 
<polyline style="fill-rule:evenodd;"
points="5895,2627
6446,2627
6446,3572
5895,3572
5895,2627
" /> 
<polyline style="fill-rule:evenodd;"
points="5108,2627
5659,2627
5659,3572
5108,3572
5108,2627
" /> 
<polyline style="fill-rule:evenodd;"
points="12194,9045
11643,9045
11643,8494
12194,8494
12194,9045
" /> 
<polyline style="fill-rule:evenodd;"
points="12194,8257
11643,8257
11643,7706
12194,7706
12194,8257
" /> 
<polyline style="fill-rule:evenodd;"
points="11130,5030
11143,5032
11155,5035
11168,5039
11179,5045
11191,5051
11201,5059
11211,5068
11219,5078
11227,5088
11234,5099
11239,5111
11244,5123
11247,5136
11249,5149
11250,5162
11250,5507
11249,5520
11247,5532
11244,5545
11239,5557
11234,5569
11227,5580
11219,5591
11211,5600
11201,5609
11191,5617
11179,5624
11168,5629
11155,5634
11143,5637
11130,5639
11117,5639
10673,5639
10660,5639
10648,5637
10635,5634
10623,5629
10611,5624
10600,5617
10589,5609
10580,5600
10571,5591
10563,5580
10557,5569
10551,5557
10547,5545
10543,5532
10541,5520
10541,5507
10541,5162
10541,5149
10543,5136
10547,5123
10551,5111
10557,5099
10563,5088
10571,5078
10580,5068
10589,5059
10600,5051
10611,5045
10623,5039
10635,5035
10648,5032
10660,5030
10673,5029
11117,5029
11130,5030
" /> 
<polyline style="fill-rule:evenodd;"
points="11130,5837
11143,5839
11155,5842
11168,5846
11179,5852
11191,5858
11201,5866
11211,5875
11219,5885
11227,5895
11234,5906
11239,5918
11244,5930
11247,5943
11249,5956
11250,5969
11250,6314
11249,6327
11247,6340
11244,6352
11239,6364
11234,6376
11227,6387
11219,6398
11211,6407
11201,6416
11191,6424
11179,6431
11168,6436
11155,6441
11143,6444
11130,6446
11117,6446
10673,6446
10660,6446
10648,6444
10635,6441
10623,6436
10611,6431
10600,6424
10589,6416
10580,6407
10571,6398
10563,6387
10557,6376
10551,6364
10547,6352
10543,6340
10541,6327
10541,6314
10541,5969
10541,5956
10543,5943
10547,5930
10551,5918
10557,5906
10563,5895
10571,5885
10580,5875
10589,5866
10600,5858
10611,5852
10623,5846
10635,5842
10648,5839
10660,5837
10673,5836
11117,5836
11130,5837
" /> 
<polyline style="fill-rule:evenodd;"
points="7706,13887
7706,13336
8257,13336
8257,13887
7706,13887
" /> 
<polyline style="fill-rule:evenodd;"
points="29889,5197
29902,5199
29915,5202
29927,5206
29939,5212
29950,5219
29961,5227
29970,5235
29979,5245
29987,5255
29994,5267
29999,5278
30004,5291
30007,5303
30009,5316
30009,5329
30009,5595
30009,5608
30007,5621
30004,5634
29999,5646
29994,5658
29987,5669
29979,5679
29970,5689
29961,5698
29950,5705
29939,5712
29927,5718
29915,5722
29902,5725
29889,5727
29876,5728
29571,5728
29558,5727
29545,5725
29533,5722
29521,5718
29509,5712
29498,5705
29487,5698
29477,5689
29469,5679
29461,5669
29454,5658
29449,5646
29444,5634
29441,5621
29439,5608
29438,5595
29438,5329
29439,5316
29441,5303
29444,5291
29449,5278
29454,5267
29461,5255
29469,5245
29477,5235
29487,5227
29498,5219
29509,5212
29521,5206
29533,5202
29545,5199
29558,5197
29571,5196
29876,5196
29889,5197
" /> 
<polyline style="fill-rule:evenodd;"
points="30578,5197
30591,5199
30604,5202
30616,5206
30628,5212
30639,5219
30650,5227
30659,5235
30668,5245
30676,5255
30683,5267
30688,5278
30693,5291
30696,5303
30698,5316
30698,5329
30698,5595
30698,5608
30696,5621
30693,5634
30688,5646
30683,5658
30676,5669
30668,5679
30659,5689
30650,5698
30639,5705
30628,5712
30616,5718
30604,5722
30591,5725
30578,5727
30565,5728
30260,5728
30247,5727
30234,5725
30222,5722
30209,5718
30198,5712
30187,5705
30176,5698
30166,5689
30158,5679
30150,5669
30143,5658
30138,5646
30133,5634
30130,5621
30128,5608
30127,5595
30127,5329
30128,5316
30130,5303
30133,5291
30138,5278
30143,5267
30150,5255
30158,5245
30166,5235
30176,5227
30187,5219
30198,5212
30209,5206
30222,5202
30234,5199
30247,5197
30260,5196
30565,5196
30578,5197
" /> 
<polyline style="fill-rule:evenodd;"
points="29161,5108
29174,5110
29187,5113
29199,5118
29211,5123
29222,5130
29232,5138
29242,5147
29251,5156
29259,5167
29265,5178
29271,5190
29275,5202
29278,5215
29280,5227
29281,5240
29281,5684
29280,5697
29278,5710
29275,5722
29271,5735
29265,5746
29259,5757
29251,5768
29242,5778
29232,5786
29222,5794
29211,5801
29199,5806
29187,5811
29174,5814
29161,5816
29148,5816
28803,5816
28790,5816
28778,5814
28765,5811
28753,5806
28741,5801
28730,5794
28719,5786
28710,5778
28701,5768
28693,5757
28686,5746
28681,5735
28676,5722
28673,5710
28671,5697
28671,5684
28671,5240
28671,5227
28673,5215
28676,5202
28681,5190
28686,5178
28693,5167
28701,5156
28710,5147
28719,5138
28730,5130
28741,5123
28753,5118
28765,5113
28778,5110
28790,5108
28803,5108
29148,5108
29161,5108
" /> 
<polyline style="fill-rule:evenodd;"
points="28354,5108
28367,5110
28380,5113
28392,5118
28404,5123
28415,5130
28425,5138
28435,5147
28444,5156
28452,5167
28458,5178
28464,5190
28468,5202
28471,5215
28473,5227
28474,5240
28474,5684
28473,5697
28471,5710
28468,5722
28464,5735
28458,5746
28452,5757
28444,5768
28435,5778
28425,5786
28415,5794
28404,5801
28392,5806
28380,5811
28367,5814
28354,5816
28341,5816
27996,5816
27983,5816
27970,5814
27958,5811
27946,5806
27934,5801
27923,5794
27912,5786
27903,5778
27894,5768
27886,5757
27879,5746
27874,5735
27869,5722
27866,5710
27864,5697
27864,5684
27864,5240
27864,5227
27866,5215
27869,5202
27874,5190
27879,5178
27886,5167
27894,5156
27903,5147
27912,5138
27923,5130
27934,5123
27946,5118
27958,5113
27970,5110
27983,5108
27996,5108
28341,5108
28354,5108
" /> 
<polyline style="fill-rule:evenodd;"
points="1811,10728
1811,10039
2500,10039
2500,10728
1811,10728
" /> 
</g>
<g style="fill:#000000; fill-opacity:1.0; 
stroke:#000000; stroke-width:688.976; stroke-opacity:1; 
stroke-linecap:round; stroke-linejoin:round;">
</g>
<g style="fill:#000000; fill-opacity:0.0; 
stroke:#000000; stroke-width:688.976; stroke-opacity:1; 
stroke-linecap:round; stroke-linejoin:round;">
<path d="M2155 9596
L2155 9596
" />
</g>
<g style="fill:#000000; fill-opacity:0.0; 
stroke:#000000; stroke-width:0; stroke-opacity:1; 
stroke-linecap:round; stroke-linejoin:round;">
</g>
<g style="fill:#000000; fill-opacity:1.0; 
stroke:#000000; stroke-width:0; stroke-opacity:1; 
stroke-linecap:round; stroke-linejoin:round;">
<polyline style="fill-rule:evenodd;"
points="4909,6880
4922,6882
4935,6885
4947,6890
4959,6895
4970,6902
4981,6910
4990,6918
4999,6928
5007,6938
5013,6950
5019,6961
5023,6974
5026,6986
5028,6999
5029,7012
5029,7357
5028,7370
5026,7383
5023,7396
5019,7408
5013,7420
5007,7431
4999,7441
4990,7451
4981,7460
4970,7467
4959,7474
4947,7480
4935,7484
4922,7487
4909,7489
4896,7490
4453,7490
4440,7489
4427,7487
4415,7484
4402,7480
4390,7474
4379,7467
4369,7460
4359,7451
4350,7441
4343,7431
4336,7420
4330,7408
4326,7396
4323,7383
4321,7370
4320,7357
4320,7012
4321,6999
4323,6986
4326,6974
4330,6961
4336,6950
4343,6938
4350,6928
4359,6918
4369,6910
4379,6902
4390,6895
4402,6890
4415,6885
4427,6882
4440,6880
4453,6879
4896,6879
4909,6880
" /> 
<polyline style="fill-rule:evenodd;"
points="4909,7687
4922,7689
4935,7692
4947,7697
4959,7702
4970,7709
4981,7717
4990,7725
4999,7735
5007,7745
5013,7757
5019,7768
5023,7781
5026,7793
5028,7806
5029,7819
5029,8164
5028,8177
5026,8190
5023,8203
5019,8215
5013,8227
5007,8238
4999,8248
4990,8258
4981,8267
4970,8274
4959,8281
4947,8287
4935,8291
4922,8294
4909,8296
4896,8297
4453,8297
4440,8296
4427,8294
4415,8291
4402,8287
4390,8281
4379,8274
4369,8267
4359,8258
4350,8248
4343,8238
4336,8227
4330,8215
4326,8203
4323,8190
4321,8177
4320,8164
4320,7819
4321,7806
4323,7793
4326,7781
4330,7768
4336,7757
4343,7745
4350,7735
4359,7725
4369,7717
4379,7709
4390,7702
4402,7697
4415,7692
4427,7689
4440,7687
4453,7687
4896,7687
4909,7687
" /> 
<polyline style="fill-rule:evenodd;"
points="27972,14362
27972,14755
27204,14755
27204,14362
27972,14362
" /> 
<polyline style="fill-rule:evenodd;"
points="27972,13862
27972,14255
27204,14255
27204,13862
27972,13862
" /> 
<polyline style="fill-rule:evenodd;"
points="27972,13362
27972,13755
27204,13755
27204,13362
27972,13362
" /> 
<polyline style="fill-rule:evenodd;"
points="27972,12862
27972,13255
27204,13255
27204,12862
27972,12862
" /> 
<polyline style="fill-rule:evenodd;"
points="25846,12862
25846,13255
25078,13255
25078,12862
25846,12862
" /> 
<polyline style="fill-rule:evenodd;"
points="25846,13362
25846,13755
25078,13755
25078,13362
25846,13362
" /> 
<polyline style="fill-rule:evenodd;"
points="25846,13862
25846,14255
25078,14255
25078,13862
25846,13862
" /> 
<polyline style="fill-rule:evenodd;"
points="25846,14362
25846,14755
25078,14755
25078,14362
25846,14362
" /> 
<polyline style="fill-rule:evenodd;"
points="23768,4518
23781,4520
23793,4523
23805,4527
23817,4533
23828,4540
23839,4547
23848,4556
23857,4566
23865,4576
23872,4587
23877,4599
23882,4611
23885,4624
23887,4637
23887,4650
23887,5093
23887,5106
23885,5119
23882,5132
23877,5144
23872,5156
23865,5167
23857,5177
23848,5187
23839,5196
23828,5204
23817,5210
23805,5216
23793,5220
23781,5223
23768,5225
23755,5226
23410,5226
23397,5225
23384,5223
23371,5220
23359,5216
23347,5210
23336,5204
23326,5196
23316,5187
23307,5177
23299,5167
23293,5156
23287,5144
23283,5132
23280,5119
23278,5106
23277,5093
23277,4650
23278,4637
23280,4624
23283,4611
23287,4599
23293,4587
23299,4576
23307,4566
23316,4556
23326,4547
23336,4540
23347,4533
23359,4527
23371,4523
23384,4520
23397,4518
23410,4517
23755,4517
23768,4518
" /> 
<polyline style="fill-rule:evenodd;"
points="22961,4518
22974,4520
22986,4523
22998,4527
23010,4533
23021,4540
23032,4547
23041,4556
23050,4566
23058,4576
23065,4587
23070,4599
23075,4611
23078,4624
23080,4637
23080,4650
23080,5093
23080,5106
23078,5119
23075,5132
23070,5144
23065,5156
23058,5167
23050,5177
23041,5187
23032,5196
23021,5204
23010,5210
22998,5216
22986,5220
22974,5223
22961,5225
22948,5226
22602,5226
22589,5225
22577,5223
22564,5220
22552,5216
22540,5210
22529,5204
22518,5196
22509,5187
22500,5177
22492,5167
22486,5156
22480,5144
22476,5132
22473,5119
22471,5106
22470,5093
22470,4650
22471,4637
22473,4624
22476,4611
22480,4599
22486,4587
22492,4576
22500,4566
22509,4556
22518,4547
22529,4540
22540,4533
22552,4527
22564,4523
22577,4520
22589,4518
22602,4517
22948,4517
22961,4518
" /> 
<polyline style="fill-rule:evenodd;"
points="10600,10748
10600,11122
9812,11122
9812,10748
10600,10748
" /> 
<polyline style="fill-rule:evenodd;"
points="10600,10433
10600,10807
9812,10807
9812,10433
10600,10433
" /> 
<polyline style="fill-rule:evenodd;"
points="10600,10118
10600,10492
9812,10492
9812,10118
10600,10118
" /> 
<polyline style="fill-rule:evenodd;"
points="10600,9803
10600,10177
9812,10177
9812,9803
10600,9803
" /> 
<polyline style="fill-rule:evenodd;"
points="10600,9488
10600,9862
9812,9862
9812,9488
10600,9488
" /> 
<polyline style="fill-rule:evenodd;"
points="10600,9173
10600,9547
9812,9547
9812,9173
10600,9173
" /> 
<polyline style="fill-rule:evenodd;"
points="10600,8858
10600,9232
9812,9232
9812,8858
10600,8858
" /> 
<polyline style="fill-rule:evenodd;"
points="10600,8543
10600,8917
9812,8917
9812,8543
10600,8543
" /> 
<polyline style="fill-rule:evenodd;"
points="9448,7765
9822,7765
9822,8553
9448,8553
9448,7765
" /> 
<polyline style="fill-rule:evenodd;"
points="9133,7765
9507,7765
9507,8553
9133,8553
9133,7765
" /> 
<polyline style="fill-rule:evenodd;"
points="8818,7765
9192,7765
9192,8553
8818,8553
8818,7765
" /> 
<polyline style="fill-rule:evenodd;"
points="8503,7765
8877,7765
8877,8553
8503,8553
8503,7765
" /> 
<polyline style="fill-rule:evenodd;"
points="8188,7765
8562,7765
8562,8553
8188,8553
8188,7765
" /> 
<polyline style="fill-rule:evenodd;"
points="7874,7765
8248,7765
8248,8553
7874,8553
7874,7765
" /> 
<polyline style="fill-rule:evenodd;"
points="7559,7765
7933,7765
7933,8553
7559,8553
7559,7765
" /> 
<polyline style="fill-rule:evenodd;"
points="7244,7765
7618,7765
7618,8553
7244,8553
7244,7765
" /> 
<polyline style="fill-rule:evenodd;"
points="7253,8543
7253,8917
6466,8917
6466,8543
7253,8543
" /> 
<polyline style="fill-rule:evenodd;"
points="7253,8858
7253,9232
6466,9232
6466,8858
7253,8858
" /> 
<polyline style="fill-rule:evenodd;"
points="7253,9173
7253,9547
6466,9547
6466,9173
7253,9173
" /> 
<polyline style="fill-rule:evenodd;"
points="7253,9488
7253,9862
6466,9862
6466,9488
7253,9488
" /> 
<polyline style="fill-rule:evenodd;"
points="7253,9803
7253,10177
6466,10177
6466,9803
7253,9803
" /> 
<polyline style="fill-rule:evenodd;"
points="7253,10118
7253,10492
6466,10492
6466,10118
7253,10118
" /> 
<polyline style="fill-rule:evenodd;"
points="7253,10433
7253,10807
6466,10807
6466,10433
7253,10433
" /> 
<polyline style="fill-rule:evenodd;"
points="7253,10748
7253,11122
6466,11122
6466,10748
7253,10748
" /> 
<polyline style="fill-rule:evenodd;"
points="7244,11112
7618,11112
7618,11899
7244,11899
7244,11112
" /> 
<polyline style="fill-rule:evenodd;"
points="7559,11112
7933,11112
7933,11899
7559,11899
7559,11112
" /> 
<polyline style="fill-rule:evenodd;"
points="7874,11112
8248,11112
8248,11899
7874,11899
7874,11112
" /> 
<polyline style="fill-rule:evenodd;"
points="8188,11112
8562,11112
8562,11899
8188,11899
8188,11112
" /> 
<polyline style="fill-rule:evenodd;"
points="8503,11112
8877,11112
8877,11899
8503,11899
8503,11112
" /> 
<polyline style="fill-rule:evenodd;"
points="8818,11112
9192,11112
9192,11899
8818,11899
8818,11112
" /> 
<polyline style="fill-rule:evenodd;"
points="9133,11112
9507,11112
9507,11899
9133,11899
9133,11112
" /> 
<polyline style="fill-rule:evenodd;"
points="9448,11112
9822,11112
9822,11899
9448,11899
9448,11112
" /> 
<polyline style="fill-rule:evenodd;"
points="24537,4767
24537,4444
25045,4444
25045,4767
24537,4767
" /> 
<polyline style="fill-rule:evenodd;"
points="24537,5023
24537,4700
25045,4700
25045,5023
24537,5023
" /> 
<polyline style="fill-rule:evenodd;"
points="24537,5279
24537,4956
25045,4956
25045,5279
24537,5279
" /> 
<polyline style="fill-rule:evenodd;"
points="24537,5535
24537,5212
25045,5212
25045,5535
24537,5535
" /> 
<polyline style="fill-rule:evenodd;"
points="26194,5535
26194,5212
26702,5212
26702,5535
26194,5535
" /> 
<polyline style="fill-rule:evenodd;"
points="26194,5279
26194,4956
26702,4956
26702,5279
26194,5279
" /> 
<polyline style="fill-rule:evenodd;"
points="26194,5023
26194,4700
26702,4700
26702,5023
26194,5023
" /> 
<polyline style="fill-rule:evenodd;"
points="26194,4767
26194,4444
26702,4444
26702,4767
26194,4767
" /> 
<polyline style="fill-rule:evenodd;"
points="25210,5438
25210,4541
26029,4541
26029,5438
25210,5438
" /> 
<polyline style="fill-rule:evenodd;"
points="26720,3258
26733,3260
26746,3263
26758,3267
26770,3273
26781,3280
26792,3287
26801,3296
26810,3306
26818,3316
26824,3327
26830,3339
26834,3352
26838,3364
26839,3377
26840,3390
26840,3833
26839,3846
26838,3859
26834,3872
26830,3884
26824,3896
26818,3907
26810,3918
26801,3927
26792,3936
26781,3944
26770,3950
26758,3956
26746,3960
26733,3963
26720,3965
26707,3966
26362,3966
26349,3965
26337,3963
26324,3960
26312,3956
26300,3950
26289,3944
26278,3936
26269,3927
26260,3918
26252,3907
26245,3896
26240,3884
26236,3872
26232,3859
26230,3846
26230,3833
26230,3390
26230,3377
26232,3364
26236,3352
26240,3339
26245,3327
26252,3316
26260,3306
26269,3296
26278,3287
26289,3280
26300,3273
26312,3267
26324,3263
26337,3260
26349,3258
26362,3257
26707,3257
26720,3258
" /> 
<polyline style="fill-rule:evenodd;"
points="25914,3258
25926,3260
25939,3263
25951,3267
25963,3273
25974,3280
25985,3287
25994,3296
26003,3306
26011,3316
26017,3327
26023,3339
26027,3351
26030,3364
26032,3377
26033,3390
26033,3834
26032,3847
26030,3859
26027,3872
26023,3884
26017,3896
26011,3907
26003,3918
25994,3927
25985,3936
25974,3944
25963,3950
25951,3956
25939,3960
25926,3963
25914,3965
25901,3966
25555,3966
25542,3965
25529,3963
25517,3960
25504,3956
25493,3950
25482,3944
25471,3936
25462,3927
25453,3918
25445,3907
25438,3896
25433,3884
25428,3872
25425,3859
25423,3847
25423,3834
25423,3390
25423,3377
25425,3364
25428,3351
25433,3339
25438,3327
25445,3316
25453,3306
25462,3296
25471,3287
25482,3280
25493,3273
25504,3267
25517,3263
25529,3260
25542,3258
25555,3257
25901,3257
25914,3258
" /> 
<polyline style="fill-rule:evenodd;"
points="28354,6112
28367,6114
28380,6117
28392,6122
28404,6127
28415,6134
28425,6142
28435,6151
28444,6160
28452,6171
28458,6182
28464,6194
28468,6206
28471,6218
28473,6231
28474,6244
28474,6688
28473,6701
28471,6714
28468,6726
28464,6738
28458,6750
28452,6761
28444,6772
28435,6782
28425,6790
28415,6798
28404,6805
28392,6810
28380,6815
28367,6818
28354,6820
28341,6820
27996,6820
27983,6820
27970,6818
27958,6815
27946,6810
27934,6805
27923,6798
27912,6790
27903,6782
27894,6772
27886,6761
27879,6750
27874,6738
27869,6726
27866,6714
27864,6701
27864,6688
27864,6244
27864,6231
27866,6218
27869,6206
27874,6194
27879,6182
27886,6171
27894,6160
27903,6151
27912,6142
27923,6134
27934,6127
27946,6122
27958,6117
27970,6114
27983,6112
27996,6112
28341,6112
28354,6112
" /> 
<polyline style="fill-rule:evenodd;"
points="29161,6112
29174,6114
29187,6117
29199,6122
29211,6127
29222,6134
29232,6142
29242,6151
29251,6160
29259,6171
29265,6182
29271,6194
29275,6206
29278,6218
29280,6231
29281,6244
29281,6688
29280,6701
29278,6714
29275,6726
29271,6738
29265,6750
29259,6761
29251,6772
29242,6782
29232,6790
29222,6798
29211,6805
29199,6810
29187,6815
29174,6818
29161,6820
29148,6820
28803,6820
28790,6820
28778,6818
28765,6815
28753,6810
28741,6805
28730,6798
28719,6790
28710,6782
28701,6772
28693,6761
28686,6750
28681,6738
28676,6726
28673,6714
28671,6701
28671,6688
28671,6244
28671,6231
28673,6218
28676,6206
28681,6194
28686,6182
28693,6171
28701,6160
28710,6151
28719,6142
28730,6134
28741,6127
28753,6122
28765,6117
28778,6114
28790,6112
28803,6112
29148,6112
29161,6112
" /> 
<polyline style="fill-rule:evenodd;"
points="29201,16329
29214,16331
29226,16334
29238,16338
29250,16344
29261,16351
29272,16358
29282,16367
29290,16377
29298,16387
29305,16398
29310,16410
29315,16422
29318,16435
29320,16448
29320,16461
29320,16904
29320,16917
29318,16930
29315,16943
29310,16955
29305,16967
29298,16978
29290,16988
29282,16998
29272,17007
29261,17015
29250,17021
29238,17027
29226,17031
29214,17034
29201,17036
29188,17037
28843,17037
28830,17036
28817,17034
28804,17031
28792,17027
28780,17021
28769,17015
28759,17007
28749,16998
28740,16988
28732,16978
28726,16967
28720,16955
28716,16943
28713,16930
28711,16917
28710,16904
28710,16461
28711,16448
28713,16435
28716,16422
28720,16410
28726,16398
28732,16387
28740,16377
28749,16367
28759,16358
28769,16351
28780,16344
28792,16338
28804,16334
28817,16331
28830,16329
28843,16328
29188,16328
29201,16329
" /> 
<polyline style="fill-rule:evenodd;"
points="28394,16329
28407,16331
28419,16334
28431,16338
28443,16344
28454,16351
28465,16358
28474,16367
28483,16377
28491,16387
28498,16398
28503,16410
28508,16422
28511,16435
28513,16448
28513,16461
28513,16904
28513,16917
28511,16930
28508,16943
28503,16955
28498,16967
28491,16978
28483,16988
28474,16998
28465,17007
28454,17015
28443,17021
28431,17027
28419,17031
28407,17034
28394,17036
28381,17037
28036,17037
28023,17036
28010,17034
27997,17031
27985,17027
27973,17021
27962,17015
27952,17007
27942,16998
27933,16988
27925,16978
27919,16967
27913,16955
27909,16943
27906,16930
27904,16917
27903,16904
27903,16461
27904,16448
27906,16435
27909,16422
27913,16410
27919,16398
27925,16387
27933,16377
27942,16367
27952,16358
27962,16351
27973,16344
27985,16338
27997,16334
28010,16331
28023,16329
28036,16328
28381,16328
28394,16329
" /> 
<polyline style="fill-rule:evenodd;"
points="30776,15305
30788,15307
30801,15310
30813,15315
30825,15320
30836,15327
30847,15335
30856,15343
30865,15353
30873,15364
30880,15375
30885,15387
30889,15399
30893,15411
30895,15424
30895,15437
30895,15881
30895,15894
30893,15907
30889,15919
30885,15931
30880,15943
30873,15954
30865,15965
30856,15974
30847,15983
30836,15991
30825,15998
30813,16003
30801,16008
30788,16011
30776,16013
30763,16013
30418,16013
30405,16013
30392,16011
30379,16008
30367,16003
30355,15998
30344,15991
30333,15983
30324,15974
30315,15965
30307,15954
30301,15943
30295,15931
30291,15919
30287,15907
30286,15894
30285,15881
30285,15437
30286,15424
30287,15411
30291,15399
30295,15387
30301,15375
30307,15364
30315,15353
30324,15343
30333,15335
30344,15327
30355,15320
30367,15315
30379,15310
30392,15307
30405,15305
30418,15305
30763,15305
30776,15305
" /> 
<polyline style="fill-rule:evenodd;"
points="29968,15305
29981,15307
29994,15310
30006,15315
30018,15320
30029,15327
30040,15335
30049,15343
30058,15353
30066,15364
30072,15375
30078,15387
30082,15399
30086,15411
30087,15424
30088,15437
30088,15881
30087,15894
30086,15907
30082,15919
30078,15931
30072,15943
30066,15954
30058,15965
30049,15974
30040,15983
30029,15991
30018,15998
30006,16003
29994,16008
29981,16011
29968,16013
29955,16013
29611,16013
29598,16013
29585,16011
29572,16008
29560,16003
29548,15998
29537,15991
29526,15983
29517,15974
29508,15965
29500,15954
29494,15943
29488,15931
29484,15919
29480,15907
29478,15894
29478,15881
29478,15437
29478,15424
29480,15411
29484,15399
29488,15387
29494,15375
29500,15364
29508,15353
29517,15343
29526,15335
29537,15327
29548,15320
29560,15315
29572,15310
29585,15307
29598,15305
29611,15305
29955,15305
29968,15305
" /> 
<circle cx="30895.7" cy="18454.7" r="944.882" /> 
</g>
<g style="fill:#000000; fill-opacity:1.0; 
stroke:#000000; stroke-width:39.3701; stroke-opacity:1; 
stroke-linecap:round; stroke-linejoin:round;">
</g>
<g style="fill:#000000; fill-opacity:1.0; 
stroke:#000000; stroke-width:0; stroke-opacity:1; 
stroke-linecap:round; stroke-linejoin:round;">
<circle cx="30895.7" cy="1525.59" r="944.882" /> 
</g>
<g style="fill:#000000; fill-opacity:1.0; 
stroke:#000000; stroke-width:39.3701; stroke-opacity:1; 
stroke-linecap:round; stroke-linejoin:round;">
</g>
<g style="fill:#000000; fill-opacity:1.0; 
stroke:#000000; stroke-width:0; stroke-opacity:1; 
stroke-linecap:round; stroke-linejoin:round;">
<circle cx="2175.98" cy="1525.59" r="944.882" /> 
</g>
<g style="fill:#000000; fill-opacity:1.0; 
stroke:#000000; stroke-width:39.3701; stroke-opacity:1; 
stroke-linecap:round; stroke-linejoin:round;">
</g>
<g style="fill:#000000; fill-opacity:1.0; 
stroke:#000000; stroke-width:0; stroke-opacity:1; 
stroke-linecap:round; stroke-linejoin:round;">
<polyline style="fill-rule:evenodd;"
points="29161,4164
29174,4165
29187,4169
29199,4173
29211,4179
29222,4185
29232,4193
29242,4202
29251,4211
29259,4222
29265,4233
29271,4245
29275,4257
29278,4270
29280,4283
29281,4296
29281,4739
29280,4752
29278,4765
29275,4777
29271,4790
29265,4801
29259,4813
29251,4823
29242,4833
29232,4841
29222,4849
29211,4856
29199,4861
29187,4866
29174,4869
29161,4871
29148,4872
28803,4872
28790,4871
28778,4869
28765,4866
28753,4861
28741,4856
28730,4849
28719,4841
28710,4833
28701,4823
28693,4813
28686,4801
28681,4790
28676,4777
28673,4765
28671,4752
28671,4739
28671,4296
28671,4283
28673,4270
28676,4257
28681,4245
28686,4233
28693,4222
28701,4211
28710,4202
28719,4193
28730,4185
28741,4179
28753,4173
28765,4169
28778,4165
28790,4164
28803,4163
29148,4163
29161,4164
" /> 
<polyline style="fill-rule:evenodd;"
points="28354,4164
28367,4165
28380,4169
28392,4173
28404,4179
28415,4185
28425,4193
28435,4202
28444,4211
28452,4222
28458,4233
28464,4245
28468,4257
28471,4270
28473,4283
28474,4296
28474,4739
28473,4752
28471,4765
28468,4777
28464,4790
28458,4801
28452,4813
28444,4823
28435,4833
28425,4841
28415,4849
28404,4856
28392,4861
28380,4866
28367,4869
28354,4871
28341,4872
27996,4872
27983,4871
27970,4869
27958,4866
27946,4861
27934,4856
27923,4849
27912,4841
27903,4833
27894,4823
27886,4813
27879,4801
27874,4790
27869,4777
27866,4765
27864,4752
27864,4739
27864,4296
27864,4283
27866,4270
27869,4257
27874,4245
27879,4233
27886,4222
27894,4211
27903,4202
27912,4193
27923,4185
27934,4179
27946,4173
27958,4169
27970,4165
27983,4164
27996,4163
28341,4163
28354,4164
" /> 
<polyline style="fill-rule:evenodd;"
points="30146,9853
30158,9854
30171,9858
30183,9862
30195,9868
30206,9874
30217,9882
30226,9891
30235,9900
30243,9911
30250,9922
30255,9934
30260,9946
30263,9959
30265,9972
30265,9985
30265,10329
30265,10342
30263,10355
30260,10368
30255,10380
30250,10392
30243,10403
30235,10414
30226,10423
30217,10432
30206,10440
30195,10446
30183,10452
30171,10456
30158,10460
30146,10461
30133,10462
29689,10462
29676,10461
29663,10460
29651,10456
29638,10452
29627,10446
29616,10440
29605,10432
29595,10423
29587,10414
29579,10403
29572,10392
29567,10380
29562,10368
29559,10355
29557,10342
29557,10329
29557,9985
29557,9972
29559,9959
29562,9946
29567,9934
29572,9922
29579,9911
29587,9900
29595,9891
29605,9882
29616,9874
29627,9868
29638,9862
29651,9858
29663,9854
29676,9853
29689,9852
30133,9852
30146,9853
" /> 
<polyline style="fill-rule:evenodd;"
points="30146,9045
30158,9047
30171,9050
30183,9055
30195,9060
30206,9067
30217,9075
30226,9084
30235,9093
30243,9104
30250,9115
30255,9127
30260,9139
30263,9152
30265,9164
30265,9177
30265,9522
30265,9535
30263,9548
30260,9561
30255,9573
30250,9585
30243,9596
30235,9607
30226,9616
30217,9625
30206,9633
30195,9639
30183,9645
30171,9649
30158,9652
30146,9654
30133,9655
29689,9655
29676,9654
29663,9652
29651,9649
29638,9645
29627,9639
29616,9633
29605,9625
29595,9616
29587,9607
29579,9596
29572,9585
29567,9573
29562,9561
29559,9548
29557,9535
29557,9522
29557,9177
29557,9164
29559,9152
29562,9139
29567,9127
29572,9115
29579,9104
29587,9093
29595,9084
29605,9075
29616,9067
29627,9060
29638,9055
29651,9050
29663,9047
29676,9045
29689,9045
30133,9045
30146,9045
" /> 
<polyline style="fill-rule:evenodd;"
points="27823,10404
27836,10406
27848,10409
27861,10413
27872,10419
27883,10425
27894,10433
27904,10442
27912,10452
27920,10462
27927,10473
27932,10485
27937,10497
27940,10510
27942,10523
27942,10536
27942,10881
27942,10894
27940,10907
27937,10919
27932,10931
27927,10943
27920,10954
27912,10965
27904,10974
27894,10983
27883,10991
27872,10998
27861,11003
27848,11008
27836,11011
27823,11013
27810,11013
27366,11013
27353,11013
27341,11011
27328,11008
27316,11003
27304,10998
27293,10991
27282,10983
27273,10974
27264,10965
27256,10954
27249,10943
27244,10931
27239,10919
27236,10907
27234,10894
27234,10881
27234,10536
27234,10523
27236,10510
27239,10497
27244,10485
27249,10473
27256,10462
27264,10452
27273,10442
27282,10433
27293,10425
27304,10419
27316,10413
27328,10409
27341,10406
27353,10404
27366,10403
27810,10403
27823,10404
" /> 
<polyline style="fill-rule:evenodd;"
points="27823,9597
27836,9599
27848,9602
27861,9606
27872,9612
27883,9618
27894,9626
27904,9635
27912,9644
27920,9655
27927,9666
27932,9678
27937,9690
27940,9703
27942,9716
27942,9729
27942,10074
27942,10087
27940,10099
27937,10112
27932,10124
27927,10136
27920,10147
27912,10158
27904,10167
27894,10176
27883,10184
27872,10191
27861,10196
27848,10200
27836,10204
27823,10206
27810,10206
27366,10206
27353,10206
27341,10204
27328,10200
27316,10196
27304,10191
27293,10184
27282,10176
27273,10167
27264,10158
27256,10147
27249,10136
27244,10124
27239,10112
27236,10099
27234,10087
27234,10074
27234,9729
27234,9716
27236,9703
27239,9690
27244,9678
27249,9666
27256,9655
27264,9644
27273,9635
27282,9626
27293,9618
27304,9612
27316,9606
27328,9602
27341,9599
27353,9597
27366,9596
27810,9596
27823,9597
" /> 
<polyline style="fill-rule:evenodd;"
points="25697,15502
25710,15504
25722,15507
25735,15512
25746,15517
25757,15524
25768,15532
25778,15540
25786,15550
25794,15560
25801,15572
25806,15583
25811,15596
25814,15608
25816,15621
25816,15634
25816,15979
25816,15992
25814,16005
25811,16018
25806,16030
25801,16042
25794,16053
25786,16063
25778,16073
25768,16082
25757,16089
25746,16096
25735,16102
25722,16106
25710,16109
25697,16111
25684,16112
25240,16112
25227,16111
25215,16109
25202,16106
25190,16102
25178,16096
25167,16089
25156,16082
25147,16073
25138,16063
25130,16053
25123,16042
25118,16030
25113,16018
25110,16005
25108,15992
25108,15979
25108,15634
25108,15621
25110,15608
25113,15596
25118,15583
25123,15572
25130,15560
25138,15550
25147,15540
25156,15532
25167,15524
25178,15517
25190,15512
25202,15507
25215,15504
25227,15502
25240,15501
25684,15501
25697,15502
" /> 
<polyline style="fill-rule:evenodd;"
points="25697,16309
25710,16311
25722,16314
25735,16319
25746,16324
25757,16331
25768,16339
25778,16347
25786,16357
25794,16368
25801,16379
25806,16390
25811,16403
25814,16415
25816,16428
25816,16441
25816,16786
25816,16799
25814,16812
25811,16825
25806,16837
25801,16849
25794,16860
25786,16870
25778,16880
25768,16889
25757,16896
25746,16903
25735,16909
25722,16913
25710,16916
25697,16918
25684,16919
25240,16919
25227,16918
25215,16916
25202,16913
25190,16909
25178,16903
25167,16896
25156,16889
25147,16880
25138,16870
25130,16860
25123,16849
25118,16837
25113,16825
25110,16812
25108,16799
25108,16786
25108,16441
25108,16428
25110,16415
25113,16403
25118,16390
25123,16379
25130,16368
25138,16357
25147,16347
25156,16339
25167,16331
25178,16324
25190,16319
25202,16314
25215,16311
25227,16309
25240,16309
25684,16309
25697,16309
" /> 
<polyline style="fill-rule:evenodd;"
points="29968,13730
29981,13732
29994,13736
30006,13740
30018,13745
30029,13752
30040,13760
30049,13769
30058,13778
30066,13789
30072,13800
30078,13812
30082,13824
30086,13837
30087,13849
30088,13862
30088,14306
30087,14319
30086,14332
30082,14344
30078,14357
30072,14368
30066,14380
30058,14390
30049,14400
30040,14408
30029,14416
30018,14423
30006,14428
29994,14433
29981,14436
29968,14438
29955,14438
29611,14438
29598,14438
29585,14436
29572,14433
29560,14428
29548,14423
29537,14416
29526,14408
29517,14400
29508,14390
29500,14380
29494,14368
29488,14357
29484,14344
29480,14332
29478,14319
29478,14306
29478,13862
29478,13849
29480,13837
29484,13824
29488,13812
29494,13800
29500,13789
29508,13778
29517,13769
29526,13760
29537,13752
29548,13745
29560,13740
29572,13736
29585,13732
29598,13730
29611,13730
29955,13730
29968,13730
" /> 
<polyline style="fill-rule:evenodd;"
points="30776,13730
30788,13732
30801,13736
30813,13740
30825,13745
30836,13752
30847,13760
30856,13769
30865,13778
30873,13789
30880,13800
30885,13812
30889,13824
30893,13837
30895,13849
30895,13862
30895,14306
30895,14319
30893,14332
30889,14344
30885,14357
30880,14368
30873,14380
30865,14390
30856,14400
30847,14408
30836,14416
30825,14423
30813,14428
30801,14433
30788,14436
30776,14438
30763,14438
30418,14438
30405,14438
30392,14436
30379,14433
30367,14428
30355,14423
30344,14416
30333,14408
30324,14400
30315,14390
30307,14380
30301,14368
30295,14357
30291,14344
30287,14332
30286,14319
30285,14306
30285,13862
30286,13849
30287,13837
30291,13824
30295,13812
30301,13800
30307,13789
30315,13778
30324,13769
30333,13760
30344,13752
30355,13745
30367,13740
30379,13736
30392,13732
30405,13730
30418,13730
30763,13730
30776,13730
" /> 
<polyline style="fill-rule:evenodd;"
points="9870,5837
9883,5839
9896,5842
9908,5846
9920,5852
9931,5858
9941,5866
9951,5875
9960,5885
9967,5895
9974,5906
9980,5918
9984,5930
9987,5943
9989,5956
9990,5969
9990,6314
9989,6327
9987,6340
9984,6352
9980,6364
9974,6376
9967,6387
9960,6398
9951,6407
9941,6416
9931,6424
9920,6431
9908,6436
9896,6441
9883,6444
9870,6446
9857,6446
9414,6446
9401,6446
9388,6444
9375,6441
9363,6436
9351,6431
9340,6424
9329,6416
9320,6407
9311,6398
9303,6387
9297,6376
9291,6364
9287,6352
9284,6340
9282,6327
9281,6314
9281,5969
9282,5956
9284,5943
9287,5930
9291,5918
9297,5906
9303,5895
9311,5885
9320,5875
9329,5866
9340,5858
9351,5852
9363,5846
9375,5842
9388,5839
9401,5837
9414,5836
9857,5836
9870,5837
" /> 
<polyline style="fill-rule:evenodd;"
points="9870,5030
9883,5032
9896,5035
9908,5039
9920,5045
9931,5051
9941,5059
9951,5068
9960,5078
9967,5088
9974,5099
9980,5111
9984,5123
9987,5136
9989,5149
9990,5162
9990,5507
9989,5520
9987,5532
9984,5545
9980,5557
9974,5569
9967,5580
9960,5591
9951,5600
9941,5609
9931,5617
9920,5624
9908,5629
9896,5634
9883,5637
9870,5639
9857,5639
9414,5639
9401,5639
9388,5637
9375,5634
9363,5629
9351,5624
9340,5617
9329,5609
9320,5600
9311,5591
9303,5580
9297,5569
9291,5557
9287,5545
9284,5532
9282,5520
9281,5507
9281,5162
9282,5149
9284,5136
9287,5123
9291,5111
9297,5099
9303,5088
9311,5078
9320,5068
9329,5059
9340,5051
9351,5045
9363,5039
9375,5035
9388,5032
9401,5030
9414,5029
9857,5029
9870,5030
" /> 
<polyline style="fill-rule:evenodd;"
points="8079,14242
8092,14244
8104,14247
8116,14252
8128,14257
8139,14264
8150,14272
8159,14280
8168,14290
8176,14301
8183,14312
8188,14324
8193,14336
8196,14348
8198,14361
8198,14374
8198,14818
8198,14831
8196,14844
8193,14856
8188,14868
8183,14880
8176,14891
8168,14902
8159,14911
8150,14920
8139,14928
8128,14935
8116,14940
8104,14945
8092,14948
8079,14950
8066,14950
7721,14950
7708,14950
7695,14948
7682,14945
7670,14940
7658,14935
7647,14928
7637,14920
7627,14911
7618,14902
7610,14891
7604,14880
7598,14868
7594,14856
7591,14844
7589,14831
7588,14818
7588,14374
7589,14361
7591,14348
7594,14336
7598,14324
7604,14312
7610,14301
7618,14290
7627,14280
7637,14272
7647,14264
7658,14257
7670,14252
7682,14247
7695,14244
7708,14242
7721,14242
8066,14242
8079,14242
" /> 
<polyline style="fill-rule:evenodd;"
points="8886,14242
8899,14244
8911,14247
8924,14252
8935,14257
8946,14264
8957,14272
8967,14280
8975,14290
8983,14301
8990,14312
8995,14324
9000,14336
9003,14348
9005,14361
9005,14374
9005,14818
9005,14831
9003,14844
9000,14856
8995,14868
8990,14880
8983,14891
8975,14902
8967,14911
8957,14920
8946,14928
8935,14935
8924,14940
8911,14945
8899,14948
8886,14950
8873,14950
8528,14950
8515,14950
8502,14948
8489,14945
8477,14940
8465,14935
8454,14928
8444,14920
8434,14911
8425,14902
8418,14891
8411,14880
8405,14868
8401,14856
8398,14844
8396,14831
8395,14818
8395,14374
8396,14361
8398,14348
8401,14336
8405,14324
8411,14312
8418,14301
8425,14290
8434,14280
8444,14272
8454,14264
8465,14257
8477,14252
8489,14247
8502,14244
8515,14242
8528,14242
8873,14242
8886,14242
" /> 
<polyline style="fill-rule:evenodd;"
points="11405,13534
11418,13536
11431,13539
11443,13543
11455,13549
11466,13555
11477,13563
11486,13572
11495,13581
11503,13592
11509,13603
11515,13615
11519,13627
11523,13640
11524,13653
11525,13666
11525,14011
11524,14024
11523,14036
11519,14049
11515,14061
11509,14073
11503,14084
11495,14095
11486,14104
11477,14113
11466,14121
11455,14128
11443,14133
11431,14137
11418,14141
11405,14143
11392,14143
10949,14143
10936,14143
10923,14141
10911,14137
10898,14133
10887,14128
10875,14121
10865,14113
10855,14104
10847,14095
10839,14084
10832,14073
10827,14061
10822,14049
10819,14036
10817,14024
10816,14011
10816,13666
10817,13653
10819,13640
10822,13627
10827,13615
10832,13603
10839,13592
10847,13581
10855,13572
10865,13563
10875,13555
10887,13549
10898,13543
10911,13539
10923,13536
10936,13534
10949,13533
11392,13533
11405,13534
" /> 
<polyline style="fill-rule:evenodd;"
points="11405,14341
11418,14343
11431,14346
11443,14350
11455,14356
11466,14362
11477,14370
11486,14379
11495,14389
11503,14399
11509,14410
11515,14422
11519,14434
11523,14447
11524,14460
11525,14473
11525,14818
11524,14831
11523,14844
11519,14856
11515,14868
11509,14880
11503,14891
11495,14902
11486,14911
11477,14920
11466,14928
11455,14935
11443,14940
11431,14945
11418,14948
11405,14950
11392,14950
10949,14950
10936,14950
10923,14948
10911,14945
10898,14940
10887,14935
10875,14928
10865,14920
10855,14911
10847,14902
10839,14891
10832,14880
10827,14868
10822,14856
10819,14844
10817,14831
10816,14818
10816,14473
10817,14460
10819,14447
10822,14434
10827,14422
10832,14410
10839,14399
10847,14389
10855,14379
10865,14370
10875,14362
10887,14356
10898,14350
10911,14346
10923,14343
10936,14341
10949,14340
11392,14340
11405,14341
" /> 
<polyline style="fill-rule:evenodd;"
points="30618,4252
30631,4254
30643,4257
30656,4262
30667,4267
30679,4274
30689,4282
30699,4290
30708,4300
30715,4311
30722,4322
30728,4333
30732,4346
30735,4358
30737,4371
30738,4384
30738,4650
30737,4663
30735,4676
30732,4689
30728,4701
30722,4713
30715,4724
30708,4734
30699,4744
30689,4753
30679,4761
30667,4767
30656,4773
30643,4777
30631,4780
30618,4782
30605,4783
30300,4783
30287,4782
30274,4780
30261,4777
30249,4773
30237,4767
30226,4761
30215,4753
30206,4744
30197,4734
30189,4724
30183,4713
30177,4701
30173,4689
30169,4676
30167,4663
30167,4650
30167,4384
30167,4371
30169,4358
30173,4346
30177,4333
30183,4322
30189,4311
30197,4300
30206,4290
30215,4282
30226,4274
30237,4267
30249,4262
30261,4257
30274,4254
30287,4252
30300,4251
30605,4251
30618,4252
" /> 
<polyline style="fill-rule:evenodd;"
points="29929,4252
29942,4254
29954,4257
29967,4262
29978,4267
29990,4274
30000,4282
30010,4290
30019,4300
30026,4311
30033,4322
30039,4333
30043,4346
30046,4358
30048,4371
30049,4384
30049,4650
30048,4663
30046,4676
30043,4689
30039,4701
30033,4713
30026,4724
30019,4734
30010,4744
30000,4753
29990,4761
29978,4767
29967,4773
29954,4777
29942,4780
29929,4782
29916,4783
29611,4783
29598,4782
29585,4780
29572,4777
29560,4773
29548,4767
29537,4761
29526,4753
29517,4744
29508,4734
29500,4724
29494,4713
29488,4701
29484,4689
29480,4676
29478,4663
29478,4650
29478,4384
29478,4371
29480,4358
29484,4346
29488,4333
29494,4322
29500,4311
29508,4300
29517,4290
29526,4282
29537,4274
29548,4267
29560,4262
29572,4257
29585,4254
29598,4252
29611,4251
29916,4251
29929,4252
" /> 
<circle cx="2155.51" cy="18454.7" r="944.882" /> 
</g>
<g style="fill:#000000; fill-opacity:1.0; 
stroke:#000000; stroke-width:39.3701; stroke-opacity:1; 
stroke-linecap:round; stroke-linejoin:round;">
</g>
<g style="fill:#000000; fill-opacity:1.0; 
stroke:#000000; stroke-width:0; stroke-opacity:1; 
stroke-linecap:round; stroke-linejoin:round;">
<polyline style="fill-rule:evenodd;"
points="9832,13336
9832,13887
9281,13887
9281,13336
9832,13336
" /> 
<polyline style="fill-rule:evenodd;"
points="9045,13336
9045,13887
8494,13887
8494,13336
9045,13336
" /> 
<polyline style="fill-rule:evenodd;"
points="12537,1379
12537,1671
11970,1671
11970,1379
12537,1379
" /> 
<polyline style="fill-rule:evenodd;"
points="13364,1005
13364,1297
12797,1297
12797,1005
13364,1005
" /> 
<polyline style="fill-rule:evenodd;"
points="13364,1753
13364,2045
12797,2045
12797,1753
13364,1753
" /> 
</g> 
</svg>
