<?xml version="1.0" standalone="no"?>
 <!DOCTYPE svg PUBLIC "-//W3C//DTD SVG 1.1//EN" 
 "http://www.w3.org/Graphics/SVG/1.1/DTD/svg11.dtd"> 
<svg xmlns="http://www.w3.org/2000/svg" version="1.1" 
    width="8.2042cm" height="5.08254cm" viewBox="0 0 32300 20010 ">
<title>SVG Picture created as eside_rev15-F.Cu.svg date 2018/08/29 18:39:15 </title>
  <desc>Picture generated by PCBNEW </desc>
<g style="fill:#000000; fill-opacity:1;stroke:#000000; stroke-opacity:1;
stroke-linecap:round; stroke-linejoin:round; "
 transform="translate(0 0) scale(1 1)">
</g>
<g style="fill:#000000; fill-opacity:0.0; 
stroke:#000000; stroke-width:-0.000393701; stroke-opacity:1; 
stroke-linecap:round; stroke-linejoin:round;">
</g>
<g style="fill:#000000; fill-opacity:0.0; 
stroke:#000000; stroke-width:0; stroke-opacity:1; 
stroke-linecap:round; stroke-linejoin:round;">
</g>
<g style="fill:#000000; fill-opacity:1.0; 
stroke:#000000; stroke-width:0; stroke-opacity:1; 
stroke-linecap:round; stroke-linejoin:round;">
<polyline style="fill-rule:evenodd;"
points="11722,7391
11722,6998
12116,6998
12116,7391
11722,7391
" /> 
<polyline style="fill-rule:evenodd;"
points="30014,10856
30023,10858
30032,10860
30040,10863
30048,10867
30056,10872
30064,10877
30071,10883
30077,10890
30082,10897
30087,10905
30091,10914
30094,10922
30096,10931
30097,10940
30098,10949
30098,11176
30097,11185
30096,11194
30094,11203
30091,11211
30087,11220
30082,11228
30077,11235
30071,11242
30064,11248
30056,11253
30048,11258
30040,11262
30032,11265
30023,11267
30014,11269
30004,11269
29817,11269
29808,11269
29799,11267
29790,11265
29782,11262
29773,11258
29765,11253
29758,11248
29751,11242
29745,11235
29740,11228
29735,11220
29731,11211
29728,11203
29726,11194
29724,11185
29724,11176
29724,10949
29724,10940
29726,10931
29728,10922
29731,10914
29735,10905
29740,10897
29745,10890
29751,10883
29758,10877
29765,10872
29773,10867
29782,10863
29790,10860
29799,10858
29808,10856
29817,10856
30004,10856
30014,10856
" /> 
<polyline style="fill-rule:evenodd;"
points="30014,11545
30023,11547
30032,11549
30040,11552
30048,11556
30056,11561
30064,11566
30071,11572
30077,11579
30082,11586
30087,11594
30091,11602
30094,11611
30096,11620
30097,11629
30098,11638
30098,11865
30097,11874
30096,11883
30094,11892
30091,11900
30087,11909
30082,11917
30077,11924
30071,11931
30064,11937
30056,11942
30048,11947
30040,11951
30032,11954
30023,11956
30014,11958
30004,11958
29817,11958
29808,11958
29799,11956
29790,11954
29782,11951
29773,11947
29765,11942
29758,11937
29751,11931
29745,11924
29740,11917
29735,11909
29731,11900
29728,11892
29726,11883
29724,11874
29724,11865
29724,11638
29724,11629
29726,11620
29728,11611
29731,11602
29735,11594
29740,11586
29745,11579
29751,11572
29758,11566
29765,11561
29773,11556
29782,11552
29790,11549
29799,11547
29808,11545
29817,11545
30004,11545
30014,11545
" /> 
<polyline style="fill-rule:evenodd;"
points="5683,7037
5692,7039
5701,7041
5709,7044
5718,7048
5726,7053
5733,7058
5740,7064
5746,7071
5751,7078
5756,7086
5760,7095
5763,7103
5765,7112
5767,7121
5767,7130
5767,7357
5767,7366
5765,7375
5763,7384
5760,7393
5756,7401
5751,7409
5746,7416
5740,7423
5733,7429
5726,7435
5718,7439
5709,7443
5701,7446
5692,7448
5683,7450
5674,7450
5487,7450
5478,7450
5468,7448
5460,7446
5451,7443
5443,7439
5435,7435
5427,7429
5421,7423
5414,7416
5409,7409
5404,7401
5400,7393
5397,7384
5395,7375
5394,7366
5393,7357
5393,7130
5394,7121
5395,7112
5397,7103
5400,7095
5404,7086
5409,7078
5414,7071
5421,7064
5427,7058
5435,7053
5443,7048
5451,7044
5460,7041
5468,7039
5478,7037
5487,7037
5674,7037
5683,7037
" /> 
<polyline style="fill-rule:evenodd;"
points="5683,7726
5692,7728
5701,7730
5709,7733
5718,7737
5726,7742
5733,7747
5740,7753
5746,7760
5751,7767
5756,7775
5760,7784
5763,7792
5765,7801
5767,7810
5767,7819
5767,8046
5767,8055
5765,8064
5763,8073
5760,8082
5756,8090
5751,8098
5746,8105
5740,8112
5733,8118
5726,8124
5718,8128
5709,8132
5701,8135
5692,8137
5683,8139
5674,8139
5487,8139
5478,8139
5468,8137
5460,8135
5451,8132
5443,8128
5435,8124
5427,8118
5421,8112
5414,8105
5409,8098
5404,8090
5400,8082
5397,8073
5395,8064
5394,8055
5393,8046
5393,7819
5394,7810
5395,7801
5397,7792
5400,7784
5404,7775
5409,7767
5414,7760
5421,7753
5427,7747
5435,7742
5443,7737
5451,7733
5460,7730
5468,7728
5478,7726
5487,7726
5674,7726
5683,7726
" /> 
<polyline style="fill-rule:evenodd;"
points="12838,9488
12847,9489
12856,9492
12865,9495
12873,9499
12881,9503
12889,9509
12895,9515
12902,9522
12907,9529
12912,9537
12916,9545
12919,9554
12921,9563
12922,9572
12923,9581
12923,9768
12922,9777
12921,9786
12919,9795
12916,9804
12912,9812
12907,9820
12902,9828
12895,9834
12889,9840
12881,9846
12873,9851
12865,9855
12856,9858
12847,9860
12838,9861
12829,9862
12603,9862
12594,9861
12585,9860
12576,9858
12567,9855
12559,9851
12551,9846
12544,9840
12537,9834
12531,9828
12525,9820
12520,9812
12516,9804
12513,9795
12511,9786
12510,9777
12509,9768
12509,9581
12510,9572
12511,9563
12513,9554
12516,9545
12520,9537
12525,9529
12531,9522
12537,9515
12544,9509
12551,9503
12559,9499
12567,9495
12576,9492
12585,9489
12594,9488
12603,9488
12829,9488
12838,9488
" /> 
<polyline style="fill-rule:evenodd;"
points="13527,9488
13536,9489
13545,9492
13554,9495
13562,9499
13570,9503
13578,9509
13584,9515
13590,9522
13596,9529
13601,9537
13605,9545
13608,9554
13610,9563
13611,9572
13612,9581
13612,9768
13611,9777
13610,9786
13608,9795
13605,9804
13601,9812
13596,9820
13590,9828
13584,9834
13578,9840
13570,9846
13562,9851
13554,9855
13545,9858
13536,9860
13527,9861
13518,9862
13292,9862
13283,9861
13274,9860
13265,9858
13256,9855
13248,9851
13240,9846
13233,9840
13226,9834
13220,9828
13214,9820
13209,9812
13205,9804
13202,9795
13200,9786
13199,9777
13198,9768
13198,9581
13199,9572
13200,9563
13202,9554
13205,9545
13209,9537
13214,9529
13220,9522
13226,9515
13233,9509
13240,9503
13248,9499
13256,9495
13265,9492
13274,9489
13283,9488
13292,9488
13518,9488
13527,9488
" /> 
<polyline style="fill-rule:evenodd;"
points="5368,4813
5377,4814
5386,4817
5395,4820
5403,4824
5411,4828
5418,4834
5425,4840
5431,4847
5436,4854
5441,4862
5445,4870
5448,4879
5450,4888
5452,4897
5452,4906
5452,5132
5452,5142
5450,5151
5448,5160
5445,5168
5441,5176
5436,5184
5431,5192
5425,5198
5418,5205
5411,5210
5403,5215
5395,5219
5386,5222
5377,5224
5368,5225
5359,5226
5172,5226
5163,5225
5154,5224
5145,5222
5136,5219
5128,5215
5120,5210
5112,5205
5106,5198
5099,5192
5094,5184
5089,5176
5085,5168
5082,5160
5080,5151
5079,5142
5078,5132
5078,4906
5079,4897
5080,4888
5082,4879
5085,4870
5089,4862
5094,4854
5099,4847
5106,4840
5112,4834
5120,4828
5128,4824
5136,4820
5145,4817
5154,4814
5163,4813
5172,4812
5359,4812
5368,4813
" /> 
<polyline style="fill-rule:evenodd;"
points="5368,4124
5377,4125
5386,4128
5395,4131
5403,4135
5411,4139
5418,4145
5425,4151
5431,4158
5436,4165
5441,4173
5445,4181
5448,4190
5450,4199
5452,4208
5452,4217
5452,4443
5452,4453
5450,4462
5448,4471
5445,4479
5441,4487
5436,4495
5431,4503
5425,4510
5418,4516
5411,4521
5403,4526
5395,4530
5386,4533
5377,4535
5368,4536
5359,4537
5172,4537
5163,4536
5154,4535
5145,4533
5136,4530
5128,4526
5120,4521
5112,4516
5106,4510
5099,4503
5094,4495
5089,4487
5085,4479
5082,4471
5080,4462
5079,4453
5078,4443
5078,4217
5079,4208
5080,4199
5082,4190
5085,4181
5089,4173
5094,4165
5099,4158
5106,4151
5112,4145
5120,4139
5128,4135
5136,4131
5145,4128
5154,4125
5163,4124
5172,4124
5359,4124
5368,4124
" /> 
<polyline style="fill-rule:evenodd;"
points="5053,14242
5062,14243
5071,14246
5080,14249
5088,14253
5096,14257
5103,14263
5110,14269
5116,14276
5122,14283
5126,14291
5130,14299
5133,14308
5135,14317
5137,14326
5137,14335
5137,14562
5137,14571
5135,14580
5133,14589
5130,14597
5126,14606
5122,14613
5116,14621
5110,14628
5103,14634
5096,14639
5088,14644
5080,14648
5071,14651
5062,14653
5053,14655
5044,14655
4857,14655
4848,14655
4839,14653
4830,14651
4821,14648
4813,14644
4805,14639
4797,14634
4791,14628
4785,14621
4779,14613
4774,14606
4770,14597
4767,14589
4765,14580
4764,14571
4763,14562
4763,14335
4764,14326
4765,14317
4767,14308
4770,14299
4774,14291
4779,14283
4785,14276
4791,14269
4797,14263
4805,14257
4813,14253
4821,14249
4830,14246
4839,14243
4848,14242
4857,14242
5044,14242
5053,14242
" /> 
<polyline style="fill-rule:evenodd;"
points="5053,13553
5062,13554
5071,13557
5080,13560
5088,13564
5096,13568
5103,13574
5110,13580
5116,13587
5122,13594
5126,13602
5130,13610
5133,13619
5135,13628
5137,13637
5137,13646
5137,13873
5137,13882
5135,13891
5133,13900
5130,13908
5126,13917
5122,13924
5116,13932
5110,13939
5103,13945
5096,13950
5088,13955
5080,13959
5071,13962
5062,13964
5053,13966
5044,13966
4857,13966
4848,13966
4839,13964
4830,13962
4821,13959
4813,13955
4805,13950
4797,13945
4791,13939
4785,13932
4779,13924
4774,13917
4770,13908
4767,13900
4765,13891
4764,13882
4763,13873
4763,13646
4764,13637
4765,13628
4767,13619
4770,13610
4774,13602
4779,13594
4785,13587
4791,13580
4797,13574
4805,13568
4813,13564
4821,13560
4830,13557
4839,13554
4848,13553
4857,13553
5044,13553
5053,13553
" /> 
<polyline style="fill-rule:evenodd;"
points="11968,4085
11977,4086
11987,4088
11996,4092
12005,4096
12013,4101
12021,4106
12028,4113
12034,4120
12040,4128
12045,4136
12049,4145
12052,4154
12055,4163
12056,4173
12057,4183
12057,4537
12056,4547
12055,4556
12052,4565
12049,4575
12045,4583
12040,4592
12034,4599
12028,4606
12021,4613
12013,4619
12005,4624
11996,4628
11987,4631
11977,4633
11968,4635
11958,4635
11702,4635
11693,4635
11683,4633
11674,4631
11665,4628
11656,4624
11648,4619
11640,4613
11633,4606
11626,4599
11620,4592
11615,4583
11611,4575
11608,4565
11606,4556
11604,4547
11604,4537
11604,4183
11604,4173
11606,4163
11608,4154
11611,4145
11615,4136
11620,4128
11626,4120
11633,4113
11640,4106
11648,4101
11656,4096
11665,4092
11674,4088
11683,4086
11693,4085
11702,4084
11958,4084
11968,4085
" /> 
<polyline style="fill-rule:evenodd;"
points="12775,4085
12784,4086
12794,4088
12803,4092
12812,4096
12820,4101
12828,4106
12835,4113
12841,4120
12847,4128
12852,4136
12856,4145
12859,4154
12862,4163
12863,4173
12864,4183
12864,4537
12863,4547
12862,4556
12859,4565
12856,4575
12852,4583
12847,4592
12841,4599
12835,4606
12828,4613
12820,4619
12812,4624
12803,4628
12794,4631
12784,4633
12775,4635
12765,4635
12509,4635
12500,4635
12490,4633
12481,4631
12472,4628
12463,4624
12455,4619
12447,4613
12440,4606
12433,4599
12428,4592
12423,4583
12418,4575
12415,4565
12413,4556
12411,4547
12411,4537
12411,4183
12411,4173
12413,4163
12415,4154
12418,4145
12423,4136
12428,4128
12433,4120
12440,4113
12447,4106
12455,4101
12463,4096
12472,4092
12481,4088
12490,4086
12500,4085
12509,4084
12765,4084
12775,4085
" /> 
<polyline style="fill-rule:evenodd;"
points="2588,12382
2597,12383
2607,12386
2616,12389
2625,12393
2633,12398
2641,12404
2648,12410
2654,12417
2660,12425
2665,12433
2669,12442
2672,12451
2675,12461
2676,12470
2677,12480
2677,12844
2676,12854
2675,12863
2672,12873
2669,12882
2665,12890
2660,12899
2654,12906
2648,12914
2641,12920
2633,12926
2625,12931
2616,12935
2607,12938
2597,12941
2588,12942
2578,12942
1732,12942
1722,12942
1713,12941
1703,12938
1694,12935
1685,12931
1677,12926
1669,12920
1662,12914
1656,12906
1650,12899
1645,12890
1641,12882
1638,12873
1635,12863
1634,12854
1633,12844
1633,12480
1634,12470
1635,12461
1638,12451
1641,12442
1645,12433
1650,12425
1656,12417
1662,12410
1669,12404
1677,12398
1685,12393
1694,12389
1703,12386
1713,12383
1722,12382
1732,12381
2578,12381
2588,12382
" /> 
<polyline style="fill-rule:evenodd;"
points="2588,11211
2597,11212
2607,11214
2616,11218
2625,11222
2633,11227
2641,11232
2648,11239
2654,11246
2660,11254
2665,11262
2669,11271
2672,11280
2675,11289
2676,11299
2677,11309
2677,11673
2676,11682
2675,11692
2672,11701
2669,11710
2665,11719
2660,11727
2654,11735
2648,11742
2641,11749
2633,11755
2625,11760
2616,11764
2607,11767
2597,11769
2588,11771
2578,11771
1732,11771
1722,11771
1713,11769
1703,11767
1694,11764
1685,11760
1677,11755
1669,11749
1662,11742
1656,11735
1650,11727
1645,11719
1641,11710
1638,11701
1635,11692
1634,11682
1633,11673
1633,11309
1634,11299
1635,11289
1638,11280
1641,11271
1645,11262
1650,11254
1656,11246
1662,11239
1669,11232
1677,11227
1685,11222
1694,11218
1703,11214
1713,11212
1722,11211
1732,11210
2578,11210
2588,11211
" /> 
<polyline style="fill-rule:evenodd;"
points="9124,2706
9517,2706
9517,3494
9124,3494
9124,2706
" /> 
<polyline style="fill-rule:evenodd;"
points="8336,2706
8730,2706
8730,3494
8336,3494
8336,2706
" /> 
<polyline style="fill-rule:evenodd;"
points="7549,2706
7942,2706
7942,3494
7549,3494
7549,2706
" /> 
<polyline style="fill-rule:evenodd;"
points="6761,2706
7155,2706
7155,3494
6761,3494
6761,2706
" /> 
<polyline style="fill-rule:evenodd;"
points="5974,2706
6368,2706
6368,3494
5974,3494
5974,2706
" /> 
<polyline style="fill-rule:evenodd;"
points="5187,2706
5580,2706
5580,3494
5187,3494
5187,2706
" /> 
<polyline style="fill-rule:evenodd;"
points="12116,8966
11722,8966
11722,8572
12116,8572
12116,8966
" /> 
<polyline style="fill-rule:evenodd;"
points="12116,8179
11722,8179
11722,7785
12116,7785
12116,8179
" /> 
<polyline style="fill-rule:evenodd;"
points="11082,5108
11092,5110
11101,5112
11110,5115
11119,5119
11127,5124
11135,5130
11142,5137
11148,5144
11154,5152
11159,5160
11163,5169
11167,5178
11169,5187
11170,5197
11171,5206
11171,5462
11170,5472
11169,5481
11167,5491
11163,5500
11159,5508
11154,5517
11148,5525
11142,5532
11135,5538
11127,5544
11119,5549
11110,5553
11101,5556
11092,5559
11082,5560
11072,5561
10718,5561
10708,5560
10699,5559
10689,5556
10680,5553
10672,5549
10663,5544
10656,5538
10648,5532
10642,5525
10636,5517
10631,5508
10627,5500
10624,5491
10621,5481
10620,5472
10620,5462
10620,5206
10620,5197
10621,5187
10624,5178
10627,5169
10631,5160
10636,5152
10642,5144
10648,5137
10656,5130
10663,5124
10672,5119
10680,5115
10689,5112
10699,5110
10708,5108
10718,5108
11072,5108
11082,5108
" /> 
<polyline style="fill-rule:evenodd;"
points="11082,5915
11092,5917
11101,5919
11110,5922
11119,5926
11127,5931
11135,5937
11142,5944
11148,5951
11154,5959
11159,5967
11163,5976
11167,5985
11169,5994
11170,6004
11171,6013
11171,6269
11170,6279
11169,6288
11167,6298
11163,6307
11159,6316
11154,6324
11148,6332
11142,6339
11135,6345
11127,6351
11119,6356
11110,6360
11101,6363
11092,6366
11082,6367
11072,6368
10718,6368
10708,6367
10699,6366
10689,6363
10680,6360
10672,6356
10663,6351
10656,6345
10648,6339
10642,6332
10636,6324
10631,6316
10627,6307
10624,6298
10621,6288
10620,6279
10620,6269
10620,6013
10620,6004
10621,5994
10624,5985
10627,5976
10631,5967
10636,5959
10642,5951
10648,5944
10656,5937
10663,5931
10672,5926
10680,5922
10689,5919
10699,5917
10708,5915
10718,5915
11072,5915
11082,5915
" /> 
<polyline style="fill-rule:evenodd;"
points="7785,13809
7785,13415
8179,13415
8179,13809
7785,13809
" /> 
<polyline style="fill-rule:evenodd;"
points="29846,5276
29855,5277
29864,5279
29873,5282
29881,5286
29889,5291
29896,5296
29903,5302
29909,5309
29915,5317
29920,5325
29923,5333
29927,5341
29929,5350
29930,5359
29931,5369
29931,5556
29930,5565
29929,5574
29927,5583
29923,5591
29920,5600
29915,5608
29909,5615
29903,5622
29896,5628
29889,5633
29881,5638
29873,5642
29864,5645
29855,5647
29846,5649
29837,5649
29611,5649
29602,5649
29592,5647
29584,5645
29575,5642
29567,5638
29559,5633
29551,5628
29545,5622
29538,5615
29533,5608
29528,5600
29524,5591
29521,5583
29519,5574
29518,5565
29517,5556
29517,5369
29518,5359
29519,5350
29521,5341
29524,5333
29528,5325
29533,5317
29538,5309
29545,5302
29551,5296
29559,5291
29567,5286
29575,5282
29584,5279
29592,5277
29602,5276
29611,5275
29837,5275
29846,5276
" /> 
<polyline style="fill-rule:evenodd;"
points="30535,5276
30544,5277
30553,5279
30562,5282
30570,5286
30578,5291
30585,5296
30592,5302
30598,5309
30604,5317
30609,5325
30612,5333
30616,5341
30618,5350
30619,5359
30620,5369
30620,5556
30619,5565
30618,5574
30616,5583
30612,5591
30609,5600
30604,5608
30598,5615
30592,5622
30585,5628
30578,5633
30570,5638
30562,5642
30553,5645
30544,5647
30535,5649
30526,5649
30300,5649
30291,5649
30281,5647
30273,5645
30264,5642
30256,5638
30248,5633
30240,5628
30234,5622
30227,5615
30222,5608
30217,5600
30213,5591
30210,5583
30208,5574
30207,5565
30206,5556
30206,5369
30207,5359
30208,5350
30210,5341
30213,5333
30217,5325
30222,5317
30227,5309
30234,5302
30240,5296
30248,5291
30256,5286
30264,5282
30273,5279
30281,5277
30291,5276
30300,5275
30526,5275
30535,5276
" /> 
<polyline style="fill-rule:evenodd;"
points="29113,5187
29123,5188
29132,5191
29141,5194
29150,5198
29159,5203
29166,5209
29173,5215
29180,5222
29186,5230
29191,5239
29195,5247
29198,5256
29200,5266
29202,5275
29202,5285
29202,5639
29202,5649
29200,5658
29198,5668
29195,5677
29191,5686
29186,5694
29180,5702
29173,5709
29166,5715
29159,5721
29150,5726
29141,5730
29132,5733
29123,5736
29113,5737
29104,5738
28848,5738
28838,5737
28829,5736
28819,5733
28810,5730
28802,5726
28793,5721
28785,5715
28778,5709
28772,5702
28766,5694
28761,5686
28757,5677
28754,5668
28751,5658
28750,5649
28750,5639
28750,5285
28750,5275
28751,5266
28754,5256
28757,5247
28761,5239
28766,5230
28772,5222
28778,5215
28785,5209
28793,5203
28802,5198
28810,5194
28819,5191
28829,5188
28838,5187
28848,5187
29104,5187
29113,5187
" /> 
<polyline style="fill-rule:evenodd;"
points="28306,5187
28316,5188
28325,5191
28334,5194
28343,5198
28351,5203
28359,5209
28366,5215
28373,5222
28379,5230
28384,5239
28388,5247
28391,5256
28393,5266
28395,5275
28395,5285
28395,5639
28395,5649
28393,5658
28391,5668
28388,5677
28384,5686
28379,5694
28373,5702
28366,5709
28359,5715
28351,5721
28343,5726
28334,5730
28325,5733
28316,5736
28306,5737
28297,5738
28041,5738
28031,5737
28022,5736
28012,5733
28003,5730
27994,5726
27986,5721
27978,5715
27971,5709
27965,5702
27959,5694
27954,5686
27950,5677
27947,5668
27944,5658
27943,5649
27942,5639
27942,5285
27943,5275
27944,5266
27947,5256
27950,5247
27954,5239
27959,5230
27965,5222
27971,5215
27978,5209
27986,5203
27994,5198
28003,5194
28012,5191
28022,5188
28031,5187
28041,5187
28297,5187
28306,5187
" /> 
<polyline style="fill-rule:evenodd;"
points="1889,10649
1889,10118
2421,10118
2421,10649
1889,10649
" /> 
</g>
<g style="fill:#000000; fill-opacity:1.0; 
stroke:#000000; stroke-width:531.496; stroke-opacity:1; 
stroke-linecap:round; stroke-linejoin:round;">
</g>
<g style="fill:#000000; fill-opacity:0.0; 
stroke:#000000; stroke-width:531.496; stroke-opacity:1; 
stroke-linecap:round; stroke-linejoin:round;">
<path d="M2155 9596
L2155 9596
" />
</g>
<g style="fill:#000000; fill-opacity:0.0; 
stroke:#000000; stroke-width:0; stroke-opacity:1; 
stroke-linecap:round; stroke-linejoin:round;">
</g>
<g style="fill:#000000; fill-opacity:1.0; 
stroke:#000000; stroke-width:0; stroke-opacity:1; 
stroke-linecap:round; stroke-linejoin:round;">
<polyline style="fill-rule:evenodd;"
points="4862,6959
4871,6960
4880,6962
4890,6966
4898,6970
4907,6975
4914,6981
4921,6987
4928,6994
4934,7002
4939,7010
4943,7019
4946,7028
4948,7037
4950,7047
4950,7057
4950,7312
4950,7322
4948,7332
4946,7341
4943,7350
4939,7359
4934,7367
4928,7375
4921,7382
4914,7389
4907,7394
4898,7399
4890,7403
4880,7407
4871,7409
4862,7410
4852,7411
4498,7411
4488,7410
4478,7409
4469,7407
4460,7403
4451,7399
4443,7394
4435,7389
4428,7382
4421,7375
4416,7367
4411,7359
4407,7350
4403,7341
4401,7332
4400,7322
4399,7312
4399,7057
4400,7047
4401,7037
4403,7028
4407,7019
4411,7010
4416,7002
4421,6994
4428,6987
4435,6981
4443,6975
4451,6970
4460,6966
4469,6962
4478,6960
4488,6959
4498,6958
4852,6958
4862,6959
" /> 
<polyline style="fill-rule:evenodd;"
points="4862,7766
4871,7767
4880,7769
4890,7773
4898,7777
4907,7782
4914,7788
4921,7794
4928,7801
4934,7809
4939,7817
4943,7826
4946,7835
4948,7844
4950,7854
4950,7864
4950,8120
4950,8129
4948,8139
4946,8148
4943,8157
4939,8166
4934,8174
4928,8182
4921,8189
4914,8196
4907,8201
4898,8206
4890,8211
4880,8214
4871,8216
4862,8218
4852,8218
4498,8218
4488,8218
4478,8216
4469,8214
4460,8211
4451,8206
4443,8201
4435,8196
4428,8189
4421,8182
4416,8174
4411,8166
4407,8157
4403,8148
4401,8139
4400,8129
4399,8120
4399,7864
4400,7854
4401,7844
4403,7835
4407,7826
4411,7817
4416,7809
4421,7801
4428,7794
4435,7788
4443,7782
4451,7777
4460,7773
4469,7769
4478,7767
4488,7766
4498,7765
4852,7765
4862,7766
" /> 
<polyline style="fill-rule:evenodd;"
points="27893,14440
27893,14677
27283,14677
27283,14440
27893,14440
" /> 
<polyline style="fill-rule:evenodd;"
points="27893,13940
27893,14177
27283,14177
27283,13940
27893,13940
" /> 
<polyline style="fill-rule:evenodd;"
points="27893,13440
27893,13677
27283,13677
27283,13440
27893,13440
" /> 
<polyline style="fill-rule:evenodd;"
points="27893,12940
27893,13177
27283,13177
27283,12940
27893,12940
" /> 
<polyline style="fill-rule:evenodd;"
points="25767,12940
25767,13177
25157,13177
25157,12940
25767,12940
" /> 
<polyline style="fill-rule:evenodd;"
points="25767,13440
25767,13677
25157,13677
25157,13440
25767,13440
" /> 
<polyline style="fill-rule:evenodd;"
points="25767,13940
25767,14177
25157,14177
25157,13940
25767,13940
" /> 
<polyline style="fill-rule:evenodd;"
points="25767,14440
25767,14677
25157,14677
25157,14440
25767,14440
" /> 
<polyline style="fill-rule:evenodd;"
points="23720,4596
23729,4598
23739,4600
23748,4603
23757,4608
23765,4613
23773,4618
23780,4625
23786,4632
23792,4640
23797,4648
23801,4657
23804,4666
23807,4675
23808,4685
23809,4694
23809,5049
23808,5058
23807,5068
23804,5077
23801,5086
23797,5095
23792,5103
23786,5111
23780,5118
23773,5125
23765,5131
23757,5136
23748,5140
23739,5143
23729,5145
23720,5147
23710,5147
23454,5147
23445,5147
23435,5145
23426,5143
23417,5140
23408,5136
23400,5131
23392,5125
23385,5118
23378,5111
23372,5103
23367,5095
23363,5086
23360,5077
23358,5068
23356,5058
23356,5049
23356,4694
23356,4685
23358,4675
23360,4666
23363,4657
23367,4648
23372,4640
23378,4632
23385,4625
23392,4618
23400,4613
23408,4608
23417,4603
23426,4600
23435,4598
23445,4596
23454,4596
23710,4596
23720,4596
" /> 
<polyline style="fill-rule:evenodd;"
points="22913,4596
22922,4598
22932,4600
22941,4603
22950,4608
22958,4613
22966,4618
22973,4625
22979,4632
22985,4640
22990,4648
22994,4657
22997,4666
23000,4675
23001,4685
23001,4694
23001,5049
23001,5059
23000,5068
22997,5077
22994,5086
22990,5095
22985,5103
22979,5111
22973,5118
22966,5125
22958,5131
22950,5136
22941,5140
22932,5143
22922,5145
22913,5147
22903,5147
22647,5147
22637,5147
22628,5145
22618,5143
22609,5140
22601,5136
22592,5131
22585,5125
22577,5118
22571,5111
22565,5103
22560,5095
22556,5086
22553,5077
22551,5068
22549,5059
22549,5049
22549,4694
22549,4685
22551,4675
22553,4666
22556,4657
22560,4648
22565,4640
22571,4632
22577,4625
22585,4618
22592,4613
22601,4608
22609,4603
22618,4600
22628,4598
22637,4596
22647,4596
22903,4596
22913,4596
" /> 
<polyline style="fill-rule:evenodd;"
points="10521,10826
10521,11043
9891,11043
9891,10826
10521,10826
" /> 
<polyline style="fill-rule:evenodd;"
points="10521,10511
10521,10728
9891,10728
9891,10511
10521,10511
" /> 
<polyline style="fill-rule:evenodd;"
points="10521,10196
10521,10413
9891,10413
9891,10196
10521,10196
" /> 
<polyline style="fill-rule:evenodd;"
points="10521,9881
10521,10098
9891,10098
9891,9881
10521,9881
" /> 
<polyline style="fill-rule:evenodd;"
points="10521,9566
10521,9783
9891,9783
9891,9566
10521,9566
" /> 
<polyline style="fill-rule:evenodd;"
points="10521,9251
10521,9468
9891,9468
9891,9251
10521,9251
" /> 
<polyline style="fill-rule:evenodd;"
points="10521,8937
10521,9153
9891,9153
9891,8937
10521,8937
" /> 
<polyline style="fill-rule:evenodd;"
points="10521,8622
10521,8838
9891,8838
9891,8622
10521,8622
" /> 
<polyline style="fill-rule:evenodd;"
points="9527,7844
9744,7844
9744,8474
9527,8474
9527,7844
" /> 
<polyline style="fill-rule:evenodd;"
points="9212,7844
9429,7844
9429,8474
9212,8474
9212,7844
" /> 
<polyline style="fill-rule:evenodd;"
points="8897,7844
9114,7844
9114,8474
8897,8474
8897,7844
" /> 
<polyline style="fill-rule:evenodd;"
points="8582,7844
8799,7844
8799,8474
8582,8474
8582,7844
" /> 
<polyline style="fill-rule:evenodd;"
points="8267,7844
8484,7844
8484,8474
8267,8474
8267,7844
" /> 
<polyline style="fill-rule:evenodd;"
points="7952,7844
8169,7844
8169,8474
7952,8474
7952,7844
" /> 
<polyline style="fill-rule:evenodd;"
points="7637,7844
7854,7844
7854,8474
7637,8474
7637,7844
" /> 
<polyline style="fill-rule:evenodd;"
points="7322,7844
7539,7844
7539,8474
7322,8474
7322,7844
" /> 
<polyline style="fill-rule:evenodd;"
points="7175,8622
7175,8838
6545,8838
6545,8622
7175,8622
" /> 
<polyline style="fill-rule:evenodd;"
points="7175,8937
7175,9153
6545,9153
6545,8937
7175,8937
" /> 
<polyline style="fill-rule:evenodd;"
points="7175,9251
7175,9468
6545,9468
6545,9251
7175,9251
" /> 
<polyline style="fill-rule:evenodd;"
points="7175,9566
7175,9783
6545,9783
6545,9566
7175,9566
" /> 
<polyline style="fill-rule:evenodd;"
points="7175,9881
7175,10098
6545,10098
6545,9881
7175,9881
" /> 
<polyline style="fill-rule:evenodd;"
points="7175,10196
7175,10413
6545,10413
6545,10196
7175,10196
" /> 
<polyline style="fill-rule:evenodd;"
points="7175,10511
7175,10728
6545,10728
6545,10511
7175,10511
" /> 
<polyline style="fill-rule:evenodd;"
points="7175,10826
7175,11043
6545,11043
6545,10826
7175,10826
" /> 
<polyline style="fill-rule:evenodd;"
points="7322,11190
7539,11190
7539,11820
7322,11820
7322,11190
" /> 
<polyline style="fill-rule:evenodd;"
points="7637,11190
7854,11190
7854,11820
7637,11820
7637,11190
" /> 
<polyline style="fill-rule:evenodd;"
points="7952,11190
8169,11190
8169,11820
7952,11820
7952,11190
" /> 
<polyline style="fill-rule:evenodd;"
points="8267,11190
8484,11190
8484,11820
8267,11820
8267,11190
" /> 
<polyline style="fill-rule:evenodd;"
points="8582,11190
8799,11190
8799,11820
8582,11820
8582,11190
" /> 
<polyline style="fill-rule:evenodd;"
points="8897,11190
9114,11190
9114,11820
8897,11820
8897,11190
" /> 
<polyline style="fill-rule:evenodd;"
points="9212,11190
9429,11190
9429,11820
9212,11820
9212,11190
" /> 
<polyline style="fill-rule:evenodd;"
points="9527,11190
9744,11190
9744,11820
9527,11820
9527,11190
" /> 
<polyline style="fill-rule:evenodd;"
points="24616,4688
24616,4523
24966,4523
24966,4688
24616,4688
" /> 
<polyline style="fill-rule:evenodd;"
points="24616,4944
24616,4779
24966,4779
24966,4944
24616,4944
" /> 
<polyline style="fill-rule:evenodd;"
points="24616,5200
24616,5035
24966,5035
24966,5200
24616,5200
" /> 
<polyline style="fill-rule:evenodd;"
points="24616,5456
24616,5291
24966,5291
24966,5456
24616,5456
" /> 
<polyline style="fill-rule:evenodd;"
points="26273,5456
26273,5291
26624,5291
26624,5456
26273,5456
" /> 
<polyline style="fill-rule:evenodd;"
points="26273,5200
26273,5035
26624,5035
26624,5200
26273,5200
" /> 
<polyline style="fill-rule:evenodd;"
points="26273,4944
26273,4779
26624,4779
26624,4944
26273,4944
" /> 
<polyline style="fill-rule:evenodd;"
points="26273,4688
26273,4523
26624,4523
26624,4688
26273,4688
" /> 
<polyline style="fill-rule:evenodd;"
points="25289,5360
25289,4620
25950,4620
25950,5360
25289,5360
" /> 
<polyline style="fill-rule:evenodd;"
points="26673,3337
26682,3338
26691,3340
26701,3344
26709,3348
26718,3353
26725,3358
26732,3365
26739,3372
26745,3380
26750,3388
26754,3397
26757,3406
26759,3415
26761,3425
26761,3435
26761,3789
26761,3799
26759,3808
26757,3817
26754,3827
26750,3835
26745,3844
26739,3851
26732,3858
26725,3865
26718,3871
26709,3876
26701,3880
26691,3883
26682,3885
26673,3887
26663,3887
26407,3887
26397,3887
26388,3885
26378,3883
26369,3880
26361,3876
26352,3871
26345,3865
26337,3858
26331,3851
26325,3844
26320,3835
26316,3827
26313,3817
26310,3808
26309,3799
26309,3789
26309,3435
26309,3425
26310,3415
26313,3406
26316,3397
26320,3388
26325,3380
26331,3372
26337,3365
26345,3358
26352,3353
26361,3348
26369,3344
26378,3340
26388,3338
26397,3337
26407,3336
26663,3336
26673,3337
" /> 
<polyline style="fill-rule:evenodd;"
points="25866,3337
25875,3338
25884,3340
25894,3344
25902,3348
25911,3353
25918,3358
25925,3365
25932,3372
25938,3380
25943,3388
25947,3397
25950,3406
25952,3415
25954,3425
25954,3434
25954,3789
25954,3799
25952,3808
25950,3818
25947,3827
25943,3835
25938,3844
25932,3851
25925,3859
25918,3865
25911,3871
25902,3876
25894,3880
25884,3883
25875,3885
25866,3887
25856,3887
25600,3887
25590,3887
25581,3885
25571,3883
25562,3880
25553,3876
25545,3871
25537,3865
25530,3859
25524,3851
25518,3844
25513,3835
25509,3827
25506,3818
25503,3808
25502,3799
25501,3789
25501,3434
25502,3425
25503,3415
25506,3406
25509,3397
25513,3388
25518,3380
25524,3372
25530,3365
25537,3358
25545,3353
25553,3348
25562,3344
25571,3340
25581,3338
25590,3337
25600,3336
25856,3336
25866,3337
" /> 
<polyline style="fill-rule:evenodd;"
points="28306,6191
28316,6192
28325,6195
28334,6198
28343,6202
28351,6207
28359,6213
28366,6219
28373,6226
28379,6234
28384,6242
28388,6251
28391,6260
28393,6270
28395,6279
28395,6289
28395,6643
28395,6653
28393,6662
28391,6672
28388,6681
28384,6690
28379,6698
28373,6706
28366,6713
28359,6719
28351,6725
28343,6730
28334,6734
28325,6737
28316,6740
28306,6741
28297,6742
28041,6742
28031,6741
28022,6740
28012,6737
28003,6734
27994,6730
27986,6725
27978,6719
27971,6713
27965,6706
27959,6698
27954,6690
27950,6681
27947,6672
27944,6662
27943,6653
27942,6643
27942,6289
27943,6279
27944,6270
27947,6260
27950,6251
27954,6242
27959,6234
27965,6226
27971,6219
27978,6213
27986,6207
27994,6202
28003,6198
28012,6195
28022,6192
28031,6191
28041,6190
28297,6190
28306,6191
" /> 
<polyline style="fill-rule:evenodd;"
points="29113,6191
29123,6192
29132,6195
29141,6198
29150,6202
29159,6207
29166,6213
29173,6219
29180,6226
29186,6234
29191,6242
29195,6251
29198,6260
29200,6270
29202,6279
29202,6289
29202,6643
29202,6653
29200,6662
29198,6672
29195,6681
29191,6690
29186,6698
29180,6706
29173,6713
29166,6719
29159,6725
29150,6730
29141,6734
29132,6737
29123,6740
29113,6741
29104,6742
28848,6742
28838,6741
28829,6740
28819,6737
28810,6734
28802,6730
28793,6725
28785,6719
28778,6713
28772,6706
28766,6698
28761,6690
28757,6681
28754,6672
28751,6662
28750,6653
28750,6643
28750,6289
28750,6279
28751,6270
28754,6260
28757,6251
28761,6242
28766,6234
28772,6226
28778,6219
28785,6213
28793,6207
28802,6202
28810,6198
28819,6195
28829,6192
28838,6191
28848,6190
29104,6190
29113,6191
" /> 
<polyline style="fill-rule:evenodd;"
points="29153,16407
29162,16409
29172,16411
29181,16414
29190,16419
29198,16424
29206,16429
29213,16436
29219,16443
29225,16451
29230,16459
29234,16468
29237,16477
29240,16486
29241,16496
29242,16505
29242,16860
29241,16869
29240,16879
29237,16888
29234,16897
29230,16906
29225,16914
29219,16922
29213,16929
29206,16936
29198,16942
29190,16947
29181,16951
29172,16954
29162,16956
29153,16958
29143,16958
28887,16958
28878,16958
28868,16956
28859,16954
28850,16951
28841,16947
28833,16942
28825,16936
28818,16929
28811,16922
28805,16914
28800,16906
28796,16897
28793,16888
28791,16879
28789,16869
28789,16860
28789,16505
28789,16496
28791,16486
28793,16477
28796,16468
28800,16459
28805,16451
28811,16443
28818,16436
28825,16429
28833,16424
28841,16419
28850,16414
28859,16411
28868,16409
28878,16407
28887,16407
29143,16407
29153,16407
" /> 
<polyline style="fill-rule:evenodd;"
points="28346,16407
28355,16409
28365,16411
28374,16414
28383,16419
28391,16424
28399,16429
28406,16436
28412,16443
28418,16451
28423,16459
28427,16468
28430,16477
28433,16486
28434,16496
28435,16505
28435,16860
28434,16869
28433,16879
28430,16888
28427,16897
28423,16906
28418,16914
28412,16922
28406,16929
28399,16936
28391,16942
28383,16947
28374,16951
28365,16954
28355,16956
28346,16958
28336,16958
28080,16958
28071,16958
28061,16956
28052,16954
28043,16951
28034,16947
28026,16942
28018,16936
28011,16929
28004,16922
27998,16914
27993,16906
27989,16897
27986,16888
27984,16879
27982,16869
27982,16860
27982,16505
27982,16496
27984,16486
27986,16477
27989,16468
27993,16459
27998,16451
28004,16443
28011,16436
28018,16429
28026,16424
28034,16419
28043,16414
28052,16411
28061,16409
28071,16407
28080,16407
28336,16407
28346,16407
" /> 
<polyline style="fill-rule:evenodd;"
points="30728,15384
30737,15385
30747,15388
30756,15391
30764,15395
30773,15400
30780,15406
30788,15412
30794,15419
30800,15427
30805,15435
30809,15444
30812,15453
30815,15463
30816,15472
30816,15482
30816,15836
30816,15846
30815,15855
30812,15865
30809,15874
30805,15883
30800,15891
30794,15899
30788,15906
30780,15912
30773,15918
30764,15923
30756,15927
30747,15930
30737,15933
30728,15934
30718,15935
30462,15935
30452,15934
30443,15933
30434,15930
30424,15927
30416,15923
30407,15918
30400,15912
30393,15906
30386,15899
30380,15891
30375,15883
30371,15874
30368,15865
30366,15855
30364,15846
30364,15836
30364,15482
30364,15472
30366,15463
30368,15453
30371,15444
30375,15435
30380,15427
30386,15419
30393,15412
30400,15406
30407,15400
30416,15395
30424,15391
30434,15388
30443,15385
30452,15384
30462,15383
30718,15383
30728,15384
" /> 
<polyline style="fill-rule:evenodd;"
points="29921,15384
29930,15385
29939,15388
29949,15391
29957,15395
29966,15400
29973,15406
29981,15412
29987,15419
29993,15427
29998,15435
30002,15444
30005,15453
30007,15463
30009,15472
30009,15482
30009,15836
30009,15846
30007,15855
30005,15865
30002,15874
29998,15883
29993,15891
29987,15899
29981,15906
29973,15912
29966,15918
29957,15923
29949,15927
29939,15930
29930,15933
29921,15934
29911,15935
29655,15935
29645,15934
29636,15933
29626,15930
29617,15927
29609,15923
29600,15918
29593,15912
29585,15906
29579,15899
29573,15891
29568,15883
29564,15874
29561,15865
29558,15855
29557,15846
29557,15836
29557,15482
29557,15472
29558,15463
29561,15453
29564,15444
29568,15435
29573,15427
29579,15419
29585,15412
29593,15406
29600,15400
29609,15395
29617,15391
29626,15388
29636,15385
29645,15384
29655,15383
29911,15383
29921,15384
" /> 
<circle cx="30895.7" cy="18454.7" r="866.142" /> 
</g>
<g style="fill:#000000; fill-opacity:1.0; 
stroke:#000000; stroke-width:39.3701; stroke-opacity:1; 
stroke-linecap:round; stroke-linejoin:round;">
</g>
<g style="fill:#000000; fill-opacity:1.0; 
stroke:#000000; stroke-width:0; stroke-opacity:1; 
stroke-linecap:round; stroke-linejoin:round;">
<circle cx="30895.7" cy="1525.59" r="866.142" /> 
</g>
<g style="fill:#000000; fill-opacity:1.0; 
stroke:#000000; stroke-width:39.3701; stroke-opacity:1; 
stroke-linecap:round; stroke-linejoin:round;">
</g>
<g style="fill:#000000; fill-opacity:1.0; 
stroke:#000000; stroke-width:0; stroke-opacity:1; 
stroke-linecap:round; stroke-linejoin:round;">
<circle cx="2175.98" cy="1525.59" r="866.142" /> 
</g>
<g style="fill:#000000; fill-opacity:1.0; 
stroke:#000000; stroke-width:39.3701; stroke-opacity:1; 
stroke-linecap:round; stroke-linejoin:round;">
</g>
<g style="fill:#000000; fill-opacity:1.0; 
stroke:#000000; stroke-width:0; stroke-opacity:1; 
stroke-linecap:round; stroke-linejoin:round;">
<polyline style="fill-rule:evenodd;"
points="29113,4242
29123,4244
29132,4246
29141,4249
29150,4253
29159,4258
29166,4264
29173,4270
29180,4278
29186,4285
29191,4294
29195,4302
29198,4311
29200,4321
29202,4330
29202,4340
29202,4694
29202,4704
29200,4714
29198,4723
29195,4732
29191,4741
29186,4749
29180,4757
29173,4764
29166,4770
29159,4776
29150,4781
29141,4785
29132,4789
29123,4791
29113,4792
29104,4793
28848,4793
28838,4792
28829,4791
28819,4789
28810,4785
28802,4781
28793,4776
28785,4770
28778,4764
28772,4757
28766,4749
28761,4741
28757,4732
28754,4723
28751,4714
28750,4704
28750,4694
28750,4340
28750,4330
28751,4321
28754,4311
28757,4302
28761,4294
28766,4285
28772,4278
28778,4270
28785,4264
28793,4258
28802,4253
28810,4249
28819,4246
28829,4244
28838,4242
28848,4242
29104,4242
29113,4242
" /> 
<polyline style="fill-rule:evenodd;"
points="28306,4242
28316,4244
28325,4246
28334,4249
28343,4253
28351,4258
28359,4264
28366,4270
28373,4278
28379,4285
28384,4294
28388,4302
28391,4311
28393,4321
28395,4330
28395,4340
28395,4694
28395,4704
28393,4714
28391,4723
28388,4732
28384,4741
28379,4749
28373,4757
28366,4764
28359,4770
28351,4776
28343,4781
28334,4785
28325,4789
28316,4791
28306,4792
28297,4793
28041,4793
28031,4792
28022,4791
28012,4789
28003,4785
27994,4781
27986,4776
27978,4770
27971,4764
27965,4757
27959,4749
27954,4741
27950,4732
27947,4723
27944,4714
27943,4704
27942,4694
27942,4340
27943,4330
27944,4321
27947,4311
27950,4302
27954,4294
27959,4285
27965,4278
27971,4270
27978,4264
27986,4258
27994,4253
28003,4249
28012,4246
28022,4244
28031,4242
28041,4242
28297,4242
28306,4242
" /> 
<polyline style="fill-rule:evenodd;"
points="30098,9931
30107,9932
30117,9935
30126,9938
30134,9942
30143,9947
30151,9953
30158,9959
30164,9967
30170,9974
30175,9983
30179,9991
30182,10000
30185,10010
30186,10019
30187,10029
30187,10285
30186,10295
30185,10304
30182,10314
30179,10323
30175,10331
30170,10340
30164,10347
30158,10355
30151,10361
30143,10367
30134,10372
30126,10376
30117,10379
30107,10381
30098,10383
30088,10383
29734,10383
29724,10383
29715,10381
29705,10379
29696,10376
29687,10372
29679,10367
29671,10361
29664,10355
29658,10347
29652,10340
29647,10331
29643,10323
29640,10314
29637,10304
29636,10295
29635,10285
29635,10029
29636,10019
29637,10010
29640,10000
29643,9991
29647,9983
29652,9974
29658,9967
29664,9959
29671,9953
29679,9947
29687,9942
29696,9938
29705,9935
29715,9932
29724,9931
29734,9931
30088,9931
30098,9931
" /> 
<polyline style="fill-rule:evenodd;"
points="30098,9124
30107,9125
30117,9128
30126,9131
30134,9135
30143,9140
30151,9146
30158,9152
30164,9160
30170,9167
30175,9176
30179,9184
30182,9193
30185,9203
30186,9212
30187,9222
30187,9478
30186,9487
30185,9497
30182,9506
30179,9516
30175,9524
30170,9533
30164,9540
30158,9547
30151,9554
30143,9560
30134,9565
30126,9569
30117,9572
30107,9574
30098,9576
30088,9576
29734,9576
29724,9576
29715,9574
29705,9572
29696,9569
29687,9565
29679,9560
29671,9554
29664,9547
29658,9540
29652,9533
29647,9524
29643,9516
29640,9506
29637,9497
29636,9487
29635,9478
29635,9222
29636,9212
29637,9203
29640,9193
29643,9184
29647,9176
29652,9167
29658,9160
29664,9152
29671,9146
29679,9140
29687,9135
29696,9131
29705,9128
29715,9125
29724,9124
29734,9124
30088,9124
30098,9124
" /> 
<polyline style="fill-rule:evenodd;"
points="27775,10482
27784,10484
27794,10486
27803,10489
27812,10493
27820,10498
27828,10504
27835,10511
27841,10518
27847,10526
27852,10534
27856,10543
27859,10552
27862,10561
27863,10571
27864,10580
27864,10836
27863,10846
27862,10855
27859,10865
27856,10874
27852,10883
27847,10891
27841,10899
27835,10906
27828,10912
27820,10918
27812,10923
27803,10927
27794,10930
27784,10933
27775,10934
27765,10935
27411,10935
27401,10934
27392,10933
27382,10930
27373,10927
27365,10923
27356,10918
27348,10912
27341,10906
27335,10899
27329,10891
27324,10883
27320,10874
27317,10865
27314,10855
27313,10846
27312,10836
27312,10580
27313,10571
27314,10561
27317,10552
27320,10543
27324,10534
27329,10526
27335,10518
27341,10511
27348,10504
27356,10498
27365,10493
27373,10489
27382,10486
27392,10484
27401,10482
27411,10482
27765,10482
27775,10482
" /> 
<polyline style="fill-rule:evenodd;"
points="27775,9675
27784,9677
27794,9679
27803,9682
27812,9686
27820,9691
27828,9697
27835,9704
27841,9711
27847,9718
27852,9727
27856,9735
27859,9745
27862,9754
27863,9763
27864,9773
27864,10029
27863,10039
27862,10048
27859,10058
27856,10067
27852,10075
27847,10084
27841,10091
27835,10099
27828,10105
27820,10111
27812,10116
27803,10120
27794,10123
27784,10126
27775,10127
27765,10127
27411,10127
27401,10127
27392,10126
27382,10123
27373,10120
27365,10116
27356,10111
27348,10105
27341,10099
27335,10091
27329,10084
27324,10075
27320,10067
27317,10058
27314,10048
27313,10039
27312,10029
27312,9773
27313,9763
27314,9754
27317,9745
27320,9735
27324,9727
27329,9718
27335,9711
27341,9704
27348,9697
27356,9691
27365,9686
27373,9682
27382,9679
27392,9677
27401,9675
27411,9675
27765,9675
27775,9675
" /> 
<polyline style="fill-rule:evenodd;"
points="25649,15581
25658,15582
25668,15584
25677,15588
25686,15592
25694,15597
25702,15603
25709,15609
25715,15616
25721,15624
25726,15632
25730,15641
25733,15650
25736,15659
25737,15669
25738,15679
25738,15935
25737,15944
25736,15954
25733,15963
25730,15972
25726,15981
25721,15989
25715,15997
25709,16004
25702,16011
25694,16016
25686,16021
25677,16025
25668,16029
25658,16031
25649,16032
25639,16033
25285,16033
25275,16032
25266,16031
25256,16029
25247,16025
25239,16021
25230,16016
25222,16011
25215,16004
25209,15997
25203,15989
25198,15981
25194,15972
25191,15963
25188,15954
25187,15944
25187,15935
25187,15679
25187,15669
25188,15659
25191,15650
25194,15641
25198,15632
25203,15624
25209,15616
25215,15609
25222,15603
25230,15597
25239,15592
25247,15588
25256,15584
25266,15582
25275,15581
25285,15580
25639,15580
25649,15581
" /> 
<polyline style="fill-rule:evenodd;"
points="25649,16388
25658,16389
25668,16392
25677,16395
25686,16399
25694,16404
25702,16410
25709,16416
25715,16423
25721,16431
25726,16439
25730,16448
25733,16457
25736,16467
25737,16476
25738,16486
25738,16742
25737,16751
25736,16761
25733,16770
25730,16779
25726,16788
25721,16796
25715,16804
25709,16811
25702,16818
25694,16823
25686,16828
25677,16833
25668,16836
25658,16838
25649,16840
25639,16840
25285,16840
25275,16840
25266,16838
25256,16836
25247,16833
25239,16828
25230,16823
25222,16818
25215,16811
25209,16804
25203,16796
25198,16788
25194,16779
25191,16770
25188,16761
25187,16751
25187,16742
25187,16486
25187,16476
25188,16467
25191,16457
25194,16448
25198,16439
25203,16431
25209,16423
25215,16416
25222,16410
25230,16404
25239,16399
25247,16395
25256,16392
25266,16389
25275,16388
25285,16387
25639,16387
25649,16388
" /> 
<polyline style="fill-rule:evenodd;"
points="29921,13809
29930,13810
29939,13813
29949,13816
29957,13820
29966,13825
29973,13831
29981,13837
29987,13845
29993,13852
29998,13861
30002,13869
30005,13878
30007,13888
30009,13897
30009,13907
30009,14261
30009,14271
30007,14281
30005,14290
30002,14299
29998,14308
29993,14316
29987,14324
29981,14331
29973,14337
29966,14343
29957,14348
29949,14352
29939,14355
29930,14358
29921,14359
29911,14360
29655,14360
29645,14359
29636,14358
29626,14355
29617,14352
29609,14348
29600,14343
29593,14337
29585,14331
29579,14324
29573,14316
29568,14308
29564,14299
29561,14290
29558,14281
29557,14271
29557,14261
29557,13907
29557,13897
29558,13888
29561,13878
29564,13869
29568,13861
29573,13852
29579,13845
29585,13837
29593,13831
29600,13825
29609,13820
29617,13816
29626,13813
29636,13810
29645,13809
29655,13809
29911,13809
29921,13809
" /> 
<polyline style="fill-rule:evenodd;"
points="30728,13809
30737,13810
30747,13813
30756,13816
30764,13820
30773,13825
30780,13831
30788,13837
30794,13845
30800,13852
30805,13861
30809,13869
30812,13878
30815,13888
30816,13897
30816,13907
30816,14261
30816,14271
30815,14281
30812,14290
30809,14299
30805,14308
30800,14316
30794,14324
30788,14331
30780,14337
30773,14343
30764,14348
30756,14352
30747,14355
30737,14358
30728,14359
30718,14360
30462,14360
30452,14359
30443,14358
30434,14355
30424,14352
30416,14348
30407,14343
30400,14337
30393,14331
30386,14324
30380,14316
30375,14308
30371,14299
30368,14290
30366,14281
30364,14271
30364,14261
30364,13907
30364,13897
30366,13888
30368,13878
30371,13869
30375,13861
30380,13852
30386,13845
30393,13837
30400,13831
30407,13825
30416,13820
30424,13816
30434,13813
30443,13810
30452,13809
30462,13809
30718,13809
30728,13809
" /> 
<polyline style="fill-rule:evenodd;"
points="9822,5915
9832,5917
9841,5919
9850,5922
9859,5926
9867,5931
9875,5937
9882,5944
9889,5951
9894,5959
9899,5967
9903,5976
9907,5985
9909,5994
9910,6004
9911,6013
9911,6269
9910,6279
9909,6288
9907,6298
9903,6307
9899,6316
9894,6324
9889,6332
9882,6339
9875,6345
9867,6351
9859,6356
9850,6360
9841,6363
9832,6366
9822,6367
9812,6368
9458,6368
9449,6367
9439,6366
9430,6363
9420,6360
9412,6356
9403,6351
9396,6345
9389,6339
9382,6332
9376,6324
9371,6316
9367,6307
9364,6298
9362,6288
9360,6279
9360,6269
9360,6013
9360,6004
9362,5994
9364,5985
9367,5976
9371,5967
9376,5959
9382,5951
9389,5944
9396,5937
9403,5931
9412,5926
9420,5922
9430,5919
9439,5917
9449,5915
9458,5915
9812,5915
9822,5915
" /> 
<polyline style="fill-rule:evenodd;"
points="9822,5108
9832,5110
9841,5112
9850,5115
9859,5119
9867,5124
9875,5130
9882,5137
9889,5144
9894,5152
9899,5160
9903,5169
9907,5178
9909,5187
9910,5197
9911,5206
9911,5462
9910,5472
9909,5481
9907,5491
9903,5500
9899,5508
9894,5517
9889,5525
9882,5532
9875,5538
9867,5544
9859,5549
9850,5553
9841,5556
9832,5559
9822,5560
9812,5561
9458,5561
9449,5560
9439,5559
9430,5556
9420,5553
9412,5549
9403,5544
9396,5538
9389,5532
9382,5525
9376,5517
9371,5508
9367,5500
9364,5491
9362,5481
9360,5472
9360,5462
9360,5206
9360,5197
9362,5187
9364,5178
9367,5169
9371,5160
9376,5152
9382,5144
9389,5137
9396,5130
9403,5124
9412,5119
9420,5115
9430,5112
9439,5110
9449,5108
9458,5108
9812,5108
9822,5108
" /> 
<polyline style="fill-rule:evenodd;"
points="8031,14321
8040,14322
8050,14325
8059,14328
8068,14332
8076,14337
8084,14343
8091,14349
8097,14356
8103,14364
8108,14372
8112,14381
8115,14390
8118,14400
8119,14409
8120,14419
8120,14773
8119,14783
8118,14792
8115,14802
8112,14811
8108,14820
8103,14828
8097,14836
8091,14843
8084,14849
8076,14855
8068,14860
8059,14864
8050,14867
8040,14870
8031,14871
8021,14872
7765,14872
7756,14871
7746,14870
7737,14867
7728,14864
7719,14860
7711,14855
7703,14849
7696,14843
7689,14836
7683,14828
7678,14820
7674,14811
7671,14802
7669,14792
7667,14783
7667,14773
7667,14419
7667,14409
7669,14400
7671,14390
7674,14381
7678,14372
7683,14364
7689,14356
7696,14349
7703,14343
7711,14337
7719,14332
7728,14328
7737,14325
7746,14322
7756,14321
7765,14320
8021,14320
8031,14321
" /> 
<polyline style="fill-rule:evenodd;"
points="8838,14321
8847,14322
8857,14325
8866,14328
8875,14332
8883,14337
8891,14343
8898,14349
8904,14356
8910,14364
8915,14372
8919,14381
8922,14390
8925,14400
8926,14409
8927,14419
8927,14773
8926,14783
8925,14792
8922,14802
8919,14811
8915,14820
8910,14828
8904,14836
8898,14843
8891,14849
8883,14855
8875,14860
8866,14864
8857,14867
8847,14870
8838,14871
8828,14872
8572,14872
8563,14871
8553,14870
8544,14867
8535,14864
8526,14860
8518,14855
8510,14849
8503,14843
8496,14836
8490,14828
8486,14820
8481,14811
8478,14802
8476,14792
8474,14783
8474,14773
8474,14419
8474,14409
8476,14400
8478,14390
8481,14381
8486,14372
8490,14364
8496,14356
8503,14349
8510,14343
8518,14337
8526,14332
8535,14328
8544,14325
8553,14322
8563,14321
8572,14320
8828,14320
8838,14321
" /> 
<polyline style="fill-rule:evenodd;"
points="11358,13612
11367,13614
11376,13616
11386,13619
11394,13623
11403,13628
11410,13634
11418,13641
11424,13648
11430,13655
11435,13664
11439,13672
11442,13682
11444,13691
11446,13700
11446,13710
11446,13966
11446,13976
11444,13985
11442,13995
11439,14004
11435,14012
11430,14021
11424,14028
11418,14036
11410,14042
11403,14048
11394,14053
11386,14057
11376,14060
11367,14063
11358,14064
11348,14064
10994,14064
10984,14064
10974,14063
10965,14060
10956,14057
10947,14053
10939,14048
10931,14042
10924,14036
10918,14028
10912,14021
10907,14012
10903,14004
10899,13995
10897,13985
10896,13976
10895,13966
10895,13710
10896,13700
10897,13691
10899,13682
10903,13672
10907,13664
10912,13655
10918,13648
10924,13641
10931,13634
10939,13628
10947,13623
10956,13619
10965,13616
10974,13614
10984,13612
10994,13612
11348,13612
11358,13612
" /> 
<polyline style="fill-rule:evenodd;"
points="11358,14419
11367,14421
11376,14423
11386,14426
11394,14430
11403,14435
11410,14441
11418,14448
11424,14455
11430,14463
11435,14471
11439,14480
11442,14489
11444,14498
11446,14508
11446,14517
11446,14773
11446,14783
11444,14792
11442,14802
11439,14811
11435,14820
11430,14828
11424,14836
11418,14843
11410,14849
11403,14855
11394,14860
11386,14864
11376,14867
11367,14870
11358,14871
11348,14872
10994,14872
10984,14871
10974,14870
10965,14867
10956,14864
10947,14860
10939,14855
10931,14849
10924,14843
10918,14836
10912,14828
10907,14820
10903,14811
10899,14802
10897,14792
10896,14783
10895,14773
10895,14517
10896,14508
10897,14498
10899,14489
10903,14480
10907,14471
10912,14463
10918,14455
10924,14448
10931,14441
10939,14435
10947,14430
10956,14426
10965,14423
10974,14421
10984,14419
10994,14419
11348,14419
11358,14419
" /> 
<polyline style="fill-rule:evenodd;"
points="30575,4331
30584,4332
30593,4334
30601,4337
30610,4341
30617,4346
30625,4351
30632,4358
30638,4364
30643,4372
30648,4380
30652,4388
30655,4397
30657,4405
30658,4415
30659,4424
30659,4611
30658,4620
30657,4629
30655,4638
30652,4647
30648,4655
30643,4663
30638,4670
30632,4677
30625,4683
30617,4688
30610,4693
30601,4697
30593,4700
30584,4702
30575,4704
30565,4704
30339,4704
30330,4704
30321,4702
30312,4700
30303,4697
30295,4693
30287,4688
30280,4683
30273,4677
30267,4670
30261,4663
30257,4655
30253,4647
30250,4638
30247,4629
30246,4620
30246,4611
30246,4424
30246,4415
30247,4405
30250,4397
30253,4388
30257,4380
30261,4372
30267,4364
30273,4358
30280,4351
30287,4346
30295,4341
30303,4337
30312,4334
30321,4332
30330,4331
30339,4330
30565,4330
30575,4331
" /> 
<polyline style="fill-rule:evenodd;"
points="29886,4331
29895,4332
29904,4334
29912,4337
29921,4341
29928,4346
29936,4351
29943,4358
29949,4364
29954,4372
29959,4380
29963,4388
29966,4397
29968,4405
29970,4415
29970,4424
29970,4611
29970,4620
29968,4629
29966,4638
29963,4647
29959,4655
29954,4663
29949,4670
29943,4677
29936,4683
29928,4688
29921,4693
29912,4697
29904,4700
29895,4702
29886,4704
29876,4704
29650,4704
29641,4704
29632,4702
29623,4700
29614,4697
29606,4693
29598,4688
29591,4683
29584,4677
29578,4670
29572,4663
29568,4655
29564,4647
29561,4638
29558,4629
29557,4620
29557,4611
29557,4424
29557,4415
29558,4405
29561,4397
29564,4388
29568,4380
29572,4372
29578,4364
29584,4358
29591,4351
29598,4346
29606,4341
29614,4337
29623,4334
29632,4332
29641,4331
29650,4330
29876,4330
29886,4331
" /> 
<circle cx="2155.51" cy="18454.7" r="866.142" /> 
</g>
<g style="fill:#000000; fill-opacity:1.0; 
stroke:#000000; stroke-width:39.3701; stroke-opacity:1; 
stroke-linecap:round; stroke-linejoin:round;">
</g>
<g style="fill:#000000; fill-opacity:1.0; 
stroke:#000000; stroke-width:0; stroke-opacity:1; 
stroke-linecap:round; stroke-linejoin:round;">
<polyline style="fill-rule:evenodd;"
points="9753,13415
9753,13809
9360,13809
9360,13415
9753,13415
" /> 
<polyline style="fill-rule:evenodd;"
points="8966,13415
8966,13809
8572,13809
8572,13415
8966,13415
" /> 
<polyline style="fill-rule:evenodd;"
points="12509,1407
12509,1643
11998,1643
11998,1407
12509,1407
" /> 
<polyline style="fill-rule:evenodd;"
points="13336,1033
13336,1269
12824,1269
12824,1033
13336,1033
" /> 
<polyline style="fill-rule:evenodd;"
points="13336,1781
13336,2017
12824,2017
12824,1781
13336,1781
" /> 
<circle cx="10895.7" cy="4360.24" r="275.591" /> 
</g>
<g style="fill:#000000; fill-opacity:1.0; 
stroke:#000000; stroke-width:39.3701; stroke-opacity:1; 
stroke-linecap:round; stroke-linejoin:round;">
</g>
<g style="fill:#000000; fill-opacity:1.0; 
stroke:#000000; stroke-width:0; stroke-opacity:1; 
stroke-linecap:round; stroke-linejoin:round;">
<circle cx="10895.7" cy="2549.21" r="275.591" /> 
</g>
<g style="fill:#000000; fill-opacity:1.0; 
stroke:#000000; stroke-width:39.3701; stroke-opacity:1; 
stroke-linecap:round; stroke-linejoin:round;">
</g>
<g style="fill:#000000; fill-opacity:1.0; 
stroke:#000000; stroke-width:0; stroke-opacity:1; 
stroke-linecap:round; stroke-linejoin:round;">
<circle cx="26446.9" cy="6486.22" r="275.591" /> 
</g>
<g style="fill:#000000; fill-opacity:1.0; 
stroke:#000000; stroke-width:39.3701; stroke-opacity:1; 
stroke-linecap:round; stroke-linejoin:round;">
</g>
<g style="fill:#000000; fill-opacity:1.0; 
stroke:#000000; stroke-width:0; stroke-opacity:1; 
stroke-linecap:round; stroke-linejoin:round;">
<circle cx="24320.9" cy="13297.2" r="275.591" /> 
</g>
<g style="fill:#000000; fill-opacity:1.0; 
stroke:#000000; stroke-width:39.3701; stroke-opacity:1; 
stroke-linecap:round; stroke-linejoin:round;">
</g>
<g style="fill:#000000; fill-opacity:1.0; 
stroke:#000000; stroke-width:0; stroke-opacity:1; 
stroke-linecap:round; stroke-linejoin:round;">
<circle cx="11919.3" cy="9675.2" r="275.591" /> 
</g>
<g style="fill:#000000; fill-opacity:1.0; 
stroke:#000000; stroke-width:39.3701; stroke-opacity:1; 
stroke-linecap:round; stroke-linejoin:round;">
</g>
<g style="fill:#000000; fill-opacity:1.0; 
stroke:#000000; stroke-width:0; stroke-opacity:1; 
stroke-linecap:round; stroke-linejoin:round;">
<circle cx="4084.65" cy="5895.67" r="275.591" /> 
</g>
<g style="fill:#000000; fill-opacity:1.0; 
stroke:#000000; stroke-width:39.3701; stroke-opacity:1; 
stroke-linecap:round; stroke-linejoin:round;">
</g>
<g style="fill:#000000; fill-opacity:1.0; 
stroke:#000000; stroke-width:0; stroke-opacity:1; 
stroke-linecap:round; stroke-linejoin:round;">
<circle cx="4950.79" cy="15383.9" r="275.591" /> 
</g>
<g style="fill:#000000; fill-opacity:1.0; 
stroke:#000000; stroke-width:39.3701; stroke-opacity:1; 
stroke-linecap:round; stroke-linejoin:round;">
</g>
<g style="fill:#000000; fill-opacity:1.0; 
stroke:#000000; stroke-width:0; stroke-opacity:1; 
stroke-linecap:round; stroke-linejoin:round;">
<circle cx="3690.95" cy="8218.5" r="275.591" /> 
</g>
<g style="fill:#000000; fill-opacity:1.0; 
stroke:#000000; stroke-width:39.3701; stroke-opacity:1; 
stroke-linecap:round; stroke-linejoin:round;">
</g>
<g style="fill:#000000; fill-opacity:1.0; 
stroke:#000000; stroke-width:0; stroke-opacity:1; 
stroke-linecap:round; stroke-linejoin:round;">
<circle cx="24793.3" cy="6486.22" r="275.591" /> 
</g>
<g style="fill:#000000; fill-opacity:1.0; 
stroke:#000000; stroke-width:39.3701; stroke-opacity:1; 
stroke-linecap:round; stroke-linejoin:round;">
</g>
<g style="fill:#000000; fill-opacity:1.0; 
stroke:#000000; stroke-width:0; stroke-opacity:1; 
stroke-linecap:round; stroke-linejoin:round;">
<circle cx="28297.2" cy="3612.21" r="275.591" /> 
</g>
<g style="fill:#000000; fill-opacity:1.0; 
stroke:#000000; stroke-width:39.3701; stroke-opacity:1; 
stroke-linecap:round; stroke-linejoin:round;">
</g>
<g style="fill:#000000; fill-opacity:1.0; 
stroke:#000000; stroke-width:0; stroke-opacity:1; 
stroke-linecap:round; stroke-linejoin:round;">
<circle cx="6171.26" cy="12628" r="275.591" /> 
</g>
<g style="fill:#000000; fill-opacity:1.0; 
stroke:#000000; stroke-width:39.3701; stroke-opacity:1; 
stroke-linecap:round; stroke-linejoin:round;">
</g>
<g style="fill:#000000; fill-opacity:1.0; 
stroke:#000000; stroke-width:0; stroke-opacity:1; 
stroke-linecap:round; stroke-linejoin:round;">
<circle cx="6171.26" cy="4675.2" r="275.591" /> 
</g>
<g style="fill:#000000; fill-opacity:1.0; 
stroke:#000000; stroke-width:39.3701; stroke-opacity:1; 
stroke-linecap:round; stroke-linejoin:round;">
</g>
<g style="fill:#000000; fill-opacity:1.0; 
stroke:#000000; stroke-width:0; stroke-opacity:1; 
stroke-linecap:round; stroke-linejoin:round;">
<circle cx="25620.1" cy="6486.22" r="275.591" /> 
</g>
<g style="fill:#000000; fill-opacity:1.0; 
stroke:#000000; stroke-width:39.3701; stroke-opacity:1; 
stroke-linecap:round; stroke-linejoin:round;">
</g>
<g style="fill:#000000; fill-opacity:1.0; 
stroke:#000000; stroke-width:0; stroke-opacity:1; 
stroke-linecap:round; stroke-linejoin:round;">
<circle cx="28730.3" cy="15620.1" r="275.591" /> 
</g>
<g style="fill:#000000; fill-opacity:1.0; 
stroke:#000000; stroke-width:39.3701; stroke-opacity:1; 
stroke-linecap:round; stroke-linejoin:round;">
</g>
<g style="fill:#000000; fill-opacity:1.0; 
stroke:#000000; stroke-width:0; stroke-opacity:1; 
stroke-linecap:round; stroke-linejoin:round;">
<circle cx="4911.42" cy="11840.6" r="275.591" /> 
</g>
<g style="fill:#000000; fill-opacity:1.0; 
stroke:#000000; stroke-width:39.3701; stroke-opacity:1; 
stroke-linecap:round; stroke-linejoin:round;">
</g>
<g style="fill:#000000; fill-opacity:1.0; 
stroke:#000000; stroke-width:0; stroke-opacity:1; 
stroke-linecap:round; stroke-linejoin:round;">
<circle cx="5265.75" cy="5856.3" r="275.591" /> 
</g>
<g style="fill:#000000; fill-opacity:1.0; 
stroke:#000000; stroke-width:39.3701; stroke-opacity:1; 
stroke-linecap:round; stroke-linejoin:round;">
</g>
<g style="fill:#000000; fill-opacity:1.0; 
stroke:#000000; stroke-width:0; stroke-opacity:1; 
stroke-linecap:round; stroke-linejoin:round;">
<circle cx="26565" cy="16643.7" r="275.591" /> 
</g>
<g style="fill:#000000; fill-opacity:1.0; 
stroke:#000000; stroke-width:39.3701; stroke-opacity:1; 
stroke-linecap:round; stroke-linejoin:round;">
</g>
<g style="fill:#000000; fill-opacity:1.0; 
stroke:#000000; stroke-width:0; stroke-opacity:1; 
stroke-linecap:round; stroke-linejoin:round;">
<circle cx="9635.83" cy="4360.24" r="275.591" /> 
</g>
<g style="fill:#000000; fill-opacity:1.0; 
stroke:#000000; stroke-width:39.3701; stroke-opacity:1; 
stroke-linecap:round; stroke-linejoin:round;">
</g>
<g style="fill:#000000; fill-opacity:1.0; 
stroke:#000000; stroke-width:0; stroke-opacity:1; 
stroke-linecap:round; stroke-linejoin:round;">
<circle cx="4045.28" cy="1525.59" r="275.591" /> 
</g>
<g style="fill:#000000; fill-opacity:1.0; 
stroke:#000000; stroke-width:39.3701; stroke-opacity:1; 
stroke-linecap:round; stroke-linejoin:round;">
</g>
<g style="fill:#000000; fill-opacity:1.0; 
stroke:#000000; stroke-width:0; stroke-opacity:1; 
stroke-linecap:round; stroke-linejoin:round;">
<circle cx="10226.4" cy="14596.5" r="275.591" /> 
</g>
<g style="fill:#000000; fill-opacity:1.0; 
stroke:#000000; stroke-width:39.3701; stroke-opacity:1; 
stroke-linecap:round; stroke-linejoin:round;">
</g>
<g style="fill:#000000; fill-opacity:1.0; 
stroke:#000000; stroke-width:0; stroke-opacity:1; 
stroke-linecap:round; stroke-linejoin:round;">
<circle cx="28690.9" cy="14059.1" r="275.591" /> 
</g>
<g style="fill:#000000; fill-opacity:1.0; 
stroke:#000000; stroke-width:39.3701; stroke-opacity:1; 
stroke-linecap:round; stroke-linejoin:round;">
</g>
<g style="fill:#000000; fill-opacity:1.0; 
stroke:#000000; stroke-width:0; stroke-opacity:1; 
stroke-linecap:round; stroke-linejoin:round;">
<circle cx="11171.3" cy="12785.4" r="275.591" /> 
</g>
<g style="fill:#000000; fill-opacity:1.0; 
stroke:#000000; stroke-width:39.3701; stroke-opacity:1; 
stroke-linecap:round; stroke-linejoin:round;">
</g>
<g style="fill:#000000; fill-opacity:1.0; 
stroke:#000000; stroke-width:236.22; stroke-opacity:1; 
stroke-linecap:round; stroke-linejoin:round;">
</g>
<g style="fill:#000000; fill-opacity:0.0; 
stroke:#000000; stroke-width:236.22; stroke-opacity:1; 
stroke-linecap:round; stroke-linejoin:round;">
<path d="M28966 4517
L29763 4517
" />
<path d="M29911 11062
L29911 10157
" />
<path d="M10895 5334
L10895 4360
" />
</g>
<g style="fill:#000000; fill-opacity:0.0; 
stroke:#000000; stroke-width:196.85; stroke-opacity:1; 
stroke-linecap:round; stroke-linejoin:round;">
<path d="M13080 2411
L13080 1899
" />
<path d="M10895 2549
L12942 2549
" />
<path d="M12942 2549
L13080 2411
" />
<path d="M11830 4360
L10895 4360
" />
</g>
<g style="fill:#000000; fill-opacity:0.0; 
stroke:#000000; stroke-width:157.48; stroke-opacity:1; 
stroke-linecap:round; stroke-linejoin:round;">
<path d="M23671 4862
L23651 4842
" />
</g>
<g style="fill:#000000; fill-opacity:0.0; 
stroke:#000000; stroke-width:236.22; stroke-opacity:1; 
stroke-linecap:round; stroke-linejoin:round;">
<path d="M23582 4872
L24114 4872
" />
</g>
<g style="fill:#000000; fill-opacity:0.0; 
stroke:#000000; stroke-width:157.48; stroke-opacity:1; 
stroke-linecap:round; stroke-linejoin:round;">
<path d="M24791 4862
L24124 4862
" />
<path d="M26448 6484
L26446 6486
" />
<path d="M26448 5374
L26448 6484
" />
</g>
<g style="fill:#000000; fill-opacity:0.0; 
stroke:#000000; stroke-width:236.22; stroke-opacity:1; 
stroke-linecap:round; stroke-linejoin:round;">
<path d="M27588 13559
L28153 13559
" />
<path d="M28153 13559
L28572 13139
" />
</g>
<g style="fill:#000000; fill-opacity:0.0; 
stroke:#000000; stroke-width:196.85; stroke-opacity:1; 
stroke-linecap:round; stroke-linejoin:round;">
<path d="M26466 6466
L26446 6486
" />
</g>
<g style="fill:#000000; fill-opacity:0.0; 
stroke:#000000; stroke-width:314.961; stroke-opacity:1; 
stroke-linecap:round; stroke-linejoin:round;">
<path d="M28169 6466
L26466 6466
" />
</g>
<g style="fill:#000000; fill-opacity:0.0; 
stroke:#000000; stroke-width:157.48; stroke-opacity:1; 
stroke-linecap:round; stroke-linejoin:round;">
<path d="M30895 18454
L30895 17229
" />
<path d="M31053 15187
L30590 15187
" />
<path d="M31171 14084
L30590 14084
" />
<path d="M25462 13559
L25000 13559
" />
<path d="M24399 13494
L24360 13454
" />
<path d="M24360 13454
L24360 13257
" />
<path d="M11003 9360
L11318 9675
" />
</g>
<g style="fill:#000000; fill-opacity:0.0; 
stroke:#000000; stroke-width:196.85; stroke-opacity:1; 
stroke-linecap:round; stroke-linejoin:round;">
<path d="M10206 9360
L11003 9360
" />
</g>
<g style="fill:#000000; fill-opacity:0.0; 
stroke:#000000; stroke-width:157.48; stroke-opacity:1; 
stroke-linecap:round; stroke-linejoin:round;">
<path d="M11003 9990
L11318 9675
" />
</g>
<g style="fill:#000000; fill-opacity:0.0; 
stroke:#000000; stroke-width:196.85; stroke-opacity:1; 
stroke-linecap:round; stroke-linejoin:round;">
<path d="M10206 9990
L11003 9990
" />
</g>
<g style="fill:#000000; fill-opacity:0.0; 
stroke:#000000; stroke-width:157.48; stroke-opacity:1; 
stroke-linecap:round; stroke-linejoin:round;">
<path d="M11318 9675
L11919 9675
" />
<path d="M4163 5147
L4163 5816
" />
<path d="M4163 5816
L4084 5895
" />
<path d="M4163 3494
L4163 5147
" />
</g>
<g style="fill:#000000; fill-opacity:0.0; 
stroke:#000000; stroke-width:196.85; stroke-opacity:1; 
stroke-linecap:round; stroke-linejoin:round;">
<path d="M1919 6761
L1801 6643
" />
<path d="M1801 6643
L1801 6131
" />
<path d="M2037 5895
L4084 5895
" />
<path d="M1801 6131
L2037 5895
" />
<path d="M12736 9675
L11919 9675
" />
<path d="M29911 11751
L29911 12076
" />
</g>
<g style="fill:#000000; fill-opacity:0.0; 
stroke:#000000; stroke-width:157.48; stroke-opacity:1; 
stroke-linecap:round; stroke-linejoin:round;">
<path d="M25462 13059
L24913 13059
" />
</g>
<g style="fill:#000000; fill-opacity:0.0; 
stroke:#000000; stroke-width:196.85; stroke-opacity:1; 
stroke-linecap:round; stroke-linejoin:round;">
<path d="M5265 3218
L5383 3100
" />
<path d="M5265 4330
L5265 3218
" />
<path d="M4517 6328
L4084 5895
" />
<path d="M4517 6643
L4517 6328
" />
<path d="M4675 7185
L4675 6801
" />
<path d="M4675 6801
L4517 6643
" />
</g>
<g style="fill:#000000; fill-opacity:0.0; 
stroke:#000000; stroke-width:157.48; stroke-opacity:1; 
stroke-linecap:round; stroke-linejoin:round;">
<path d="M24791 5374
L24791 6484
" />
<path d="M24791 6484
L24793 6486
" />
</g>
<g style="fill:#000000; fill-opacity:0.0; 
stroke:#000000; stroke-width:236.22; stroke-opacity:1; 
stroke-linecap:round; stroke-linejoin:round;">
<path d="M30895 4517
L30452 4517
" />
</g>
<g style="fill:#000000; fill-opacity:0.0; 
stroke:#000000; stroke-width:157.48; stroke-opacity:1; 
stroke-linecap:round; stroke-linejoin:round;">
<path d="M30856 5462
L30895 5423
" />
</g>
<g style="fill:#000000; fill-opacity:0.0; 
stroke:#000000; stroke-width:236.22; stroke-opacity:1; 
stroke-linecap:round; stroke-linejoin:round;">
<path d="M30452 5462
L30856 5462
" />
</g>
<g style="fill:#000000; fill-opacity:0.0; 
stroke:#000000; stroke-width:157.48; stroke-opacity:1; 
stroke-linecap:round; stroke-linejoin:round;">
<path d="M27391 3612
L28297 3612
" />
<path d="M26564 4202
L26801 4202
" />
<path d="M26801 4202
L27391 3612
" />
<path d="M26448 4606
L26448 4318
" />
<path d="M26448 4318
L26564 4202
" />
</g>
<g style="fill:#000000; fill-opacity:0.0; 
stroke:#000000; stroke-width:196.85; stroke-opacity:1; 
stroke-linecap:round; stroke-linejoin:round;">
<path d="M4675 8769
L4675 7992
" />
<path d="M4714 8809
L4675 8769
" />
<path d="M5580 7933
L5580 8809
" />
<path d="M5580 8809
L4714 8809
" />
<path d="M5856 8809
L5580 8809
" />
<path d="M6860 9045
L6092 9045
" />
<path d="M6092 9045
L5856 8809
" />
<path d="M3139 10620
L6860 10620
" />
<path d="M2923 10403
L3139 10620
" />
<path d="M2155 10383
L2175 10403
" />
<path d="M2175 10403
L2923 10403
" />
<path d="M3927 9596
L2155 9596
" />
<path d="M4005 9675
L3927 9596
" />
<path d="M5895 9596
L2155 9596
" />
<path d="M6860 9675
L5974 9675
" />
<path d="M5974 9675
L5895 9596
" />
<path d="M8533 5954
L8533 3100
" />
<path d="M7746 8159
L7746 6742
" />
<path d="M7746 6742
L8533 5954
" />
<path d="M7746 6131
L7746 3100
" />
<path d="M7431 8159
L7431 6446
" />
<path d="M7431 6446
L7746 6131
" />
<path d="M6958 3887
L6958 3100
" />
<path d="M6860 8730
L6860 3986
" />
<path d="M6860 3986
L6958 3887
" />
<path d="M6171 3100
L6171 4832
" />
<path d="M6171 4832
L6171 4675
" />
<path d="M8375 12627
L6561 12627
" />
<path d="M6561 12627
L6171 12627
" />
<path d="M8690 11505
L8690 12312
" />
<path d="M8690 12312
L8375 12627
" />
<path d="M10895 6879
L10895 6141
" />
<path d="M8375 8159
L8375 7312
" />
<path d="M10620 7155
L10895 6879
" />
<path d="M8533 7155
L10620 7155
" />
<path d="M8375 7312
L8533 7155
" />
<path d="M9635 6564
L9635 6141
" />
<path d="M9438 6761
L9635 6564
" />
<path d="M8297 6761
L9438 6761
" />
<path d="M8061 8159
L8061 6998
" />
<path d="M8061 6998
L8297 6761
" />
</g>
<g style="fill:#000000; fill-opacity:0.0; 
stroke:#000000; stroke-width:236.22; stroke-opacity:1; 
stroke-linecap:round; stroke-linejoin:round;">
<path d="M30521 1151
L30895 1525
" />
<path d="M13080 1151
L16505 1151
" />
<path d="M16505 1151
L30521 1151
" />
</g>
<g style="fill:#000000; fill-opacity:0.0; 
stroke:#000000; stroke-width:196.85; stroke-opacity:1; 
stroke-linecap:round; stroke-linejoin:round;">
<path d="M2293 13710
L2293 12913
" />
<path d="M2293 18316
L2155 18454
" />
<path d="M2293 12913
L2293 18316
" />
</g>
<g style="fill:#000000; fill-opacity:0.0; 
stroke:#000000; stroke-width:157.48; stroke-opacity:1; 
stroke-linecap:round; stroke-linejoin:round;">
<path d="M27627 14598
L27588 14559
" />
<path d="M7332 9990
L6860 9990
" />
<path d="M9419 9990
L7332 9990
" />
</g>
<g style="fill:#000000; fill-opacity:0.0; 
stroke:#000000; stroke-width:236.22; stroke-opacity:1; 
stroke-linecap:round; stroke-linejoin:round;">
<path d="M7903 13612
L5659 13612
" />
</g>
<g style="fill:#000000; fill-opacity:0.0; 
stroke:#000000; stroke-width:157.48; stroke-opacity:1; 
stroke-linecap:round; stroke-linejoin:round;">
<path d="M5659 13612
L5659 14596
" />
<path d="M31643 2273
L30895 1525
" />
<path d="M25492 5118
L25620 4990
" />
<path d="M24791 5118
L25492 5118
" />
</g>
<g style="fill:#000000; fill-opacity:0.0; 
stroke:#000000; stroke-width:314.961; stroke-opacity:1; 
stroke-linecap:round; stroke-linejoin:round;">
<path d="M29655 6466
L28976 6466
" />
</g>
<g style="fill:#000000; fill-opacity:0.0; 
stroke:#000000; stroke-width:196.85; stroke-opacity:1; 
stroke-linecap:round; stroke-linejoin:round;">
<path d="M10206 10305
L13021 10305
" />
<path d="M9419 9675
L9419 9990
" />
<path d="M10206 9675
L9419 9675
" />
<path d="M9419 10305
L9419 9990
" />
<path d="M10206 10305
L9419 10305
" />
<path d="M5659 14596
L7155 14596
" />
</g>
<g style="fill:#000000; fill-opacity:0.0; 
stroke:#000000; stroke-width:236.22; stroke-opacity:1; 
stroke-linecap:round; stroke-linejoin:round;">
<path d="M7155 14596
L7893 14596
" />
<path d="M11171 14645
L11171 15501
" />
</g>
<g style="fill:#000000; fill-opacity:0.0; 
stroke:#000000; stroke-width:157.48; stroke-opacity:1; 
stroke-linecap:round; stroke-linejoin:round;">
<path d="M27627 15807
L27814 15620
" />
<path d="M27814 15620
L28340 15620
" />
<path d="M28340 15620
L28730 15620
" />
<path d="M24791 4606
L24791 4244
" />
</g>
<g style="fill:#000000; fill-opacity:0.0; 
stroke:#000000; stroke-width:196.85; stroke-opacity:1; 
stroke-linecap:round; stroke-linejoin:round;">
<path d="M3690 12588
L4163 12588
" />
<path d="M4635 12116
L4911 11840
" />
<path d="M4163 12588
L4635 12116
" />
<path d="M5580 6171
L5265 5856
" />
<path d="M5580 7244
L5580 6171
" />
<path d="M5265 5856
L5265 5856
" />
<path d="M5265 5019
L5265 5856
" />
<path d="M11919 7194
L11919 6801
" />
<path d="M11919 6801
L11919 6486
" />
<path d="M13405 9675
L13848 9675
" />
</g>
<g style="fill:#000000; fill-opacity:0.0; 
stroke:#000000; stroke-width:157.48; stroke-opacity:1; 
stroke-linecap:round; stroke-linejoin:round;">
<path d="M27598 16643
L27627 16614
" />
<path d="M26564 16643
L27598 16643
" />
<path d="M25492 16643
L25462 16614
" />
<path d="M26564 16643
L25492 16643
" />
</g>
<g style="fill:#000000; fill-opacity:0.0; 
stroke:#000000; stroke-width:196.85; stroke-opacity:1; 
stroke-linecap:round; stroke-linejoin:round;">
<path d="M9635 4360
L9635 5334
" />
</g>
<g style="fill:#000000; fill-opacity:0.0; 
stroke:#000000; stroke-width:157.48; stroke-opacity:1; 
stroke-linecap:round; stroke-linejoin:round;">
<path d="M26448 4862
L27165 4862
" />
<path d="M27509 4517
L28139 4517
" />
<path d="M27165 4862
L27509 4517
" />
</g>
<g style="fill:#000000; fill-opacity:0.0; 
stroke:#000000; stroke-width:196.85; stroke-opacity:1; 
stroke-linecap:round; stroke-linejoin:round;">
<path d="M9320 11505
L9320 12706
" />
<path d="M9557 12942
L9557 13612
" />
<path d="M9320 12706
L9557 12942
" />
<path d="M9005 11505
L9005 12746
" />
<path d="M8769 12982
L8769 13612
" />
<path d="M9005 12746
L8769 12982
" />
</g>
<g style="fill:#000000; fill-opacity:0.0; 
stroke:#000000; stroke-width:236.22; stroke-opacity:1; 
stroke-linecap:round; stroke-linejoin:round;">
<path d="M12253 1525
L4045 1525
" />
<path d="M4045 1525
L2175 1525
" />
</g>
<g style="fill:#000000; fill-opacity:0.0; 
stroke:#000000; stroke-width:157.48; stroke-opacity:1; 
stroke-linecap:round; stroke-linejoin:round;">
<path d="M10206 14576
L10226 14596
" />
</g>
<g style="fill:#000000; fill-opacity:0.0; 
stroke:#000000; stroke-width:196.85; stroke-opacity:1; 
stroke-linecap:round; stroke-linejoin:round;">
<path d="M10206 10935
L10206 14576
" />
<path d="M8730 14596
L10226 14596
" />
</g>
<g style="fill:#000000; fill-opacity:0.0; 
stroke:#000000; stroke-width:157.48; stroke-opacity:1; 
stroke-linecap:round; stroke-linejoin:round;">
<path d="M29757 14059
L29783 14084
" />
</g>
<g style="fill:#000000; fill-opacity:0.0; 
stroke:#000000; stroke-width:236.22; stroke-opacity:1; 
stroke-linecap:round; stroke-linejoin:round;">
<path d="M27588 14059
L28690 14059
" />
<path d="M28690 14059
L29757 14059
" />
</g>
<g style="fill:#000000; fill-opacity:0.0; 
stroke:#000000; stroke-width:157.48; stroke-opacity:1; 
stroke-linecap:round; stroke-linejoin:round;">
<path d="M25462 15807
L25462 14559
" />
</g>
<g style="fill:#000000; fill-opacity:0.0; 
stroke:#000000; stroke-width:236.22; stroke-opacity:1; 
stroke-linecap:round; stroke-linejoin:round;">
<path d="M28966 5462
L29724 5462
" />
</g>
<g style="fill:#000000; fill-opacity:0.0; 
stroke:#000000; stroke-width:157.48; stroke-opacity:1; 
stroke-linecap:round; stroke-linejoin:round;">
<path d="M27509 5462
L28139 5462
" />
<path d="M26448 5118
L27165 5118
" />
<path d="M27165 5118
L27509 5462
" />
</g>
<g style="fill:#000000; fill-opacity:0.0; 
stroke:#000000; stroke-width:196.85; stroke-opacity:1; 
stroke-linecap:round; stroke-linejoin:round;">
<path d="M10206 8730
L10856 8730
" />
<path d="M11604 7982
L11919 7982
" />
<path d="M10856 8730
L11604 7982
" />
<path d="M11486 8769
L11919 8769
" />
<path d="M10206 9045
L11210 9045
" />
<path d="M11210 9045
L11486 8769
" />
<path d="M11171 12395
L11171 12785
" />
<path d="M10718 10620
L11171 11072
" />
<path d="M11171 11072
L11171 12395
" />
<path d="M10206 10620
L10718 10620
" />
</g>
<g style="fill:#000000; fill-opacity:1.0; 
stroke:#000000; stroke-width:100; stroke-opacity:1; 
stroke-linecap:round; stroke-linejoin:round;">
<polyline style="fill-rule:evenodd;"
points="9487,10786
7599,10786
7599,8898
9487,8898
9487,10786
" /> 
<polyline style="fill-rule:evenodd;"
points="31800,18450
31782,18630
31731,18799
31648,18955
31537,19091
31401,19204
31246,19288
31077,19340
30898,19359
30895,19359
4646,19359
4646,14410
5255,14410
5255,18494
5256,18503
5258,18513
5263,18521
5269,18529
5277,18535
5285,18540
5295,18543
5305,18544
24045,18544
24055,18543
24064,18540
24073,18535
24080,18529
24086,18521
24091,18513
24094,18503
24095,18494
24095,13032
25688,13032
25688,13601
24596,13601
24586,13602
24577,13605
24568,13610
24561,13616
24554,13623
24550,13632
24547,13641
24546,13651
24546,17509
24547,17519
24550,17528
24554,17537
24561,17545
24568,17551
24577,17556
24586,17558
24596,17559
30344,17559
30354,17558
30363,17556
30372,17551
30379,17545
30386,17537
30390,17528
30393,17519
30394,17509
30394,13375
30393,13366
30390,13356
30386,13348
30379,13340
30372,13334
30363,13329
30354,13326
30344,13325
29607,13325
29607,11890
31800,11890
31800,18450
" /> 
<polyline style="fill-rule:evenodd;"
points="31071,638
31240,689
31396,772
31532,883
31645,1019
31729,1175
31781,1343
31800,1523
31800,1525
31800,11514
30433,11514
30433,9320
30432,9311
30430,9301
30425,9293
30419,9285
30411,9279
30402,9274
30393,9271
30383,9270
29528,9270
29528,5985
31250,5985
31259,5984
31269,5981
31277,5976
31285,5970
31291,5962
31296,5954
31299,5944
31300,5935
31300,3061
31299,3051
31296,3041
31291,3033
31285,3025
31277,3019
31269,3014
31259,3011
31250,3011
25974,3011
25964,3011
25955,3014
25946,3019
25939,3025
25932,3033
25928,3041
25925,3051
25924,3061
25924,5717
25899,5742
25893,5749
25888,5758
25886,5767
25885,5777
25885,10108
25886,10118
25888,10127
25893,10136
25899,10143
25907,10149
25915,10154
25925,10157
25935,10158
26829,10158
26829,11200
26171,11200
26161,11200
26152,11203
26143,11208
26135,11214
26129,11222
26125,11230
26122,11240
26121,11250
26121,12459
23645,12459
23635,12460
23626,12463
23617,12468
23610,12474
23604,12482
23599,12490
23596,12500
23595,12509
23601,18050
5551,18050
5551,13769
5551,13759
5548,13750
5543,13741
5537,13734
5529,13728
5521,13723
5511,13720
5501,13719
4379,13719
4370,13720
4360,13723
4352,13728
4344,13734
4338,13741
4333,13750
4330,13759
4329,13769
4329,19359
2159,19359
1979,19341
1810,19290
1655,19207
1518,19096
1405,18960
1321,18805
1269,18636
1250,18457
1250,18454
1250,12677
2942,12677
2952,12676
2962,12674
2970,12669
2978,12663
2984,12655
2989,12647
2991,12637
2992,12627
2992,11536
5530,11536
5530,13100
5531,13110
5534,13119
5539,13128
5545,13135
5552,13141
5561,13146
5570,13149
5580,13150
7459,13150
7459,15147
7460,15157
7463,15166
7468,15175
7474,15182
7482,15189
7490,15193
7500,15196
7509,15197
11722,15197
11732,15196
11741,15193
11750,15189
11757,15182
11764,15175
11768,15166
11771,15157
11772,15147
11772,10275
13495,10236
13504,10235
13514,10232
13522,10227
13530,10221
13536,10213
13540,10205
13543,10195
13544,10187
13544,9084
13543,9074
13540,9065
13535,9056
13529,9049
13521,9043
13513,9038
13503,9035
13494,9034
12362,9034
12362,6761
12362,6752
12359,6742
12354,6734
12348,6726
12340,6720
12332,6715
12322,6712
12312,6711
11496,6711
11496,5158
12667,5158
12677,5157
12686,5154
12695,5149
12702,5143
12708,5136
12713,5127
12716,5118
12717,5108
12717,4360
22735,4360
22735,5383
22736,5393
22739,5402
22743,5411
22750,5419
22757,5425
22766,5430
22775,5432
22785,5433
24231,5433
24231,7037
24232,7047
24235,7056
24239,7065
24246,7072
24253,7078
24262,7083
24271,7086
24281,7087
25305,7087
25314,7086
25324,7083
25332,7078
25340,7072
25346,7065
25351,7056
25354,7047
25355,7037
25355,5777
25354,5767
25351,5758
25346,5749
25340,5742
25315,5717
25315,4360
25314,4350
25311,4341
25307,4332
25301,4324
25293,4318
25284,4314
25275,4311
25265,4310
24970,4310
24960,4311
24951,4314
24942,4318
24935,4324
24928,4332
24924,4341
24921,4350
24920,4360
24920,4625
24666,4625
24666,4360
24665,4350
24662,4341
24657,4332
24651,4324
24643,4318
24635,4314
24625,4311
24616,4310
22785,4310
22775,4311
22766,4314
22757,4318
22750,4324
22743,4332
22739,4341
22736,4350
22735,4360
12717,4360
12717,3730
12716,3720
12713,3711
12708,3702
12702,3694
12695,3688
12686,3684
12677,3681
12667,3680
10247,3680
10025,3458
10017,3452
10009,3447
9999,3445
9990,3444
9174,3444
9174,2756
10255,2756
10255,3100
10256,3110
10258,3119
10263,3128
10269,3135
10277,3141
10285,3146
10295,3149
10305,3150
13730,3150
13740,3149
13749,3146
13758,3141
13765,3135
13771,3128
13776,3119
13779,3110
13780,3100
13780,1564
13779,1555
13776,1545
13771,1537
13765,1529
13450,1214
13443,1208
13434,1203
13425,1200
13415,1200
12874,1200
12874,630
17588,620
30891,620
31071,638
" /> 
<polyline style="fill-rule:evenodd;"
points="27814,15305
27815,15314
27817,15324
27822,15332
27828,15340
27836,15346
27845,15351
27854,15354
27864,15355
29940,15355
29940,16948
28780,16948
28780,16418
29438,16418
29448,16417
29458,16414
29466,16409
29474,16403
29480,16395
29485,16387
29488,16377
29488,16368
29488,15935
29488,15925
29485,15915
29480,15907
29474,15899
29466,15893
29458,15888
29448,15886
29438,15885
27362,15885
27362,14528
27814,14528
27814,15305
" /> 
<polyline style="fill-rule:evenodd;"
points="28365,16948
25237,16948
25237,16378
28365,16378
28365,16948
" /> 
<polyline style="fill-rule:evenodd;"
points="26554,5895
26555,5905
26558,5914
26562,5923
26568,5931
26726,6088
26734,6094
26742,6099
26752,6102
26761,6103
27577,6103
27577,6958
27578,6968
27581,6977
27586,6986
27592,6994
27600,7000
27608,7004
27618,7007
27627,7008
29152,7008
29152,13247
28572,13247
28563,13248
28553,13251
28545,13255
28537,13261
28268,13530
28268,9872
28267,9862
28264,9852
28260,9844
28253,9836
28246,9830
28237,9825
28228,9823
28218,9822
26181,9822
26181,6073
26324,5931
26330,5923
26335,5914
26338,5905
26339,5895
26339,5473
26554,5473
26554,5895
" /> 
<polyline style="fill-rule:evenodd;"
points="24900,5895
24901,5905
24904,5914
24909,5923
24915,5931
25058,6073
25058,6790
24528,6790
24528,6073
24671,5931
24677,5923
24682,5914
24684,5905
24685,5895
24685,5355
24900,5355
24900,5895
" /> 
<polyline style="fill-rule:evenodd;"
points="30963,5491
30866,5491
30866,4005
30865,3996
30863,3986
30858,3978
30852,3970
30844,3964
30836,3959
30826,3956
30816,3955
27273,3955
27263,3956
27254,3959
27245,3964
27238,3970
26859,4349
26604,4349
26594,4350
26585,4353
26576,4358
26568,4364
26562,4371
26558,4380
26555,4389
26554,4399
26554,4625
26339,4625
26339,3307
30963,3307
30963,5491
" /> 
<polyline style="fill-rule:evenodd;"
points="27814,13089
27362,13089
27362,12509
27362,12500
27359,12490
27354,12482
27348,12474
27340,12468
27332,12463
27322,12460
27312,12459
26761,12459
26752,12460
26742,12463
26734,12468
26726,12474
26720,12482
26715,12490
26712,12500
26711,12509
26711,15963
25237,15963
25237,14016
25688,14016
25688,15305
25689,15314
25691,15324
25696,15332
25702,15340
25710,15346
25719,15351
25728,15354
25738,15355
26407,15355
26417,15354
26426,15351
26435,15346
26442,15340
26449,15332
26453,15324
26456,15314
26457,15305
26457,11496
27312,11496
27322,11495
27332,11493
27340,11488
27348,11482
27354,11474
27359,11465
27362,11456
27362,11446
27362,10709
27814,10709
27814,13089
" /> 
<polyline style="fill-rule:evenodd;"
points="12223,1328
12224,1338
12227,1347
12232,1356
12238,1364
12245,1370
12254,1374
12263,1377
12273,1378
12459,1378
12459,1672
12273,1672
12263,1673
12254,1676
12245,1680
12238,1687
12232,1694
12227,1703
12224,1712
12223,1722
12223,1829
10383,1829
10374,1830
10364,1833
10356,1838
10348,1844
10342,1852
10337,1860
10334,1870
10333,1879
10333,2420
1250,2420
1250,1529
1268,1349
1319,1180
1402,1025
1513,888
1649,775
1805,691
1973,639
2152,620
2155,620
12223,620
12223,1328
" /> 
<polyline style="fill-rule:evenodd;"
points="12617,10018
11024,10018
11024,9331
12617,9331
12617,10018
" /> 
<polyline style="fill-rule:evenodd;"
points="6436,12892
5906,12892
5906,12362
6436,12362
6436,12892
" /> 
<polyline style="fill-rule:evenodd;"
points="5530,3955
4675,3955
4665,3956
4656,3959
4647,3964
4639,3970
4633,3978
4629,3986
4626,3996
4625,4005
4625,6436
4045,6436
4035,6437
4026,6440
4017,6444
4009,6450
4003,6458
3999,6467
3996,6476
3995,6486
3995,8955
1250,8955
1250,2756
5530,2756
5530,3955
" /> 
<polyline style="fill-rule:evenodd;"
points="6318,4379
6319,4389
6321,4399
6326,4407
6332,4415
6416,4499
6416,4979
5925,4979
5925,4499
6009,4415
6015,4407
6020,4399
6023,4389
6024,4379
6024,3189
6318,3189
6318,4379
" /> 
<polyline style="fill-rule:evenodd;"
points="6436,6436
5000,6436
5000,5394
6436,5394
6436,6436
" /> 
<polyline style="fill-rule:evenodd;"
points="6139,10620
5678,11081
2627,11081
2618,11082
2608,11085
2600,11090
2592,11096
2586,11104
2581,11112
2578,11122
2577,11131
2577,11475
1733,11475
1733,11131
1732,11122
1729,11112
1724,11104
1718,11096
1710,11090
1702,11085
1692,11082
1683,11081
1250,11081
1250,10158
5678,10158
6139,10620
" /> 
<polyline style="fill-rule:evenodd;"
points="5648,9822
1250,9822
1250,9370
5648,9370
5648,9822
" /> 
<polyline style="fill-rule:evenodd;"
points="10530,14900
8544,14900
8544,14292
10530,14292
10530,14900
" /> 
<polyline style="fill-rule:evenodd;"
points="29940,14349
28425,14349
28425,13780
29940,13780
29940,14349
" /> 
<polyline style="fill-rule:evenodd;"
points="11436,13955
10866,13955
10866,11496
11436,11496
11436,13955
" /> 
<polyline style="fill-rule:evenodd;"
points="13286,2814
10630,2814
10630,2284
12824,2284
12834,2283
12843,2280
12852,2275
12860,2269
12866,2262
12870,2253
12873,2244
12874,2234
12874,2008
13286,2008
13286,2814
" /> 
<polyline style="fill-rule:evenodd;"
points="11672,4664
10591,4664
10591,4055
11672,4055
11672,4664
" /> 
<polyline style="fill-rule:evenodd;"
points="9940,4664
9331,4664
9331,4055
9940,4055
9940,4664
" /> 
<polyline style="fill-rule:evenodd;"
points="5648,8955
4488,8955
4488,8425
5648,8425
5648,8955
" /> 
<polyline style="fill-rule:evenodd;"
points="7892,5766
7599,5766
7599,3032
7892,3032
7892,5766
" /> 
<polyline style="fill-rule:evenodd;"
points="8680,5766
8386,5766
8386,3014
8680,3014
8680,5766
" /> 
<polyline style="fill-rule:evenodd;"
points="7105,5766
6811,5766
6811,2815
7105,2815
7105,5766
" /> 
</g>
<g style="fill:#FFFFFF; fill-opacity:1.0; 
stroke:#FFFFFF; stroke-width:100; stroke-opacity:1; 
stroke-linecap:round; stroke-linejoin:round;">
</g>
<g style="fill:#FFFFFF; fill-opacity:1.0; 
stroke:#FFFFFF; stroke-width:0; stroke-opacity:1; 
stroke-linecap:round; stroke-linejoin:round;">
<circle cx="10895.7" cy="4360.24" r="157.48" /> 
</g>
<g style="fill:#FFFFFF; fill-opacity:1.0; 
stroke:#FFFFFF; stroke-width:39.3701; stroke-opacity:1; 
stroke-linecap:round; stroke-linejoin:round;">
</g>
<g style="fill:#FFFFFF; fill-opacity:1.0; 
stroke:#FFFFFF; stroke-width:0; stroke-opacity:1; 
stroke-linecap:round; stroke-linejoin:round;">
<circle cx="10895.7" cy="2549.21" r="157.48" /> 
</g>
<g style="fill:#FFFFFF; fill-opacity:1.0; 
stroke:#FFFFFF; stroke-width:39.3701; stroke-opacity:1; 
stroke-linecap:round; stroke-linejoin:round;">
</g>
<g style="fill:#FFFFFF; fill-opacity:1.0; 
stroke:#FFFFFF; stroke-width:0; stroke-opacity:1; 
stroke-linecap:round; stroke-linejoin:round;">
<circle cx="26446.9" cy="6486.22" r="157.48" /> 
</g>
<g style="fill:#FFFFFF; fill-opacity:1.0; 
stroke:#FFFFFF; stroke-width:39.3701; stroke-opacity:1; 
stroke-linecap:round; stroke-linejoin:round;">
</g>
<g style="fill:#FFFFFF; fill-opacity:1.0; 
stroke:#FFFFFF; stroke-width:0; stroke-opacity:1; 
stroke-linecap:round; stroke-linejoin:round;">
<circle cx="24320.9" cy="13297.2" r="157.48" /> 
</g>
<g style="fill:#FFFFFF; fill-opacity:1.0; 
stroke:#FFFFFF; stroke-width:39.3701; stroke-opacity:1; 
stroke-linecap:round; stroke-linejoin:round;">
</g>
<g style="fill:#FFFFFF; fill-opacity:1.0; 
stroke:#FFFFFF; stroke-width:0; stroke-opacity:1; 
stroke-linecap:round; stroke-linejoin:round;">
<circle cx="11919.3" cy="9675.2" r="157.48" /> 
</g>
<g style="fill:#FFFFFF; fill-opacity:1.0; 
stroke:#FFFFFF; stroke-width:39.3701; stroke-opacity:1; 
stroke-linecap:round; stroke-linejoin:round;">
</g>
<g style="fill:#FFFFFF; fill-opacity:1.0; 
stroke:#FFFFFF; stroke-width:0; stroke-opacity:1; 
stroke-linecap:round; stroke-linejoin:round;">
<circle cx="4084.65" cy="5895.67" r="157.48" /> 
</g>
<g style="fill:#FFFFFF; fill-opacity:1.0; 
stroke:#FFFFFF; stroke-width:39.3701; stroke-opacity:1; 
stroke-linecap:round; stroke-linejoin:round;">
</g>
<g style="fill:#FFFFFF; fill-opacity:1.0; 
stroke:#FFFFFF; stroke-width:0; stroke-opacity:1; 
stroke-linecap:round; stroke-linejoin:round;">
<circle cx="4950.79" cy="15383.9" r="157.48" /> 
</g>
<g style="fill:#FFFFFF; fill-opacity:1.0; 
stroke:#FFFFFF; stroke-width:39.3701; stroke-opacity:1; 
stroke-linecap:round; stroke-linejoin:round;">
</g>
<g style="fill:#FFFFFF; fill-opacity:1.0; 
stroke:#FFFFFF; stroke-width:0; stroke-opacity:1; 
stroke-linecap:round; stroke-linejoin:round;">
<circle cx="3690.95" cy="8218.5" r="157.48" /> 
</g>
<g style="fill:#FFFFFF; fill-opacity:1.0; 
stroke:#FFFFFF; stroke-width:39.3701; stroke-opacity:1; 
stroke-linecap:round; stroke-linejoin:round;">
</g>
<g style="fill:#FFFFFF; fill-opacity:1.0; 
stroke:#FFFFFF; stroke-width:0; stroke-opacity:1; 
stroke-linecap:round; stroke-linejoin:round;">
<circle cx="24793.3" cy="6486.22" r="157.48" /> 
</g>
<g style="fill:#FFFFFF; fill-opacity:1.0; 
stroke:#FFFFFF; stroke-width:39.3701; stroke-opacity:1; 
stroke-linecap:round; stroke-linejoin:round;">
</g>
<g style="fill:#FFFFFF; fill-opacity:1.0; 
stroke:#FFFFFF; stroke-width:0; stroke-opacity:1; 
stroke-linecap:round; stroke-linejoin:round;">
<circle cx="28297.2" cy="3612.21" r="157.48" /> 
</g>
<g style="fill:#FFFFFF; fill-opacity:1.0; 
stroke:#FFFFFF; stroke-width:39.3701; stroke-opacity:1; 
stroke-linecap:round; stroke-linejoin:round;">
</g>
<g style="fill:#FFFFFF; fill-opacity:1.0; 
stroke:#FFFFFF; stroke-width:0; stroke-opacity:1; 
stroke-linecap:round; stroke-linejoin:round;">
<circle cx="6171.26" cy="12628" r="157.48" /> 
</g>
<g style="fill:#FFFFFF; fill-opacity:1.0; 
stroke:#FFFFFF; stroke-width:39.3701; stroke-opacity:1; 
stroke-linecap:round; stroke-linejoin:round;">
</g>
<g style="fill:#FFFFFF; fill-opacity:1.0; 
stroke:#FFFFFF; stroke-width:0; stroke-opacity:1; 
stroke-linecap:round; stroke-linejoin:round;">
<circle cx="6171.26" cy="4675.2" r="157.48" /> 
</g>
<g style="fill:#FFFFFF; fill-opacity:1.0; 
stroke:#FFFFFF; stroke-width:39.3701; stroke-opacity:1; 
stroke-linecap:round; stroke-linejoin:round;">
</g>
<g style="fill:#FFFFFF; fill-opacity:1.0; 
stroke:#FFFFFF; stroke-width:0; stroke-opacity:1; 
stroke-linecap:round; stroke-linejoin:round;">
<circle cx="25620.1" cy="6486.22" r="157.48" /> 
</g>
<g style="fill:#FFFFFF; fill-opacity:1.0; 
stroke:#FFFFFF; stroke-width:39.3701; stroke-opacity:1; 
stroke-linecap:round; stroke-linejoin:round;">
</g>
<g style="fill:#FFFFFF; fill-opacity:1.0; 
stroke:#FFFFFF; stroke-width:0; stroke-opacity:1; 
stroke-linecap:round; stroke-linejoin:round;">
<circle cx="28730.3" cy="15620.1" r="157.48" /> 
</g>
<g style="fill:#FFFFFF; fill-opacity:1.0; 
stroke:#FFFFFF; stroke-width:39.3701; stroke-opacity:1; 
stroke-linecap:round; stroke-linejoin:round;">
</g>
<g style="fill:#FFFFFF; fill-opacity:1.0; 
stroke:#FFFFFF; stroke-width:0; stroke-opacity:1; 
stroke-linecap:round; stroke-linejoin:round;">
<circle cx="4911.42" cy="11840.6" r="157.48" /> 
</g>
<g style="fill:#FFFFFF; fill-opacity:1.0; 
stroke:#FFFFFF; stroke-width:39.3701; stroke-opacity:1; 
stroke-linecap:round; stroke-linejoin:round;">
</g>
<g style="fill:#FFFFFF; fill-opacity:1.0; 
stroke:#FFFFFF; stroke-width:0; stroke-opacity:1; 
stroke-linecap:round; stroke-linejoin:round;">
<circle cx="5265.75" cy="5856.3" r="157.48" /> 
</g>
<g style="fill:#FFFFFF; fill-opacity:1.0; 
stroke:#FFFFFF; stroke-width:39.3701; stroke-opacity:1; 
stroke-linecap:round; stroke-linejoin:round;">
</g>
<g style="fill:#FFFFFF; fill-opacity:1.0; 
stroke:#FFFFFF; stroke-width:0; stroke-opacity:1; 
stroke-linecap:round; stroke-linejoin:round;">
<circle cx="26565" cy="16643.7" r="157.48" /> 
</g>
<g style="fill:#FFFFFF; fill-opacity:1.0; 
stroke:#FFFFFF; stroke-width:39.3701; stroke-opacity:1; 
stroke-linecap:round; stroke-linejoin:round;">
</g>
<g style="fill:#FFFFFF; fill-opacity:1.0; 
stroke:#FFFFFF; stroke-width:0; stroke-opacity:1; 
stroke-linecap:round; stroke-linejoin:round;">
<circle cx="9635.83" cy="4360.24" r="157.48" /> 
</g>
<g style="fill:#FFFFFF; fill-opacity:1.0; 
stroke:#FFFFFF; stroke-width:39.3701; stroke-opacity:1; 
stroke-linecap:round; stroke-linejoin:round;">
</g>
<g style="fill:#FFFFFF; fill-opacity:1.0; 
stroke:#FFFFFF; stroke-width:0; stroke-opacity:1; 
stroke-linecap:round; stroke-linejoin:round;">
<circle cx="4045.28" cy="1525.59" r="157.48" /> 
</g>
<g style="fill:#FFFFFF; fill-opacity:1.0; 
stroke:#FFFFFF; stroke-width:39.3701; stroke-opacity:1; 
stroke-linecap:round; stroke-linejoin:round;">
</g>
<g style="fill:#FFFFFF; fill-opacity:1.0; 
stroke:#FFFFFF; stroke-width:0; stroke-opacity:1; 
stroke-linecap:round; stroke-linejoin:round;">
<circle cx="10226.4" cy="14596.5" r="157.48" /> 
</g>
<g style="fill:#FFFFFF; fill-opacity:1.0; 
stroke:#FFFFFF; stroke-width:39.3701; stroke-opacity:1; 
stroke-linecap:round; stroke-linejoin:round;">
</g>
<g style="fill:#FFFFFF; fill-opacity:1.0; 
stroke:#FFFFFF; stroke-width:0; stroke-opacity:1; 
stroke-linecap:round; stroke-linejoin:round;">
<circle cx="28690.9" cy="14059.1" r="157.48" /> 
</g>
<g style="fill:#FFFFFF; fill-opacity:1.0; 
stroke:#FFFFFF; stroke-width:39.3701; stroke-opacity:1; 
stroke-linecap:round; stroke-linejoin:round;">
</g>
<g style="fill:#FFFFFF; fill-opacity:1.0; 
stroke:#FFFFFF; stroke-width:0; stroke-opacity:1; 
stroke-linecap:round; stroke-linejoin:round;">
<circle cx="11171.3" cy="12785.4" r="157.48" /> 
</g>
<g style="fill:#FFFFFF; fill-opacity:1.0; 
stroke:#FFFFFF; stroke-width:39.3701; stroke-opacity:1; 
stroke-linecap:round; stroke-linejoin:round;">
</g>
<g style="fill:#FFFFFF; fill-opacity:1.0; 
stroke:#FFFFFF; stroke-width:0; stroke-opacity:1; 
stroke-linecap:round; stroke-linejoin:round;">
<circle cx="2155.51" cy="10383.9" r="157.48" /> 
</g>
<g style="fill:#FFFFFF; fill-opacity:1.0; 
stroke:#FFFFFF; stroke-width:39.3701; stroke-opacity:1; 
stroke-linecap:round; stroke-linejoin:round;">
</g>
<g style="fill:#FFFFFF; fill-opacity:1.0; 
stroke:#FFFFFF; stroke-width:0; stroke-opacity:1; 
stroke-linecap:round; stroke-linejoin:round;">
<circle cx="2155.51" cy="9596.46" r="157.48" /> 
</g>
<g style="fill:#FFFFFF; fill-opacity:1.0; 
stroke:#FFFFFF; stroke-width:39.3701; stroke-opacity:1; 
stroke-linecap:round; stroke-linejoin:round;">
</g>
<g style="fill:#FFFFFF; fill-opacity:1.0; 
stroke:#FFFFFF; stroke-width:0; stroke-opacity:1; 
stroke-linecap:round; stroke-linejoin:round;">
<circle cx="30895.7" cy="18454.7" r="433.071" /> 
</g>
<g style="fill:#FFFFFF; fill-opacity:1.0; 
stroke:#FFFFFF; stroke-width:39.3701; stroke-opacity:1; 
stroke-linecap:round; stroke-linejoin:round;">
</g>
<g style="fill:#FFFFFF; fill-opacity:1.0; 
stroke:#FFFFFF; stroke-width:0; stroke-opacity:1; 
stroke-linecap:round; stroke-linejoin:round;">
<circle cx="30895.7" cy="1525.59" r="433.071" /> 
</g>
<g style="fill:#FFFFFF; fill-opacity:1.0; 
stroke:#FFFFFF; stroke-width:39.3701; stroke-opacity:1; 
stroke-linecap:round; stroke-linejoin:round;">
</g>
<g style="fill:#FFFFFF; fill-opacity:1.0; 
stroke:#FFFFFF; stroke-width:0; stroke-opacity:1; 
stroke-linecap:round; stroke-linejoin:round;">
<circle cx="2175.98" cy="1525.59" r="433.071" /> 
</g>
<g style="fill:#FFFFFF; fill-opacity:1.0; 
stroke:#FFFFFF; stroke-width:39.3701; stroke-opacity:1; 
stroke-linecap:round; stroke-linejoin:round;">
</g>
<g style="fill:#FFFFFF; fill-opacity:1.0; 
stroke:#FFFFFF; stroke-width:0; stroke-opacity:1; 
stroke-linecap:round; stroke-linejoin:round;">
<circle cx="2155.51" cy="18454.7" r="433.071" /> 
</g>
<g style="fill:#FFFFFF; fill-opacity:1.0; 
stroke:#FFFFFF; stroke-width:39.3701; stroke-opacity:1; 
stroke-linecap:round; stroke-linejoin:round;">
</g>
<g style="fill:#000000; fill-opacity:1.0; 
stroke:#000000; stroke-width:39.3701; stroke-opacity:1; 
stroke-linecap:round; stroke-linejoin:round;">
</g> 
</svg>
