<?xml version="1.0" standalone="no"?>
 <!DOCTYPE svg PUBLIC "-//W3C//DTD SVG 1.1//EN" 
 "http://www.w3.org/Graphics/SVG/1.1/DTD/svg11.dtd"> 
<svg xmlns="http://www.w3.org/2000/svg" version="1.1" 
    width="8.2042cm" height="5.08254cm" viewBox="0 0 32300 20010 ">
<title>SVG Picture created as eside_rev15-B.Cu.svg date 2018/08/29 18:39:15 </title>
  <desc>Picture generated by PCBNEW </desc>
<g style="fill:#000000; fill-opacity:1;stroke:#000000; stroke-opacity:1;
stroke-linecap:round; stroke-linejoin:round; "
 transform="translate(0 0) scale(1 1)">
</g>
<g style="fill:#000000; fill-opacity:0.0; 
stroke:#000000; stroke-width:-0.000393701; stroke-opacity:1; 
stroke-linecap:round; stroke-linejoin:round;">
</g>
<g style="fill:#000000; fill-opacity:0.0; 
stroke:#000000; stroke-width:0; stroke-opacity:1; 
stroke-linecap:round; stroke-linejoin:round;">
</g>
<g style="fill:#000000; fill-opacity:1.0; 
stroke:#000000; stroke-width:0; stroke-opacity:1; 
stroke-linecap:round; stroke-linejoin:round;">
<polyline style="fill-rule:evenodd;"
points="1889,10649
1889,10118
2421,10118
2421,10649
1889,10649
" /> 
</g>
<g style="fill:#000000; fill-opacity:1.0; 
stroke:#000000; stroke-width:531.496; stroke-opacity:1; 
stroke-linecap:round; stroke-linejoin:round;">
</g>
<g style="fill:#000000; fill-opacity:0.0; 
stroke:#000000; stroke-width:531.496; stroke-opacity:1; 
stroke-linecap:round; stroke-linejoin:round;">
<path d="M2155 9596
L2155 9596
" />
</g>
<g style="fill:#000000; fill-opacity:0.0; 
stroke:#000000; stroke-width:0; stroke-opacity:1; 
stroke-linecap:round; stroke-linejoin:round;">
</g>
<g style="fill:#000000; fill-opacity:1.0; 
stroke:#000000; stroke-width:0; stroke-opacity:1; 
stroke-linecap:round; stroke-linejoin:round;">
<polyline style="fill-rule:evenodd;"
points="29744,13956
30137,13956
30137,14192
29744,14192
29744,13956
" /> 
<polyline style="fill-rule:evenodd;"
points="29744,15226
30137,15226
30137,15462
29744,15462
29744,15226
" /> 
<polyline style="fill-rule:evenodd;"
points="30423,15334
30816,15334
30816,15944
30423,15944
30423,15334
" /> 
<polyline style="fill-rule:evenodd;"
points="30423,13484
30816,13484
30816,14094
30423,14094
30423,13484
" /> 
<circle cx="30895.7" cy="18454.7" r="866.142" /> 
</g>
<g style="fill:#000000; fill-opacity:1.0; 
stroke:#000000; stroke-width:39.3701; stroke-opacity:1; 
stroke-linecap:round; stroke-linejoin:round;">
</g>
<g style="fill:#000000; fill-opacity:1.0; 
stroke:#000000; stroke-width:0; stroke-opacity:1; 
stroke-linecap:round; stroke-linejoin:round;">
<circle cx="30895.7" cy="1525.59" r="866.142" /> 
</g>
<g style="fill:#000000; fill-opacity:1.0; 
stroke:#000000; stroke-width:39.3701; stroke-opacity:1; 
stroke-linecap:round; stroke-linejoin:round;">
</g>
<g style="fill:#000000; fill-opacity:1.0; 
stroke:#000000; stroke-width:0; stroke-opacity:1; 
stroke-linecap:round; stroke-linejoin:round;">
<circle cx="2175.98" cy="1525.59" r="866.142" /> 
</g>
<g style="fill:#000000; fill-opacity:1.0; 
stroke:#000000; stroke-width:39.3701; stroke-opacity:1; 
stroke-linecap:round; stroke-linejoin:round;">
</g>
<g style="fill:#000000; fill-opacity:1.0; 
stroke:#000000; stroke-width:0; stroke-opacity:1; 
stroke-linecap:round; stroke-linejoin:round;">
<polyline style="fill-rule:evenodd;"
points="2854,16240
2460,16240
2460,16003
2854,16003
2854,16240
" /> 
<polyline style="fill-rule:evenodd;"
points="2854,14970
2460,14970
2460,14734
2854,14734
2854,14970
" /> 
<polyline style="fill-rule:evenodd;"
points="2175,14862
1781,14862
1781,14251
2175,14251
2175,14862
" /> 
<polyline style="fill-rule:evenodd;"
points="2175,16712
1781,16712
1781,16102
2175,16102
2175,16712
" /> 
<polyline style="fill-rule:evenodd;"
points="2194,5767
1801,5767
1801,5157
2194,5157
2194,5767
" /> 
<polyline style="fill-rule:evenodd;"
points="2194,3917
1801,3917
1801,3307
2194,3307
2194,3917
" /> 
<polyline style="fill-rule:evenodd;"
points="2874,4025
2480,4025
2480,3789
2874,3789
2874,4025
" /> 
<polyline style="fill-rule:evenodd;"
points="2874,5295
2480,5295
2480,5059
2874,5059
2874,5295
" /> 
<polyline style="fill-rule:evenodd;"
points="2175,7096
1840,7096
1840,6466
2175,6466
2175,7096
" /> 
<polyline style="fill-rule:evenodd;"
points="2864,7096
2529,7096
2529,6466
2864,6466
2864,7096
" /> 
<polyline style="fill-rule:evenodd;"
points="2175,8474
1840,8474
1840,7844
2175,7844
2175,8474
" /> 
<polyline style="fill-rule:evenodd;"
points="2864,8474
2529,8474
2529,7844
2864,7844
2864,8474
" /> 
<polyline style="fill-rule:evenodd;"
points="30735,8528
29888,8528
29888,7938
30735,7938
30735,8528
" /> 
<polyline style="fill-rule:evenodd;"
points="31335,11250
30942,11250
30942,10698
31335,10698
31335,11250
" /> 
<polyline style="fill-rule:evenodd;"
points="30735,12072
29888,12072
29888,11481
30735,11481
30735,12072
" /> 
<polyline style="fill-rule:evenodd;"
points="31335,10246
30942,10246
30942,9734
31335,9734
31335,10246
" /> 
<polyline style="fill-rule:evenodd;"
points="31335,9281
30942,9281
30942,8730
31335,8730
31335,9281
" /> 
<circle cx="2155.51" cy="18454.7" r="866.142" /> 
</g>
<g style="fill:#000000; fill-opacity:1.0; 
stroke:#000000; stroke-width:39.3701; stroke-opacity:1; 
stroke-linecap:round; stroke-linejoin:round;">
</g>
<g style="fill:#000000; fill-opacity:1.0; 
stroke:#000000; stroke-width:0; stroke-opacity:1; 
stroke-linecap:round; stroke-linejoin:round;">
<polyline style="fill-rule:evenodd;"
points="2135,12096
1801,12096
1801,11466
2135,11466
2135,12096
" /> 
<polyline style="fill-rule:evenodd;"
points="2824,12096
2490,12096
2490,11466
2824,11466
2824,12096
" /> 
<polyline style="fill-rule:evenodd;"
points="2135,13474
1801,13474
1801,12844
2135,12844
2135,13474
" /> 
<polyline style="fill-rule:evenodd;"
points="2824,13474
2490,13474
2490,12844
2824,12844
2824,13474
" /> 
<polyline style="fill-rule:evenodd;"
points="30226,3120
31013,3120
31013,3316
30226,3316
30226,3120
" /> 
<polyline style="fill-rule:evenodd;"
points="30270,5383
30270,5540
29739,5540
29739,5383
30270,5383
" /> 
<polyline style="fill-rule:evenodd;"
points="30270,5127
30270,5285
29739,5285
29739,5127
30270,5127
" /> 
<polyline style="fill-rule:evenodd;"
points="30270,4871
30270,5029
29739,5029
29739,4871
30270,4871
" /> 
<polyline style="fill-rule:evenodd;"
points="30270,4615
30270,4773
29739,4773
29739,4615
30270,4615
" /> 
<polyline style="fill-rule:evenodd;"
points="30270,4359
30270,4517
29739,4517
29739,4359
30270,4359
" /> 
<polyline style="fill-rule:evenodd;"
points="30187,6584
30974,6584
30974,6781
30187,6781
30187,6584
" /> 
<circle cx="10895.7" cy="4360.24" r="275.591" /> 
</g>
<g style="fill:#000000; fill-opacity:1.0; 
stroke:#000000; stroke-width:39.3701; stroke-opacity:1; 
stroke-linecap:round; stroke-linejoin:round;">
</g>
<g style="fill:#000000; fill-opacity:1.0; 
stroke:#000000; stroke-width:0; stroke-opacity:1; 
stroke-linecap:round; stroke-linejoin:round;">
<circle cx="10895.7" cy="2549.21" r="275.591" /> 
</g>
<g style="fill:#000000; fill-opacity:1.0; 
stroke:#000000; stroke-width:39.3701; stroke-opacity:1; 
stroke-linecap:round; stroke-linejoin:round;">
</g>
<g style="fill:#000000; fill-opacity:1.0; 
stroke:#000000; stroke-width:0; stroke-opacity:1; 
stroke-linecap:round; stroke-linejoin:round;">
<circle cx="26446.9" cy="6486.22" r="275.591" /> 
</g>
<g style="fill:#000000; fill-opacity:1.0; 
stroke:#000000; stroke-width:39.3701; stroke-opacity:1; 
stroke-linecap:round; stroke-linejoin:round;">
</g>
<g style="fill:#000000; fill-opacity:1.0; 
stroke:#000000; stroke-width:0; stroke-opacity:1; 
stroke-linecap:round; stroke-linejoin:round;">
<circle cx="24320.9" cy="13297.2" r="275.591" /> 
</g>
<g style="fill:#000000; fill-opacity:1.0; 
stroke:#000000; stroke-width:39.3701; stroke-opacity:1; 
stroke-linecap:round; stroke-linejoin:round;">
</g>
<g style="fill:#000000; fill-opacity:1.0; 
stroke:#000000; stroke-width:0; stroke-opacity:1; 
stroke-linecap:round; stroke-linejoin:round;">
<circle cx="11919.3" cy="9675.2" r="275.591" /> 
</g>
<g style="fill:#000000; fill-opacity:1.0; 
stroke:#000000; stroke-width:39.3701; stroke-opacity:1; 
stroke-linecap:round; stroke-linejoin:round;">
</g>
<g style="fill:#000000; fill-opacity:1.0; 
stroke:#000000; stroke-width:0; stroke-opacity:1; 
stroke-linecap:round; stroke-linejoin:round;">
<circle cx="4084.65" cy="5895.67" r="275.591" /> 
</g>
<g style="fill:#000000; fill-opacity:1.0; 
stroke:#000000; stroke-width:39.3701; stroke-opacity:1; 
stroke-linecap:round; stroke-linejoin:round;">
</g>
<g style="fill:#000000; fill-opacity:1.0; 
stroke:#000000; stroke-width:0; stroke-opacity:1; 
stroke-linecap:round; stroke-linejoin:round;">
<circle cx="4950.79" cy="15383.9" r="275.591" /> 
</g>
<g style="fill:#000000; fill-opacity:1.0; 
stroke:#000000; stroke-width:39.3701; stroke-opacity:1; 
stroke-linecap:round; stroke-linejoin:round;">
</g>
<g style="fill:#000000; fill-opacity:1.0; 
stroke:#000000; stroke-width:0; stroke-opacity:1; 
stroke-linecap:round; stroke-linejoin:round;">
<circle cx="3690.95" cy="8218.5" r="275.591" /> 
</g>
<g style="fill:#000000; fill-opacity:1.0; 
stroke:#000000; stroke-width:39.3701; stroke-opacity:1; 
stroke-linecap:round; stroke-linejoin:round;">
</g>
<g style="fill:#000000; fill-opacity:1.0; 
stroke:#000000; stroke-width:0; stroke-opacity:1; 
stroke-linecap:round; stroke-linejoin:round;">
<circle cx="24793.3" cy="6486.22" r="275.591" /> 
</g>
<g style="fill:#000000; fill-opacity:1.0; 
stroke:#000000; stroke-width:39.3701; stroke-opacity:1; 
stroke-linecap:round; stroke-linejoin:round;">
</g>
<g style="fill:#000000; fill-opacity:1.0; 
stroke:#000000; stroke-width:0; stroke-opacity:1; 
stroke-linecap:round; stroke-linejoin:round;">
<circle cx="28297.2" cy="3612.21" r="275.591" /> 
</g>
<g style="fill:#000000; fill-opacity:1.0; 
stroke:#000000; stroke-width:39.3701; stroke-opacity:1; 
stroke-linecap:round; stroke-linejoin:round;">
</g>
<g style="fill:#000000; fill-opacity:1.0; 
stroke:#000000; stroke-width:0; stroke-opacity:1; 
stroke-linecap:round; stroke-linejoin:round;">
<circle cx="6171.26" cy="12628" r="275.591" /> 
</g>
<g style="fill:#000000; fill-opacity:1.0; 
stroke:#000000; stroke-width:39.3701; stroke-opacity:1; 
stroke-linecap:round; stroke-linejoin:round;">
</g>
<g style="fill:#000000; fill-opacity:1.0; 
stroke:#000000; stroke-width:0; stroke-opacity:1; 
stroke-linecap:round; stroke-linejoin:round;">
<circle cx="6171.26" cy="4675.2" r="275.591" /> 
</g>
<g style="fill:#000000; fill-opacity:1.0; 
stroke:#000000; stroke-width:39.3701; stroke-opacity:1; 
stroke-linecap:round; stroke-linejoin:round;">
</g>
<g style="fill:#000000; fill-opacity:1.0; 
stroke:#000000; stroke-width:0; stroke-opacity:1; 
stroke-linecap:round; stroke-linejoin:round;">
<circle cx="25620.1" cy="6486.22" r="275.591" /> 
</g>
<g style="fill:#000000; fill-opacity:1.0; 
stroke:#000000; stroke-width:39.3701; stroke-opacity:1; 
stroke-linecap:round; stroke-linejoin:round;">
</g>
<g style="fill:#000000; fill-opacity:1.0; 
stroke:#000000; stroke-width:0; stroke-opacity:1; 
stroke-linecap:round; stroke-linejoin:round;">
<circle cx="28730.3" cy="15620.1" r="275.591" /> 
</g>
<g style="fill:#000000; fill-opacity:1.0; 
stroke:#000000; stroke-width:39.3701; stroke-opacity:1; 
stroke-linecap:round; stroke-linejoin:round;">
</g>
<g style="fill:#000000; fill-opacity:1.0; 
stroke:#000000; stroke-width:0; stroke-opacity:1; 
stroke-linecap:round; stroke-linejoin:round;">
<circle cx="4911.42" cy="11840.6" r="275.591" /> 
</g>
<g style="fill:#000000; fill-opacity:1.0; 
stroke:#000000; stroke-width:39.3701; stroke-opacity:1; 
stroke-linecap:round; stroke-linejoin:round;">
</g>
<g style="fill:#000000; fill-opacity:1.0; 
stroke:#000000; stroke-width:0; stroke-opacity:1; 
stroke-linecap:round; stroke-linejoin:round;">
<circle cx="5265.75" cy="5856.3" r="275.591" /> 
</g>
<g style="fill:#000000; fill-opacity:1.0; 
stroke:#000000; stroke-width:39.3701; stroke-opacity:1; 
stroke-linecap:round; stroke-linejoin:round;">
</g>
<g style="fill:#000000; fill-opacity:1.0; 
stroke:#000000; stroke-width:0; stroke-opacity:1; 
stroke-linecap:round; stroke-linejoin:round;">
<circle cx="26565" cy="16643.7" r="275.591" /> 
</g>
<g style="fill:#000000; fill-opacity:1.0; 
stroke:#000000; stroke-width:39.3701; stroke-opacity:1; 
stroke-linecap:round; stroke-linejoin:round;">
</g>
<g style="fill:#000000; fill-opacity:1.0; 
stroke:#000000; stroke-width:0; stroke-opacity:1; 
stroke-linecap:round; stroke-linejoin:round;">
<circle cx="9635.83" cy="4360.24" r="275.591" /> 
</g>
<g style="fill:#000000; fill-opacity:1.0; 
stroke:#000000; stroke-width:39.3701; stroke-opacity:1; 
stroke-linecap:round; stroke-linejoin:round;">
</g>
<g style="fill:#000000; fill-opacity:1.0; 
stroke:#000000; stroke-width:0; stroke-opacity:1; 
stroke-linecap:round; stroke-linejoin:round;">
<circle cx="4045.28" cy="1525.59" r="275.591" /> 
</g>
<g style="fill:#000000; fill-opacity:1.0; 
stroke:#000000; stroke-width:39.3701; stroke-opacity:1; 
stroke-linecap:round; stroke-linejoin:round;">
</g>
<g style="fill:#000000; fill-opacity:1.0; 
stroke:#000000; stroke-width:0; stroke-opacity:1; 
stroke-linecap:round; stroke-linejoin:round;">
<circle cx="10226.4" cy="14596.5" r="275.591" /> 
</g>
<g style="fill:#000000; fill-opacity:1.0; 
stroke:#000000; stroke-width:39.3701; stroke-opacity:1; 
stroke-linecap:round; stroke-linejoin:round;">
</g>
<g style="fill:#000000; fill-opacity:1.0; 
stroke:#000000; stroke-width:0; stroke-opacity:1; 
stroke-linecap:round; stroke-linejoin:round;">
<circle cx="28690.9" cy="14059.1" r="275.591" /> 
</g>
<g style="fill:#000000; fill-opacity:1.0; 
stroke:#000000; stroke-width:39.3701; stroke-opacity:1; 
stroke-linecap:round; stroke-linejoin:round;">
</g>
<g style="fill:#000000; fill-opacity:1.0; 
stroke:#000000; stroke-width:0; stroke-opacity:1; 
stroke-linecap:round; stroke-linejoin:round;">
<circle cx="11171.3" cy="12785.4" r="275.591" /> 
</g>
<g style="fill:#000000; fill-opacity:1.0; 
stroke:#000000; stroke-width:39.3701; stroke-opacity:1; 
stroke-linecap:round; stroke-linejoin:round;">
</g>
<g style="fill:#000000; fill-opacity:1.0; 
stroke:#000000; stroke-width:196.85; stroke-opacity:1; 
stroke-linecap:round; stroke-linejoin:round;">
</g>
<g style="fill:#000000; fill-opacity:0.0; 
stroke:#000000; stroke-width:196.85; stroke-opacity:1; 
stroke-linecap:round; stroke-linejoin:round;">
<path d="M10895 4360
L10895 2549
" />
<path d="M26446 8966
L26446 6486
" />
<path d="M31138 9005
L26486 9005
" />
<path d="M26486 9005
L26446 8966
" />
</g>
<g style="fill:#000000; fill-opacity:0.0; 
stroke:#000000; stroke-width:236.22; stroke-opacity:1; 
stroke-linecap:round; stroke-linejoin:round;">
<path d="M2982 11781
L3631 11781
" />
<path d="M2657 11781
L2982 11781
" />
<path d="M2677 5177
L4133 5177
" />
<path d="M2657 14852
L3671 14852
" />
</g>
<g style="fill:#000000; fill-opacity:0.0; 
stroke:#000000; stroke-width:157.48; stroke-opacity:1; 
stroke-linecap:round; stroke-linejoin:round;">
<path d="M12309 9675
L11919 9675
" />
<path d="M23927 9675
L12309 9675
" />
<path d="M24320 13297
L24320 10068
" />
<path d="M24320 10068
L23927 9675
" />
</g>
<g style="fill:#000000; fill-opacity:0.0; 
stroke:#000000; stroke-width:196.85; stroke-opacity:1; 
stroke-linecap:round; stroke-linejoin:round;">
<path d="M4133 5177
L4143 5187
" />
</g>
<g style="fill:#000000; fill-opacity:0.0; 
stroke:#000000; stroke-width:236.22; stroke-opacity:1; 
stroke-linecap:round; stroke-linejoin:round;">
<path d="M2903 5935
L3395 5935
" />
<path d="M2696 6781
L2696 6141
" />
<path d="M2696 6141
L2903 5935
" />
</g>
<g style="fill:#000000; fill-opacity:0.0; 
stroke:#000000; stroke-width:196.85; stroke-opacity:1; 
stroke-linecap:round; stroke-linejoin:round;">
<path d="M3690 8887
L3690 8218
" />
</g>
<g style="fill:#000000; fill-opacity:0.0; 
stroke:#000000; stroke-width:157.48; stroke-opacity:1; 
stroke-linecap:round; stroke-linejoin:round;">
<path d="M27155 4438
L27155 4438
" />
<path d="M30004 4438
L27155 4438
" />
<path d="M24793 6096
L24793 6486
" />
<path d="M24793 4714
L24793 6096
" />
<path d="M27155 4438
L25068 4438
" />
<path d="M25068 4438
L24793 4714
" />
<path d="M27470 4438
L28021 3887
" />
<path d="M28021 3887
L28297 3612
" />
<path d="M27155 4438
L27470 4438
" />
<path d="M25620 10974
L31138 10974
" />
<path d="M25620 11868
L25620 10974
" />
<path d="M25620 6875
L25620 6486
" />
<path d="M25620 11868
L25620 6875
" />
<path d="M30004 5462
L25817 5462
" />
<path d="M25817 5462
L25620 5659
" />
<path d="M25620 5659
L25620 6486
" />
<path d="M28730 15230
L28730 15620
" />
</g>
<g style="fill:#000000; fill-opacity:0.0; 
stroke:#000000; stroke-width:196.85; stroke-opacity:1; 
stroke-linecap:round; stroke-linejoin:round;">
<path d="M21801 13336
L24084 15620
" />
<path d="M24084 15620
L28340 15620
" />
<path d="M28340 15620
L28730 15620
" />
</g>
<g style="fill:#000000; fill-opacity:0.0; 
stroke:#000000; stroke-width:157.48; stroke-opacity:1; 
stroke-linecap:round; stroke-linejoin:round;">
<path d="M28730 14978
L28730 15230
" />
<path d="M25620 11868
L28730 14978
" />
</g>
<g style="fill:#000000; fill-opacity:0.0; 
stroke:#000000; stroke-width:236.22; stroke-opacity:1; 
stroke-linecap:round; stroke-linejoin:round;">
<path d="M1968 13159
L1968 13996
" />
</g>
<g style="fill:#000000; fill-opacity:0.0; 
stroke:#000000; stroke-width:157.48; stroke-opacity:1; 
stroke-linecap:round; stroke-linejoin:round;">
<path d="M1968 13996
L1879 14084
" />
<path d="M1879 14084
L1643 14084
" />
</g>
<g style="fill:#000000; fill-opacity:0.0; 
stroke:#000000; stroke-width:236.22; stroke-opacity:1; 
stroke-linecap:round; stroke-linejoin:round;">
<path d="M2194 7470
L4478 7470
" />
<path d="M2007 8159
L2007 7657
" />
<path d="M2007 7657
L2194 7470
" />
</g>
<g style="fill:#000000; fill-opacity:0.0; 
stroke:#000000; stroke-width:157.48; stroke-opacity:1; 
stroke-linecap:round; stroke-linejoin:round;">
<path d="M28061 16643
L26564 16643
" />
<path d="M29940 15344
L29360 15344
" />
<path d="M1358 6043
L1358 5580
" />
<path d="M1446 6131
L1358 6043
" />
<path d="M1938 6131
L1446 6131
" />
</g>
<g style="fill:#000000; fill-opacity:0.0; 
stroke:#000000; stroke-width:236.22; stroke-opacity:1; 
stroke-linecap:round; stroke-linejoin:round;">
<path d="M2007 6781
L2007 6200
" />
</g>
<g style="fill:#000000; fill-opacity:0.0; 
stroke:#000000; stroke-width:157.48; stroke-opacity:1; 
stroke-linecap:round; stroke-linejoin:round;">
<path d="M2007 6200
L1938 6131
" />
</g>
<g style="fill:#000000; fill-opacity:0.0; 
stroke:#000000; stroke-width:196.85; stroke-opacity:1; 
stroke-linecap:round; stroke-linejoin:round;">
<path d="M2175 1525
L4045 1525
" />
</g>
<g style="fill:#000000; fill-opacity:0.0; 
stroke:#000000; stroke-width:236.22; stroke-opacity:1; 
stroke-linecap:round; stroke-linejoin:round;">
<path d="M2657 16122
L4251 16122
" />
</g>
<g style="fill:#000000; fill-opacity:0.0; 
stroke:#000000; stroke-width:157.48; stroke-opacity:1; 
stroke-linecap:round; stroke-linejoin:round;">
<path d="M28706 14074
L28690 14059
" />
</g>
<g style="fill:#000000; fill-opacity:0.0; 
stroke:#000000; stroke-width:236.22; stroke-opacity:1; 
stroke-linecap:round; stroke-linejoin:round;">
<path d="M29940 14074
L28706 14074
" />
<path d="M1545 11781
L1968 11781
" />
<path d="M2696 8740
L2549 8887
" />
<path d="M2549 8887
L1466 8887
" />
<path d="M1466 8887
L1377 8976
" />
<path d="M2696 8159
L2696 8740
" />
<path d="M1377 8976
L1377 11614
" />
<path d="M1377 11614
L1545 11781
" />
</g>
<g style="fill:#000000; fill-opacity:0.0; 
stroke:#000000; stroke-width:314.961; stroke-opacity:1; 
stroke-linecap:round; stroke-linejoin:round;">
<path d="M6505 3907
L6801 4202
" />
<path d="M2677 3907
L6505 3907
" />
<path d="M6801 4202
L6801 12785
" />
</g>
<g style="fill:#000000; fill-opacity:1.0; 
stroke:#000000; stroke-width:100; stroke-opacity:1; 
stroke-linecap:round; stroke-linejoin:round;">
<polyline style="fill-rule:evenodd;"
points="28680,4084
28681,4094
28684,4103
28688,4112
28694,4120
28702,4126
28712,4131
29532,4438
28721,4743
25108,4743
25098,4744
25089,4747
25080,4751
25072,4757
25066,4765
25062,4774
25059,4783
25058,4793
25058,6790
24528,6790
24528,3307
28680,3307
28680,4084
" /> 
<polyline style="fill-rule:evenodd;"
points="26711,8730
26712,8740
26715,8749
26720,8758
26726,8765
26734,8771
26742,8776
26752,8779
26761,8780
31278,8780
31278,9231
26181,9231
26181,6181
26711,6181
26711,8730
" /> 
<polyline style="fill-rule:evenodd;"
points="11869,1829
10383,1829
10374,1830
10364,1833
10356,1838
10348,1844
10342,1852
10337,1860
10334,1870
10333,1879
10333,2420
1250,2420
1250,1529
1268,1349
1319,1180
1402,1025
1513,888
1649,775
1805,691
1973,639
2152,620
2155,620
11869,620
11869,1829
" /> 
<polyline style="fill-rule:evenodd;"
points="4388,6200
3150,6200
3150,4449
4388,4449
4388,6200
" /> 
<polyline style="fill-rule:evenodd;"
points="6396,13050
5945,13050
5945,4449
6396,4449
6396,13050
" /> 
<polyline style="fill-rule:evenodd;"
points="3995,15029
3996,15039
3999,15048
4003,15057
4009,15064
4017,15071
4026,15075
4035,15078
4045,15079
6672,15079
6672,15688
3386,15688
3386,7914
3995,7914
3995,15029
" /> 
<polyline style="fill-rule:evenodd;"
points="10530,14900
7273,14900
7263,14901
7254,14904
7245,14909
7238,14915
7232,14923
7227,14931
7224,14941
7223,14950
7223,16554
3386,16554
3386,15985
6958,15985
6968,15984
6977,15981
6986,15976
6994,15970
7000,15962
7004,15954
7007,15944
7008,15935
7008,14292
10530,14292
10530,14900
" /> 
<polyline style="fill-rule:evenodd;"
points="24625,13601
24016,13601
24016,10029
24015,10019
24012,10010
24008,10001
24001,9994
23994,9987
23985,9983
23976,9980
23966,9979
11614,9979
11614,9370
24625,9370
24625,13601
" /> 
<polyline style="fill-rule:evenodd;"
points="29703,15412
29438,15412
29429,15413
29419,15416
29411,15421
29403,15427
29397,15434
29392,15443
29389,15452
29388,15462
29388,16948
26221,16948
26221,16339
29202,16339
29212,16338
29221,16335
29230,16330
29238,16324
29244,16317
29248,16308
29251,16299
29252,16289
29252,15276
29703,15276
29703,15412
" /> 
<polyline style="fill-rule:evenodd;"
points="29507,14349
28425,14349
28425,13780
29507,13780
29507,14349
" /> 
<polyline style="fill-rule:evenodd;"
points="31800,18450
31782,18630
31731,18799
31648,18955
31537,19091
31401,19204
31246,19288
31077,19340
30898,19359
30895,19359
29803,19359
29803,16339
31800,16339
31800,18450
" /> 
<polyline style="fill-rule:evenodd;"
points="31071,638
31240,689
31396,772
31532,883
31645,1019
31729,1175
31781,1343
31800,1523
31800,1525
31800,7499
27048,7499
27048,5935
27047,5925
27044,5915
27039,5907
27033,5899
27025,5893
27017,5888
27007,5886
26998,5885
25935,5885
25925,5886
25915,5888
25907,5893
25899,5899
25893,5907
25888,5915
25886,5925
25885,5935
25885,9517
25886,9527
25888,9536
25893,9545
25899,9553
25907,9559
25915,9563
25925,9566
25935,9567
30491,9567
30491,10738
30492,10747
30495,10757
30499,10765
30505,10773
30513,10779
30522,10784
30531,10787
30541,10788
31278,10788
31278,11160
29557,11160
29547,11161
29537,11164
29529,11169
29521,11175
29515,11182
29510,11191
29508,11200
29507,11210
29507,12273
29508,12283
29510,12292
29515,12301
29521,12308
29529,12315
29537,12319
29547,12322
29557,12323
30097,12323
30097,13522
28218,13522
28208,13523
28199,13526
28190,13531
28183,13537
28176,13545
28172,13553
28169,13563
28168,13572
28168,14557
28169,14566
28172,14576
28176,14584
28183,14592
28190,14598
28199,14603
28208,14606
28218,14607
28995,14607
28995,16042
25738,16042
25728,16043
25719,16046
25710,16050
25702,16057
25696,16064
25691,16073
25689,16082
25688,16092
25688,17352
25689,17362
25691,17371
25696,17380
25702,17387
25710,17393
25719,17398
25728,17401
25738,17402
29428,17402
29428,19359
2159,19359
1979,19341
1810,19290
1655,19207
1518,19096
1405,18960
1321,18805
1269,18636
1250,18457
1250,18454
1250,13977
2106,13977
2108,14122
1781,14122
1756,14125
1731,14132
1709,14144
1690,14160
1673,14180
1661,14202
1654,14226
1652,14251
1652,14862
1654,14887
1661,14911
1673,14934
1690,14953
1709,14969
1731,14981
1756,14989
1781,14991
2119,14991
2132,15972
1781,15972
1756,15975
1731,15982
1709,15994
1690,16010
1673,16030
1661,16052
1654,16077
1652,16102
1652,16712
1654,16737
1661,16762
1673,16784
1690,16804
1709,16820
1731,16832
1756,16839
1781,16841
2144,16841
2144,16880
2145,16890
2148,16899
2153,16908
2160,16915
2167,16921
2176,16926
2185,16929
2194,16929
7470,16929
7480,16928
7489,16926
7498,16921
7505,16915
7512,16907
7516,16899
7519,16889
7520,16879
7520,15197
10777,15197
10787,15196
10796,15193
10805,15189
10812,15182
10819,15175
10823,15166
10826,15157
10827,15147
10827,14045
10826,14035
10823,14026
10819,14017
10812,14009
10805,14003
10796,13999
10787,13996
10777,13995
6722,13995
6712,13996
6703,13999
6694,14003
6687,14009
6680,14017
6676,14026
6673,14035
6672,14045
6672,14782
4292,14782
4292,7588
4291,7578
4288,7569
4283,7560
4277,7553
4269,7547
4261,7542
4251,7539
4242,7538
3386,7538
3386,6536
4950,6536
4960,6535
4969,6532
4978,6527
4986,6521
4992,6513
4996,6505
4999,6495
5000,6486
5000,4449
5530,4449
5530,13297
5531,13306
5534,13316
5539,13325
5545,13332
5552,13338
5561,13343
5570,13346
5580,13347
11722,13347
11732,13346
11741,13343
11750,13338
11757,13332
11764,13325
11768,13316
11771,13306
11772,13297
11772,12234
11771,12224
11768,12215
11764,12206
11757,12198
11750,12192
11741,12188
11732,12185
11722,12184
7244,12184
7244,9084
11239,9084
11239,10265
11240,10275
11243,10284
11247,10293
11254,10301
11261,10307
11270,10311
11279,10314
11289,10315
23680,10315
23680,13927
23681,13936
23684,13946
23688,13954
23694,13962
23702,13968
23711,13973
23720,13976
23730,13977
24911,13977
24921,13976
24930,13973
24939,13968
24946,13962
24952,13954
24957,13946
24960,13936
24961,13927
24961,9084
24960,9074
24957,9065
24952,9056
24946,9049
24939,9043
24930,9038
24921,9035
24911,9034
11289,9034
11279,9035
11270,9038
11261,9043
11254,9049
11247,9056
11243,9065
11240,9074
11239,9084
7244,9084
7244,4922
11446,4922
11456,4921
11465,4918
11474,4913
11482,4907
11488,4899
11493,4891
11495,4881
11496,4872
11496,3061
24231,3061
24231,7037
24232,7047
24235,7056
24239,7065
24246,7072
24253,7078
24262,7083
24271,7086
24281,7087
25305,7087
25314,7086
25324,7083
25332,7078
25340,7072
25346,7065
25351,7056
25354,7047
25355,7037
25355,5040
28680,5040
28680,5147
28681,5157
28684,5166
28688,5175
28694,5182
28702,5189
28713,5194
29483,5462
28713,5730
28704,5734
28697,5740
28690,5747
28685,5755
28681,5764
28680,5777
28680,5935
28681,5944
28684,5954
28688,5962
28694,5970
28702,5976
28711,5981
28720,5984
28730,5985
30580,5985
30590,5984
30599,5981
30608,5976
30616,5970
30622,5962
30626,5954
30629,5944
30630,5935
30630,3966
30629,3956
30626,3947
30622,3938
30616,3931
30608,3924
30599,3920
30590,3917
30580,3916
29213,3916
29213,3061
29212,3051
29209,3041
29204,3033
29198,3025
29191,3019
29182,3014
29173,3011
29163,3011
24281,3011
24271,3011
24262,3014
24253,3019
24246,3025
24239,3033
24235,3041
24232,3051
24231,3061
11496,3061
11496,2205
12155,2205
12165,2204
12174,2201
12183,2197
12190,2190
12197,2183
12201,2174
12204,2165
12205,2155
12205,620
30891,620
31071,638
" /> 
<polyline style="fill-rule:evenodd;"
points="11200,4664
10591,4664
10591,2205
11200,2205
11200,4664
" /> 
<polyline style="fill-rule:evenodd;"
points="10333,4662
7244,4664
7244,3139
7243,3130
7241,3120
7236,3111
7230,3104
7222,3098
7214,3093
7204,3090
7194,3089
2599,3089
2599,2982
2598,2972
2595,2963
2590,2954
2584,2946
2576,2940
2568,2936
2558,2933
2549,2932
2194,2932
2185,2933
2175,2936
2167,2940
2159,2946
2153,2954
2148,2963
2145,2972
2144,2982
2144,3177
1801,3177
1775,3180
1751,3187
1729,3199
1709,3215
1693,3235
1681,3257
1674,3281
1671,3307
1671,3917
1674,3942
1681,3966
1693,3989
1709,4008
1729,4024
1751,4036
1775,4044
1801,4046
2144,4046
2144,5028
1801,5028
1775,5030
1751,5037
1729,5049
1709,5066
1693,5085
1681,5107
1674,5132
1671,5157
1671,5767
1674,5792
1681,5817
1693,5839
1709,5859
1729,5875
1751,5887
1775,5894
1801,5897
2144,5897
2144,6200
1250,6200
1250,2756
10333,2756
10333,4662
" /> 
<polyline style="fill-rule:evenodd;"
points="11436,13050
6693,13050
6693,12520
11436,12520
11436,13050
" /> 
<polyline style="fill-rule:evenodd;"
points="6908,4192
3150,4192
3150,3504
6908,3504
6908,4192
" /> 
<polyline style="fill-rule:evenodd;"
points="29759,8483
27048,8483
27048,7992
29759,7992
29759,8483
" /> 
<polyline style="fill-rule:evenodd;"
points="31800,8483
30864,8483
30864,7992
31800,7992
31800,8483
" /> 
<polyline style="fill-rule:evenodd;"
points="31800,12026
30864,12026
30864,11536
31800,11536
31800,12026
" /> 
<polyline style="fill-rule:evenodd;"
points="31800,16042
30900,16042
30908,16036
30924,16016
30936,15994
30943,15970
30946,15944
30946,15334
30943,15309
30936,15285
30924,15262
30908,15243
30888,15227
30866,15215
30842,15207
30816,15205
30473,15205
30473,14223
30816,14223
30842,14221
30866,14214
30888,14202
30908,14185
30924,14166
30936,14143
30943,14119
30946,14094
30946,13484
30943,13459
30936,13434
30924,13412
30908,13392
30888,13376
30866,13364
30842,13357
30816,13354
30473,13354
30473,12323
31800,12323
31800,16042
" /> 
</g>
<g style="fill:#FFFFFF; fill-opacity:1.0; 
stroke:#FFFFFF; stroke-width:100; stroke-opacity:1; 
stroke-linecap:round; stroke-linejoin:round;">
</g>
<g style="fill:#FFFFFF; fill-opacity:1.0; 
stroke:#FFFFFF; stroke-width:0; stroke-opacity:1; 
stroke-linecap:round; stroke-linejoin:round;">
<circle cx="10895.7" cy="4360.24" r="157.48" /> 
</g>
<g style="fill:#FFFFFF; fill-opacity:1.0; 
stroke:#FFFFFF; stroke-width:39.3701; stroke-opacity:1; 
stroke-linecap:round; stroke-linejoin:round;">
</g>
<g style="fill:#FFFFFF; fill-opacity:1.0; 
stroke:#FFFFFF; stroke-width:0; stroke-opacity:1; 
stroke-linecap:round; stroke-linejoin:round;">
<circle cx="10895.7" cy="2549.21" r="157.48" /> 
</g>
<g style="fill:#FFFFFF; fill-opacity:1.0; 
stroke:#FFFFFF; stroke-width:39.3701; stroke-opacity:1; 
stroke-linecap:round; stroke-linejoin:round;">
</g>
<g style="fill:#FFFFFF; fill-opacity:1.0; 
stroke:#FFFFFF; stroke-width:0; stroke-opacity:1; 
stroke-linecap:round; stroke-linejoin:round;">
<circle cx="26446.9" cy="6486.22" r="157.48" /> 
</g>
<g style="fill:#FFFFFF; fill-opacity:1.0; 
stroke:#FFFFFF; stroke-width:39.3701; stroke-opacity:1; 
stroke-linecap:round; stroke-linejoin:round;">
</g>
<g style="fill:#FFFFFF; fill-opacity:1.0; 
stroke:#FFFFFF; stroke-width:0; stroke-opacity:1; 
stroke-linecap:round; stroke-linejoin:round;">
<circle cx="24320.9" cy="13297.2" r="157.48" /> 
</g>
<g style="fill:#FFFFFF; fill-opacity:1.0; 
stroke:#FFFFFF; stroke-width:39.3701; stroke-opacity:1; 
stroke-linecap:round; stroke-linejoin:round;">
</g>
<g style="fill:#FFFFFF; fill-opacity:1.0; 
stroke:#FFFFFF; stroke-width:0; stroke-opacity:1; 
stroke-linecap:round; stroke-linejoin:round;">
<circle cx="11919.3" cy="9675.2" r="157.48" /> 
</g>
<g style="fill:#FFFFFF; fill-opacity:1.0; 
stroke:#FFFFFF; stroke-width:39.3701; stroke-opacity:1; 
stroke-linecap:round; stroke-linejoin:round;">
</g>
<g style="fill:#FFFFFF; fill-opacity:1.0; 
stroke:#FFFFFF; stroke-width:0; stroke-opacity:1; 
stroke-linecap:round; stroke-linejoin:round;">
<circle cx="4084.65" cy="5895.67" r="157.48" /> 
</g>
<g style="fill:#FFFFFF; fill-opacity:1.0; 
stroke:#FFFFFF; stroke-width:39.3701; stroke-opacity:1; 
stroke-linecap:round; stroke-linejoin:round;">
</g>
<g style="fill:#FFFFFF; fill-opacity:1.0; 
stroke:#FFFFFF; stroke-width:0; stroke-opacity:1; 
stroke-linecap:round; stroke-linejoin:round;">
<circle cx="4950.79" cy="15383.9" r="157.48" /> 
</g>
<g style="fill:#FFFFFF; fill-opacity:1.0; 
stroke:#FFFFFF; stroke-width:39.3701; stroke-opacity:1; 
stroke-linecap:round; stroke-linejoin:round;">
</g>
<g style="fill:#FFFFFF; fill-opacity:1.0; 
stroke:#FFFFFF; stroke-width:0; stroke-opacity:1; 
stroke-linecap:round; stroke-linejoin:round;">
<circle cx="3690.95" cy="8218.5" r="157.48" /> 
</g>
<g style="fill:#FFFFFF; fill-opacity:1.0; 
stroke:#FFFFFF; stroke-width:39.3701; stroke-opacity:1; 
stroke-linecap:round; stroke-linejoin:round;">
</g>
<g style="fill:#FFFFFF; fill-opacity:1.0; 
stroke:#FFFFFF; stroke-width:0; stroke-opacity:1; 
stroke-linecap:round; stroke-linejoin:round;">
<circle cx="24793.3" cy="6486.22" r="157.48" /> 
</g>
<g style="fill:#FFFFFF; fill-opacity:1.0; 
stroke:#FFFFFF; stroke-width:39.3701; stroke-opacity:1; 
stroke-linecap:round; stroke-linejoin:round;">
</g>
<g style="fill:#FFFFFF; fill-opacity:1.0; 
stroke:#FFFFFF; stroke-width:0; stroke-opacity:1; 
stroke-linecap:round; stroke-linejoin:round;">
<circle cx="28297.2" cy="3612.21" r="157.48" /> 
</g>
<g style="fill:#FFFFFF; fill-opacity:1.0; 
stroke:#FFFFFF; stroke-width:39.3701; stroke-opacity:1; 
stroke-linecap:round; stroke-linejoin:round;">
</g>
<g style="fill:#FFFFFF; fill-opacity:1.0; 
stroke:#FFFFFF; stroke-width:0; stroke-opacity:1; 
stroke-linecap:round; stroke-linejoin:round;">
<circle cx="6171.26" cy="12628" r="157.48" /> 
</g>
<g style="fill:#FFFFFF; fill-opacity:1.0; 
stroke:#FFFFFF; stroke-width:39.3701; stroke-opacity:1; 
stroke-linecap:round; stroke-linejoin:round;">
</g>
<g style="fill:#FFFFFF; fill-opacity:1.0; 
stroke:#FFFFFF; stroke-width:0; stroke-opacity:1; 
stroke-linecap:round; stroke-linejoin:round;">
<circle cx="6171.26" cy="4675.2" r="157.48" /> 
</g>
<g style="fill:#FFFFFF; fill-opacity:1.0; 
stroke:#FFFFFF; stroke-width:39.3701; stroke-opacity:1; 
stroke-linecap:round; stroke-linejoin:round;">
</g>
<g style="fill:#FFFFFF; fill-opacity:1.0; 
stroke:#FFFFFF; stroke-width:0; stroke-opacity:1; 
stroke-linecap:round; stroke-linejoin:round;">
<circle cx="25620.1" cy="6486.22" r="157.48" /> 
</g>
<g style="fill:#FFFFFF; fill-opacity:1.0; 
stroke:#FFFFFF; stroke-width:39.3701; stroke-opacity:1; 
stroke-linecap:round; stroke-linejoin:round;">
</g>
<g style="fill:#FFFFFF; fill-opacity:1.0; 
stroke:#FFFFFF; stroke-width:0; stroke-opacity:1; 
stroke-linecap:round; stroke-linejoin:round;">
<circle cx="28730.3" cy="15620.1" r="157.48" /> 
</g>
<g style="fill:#FFFFFF; fill-opacity:1.0; 
stroke:#FFFFFF; stroke-width:39.3701; stroke-opacity:1; 
stroke-linecap:round; stroke-linejoin:round;">
</g>
<g style="fill:#FFFFFF; fill-opacity:1.0; 
stroke:#FFFFFF; stroke-width:0; stroke-opacity:1; 
stroke-linecap:round; stroke-linejoin:round;">
<circle cx="4911.42" cy="11840.6" r="157.48" /> 
</g>
<g style="fill:#FFFFFF; fill-opacity:1.0; 
stroke:#FFFFFF; stroke-width:39.3701; stroke-opacity:1; 
stroke-linecap:round; stroke-linejoin:round;">
</g>
<g style="fill:#FFFFFF; fill-opacity:1.0; 
stroke:#FFFFFF; stroke-width:0; stroke-opacity:1; 
stroke-linecap:round; stroke-linejoin:round;">
<circle cx="5265.75" cy="5856.3" r="157.48" /> 
</g>
<g style="fill:#FFFFFF; fill-opacity:1.0; 
stroke:#FFFFFF; stroke-width:39.3701; stroke-opacity:1; 
stroke-linecap:round; stroke-linejoin:round;">
</g>
<g style="fill:#FFFFFF; fill-opacity:1.0; 
stroke:#FFFFFF; stroke-width:0; stroke-opacity:1; 
stroke-linecap:round; stroke-linejoin:round;">
<circle cx="26565" cy="16643.7" r="157.48" /> 
</g>
<g style="fill:#FFFFFF; fill-opacity:1.0; 
stroke:#FFFFFF; stroke-width:39.3701; stroke-opacity:1; 
stroke-linecap:round; stroke-linejoin:round;">
</g>
<g style="fill:#FFFFFF; fill-opacity:1.0; 
stroke:#FFFFFF; stroke-width:0; stroke-opacity:1; 
stroke-linecap:round; stroke-linejoin:round;">
<circle cx="9635.83" cy="4360.24" r="157.48" /> 
</g>
<g style="fill:#FFFFFF; fill-opacity:1.0; 
stroke:#FFFFFF; stroke-width:39.3701; stroke-opacity:1; 
stroke-linecap:round; stroke-linejoin:round;">
</g>
<g style="fill:#FFFFFF; fill-opacity:1.0; 
stroke:#FFFFFF; stroke-width:0; stroke-opacity:1; 
stroke-linecap:round; stroke-linejoin:round;">
<circle cx="4045.28" cy="1525.59" r="157.48" /> 
</g>
<g style="fill:#FFFFFF; fill-opacity:1.0; 
stroke:#FFFFFF; stroke-width:39.3701; stroke-opacity:1; 
stroke-linecap:round; stroke-linejoin:round;">
</g>
<g style="fill:#FFFFFF; fill-opacity:1.0; 
stroke:#FFFFFF; stroke-width:0; stroke-opacity:1; 
stroke-linecap:round; stroke-linejoin:round;">
<circle cx="10226.4" cy="14596.5" r="157.48" /> 
</g>
<g style="fill:#FFFFFF; fill-opacity:1.0; 
stroke:#FFFFFF; stroke-width:39.3701; stroke-opacity:1; 
stroke-linecap:round; stroke-linejoin:round;">
</g>
<g style="fill:#FFFFFF; fill-opacity:1.0; 
stroke:#FFFFFF; stroke-width:0; stroke-opacity:1; 
stroke-linecap:round; stroke-linejoin:round;">
<circle cx="28690.9" cy="14059.1" r="157.48" /> 
</g>
<g style="fill:#FFFFFF; fill-opacity:1.0; 
stroke:#FFFFFF; stroke-width:39.3701; stroke-opacity:1; 
stroke-linecap:round; stroke-linejoin:round;">
</g>
<g style="fill:#FFFFFF; fill-opacity:1.0; 
stroke:#FFFFFF; stroke-width:0; stroke-opacity:1; 
stroke-linecap:round; stroke-linejoin:round;">
<circle cx="11171.3" cy="12785.4" r="157.48" /> 
</g>
<g style="fill:#FFFFFF; fill-opacity:1.0; 
stroke:#FFFFFF; stroke-width:39.3701; stroke-opacity:1; 
stroke-linecap:round; stroke-linejoin:round;">
</g>
<g style="fill:#FFFFFF; fill-opacity:1.0; 
stroke:#FFFFFF; stroke-width:0; stroke-opacity:1; 
stroke-linecap:round; stroke-linejoin:round;">
<circle cx="2155.51" cy="10383.9" r="157.48" /> 
</g>
<g style="fill:#FFFFFF; fill-opacity:1.0; 
stroke:#FFFFFF; stroke-width:39.3701; stroke-opacity:1; 
stroke-linecap:round; stroke-linejoin:round;">
</g>
<g style="fill:#FFFFFF; fill-opacity:1.0; 
stroke:#FFFFFF; stroke-width:0; stroke-opacity:1; 
stroke-linecap:round; stroke-linejoin:round;">
<circle cx="2155.51" cy="9596.46" r="157.48" /> 
</g>
<g style="fill:#FFFFFF; fill-opacity:1.0; 
stroke:#FFFFFF; stroke-width:39.3701; stroke-opacity:1; 
stroke-linecap:round; stroke-linejoin:round;">
</g>
<g style="fill:#FFFFFF; fill-opacity:1.0; 
stroke:#FFFFFF; stroke-width:0; stroke-opacity:1; 
stroke-linecap:round; stroke-linejoin:round;">
<circle cx="30895.7" cy="18454.7" r="433.071" /> 
</g>
<g style="fill:#FFFFFF; fill-opacity:1.0; 
stroke:#FFFFFF; stroke-width:39.3701; stroke-opacity:1; 
stroke-linecap:round; stroke-linejoin:round;">
</g>
<g style="fill:#FFFFFF; fill-opacity:1.0; 
stroke:#FFFFFF; stroke-width:0; stroke-opacity:1; 
stroke-linecap:round; stroke-linejoin:round;">
<circle cx="30895.7" cy="1525.59" r="433.071" /> 
</g>
<g style="fill:#FFFFFF; fill-opacity:1.0; 
stroke:#FFFFFF; stroke-width:39.3701; stroke-opacity:1; 
stroke-linecap:round; stroke-linejoin:round;">
</g>
<g style="fill:#FFFFFF; fill-opacity:1.0; 
stroke:#FFFFFF; stroke-width:0; stroke-opacity:1; 
stroke-linecap:round; stroke-linejoin:round;">
<circle cx="2175.98" cy="1525.59" r="433.071" /> 
</g>
<g style="fill:#FFFFFF; fill-opacity:1.0; 
stroke:#FFFFFF; stroke-width:39.3701; stroke-opacity:1; 
stroke-linecap:round; stroke-linejoin:round;">
</g>
<g style="fill:#FFFFFF; fill-opacity:1.0; 
stroke:#FFFFFF; stroke-width:0; stroke-opacity:1; 
stroke-linecap:round; stroke-linejoin:round;">
<circle cx="2155.51" cy="18454.7" r="433.071" /> 
</g>
<g style="fill:#FFFFFF; fill-opacity:1.0; 
stroke:#FFFFFF; stroke-width:39.3701; stroke-opacity:1; 
stroke-linecap:round; stroke-linejoin:round;">
</g>
<g style="fill:#000000; fill-opacity:1.0; 
stroke:#000000; stroke-width:39.3701; stroke-opacity:1; 
stroke-linecap:round; stroke-linejoin:round;">
</g> 
</svg>
