<?xml version="1.0" standalone="no"?>
 <!DOCTYPE svg PUBLIC "-//W3C//DTD SVG 1.1//EN" 
 "http://www.w3.org/Graphics/SVG/1.1/DTD/svg11.dtd"> 
<svg xmlns="http://www.w3.org/2000/svg" version="1.1" 
    width="8.2042cm" height="5.08254cm" viewBox="0 0 32300 20010 ">
<title>SVG Picture created as eside_rev15-F.Fab.svg date 2018/08/29 18:39:15 </title>
  <desc>Picture generated by PCBNEW </desc>
<g style="fill:#000000; fill-opacity:1;stroke:#000000; stroke-opacity:1;
stroke-linecap:round; stroke-linejoin:round; "
 transform="translate(0 0) scale(1 1)">
</g>
<g style="fill:#000000; fill-opacity:0.0; 
stroke:#000000; stroke-width:-0.000393701; stroke-opacity:1; 
stroke-linecap:round; stroke-linejoin:round;">
</g>
<g style="fill:#000000; fill-opacity:0.0; 
stroke:#000000; stroke-width:39.3701; stroke-opacity:1; 
stroke-linecap:round; stroke-linejoin:round;">
<path d="M30068 11722
L30068 11210
" />
<path d="M30068 11210
L29950 11092
" />
<path d="M29950 11092
L29753 11092
" />
<path d="M29753 11092
L29753 11722
" />
<path d="M29753 11722
L30068 11722
" />
<path d="M5738 7273
L5738 7903
" />
<path d="M5423 7273
L5738 7273
" />
<path d="M5423 7903
L5423 7273
" />
<path d="M5738 7903
L5423 7903
" />
<path d="M12746 9832
L12746 9517
" />
<path d="M12746 9517
L13375 9517
" />
<path d="M13375 9517
L13375 9832
" />
<path d="M13375 9832
L12746 9832
" />
<path d="M5108 4990
L5108 4360
" />
<path d="M5423 4990
L5108 4990
" />
<path d="M5423 4360
L5423 4990
" />
<path d="M5108 4360
L5423 4360
" />
<path d="M5108 14419
L4793 14419
" />
<path d="M4793 14419
L4793 13789
" />
<path d="M4793 13789
L5108 13789
" />
<path d="M5108 13789
L5108 14419
" />
<path d="M11840 4596
L11840 4124
" />
<path d="M11840 4124
L12627 4124
" />
<path d="M12627 4124
L12627 4596
" />
<path d="M12627 4596
L11840 4596
" />
<path d="M2647 12706
L1663 12706
" />
<path d="M1663 12706
L1663 11446
" />
<path d="M1663 11446
L2647 11446
" />
<path d="M2647 11446
L2647 12706
" />
<path d="M9714 2903
L9714 3494
" />
<path d="M9714 3494
L4990 3494
" />
<path d="M4990 3494
L4990 2706
" />
<path d="M4990 2706
L9517 2706
" />
<path d="M9517 2706
L9714 2903
" />
<path d="M10659 5344
L11131 5344
" />
<path d="M11131 5344
L11131 6131
" />
<path d="M11131 6131
L10659 6131
" />
<path d="M10659 6131
L10659 5344
" />
<path d="M30383 5305
L29872 5305
" />
<path d="M29872 5305
L29753 5423
" />
<path d="M29753 5423
L29753 5620
" />
<path d="M29753 5620
L30383 5620
" />
<path d="M30383 5620
L30383 5305
" />
<path d="M28966 5226
L28966 5698
" />
<path d="M28966 5698
L28179 5698
" />
<path d="M28179 5698
L28179 5226
" />
<path d="M28179 5226
L28966 5226
" />
<path d="M4438 7194
L4911 7194
" />
<path d="M4911 7194
L4911 7982
" />
<path d="M4911 7982
L4438 7982
" />
<path d="M4438 7982
L4438 7194
" />
<path d="M26899 14773
L25757 14773
" />
<path d="M25757 14773
L25757 12844
" />
<path d="M25757 12844
L27293 12844
" />
<path d="M27293 12844
L27293 14379
" />
<path d="M27293 14379
L26899 14773
" />
<path d="M23572 4635
L23572 5108
" />
<path d="M23572 5108
L22785 5108
" />
<path d="M22785 5108
L22785 4635
" />
<path d="M22785 4635
L23572 4635
" />
</g>
<g style="fill:#000000; fill-opacity:0.0; 
stroke:#000000; stroke-width:59.0551; stroke-opacity:1; 
stroke-linecap:round; stroke-linejoin:round;">
<path d="M9517 11210
L7155 11210
" />
<path d="M7155 11210
L7155 8454
" />
<path d="M7155 8454
L9911 8454
" />
<path d="M9911 8454
L9911 10816
" />
<path d="M9911 10816
L9517 11210
" />
<path d="M25423 4399
L26210 4399
" />
<path d="M26210 4399
L26210 5580
" />
<path d="M26210 5580
L25029 5580
" />
<path d="M25029 5580
L25029 4793
" />
<path d="M25029 4793
L25423 4399
" />
</g>
<g style="fill:#000000; fill-opacity:0.0; 
stroke:#000000; stroke-width:39.3701; stroke-opacity:1; 
stroke-linecap:round; stroke-linejoin:round;">
<path d="M26525 3375
L26525 3848
" />
<path d="M26525 3848
L25738 3848
" />
<path d="M25738 3848
L25738 3375
" />
<path d="M25738 3375
L26525 3375
" />
<path d="M28179 6702
L28179 6230
" />
<path d="M28179 6230
L28966 6230
" />
<path d="M28966 6230
L28966 6702
" />
<path d="M28966 6702
L28179 6702
" />
<path d="M29005 16446
L29005 16919
" />
<path d="M29005 16919
L28218 16919
" />
<path d="M28218 16919
L28218 16446
" />
<path d="M28218 16446
L29005 16446
" />
<path d="M30580 15423
L30580 15895
" />
<path d="M30580 15895
L29793 15895
" />
<path d="M29793 15895
L29793 15423
" />
<path d="M29793 15423
L30580 15423
" />
<path d="M28966 4281
L28966 4753
" />
<path d="M28966 4753
L28179 4753
" />
<path d="M28179 4753
L28179 4281
" />
<path d="M28179 4281
L28966 4281
" />
<path d="M30147 10147
L29675 10147
" />
<path d="M29675 10147
L29675 9360
" />
<path d="M29675 9360
L30147 9360
" />
<path d="M30147 9360
L30147 10147
" />
<path d="M27352 10698
L27352 9911
" />
<path d="M27824 10698
L27352 10698
" />
<path d="M27824 9911
L27824 10698
" />
<path d="M27352 9911
L27824 9911
" />
<path d="M25226 15816
L25698 15816
" />
<path d="M25698 15816
L25698 16604
" />
<path d="M25698 16604
L25226 16604
" />
<path d="M25226 16604
L25226 15816
" />
<path d="M29793 13848
L30580 13848
" />
<path d="M29793 14320
L29793 13848
" />
<path d="M30580 14320
L29793 14320
" />
<path d="M30580 13848
L30580 14320
" />
<path d="M9872 6131
L9399 6131
" />
<path d="M9399 6131
L9399 5344
" />
<path d="M9399 5344
L9872 5344
" />
<path d="M9872 5344
L9872 6131
" />
<path d="M7903 14360
L8690 14360
" />
<path d="M7903 14832
L7903 14360
" />
<path d="M8690 14832
L7903 14832
" />
<path d="M8690 14360
L8690 14832
" />
<path d="M10935 13848
L11407 13848
" />
<path d="M11407 13848
L11407 14635
" />
<path d="M11407 14635
L10935 14635
" />
<path d="M10935 14635
L10935 13848
" />
<path d="M30423 4675
L30423 4360
" />
<path d="M29793 4675
L30423 4675
" />
<path d="M29793 4478
L29793 4675
" />
<path d="M29911 4360
L29793 4478
" />
<path d="M30423 4360
L29911 4360
" />
<path d="M12942 2047
L12942 925
" />
<path d="M12834 2125
L12391 2125
" />
<path d="M12834 2125
L12942 2047
" />
<path d="M12942 927
L12391 927
" />
<path d="M12391 927
L12391 2124
" />
</g>
<g style="fill:#000000; fill-opacity:0.0; 
stroke:#000000; stroke-width:59.0551; stroke-opacity:1; 
stroke-linecap:round; stroke-linejoin:round;">
<path d="M10606 5680
L10831 5680
" />
<path d="M10719 6073
L10719 5680
" />
<path d="M11113 6055
L11075 6073
L11000 6073
L10963 6055
L10944 6017
L10944 5867
L10963 5830
L11000 5811
L11075 5811
L11113 5830
L11131 5867
L11131 5905
L10944 5942
" />
<path d="M11281 6055
L11319 6073
L11394 6073
L11431 6055
L11450 6017
L11450 5998
L11431 5961
L11394 5942
L11338 5942
L11300 5923
L11281 5886
L11281 5867
L11300 5830
L11338 5811
L11394 5811
L11431 5830
" />
<path d="M11563 5811
L11713 5811
" />
<path d="M11619 5680
L11619 6017
L11638 6055
L11675 6073
L11713 6073
" />
<path d="M11844 6073
L11844 5680
L11994 5680
L12031 5698
L12050 5717
L12069 5755
L12069 5811
L12050 5848
L12031 5867
L11994 5886
L11844 5886
" />
<path d="M12294 6073
L12256 6055
L12238 6036
L12219 5998
L12219 5886
L12238 5848
L12256 5830
L12294 5811
L12350 5811
L12387 5830
L12406 5848
L12425 5886
L12425 5998
L12406 6036
L12387 6055
L12350 6073
L12294 6073
" />
<path d="M12594 6073
L12594 5811
" />
<path d="M12594 5680
L12575 5698
L12594 5717
L12612 5698
L12594 5680
L12594 5717
" />
<path d="M12781 5811
L12781 6073
" />
<path d="M12781 5848
L12800 5830
L12837 5811
L12894 5811
L12931 5830
L12950 5867
L12950 6073
" />
<path d="M13081 5811
L13231 5811
" />
<path d="M13137 5680
L13137 6017
L13156 6055
L13194 6073
L13231 6073
" />
<path d="M30050 15063
L30050 15250
L29656 15250
" />
<path d="M29843 14932
L29843 14800
" />
<path d="M30050 14744
L30050 14932
L29656 14932
L29656 14744
" />
<path d="M30050 14575
L29656 14575
L29656 14482
L29675 14425
L29712 14388
L29750 14369
L29825 14350
L29881 14350
L29956 14369
L29993 14388
L30031 14425
L30050 14482
L30050 14575
" />
<path d="M30087 14275
L30087 13975
" />
<path d="M30050 13882
L29656 13882
L29656 13732
L29675 13694
L29693 13675
L29731 13657
L29787 13657
L29825 13675
L29843 13694
L29862 13732
L29862 13882
" />
<path d="M30050 13488
L29656 13488
" />
<path d="M30050 13300
L29656 13300
L30050 13076
L29656 13076
" />
<path d="M30050 12888
L29656 12888
" />
<path d="M30050 12663
L29825 12832
" />
<path d="M29656 12663
L29881 12888
" />
</g>
<g style="fill:#000000; fill-opacity:0.0; 
stroke:#000000; stroke-width:23.622; stroke-opacity:1; 
stroke-linecap:round; stroke-linejoin:round;">
<path d="M30100 11602
L29943 11602
L29943 11564
L29950 11542
L29965 11527
L29980 11519
L30010 11512
L30033 11512
L30063 11519
L30078 11527
L30093 11542
L30100 11564
L30100 11602
" />
<path d="M29958 11452
L29950 11444
L29943 11429
L29943 11392
L29950 11377
L29958 11369
L29973 11362
L29988 11362
L30010 11369
L30100 11459
L30100 11362
" />
</g>
<g style="fill:#000000; fill-opacity:0.0; 
stroke:#000000; stroke-width:59.0551; stroke-opacity:1; 
stroke-linecap:round; stroke-linejoin:round;">
<path d="M6321 8197
L6321 8422
" />
<path d="M6321 8310
L5928 8310
L5984 8347
L6021 8385
L6040 8422
" />
<path d="M5928 7954
L5928 7916
L5946 7879
L5965 7860
L6003 7841
L6078 7822
L6171 7822
L6246 7841
L6284 7860
L6303 7879
L6321 7916
L6321 7954
L6303 7991
L6284 8010
L6246 8029
L6171 8047
L6078 8047
L6003 8029
L5965 8010
L5946 7991
L5928 7954
" />
<path d="M5928 7579
L5928 7541
L5946 7504
L5965 7485
L6003 7466
L6078 7447
L6171 7447
L6246 7466
L6284 7485
L6303 7504
L6321 7541
L6321 7579
L6303 7616
L6284 7635
L6246 7654
L6171 7672
L6078 7672
L6003 7654
L5965 7635
L5946 7616
L5928 7579
" />
<path d="M6059 7279
L6321 7279
" />
<path d="M6096 7279
L6078 7260
L6059 7223
L6059 7166
L6078 7129
L6115 7110
L6321 7110
" />
<path d="M6115 6791
L6115 6923
" />
<path d="M6321 6923
L5928 6923
L5928 6735
" />
</g>
<g style="fill:#000000; fill-opacity:0.0; 
stroke:#000000; stroke-width:23.622; stroke-opacity:1; 
stroke-linecap:round; stroke-linejoin:round;">
<path d="M5636 7614
L5644 7622
L5651 7644
L5651 7659
L5644 7682
L5629 7697
L5614 7704
L5584 7712
L5561 7712
L5531 7704
L5516 7697
L5501 7682
L5494 7659
L5494 7644
L5501 7622
L5509 7614
" />
<path d="M5546 7479
L5651 7479
" />
<path d="M5486 7517
L5599 7554
L5599 7457
" />
</g>
<g style="fill:#000000; fill-opacity:0.0; 
stroke:#000000; stroke-width:59.0551; stroke-opacity:1; 
stroke-linecap:round; stroke-linejoin:round;">
<path d="M12451 10416
L12226 10416
" />
<path d="M12339 10416
L12339 10022
L12301 10078
L12264 10116
L12226 10135
" />
<path d="M12695 10022
L12732 10022
L12770 10041
L12789 10060
L12807 10097
L12826 10172
L12826 10266
L12807 10341
L12789 10378
L12770 10397
L12732 10416
L12695 10416
L12657 10397
L12639 10378
L12620 10341
L12601 10266
L12601 10172
L12620 10097
L12639 10060
L12657 10041
L12695 10022
" />
<path d="M13070 10022
L13107 10022
L13145 10041
L13164 10060
L13182 10097
L13201 10172
L13201 10266
L13182 10341
L13164 10378
L13145 10397
L13107 10416
L13070 10416
L13032 10397
L13014 10378
L12995 10341
L12976 10266
L12976 10172
L12995 10097
L13014 10060
L13032 10041
L13070 10022
" />
<path d="M13370 10153
L13370 10416
" />
<path d="M13370 10191
L13389 10172
L13426 10153
L13482 10153
L13520 10172
L13539 10210
L13539 10416
" />
<path d="M13857 10210
L13726 10210
" />
<path d="M13726 10416
L13726 10022
L13914 10022
" />
</g>
<g style="fill:#000000; fill-opacity:0.0; 
stroke:#000000; stroke-width:23.622; stroke-opacity:1; 
stroke-linecap:round; stroke-linejoin:round;">
<path d="M13034 9731
L13027 9738
L13004 9746
L12989 9746
L12967 9738
L12952 9723
L12944 9708
L12937 9678
L12937 9656
L12944 9626
L12952 9611
L12967 9596
L12989 9588
L13004 9588
L13027 9596
L13034 9603
" />
<path d="M13177 9588
L13102 9588
L13094 9663
L13102 9656
L13117 9648
L13154 9648
L13169 9656
L13177 9663
L13184 9678
L13184 9716
L13177 9731
L13169 9738
L13154 9746
L13117 9746
L13102 9738
L13094 9731
" />
</g>
<g style="fill:#000000; fill-opacity:0.0; 
stroke:#000000; stroke-width:59.0551; stroke-opacity:1; 
stroke-linecap:round; stroke-linejoin:round;">
<path d="M4880 5284
L4880 5509
" />
<path d="M4880 5396
L4487 5396
L4543 5434
L4580 5471
L4599 5509
" />
<path d="M4487 5040
L4487 5003
L4505 4965
L4524 4947
L4562 4928
L4637 4909
L4730 4909
L4805 4928
L4843 4947
L4862 4965
L4880 5003
L4880 5040
L4862 5078
L4843 5097
L4805 5115
L4730 5134
L4637 5134
L4562 5115
L4524 5097
L4505 5078
L4487 5040
" />
<path d="M4487 4665
L4487 4628
L4505 4590
L4524 4572
L4562 4553
L4637 4534
L4730 4534
L4805 4553
L4843 4572
L4862 4590
L4880 4628
L4880 4665
L4862 4703
L4843 4722
L4805 4740
L4730 4759
L4637 4759
L4562 4740
L4524 4722
L4505 4703
L4487 4665
" />
<path d="M4618 4365
L4880 4365
" />
<path d="M4655 4365
L4637 4347
L4618 4309
L4618 4253
L4637 4215
L4674 4197
L4880 4197
" />
<path d="M4674 3878
L4674 4009
" />
<path d="M4880 4009
L4487 4009
L4487 3822
" />
</g>
<g style="fill:#000000; fill-opacity:0.0; 
stroke:#000000; stroke-width:23.622; stroke-opacity:1; 
stroke-linecap:round; stroke-linejoin:round;">
<path d="M5321 4701
L5329 4708
L5336 4731
L5336 4746
L5329 4768
L5314 4783
L5299 4791
L5269 4798
L5247 4798
L5217 4791
L5202 4783
L5187 4768
L5179 4746
L5179 4731
L5187 4708
L5194 4701
" />
<path d="M5179 4648
L5179 4543
L5336 4611
" />
</g>
<g style="fill:#000000; fill-opacity:0.0; 
stroke:#000000; stroke-width:59.0551; stroke-opacity:1; 
stroke-linecap:round; stroke-linejoin:round;">
<path d="M5691 14713
L5691 14938
" />
<path d="M5691 14826
L5298 14826
L5354 14863
L5391 14901
L5410 14938
" />
<path d="M5298 14469
L5298 14432
L5316 14394
L5335 14376
L5373 14357
L5448 14338
L5541 14338
L5616 14357
L5654 14376
L5673 14394
L5691 14432
L5691 14469
L5673 14507
L5654 14526
L5616 14544
L5541 14563
L5448 14563
L5373 14544
L5335 14526
L5316 14507
L5298 14469
" />
<path d="M5298 14094
L5298 14057
L5316 14019
L5335 14001
L5373 13982
L5448 13963
L5541 13963
L5616 13982
L5654 14001
L5673 14019
L5691 14057
L5691 14094
L5673 14132
L5654 14151
L5616 14169
L5541 14188
L5448 14188
L5373 14169
L5335 14151
L5316 14132
L5298 14094
" />
<path d="M5429 13794
L5691 13794
" />
<path d="M5466 13794
L5448 13776
L5429 13738
L5429 13682
L5448 13645
L5485 13626
L5691 13626
" />
<path d="M5485 13307
L5485 13438
" />
<path d="M5691 13438
L5298 13438
L5298 13251
" />
</g>
<g style="fill:#000000; fill-opacity:0.0; 
stroke:#000000; stroke-width:23.622; stroke-opacity:1; 
stroke-linecap:round; stroke-linejoin:round;">
<path d="M5007 14205
L5014 14213
L5022 14235
L5022 14250
L5014 14273
L4999 14288
L4984 14295
L4954 14303
L4932 14303
L4902 14295
L4887 14288
L4872 14273
L4864 14250
L4864 14235
L4872 14213
L4879 14205
" />
<path d="M5022 14055
L5022 14145
" />
<path d="M5022 14100
L4864 14100
L4887 14115
L4902 14130
L4909 14145
" />
<path d="M4879 13995
L4872 13988
L4864 13973
L4864 13935
L4872 13920
L4879 13913
L4894 13905
L4909 13905
L4932 13913
L5022 14003
L5022 13905
" />
</g>
<g style="fill:#000000; fill-opacity:0.0; 
stroke:#000000; stroke-width:59.0551; stroke-opacity:1; 
stroke-linecap:round; stroke-linejoin:round;">
<path d="M11896 5187
L11671 5187
" />
<path d="M11784 5187
L11784 4794
L11746 4850
L11709 4887
L11671 4906
" />
<path d="M12065 5187
L12065 4794
L12196 5075
L12327 4794
L12327 5187
" />
<path d="M12496 5187
L12590 5187
L12590 5112
L12552 5094
L12515 5056
L12496 5000
L12496 4906
L12515 4850
L12552 4812
L12609 4794
L12684 4794
L12740 4812
L12777 4850
L12796 4906
L12796 5000
L12777 5056
L12740 5094
L12702 5112
L12702 5187
L12796 5187
" />
</g>
<g style="fill:#000000; fill-opacity:0.0; 
stroke:#000000; stroke-width:31.4961; stroke-opacity:1; 
stroke-linecap:round; stroke-linejoin:round;">
<path d="M12107 4449
L12042 4355
" />
<path d="M11995 4449
L11995 4252
L12070 4252
L12088 4261
L12098 4271
L12107 4289
L12107 4318
L12098 4336
L12088 4346
L12070 4355
L11995 4355
" />
<path d="M12295 4449
L12182 4449
" />
<path d="M12238 4449
L12238 4252
L12220 4280
L12201 4299
L12182 4308
" />
<path d="M12360 4252
L12482 4252
L12417 4327
L12445 4327
L12463 4336
L12473 4346
L12482 4364
L12482 4411
L12473 4430
L12463 4439
L12445 4449
L12388 4449
L12370 4439
L12360 4430
" />
</g>
<g style="fill:#000000; fill-opacity:0.0; 
stroke:#000000; stroke-width:59.0551; stroke-opacity:1; 
stroke-linecap:round; stroke-linejoin:round;">
<path d="M3231 12536
L3231 12761
" />
<path d="M3231 12648
L2837 12648
L2893 12686
L2931 12723
L2950 12761
" />
<path d="M2837 12179
L2837 12367
L3025 12386
L3006 12367
L2987 12329
L2987 12236
L3006 12198
L3025 12179
L3062 12161
L3156 12161
L3193 12179
L3212 12198
L3231 12236
L3231 12329
L3212 12367
L3193 12386
" />
<path d="M3231 11992
L2837 11992
" />
<path d="M3081 11954
L3231 11842
" />
<path d="M2968 11842
L3118 11992
" />
<path d="M3231 11692
L3231 11598
L3156 11598
L3137 11636
L3100 11673
L3043 11692
L2950 11692
L2893 11673
L2856 11636
L2837 11579
L2837 11504
L2856 11448
L2893 11411
L2950 11392
L3043 11392
L3100 11411
L3137 11448
L3156 11486
L3231 11486
L3231 11392
" />
</g>
<g style="fill:#000000; fill-opacity:0.0; 
stroke:#000000; stroke-width:47.2441; stroke-opacity:1; 
stroke-linecap:round; stroke-linejoin:round;">
<path d="M2297 12129
L2148 12234
" />
<path d="M2297 12309
L1983 12309
L1983 12189
L1998 12159
L2013 12144
L2043 12129
L2088 12129
L2118 12144
L2133 12159
L2148 12189
L2148 12309
" />
<path d="M2088 11859
L2297 11859
" />
<path d="M1968 11934
L2193 12009
L2193 11814
" />
</g>
<g style="fill:#000000; fill-opacity:0.0; 
stroke:#000000; stroke-width:59.0551; stroke-opacity:1; 
stroke-linecap:round; stroke-linejoin:round;">
<path d="M4750 4450
L4357 4450
" />
<path d="M4732 4281
L4750 4225
L4750 4131
L4732 4094
L4713 4075
L4675 4056
L4638 4056
L4600 4075
L4582 4094
L4563 4131
L4544 4206
L4525 4244
L4507 4262
L4469 4281
L4432 4281
L4394 4262
L4375 4244
L4357 4206
L4357 4112
L4375 4056
" />
<path d="M4750 3887
L4357 3887
L4357 3737
L4375 3700
L4394 3681
L4432 3662
L4488 3662
L4525 3681
L4544 3700
L4563 3737
L4563 3887
" />
<path d="M4788 3587
L4788 3287
" />
<path d="M4713 2969
L4732 2987
L4750 3044
L4750 3081
L4732 3137
L4694 3175
L4657 3194
L4582 3212
L4525 3212
L4450 3194
L4413 3175
L4375 3137
L4357 3081
L4357 3044
L4375 2987
L4394 2969
" />
<path d="M4357 2725
L4357 2650
L4375 2612
L4413 2575
L4488 2556
L4619 2556
L4694 2575
L4732 2612
L4750 2650
L4750 2725
L4732 2762
L4694 2800
L4619 2819
L4488 2819
L4413 2800
L4375 2762
L4357 2725
" />
<path d="M4750 2387
L4357 2387
L4750 2163
L4357 2163
" />
<path d="M4750 1975
L4357 1975
L4750 1750
L4357 1750
" />
<path d="M7221 2884
L7221 3166
L7202 3222
L7164 3259
L7108 3278
L7071 3278
" />
<path d="M7371 2884
L7614 2884
L7483 3034
L7539 3034
L7577 3053
L7596 3072
L7614 3109
L7614 3203
L7596 3241
L7577 3259
L7539 3278
L7427 3278
L7389 3259
L7371 3241
" />
<path d="M8632 8797
L8632 8722
L8651 8685
L8689 8647
L8764 8629
L8895 8629
L8970 8647
L9007 8685
L9026 8722
L9026 8797
L9007 8835
L8970 8872
L8895 8891
L8764 8891
L8689 8872
L8651 8835
L8632 8797
" />
<path d="M9007 8479
L9026 8422
L9026 8329
L9007 8291
L8989 8272
L8951 8254
L8914 8254
L8876 8272
L8857 8291
L8839 8329
L8820 8404
L8801 8441
L8782 8460
L8745 8479
L8707 8479
L8670 8460
L8651 8441
L8632 8404
L8632 8310
L8651 8254
" />
<path d="M8989 7860
L9007 7879
L9026 7935
L9026 7972
L9007 8029
L8970 8066
L8932 8085
L8857 8104
L8801 8104
L8726 8085
L8689 8066
L8651 8029
L8632 7972
L8632 7935
L8651 7879
L8670 7860
" />
<path d="M11073 4632
L11073 4857
" />
<path d="M11073 4744
L10680 4744
L10736 4782
L10773 4819
L10792 4857
" />
<path d="M11073 4463
L10680 4463
" />
<path d="M10923 4425
L11073 4313
" />
<path d="M10811 4313
L10961 4463
" />
<path d="M11073 4163
L11073 4069
L10998 4069
L10980 4107
L10942 4144
L10886 4163
L10792 4163
L10736 4144
L10698 4107
L10680 4050
L10680 3975
L10698 3919
L10736 3882
L10792 3863
L10886 3863
L10942 3882
L10980 3919
L10998 3957
L11073 3957
L11073 3863
" />
</g>
<g style="fill:#000000; fill-opacity:0.0; 
stroke:#000000; stroke-width:31.4961; stroke-opacity:1; 
stroke-linecap:round; stroke-linejoin:round;">
<path d="M10984 5864
L10890 5930
" />
<path d="M10984 5977
L10787 5977
L10787 5902
L10797 5883
L10806 5874
L10825 5864
L10853 5864
L10872 5874
L10881 5883
L10890 5902
L10890 5977
" />
<path d="M10984 5677
L10984 5789
" />
<path d="M10984 5733
L10787 5733
L10815 5752
L10834 5770
L10844 5789
" />
<path d="M10806 5602
L10797 5592
L10787 5574
L10787 5527
L10797 5508
L10806 5499
L10825 5489
L10844 5489
L10872 5499
L10984 5611
L10984 5489
" />
</g>
<g style="fill:#000000; fill-opacity:0.0; 
stroke:#000000; stroke-width:59.0551; stroke-opacity:1; 
stroke-linecap:round; stroke-linejoin:round;">
<path d="M6669 12097
L6894 12097
" />
<path d="M6782 12491
L6782 12097
" />
<path d="M7176 12472
L7138 12491
L7063 12491
L7026 12472
L7007 12434
L7007 12284
L7026 12247
L7063 12228
L7138 12228
L7176 12247
L7194 12284
L7194 12322
L7007 12359
" />
<path d="M7344 12472
L7382 12491
L7457 12491
L7494 12472
L7513 12434
L7513 12416
L7494 12378
L7457 12359
L7401 12359
L7363 12341
L7344 12303
L7344 12284
L7363 12247
L7401 12228
L7457 12228
L7494 12247
" />
<path d="M7626 12228
L7776 12228
" />
<path d="M7682 12097
L7682 12434
L7701 12472
L7738 12491
L7776 12491
" />
<path d="M7907 12491
L7907 12097
L8057 12097
L8094 12116
L8113 12134
L8132 12172
L8132 12228
L8113 12266
L8094 12284
L8057 12303
L7907 12303
" />
<path d="M8357 12491
L8319 12472
L8300 12453
L8282 12416
L8282 12303
L8300 12266
L8319 12247
L8357 12228
L8413 12228
L8450 12247
L8469 12266
L8488 12303
L8488 12416
L8469 12453
L8450 12472
L8413 12491
L8357 12491
" />
<path d="M8657 12491
L8657 12228
" />
<path d="M8657 12097
L8638 12116
L8657 12134
L8675 12116
L8657 12097
L8657 12134
" />
<path d="M8844 12228
L8844 12491
" />
<path d="M8844 12266
L8863 12247
L8900 12228
L8957 12228
L8994 12247
L9013 12284
L9013 12491
" />
<path d="M9144 12228
L9294 12228
" />
<path d="M9200 12097
L9200 12434
L9219 12472
L9257 12491
L9294 12491
" />
<path d="M31662 5601
L31474 5601
L31474 5207
" />
<path d="M31793 5395
L31924 5395
" />
<path d="M31981 5601
L31793 5601
L31793 5207
L31981 5207
" />
<path d="M32149 5601
L32149 5207
L32243 5207
L32299 5226
L32337 5263
L32356 5301
L32374 5376
L32374 5432
L32356 5507
L32337 5545
L32299 5582
L32243 5601
L32149 5601
" />
<path d="M32449 5638
L32749 5638
" />
<path d="M33049 5226
L33012 5207
L32956 5207
L32899 5226
L32862 5263
L32843 5301
L32824 5376
L32824 5432
L32843 5507
L32862 5545
L32899 5582
L32956 5601
L32993 5601
L33049 5582
L33068 5563
L33068 5432
L32993 5432
" />
<path d="M33462 5601
L33330 5413
" />
<path d="M33237 5601
L33237 5207
L33387 5207
L33424 5226
L33443 5245
L33462 5282
L33462 5338
L33443 5376
L33424 5395
L33387 5413
L33237 5413
" />
<path d="M33630 5395
L33762 5395
" />
<path d="M33818 5601
L33630 5601
L33630 5207
L33818 5207
" />
<path d="M33987 5395
L34118 5395
" />
<path d="M34174 5601
L33987 5601
L33987 5207
L34174 5207
" />
<path d="M34343 5601
L34343 5207
L34568 5601
L34568 5207
" />
</g>
<g style="fill:#000000; fill-opacity:0.0; 
stroke:#000000; stroke-width:23.622; stroke-opacity:1; 
stroke-linecap:round; stroke-linejoin:round;">
<path d="M29952 5533
L29952 5376
L29990 5376
L30012 5383
L30027 5398
L30035 5413
L30042 5443
L30042 5466
L30035 5496
L30027 5511
L30012 5526
L29990 5533
L29952 5533
" />
<path d="M30095 5376
L30192 5376
L30140 5436
L30162 5436
L30177 5443
L30185 5451
L30192 5466
L30192 5503
L30185 5518
L30177 5526
L30162 5533
L30117 5533
L30102 5526
L30095 5518
" />
</g>
<g style="fill:#000000; fill-opacity:0.0; 
stroke:#000000; stroke-width:59.0551; stroke-opacity:1; 
stroke-linecap:round; stroke-linejoin:round;">
<path d="M28497 2412
L28272 2412
" />
<path d="M28385 2412
L28385 2018
L28347 2074
L28310 2112
L28272 2131
" />
<path d="M28666 2412
L28666 2018
" />
<path d="M28704 2262
L28816 2412
" />
<path d="M28816 2149
L28666 2299
" />
<path d="M28966 2412
L29060 2412
L29060 2337
L29022 2318
L28985 2281
L28966 2224
L28966 2131
L28985 2074
L29022 2037
L29079 2018
L29154 2018
L29210 2037
L29247 2074
L29266 2131
L29266 2224
L29247 2281
L29210 2318
L29172 2337
L29172 2412
L29266 2412
" />
</g>
<g style="fill:#000000; fill-opacity:0.0; 
stroke:#000000; stroke-width:31.4961; stroke-opacity:1; 
stroke-linecap:round; stroke-linejoin:round;">
<path d="M28540 5551
L28474 5457
" />
<path d="M28427 5551
L28427 5354
L28502 5354
L28521 5364
L28530 5373
L28540 5392
L28540 5420
L28530 5439
L28521 5448
L28502 5457
L28427 5457
" />
<path d="M28633 5551
L28671 5551
L28690 5542
L28699 5532
L28718 5504
L28727 5467
L28727 5392
L28718 5373
L28708 5364
L28690 5354
L28652 5354
L28633 5364
L28624 5373
L28615 5392
L28615 5439
L28624 5457
L28633 5467
L28652 5476
L28690 5476
L28708 5467
L28718 5457
L28727 5439
" />
</g>
<g style="fill:#000000; fill-opacity:0.0; 
stroke:#000000; stroke-width:59.0551; stroke-opacity:1; 
stroke-linecap:round; stroke-linejoin:round;">
<path d="M5286 5615
L5286 5840
" />
<path d="M5286 5727
L4892 5727
L4948 5765
L4986 5802
L5005 5840
" />
<path d="M4892 5371
L4892 5334
L4911 5296
L4930 5277
L4967 5259
L5042 5240
L5136 5240
L5211 5259
L5248 5277
L5267 5296
L5286 5334
L5286 5371
L5267 5409
L5248 5427
L5211 5446
L5136 5465
L5042 5465
L4967 5446
L4930 5427
L4911 5409
L4892 5371
" />
<path d="M5023 5071
L5417 5071
" />
<path d="M5230 4884
L5267 4865
L5286 4827
" />
<path d="M5230 5071
L5267 5052
L5286 5015
L5286 4940
L5267 4902
L5230 4884
L5023 4884
" />
<path d="M5286 4659
L4892 4659
" />
<path d="M5080 4659
L5080 4434
" />
<path d="M5286 4434
L4892 4434
" />
</g>
<g style="fill:#000000; fill-opacity:0.0; 
stroke:#000000; stroke-width:31.4961; stroke-opacity:1; 
stroke-linecap:round; stroke-linejoin:round;">
<path d="M4803 7621
L4803 7715
L4606 7715
" />
<path d="M4803 7452
L4803 7565
" />
<path d="M4803 7508
L4606 7508
L4634 7527
L4653 7546
L4663 7565
" />
</g>
<g style="fill:#000000; fill-opacity:0.0; 
stroke:#000000; stroke-width:59.0551; stroke-opacity:1; 
stroke-linecap:round; stroke-linejoin:round;">
<path d="M24847 12609
L24847 12215
" />
<path d="M25260 12609
L25128 12421
" />
<path d="M25035 12609
L25035 12215
L25185 12215
L25222 12234
L25241 12253
L25260 12290
L25260 12346
L25241 12384
L25222 12402
L25185 12421
L25035 12421
" />
<path d="M25560 12402
L25428 12402
" />
<path d="M25428 12609
L25428 12215
L25616 12215
" />
<path d="M25728 12215
L25991 12215
L25822 12609
" />
<path d="M26103 12215
L26347 12215
L26216 12365
L26272 12365
L26309 12384
L26328 12402
L26347 12440
L26347 12534
L26328 12571
L26309 12590
L26272 12609
L26160 12609
L26122 12590
L26103 12571
" />
<path d="M26684 12346
L26684 12609
" />
<path d="M26591 12196
L26497 12477
L26741 12477
" />
<path d="M26853 12215
L27097 12215
L26966 12365
L27022 12365
L27059 12384
L27078 12402
L27097 12440
L27097 12534
L27078 12571
L27059 12590
L27022 12609
L26909 12609
L26872 12590
L26853 12571
" />
<path d="M27266 12609
L27266 12215
L27416 12215
L27453 12234
L27472 12253
L27491 12290
L27491 12346
L27472 12384
L27453 12402
L27416 12421
L27266 12421
" />
<path d="M27791 12402
L27847 12421
L27866 12440
L27884 12477
L27884 12534
L27866 12571
L27847 12590
L27809 12609
L27659 12609
L27659 12215
L27791 12215
L27828 12234
L27847 12253
L27866 12290
L27866 12327
L27847 12365
L27828 12384
L27791 12402
L27659 12402
" />
<path d="M28184 12402
L28053 12402
" />
<path d="M28053 12609
L28053 12215
L28241 12215
" />
<path d="M26488 14024
L26450 14005
L26413 13968
L26356 13912
L26319 13893
L26281 13893
" />
<path d="M26300 13987
L26263 13968
L26225 13930
L26206 13855
L26206 13724
L26225 13649
L26263 13612
L26300 13593
L26375 13593
L26413 13612
L26450 13649
L26469 13724
L26469 13855
L26450 13930
L26413 13968
L26375 13987
L26300 13987
" />
<path d="M26844 13987
L26619 13987
" />
<path d="M26731 13987
L26731 13593
L26694 13649
L26656 13687
L26619 13705
" />
<path d="M20775 5050
L20550 5050
" />
<path d="M20663 5050
L20663 4656
L20625 4712
L20588 4750
L20550 4768
" />
<path d="M20944 5012
L20963 5031
L20944 5050
L20925 5031
L20944 5012
L20944 5050
" />
<path d="M21113 4693
L21131 4675
L21169 4656
L21263 4656
L21300 4675
L21319 4693
L21338 4731
L21338 4768
L21319 4825
L21094 5050
L21338 5050
" />
<path d="M21506 5050
L21506 4656
" />
<path d="M21544 4900
L21656 5050
" />
<path d="M21656 4787
L21506 4937
" />
<path d="M21806 5050
L21900 5050
L21900 4975
L21863 4956
L21825 4918
L21806 4862
L21806 4768
L21825 4712
L21863 4675
L21919 4656
L21994 4656
L22050 4675
L22088 4712
L22106 4768
L22106 4862
L22088 4918
L22050 4956
L22013 4975
L22013 5050
L22106 5050
" />
</g>
<g style="fill:#000000; fill-opacity:0.0; 
stroke:#000000; stroke-width:31.4961; stroke-opacity:1; 
stroke-linecap:round; stroke-linejoin:round;">
<path d="M23146 4961
L23080 4867
" />
<path d="M23033 4961
L23033 4764
L23108 4764
L23127 4773
L23136 4782
L23146 4801
L23146 4829
L23136 4848
L23127 4857
L23108 4867
L23033 4867
" />
<path d="M23333 4961
L23221 4961
" />
<path d="M23277 4961
L23277 4764
L23258 4792
L23240 4811
L23221 4820
" />
</g>
<g style="fill:#000000; fill-opacity:0.0; 
stroke:#000000; stroke-width:59.0551; stroke-opacity:1; 
stroke-linecap:round; stroke-linejoin:round;">
<path d="M6133 7516
L6321 7516
" />
<path d="M6096 7628
L6227 7235
L6358 7628
" />
<path d="M6433 7235
L6658 7235
" />
<path d="M6546 7628
L6546 7235
" />
<path d="M6789 7628
L6789 7366
" />
<path d="M6789 7403
L6808 7385
L6846 7366
L6902 7366
L6939 7385
L6958 7422
L6958 7628
" />
<path d="M6958 7422
L6977 7385
L7014 7366
L7071 7366
L7108 7385
L7127 7422
L7127 7628
" />
<path d="M7464 7610
L7427 7628
L7352 7628
L7314 7610
L7296 7572
L7296 7422
L7314 7385
L7352 7366
L7427 7366
L7464 7385
L7483 7422
L7483 7460
L7296 7497
" />
<path d="M7821 7366
L7821 7685
L7802 7722
L7783 7741
L7746 7760
L7689 7760
L7652 7741
" />
<path d="M7821 7610
L7783 7628
L7708 7628
L7671 7610
L7652 7591
L7633 7553
L7633 7441
L7652 7403
L7671 7385
L7708 7366
L7783 7366
L7821 7385
" />
<path d="M8177 7628
L8177 7422
L8158 7385
L8121 7366
L8046 7366
L8008 7385
" />
<path d="M8177 7610
L8139 7628
L8046 7628
L8008 7610
L7989 7572
L7989 7535
L8008 7497
L8046 7478
L8139 7478
L8177 7460
" />
<path d="M8420 7403
L8383 7385
L8364 7366
L8345 7328
L8345 7310
L8364 7272
L8383 7253
L8420 7235
L8495 7235
L8533 7253
L8552 7272
L8570 7310
L8570 7328
L8552 7366
L8533 7385
L8495 7403
L8420 7403
L8383 7422
L8364 7441
L8345 7478
L8345 7553
L8364 7591
L8383 7610
L8420 7628
L8495 7628
L8533 7610
L8552 7591
L8570 7553
L8570 7478
L8552 7441
L8533 7422
L8495 7403
" />
<path d="M8795 7403
L8758 7385
L8739 7366
L8720 7328
L8720 7310
L8739 7272
L8758 7253
L8795 7235
L8870 7235
L8908 7253
L8927 7272
L8945 7310
L8945 7328
L8927 7366
L8908 7385
L8870 7403
L8795 7403
L8758 7422
L8739 7441
L8720 7478
L8720 7553
L8739 7591
L8758 7610
L8795 7628
L8870 7628
L8908 7610
L8927 7591
L8945 7553
L8945 7478
L8927 7441
L8908 7422
L8870 7403
" />
<path d="M9114 7478
L9414 7478
" />
<path d="M9583 7272
L9602 7253
L9639 7235
L9733 7235
L9770 7253
L9789 7272
L9808 7310
L9808 7347
L9789 7403
L9564 7628
L9808 7628
" />
<path d="M10052 7235
L10089 7235
L10127 7253
L10145 7272
L10164 7310
L10183 7385
L10183 7478
L10164 7553
L10145 7591
L10127 7610
L10089 7628
L10052 7628
L10014 7610
L9995 7591
L9977 7553
L9958 7478
L9958 7385
L9977 7310
L9995 7272
L10014 7253
L10052 7235
" />
<path d="M10333 7516
L10520 7516
" />
<path d="M10295 7628
L10426 7235
L10558 7628
" />
<path d="M10689 7235
L10689 7553
L10708 7591
L10726 7610
L10764 7628
L10839 7628
L10876 7610
L10895 7591
L10914 7553
L10914 7235
" />
<path d="M8233 9617
L8233 9935
L8252 9973
L8270 9992
L8308 10010
L8383 10010
L8420 9992
L8439 9973
L8458 9935
L8458 9617
" />
<path d="M8852 10010
L8627 10010
" />
<path d="M8739 10010
L8739 9617
L8702 9673
L8664 9710
L8627 9729
" />
<path d="M21632 5128
L21632 4735
L21726 4735
L21782 4753
L21819 4791
L21838 4828
L21857 4903
L21857 4960
L21838 5035
L21819 5072
L21782 5110
L21726 5128
L21632 5128
" />
<path d="M22026 5128
L22026 4735
" />
<path d="M22288 4735
L22363 4735
L22401 4753
L22438 4791
L22457 4866
L22457 4997
L22438 5072
L22401 5110
L22363 5128
L22288 5128
L22251 5110
L22213 5072
L22194 4997
L22194 4866
L22213 4791
L22251 4753
L22288 4735
" />
<path d="M22813 4735
L22626 4735
L22607 4922
L22626 4903
L22663 4885
L22757 4885
L22794 4903
L22813 4922
L22832 4960
L22832 5053
L22813 5091
L22794 5110
L22757 5128
L22663 5128
L22626 5110
L22607 5091
" />
<path d="M23207 5128
L22982 5128
" />
<path d="M23094 5128
L23094 4735
L23057 4791
L23019 4828
L22982 4847
" />
<path d="M23563 4735
L23375 4735
L23357 4922
L23375 4903
L23413 4885
L23507 4885
L23544 4903
L23563 4922
L23582 4960
L23582 5053
L23563 5091
L23544 5110
L23507 5128
L23413 5128
L23375 5110
L23357 5091
" />
<path d="M23807 4903
L23769 4885
L23750 4866
L23732 4828
L23732 4810
L23750 4772
L23769 4753
L23807 4735
L23882 4735
L23919 4753
L23938 4772
L23957 4810
L23957 4828
L23938 4866
L23919 4885
L23882 4903
L23807 4903
L23769 4922
L23750 4941
L23732 4978
L23732 5053
L23750 5091
L23769 5110
L23807 5128
L23882 5128
L23919 5110
L23938 5091
L23957 5053
L23957 4978
L23938 4941
L23919 4922
L23882 4903
" />
</g>
<g style="fill:#000000; fill-opacity:0.0; 
stroke:#000000; stroke-width:35.4331; stroke-opacity:1; 
stroke-linecap:round; stroke-linejoin:round;">
<path d="M25440 4860
L25440 5052
L25451 5074
L25462 5085
L25485 5097
L25530 5097
L25552 5085
L25563 5074
L25575 5052
L25575 4860
" />
<path d="M25676 4883
L25687 4872
L25710 4860
L25766 4860
L25788 4872
L25800 4883
L25811 4905
L25811 4928
L25800 4962
L25665 5097
L25811 5097
" />
</g>
<g style="fill:#000000; fill-opacity:0.0; 
stroke:#000000; stroke-width:59.0551; stroke-opacity:1; 
stroke-linecap:round; stroke-linejoin:round;">
<path d="M23910 3790
L23685 3790
" />
<path d="M23797 3790
L23797 3396
L23760 3452
L23722 3490
L23685 3509
" />
<path d="M24154 3396
L24191 3396
L24229 3415
L24247 3434
L24266 3471
L24285 3546
L24285 3640
L24266 3715
L24247 3752
L24229 3771
L24191 3790
L24154 3790
L24116 3771
L24097 3752
L24079 3715
L24060 3640
L24060 3546
L24079 3471
L24097 3434
L24116 3415
L24154 3396
" />
<path d="M24453 3527
L24453 3921
" />
<path d="M24641 3734
L24660 3771
L24697 3790
" />
<path d="M24453 3734
L24472 3771
L24510 3790
L24585 3790
L24622 3771
L24641 3734
L24641 3527
" />
<path d="M24997 3584
L24866 3584
" />
<path d="M24866 3790
L24866 3396
L25053 3396
" />
</g>
<g style="fill:#000000; fill-opacity:0.0; 
stroke:#000000; stroke-width:31.4961; stroke-opacity:1; 
stroke-linecap:round; stroke-linejoin:round;">
<path d="M26099 3682
L26089 3691
L26061 3701
L26042 3701
L26014 3691
L25995 3673
L25986 3654
L25977 3616
L25977 3588
L25986 3551
L25995 3532
L26014 3513
L26042 3504
L26061 3504
L26089 3513
L26099 3523
" />
<path d="M26164 3504
L26286 3504
L26220 3579
L26249 3579
L26267 3588
L26277 3598
L26286 3616
L26286 3663
L26277 3682
L26267 3691
L26249 3701
L26192 3701
L26174 3691
L26164 3682
" />
</g>
<g style="fill:#000000; fill-opacity:0.0; 
stroke:#000000; stroke-width:59.0551; stroke-opacity:1; 
stroke-linecap:round; stroke-linejoin:round;">
<path d="M29776 6664
L29551 6664
" />
<path d="M29663 6664
L29663 6270
L29626 6326
L29588 6364
L29551 6383
" />
<path d="M30020 6270
L30057 6270
L30095 6289
L30113 6308
L30132 6345
L30151 6420
L30151 6514
L30132 6589
L30113 6626
L30095 6645
L30057 6664
L30020 6664
L29982 6645
L29963 6626
L29945 6589
L29926 6514
L29926 6420
L29945 6345
L29963 6308
L29982 6289
L30020 6270
" />
<path d="M30320 6401
L30320 6795
" />
<path d="M30507 6608
L30526 6645
L30563 6664
" />
<path d="M30320 6608
L30338 6645
L30376 6664
L30451 6664
L30488 6645
L30507 6608
L30507 6401
" />
<path d="M30863 6458
L30732 6458
" />
<path d="M30732 6664
L30732 6270
L30920 6270
" />
</g>
<g style="fill:#000000; fill-opacity:0.0; 
stroke:#000000; stroke-width:31.4961; stroke-opacity:1; 
stroke-linecap:round; stroke-linejoin:round;">
<path d="M28540 6536
L28530 6546
L28502 6555
L28483 6555
L28455 6546
L28436 6527
L28427 6508
L28418 6471
L28418 6443
L28427 6405
L28436 6386
L28455 6368
L28483 6358
L28502 6358
L28530 6368
L28540 6377
" />
<path d="M28708 6358
L28671 6358
L28652 6368
L28643 6377
L28624 6405
L28615 6443
L28615 6518
L28624 6536
L28633 6546
L28652 6555
L28690 6555
L28708 6546
L28718 6536
L28727 6518
L28727 6471
L28718 6452
L28708 6443
L28690 6433
L28652 6433
L28633 6443
L28624 6452
L28615 6471
" />
</g>
<g style="fill:#000000; fill-opacity:0.0; 
stroke:#000000; stroke-width:59.0551; stroke-opacity:1; 
stroke-linecap:round; stroke-linejoin:round;">
<path d="M28389 17766
L28164 17766
" />
<path d="M28276 17766
L28276 17372
L28239 17429
L28201 17466
L28164 17485
" />
<path d="M28557 17504
L28557 17897
" />
<path d="M28745 17710
L28764 17747
L28801 17766
" />
<path d="M28557 17710
L28576 17747
L28614 17766
L28689 17766
L28726 17747
L28745 17710
L28745 17504
" />
<path d="M29101 17560
L28970 17560
" />
<path d="M28970 17766
L28970 17372
L29157 17372
" />
</g>
<g style="fill:#000000; fill-opacity:0.0; 
stroke:#000000; stroke-width:31.4961; stroke-opacity:1; 
stroke-linecap:round; stroke-linejoin:round;">
<path d="M28541 16727
L28532 16737
L28504 16746
L28485 16746
L28457 16737
L28438 16718
L28429 16699
L28420 16662
L28420 16634
L28429 16596
L28438 16577
L28457 16559
L28485 16549
L28504 16549
L28532 16559
L28541 16568
" />
<path d="M28654 16634
L28635 16624
L28626 16615
L28616 16596
L28616 16587
L28626 16568
L28635 16559
L28654 16549
L28691 16549
L28710 16559
L28720 16568
L28729 16587
L28729 16596
L28720 16615
L28710 16624
L28691 16634
L28654 16634
L28635 16643
L28626 16652
L28616 16671
L28616 16709
L28626 16727
L28635 16737
L28654 16746
L28691 16746
L28710 16737
L28720 16727
L28729 16709
L28729 16671
L28720 16652
L28710 16643
L28691 16634
" />
</g>
<g style="fill:#000000; fill-opacity:0.0; 
stroke:#000000; stroke-width:59.0551; stroke-opacity:1; 
stroke-linecap:round; stroke-linejoin:round;">
<path d="M31429 15798
L31205 15798
" />
<path d="M31317 15798
L31317 15404
L31279 15460
L31242 15498
L31205 15516
" />
<path d="M31673 15404
L31711 15404
L31748 15423
L31767 15441
L31786 15479
L31804 15554
L31804 15648
L31786 15723
L31767 15760
L31748 15779
L31711 15798
L31673 15798
L31636 15779
L31617 15760
L31598 15723
L31579 15648
L31579 15554
L31598 15479
L31617 15441
L31636 15423
L31673 15404
" />
<path d="M31973 15535
L31973 15929
" />
<path d="M32161 15741
L32179 15779
L32217 15798
" />
<path d="M31973 15741
L31992 15779
L32029 15798
L32104 15798
L32142 15779
L32161 15741
L32161 15535
" />
<path d="M32517 15591
L32386 15591
" />
<path d="M32386 15798
L32386 15404
L32573 15404
" />
</g>
<g style="fill:#000000; fill-opacity:0.0; 
stroke:#000000; stroke-width:31.4961; stroke-opacity:1; 
stroke-linecap:round; stroke-linejoin:round;">
<path d="M30060 15729
L30051 15739
L30022 15748
L30004 15748
L29976 15739
L29957 15720
L29947 15701
L29938 15664
L29938 15636
L29947 15598
L29957 15579
L29976 15561
L30004 15551
L30022 15551
L30051 15561
L30060 15570
" />
<path d="M30247 15748
L30135 15748
" />
<path d="M30191 15748
L30191 15551
L30172 15579
L30154 15598
L30135 15607
" />
<path d="M30435 15748
L30322 15748
" />
<path d="M30379 15748
L30379 15551
L30360 15579
L30341 15598
L30322 15607
" />
</g>
<g style="fill:#000000; fill-opacity:0.0; 
stroke:#000000; stroke-width:59.0551; stroke-opacity:1; 
stroke-linecap:round; stroke-linejoin:round;">
<path d="M30370 19498
L30501 19892
L30633 19498
" />
<path d="M30989 19855
L30970 19873
L30914 19892
L30876 19892
L30820 19873
L30783 19836
L30764 19798
L30745 19723
L30745 19667
L30764 19592
L30783 19555
L30820 19517
L30876 19498
L30914 19498
L30970 19517
L30989 19536
" />
<path d="M31383 19855
L31364 19873
L31308 19892
L31270 19892
L31214 19873
L31176 19836
L31158 19798
L31139 19723
L31139 19667
L31158 19592
L31176 19555
L31214 19517
L31270 19498
L31308 19498
L31364 19517
L31383 19536
" />
<path d="M30488 18632
L30488 18239
L30620 18520
L30751 18239
L30751 18632
" />
<path d="M30938 18632
L30938 18239
" />
<path d="M30938 18426
L31163 18426
" />
<path d="M31163 18632
L31163 18239
" />
<path d="M31313 18239
L31557 18239
L31426 18389
L31482 18389
L31519 18407
L31538 18426
L31557 18464
L31557 18557
L31538 18595
L31519 18614
L31482 18632
L31369 18632
L31332 18614
L31313 18595
" />
<path d="M30595 2588
L30558 2569
L30501 2569
L30445 2588
L30408 2626
L30389 2663
L30370 2738
L30370 2794
L30389 2869
L30408 2907
L30445 2944
L30501 2963
L30539 2963
L30595 2944
L30614 2926
L30614 2794
L30539 2794
" />
<path d="M30783 2963
L30783 2569
L31008 2963
L31008 2569
" />
<path d="M31195 2963
L31195 2569
L31289 2569
L31345 2588
L31383 2626
L31401 2663
L31420 2738
L31420 2794
L31401 2869
L31383 2907
L31345 2944
L31289 2963
L31195 2963
" />
<path d="M30488 1703
L30488 1309
L30620 1591
L30751 1309
L30751 1703
" />
<path d="M30938 1703
L30938 1309
" />
<path d="M30938 1497
L31163 1497
" />
<path d="M31163 1703
L31163 1309
" />
<path d="M31519 1441
L31519 1703
" />
<path d="M31426 1291
L31332 1572
L31576 1572
" />
<path d="M1585 2569
L1660 2569
L1697 2588
L1735 2626
L1754 2701
L1754 2832
L1735 2907
L1697 2944
L1660 2963
L1585 2963
L1547 2944
L1510 2907
L1491 2832
L1491 2701
L1510 2626
L1547 2588
L1585 2569
" />
<path d="M2147 2926
L2129 2944
L2072 2963
L2035 2963
L1979 2944
L1941 2907
L1922 2869
L1904 2794
L1904 2738
L1922 2663
L1941 2626
L1979 2588
L2035 2569
L2072 2569
L2129 2588
L2147 2607
" />
<path d="M2522 2963
L2297 2963
" />
<path d="M2410 2963
L2410 2569
L2372 2626
L2335 2663
L2297 2682
" />
<path d="M2672 2851
L2860 2851
" />
<path d="M2635 2963
L2766 2569
L2897 2963
" />
<path d="M1769 1703
L1769 1309
L1900 1591
L2031 1309
L2031 1703
" />
<path d="M2219 1703
L2219 1309
" />
<path d="M2219 1497
L2444 1497
" />
<path d="M2444 1703
L2444 1309
" />
<path d="M2800 1309
L2725 1309
L2687 1328
L2669 1347
L2631 1403
L2612 1478
L2612 1628
L2631 1666
L2650 1684
L2687 1703
L2762 1703
L2800 1684
L2819 1666
L2837 1628
L2837 1534
L2819 1497
L2800 1478
L2762 1459
L2687 1459
L2650 1478
L2631 1497
L2612 1534
" />
<path d="M28458 1743
L28233 1743
" />
<path d="M28345 1743
L28345 1349
L28308 1405
L28270 1443
L28233 1461
" />
<path d="M28627 1743
L28627 1349
" />
<path d="M28664 1593
L28777 1743
" />
<path d="M28777 1480
L28627 1630
" />
<path d="M28927 1743
L29020 1743
L29020 1668
L28983 1649
L28945 1611
L28927 1555
L28927 1461
L28945 1405
L28983 1368
L29039 1349
L29114 1349
L29170 1368
L29208 1405
L29227 1461
L29227 1555
L29208 1611
L29170 1649
L29133 1668
L29133 1743
L29227 1743
" />
</g>
<g style="fill:#000000; fill-opacity:0.0; 
stroke:#000000; stroke-width:31.4961; stroke-opacity:1; 
stroke-linecap:round; stroke-linejoin:round;">
<path d="M28540 4606
L28474 4513
" />
<path d="M28427 4606
L28427 4409
L28502 4409
L28521 4419
L28530 4428
L28540 4447
L28540 4475
L28530 4494
L28521 4503
L28502 4513
L28427 4513
" />
<path d="M28615 4428
L28624 4419
L28643 4409
L28690 4409
L28708 4419
L28718 4428
L28727 4447
L28727 4466
L28718 4494
L28605 4606
L28727 4606
" />
</g>
<g style="fill:#000000; fill-opacity:0.0; 
stroke:#000000; stroke-width:59.0551; stroke-opacity:1; 
stroke-linecap:round; stroke-linejoin:round;">
<path d="M30128 8726
L30128 8951
" />
<path d="M30128 8839
L29735 8839
L29791 8876
L29828 8914
L29847 8951
" />
<path d="M30128 8557
L29735 8557
" />
<path d="M29978 8520
L30128 8407
" />
<path d="M29866 8407
L30016 8557
" />
<path d="M30128 8257
L30128 8164
L30053 8164
L30035 8201
L29997 8239
L29941 8257
L29847 8257
L29791 8239
L29753 8201
L29735 8145
L29735 8070
L29753 8014
L29791 7976
L29847 7957
L29941 7957
L29997 7976
L30035 8014
L30053 8051
L30128 8051
L30128 7957
" />
</g>
<g style="fill:#000000; fill-opacity:0.0; 
stroke:#000000; stroke-width:31.4961; stroke-opacity:1; 
stroke-linecap:round; stroke-linejoin:round;">
<path d="M30000 9786
L29906 9852
" />
<path d="M30000 9899
L29803 9899
L29803 9824
L29812 9805
L29822 9796
L29841 9786
L29869 9786
L29887 9796
L29897 9805
L29906 9824
L29906 9899
" />
<path d="M29803 9721
L29803 9599
L29878 9664
L29878 9636
L29887 9618
L29897 9608
L29916 9599
L29962 9599
L29981 9608
L29991 9618
L30000 9636
L30000 9693
L29991 9711
L29981 9721
" />
</g>
<g style="fill:#000000; fill-opacity:0.0; 
stroke:#000000; stroke-width:59.0551; stroke-opacity:1; 
stroke-linecap:round; stroke-linejoin:round;">
<path d="M27117 10764
L27117 10989
" />
<path d="M27117 10876
L26723 10876
L26779 10914
L26817 10951
L26835 10989
" />
<path d="M26723 10520
L26723 10483
L26742 10445
L26760 10426
L26798 10408
L26873 10389
L26967 10389
L27042 10408
L27079 10426
L27098 10445
L27117 10483
L27117 10520
L27098 10558
L27079 10576
L27042 10595
L26967 10614
L26873 10614
L26798 10595
L26760 10576
L26742 10558
L26723 10520
" />
<path d="M27117 10220
L26723 10220
" />
<path d="M26967 10183
L27117 10070
" />
<path d="M26854 10070
L27004 10220
" />
<path d="M27117 9920
L27117 9827
L27042 9827
L27023 9864
L26985 9902
L26929 9920
L26835 9920
L26779 9902
L26742 9864
L26723 9808
L26723 9733
L26742 9677
L26779 9639
L26835 9620
L26929 9620
L26985 9639
L27023 9677
L27042 9714
L27117 9714
L27117 9620
" />
</g>
<g style="fill:#000000; fill-opacity:0.0; 
stroke:#000000; stroke-width:31.4961; stroke-opacity:1; 
stroke-linecap:round; stroke-linejoin:round;">
<path d="M27677 10337
L27583 10403
" />
<path d="M27677 10450
L27480 10450
L27480 10375
L27490 10356
L27499 10347
L27518 10337
L27546 10337
L27565 10347
L27574 10356
L27583 10375
L27583 10450
" />
<path d="M27480 10159
L27480 10253
L27574 10262
L27565 10253
L27555 10234
L27555 10187
L27565 10169
L27574 10159
L27593 10150
L27640 10150
L27658 10159
L27668 10169
L27677 10187
L27677 10234
L27668 10253
L27658 10262
" />
</g>
<g style="fill:#000000; fill-opacity:0.0; 
stroke:#000000; stroke-width:59.0551; stroke-opacity:1; 
stroke-linecap:round; stroke-linejoin:round;">
<path d="M24991 16857
L24991 17082
" />
<path d="M24991 16969
L24597 16969
L24653 17007
L24691 17044
L24709 17082
" />
<path d="M24597 16613
L24597 16576
L24616 16538
L24634 16519
L24672 16501
L24747 16482
L24841 16482
L24916 16501
L24953 16519
L24972 16538
L24991 16576
L24991 16613
L24972 16651
L24953 16669
L24916 16688
L24841 16707
L24747 16707
L24672 16688
L24634 16669
L24616 16651
L24597 16613
" />
<path d="M24597 16238
L24597 16201
L24616 16163
L24634 16145
L24672 16126
L24747 16107
L24841 16107
L24916 16126
L24953 16145
L24972 16163
L24991 16201
L24991 16238
L24972 16276
L24953 16294
L24916 16313
L24841 16332
L24747 16332
L24672 16313
L24634 16294
L24616 16276
L24597 16238
" />
<path d="M24991 15938
L24597 15938
" />
<path d="M24841 15901
L24991 15788
" />
<path d="M24728 15788
L24878 15938
" />
<path d="M24991 15638
L24991 15545
L24916 15545
L24897 15582
L24859 15620
L24803 15638
L24709 15638
L24653 15620
L24616 15582
L24597 15526
L24597 15451
L24616 15395
L24653 15357
L24709 15338
L24803 15338
L24859 15357
L24897 15395
L24916 15432
L24991 15432
L24991 15338
" />
</g>
<g style="fill:#000000; fill-opacity:0.0; 
stroke:#000000; stroke-width:31.4961; stroke-opacity:1; 
stroke-linecap:round; stroke-linejoin:round;">
<path d="M25551 16243
L25457 16309
" />
<path d="M25551 16355
L25354 16355
L25354 16280
L25364 16262
L25373 16252
L25392 16243
L25420 16243
L25439 16252
L25448 16262
L25457 16280
L25457 16355
" />
<path d="M25354 16074
L25354 16112
L25364 16130
L25373 16140
L25401 16159
L25439 16168
L25514 16168
L25532 16159
L25542 16149
L25551 16130
L25551 16093
L25542 16074
L25532 16065
L25514 16055
L25467 16055
L25448 16065
L25439 16074
L25429 16093
L25429 16130
L25439 16149
L25448 16159
L25467 16168
" />
</g>
<g style="fill:#000000; fill-opacity:0.0; 
stroke:#000000; stroke-width:59.0551; stroke-opacity:1; 
stroke-linecap:round; stroke-linejoin:round;">
<path d="M31381 14302
L31156 14302
" />
<path d="M31268 14302
L31268 13908
L31231 13964
L31193 14002
L31156 14020
" />
<path d="M31624 13908
L31662 13908
L31699 13927
L31718 13945
L31737 13983
L31756 14058
L31756 14152
L31737 14227
L31718 14264
L31699 14283
L31662 14302
L31624 14302
L31587 14283
L31568 14264
L31549 14227
L31531 14152
L31531 14058
L31549 13983
L31568 13945
L31587 13927
L31624 13908
" />
<path d="M31924 14302
L31924 13908
" />
<path d="M31962 14152
L32074 14302
" />
<path d="M32074 14039
L31924 14189
" />
<path d="M32224 14302
L32318 14302
L32318 14227
L32281 14208
L32243 14170
L32224 14114
L32224 14020
L32243 13964
L32281 13927
L32337 13908
L32412 13908
L32468 13927
L32506 13964
L32524 14020
L32524 14114
L32506 14170
L32468 14208
L32431 14227
L32431 14302
L32524 14302
" />
</g>
<g style="fill:#000000; fill-opacity:0.0; 
stroke:#000000; stroke-width:31.4961; stroke-opacity:1; 
stroke-linecap:round; stroke-linejoin:round;">
<path d="M30154 14173
L30088 14079
" />
<path d="M30041 14173
L30041 13976
L30116 13976
L30135 13986
L30144 13995
L30154 14014
L30154 14042
L30144 14061
L30135 14070
L30116 14079
L30041 14079
" />
<path d="M30219 13976
L30351 13976
L30266 14173
" />
</g>
<g style="fill:#000000; fill-opacity:0.0; 
stroke:#000000; stroke-width:59.0551; stroke-opacity:1; 
stroke-linecap:round; stroke-linejoin:round;">
<path d="M9774 4710
L9774 4935
" />
<path d="M9774 4823
L9380 4823
L9437 4860
L9474 4898
L9493 4935
" />
<path d="M9774 4542
L9380 4542
" />
<path d="M9624 4504
L9774 4392
" />
<path d="M9512 4392
L9662 4542
" />
<path d="M9774 4242
L9774 4148
L9699 4148
L9680 4185
L9643 4223
L9587 4242
L9493 4242
L9437 4223
L9399 4185
L9380 4129
L9380 4054
L9399 3998
L9437 3960
L9493 3942
L9587 3942
L9643 3960
L9680 3998
L9699 4035
L9774 4035
L9774 3942
" />
</g>
<g style="fill:#000000; fill-opacity:0.0; 
stroke:#000000; stroke-width:31.4961; stroke-opacity:1; 
stroke-linecap:round; stroke-linejoin:round;">
<path d="M9724 5770
L9631 5836
" />
<path d="M9724 5883
L9528 5883
L9528 5808
L9537 5789
L9546 5780
L9565 5770
L9593 5770
L9612 5780
L9621 5789
L9631 5808
L9631 5883
" />
<path d="M9612 5658
L9603 5677
L9593 5686
L9574 5696
L9565 5696
L9546 5686
L9537 5677
L9528 5658
L9528 5621
L9537 5602
L9546 5592
L9565 5583
L9574 5583
L9593 5592
L9603 5602
L9612 5621
L9612 5658
L9621 5677
L9631 5686
L9649 5696
L9687 5696
L9706 5686
L9715 5677
L9724 5658
L9724 5621
L9715 5602
L9706 5592
L9687 5583
L9649 5583
L9631 5592
L9621 5602
L9612 5621
" />
</g>
<g style="fill:#000000; fill-opacity:0.0; 
stroke:#000000; stroke-width:59.0551; stroke-opacity:1; 
stroke-linecap:round; stroke-linejoin:round;">
<path d="M7837 14124
L7612 14124
" />
<path d="M7725 14124
L7725 13731
L7687 13787
L7650 13824
L7612 13843
" />
<path d="M8081 13731
L8119 13731
L8156 13750
L8175 13768
L8194 13806
L8212 13881
L8212 13974
L8194 14049
L8175 14087
L8156 14106
L8119 14124
L8081 14124
L8044 14106
L8025 14087
L8006 14049
L7987 13974
L7987 13881
L8006 13806
L8025 13768
L8044 13750
L8081 13731
" />
<path d="M8381 14124
L8381 13731
" />
<path d="M8419 13974
L8531 14124
" />
<path d="M8531 13862
L8381 14012
" />
<path d="M8681 14124
L8775 14124
L8775 14049
L8737 14031
L8700 13993
L8681 13937
L8681 13843
L8700 13787
L8737 13750
L8794 13731
L8869 13731
L8925 13750
L8962 13787
L8981 13843
L8981 13937
L8962 13993
L8925 14031
L8887 14049
L8887 14124
L8981 14124
" />
</g>
<g style="fill:#000000; fill-opacity:0.0; 
stroke:#000000; stroke-width:31.4961; stroke-opacity:1; 
stroke-linecap:round; stroke-linejoin:round;">
<path d="M8170 14685
L8105 14591
" />
<path d="M8058 14685
L8058 14488
L8133 14488
L8151 14498
L8161 14507
L8170 14526
L8170 14554
L8161 14573
L8151 14582
L8133 14591
L8058 14591
" />
<path d="M8358 14685
L8245 14685
" />
<path d="M8301 14685
L8301 14488
L8283 14516
L8264 14535
L8245 14544
" />
<path d="M8480 14488
L8498 14488
L8517 14498
L8526 14507
L8536 14526
L8545 14563
L8545 14610
L8536 14648
L8526 14666
L8517 14676
L8498 14685
L8480 14685
L8461 14676
L8451 14666
L8442 14648
L8433 14610
L8433 14563
L8442 14526
L8451 14507
L8461 14498
L8480 14488
" />
</g>
<g style="fill:#000000; fill-opacity:0.0; 
stroke:#000000; stroke-width:59.0551; stroke-opacity:1; 
stroke-linecap:round; stroke-linejoin:round;">
<path d="M10680 14701
L10680 14926
" />
<path d="M10680 14813
L10286 14813
L10342 14851
L10380 14888
L10398 14926
" />
<path d="M10286 14457
L10286 14420
L10305 14382
L10323 14363
L10361 14345
L10436 14326
L10530 14326
L10605 14345
L10642 14363
L10661 14382
L10680 14420
L10680 14457
L10661 14495
L10642 14513
L10605 14532
L10530 14551
L10436 14551
L10361 14532
L10323 14513
L10305 14495
L10286 14457
" />
<path d="M10680 14157
L10286 14157
" />
<path d="M10530 14120
L10680 14007
" />
<path d="M10417 14007
L10567 14157
" />
<path d="M10680 13857
L10680 13764
L10605 13764
L10586 13801
L10548 13839
L10492 13857
L10398 13857
L10342 13839
L10305 13801
L10286 13745
L10286 13670
L10305 13614
L10342 13576
L10398 13557
L10492 13557
L10548 13576
L10586 13614
L10605 13651
L10680 13651
L10680 13557
" />
</g>
<g style="fill:#000000; fill-opacity:0.0; 
stroke:#000000; stroke-width:31.4961; stroke-opacity:1; 
stroke-linecap:round; stroke-linejoin:round;">
<path d="M11220 14447
L11127 14513
" />
<path d="M11220 14559
L11024 14559
L11024 14484
L11033 14466
L11042 14456
L11061 14447
L11089 14447
L11108 14456
L11117 14466
L11127 14484
L11127 14559
" />
<path d="M11220 14259
L11220 14372
" />
<path d="M11220 14316
L11024 14316
L11052 14334
L11070 14353
L11080 14372
" />
<path d="M11220 14072
L11220 14184
" />
<path d="M11220 14128
L11024 14128
L11052 14147
L11070 14166
L11080 14184
" />
</g>
<g style="fill:#000000; fill-opacity:0.0; 
stroke:#000000; stroke-width:59.0551; stroke-opacity:1; 
stroke-linecap:round; stroke-linejoin:round;">
<path d="M32046 4695
L31859 4695
L31859 4302
" />
<path d="M32178 4489
L32309 4489
" />
<path d="M32365 4695
L32178 4695
L32178 4302
L32365 4302
" />
<path d="M32534 4695
L32534 4302
L32627 4302
L32684 4320
L32721 4358
L32740 4395
L32759 4470
L32759 4527
L32740 4602
L32721 4639
L32684 4677
L32627 4695
L32534 4695
" />
<path d="M32834 4733
L33134 4733
" />
<path d="M33452 4695
L33321 4508
" />
<path d="M33227 4695
L33227 4302
L33377 4302
L33415 4320
L33434 4339
L33452 4377
L33452 4433
L33434 4470
L33415 4489
L33377 4508
L33227 4508
" />
<path d="M33621 4489
L33752 4489
" />
<path d="M33809 4695
L33621 4695
L33621 4302
L33809 4302
" />
<path d="M33977 4695
L33977 4302
L34071 4302
L34127 4320
L34165 4358
L34184 4395
L34202 4470
L34202 4527
L34184 4602
L34165 4639
L34127 4677
L34071 4695
L33977 4695
" />
</g>
<g style="fill:#000000; fill-opacity:0.0; 
stroke:#000000; stroke-width:23.622; stroke-opacity:1; 
stroke-linecap:round; stroke-linejoin:round;">
<path d="M29982 4588
L29982 4431
L30019 4431
L30042 4438
L30057 4453
L30064 4468
L30072 4498
L30072 4521
L30064 4551
L30057 4566
L30042 4581
L30019 4588
L29982 4588
" />
<path d="M30222 4588
L30132 4588
" />
<path d="M30177 4588
L30177 4431
L30162 4453
L30147 4468
L30132 4476
" />
</g>
<g style="fill:#000000; fill-opacity:0.0; 
stroke:#000000; stroke-width:59.0551; stroke-opacity:1; 
stroke-linecap:round; stroke-linejoin:round;">
<path d="M1855 19517
L1818 19498
L1761 19498
L1705 19517
L1668 19555
L1649 19592
L1630 19667
L1630 19723
L1649 19798
L1668 19836
L1705 19873
L1761 19892
L1799 19892
L1855 19873
L1874 19855
L1874 19723
L1799 19723
" />
<path d="M2043 19892
L2043 19498
L2267 19892
L2267 19498
" />
<path d="M2455 19892
L2455 19498
L2549 19498
L2605 19517
L2642 19555
L2661 19592
L2680 19667
L2680 19723
L2661 19798
L2642 19836
L2605 19873
L2549 19892
L2455 19892
" />
<path d="M1748 18632
L1748 18239
L1879 18520
L2011 18239
L2011 18632
" />
<path d="M2198 18632
L2198 18239
" />
<path d="M2198 18426
L2423 18426
" />
<path d="M2423 18632
L2423 18239
" />
<path d="M2798 18239
L2611 18239
L2592 18426
L2611 18407
L2648 18389
L2742 18389
L2779 18407
L2798 18426
L2817 18464
L2817 18557
L2798 18595
L2779 18614
L2742 18632
L2648 18632
L2611 18614
L2592 18595
" />
<path d="M8854 16823
L8835 16842
L8779 16861
L8741 16861
L8685 16842
L8647 16804
L8629 16767
L8610 16692
L8610 16636
L8629 16561
L8647 16523
L8685 16486
L8741 16467
L8779 16467
L8835 16486
L8854 16504
" />
<path d="M9097 16467
L9172 16467
L9210 16486
L9247 16523
L9266 16598
L9266 16729
L9247 16804
L9210 16842
L9172 16861
L9097 16861
L9060 16842
L9022 16804
L9004 16729
L9004 16598
L9022 16523
L9060 16486
L9097 16467
" />
<path d="M9435 16861
L9435 16467
L9566 16748
L9697 16467
L9697 16861
" />
<path d="M10257 424
L10257 30
" />
<path d="M10670 424
L10538 236
" />
<path d="M10445 424
L10445 30
L10595 30
L10632 49
L10651 67
L10670 105
L10670 161
L10651 199
L10632 217
L10595 236
L10445 236
" />
<path d="M11026 424
L10838 424
L10838 30
" />
<path d="M11157 424
L11157 30
L11288 311
L11420 30
L11420 424
" />
<path d="M11795 424
L11607 424
L11607 30
" />
<path d="M12095 30
L12020 30
L11982 49
L11963 67
L11926 124
L11907 199
L11907 349
L11926 386
L11945 405
L11982 424
L12057 424
L12095 405
L12113 386
L12132 349
L12132 255
L12113 217
L12095 199
L12057 180
L11982 180
L11945 199
L11926 217
L11907 255
" />
<path d="M12263 30
L12507 30
L12376 180
L12432 180
L12470 199
L12488 217
L12507 255
L12507 349
L12488 386
L12470 405
L12432 424
L12320 424
L12282 405
L12263 386
" />
<path d="M12844 161
L12844 424
" />
<path d="M12751 11
L12657 292
L12901 292
" />
<path d="M13219 161
L13219 424
" />
<path d="M13126 11
L13032 292
L13276 292
" />
<path d="M13369 30
L13594 30
" />
<path d="M13482 424
L13482 30
" />
<path d="M13951 424
L13819 236
" />
<path d="M13726 424
L13726 30
L13876 30
L13913 49
L13932 67
L13951 105
L13951 161
L13932 199
L13913 217
L13876 236
L13726 236
" />
<path d="M14119 424
L14119 30
L14269 30
L14307 49
L14326 67
L14344 105
L14344 161
L14326 199
L14307 217
L14269 236
L14119 236
" />
<path d="M14644 217
L14700 236
L14719 255
L14738 292
L14738 349
L14719 386
L14700 405
L14663 424
L14513 424
L14513 30
L14644 30
L14682 49
L14700 67
L14719 105
L14719 142
L14700 180
L14682 199
L14644 217
L14513 217
" />
<path d="M15038 217
L14907 217
" />
<path d="M14907 424
L14907 30
L15094 30
" />
</g>
<g style="fill:#000000; fill-opacity:0.0; 
stroke:#000000; stroke-width:19.685; stroke-opacity:1; 
stroke-linecap:round; stroke-linejoin:round;">
<path d="M12707 1520
L12697 1515
L12688 1506
L12674 1492
L12664 1487
L12655 1487
" />
<path d="M12660 1511
L12650 1506
L12641 1497
L12636 1478
L12636 1445
L12641 1426
L12650 1417
L12660 1412
L12679 1412
L12688 1417
L12697 1426
L12702 1445
L12702 1478
L12697 1497
L12688 1506
L12679 1511
L12660 1511
" />
<path d="M12739 1422
L12744 1417
L12754 1412
L12777 1412
L12786 1417
L12791 1422
L12796 1431
L12796 1440
L12791 1454
L12735 1511
L12796 1511
" />
</g> 
</svg>
