G04 #@! TF.GenerationSoftware,KiCad,Pcbnew,5.1.5*
G04 #@! TF.CreationDate,2020-01-04T17:56:06+01:00*
G04 #@! TF.ProjectId,eside_rev18,65736964-655f-4726-9576-31382e6b6963,rev?*
G04 #@! TF.SameCoordinates,Original*
G04 #@! TF.FileFunction,Legend,Bot*
G04 #@! TF.FilePolarity,Positive*
%FSLAX46Y46*%
G04 Gerber Fmt 4.6, Leading zero omitted, Abs format (unit mm)*
G04 Created by KiCad (PCBNEW 5.1.5) date 2020-01-04 17:56:06*
%MOMM*%
%LPD*%
G04 APERTURE LIST*
%ADD10C,0.120000*%
%ADD11C,0.150000*%
%ADD12C,0.100000*%
%ADD13C,0.010000*%
G04 APERTURE END LIST*
D10*
X147510000Y-84037221D02*
X147510000Y-84362779D01*
X146490000Y-84037221D02*
X146490000Y-84362779D01*
X91790000Y-99662779D02*
X91790000Y-99337221D01*
X92810000Y-99662779D02*
X92810000Y-99337221D01*
X93590000Y-99662779D02*
X93590000Y-99337221D01*
X94610000Y-99662779D02*
X94610000Y-99337221D01*
D11*
X143250000Y-105150000D02*
X143250000Y-106550000D01*
X143250000Y-108950000D02*
X143250000Y-109100000D01*
X143250000Y-109100000D02*
X142950000Y-109100000D01*
X142950000Y-109100000D02*
X142950000Y-109550000D01*
X135250000Y-109550000D02*
X135250000Y-109100000D01*
X135250000Y-109100000D02*
X134950000Y-109100000D01*
X134950000Y-109100000D02*
X134950000Y-108950000D01*
X134950000Y-106550000D02*
X134950000Y-105150000D01*
X140175000Y-102975000D02*
X140900000Y-102975000D01*
X140900000Y-102975000D02*
X140900000Y-103400000D01*
X140900000Y-103400000D02*
X141900000Y-103400000D01*
X137300000Y-103400000D02*
X136300000Y-103400000D01*
D10*
X54541422Y-96990000D02*
X55058578Y-96990000D01*
X54541422Y-98410000D02*
X55058578Y-98410000D01*
X54637221Y-99190000D02*
X54962779Y-99190000D01*
X54637221Y-100210000D02*
X54962779Y-100210000D01*
X62662779Y-104410000D02*
X62337221Y-104410000D01*
X62662779Y-103390000D02*
X62337221Y-103390000D01*
D12*
X101700000Y-96550000D02*
X100880000Y-96550000D01*
X101600000Y-99250000D02*
X100880000Y-99250000D01*
X101600000Y-99250000D02*
X101600000Y-99030000D01*
X98400000Y-99030000D02*
X98400000Y-99250000D01*
X98400000Y-99250000D02*
X99120000Y-99250000D01*
X99120000Y-96550000D02*
X98400000Y-96550000D01*
X98400000Y-96550000D02*
X98400000Y-96770000D01*
D10*
X52960000Y-75440000D02*
X51900000Y-75440000D01*
X52960000Y-76500000D02*
X52960000Y-75440000D01*
X52960000Y-77500000D02*
X50840000Y-77500000D01*
X50840000Y-77500000D02*
X50840000Y-83560000D01*
X52960000Y-77500000D02*
X52960000Y-83560000D01*
X52960000Y-83560000D02*
X50840000Y-83560000D01*
X130910000Y-96397936D02*
X130910000Y-97602064D01*
X129090000Y-96397936D02*
X129090000Y-97602064D01*
X65110000Y-96965000D02*
X65110000Y-96490000D01*
X65110000Y-96490000D02*
X64635000Y-96490000D01*
X59890000Y-101235000D02*
X59890000Y-101710000D01*
X59890000Y-101710000D02*
X60365000Y-101710000D01*
X59890000Y-96965000D02*
X59890000Y-96490000D01*
X59890000Y-96490000D02*
X60365000Y-96490000D01*
X65110000Y-101235000D02*
X65110000Y-101710000D01*
X99290000Y-102437221D02*
X99290000Y-102762779D01*
X100310000Y-102437221D02*
X100310000Y-102762779D01*
X91200000Y-107900000D02*
X90500000Y-107900000D01*
X144237221Y-84590000D02*
X144562779Y-84590000D01*
X144237221Y-85610000D02*
X144562779Y-85610000D01*
X61200000Y-107900000D02*
X60500000Y-107900000D01*
X79475000Y-106775000D02*
X78550000Y-106775000D01*
X83450000Y-106225000D02*
X83450000Y-106775000D01*
X78550000Y-106225000D02*
X78550000Y-106775000D01*
X83350000Y-104650000D02*
X78650000Y-104650000D01*
X83450000Y-106775000D02*
X82525000Y-106775000D01*
X67475000Y-106775000D02*
X66550000Y-106775000D01*
X71450000Y-106225000D02*
X71450000Y-106775000D01*
X66550000Y-106225000D02*
X66550000Y-106775000D01*
X71350000Y-104650000D02*
X66650000Y-104650000D01*
X71450000Y-106775000D02*
X70525000Y-106775000D01*
X131050000Y-106775000D02*
X130125000Y-106775000D01*
X130950000Y-104650000D02*
X126250000Y-104650000D01*
X126150000Y-106225000D02*
X126150000Y-106775000D01*
X131050000Y-106225000D02*
X131050000Y-106775000D01*
X127075000Y-106775000D02*
X126150000Y-106775000D01*
X76710000Y-103962779D02*
X76710000Y-103637221D01*
X75690000Y-103962779D02*
X75690000Y-103637221D01*
X74810000Y-103962779D02*
X74810000Y-103637221D01*
X73790000Y-103962779D02*
X73790000Y-103637221D01*
X122337221Y-102790000D02*
X122662779Y-102790000D01*
X122337221Y-103810000D02*
X122662779Y-103810000D01*
X115410000Y-101137221D02*
X115410000Y-101462779D01*
X114390000Y-101137221D02*
X114390000Y-101462779D01*
X114390000Y-96862779D02*
X114390000Y-96537221D01*
X115410000Y-96862779D02*
X115410000Y-96537221D01*
X122662779Y-102010000D02*
X122337221Y-102010000D01*
X122662779Y-100990000D02*
X122337221Y-100990000D01*
X144562779Y-83810000D02*
X144237221Y-83810000D01*
X144562779Y-82790000D02*
X144237221Y-82790000D01*
X69637221Y-94690000D02*
X69962779Y-94690000D01*
X69637221Y-95710000D02*
X69962779Y-95710000D01*
X122758578Y-105810000D02*
X122241422Y-105810000D01*
X122758578Y-104390000D02*
X122241422Y-104390000D01*
X144658578Y-91610000D02*
X144141422Y-91610000D01*
X144658578Y-90190000D02*
X144141422Y-90190000D01*
D11*
X61150000Y-83800000D02*
X77450000Y-83800000D01*
X61150000Y-79700000D02*
X61150000Y-83800000D01*
X77450000Y-79700000D02*
X61150000Y-79700000D01*
X77450000Y-83800000D02*
X77450000Y-79700000D01*
X141350000Y-71800000D02*
X141350000Y-94300000D01*
X142350000Y-71800000D02*
X141350000Y-71800000D01*
X146350000Y-54300000D02*
X146350000Y-71800000D01*
X141350000Y-87300000D02*
X140350000Y-86300000D01*
X141350000Y-87300000D02*
X140350000Y-88300000D01*
X137350000Y-87300000D02*
X141350000Y-87300000D01*
X141350000Y-87300000D02*
X137350000Y-87300000D01*
X141350000Y-54300000D02*
X141350000Y-71800000D01*
X142350000Y-63800000D02*
X141350000Y-62800000D01*
X141350000Y-64800000D02*
X142350000Y-63800000D01*
X142350000Y-63800000D02*
X138350000Y-63800000D01*
D13*
X142350000Y-71800000D02*
X142350000Y-54300000D01*
D11*
X146350000Y-71800000D02*
X142350000Y-71800000D01*
X53350000Y-94300000D02*
X141350000Y-94300000D01*
X53350000Y-54300000D02*
X53350000Y-94300000D01*
X146350000Y-54300000D02*
X53350000Y-54300000D01*
D10*
X123500000Y-95330000D02*
X117155000Y-95330000D01*
X123045000Y-100470000D02*
X117155000Y-100470000D01*
D11*
X142500000Y-78225000D02*
X145475000Y-78225000D01*
X143325000Y-75975000D02*
X145475000Y-75975000D01*
X147452380Y-80833333D02*
X146976190Y-80500000D01*
X147452380Y-80261904D02*
X146452380Y-80261904D01*
X146452380Y-80642857D01*
X146500000Y-80738095D01*
X146547619Y-80785714D01*
X146642857Y-80833333D01*
X146785714Y-80833333D01*
X146880952Y-80785714D01*
X146928571Y-80738095D01*
X146976190Y-80642857D01*
X146976190Y-80261904D01*
X146452380Y-81166666D02*
X146452380Y-81833333D01*
X147452380Y-81404761D01*
X92752380Y-103257142D02*
X92276190Y-102923809D01*
X92752380Y-102685714D02*
X91752380Y-102685714D01*
X91752380Y-103066666D01*
X91800000Y-103161904D01*
X91847619Y-103209523D01*
X91942857Y-103257142D01*
X92085714Y-103257142D01*
X92180952Y-103209523D01*
X92228571Y-103161904D01*
X92276190Y-103066666D01*
X92276190Y-102685714D01*
X92752380Y-104209523D02*
X92752380Y-103638095D01*
X92752380Y-103923809D02*
X91752380Y-103923809D01*
X91895238Y-103828571D01*
X91990476Y-103733333D01*
X92038095Y-103638095D01*
X91752380Y-104828571D02*
X91752380Y-104923809D01*
X91800000Y-105019047D01*
X91847619Y-105066666D01*
X91942857Y-105114285D01*
X92133333Y-105161904D01*
X92371428Y-105161904D01*
X92561904Y-105114285D01*
X92657142Y-105066666D01*
X92704761Y-105019047D01*
X92752380Y-104923809D01*
X92752380Y-104828571D01*
X92704761Y-104733333D01*
X92657142Y-104685714D01*
X92561904Y-104638095D01*
X92371428Y-104590476D01*
X92133333Y-104590476D01*
X91942857Y-104638095D01*
X91847619Y-104685714D01*
X91800000Y-104733333D01*
X91752380Y-104828571D01*
X94552380Y-103257142D02*
X94076190Y-102923809D01*
X94552380Y-102685714D02*
X93552380Y-102685714D01*
X93552380Y-103066666D01*
X93600000Y-103161904D01*
X93647619Y-103209523D01*
X93742857Y-103257142D01*
X93885714Y-103257142D01*
X93980952Y-103209523D01*
X94028571Y-103161904D01*
X94076190Y-103066666D01*
X94076190Y-102685714D01*
X94552380Y-104209523D02*
X94552380Y-103638095D01*
X94552380Y-103923809D02*
X93552380Y-103923809D01*
X93695238Y-103828571D01*
X93790476Y-103733333D01*
X93838095Y-103638095D01*
X94552380Y-105161904D02*
X94552380Y-104590476D01*
X94552380Y-104876190D02*
X93552380Y-104876190D01*
X93695238Y-104780952D01*
X93790476Y-104685714D01*
X93838095Y-104590476D01*
X139433333Y-105752380D02*
X139433333Y-106466666D01*
X139480952Y-106609523D01*
X139576190Y-106704761D01*
X139719047Y-106752380D01*
X139814285Y-106752380D01*
X138433333Y-106752380D02*
X139004761Y-106752380D01*
X138719047Y-106752380D02*
X138719047Y-105752380D01*
X138814285Y-105895238D01*
X138909523Y-105990476D01*
X139004761Y-106038095D01*
X52166666Y-101152380D02*
X52642857Y-101152380D01*
X52642857Y-100152380D01*
X51309523Y-101152380D02*
X51880952Y-101152380D01*
X51595238Y-101152380D02*
X51595238Y-100152380D01*
X51690476Y-100295238D01*
X51785714Y-100390476D01*
X51880952Y-100438095D01*
X52266666Y-102557142D02*
X52314285Y-102604761D01*
X52457142Y-102652380D01*
X52552380Y-102652380D01*
X52695238Y-102604761D01*
X52790476Y-102509523D01*
X52838095Y-102414285D01*
X52885714Y-102223809D01*
X52885714Y-102080952D01*
X52838095Y-101890476D01*
X52790476Y-101795238D01*
X52695238Y-101700000D01*
X52552380Y-101652380D01*
X52457142Y-101652380D01*
X52314285Y-101700000D01*
X52266666Y-101747619D01*
X51361904Y-101652380D02*
X51838095Y-101652380D01*
X51885714Y-102128571D01*
X51838095Y-102080952D01*
X51742857Y-102033333D01*
X51504761Y-102033333D01*
X51409523Y-102080952D01*
X51361904Y-102128571D01*
X51314285Y-102223809D01*
X51314285Y-102461904D01*
X51361904Y-102557142D01*
X51409523Y-102604761D01*
X51504761Y-102652380D01*
X51742857Y-102652380D01*
X51838095Y-102604761D01*
X51885714Y-102557142D01*
X59966666Y-104257142D02*
X60014285Y-104304761D01*
X60157142Y-104352380D01*
X60252380Y-104352380D01*
X60395238Y-104304761D01*
X60490476Y-104209523D01*
X60538095Y-104114285D01*
X60585714Y-103923809D01*
X60585714Y-103780952D01*
X60538095Y-103590476D01*
X60490476Y-103495238D01*
X60395238Y-103400000D01*
X60252380Y-103352380D01*
X60157142Y-103352380D01*
X60014285Y-103400000D01*
X59966666Y-103447619D01*
X59633333Y-103352380D02*
X58966666Y-103352380D01*
X59395238Y-104352380D01*
X97361904Y-96952380D02*
X97361904Y-97761904D01*
X97314285Y-97857142D01*
X97266666Y-97904761D01*
X97171428Y-97952380D01*
X96980952Y-97952380D01*
X96885714Y-97904761D01*
X96838095Y-97857142D01*
X96790476Y-97761904D01*
X96790476Y-96952380D01*
X96361904Y-97047619D02*
X96314285Y-97000000D01*
X96219047Y-96952380D01*
X95980952Y-96952380D01*
X95885714Y-97000000D01*
X95838095Y-97047619D01*
X95790476Y-97142857D01*
X95790476Y-97238095D01*
X95838095Y-97380952D01*
X96409523Y-97952380D01*
X95790476Y-97952380D01*
X52233333Y-73552380D02*
X52233333Y-74266666D01*
X52280952Y-74409523D01*
X52376190Y-74504761D01*
X52519047Y-74552380D01*
X52614285Y-74552380D01*
X51852380Y-73552380D02*
X51233333Y-73552380D01*
X51566666Y-73933333D01*
X51423809Y-73933333D01*
X51328571Y-73980952D01*
X51280952Y-74028571D01*
X51233333Y-74123809D01*
X51233333Y-74361904D01*
X51280952Y-74457142D01*
X51328571Y-74504761D01*
X51423809Y-74552380D01*
X51709523Y-74552380D01*
X51804761Y-74504761D01*
X51852380Y-74457142D01*
X132966666Y-95457142D02*
X133014285Y-95504761D01*
X133157142Y-95552380D01*
X133252380Y-95552380D01*
X133395238Y-95504761D01*
X133490476Y-95409523D01*
X133538095Y-95314285D01*
X133585714Y-95123809D01*
X133585714Y-94980952D01*
X133538095Y-94790476D01*
X133490476Y-94695238D01*
X133395238Y-94600000D01*
X133252380Y-94552380D01*
X133157142Y-94552380D01*
X133014285Y-94600000D01*
X132966666Y-94647619D01*
X132585714Y-94647619D02*
X132538095Y-94600000D01*
X132442857Y-94552380D01*
X132204761Y-94552380D01*
X132109523Y-94600000D01*
X132061904Y-94647619D01*
X132014285Y-94742857D01*
X132014285Y-94838095D01*
X132061904Y-94980952D01*
X132633333Y-95552380D01*
X132014285Y-95552380D01*
X66261904Y-102852380D02*
X66261904Y-103661904D01*
X66214285Y-103757142D01*
X66166666Y-103804761D01*
X66071428Y-103852380D01*
X65880952Y-103852380D01*
X65785714Y-103804761D01*
X65738095Y-103757142D01*
X65690476Y-103661904D01*
X65690476Y-102852380D01*
X65309523Y-102852380D02*
X64690476Y-102852380D01*
X65023809Y-103233333D01*
X64880952Y-103233333D01*
X64785714Y-103280952D01*
X64738095Y-103328571D01*
X64690476Y-103423809D01*
X64690476Y-103661904D01*
X64738095Y-103757142D01*
X64785714Y-103804761D01*
X64880952Y-103852380D01*
X65166666Y-103852380D01*
X65261904Y-103804761D01*
X65309523Y-103757142D01*
X102566666Y-102957142D02*
X102614285Y-103004761D01*
X102757142Y-103052380D01*
X102852380Y-103052380D01*
X102995238Y-103004761D01*
X103090476Y-102909523D01*
X103138095Y-102814285D01*
X103185714Y-102623809D01*
X103185714Y-102480952D01*
X103138095Y-102290476D01*
X103090476Y-102195238D01*
X102995238Y-102100000D01*
X102852380Y-102052380D01*
X102757142Y-102052380D01*
X102614285Y-102100000D01*
X102566666Y-102147619D01*
X101709523Y-102385714D02*
X101709523Y-103052380D01*
X101947619Y-102004761D02*
X102185714Y-102719047D01*
X101566666Y-102719047D01*
X93838095Y-106952380D02*
X93838095Y-105952380D01*
X93600000Y-105952380D01*
X93457142Y-106000000D01*
X93361904Y-106095238D01*
X93314285Y-106190476D01*
X93266666Y-106380952D01*
X93266666Y-106523809D01*
X93314285Y-106714285D01*
X93361904Y-106809523D01*
X93457142Y-106904761D01*
X93600000Y-106952380D01*
X93838095Y-106952380D01*
X92933333Y-105952380D02*
X92314285Y-105952380D01*
X92647619Y-106333333D01*
X92504761Y-106333333D01*
X92409523Y-106380952D01*
X92361904Y-106428571D01*
X92314285Y-106523809D01*
X92314285Y-106761904D01*
X92361904Y-106857142D01*
X92409523Y-106904761D01*
X92504761Y-106952380D01*
X92790476Y-106952380D01*
X92885714Y-106904761D01*
X92933333Y-106857142D01*
D12*
X91528571Y-105871428D02*
X91871428Y-105871428D01*
X91700000Y-105871428D02*
X91700000Y-105271428D01*
X91757142Y-105357142D01*
X91814285Y-105414285D01*
X91871428Y-105442857D01*
D11*
X141747619Y-85266666D02*
X142223809Y-85600000D01*
X141747619Y-85838095D02*
X142747619Y-85838095D01*
X142747619Y-85457142D01*
X142700000Y-85361904D01*
X142652380Y-85314285D01*
X142557142Y-85266666D01*
X142414285Y-85266666D01*
X142319047Y-85314285D01*
X142271428Y-85361904D01*
X142223809Y-85457142D01*
X142223809Y-85838095D01*
X142747619Y-84409523D02*
X142747619Y-84600000D01*
X142700000Y-84695238D01*
X142652380Y-84742857D01*
X142509523Y-84838095D01*
X142319047Y-84885714D01*
X141938095Y-84885714D01*
X141842857Y-84838095D01*
X141795238Y-84790476D01*
X141747619Y-84695238D01*
X141747619Y-84504761D01*
X141795238Y-84409523D01*
X141842857Y-84361904D01*
X141938095Y-84314285D01*
X142176190Y-84314285D01*
X142271428Y-84361904D01*
X142319047Y-84409523D01*
X142366666Y-84504761D01*
X142366666Y-84695238D01*
X142319047Y-84790476D01*
X142271428Y-84838095D01*
X142176190Y-84885714D01*
X57838095Y-106952380D02*
X57838095Y-105952380D01*
X57600000Y-105952380D01*
X57457142Y-106000000D01*
X57361904Y-106095238D01*
X57314285Y-106190476D01*
X57266666Y-106380952D01*
X57266666Y-106523809D01*
X57314285Y-106714285D01*
X57361904Y-106809523D01*
X57457142Y-106904761D01*
X57600000Y-106952380D01*
X57838095Y-106952380D01*
X56885714Y-106047619D02*
X56838095Y-106000000D01*
X56742857Y-105952380D01*
X56504761Y-105952380D01*
X56409523Y-106000000D01*
X56361904Y-106047619D01*
X56314285Y-106142857D01*
X56314285Y-106238095D01*
X56361904Y-106380952D01*
X56933333Y-106952380D01*
X56314285Y-106952380D01*
X82333333Y-108004761D02*
X82190476Y-108052380D01*
X81952380Y-108052380D01*
X81857142Y-108004761D01*
X81809523Y-107957142D01*
X81761904Y-107861904D01*
X81761904Y-107766666D01*
X81809523Y-107671428D01*
X81857142Y-107623809D01*
X81952380Y-107576190D01*
X82142857Y-107528571D01*
X82238095Y-107480952D01*
X82285714Y-107433333D01*
X82333333Y-107338095D01*
X82333333Y-107242857D01*
X82285714Y-107147619D01*
X82238095Y-107100000D01*
X82142857Y-107052380D01*
X81904761Y-107052380D01*
X81761904Y-107100000D01*
X81428571Y-107052380D02*
X81190476Y-108052380D01*
X81000000Y-107338095D01*
X80809523Y-108052380D01*
X80571428Y-107052380D01*
X80285714Y-107052380D02*
X79666666Y-107052380D01*
X80000000Y-107433333D01*
X79857142Y-107433333D01*
X79761904Y-107480952D01*
X79714285Y-107528571D01*
X79666666Y-107623809D01*
X79666666Y-107861904D01*
X79714285Y-107957142D01*
X79761904Y-108004761D01*
X79857142Y-108052380D01*
X80142857Y-108052380D01*
X80238095Y-108004761D01*
X80285714Y-107957142D01*
X70333333Y-107904761D02*
X70190476Y-107952380D01*
X69952380Y-107952380D01*
X69857142Y-107904761D01*
X69809523Y-107857142D01*
X69761904Y-107761904D01*
X69761904Y-107666666D01*
X69809523Y-107571428D01*
X69857142Y-107523809D01*
X69952380Y-107476190D01*
X70142857Y-107428571D01*
X70238095Y-107380952D01*
X70285714Y-107333333D01*
X70333333Y-107238095D01*
X70333333Y-107142857D01*
X70285714Y-107047619D01*
X70238095Y-107000000D01*
X70142857Y-106952380D01*
X69904761Y-106952380D01*
X69761904Y-107000000D01*
X69428571Y-106952380D02*
X69190476Y-107952380D01*
X69000000Y-107238095D01*
X68809523Y-107952380D01*
X68571428Y-106952380D01*
X68238095Y-107047619D02*
X68190476Y-107000000D01*
X68095238Y-106952380D01*
X67857142Y-106952380D01*
X67761904Y-107000000D01*
X67714285Y-107047619D01*
X67666666Y-107142857D01*
X67666666Y-107238095D01*
X67714285Y-107380952D01*
X68285714Y-107952380D01*
X67666666Y-107952380D01*
X129933333Y-108204761D02*
X129790476Y-108252380D01*
X129552380Y-108252380D01*
X129457142Y-108204761D01*
X129409523Y-108157142D01*
X129361904Y-108061904D01*
X129361904Y-107966666D01*
X129409523Y-107871428D01*
X129457142Y-107823809D01*
X129552380Y-107776190D01*
X129742857Y-107728571D01*
X129838095Y-107680952D01*
X129885714Y-107633333D01*
X129933333Y-107538095D01*
X129933333Y-107442857D01*
X129885714Y-107347619D01*
X129838095Y-107300000D01*
X129742857Y-107252380D01*
X129504761Y-107252380D01*
X129361904Y-107300000D01*
X129028571Y-107252380D02*
X128790476Y-108252380D01*
X128600000Y-107538095D01*
X128409523Y-108252380D01*
X128171428Y-107252380D01*
X127266666Y-108252380D02*
X127838095Y-108252380D01*
X127552380Y-108252380D02*
X127552380Y-107252380D01*
X127647619Y-107395238D01*
X127742857Y-107490476D01*
X127838095Y-107538095D01*
X79142857Y-102952380D02*
X79476190Y-102476190D01*
X79714285Y-102952380D02*
X79714285Y-101952380D01*
X79333333Y-101952380D01*
X79238095Y-102000000D01*
X79190476Y-102047619D01*
X79142857Y-102142857D01*
X79142857Y-102285714D01*
X79190476Y-102380952D01*
X79238095Y-102428571D01*
X79333333Y-102476190D01*
X79714285Y-102476190D01*
X78190476Y-102952380D02*
X78761904Y-102952380D01*
X78476190Y-102952380D02*
X78476190Y-101952380D01*
X78571428Y-102095238D01*
X78666666Y-102190476D01*
X78761904Y-102238095D01*
X77857142Y-101952380D02*
X77238095Y-101952380D01*
X77571428Y-102333333D01*
X77428571Y-102333333D01*
X77333333Y-102380952D01*
X77285714Y-102428571D01*
X77238095Y-102523809D01*
X77238095Y-102761904D01*
X77285714Y-102857142D01*
X77333333Y-102904761D01*
X77428571Y-102952380D01*
X77714285Y-102952380D01*
X77809523Y-102904761D01*
X77857142Y-102857142D01*
X72942857Y-102952380D02*
X73276190Y-102476190D01*
X73514285Y-102952380D02*
X73514285Y-101952380D01*
X73133333Y-101952380D01*
X73038095Y-102000000D01*
X72990476Y-102047619D01*
X72942857Y-102142857D01*
X72942857Y-102285714D01*
X72990476Y-102380952D01*
X73038095Y-102428571D01*
X73133333Y-102476190D01*
X73514285Y-102476190D01*
X71990476Y-102952380D02*
X72561904Y-102952380D01*
X72276190Y-102952380D02*
X72276190Y-101952380D01*
X72371428Y-102095238D01*
X72466666Y-102190476D01*
X72561904Y-102238095D01*
X71609523Y-102047619D02*
X71561904Y-102000000D01*
X71466666Y-101952380D01*
X71228571Y-101952380D01*
X71133333Y-102000000D01*
X71085714Y-102047619D01*
X71038095Y-102142857D01*
X71038095Y-102238095D01*
X71085714Y-102380952D01*
X71657142Y-102952380D01*
X71038095Y-102952380D01*
X120066666Y-103752380D02*
X120400000Y-103276190D01*
X120638095Y-103752380D02*
X120638095Y-102752380D01*
X120257142Y-102752380D01*
X120161904Y-102800000D01*
X120114285Y-102847619D01*
X120066666Y-102942857D01*
X120066666Y-103085714D01*
X120114285Y-103180952D01*
X120161904Y-103228571D01*
X120257142Y-103276190D01*
X120638095Y-103276190D01*
X119161904Y-102752380D02*
X119638095Y-102752380D01*
X119685714Y-103228571D01*
X119638095Y-103180952D01*
X119542857Y-103133333D01*
X119304761Y-103133333D01*
X119209523Y-103180952D01*
X119161904Y-103228571D01*
X119114285Y-103323809D01*
X119114285Y-103561904D01*
X119161904Y-103657142D01*
X119209523Y-103704761D01*
X119304761Y-103752380D01*
X119542857Y-103752380D01*
X119638095Y-103704761D01*
X119685714Y-103657142D01*
X113852380Y-101133333D02*
X113376190Y-100800000D01*
X113852380Y-100561904D02*
X112852380Y-100561904D01*
X112852380Y-100942857D01*
X112900000Y-101038095D01*
X112947619Y-101085714D01*
X113042857Y-101133333D01*
X113185714Y-101133333D01*
X113280952Y-101085714D01*
X113328571Y-101038095D01*
X113376190Y-100942857D01*
X113376190Y-100561904D01*
X113185714Y-101990476D02*
X113852380Y-101990476D01*
X112804761Y-101752380D02*
X113519047Y-101514285D01*
X113519047Y-102133333D01*
X113752380Y-96433333D02*
X113276190Y-96100000D01*
X113752380Y-95861904D02*
X112752380Y-95861904D01*
X112752380Y-96242857D01*
X112800000Y-96338095D01*
X112847619Y-96385714D01*
X112942857Y-96433333D01*
X113085714Y-96433333D01*
X113180952Y-96385714D01*
X113228571Y-96338095D01*
X113276190Y-96242857D01*
X113276190Y-95861904D01*
X112752380Y-96766666D02*
X112752380Y-97385714D01*
X113133333Y-97052380D01*
X113133333Y-97195238D01*
X113180952Y-97290476D01*
X113228571Y-97338095D01*
X113323809Y-97385714D01*
X113561904Y-97385714D01*
X113657142Y-97338095D01*
X113704761Y-97290476D01*
X113752380Y-97195238D01*
X113752380Y-96909523D01*
X113704761Y-96814285D01*
X113657142Y-96766666D01*
X120066666Y-101952380D02*
X120400000Y-101476190D01*
X120638095Y-101952380D02*
X120638095Y-100952380D01*
X120257142Y-100952380D01*
X120161904Y-101000000D01*
X120114285Y-101047619D01*
X120066666Y-101142857D01*
X120066666Y-101285714D01*
X120114285Y-101380952D01*
X120161904Y-101428571D01*
X120257142Y-101476190D01*
X120638095Y-101476190D01*
X119685714Y-101047619D02*
X119638095Y-101000000D01*
X119542857Y-100952380D01*
X119304761Y-100952380D01*
X119209523Y-101000000D01*
X119161904Y-101047619D01*
X119114285Y-101142857D01*
X119114285Y-101238095D01*
X119161904Y-101380952D01*
X119733333Y-101952380D01*
X119114285Y-101952380D01*
X144566666Y-82152380D02*
X144900000Y-81676190D01*
X145138095Y-82152380D02*
X145138095Y-81152380D01*
X144757142Y-81152380D01*
X144661904Y-81200000D01*
X144614285Y-81247619D01*
X144566666Y-81342857D01*
X144566666Y-81485714D01*
X144614285Y-81580952D01*
X144661904Y-81628571D01*
X144757142Y-81676190D01*
X145138095Y-81676190D01*
X143614285Y-82152380D02*
X144185714Y-82152380D01*
X143900000Y-82152380D02*
X143900000Y-81152380D01*
X143995238Y-81295238D01*
X144090476Y-81390476D01*
X144185714Y-81438095D01*
X52033333Y-98752380D02*
X52033333Y-99466666D01*
X52080952Y-99609523D01*
X52176190Y-99704761D01*
X52319047Y-99752380D01*
X52414285Y-99752380D01*
X51604761Y-98847619D02*
X51557142Y-98800000D01*
X51461904Y-98752380D01*
X51223809Y-98752380D01*
X51128571Y-98800000D01*
X51080952Y-98847619D01*
X51033333Y-98942857D01*
X51033333Y-99038095D01*
X51080952Y-99180952D01*
X51652380Y-99752380D01*
X51033333Y-99752380D01*
X105061904Y-106552380D02*
X105061904Y-105552380D01*
X105061904Y-106028571D02*
X104490476Y-106028571D01*
X104490476Y-106552380D02*
X104490476Y-105552380D01*
X103585714Y-105552380D02*
X103776190Y-105552380D01*
X103871428Y-105600000D01*
X103919047Y-105647619D01*
X104014285Y-105790476D01*
X104061904Y-105980952D01*
X104061904Y-106361904D01*
X104014285Y-106457142D01*
X103966666Y-106504761D01*
X103871428Y-106552380D01*
X103680952Y-106552380D01*
X103585714Y-106504761D01*
X103538095Y-106457142D01*
X103490476Y-106361904D01*
X103490476Y-106123809D01*
X103538095Y-106028571D01*
X103585714Y-105980952D01*
X103680952Y-105933333D01*
X103871428Y-105933333D01*
X103966666Y-105980952D01*
X104014285Y-106028571D01*
X104061904Y-106123809D01*
X100761904Y-55652380D02*
X100761904Y-54652380D01*
X100761904Y-55128571D02*
X100190476Y-55128571D01*
X100190476Y-55652380D02*
X100190476Y-54652380D01*
X99238095Y-54652380D02*
X99714285Y-54652380D01*
X99761904Y-55128571D01*
X99714285Y-55080952D01*
X99619047Y-55033333D01*
X99380952Y-55033333D01*
X99285714Y-55080952D01*
X99238095Y-55128571D01*
X99190476Y-55223809D01*
X99190476Y-55461904D01*
X99238095Y-55557142D01*
X99285714Y-55604761D01*
X99380952Y-55652380D01*
X99619047Y-55652380D01*
X99714285Y-55604761D01*
X99761904Y-55557142D01*
X55461904Y-104752380D02*
X55461904Y-103752380D01*
X55461904Y-104228571D02*
X54890476Y-104228571D01*
X54890476Y-104752380D02*
X54890476Y-103752380D01*
X53985714Y-104085714D02*
X53985714Y-104752380D01*
X54223809Y-103704761D02*
X54461904Y-104419047D01*
X53842857Y-104419047D01*
X148261904Y-55652380D02*
X148261904Y-54652380D01*
X148261904Y-55128571D02*
X147690476Y-55128571D01*
X147690476Y-55652380D02*
X147690476Y-54652380D01*
X147309523Y-54652380D02*
X146690476Y-54652380D01*
X147023809Y-55033333D01*
X146880952Y-55033333D01*
X146785714Y-55080952D01*
X146738095Y-55128571D01*
X146690476Y-55223809D01*
X146690476Y-55461904D01*
X146738095Y-55557142D01*
X146785714Y-55604761D01*
X146880952Y-55652380D01*
X147166666Y-55652380D01*
X147261904Y-55604761D01*
X147309523Y-55557142D01*
X147761904Y-104352380D02*
X147761904Y-103352380D01*
X147761904Y-103828571D02*
X147190476Y-103828571D01*
X147190476Y-104352380D02*
X147190476Y-103352380D01*
X146761904Y-103447619D02*
X146714285Y-103400000D01*
X146619047Y-103352380D01*
X146380952Y-103352380D01*
X146285714Y-103400000D01*
X146238095Y-103447619D01*
X146190476Y-103542857D01*
X146190476Y-103638095D01*
X146238095Y-103780952D01*
X146809523Y-104352380D01*
X146190476Y-104352380D01*
X53261904Y-55652380D02*
X53261904Y-54652380D01*
X53261904Y-55128571D02*
X52690476Y-55128571D01*
X52690476Y-55652380D02*
X52690476Y-54652380D01*
X51690476Y-55652380D02*
X52261904Y-55652380D01*
X51976190Y-55652380D02*
X51976190Y-54652380D01*
X52071428Y-54795238D01*
X52166666Y-54890476D01*
X52261904Y-54938095D01*
X73066666Y-95557142D02*
X73114285Y-95604761D01*
X73257142Y-95652380D01*
X73352380Y-95652380D01*
X73495238Y-95604761D01*
X73590476Y-95509523D01*
X73638095Y-95414285D01*
X73685714Y-95223809D01*
X73685714Y-95080952D01*
X73638095Y-94890476D01*
X73590476Y-94795238D01*
X73495238Y-94700000D01*
X73352380Y-94652380D01*
X73257142Y-94652380D01*
X73114285Y-94700000D01*
X73066666Y-94747619D01*
X72209523Y-94652380D02*
X72400000Y-94652380D01*
X72495238Y-94700000D01*
X72542857Y-94747619D01*
X72638095Y-94890476D01*
X72685714Y-95080952D01*
X72685714Y-95461904D01*
X72638095Y-95557142D01*
X72590476Y-95604761D01*
X72495238Y-95652380D01*
X72304761Y-95652380D01*
X72209523Y-95604761D01*
X72161904Y-95557142D01*
X72114285Y-95461904D01*
X72114285Y-95223809D01*
X72161904Y-95128571D01*
X72209523Y-95080952D01*
X72304761Y-95033333D01*
X72495238Y-95033333D01*
X72590476Y-95080952D01*
X72638095Y-95128571D01*
X72685714Y-95223809D01*
X119966666Y-105457142D02*
X120014285Y-105504761D01*
X120157142Y-105552380D01*
X120252380Y-105552380D01*
X120395238Y-105504761D01*
X120490476Y-105409523D01*
X120538095Y-105314285D01*
X120585714Y-105123809D01*
X120585714Y-104980952D01*
X120538095Y-104790476D01*
X120490476Y-104695238D01*
X120395238Y-104600000D01*
X120252380Y-104552380D01*
X120157142Y-104552380D01*
X120014285Y-104600000D01*
X119966666Y-104647619D01*
X119633333Y-104552380D02*
X119014285Y-104552380D01*
X119347619Y-104933333D01*
X119204761Y-104933333D01*
X119109523Y-104980952D01*
X119061904Y-105028571D01*
X119014285Y-105123809D01*
X119014285Y-105361904D01*
X119061904Y-105457142D01*
X119109523Y-105504761D01*
X119204761Y-105552380D01*
X119490476Y-105552380D01*
X119585714Y-105504761D01*
X119633333Y-105457142D01*
X147466666Y-91257142D02*
X147514285Y-91304761D01*
X147657142Y-91352380D01*
X147752380Y-91352380D01*
X147895238Y-91304761D01*
X147990476Y-91209523D01*
X148038095Y-91114285D01*
X148085714Y-90923809D01*
X148085714Y-90780952D01*
X148038095Y-90590476D01*
X147990476Y-90495238D01*
X147895238Y-90400000D01*
X147752380Y-90352380D01*
X147657142Y-90352380D01*
X147514285Y-90400000D01*
X147466666Y-90447619D01*
X146514285Y-91352380D02*
X147085714Y-91352380D01*
X146800000Y-91352380D02*
X146800000Y-90352380D01*
X146895238Y-90495238D01*
X146990476Y-90590476D01*
X147085714Y-90638095D01*
X143728571Y-58014285D02*
X143776190Y-58157142D01*
X143823809Y-58204761D01*
X143919047Y-58252380D01*
X144061904Y-58252380D01*
X144157142Y-58204761D01*
X144204761Y-58157142D01*
X144252380Y-58061904D01*
X144252380Y-57680952D01*
X143252380Y-57680952D01*
X143252380Y-58014285D01*
X143300000Y-58109523D01*
X143347619Y-58157142D01*
X143442857Y-58204761D01*
X143538095Y-58204761D01*
X143633333Y-58157142D01*
X143680952Y-58109523D01*
X143728571Y-58014285D01*
X143728571Y-57680952D01*
X143252380Y-58538095D02*
X143252380Y-59109523D01*
X144252380Y-58823809D02*
X143252380Y-58823809D01*
X144252380Y-59966666D02*
X144252380Y-59395238D01*
X144252380Y-59680952D02*
X143252380Y-59680952D01*
X143395238Y-59585714D01*
X143490476Y-59490476D01*
X143538095Y-59395238D01*
X79876190Y-84985714D02*
X79876190Y-85652380D01*
X80114285Y-84604761D02*
X80352380Y-85319047D01*
X79733333Y-85319047D01*
X79352380Y-85557142D02*
X79304761Y-85604761D01*
X79352380Y-85652380D01*
X79400000Y-85604761D01*
X79352380Y-85557142D01*
X79352380Y-85652380D01*
X78447619Y-84985714D02*
X78447619Y-85652380D01*
X78685714Y-84604761D02*
X78923809Y-85319047D01*
X78304761Y-85319047D01*
X77304761Y-84652380D02*
X76971428Y-85652380D01*
X76638095Y-84652380D01*
X76161904Y-85652380D02*
X76257142Y-85604761D01*
X76304761Y-85557142D01*
X76352380Y-85461904D01*
X76352380Y-85176190D01*
X76304761Y-85080952D01*
X76257142Y-85033333D01*
X76161904Y-84985714D01*
X76019047Y-84985714D01*
X75923809Y-85033333D01*
X75876190Y-85080952D01*
X75828571Y-85176190D01*
X75828571Y-85461904D01*
X75876190Y-85557142D01*
X75923809Y-85604761D01*
X76019047Y-85652380D01*
X76161904Y-85652380D01*
X75257142Y-85652380D02*
X75352380Y-85604761D01*
X75400000Y-85509523D01*
X75400000Y-84652380D01*
X75019047Y-84985714D02*
X74638095Y-84985714D01*
X74876190Y-84652380D02*
X74876190Y-85509523D01*
X74828571Y-85604761D01*
X74733333Y-85652380D01*
X74638095Y-85652380D01*
X73114285Y-85604761D02*
X73209523Y-85652380D01*
X73400000Y-85652380D01*
X73495238Y-85604761D01*
X73542857Y-85557142D01*
X73590476Y-85461904D01*
X73590476Y-85176190D01*
X73542857Y-85080952D01*
X73495238Y-85033333D01*
X73400000Y-84985714D01*
X73209523Y-84985714D01*
X73114285Y-85033333D01*
X72685714Y-85652380D02*
X72685714Y-84652380D01*
X72257142Y-85652380D02*
X72257142Y-85128571D01*
X72304761Y-85033333D01*
X72400000Y-84985714D01*
X72542857Y-84985714D01*
X72638095Y-85033333D01*
X72685714Y-85080952D01*
X71352380Y-85652380D02*
X71352380Y-85128571D01*
X71400000Y-85033333D01*
X71495238Y-84985714D01*
X71685714Y-84985714D01*
X71780952Y-85033333D01*
X71352380Y-85604761D02*
X71447619Y-85652380D01*
X71685714Y-85652380D01*
X71780952Y-85604761D01*
X71828571Y-85509523D01*
X71828571Y-85414285D01*
X71780952Y-85319047D01*
X71685714Y-85271428D01*
X71447619Y-85271428D01*
X71352380Y-85223809D01*
X70876190Y-85652380D02*
X70876190Y-84985714D01*
X70876190Y-85176190D02*
X70828571Y-85080952D01*
X70780952Y-85033333D01*
X70685714Y-84985714D01*
X70590476Y-84985714D01*
X69828571Y-84985714D02*
X69828571Y-85795238D01*
X69876190Y-85890476D01*
X69923809Y-85938095D01*
X70019047Y-85985714D01*
X70161904Y-85985714D01*
X70257142Y-85938095D01*
X69828571Y-85604761D02*
X69923809Y-85652380D01*
X70114285Y-85652380D01*
X70209523Y-85604761D01*
X70257142Y-85557142D01*
X70304761Y-85461904D01*
X70304761Y-85176190D01*
X70257142Y-85080952D01*
X70209523Y-85033333D01*
X70114285Y-84985714D01*
X69923809Y-84985714D01*
X69828571Y-85033333D01*
X69352380Y-85652380D02*
X69352380Y-84985714D01*
X69352380Y-84652380D02*
X69400000Y-84700000D01*
X69352380Y-84747619D01*
X69304761Y-84700000D01*
X69352380Y-84652380D01*
X69352380Y-84747619D01*
X68876190Y-84985714D02*
X68876190Y-85652380D01*
X68876190Y-85080952D02*
X68828571Y-85033333D01*
X68733333Y-84985714D01*
X68590476Y-84985714D01*
X68495238Y-85033333D01*
X68447619Y-85128571D01*
X68447619Y-85652380D01*
X67542857Y-84985714D02*
X67542857Y-85795238D01*
X67590476Y-85890476D01*
X67638095Y-85938095D01*
X67733333Y-85985714D01*
X67876190Y-85985714D01*
X67971428Y-85938095D01*
X67542857Y-85604761D02*
X67638095Y-85652380D01*
X67828571Y-85652380D01*
X67923809Y-85604761D01*
X67971428Y-85557142D01*
X68019047Y-85461904D01*
X68019047Y-85176190D01*
X67971428Y-85080952D01*
X67923809Y-85033333D01*
X67828571Y-84985714D01*
X67638095Y-84985714D01*
X67542857Y-85033333D01*
X66447619Y-84652380D02*
X66114285Y-85652380D01*
X65780952Y-84652380D01*
X65304761Y-85652380D02*
X65400000Y-85604761D01*
X65447619Y-85557142D01*
X65495238Y-85461904D01*
X65495238Y-85176190D01*
X65447619Y-85080952D01*
X65400000Y-85033333D01*
X65304761Y-84985714D01*
X65161904Y-84985714D01*
X65066666Y-85033333D01*
X65019047Y-85080952D01*
X64971428Y-85176190D01*
X64971428Y-85461904D01*
X65019047Y-85557142D01*
X65066666Y-85604761D01*
X65161904Y-85652380D01*
X65304761Y-85652380D01*
X64400000Y-85652380D02*
X64495238Y-85604761D01*
X64542857Y-85509523D01*
X64542857Y-84652380D01*
X64161904Y-84985714D02*
X63780952Y-84985714D01*
X64019047Y-84652380D02*
X64019047Y-85509523D01*
X63971428Y-85604761D01*
X63876190Y-85652380D01*
X63780952Y-85652380D01*
X63019047Y-85652380D02*
X63019047Y-85128571D01*
X63066666Y-85033333D01*
X63161904Y-84985714D01*
X63352380Y-84985714D01*
X63447619Y-85033333D01*
X63019047Y-85604761D02*
X63114285Y-85652380D01*
X63352380Y-85652380D01*
X63447619Y-85604761D01*
X63495238Y-85509523D01*
X63495238Y-85414285D01*
X63447619Y-85319047D01*
X63352380Y-85271428D01*
X63114285Y-85271428D01*
X63019047Y-85223809D01*
X62114285Y-84985714D02*
X62114285Y-85795238D01*
X62161904Y-85890476D01*
X62209523Y-85938095D01*
X62304761Y-85985714D01*
X62447619Y-85985714D01*
X62542857Y-85938095D01*
X62114285Y-85604761D02*
X62209523Y-85652380D01*
X62400000Y-85652380D01*
X62495238Y-85604761D01*
X62542857Y-85557142D01*
X62590476Y-85461904D01*
X62590476Y-85176190D01*
X62542857Y-85080952D01*
X62495238Y-85033333D01*
X62400000Y-84985714D01*
X62209523Y-84985714D01*
X62114285Y-85033333D01*
X61257142Y-85604761D02*
X61352380Y-85652380D01*
X61542857Y-85652380D01*
X61638095Y-85604761D01*
X61685714Y-85509523D01*
X61685714Y-85128571D01*
X61638095Y-85033333D01*
X61542857Y-84985714D01*
X61352380Y-84985714D01*
X61257142Y-85033333D01*
X61209523Y-85128571D01*
X61209523Y-85223809D01*
X61685714Y-85319047D01*
X137302380Y-54752380D02*
X136302380Y-54752380D01*
X137302380Y-55323809D02*
X136730952Y-54895238D01*
X136302380Y-55323809D02*
X136873809Y-54752380D01*
X136778571Y-55752380D02*
X136778571Y-56085714D01*
X137302380Y-56228571D02*
X137302380Y-55752380D01*
X136302380Y-55752380D01*
X136302380Y-56228571D01*
X136778571Y-56657142D02*
X136778571Y-56990476D01*
X137302380Y-57133333D02*
X137302380Y-56657142D01*
X136302380Y-56657142D01*
X136302380Y-57133333D01*
X137302380Y-57561904D02*
X136302380Y-57561904D01*
X136302380Y-57942857D01*
X136350000Y-58038095D01*
X136397619Y-58085714D01*
X136492857Y-58133333D01*
X136635714Y-58133333D01*
X136730952Y-58085714D01*
X136778571Y-58038095D01*
X136826190Y-57942857D01*
X136826190Y-57561904D01*
X136778571Y-59657142D02*
X136778571Y-59323809D01*
X137302380Y-59323809D02*
X136302380Y-59323809D01*
X136302380Y-59800000D01*
X137302380Y-60657142D02*
X137302380Y-60180952D01*
X136302380Y-60180952D01*
X136778571Y-60990476D02*
X136778571Y-61323809D01*
X137302380Y-61466666D02*
X137302380Y-60990476D01*
X136302380Y-60990476D01*
X136302380Y-61466666D01*
X136302380Y-61800000D02*
X137302380Y-62466666D01*
X136302380Y-62466666D02*
X137302380Y-61800000D01*
X137016666Y-63561904D02*
X137016666Y-64038095D01*
X137302380Y-63466666D02*
X136302380Y-63800000D01*
X137302380Y-64133333D01*
X137302380Y-65038095D02*
X136826190Y-64704761D01*
X137302380Y-64466666D02*
X136302380Y-64466666D01*
X136302380Y-64847619D01*
X136350000Y-64942857D01*
X136397619Y-64990476D01*
X136492857Y-65038095D01*
X136635714Y-65038095D01*
X136730952Y-64990476D01*
X136778571Y-64942857D01*
X136826190Y-64847619D01*
X136826190Y-64466666D01*
X136778571Y-65466666D02*
X136778571Y-65800000D01*
X137302380Y-65942857D02*
X137302380Y-65466666D01*
X136302380Y-65466666D01*
X136302380Y-65942857D01*
X137016666Y-66323809D02*
X137016666Y-66799999D01*
X137302380Y-66228571D02*
X136302380Y-66561904D01*
X137302380Y-66895238D01*
X137207142Y-68561904D02*
X137254761Y-68514285D01*
X137302380Y-68371428D01*
X137302380Y-68276190D01*
X137254761Y-68133333D01*
X137159523Y-68038095D01*
X137064285Y-67990476D01*
X136873809Y-67942857D01*
X136730952Y-67942857D01*
X136540476Y-67990476D01*
X136445238Y-68038095D01*
X136350000Y-68133333D01*
X136302380Y-68276190D01*
X136302380Y-68371428D01*
X136350000Y-68514285D01*
X136397619Y-68561904D01*
X137302380Y-69466666D02*
X137302380Y-68990476D01*
X136302380Y-68990476D01*
X136778571Y-69799999D02*
X136778571Y-70133333D01*
X137302380Y-70276190D02*
X137302380Y-69799999D01*
X136302380Y-69799999D01*
X136302380Y-70276190D01*
X137016666Y-70657142D02*
X137016666Y-71133333D01*
X137302380Y-70561904D02*
X136302380Y-70895238D01*
X137302380Y-71228571D01*
X137302380Y-72133333D02*
X136826190Y-71799999D01*
X137302380Y-71561904D02*
X136302380Y-71561904D01*
X136302380Y-71942857D01*
X136350000Y-72038095D01*
X136397619Y-72085714D01*
X136492857Y-72133333D01*
X136635714Y-72133333D01*
X136730952Y-72085714D01*
X136778571Y-72038095D01*
X136826190Y-71942857D01*
X136826190Y-71561904D01*
X96004761Y-77157142D02*
X95719047Y-77252380D01*
X95623809Y-77347619D01*
X95528571Y-77538095D01*
X95528571Y-77823809D01*
X95623809Y-78014285D01*
X95719047Y-78109523D01*
X95909523Y-78204761D01*
X96671428Y-78204761D01*
X96671428Y-76204761D01*
X96004761Y-76204761D01*
X95814285Y-76300000D01*
X95719047Y-76395238D01*
X95623809Y-76585714D01*
X95623809Y-76776190D01*
X95719047Y-76966666D01*
X95814285Y-77061904D01*
X96004761Y-77157142D01*
X96671428Y-77157142D01*
X93814285Y-78204761D02*
X93814285Y-77157142D01*
X93909523Y-76966666D01*
X94100000Y-76871428D01*
X94480952Y-76871428D01*
X94671428Y-76966666D01*
X93814285Y-78109523D02*
X94004761Y-78204761D01*
X94480952Y-78204761D01*
X94671428Y-78109523D01*
X94766666Y-77919047D01*
X94766666Y-77728571D01*
X94671428Y-77538095D01*
X94480952Y-77442857D01*
X94004761Y-77442857D01*
X93814285Y-77347619D01*
X93147619Y-76871428D02*
X92385714Y-76871428D01*
X92861904Y-76204761D02*
X92861904Y-77919047D01*
X92766666Y-78109523D01*
X92576190Y-78204761D01*
X92385714Y-78204761D01*
X92004761Y-76871428D02*
X91242857Y-76871428D01*
X91719047Y-76204761D02*
X91719047Y-77919047D01*
X91623809Y-78109523D01*
X91433333Y-78204761D01*
X91242857Y-78204761D01*
X89814285Y-78109523D02*
X90004761Y-78204761D01*
X90385714Y-78204761D01*
X90576190Y-78109523D01*
X90671428Y-77919047D01*
X90671428Y-77157142D01*
X90576190Y-76966666D01*
X90385714Y-76871428D01*
X90004761Y-76871428D01*
X89814285Y-76966666D01*
X89719047Y-77157142D01*
X89719047Y-77347619D01*
X90671428Y-77538095D01*
X88861904Y-78204761D02*
X88861904Y-76871428D01*
X88861904Y-77252380D02*
X88766666Y-77061904D01*
X88671428Y-76966666D01*
X88480952Y-76871428D01*
X88290476Y-76871428D01*
X87814285Y-76871428D02*
X87338095Y-78204761D01*
X86861904Y-76871428D02*
X87338095Y-78204761D01*
X87528571Y-78680952D01*
X87623809Y-78776190D01*
X87814285Y-78871428D01*
X84576190Y-78204761D02*
X84576190Y-76204761D01*
X83909523Y-77633333D01*
X83242857Y-76204761D01*
X83242857Y-78204761D01*
X82004761Y-78204761D02*
X82195238Y-78109523D01*
X82290476Y-78014285D01*
X82385714Y-77823809D01*
X82385714Y-77252380D01*
X82290476Y-77061904D01*
X82195238Y-76966666D01*
X82004761Y-76871428D01*
X81719047Y-76871428D01*
X81528571Y-76966666D01*
X81433333Y-77061904D01*
X81338095Y-77252380D01*
X81338095Y-77823809D01*
X81433333Y-78014285D01*
X81528571Y-78109523D01*
X81719047Y-78204761D01*
X82004761Y-78204761D01*
X79623809Y-78204761D02*
X79623809Y-76204761D01*
X79623809Y-78109523D02*
X79814285Y-78204761D01*
X80195238Y-78204761D01*
X80385714Y-78109523D01*
X80480952Y-78014285D01*
X80576190Y-77823809D01*
X80576190Y-77252380D01*
X80480952Y-77061904D01*
X80385714Y-76966666D01*
X80195238Y-76871428D01*
X79814285Y-76871428D01*
X79623809Y-76966666D01*
X77909523Y-78109523D02*
X78100000Y-78204761D01*
X78480952Y-78204761D01*
X78671428Y-78109523D01*
X78766666Y-77919047D01*
X78766666Y-77157142D01*
X78671428Y-76966666D01*
X78480952Y-76871428D01*
X78100000Y-76871428D01*
X77909523Y-76966666D01*
X77814285Y-77157142D01*
X77814285Y-77347619D01*
X78766666Y-77538095D01*
X76671428Y-78204761D02*
X76861904Y-78109523D01*
X76957142Y-77919047D01*
X76957142Y-76204761D01*
X74385714Y-78204761D02*
X74385714Y-76204761D01*
X73242857Y-78204761D01*
X73242857Y-76204761D01*
X71433333Y-76871428D02*
X71433333Y-78204761D01*
X72290476Y-76871428D02*
X72290476Y-77919047D01*
X72195238Y-78109523D01*
X72004761Y-78204761D01*
X71719047Y-78204761D01*
X71528571Y-78109523D01*
X71433333Y-78014285D01*
X70480952Y-78204761D02*
X70480952Y-76871428D01*
X70480952Y-77061904D02*
X70385714Y-76966666D01*
X70195238Y-76871428D01*
X69909523Y-76871428D01*
X69719047Y-76966666D01*
X69623809Y-77157142D01*
X69623809Y-78204761D01*
X69623809Y-77157142D02*
X69528571Y-76966666D01*
X69338095Y-76871428D01*
X69052380Y-76871428D01*
X68861904Y-76966666D01*
X68766666Y-77157142D01*
X68766666Y-78204761D01*
X67814285Y-78204761D02*
X67814285Y-76204761D01*
X67814285Y-76966666D02*
X67623809Y-76871428D01*
X67242857Y-76871428D01*
X67052380Y-76966666D01*
X66957142Y-77061904D01*
X66861904Y-77252380D01*
X66861904Y-77823809D01*
X66957142Y-78014285D01*
X67052380Y-78109523D01*
X67242857Y-78204761D01*
X67623809Y-78204761D01*
X67814285Y-78109523D01*
X65242857Y-78109523D02*
X65433333Y-78204761D01*
X65814285Y-78204761D01*
X66004761Y-78109523D01*
X66100000Y-77919047D01*
X66100000Y-77157142D01*
X66004761Y-76966666D01*
X65814285Y-76871428D01*
X65433333Y-76871428D01*
X65242857Y-76966666D01*
X65147619Y-77157142D01*
X65147619Y-77347619D01*
X66100000Y-77538095D01*
X64290476Y-78204761D02*
X64290476Y-76871428D01*
X64290476Y-77252380D02*
X64195238Y-77061904D01*
X64100000Y-76966666D01*
X63909523Y-76871428D01*
X63719047Y-76871428D01*
X61528571Y-78014285D02*
X61433333Y-78109523D01*
X61528571Y-78204761D01*
X61623809Y-78109523D01*
X61528571Y-78014285D01*
X61528571Y-78204761D01*
X61528571Y-76966666D02*
X61433333Y-77061904D01*
X61528571Y-77157142D01*
X61623809Y-77061904D01*
X61528571Y-76966666D01*
X61528571Y-77157142D01*
X86395238Y-86452380D02*
X85776190Y-86452380D01*
X86109523Y-86833333D01*
X85966666Y-86833333D01*
X85871428Y-86880952D01*
X85823809Y-86928571D01*
X85776190Y-87023809D01*
X85776190Y-87261904D01*
X85823809Y-87357142D01*
X85871428Y-87404761D01*
X85966666Y-87452380D01*
X86252380Y-87452380D01*
X86347619Y-87404761D01*
X86395238Y-87357142D01*
X85347619Y-87357142D02*
X85300000Y-87404761D01*
X85347619Y-87452380D01*
X85395238Y-87404761D01*
X85347619Y-87357142D01*
X85347619Y-87452380D01*
X84728571Y-86880952D02*
X84823809Y-86833333D01*
X84871428Y-86785714D01*
X84919047Y-86690476D01*
X84919047Y-86642857D01*
X84871428Y-86547619D01*
X84823809Y-86500000D01*
X84728571Y-86452380D01*
X84538095Y-86452380D01*
X84442857Y-86500000D01*
X84395238Y-86547619D01*
X84347619Y-86642857D01*
X84347619Y-86690476D01*
X84395238Y-86785714D01*
X84442857Y-86833333D01*
X84538095Y-86880952D01*
X84728571Y-86880952D01*
X84823809Y-86928571D01*
X84871428Y-86976190D01*
X84919047Y-87071428D01*
X84919047Y-87261904D01*
X84871428Y-87357142D01*
X84823809Y-87404761D01*
X84728571Y-87452380D01*
X84538095Y-87452380D01*
X84442857Y-87404761D01*
X84395238Y-87357142D01*
X84347619Y-87261904D01*
X84347619Y-87071428D01*
X84395238Y-86976190D01*
X84442857Y-86928571D01*
X84538095Y-86880952D01*
X83442857Y-86452380D02*
X83919047Y-86452380D01*
X83966666Y-86928571D01*
X83919047Y-86880952D01*
X83823809Y-86833333D01*
X83585714Y-86833333D01*
X83490476Y-86880952D01*
X83442857Y-86928571D01*
X83395238Y-87023809D01*
X83395238Y-87261904D01*
X83442857Y-87357142D01*
X83490476Y-87404761D01*
X83585714Y-87452380D01*
X83823809Y-87452380D01*
X83919047Y-87404761D01*
X83966666Y-87357142D01*
X82347619Y-86452380D02*
X82014285Y-87452380D01*
X81680952Y-86452380D01*
X81204761Y-87452380D02*
X81300000Y-87404761D01*
X81347619Y-87357142D01*
X81395238Y-87261904D01*
X81395238Y-86976190D01*
X81347619Y-86880952D01*
X81300000Y-86833333D01*
X81204761Y-86785714D01*
X81061904Y-86785714D01*
X80966666Y-86833333D01*
X80919047Y-86880952D01*
X80871428Y-86976190D01*
X80871428Y-87261904D01*
X80919047Y-87357142D01*
X80966666Y-87404761D01*
X81061904Y-87452380D01*
X81204761Y-87452380D01*
X80300000Y-87452380D02*
X80395238Y-87404761D01*
X80442857Y-87309523D01*
X80442857Y-86452380D01*
X80061904Y-86785714D02*
X79680952Y-86785714D01*
X79919047Y-86452380D02*
X79919047Y-87309523D01*
X79871428Y-87404761D01*
X79776190Y-87452380D01*
X79680952Y-87452380D01*
X78585714Y-86785714D02*
X78585714Y-87452380D01*
X78585714Y-86880952D02*
X78538095Y-86833333D01*
X78442857Y-86785714D01*
X78300000Y-86785714D01*
X78204761Y-86833333D01*
X78157142Y-86928571D01*
X78157142Y-87452380D01*
X77538095Y-87452380D02*
X77633333Y-87404761D01*
X77680952Y-87357142D01*
X77728571Y-87261904D01*
X77728571Y-86976190D01*
X77680952Y-86880952D01*
X77633333Y-86833333D01*
X77538095Y-86785714D01*
X77395238Y-86785714D01*
X77300000Y-86833333D01*
X77252380Y-86880952D01*
X77204761Y-86976190D01*
X77204761Y-87261904D01*
X77252380Y-87357142D01*
X77300000Y-87404761D01*
X77395238Y-87452380D01*
X77538095Y-87452380D01*
X76776190Y-87452380D02*
X76776190Y-86785714D01*
X76776190Y-86880952D02*
X76728571Y-86833333D01*
X76633333Y-86785714D01*
X76490476Y-86785714D01*
X76395238Y-86833333D01*
X76347619Y-86928571D01*
X76347619Y-87452380D01*
X76347619Y-86928571D02*
X76300000Y-86833333D01*
X76204761Y-86785714D01*
X76061904Y-86785714D01*
X75966666Y-86833333D01*
X75919047Y-86928571D01*
X75919047Y-87452380D01*
X75442857Y-87452380D02*
X75442857Y-86785714D01*
X75442857Y-86452380D02*
X75490476Y-86500000D01*
X75442857Y-86547619D01*
X75395238Y-86500000D01*
X75442857Y-86452380D01*
X75442857Y-86547619D01*
X74966666Y-86785714D02*
X74966666Y-87452380D01*
X74966666Y-86880952D02*
X74919047Y-86833333D01*
X74823809Y-86785714D01*
X74680952Y-86785714D01*
X74585714Y-86833333D01*
X74538095Y-86928571D01*
X74538095Y-87452380D01*
X73633333Y-87452380D02*
X73633333Y-86928571D01*
X73680952Y-86833333D01*
X73776190Y-86785714D01*
X73966666Y-86785714D01*
X74061904Y-86833333D01*
X73633333Y-87404761D02*
X73728571Y-87452380D01*
X73966666Y-87452380D01*
X74061904Y-87404761D01*
X74109523Y-87309523D01*
X74109523Y-87214285D01*
X74061904Y-87119047D01*
X73966666Y-87071428D01*
X73728571Y-87071428D01*
X73633333Y-87023809D01*
X73014285Y-87452380D02*
X73109523Y-87404761D01*
X73157142Y-87309523D01*
X73157142Y-86452380D01*
X71728571Y-87452380D02*
X71823809Y-87404761D01*
X71871428Y-87357142D01*
X71919047Y-87261904D01*
X71919047Y-86976190D01*
X71871428Y-86880952D01*
X71823809Y-86833333D01*
X71728571Y-86785714D01*
X71585714Y-86785714D01*
X71490476Y-86833333D01*
X71442857Y-86880952D01*
X71395238Y-86976190D01*
X71395238Y-87261904D01*
X71442857Y-87357142D01*
X71490476Y-87404761D01*
X71585714Y-87452380D01*
X71728571Y-87452380D01*
X70538095Y-86785714D02*
X70538095Y-87452380D01*
X70966666Y-86785714D02*
X70966666Y-87309523D01*
X70919047Y-87404761D01*
X70823809Y-87452380D01*
X70680952Y-87452380D01*
X70585714Y-87404761D01*
X70538095Y-87357142D01*
X70204761Y-86785714D02*
X69823809Y-86785714D01*
X70061904Y-86452380D02*
X70061904Y-87309523D01*
X70014285Y-87404761D01*
X69919047Y-87452380D01*
X69823809Y-87452380D01*
X69490476Y-86785714D02*
X69490476Y-87785714D01*
X69490476Y-86833333D02*
X69395238Y-86785714D01*
X69204761Y-86785714D01*
X69109523Y-86833333D01*
X69061904Y-86880952D01*
X69014285Y-86976190D01*
X69014285Y-87261904D01*
X69061904Y-87357142D01*
X69109523Y-87404761D01*
X69204761Y-87452380D01*
X69395238Y-87452380D01*
X69490476Y-87404761D01*
X68157142Y-86785714D02*
X68157142Y-87452380D01*
X68585714Y-86785714D02*
X68585714Y-87309523D01*
X68538095Y-87404761D01*
X68442857Y-87452380D01*
X68300000Y-87452380D01*
X68204761Y-87404761D01*
X68157142Y-87357142D01*
X67823809Y-86785714D02*
X67442857Y-86785714D01*
X67680952Y-86452380D02*
X67680952Y-87309523D01*
X67633333Y-87404761D01*
X67538095Y-87452380D01*
X67442857Y-87452380D01*
X66490476Y-86452380D02*
X66157142Y-87452380D01*
X65823809Y-86452380D01*
X65347619Y-87452380D02*
X65442857Y-87404761D01*
X65490476Y-87357142D01*
X65538095Y-87261904D01*
X65538095Y-86976190D01*
X65490476Y-86880952D01*
X65442857Y-86833333D01*
X65347619Y-86785714D01*
X65204761Y-86785714D01*
X65109523Y-86833333D01*
X65061904Y-86880952D01*
X65014285Y-86976190D01*
X65014285Y-87261904D01*
X65061904Y-87357142D01*
X65109523Y-87404761D01*
X65204761Y-87452380D01*
X65347619Y-87452380D01*
X64442857Y-87452380D02*
X64538095Y-87404761D01*
X64585714Y-87309523D01*
X64585714Y-86452380D01*
X64204761Y-86785714D02*
X63823809Y-86785714D01*
X64061904Y-86452380D02*
X64061904Y-87309523D01*
X64014285Y-87404761D01*
X63919047Y-87452380D01*
X63823809Y-87452380D01*
X63061904Y-87452380D02*
X63061904Y-86928571D01*
X63109523Y-86833333D01*
X63204761Y-86785714D01*
X63395238Y-86785714D01*
X63490476Y-86833333D01*
X63061904Y-87404761D02*
X63157142Y-87452380D01*
X63395238Y-87452380D01*
X63490476Y-87404761D01*
X63538095Y-87309523D01*
X63538095Y-87214285D01*
X63490476Y-87119047D01*
X63395238Y-87071428D01*
X63157142Y-87071428D01*
X63061904Y-87023809D01*
X62157142Y-86785714D02*
X62157142Y-87595238D01*
X62204761Y-87690476D01*
X62252380Y-87738095D01*
X62347619Y-87785714D01*
X62490476Y-87785714D01*
X62585714Y-87738095D01*
X62157142Y-87404761D02*
X62252380Y-87452380D01*
X62442857Y-87452380D01*
X62538095Y-87404761D01*
X62585714Y-87357142D01*
X62633333Y-87261904D01*
X62633333Y-86976190D01*
X62585714Y-86880952D01*
X62538095Y-86833333D01*
X62442857Y-86785714D01*
X62252380Y-86785714D01*
X62157142Y-86833333D01*
X61300000Y-87404761D02*
X61395238Y-87452380D01*
X61585714Y-87452380D01*
X61680952Y-87404761D01*
X61728571Y-87309523D01*
X61728571Y-86928571D01*
X61680952Y-86833333D01*
X61585714Y-86785714D01*
X61395238Y-86785714D01*
X61300000Y-86833333D01*
X61252380Y-86928571D01*
X61252380Y-87023809D01*
X61728571Y-87119047D01*
X75938095Y-81657142D02*
X75652380Y-81752380D01*
X75557142Y-81847619D01*
X75461904Y-82038095D01*
X75461904Y-82323809D01*
X75557142Y-82514285D01*
X75652380Y-82609523D01*
X75842857Y-82704761D01*
X76604761Y-82704761D01*
X76604761Y-80704761D01*
X75938095Y-80704761D01*
X75747619Y-80800000D01*
X75652380Y-80895238D01*
X75557142Y-81085714D01*
X75557142Y-81276190D01*
X75652380Y-81466666D01*
X75747619Y-81561904D01*
X75938095Y-81657142D01*
X76604761Y-81657142D01*
X73557142Y-80800000D02*
X73747619Y-80704761D01*
X74033333Y-80704761D01*
X74319047Y-80800000D01*
X74509523Y-80990476D01*
X74604761Y-81180952D01*
X74700000Y-81561904D01*
X74700000Y-81847619D01*
X74604761Y-82228571D01*
X74509523Y-82419047D01*
X74319047Y-82609523D01*
X74033333Y-82704761D01*
X73842857Y-82704761D01*
X73557142Y-82609523D01*
X73461904Y-82514285D01*
X73461904Y-81847619D01*
X73842857Y-81847619D01*
X72509523Y-82704761D02*
X72128571Y-82704761D01*
X71938095Y-82609523D01*
X71842857Y-82514285D01*
X71652380Y-82228571D01*
X71557142Y-81847619D01*
X71557142Y-81085714D01*
X71652380Y-80895238D01*
X71747619Y-80800000D01*
X71938095Y-80704761D01*
X72319047Y-80704761D01*
X72509523Y-80800000D01*
X72604761Y-80895238D01*
X72700000Y-81085714D01*
X72700000Y-81561904D01*
X72604761Y-81752380D01*
X72509523Y-81847619D01*
X72319047Y-81942857D01*
X71938095Y-81942857D01*
X71747619Y-81847619D01*
X71652380Y-81752380D01*
X71557142Y-81561904D01*
X70890476Y-80704761D02*
X69652380Y-80704761D01*
X70319047Y-81466666D01*
X70033333Y-81466666D01*
X69842857Y-81561904D01*
X69747619Y-81657142D01*
X69652380Y-81847619D01*
X69652380Y-82323809D01*
X69747619Y-82514285D01*
X69842857Y-82609523D01*
X70033333Y-82704761D01*
X70604761Y-82704761D01*
X70795238Y-82609523D01*
X70890476Y-82514285D01*
X68414285Y-80704761D02*
X68223809Y-80704761D01*
X68033333Y-80800000D01*
X67938095Y-80895238D01*
X67842857Y-81085714D01*
X67747619Y-81466666D01*
X67747619Y-81942857D01*
X67842857Y-82323809D01*
X67938095Y-82514285D01*
X68033333Y-82609523D01*
X68223809Y-82704761D01*
X68414285Y-82704761D01*
X68604761Y-82609523D01*
X68700000Y-82514285D01*
X68795238Y-82323809D01*
X68890476Y-81942857D01*
X68890476Y-81466666D01*
X68795238Y-81085714D01*
X68700000Y-80895238D01*
X68604761Y-80800000D01*
X68414285Y-80704761D01*
X66985714Y-82133333D02*
X66033333Y-82133333D01*
X67176190Y-82704761D02*
X66509523Y-80704761D01*
X65842857Y-82704761D01*
X64509523Y-81657142D02*
X64223809Y-81752380D01*
X64128571Y-81847619D01*
X64033333Y-82038095D01*
X64033333Y-82323809D01*
X64128571Y-82514285D01*
X64223809Y-82609523D01*
X64414285Y-82704761D01*
X65176190Y-82704761D01*
X65176190Y-80704761D01*
X64509523Y-80704761D01*
X64319047Y-80800000D01*
X64223809Y-80895238D01*
X64128571Y-81085714D01*
X64128571Y-81276190D01*
X64223809Y-81466666D01*
X64319047Y-81561904D01*
X64509523Y-81657142D01*
X65176190Y-81657142D01*
X63176190Y-81657142D02*
X62509523Y-81657142D01*
X62223809Y-82704761D02*
X63176190Y-82704761D01*
X63176190Y-80704761D01*
X62223809Y-80704761D01*
X54635714Y-74780952D02*
X55302380Y-74780952D01*
X54254761Y-74542857D02*
X54969047Y-74304761D01*
X54969047Y-74923809D01*
X54302380Y-75495238D02*
X54302380Y-75590476D01*
X54350000Y-75685714D01*
X54397619Y-75733333D01*
X54492857Y-75780952D01*
X54683333Y-75828571D01*
X54921428Y-75828571D01*
X55111904Y-75780952D01*
X55207142Y-75733333D01*
X55254761Y-75685714D01*
X55302380Y-75590476D01*
X55302380Y-75495238D01*
X55254761Y-75400000D01*
X55207142Y-75352380D01*
X55111904Y-75304761D01*
X54921428Y-75257142D01*
X54683333Y-75257142D01*
X54492857Y-75304761D01*
X54397619Y-75352380D01*
X54350000Y-75400000D01*
X54302380Y-75495238D01*
X55302380Y-76257142D02*
X54635714Y-76257142D01*
X54730952Y-76257142D02*
X54683333Y-76304761D01*
X54635714Y-76400000D01*
X54635714Y-76542857D01*
X54683333Y-76638095D01*
X54778571Y-76685714D01*
X55302380Y-76685714D01*
X54778571Y-76685714D02*
X54683333Y-76733333D01*
X54635714Y-76828571D01*
X54635714Y-76971428D01*
X54683333Y-77066666D01*
X54778571Y-77114285D01*
X55302380Y-77114285D01*
X55302380Y-77590476D02*
X54635714Y-77590476D01*
X54730952Y-77590476D02*
X54683333Y-77638095D01*
X54635714Y-77733333D01*
X54635714Y-77876190D01*
X54683333Y-77971428D01*
X54778571Y-78019047D01*
X55302380Y-78019047D01*
X54778571Y-78019047D02*
X54683333Y-78066666D01*
X54635714Y-78161904D01*
X54635714Y-78304761D01*
X54683333Y-78400000D01*
X54778571Y-78447619D01*
X55302380Y-78447619D01*
X100154761Y-93180952D02*
X100250000Y-93133333D01*
X100297619Y-93085714D01*
X100345238Y-92990476D01*
X100345238Y-92942857D01*
X100297619Y-92847619D01*
X100250000Y-92800000D01*
X100154761Y-92752380D01*
X99964285Y-92752380D01*
X99869047Y-92800000D01*
X99821428Y-92847619D01*
X99773809Y-92942857D01*
X99773809Y-92990476D01*
X99821428Y-93085714D01*
X99869047Y-93133333D01*
X99964285Y-93180952D01*
X100154761Y-93180952D01*
X100250000Y-93228571D01*
X100297619Y-93276190D01*
X100345238Y-93371428D01*
X100345238Y-93561904D01*
X100297619Y-93657142D01*
X100250000Y-93704761D01*
X100154761Y-93752380D01*
X99964285Y-93752380D01*
X99869047Y-93704761D01*
X99821428Y-93657142D01*
X99773809Y-93561904D01*
X99773809Y-93371428D01*
X99821428Y-93276190D01*
X99869047Y-93228571D01*
X99964285Y-93180952D01*
X99202380Y-93180952D02*
X99297619Y-93133333D01*
X99345238Y-93085714D01*
X99392857Y-92990476D01*
X99392857Y-92942857D01*
X99345238Y-92847619D01*
X99297619Y-92800000D01*
X99202380Y-92752380D01*
X99011904Y-92752380D01*
X98916666Y-92800000D01*
X98869047Y-92847619D01*
X98821428Y-92942857D01*
X98821428Y-92990476D01*
X98869047Y-93085714D01*
X98916666Y-93133333D01*
X99011904Y-93180952D01*
X99202380Y-93180952D01*
X99297619Y-93228571D01*
X99345238Y-93276190D01*
X99392857Y-93371428D01*
X99392857Y-93561904D01*
X99345238Y-93657142D01*
X99297619Y-93704761D01*
X99202380Y-93752380D01*
X99011904Y-93752380D01*
X98916666Y-93704761D01*
X98869047Y-93657142D01*
X98821428Y-93561904D01*
X98821428Y-93371428D01*
X98869047Y-93276190D01*
X98916666Y-93228571D01*
X99011904Y-93180952D01*
X98392857Y-93752380D02*
X98392857Y-93085714D01*
X98392857Y-93180952D02*
X98345238Y-93133333D01*
X98250000Y-93085714D01*
X98107142Y-93085714D01*
X98011904Y-93133333D01*
X97964285Y-93228571D01*
X97964285Y-93752380D01*
X97964285Y-93228571D02*
X97916666Y-93133333D01*
X97821428Y-93085714D01*
X97678571Y-93085714D01*
X97583333Y-93133333D01*
X97535714Y-93228571D01*
X97535714Y-93752380D01*
X97059523Y-93752380D02*
X97059523Y-93085714D01*
X97059523Y-93180952D02*
X97011904Y-93133333D01*
X96916666Y-93085714D01*
X96773809Y-93085714D01*
X96678571Y-93133333D01*
X96630952Y-93228571D01*
X96630952Y-93752380D01*
X96630952Y-93228571D02*
X96583333Y-93133333D01*
X96488095Y-93085714D01*
X96345238Y-93085714D01*
X96250000Y-93133333D01*
X96202380Y-93228571D01*
X96202380Y-93752380D01*
X143307142Y-62185714D02*
X143335714Y-62271428D01*
X143364285Y-62300000D01*
X143421428Y-62328571D01*
X143507142Y-62328571D01*
X143564285Y-62300000D01*
X143592857Y-62271428D01*
X143621428Y-62214285D01*
X143621428Y-61985714D01*
X143021428Y-61985714D01*
X143021428Y-62185714D01*
X143050000Y-62242857D01*
X143078571Y-62271428D01*
X143135714Y-62300000D01*
X143192857Y-62300000D01*
X143250000Y-62271428D01*
X143278571Y-62242857D01*
X143307142Y-62185714D01*
X143307142Y-61985714D01*
X143450000Y-62557142D02*
X143450000Y-62842857D01*
X143621428Y-62500000D02*
X143021428Y-62700000D01*
X143621428Y-62900000D01*
X143021428Y-63014285D02*
X143021428Y-63357142D01*
X143621428Y-63185714D02*
X143021428Y-63185714D01*
X143392857Y-63557142D02*
X143392857Y-64014285D01*
X143621428Y-63785714D02*
X143164285Y-63785714D01*
X143050000Y-70292857D02*
X143021428Y-70235714D01*
X143021428Y-70150000D01*
X143050000Y-70064285D01*
X143107142Y-70007142D01*
X143164285Y-69978571D01*
X143278571Y-69950000D01*
X143364285Y-69950000D01*
X143478571Y-69978571D01*
X143535714Y-70007142D01*
X143592857Y-70064285D01*
X143621428Y-70150000D01*
X143621428Y-70207142D01*
X143592857Y-70292857D01*
X143564285Y-70321428D01*
X143364285Y-70321428D01*
X143364285Y-70207142D01*
X143621428Y-70578571D02*
X143021428Y-70578571D01*
X143621428Y-70921428D01*
X143021428Y-70921428D01*
X143621428Y-71207142D02*
X143021428Y-71207142D01*
X143021428Y-71350000D01*
X143050000Y-71435714D01*
X143107142Y-71492857D01*
X143164285Y-71521428D01*
X143278571Y-71550000D01*
X143364285Y-71550000D01*
X143478571Y-71521428D01*
X143535714Y-71492857D01*
X143592857Y-71435714D01*
X143621428Y-71350000D01*
X143621428Y-71207142D01*
X144950000Y-70292857D02*
X144921428Y-70235714D01*
X144921428Y-70150000D01*
X144950000Y-70064285D01*
X145007142Y-70007142D01*
X145064285Y-69978571D01*
X145178571Y-69950000D01*
X145264285Y-69950000D01*
X145378571Y-69978571D01*
X145435714Y-70007142D01*
X145492857Y-70064285D01*
X145521428Y-70150000D01*
X145521428Y-70207142D01*
X145492857Y-70292857D01*
X145464285Y-70321428D01*
X145264285Y-70321428D01*
X145264285Y-70207142D01*
X145521428Y-70578571D02*
X144921428Y-70578571D01*
X145521428Y-70921428D01*
X144921428Y-70921428D01*
X145521428Y-71207142D02*
X144921428Y-71207142D01*
X144921428Y-71350000D01*
X144950000Y-71435714D01*
X145007142Y-71492857D01*
X145064285Y-71521428D01*
X145178571Y-71550000D01*
X145264285Y-71550000D01*
X145378571Y-71521428D01*
X145435714Y-71492857D01*
X145492857Y-71435714D01*
X145521428Y-71350000D01*
X145521428Y-71207142D01*
X145307142Y-62185714D02*
X145335714Y-62271428D01*
X145364285Y-62300000D01*
X145421428Y-62328571D01*
X145507142Y-62328571D01*
X145564285Y-62300000D01*
X145592857Y-62271428D01*
X145621428Y-62214285D01*
X145621428Y-61985714D01*
X145021428Y-61985714D01*
X145021428Y-62185714D01*
X145050000Y-62242857D01*
X145078571Y-62271428D01*
X145135714Y-62300000D01*
X145192857Y-62300000D01*
X145250000Y-62271428D01*
X145278571Y-62242857D01*
X145307142Y-62185714D01*
X145307142Y-61985714D01*
X145450000Y-62557142D02*
X145450000Y-62842857D01*
X145621428Y-62500000D02*
X145021428Y-62700000D01*
X145621428Y-62900000D01*
X145021428Y-63014285D02*
X145021428Y-63357142D01*
X145621428Y-63185714D02*
X145021428Y-63185714D01*
X145392857Y-63557142D02*
X145392857Y-64014285D01*
X145621428Y-63785714D02*
X145164285Y-63785714D01*
X135802380Y-82990476D02*
X135802380Y-82514285D01*
X134802380Y-82514285D01*
X135802380Y-83323809D02*
X134802380Y-83323809D01*
X135802380Y-83800000D02*
X134802380Y-83800000D01*
X134802380Y-84180952D01*
X134850000Y-84276190D01*
X134897619Y-84323809D01*
X134992857Y-84371428D01*
X135135714Y-84371428D01*
X135230952Y-84323809D01*
X135278571Y-84276190D01*
X135326190Y-84180952D01*
X135326190Y-83800000D01*
X134802380Y-84990476D02*
X134802380Y-85180952D01*
X134850000Y-85276190D01*
X134945238Y-85371428D01*
X135135714Y-85419047D01*
X135469047Y-85419047D01*
X135659523Y-85371428D01*
X135754761Y-85276190D01*
X135802380Y-85180952D01*
X135802380Y-84990476D01*
X135754761Y-84895238D01*
X135659523Y-84800000D01*
X135469047Y-84752380D01*
X135135714Y-84752380D01*
X134945238Y-84800000D01*
X134850000Y-84895238D01*
X134802380Y-84990476D01*
X135278571Y-86942857D02*
X135326190Y-87085714D01*
X135373809Y-87133333D01*
X135469047Y-87180952D01*
X135611904Y-87180952D01*
X135707142Y-87133333D01*
X135754761Y-87085714D01*
X135802380Y-86990476D01*
X135802380Y-86609523D01*
X134802380Y-86609523D01*
X134802380Y-86942857D01*
X134850000Y-87038095D01*
X134897619Y-87085714D01*
X134992857Y-87133333D01*
X135088095Y-87133333D01*
X135183333Y-87085714D01*
X135230952Y-87038095D01*
X135278571Y-86942857D01*
X135278571Y-86609523D01*
X134802380Y-87800000D02*
X134802380Y-87990476D01*
X134850000Y-88085714D01*
X134945238Y-88180952D01*
X135135714Y-88228571D01*
X135469047Y-88228571D01*
X135659523Y-88180952D01*
X135754761Y-88085714D01*
X135802380Y-87990476D01*
X135802380Y-87800000D01*
X135754761Y-87704761D01*
X135659523Y-87609523D01*
X135469047Y-87561904D01*
X135135714Y-87561904D01*
X134945238Y-87609523D01*
X134850000Y-87704761D01*
X134802380Y-87800000D01*
X135802380Y-89228571D02*
X135326190Y-88895238D01*
X135802380Y-88657142D02*
X134802380Y-88657142D01*
X134802380Y-89038095D01*
X134850000Y-89133333D01*
X134897619Y-89180952D01*
X134992857Y-89228571D01*
X135135714Y-89228571D01*
X135230952Y-89180952D01*
X135278571Y-89133333D01*
X135326190Y-89038095D01*
X135326190Y-88657142D01*
X135802380Y-89657142D02*
X134802380Y-89657142D01*
X134802380Y-89895238D01*
X134850000Y-90038095D01*
X134945238Y-90133333D01*
X135040476Y-90180952D01*
X135230952Y-90228571D01*
X135373809Y-90228571D01*
X135564285Y-90180952D01*
X135659523Y-90133333D01*
X135754761Y-90038095D01*
X135802380Y-89895238D01*
X135802380Y-89657142D01*
X135278571Y-90657142D02*
X135278571Y-90990476D01*
X135802380Y-91133333D02*
X135802380Y-90657142D01*
X134802380Y-90657142D01*
X134802380Y-91133333D01*
X135802380Y-92133333D02*
X135326190Y-91800000D01*
X135802380Y-91561904D02*
X134802380Y-91561904D01*
X134802380Y-91942857D01*
X134850000Y-92038095D01*
X134897619Y-92085714D01*
X134992857Y-92133333D01*
X135135714Y-92133333D01*
X135230952Y-92085714D01*
X135278571Y-92038095D01*
X135326190Y-91942857D01*
X135326190Y-91561904D01*
X145138095Y-89652380D02*
X145138095Y-88652380D01*
X144900000Y-88652380D01*
X144757142Y-88700000D01*
X144661904Y-88795238D01*
X144614285Y-88890476D01*
X144566666Y-89080952D01*
X144566666Y-89223809D01*
X144614285Y-89414285D01*
X144661904Y-89509523D01*
X144757142Y-89604761D01*
X144900000Y-89652380D01*
X145138095Y-89652380D01*
X143614285Y-89652380D02*
X144185714Y-89652380D01*
X143900000Y-89652380D02*
X143900000Y-88652380D01*
X143995238Y-88795238D01*
X144090476Y-88890476D01*
X144185714Y-88938095D01*
X125095238Y-95847619D02*
X125190476Y-95800000D01*
X125285714Y-95704761D01*
X125428571Y-95561904D01*
X125523809Y-95514285D01*
X125619047Y-95514285D01*
X125571428Y-95752380D02*
X125666666Y-95704761D01*
X125761904Y-95609523D01*
X125809523Y-95419047D01*
X125809523Y-95085714D01*
X125761904Y-94895238D01*
X125666666Y-94800000D01*
X125571428Y-94752380D01*
X125380952Y-94752380D01*
X125285714Y-94800000D01*
X125190476Y-94895238D01*
X125142857Y-95085714D01*
X125142857Y-95419047D01*
X125190476Y-95609523D01*
X125285714Y-95704761D01*
X125380952Y-95752380D01*
X125571428Y-95752380D01*
X124190476Y-95752380D02*
X124761904Y-95752380D01*
X124476190Y-95752380D02*
X124476190Y-94752380D01*
X124571428Y-94895238D01*
X124666666Y-94990476D01*
X124761904Y-95038095D01*
X145161904Y-78602380D02*
X145161904Y-79411904D01*
X145114285Y-79507142D01*
X145066666Y-79554761D01*
X144971428Y-79602380D01*
X144780952Y-79602380D01*
X144685714Y-79554761D01*
X144638095Y-79507142D01*
X144590476Y-79411904D01*
X144590476Y-78602380D01*
X143590476Y-79602380D02*
X144161904Y-79602380D01*
X143876190Y-79602380D02*
X143876190Y-78602380D01*
X143971428Y-78745238D01*
X144066666Y-78840476D01*
X144161904Y-78888095D01*
M02*
