M48
; DRILL file {KiCad 5.1.5} date Sat 04 Jan 2020 17:57:20 CET
; FORMAT={-:-/ absolute / metric / decimal}
; #@! TF.CreationDate,2020-01-04T17:57:20+01:00
; #@! TF.GenerationSoftware,Kicad,Pcbnew,5.1.5
FMAT,2
METRIC
T1C0.300
T2C0.400
T3C0.550
T4C0.800
T5C0.850
T6C2.200
T7C0.500
T8C0.800
%
G90
G05
T1
X51.0Y-55.8
X51.0Y-58.3
X51.0Y-60.8
X51.0Y-63.3
X51.0Y-65.8
X51.0Y-68.3
X51.0Y-70.8
X51.0Y-73.3
X51.0Y-84.3
X51.0Y-85.9
X51.0Y-103.3
X54.0Y-101.5
X55.6Y-101.5
X55.6Y-103.9
X56.2Y-108.5
X56.3Y-50.5
X57.3Y-98.8
X58.2Y-98.0
X58.7Y-108.5
X58.8Y-50.5
X59.0Y-102.6
X60.1Y-102.6
X60.1Y-103.9
X60.4Y-79.5
X60.6Y-94.8
X60.9Y-89.7
X61.0Y-92.2
X61.2Y-108.5
X61.3Y-50.5
X61.7Y-92.2
X61.7Y-98.3
X61.7Y-99.1
X61.7Y-99.9
X62.5Y-98.3
X62.5Y-99.1
X62.5Y-99.9
X62.6Y-94.8
X63.3Y-98.3
X63.3Y-99.1
X63.3Y-99.9
X63.3Y-105.6
X63.7Y-108.5
X63.8Y-50.5
X65.9Y-94.8
X66.2Y-108.5
X66.3Y-50.5
X67.1Y-99.4
X68.7Y-108.5
X68.8Y-50.5
X71.2Y-108.5
X71.3Y-50.5
X72.5Y-100.6
X72.5Y-99.1
X73.4Y-100.6
X73.427Y-99.103
X73.7Y-108.5
X73.8Y-50.5
X75.3Y-105.6
X76.2Y-108.5
X76.3Y-50.5
X78.7Y-108.5
X78.8Y-50.5
X81.2Y-108.5
X81.3Y-50.5
X83.7Y-108.5
X83.8Y-50.5
X86.2Y-108.5
X86.3Y-50.5
X87.5Y-105.6
X88.7Y-108.5
X88.8Y-50.5
X90.0Y-103.9
X91.2Y-108.5
X91.3Y-50.5
X93.2Y-95.4
X93.2Y-96.4
X93.7Y-108.5
X93.8Y-50.5
X96.2Y-108.5
X96.3Y-50.5
X96.3Y-101.9
X96.9Y-96.4
X99.4Y-100.5
X100.2Y-100.5
X103.8Y-50.5
X103.8Y-95.9
X103.8Y-97.4
X103.8Y-98.7
X103.8Y-108.5
X105.1Y-100.5
X105.9Y-100.5
X106.3Y-50.5
X106.3Y-108.5
X108.8Y-50.5
X108.8Y-108.5
X111.3Y-50.5
X111.3Y-108.5
X113.8Y-50.5
X113.8Y-108.5
X116.3Y-50.5
X116.3Y-108.5
X118.8Y-50.5
X118.8Y-108.5
X121.3Y-50.5
X121.3Y-108.5
X123.8Y-50.5
X123.8Y-108.5
X126.3Y-50.5
X126.3Y-108.5
X126.7Y-95.5
X126.7Y-97.0
X126.7Y-101.8
X128.8Y-50.5
X128.8Y-92.1
X128.8Y-93.1
X128.8Y-108.5
X130.0Y-92.1
X130.0Y-93.1
X131.2Y-92.1
X131.2Y-93.1
X131.3Y-50.5
X131.3Y-108.5
X133.8Y-50.5
X136.3Y-50.5
X138.8Y-50.5
X141.3Y-50.5
X141.8Y-67.6
X143.4Y-69.0
X143.5Y-73.2
X143.5Y-73.9
X143.8Y-50.5
X144.3Y-79.4
X144.3Y-80.3
X144.3Y-81.2
X144.4Y-73.2
X144.4Y-73.9
X145.3Y-73.2
X145.3Y-73.9
X145.4Y-69.0
X147.0Y-67.6
X149.0Y-55.7
X149.0Y-58.2
X149.0Y-60.7
X149.0Y-63.2
X149.0Y-65.7
X149.0Y-68.2
X149.0Y-70.7
X149.0Y-73.2
X149.0Y-75.7
X149.0Y-78.2
X149.0Y-80.7
X149.0Y-83.2
X149.0Y-85.7
X149.0Y-88.2
X149.0Y-90.7
X149.0Y-93.2
X149.0Y-95.7
X149.0Y-98.2
X149.0Y-100.7
X149.0Y-103.2
X70.7Y-99.9
X69.2Y-99.9
T2
X98.35Y-52.0
X98.833Y-50.833
X98.833Y-53.167
X100.0Y-50.35
X100.0Y-53.65
X101.167Y-50.833
X101.167Y-53.167
X101.65Y-52.0
X98.35Y-107.0
X98.833Y-105.833
X98.833Y-108.167
X100.0Y-105.35
X100.0Y-108.65
X101.167Y-105.833
X101.167Y-108.167
X101.65Y-107.0
X145.85Y-52.0
X146.333Y-50.833
X146.333Y-53.167
X147.5Y-50.35
X147.5Y-53.65
X148.667Y-50.833
X148.667Y-53.167
X149.15Y-52.0
X50.85Y-107.0
X51.333Y-105.833
X51.333Y-108.167
X52.5Y-105.35
X52.5Y-108.65
X53.667Y-105.833
X53.667Y-108.167
X54.15Y-107.0
X145.85Y-107.0
X146.333Y-105.833
X146.333Y-108.167
X147.5Y-105.35
X147.5Y-108.65
X148.667Y-105.833
X148.667Y-108.167
X149.15Y-107.0
X50.85Y-52.0
X51.333Y-50.833
X51.333Y-53.167
X52.5Y-50.35
X52.5Y-53.65
X53.667Y-50.833
X53.667Y-53.167
X54.15Y-52.0
T4
X51.9Y-76.5
X51.9Y-78.5
X51.9Y-80.5
X51.9Y-82.5
T6
X100.0Y-107.0
X147.5Y-52.0
X52.5Y-107.0
X147.5Y-107.0
X52.5Y-52.0
X100.0Y-52.0
T7
X127.75Y-105.9
X129.45Y-105.9
X80.15Y-105.9
X81.85Y-105.9
X68.15Y-105.9
X69.85Y-105.9
T8
X136.6Y-105.0
X141.6Y-105.0
T3
G00X135.225Y-108.075
M15
G01X135.225Y-107.425
M16
G05
G00X142.975Y-108.075
M15
G01X142.975Y-107.425
M16
G05
T5
G00X135.375Y-104.225
M15
G01X135.375Y-103.675
M16
G05
G00X142.825Y-104.225
M15
G01X142.825Y-103.675
M16
G05
T0
M30
