G04 #@! TF.GenerationSoftware,KiCad,Pcbnew,5.1.5*
G04 #@! TF.CreationDate,2019-12-23T15:18:02+01:00*
G04 #@! TF.ProjectId,ledside_rev18A,6c656473-6964-4655-9f72-65763138412e,rev?*
G04 #@! TF.SameCoordinates,Original*
G04 #@! TF.FileFunction,Copper,L2,Bot*
G04 #@! TF.FilePolarity,Positive*
%FSLAX46Y46*%
G04 Gerber Fmt 4.6, Leading zero omitted, Abs format (unit mm)*
G04 Created by KiCad (PCBNEW 5.1.5) date 2019-12-23 15:18:02*
%MOMM*%
%LPD*%
G04 APERTURE LIST*
%ADD10O,1.350000X1.350000*%
%ADD11R,1.350000X1.350000*%
%ADD12C,4.400000*%
%ADD13C,0.700000*%
%ADD14C,0.800000*%
%ADD15C,5.000000*%
%ADD16C,0.600000*%
%ADD17C,0.254000*%
G04 APERTURE END LIST*
D10*
X118500000Y-47000000D03*
X118500000Y-49000000D03*
X118500000Y-51000000D03*
D11*
X118500000Y-53000000D03*
D12*
X117500000Y-77500000D03*
D13*
X119150000Y-77500000D03*
X118666726Y-76333274D03*
X117500000Y-75850000D03*
X116333274Y-76333274D03*
X115850000Y-77500000D03*
X116333274Y-78666726D03*
X117500000Y-79150000D03*
X118666726Y-78666726D03*
X118666726Y-23666726D03*
X117500000Y-24150000D03*
X116333274Y-23666726D03*
X115850000Y-22500000D03*
X116333274Y-21333274D03*
X117500000Y-20850000D03*
X118666726Y-21333274D03*
X119150000Y-22500000D03*
D12*
X117500000Y-22500000D03*
X70000000Y-77500000D03*
D13*
X71650000Y-77500000D03*
X71166726Y-76333274D03*
X70000000Y-75850000D03*
X68833274Y-76333274D03*
X68350000Y-77500000D03*
X68833274Y-78666726D03*
X70000000Y-79150000D03*
X71166726Y-78666726D03*
X71166726Y-23666726D03*
X70000000Y-24150000D03*
X68833274Y-23666726D03*
X68350000Y-22500000D03*
X68833274Y-21333274D03*
X70000000Y-20850000D03*
X71166726Y-21333274D03*
X71650000Y-22500000D03*
D12*
X70000000Y-22500000D03*
X22500000Y-77500000D03*
D13*
X24150000Y-77500000D03*
X23666726Y-76333274D03*
X22500000Y-75850000D03*
X21333274Y-76333274D03*
X20850000Y-77500000D03*
X21333274Y-78666726D03*
X22500000Y-79150000D03*
X23666726Y-78666726D03*
X23666726Y-23666726D03*
X22500000Y-24150000D03*
X21333274Y-23666726D03*
X20850000Y-22500000D03*
X21333274Y-21333274D03*
X22500000Y-20850000D03*
X23666726Y-21333274D03*
X24150000Y-22500000D03*
D12*
X22500000Y-22500000D03*
D14*
X21500000Y-45000000D03*
X21500000Y-42500000D03*
X21500000Y-47500000D03*
X21500000Y-62500000D03*
X21500000Y-50000000D03*
X21500000Y-65000000D03*
X21500000Y-40000000D03*
X21500000Y-30000000D03*
X21500000Y-27500000D03*
X21500000Y-37500000D03*
X21500000Y-35000000D03*
X21500000Y-32500000D03*
X21500000Y-67500000D03*
X21500000Y-72500000D03*
X21500000Y-70000000D03*
X118500000Y-40000000D03*
X118500000Y-65000000D03*
X118500000Y-70000000D03*
X118500000Y-35000000D03*
X118500000Y-67500000D03*
X118500000Y-62500000D03*
X118500000Y-37500000D03*
X118500000Y-27500000D03*
X118500000Y-32500000D03*
X118500000Y-30000000D03*
X118500000Y-72500000D03*
X109200000Y-50000000D03*
X107450000Y-50000000D03*
X102250000Y-50000000D03*
X105750000Y-50000000D03*
X104000000Y-50000000D03*
X21500000Y-55000000D03*
X21500000Y-60000000D03*
X21500000Y-57500000D03*
X21500000Y-52500000D03*
X118500000Y-57500000D03*
X118500000Y-60000000D03*
X118500000Y-55000000D03*
X118500000Y-45000000D03*
X118500000Y-42500000D03*
X75000000Y-78500000D03*
X77500000Y-78500000D03*
X80000000Y-78500000D03*
X82500000Y-78500000D03*
X85000000Y-78500000D03*
X92500000Y-78500000D03*
X87500000Y-78500000D03*
X90000000Y-78500000D03*
X107500000Y-78500000D03*
X95000000Y-78500000D03*
X102500000Y-78500000D03*
X112500000Y-78500000D03*
X97500000Y-78500000D03*
X105000000Y-78500000D03*
X100000000Y-78500000D03*
X110000000Y-78500000D03*
X47500000Y-78500000D03*
X40000000Y-78500000D03*
X27500000Y-78500000D03*
X35000000Y-78500000D03*
X45000000Y-78500000D03*
X60000000Y-78500000D03*
X30000000Y-78500000D03*
X37500000Y-78500000D03*
X50000000Y-78500000D03*
X57500000Y-78500000D03*
X52500000Y-78500000D03*
X65000000Y-78500000D03*
X32500000Y-78500000D03*
X62500000Y-78500000D03*
X42500000Y-78500000D03*
X55000000Y-78500000D03*
X95000000Y-21500000D03*
X50000000Y-21500000D03*
X87500000Y-21500000D03*
X75000000Y-21500000D03*
X82500000Y-21500000D03*
X92500000Y-21500000D03*
X107500000Y-21500000D03*
X37500000Y-21500000D03*
X35000000Y-21500000D03*
X32500000Y-21500000D03*
X55000000Y-21500000D03*
X77500000Y-21500000D03*
X62500000Y-21500000D03*
X85000000Y-21500000D03*
X97500000Y-21500000D03*
X105000000Y-21500000D03*
X27500000Y-21500000D03*
X45000000Y-21500000D03*
X52500000Y-21500000D03*
X30000000Y-21500000D03*
X40000000Y-21500000D03*
X65000000Y-21500000D03*
X100000000Y-21500000D03*
X42500000Y-21500000D03*
X60000000Y-21500000D03*
X47500000Y-21500000D03*
X112500000Y-21500000D03*
X80000000Y-21500000D03*
X110000000Y-21500000D03*
X90000000Y-21500000D03*
X57500000Y-21500000D03*
X102500000Y-21500000D03*
X87300000Y-28000000D03*
X87299986Y-71900000D03*
D15*
X70000000Y-77300000D02*
X70000000Y-44800000D01*
X70000000Y-44900000D02*
X70000000Y-22800000D01*
D16*
X117000000Y-46650000D02*
X117350000Y-47000000D01*
X117350000Y-47000000D02*
X118500000Y-47000000D01*
X117000000Y-29100000D02*
X117000000Y-46650000D01*
X87300000Y-28000000D02*
X115900000Y-28000000D01*
X115900000Y-28000000D02*
X117000000Y-29100000D01*
X87300000Y-71899986D02*
X87299986Y-71900000D01*
X116800000Y-53400000D02*
X116800000Y-71300000D01*
X116800000Y-71300000D02*
X116200014Y-71899986D01*
X118500000Y-53000000D02*
X117200000Y-53000000D01*
X117200000Y-53000000D02*
X116800000Y-53400000D01*
X116200014Y-71899986D02*
X87300000Y-71899986D01*
D17*
G36*
X24873000Y-24800000D02*
G01*
X24875440Y-24824776D01*
X24882667Y-24848601D01*
X24894403Y-24870557D01*
X24910197Y-24889803D01*
X24929443Y-24905597D01*
X24951399Y-24917333D01*
X24975224Y-24924560D01*
X25000000Y-24927000D01*
X67073000Y-24927000D01*
X67073000Y-25400000D01*
X67075440Y-25424776D01*
X67082667Y-25448601D01*
X67094403Y-25470557D01*
X67110197Y-25489803D01*
X67119001Y-25497028D01*
X67119000Y-45041525D01*
X67119001Y-45041535D01*
X67119000Y-74477328D01*
X67101399Y-74482667D01*
X67079443Y-74494403D01*
X67060197Y-74510197D01*
X67044403Y-74529443D01*
X67032667Y-74551399D01*
X67025440Y-74575224D01*
X67023000Y-74600000D01*
X67023000Y-75073000D01*
X25000000Y-75073000D01*
X24975224Y-75075440D01*
X24951399Y-75082667D01*
X24929443Y-75094403D01*
X24910197Y-75110197D01*
X24894403Y-75129443D01*
X24882667Y-75151399D01*
X24875440Y-75175224D01*
X24873000Y-75200000D01*
X24873000Y-79594000D01*
X22519854Y-79594000D01*
X22093654Y-79552211D01*
X21702781Y-79434199D01*
X21342274Y-79242514D01*
X21025865Y-78984457D01*
X20765609Y-78669860D01*
X20571414Y-78310704D01*
X20450677Y-77920667D01*
X20406000Y-77495594D01*
X20406000Y-22519854D01*
X20447789Y-22093655D01*
X20565802Y-21702778D01*
X20757484Y-21342277D01*
X21015539Y-21025869D01*
X21330138Y-20765610D01*
X21689295Y-20571414D01*
X22079333Y-20450677D01*
X22504406Y-20406000D01*
X24873000Y-20406000D01*
X24873000Y-24800000D01*
G37*
X24873000Y-24800000D02*
X24875440Y-24824776D01*
X24882667Y-24848601D01*
X24894403Y-24870557D01*
X24910197Y-24889803D01*
X24929443Y-24905597D01*
X24951399Y-24917333D01*
X24975224Y-24924560D01*
X25000000Y-24927000D01*
X67073000Y-24927000D01*
X67073000Y-25400000D01*
X67075440Y-25424776D01*
X67082667Y-25448601D01*
X67094403Y-25470557D01*
X67110197Y-25489803D01*
X67119001Y-25497028D01*
X67119000Y-45041525D01*
X67119001Y-45041535D01*
X67119000Y-74477328D01*
X67101399Y-74482667D01*
X67079443Y-74494403D01*
X67060197Y-74510197D01*
X67044403Y-74529443D01*
X67032667Y-74551399D01*
X67025440Y-74575224D01*
X67023000Y-74600000D01*
X67023000Y-75073000D01*
X25000000Y-75073000D01*
X24975224Y-75075440D01*
X24951399Y-75082667D01*
X24929443Y-75094403D01*
X24910197Y-75110197D01*
X24894403Y-75129443D01*
X24882667Y-75151399D01*
X24875440Y-75175224D01*
X24873000Y-75200000D01*
X24873000Y-79594000D01*
X22519854Y-79594000D01*
X22093654Y-79552211D01*
X21702781Y-79434199D01*
X21342274Y-79242514D01*
X21025865Y-78984457D01*
X20765609Y-78669860D01*
X20571414Y-78310704D01*
X20450677Y-77920667D01*
X20406000Y-77495594D01*
X20406000Y-22519854D01*
X20447789Y-22093655D01*
X20565802Y-21702778D01*
X20757484Y-21342277D01*
X21015539Y-21025869D01*
X21330138Y-20765610D01*
X21689295Y-20571414D01*
X22079333Y-20450677D01*
X22504406Y-20406000D01*
X24873000Y-20406000D01*
X24873000Y-24800000D01*
G36*
X117906345Y-20447789D02*
G01*
X118297222Y-20565802D01*
X118657723Y-20757484D01*
X118974131Y-21015539D01*
X119234390Y-21330138D01*
X119428586Y-21689295D01*
X119549323Y-22079333D01*
X119594000Y-22504406D01*
X119594001Y-77480136D01*
X119552211Y-77906346D01*
X119434199Y-78297219D01*
X119242514Y-78657726D01*
X118984457Y-78974135D01*
X118669860Y-79234391D01*
X118310704Y-79428586D01*
X117920667Y-79549323D01*
X117495594Y-79594000D01*
X115127000Y-79594000D01*
X115127000Y-75200000D01*
X115124560Y-75175224D01*
X115117333Y-75151399D01*
X115105597Y-75129443D01*
X115089803Y-75110197D01*
X115070557Y-75094403D01*
X115048601Y-75082667D01*
X115024776Y-75075440D01*
X115000000Y-75073000D01*
X72977000Y-75073000D01*
X72977000Y-74600000D01*
X72974560Y-74575224D01*
X72967333Y-74551399D01*
X72955597Y-74529443D01*
X72939803Y-74510197D01*
X72920557Y-74494403D01*
X72898601Y-74482667D01*
X72881000Y-74477328D01*
X72881000Y-71823078D01*
X86518986Y-71823078D01*
X86518986Y-71976922D01*
X86548999Y-72127809D01*
X86607873Y-72269942D01*
X86693344Y-72397859D01*
X86802127Y-72506642D01*
X86930044Y-72592113D01*
X87072177Y-72650987D01*
X87223064Y-72681000D01*
X87376908Y-72681000D01*
X87527795Y-72650987D01*
X87669928Y-72592113D01*
X87686581Y-72580986D01*
X116166561Y-72580986D01*
X116200014Y-72584281D01*
X116233467Y-72580986D01*
X116333513Y-72571132D01*
X116461882Y-72532192D01*
X116580188Y-72468956D01*
X116683884Y-72383856D01*
X116705218Y-72357860D01*
X117257884Y-71805196D01*
X117283870Y-71783870D01*
X117368970Y-71680174D01*
X117432206Y-71561868D01*
X117471146Y-71433499D01*
X117481000Y-71333453D01*
X117481000Y-71333452D01*
X117484295Y-71300001D01*
X117481000Y-71266550D01*
X117481000Y-53839657D01*
X117506678Y-53887696D01*
X117554289Y-53945711D01*
X117612304Y-53993322D01*
X117678492Y-54028701D01*
X117750311Y-54050487D01*
X117825000Y-54057843D01*
X119175000Y-54057843D01*
X119249689Y-54050487D01*
X119321508Y-54028701D01*
X119387696Y-53993322D01*
X119445711Y-53945711D01*
X119493322Y-53887696D01*
X119528701Y-53821508D01*
X119550487Y-53749689D01*
X119557843Y-53675000D01*
X119557843Y-52325000D01*
X119550487Y-52250311D01*
X119528701Y-52178492D01*
X119493322Y-52112304D01*
X119445711Y-52054289D01*
X119387696Y-52006678D01*
X119321508Y-51971299D01*
X119249689Y-51949513D01*
X119175000Y-51942157D01*
X118984893Y-51942157D01*
X119000204Y-51935815D01*
X119173161Y-51820249D01*
X119320249Y-51673161D01*
X119435815Y-51500204D01*
X119515419Y-51308024D01*
X119556000Y-51104007D01*
X119556000Y-50895993D01*
X119515419Y-50691976D01*
X119435815Y-50499796D01*
X119320249Y-50326839D01*
X119173161Y-50179751D01*
X119000204Y-50064185D01*
X118845249Y-50000000D01*
X119000204Y-49935815D01*
X119173161Y-49820249D01*
X119320249Y-49673161D01*
X119435815Y-49500204D01*
X119515419Y-49308024D01*
X119556000Y-49104007D01*
X119556000Y-48895993D01*
X119515419Y-48691976D01*
X119435815Y-48499796D01*
X119320249Y-48326839D01*
X119173161Y-48179751D01*
X119000204Y-48064185D01*
X118845249Y-48000000D01*
X119000204Y-47935815D01*
X119173161Y-47820249D01*
X119320249Y-47673161D01*
X119435815Y-47500204D01*
X119515419Y-47308024D01*
X119556000Y-47104007D01*
X119556000Y-46895993D01*
X119515419Y-46691976D01*
X119435815Y-46499796D01*
X119320249Y-46326839D01*
X119173161Y-46179751D01*
X119000204Y-46064185D01*
X118808024Y-45984581D01*
X118604007Y-45944000D01*
X118395993Y-45944000D01*
X118191976Y-45984581D01*
X117999796Y-46064185D01*
X117826839Y-46179751D01*
X117687590Y-46319000D01*
X117681000Y-46319000D01*
X117681000Y-29133453D01*
X117684295Y-29100000D01*
X117671146Y-28966501D01*
X117632206Y-28838133D01*
X117632206Y-28838132D01*
X117568970Y-28719826D01*
X117483869Y-28616130D01*
X117457883Y-28594804D01*
X116405204Y-27542126D01*
X116383870Y-27516130D01*
X116280174Y-27431030D01*
X116161868Y-27367794D01*
X116033499Y-27328854D01*
X115933453Y-27319000D01*
X115900000Y-27315705D01*
X115866547Y-27319000D01*
X87686574Y-27319000D01*
X87669942Y-27307887D01*
X87527809Y-27249013D01*
X87376922Y-27219000D01*
X87223078Y-27219000D01*
X87072191Y-27249013D01*
X86930058Y-27307887D01*
X86802141Y-27393358D01*
X86693358Y-27502141D01*
X86607887Y-27630058D01*
X86549013Y-27772191D01*
X86519000Y-27923078D01*
X86519000Y-28076922D01*
X86549013Y-28227809D01*
X86607887Y-28369942D01*
X86693358Y-28497859D01*
X86802141Y-28606642D01*
X86930058Y-28692113D01*
X87072191Y-28750987D01*
X87223078Y-28781000D01*
X87376922Y-28781000D01*
X87527809Y-28750987D01*
X87669942Y-28692113D01*
X87686574Y-28681000D01*
X115617922Y-28681000D01*
X116319000Y-29382079D01*
X116319001Y-46616537D01*
X116315705Y-46650000D01*
X116328854Y-46783498D01*
X116354033Y-46866501D01*
X116367795Y-46911868D01*
X116431031Y-47030174D01*
X116516131Y-47133870D01*
X116542122Y-47155200D01*
X116844796Y-47457874D01*
X116866130Y-47483870D01*
X116969826Y-47568970D01*
X117088132Y-47632206D01*
X117216501Y-47671146D01*
X117350000Y-47684295D01*
X117383453Y-47681000D01*
X117687590Y-47681000D01*
X117826839Y-47820249D01*
X117999796Y-47935815D01*
X118154751Y-48000000D01*
X117999796Y-48064185D01*
X117826839Y-48179751D01*
X117679751Y-48326839D01*
X117564185Y-48499796D01*
X117484581Y-48691976D01*
X117444000Y-48895993D01*
X117444000Y-49104007D01*
X117484581Y-49308024D01*
X117564185Y-49500204D01*
X117679751Y-49673161D01*
X117826839Y-49820249D01*
X117999796Y-49935815D01*
X118154751Y-50000000D01*
X117999796Y-50064185D01*
X117826839Y-50179751D01*
X117679751Y-50326839D01*
X117564185Y-50499796D01*
X117484581Y-50691976D01*
X117444000Y-50895993D01*
X117444000Y-51104007D01*
X117484581Y-51308024D01*
X117564185Y-51500204D01*
X117679751Y-51673161D01*
X117826839Y-51820249D01*
X117999796Y-51935815D01*
X118015107Y-51942157D01*
X117825000Y-51942157D01*
X117750311Y-51949513D01*
X117678492Y-51971299D01*
X117612304Y-52006678D01*
X117554289Y-52054289D01*
X117506678Y-52112304D01*
X117471299Y-52178492D01*
X117449513Y-52250311D01*
X117442748Y-52319000D01*
X117233450Y-52319000D01*
X117199999Y-52315705D01*
X117166548Y-52319000D01*
X117166547Y-52319000D01*
X117066501Y-52328854D01*
X116938132Y-52367794D01*
X116819826Y-52431030D01*
X116716130Y-52516130D01*
X116694800Y-52542122D01*
X116342122Y-52894800D01*
X116316130Y-52916131D01*
X116231030Y-53019827D01*
X116167794Y-53138133D01*
X116130260Y-53261868D01*
X116128854Y-53266502D01*
X116115705Y-53400000D01*
X116119000Y-53433453D01*
X116119001Y-71017920D01*
X115917935Y-71218986D01*
X87686539Y-71218986D01*
X87669928Y-71207887D01*
X87527795Y-71149013D01*
X87376908Y-71119000D01*
X87223064Y-71119000D01*
X87072177Y-71149013D01*
X86930044Y-71207887D01*
X86802127Y-71293358D01*
X86693344Y-71402141D01*
X86607873Y-71530058D01*
X86548999Y-71672191D01*
X86518986Y-71823078D01*
X72881000Y-71823078D01*
X72881000Y-25497027D01*
X72889803Y-25489803D01*
X72905597Y-25470557D01*
X72917333Y-25448601D01*
X72924560Y-25424776D01*
X72927000Y-25400000D01*
X72927000Y-24927000D01*
X115000000Y-24927000D01*
X115024776Y-24924560D01*
X115048601Y-24917333D01*
X115070557Y-24905597D01*
X115089803Y-24889803D01*
X115105597Y-24870557D01*
X115117333Y-24848601D01*
X115124560Y-24824776D01*
X115127000Y-24800000D01*
X115127000Y-20406000D01*
X117480146Y-20406000D01*
X117906345Y-20447789D01*
G37*
X117906345Y-20447789D02*
X118297222Y-20565802D01*
X118657723Y-20757484D01*
X118974131Y-21015539D01*
X119234390Y-21330138D01*
X119428586Y-21689295D01*
X119549323Y-22079333D01*
X119594000Y-22504406D01*
X119594001Y-77480136D01*
X119552211Y-77906346D01*
X119434199Y-78297219D01*
X119242514Y-78657726D01*
X118984457Y-78974135D01*
X118669860Y-79234391D01*
X118310704Y-79428586D01*
X117920667Y-79549323D01*
X117495594Y-79594000D01*
X115127000Y-79594000D01*
X115127000Y-75200000D01*
X115124560Y-75175224D01*
X115117333Y-75151399D01*
X115105597Y-75129443D01*
X115089803Y-75110197D01*
X115070557Y-75094403D01*
X115048601Y-75082667D01*
X115024776Y-75075440D01*
X115000000Y-75073000D01*
X72977000Y-75073000D01*
X72977000Y-74600000D01*
X72974560Y-74575224D01*
X72967333Y-74551399D01*
X72955597Y-74529443D01*
X72939803Y-74510197D01*
X72920557Y-74494403D01*
X72898601Y-74482667D01*
X72881000Y-74477328D01*
X72881000Y-71823078D01*
X86518986Y-71823078D01*
X86518986Y-71976922D01*
X86548999Y-72127809D01*
X86607873Y-72269942D01*
X86693344Y-72397859D01*
X86802127Y-72506642D01*
X86930044Y-72592113D01*
X87072177Y-72650987D01*
X87223064Y-72681000D01*
X87376908Y-72681000D01*
X87527795Y-72650987D01*
X87669928Y-72592113D01*
X87686581Y-72580986D01*
X116166561Y-72580986D01*
X116200014Y-72584281D01*
X116233467Y-72580986D01*
X116333513Y-72571132D01*
X116461882Y-72532192D01*
X116580188Y-72468956D01*
X116683884Y-72383856D01*
X116705218Y-72357860D01*
X117257884Y-71805196D01*
X117283870Y-71783870D01*
X117368970Y-71680174D01*
X117432206Y-71561868D01*
X117471146Y-71433499D01*
X117481000Y-71333453D01*
X117481000Y-71333452D01*
X117484295Y-71300001D01*
X117481000Y-71266550D01*
X117481000Y-53839657D01*
X117506678Y-53887696D01*
X117554289Y-53945711D01*
X117612304Y-53993322D01*
X117678492Y-54028701D01*
X117750311Y-54050487D01*
X117825000Y-54057843D01*
X119175000Y-54057843D01*
X119249689Y-54050487D01*
X119321508Y-54028701D01*
X119387696Y-53993322D01*
X119445711Y-53945711D01*
X119493322Y-53887696D01*
X119528701Y-53821508D01*
X119550487Y-53749689D01*
X119557843Y-53675000D01*
X119557843Y-52325000D01*
X119550487Y-52250311D01*
X119528701Y-52178492D01*
X119493322Y-52112304D01*
X119445711Y-52054289D01*
X119387696Y-52006678D01*
X119321508Y-51971299D01*
X119249689Y-51949513D01*
X119175000Y-51942157D01*
X118984893Y-51942157D01*
X119000204Y-51935815D01*
X119173161Y-51820249D01*
X119320249Y-51673161D01*
X119435815Y-51500204D01*
X119515419Y-51308024D01*
X119556000Y-51104007D01*
X119556000Y-50895993D01*
X119515419Y-50691976D01*
X119435815Y-50499796D01*
X119320249Y-50326839D01*
X119173161Y-50179751D01*
X119000204Y-50064185D01*
X118845249Y-50000000D01*
X119000204Y-49935815D01*
X119173161Y-49820249D01*
X119320249Y-49673161D01*
X119435815Y-49500204D01*
X119515419Y-49308024D01*
X119556000Y-49104007D01*
X119556000Y-48895993D01*
X119515419Y-48691976D01*
X119435815Y-48499796D01*
X119320249Y-48326839D01*
X119173161Y-48179751D01*
X119000204Y-48064185D01*
X118845249Y-48000000D01*
X119000204Y-47935815D01*
X119173161Y-47820249D01*
X119320249Y-47673161D01*
X119435815Y-47500204D01*
X119515419Y-47308024D01*
X119556000Y-47104007D01*
X119556000Y-46895993D01*
X119515419Y-46691976D01*
X119435815Y-46499796D01*
X119320249Y-46326839D01*
X119173161Y-46179751D01*
X119000204Y-46064185D01*
X118808024Y-45984581D01*
X118604007Y-45944000D01*
X118395993Y-45944000D01*
X118191976Y-45984581D01*
X117999796Y-46064185D01*
X117826839Y-46179751D01*
X117687590Y-46319000D01*
X117681000Y-46319000D01*
X117681000Y-29133453D01*
X117684295Y-29100000D01*
X117671146Y-28966501D01*
X117632206Y-28838133D01*
X117632206Y-28838132D01*
X117568970Y-28719826D01*
X117483869Y-28616130D01*
X117457883Y-28594804D01*
X116405204Y-27542126D01*
X116383870Y-27516130D01*
X116280174Y-27431030D01*
X116161868Y-27367794D01*
X116033499Y-27328854D01*
X115933453Y-27319000D01*
X115900000Y-27315705D01*
X115866547Y-27319000D01*
X87686574Y-27319000D01*
X87669942Y-27307887D01*
X87527809Y-27249013D01*
X87376922Y-27219000D01*
X87223078Y-27219000D01*
X87072191Y-27249013D01*
X86930058Y-27307887D01*
X86802141Y-27393358D01*
X86693358Y-27502141D01*
X86607887Y-27630058D01*
X86549013Y-27772191D01*
X86519000Y-27923078D01*
X86519000Y-28076922D01*
X86549013Y-28227809D01*
X86607887Y-28369942D01*
X86693358Y-28497859D01*
X86802141Y-28606642D01*
X86930058Y-28692113D01*
X87072191Y-28750987D01*
X87223078Y-28781000D01*
X87376922Y-28781000D01*
X87527809Y-28750987D01*
X87669942Y-28692113D01*
X87686574Y-28681000D01*
X115617922Y-28681000D01*
X116319000Y-29382079D01*
X116319001Y-46616537D01*
X116315705Y-46650000D01*
X116328854Y-46783498D01*
X116354033Y-46866501D01*
X116367795Y-46911868D01*
X116431031Y-47030174D01*
X116516131Y-47133870D01*
X116542122Y-47155200D01*
X116844796Y-47457874D01*
X116866130Y-47483870D01*
X116969826Y-47568970D01*
X117088132Y-47632206D01*
X117216501Y-47671146D01*
X117350000Y-47684295D01*
X117383453Y-47681000D01*
X117687590Y-47681000D01*
X117826839Y-47820249D01*
X117999796Y-47935815D01*
X118154751Y-48000000D01*
X117999796Y-48064185D01*
X117826839Y-48179751D01*
X117679751Y-48326839D01*
X117564185Y-48499796D01*
X117484581Y-48691976D01*
X117444000Y-48895993D01*
X117444000Y-49104007D01*
X117484581Y-49308024D01*
X117564185Y-49500204D01*
X117679751Y-49673161D01*
X117826839Y-49820249D01*
X117999796Y-49935815D01*
X118154751Y-50000000D01*
X117999796Y-50064185D01*
X117826839Y-50179751D01*
X117679751Y-50326839D01*
X117564185Y-50499796D01*
X117484581Y-50691976D01*
X117444000Y-50895993D01*
X117444000Y-51104007D01*
X117484581Y-51308024D01*
X117564185Y-51500204D01*
X117679751Y-51673161D01*
X117826839Y-51820249D01*
X117999796Y-51935815D01*
X118015107Y-51942157D01*
X117825000Y-51942157D01*
X117750311Y-51949513D01*
X117678492Y-51971299D01*
X117612304Y-52006678D01*
X117554289Y-52054289D01*
X117506678Y-52112304D01*
X117471299Y-52178492D01*
X117449513Y-52250311D01*
X117442748Y-52319000D01*
X117233450Y-52319000D01*
X117199999Y-52315705D01*
X117166548Y-52319000D01*
X117166547Y-52319000D01*
X117066501Y-52328854D01*
X116938132Y-52367794D01*
X116819826Y-52431030D01*
X116716130Y-52516130D01*
X116694800Y-52542122D01*
X116342122Y-52894800D01*
X116316130Y-52916131D01*
X116231030Y-53019827D01*
X116167794Y-53138133D01*
X116130260Y-53261868D01*
X116128854Y-53266502D01*
X116115705Y-53400000D01*
X116119000Y-53433453D01*
X116119001Y-71017920D01*
X115917935Y-71218986D01*
X87686539Y-71218986D01*
X87669928Y-71207887D01*
X87527795Y-71149013D01*
X87376908Y-71119000D01*
X87223064Y-71119000D01*
X87072177Y-71149013D01*
X86930044Y-71207887D01*
X86802127Y-71293358D01*
X86693344Y-71402141D01*
X86607873Y-71530058D01*
X86548999Y-71672191D01*
X86518986Y-71823078D01*
X72881000Y-71823078D01*
X72881000Y-25497027D01*
X72889803Y-25489803D01*
X72905597Y-25470557D01*
X72917333Y-25448601D01*
X72924560Y-25424776D01*
X72927000Y-25400000D01*
X72927000Y-24927000D01*
X115000000Y-24927000D01*
X115024776Y-24924560D01*
X115048601Y-24917333D01*
X115070557Y-24905597D01*
X115089803Y-24889803D01*
X115105597Y-24870557D01*
X115117333Y-24848601D01*
X115124560Y-24824776D01*
X115127000Y-24800000D01*
X115127000Y-20406000D01*
X117480146Y-20406000D01*
X117906345Y-20447789D01*
G36*
X114473000Y-79594000D02*
G01*
X25527000Y-79594000D01*
X25527000Y-75727000D01*
X114473000Y-75727000D01*
X114473000Y-79594000D01*
G37*
X114473000Y-79594000D02*
X25527000Y-79594000D01*
X25527000Y-75727000D01*
X114473000Y-75727000D01*
X114473000Y-79594000D01*
G36*
X114473000Y-24273000D02*
G01*
X25527000Y-24273000D01*
X25527000Y-20406000D01*
X114473000Y-20406000D01*
X114473000Y-24273000D01*
G37*
X114473000Y-24273000D02*
X25527000Y-24273000D01*
X25527000Y-20406000D01*
X114473000Y-20406000D01*
X114473000Y-24273000D01*
M02*
