M48
; DRILL file {KiCad 5.1.5} date Mon 23 Dec 2019 15:18:05 CET
; FORMAT={-:-/ absolute / metric / decimal}
; #@! TF.CreationDate,2019-12-23T15:18:05+01:00
; #@! TF.GenerationSoftware,Kicad,Pcbnew,5.1.5
FMAT,2
METRIC
T1C0.400
T2C0.800
T3C2.200
%
G90
G05
T1
X21.5Y-27.5
X21.5Y-30.0
X21.5Y-32.5
X21.5Y-35.0
X21.5Y-37.5
X21.5Y-40.0
X21.5Y-42.5
X21.5Y-45.0
X21.5Y-47.5
X21.5Y-50.0
X21.5Y-52.5
X21.5Y-55.0
X21.5Y-57.5
X21.5Y-60.0
X21.5Y-62.5
X21.5Y-65.0
X21.5Y-67.5
X21.5Y-70.0
X21.5Y-72.5
X27.5Y-21.5
X27.5Y-78.5
X30.0Y-21.5
X30.0Y-78.5
X32.5Y-21.5
X32.5Y-78.5
X35.0Y-21.5
X35.0Y-78.5
X37.5Y-21.5
X37.5Y-78.5
X40.0Y-21.5
X40.0Y-78.5
X42.5Y-21.5
X42.5Y-78.5
X45.0Y-21.5
X45.0Y-78.5
X47.5Y-21.5
X47.5Y-78.5
X50.0Y-21.5
X50.0Y-78.5
X52.5Y-21.5
X52.5Y-78.5
X55.0Y-21.5
X55.0Y-78.5
X57.5Y-21.5
X57.5Y-78.5
X60.0Y-21.5
X60.0Y-78.5
X62.5Y-21.5
X62.5Y-78.5
X65.0Y-21.5
X65.0Y-78.5
X75.0Y-21.5
X75.0Y-78.5
X77.5Y-21.5
X77.5Y-78.5
X80.0Y-21.5
X80.0Y-78.5
X82.5Y-21.5
X82.5Y-78.5
X85.0Y-21.5
X85.0Y-78.5
X87.3Y-71.9
X87.3Y-28.0
X87.5Y-21.5
X87.5Y-78.5
X90.0Y-21.5
X90.0Y-78.5
X92.5Y-21.5
X92.5Y-78.5
X95.0Y-21.5
X95.0Y-78.5
X97.5Y-21.5
X97.5Y-78.5
X100.0Y-21.5
X100.0Y-78.5
X102.25Y-50.0
X102.5Y-21.5
X102.5Y-78.5
X104.0Y-50.0
X105.0Y-21.5
X105.0Y-78.5
X105.75Y-50.0
X107.45Y-50.0
X107.5Y-21.5
X107.5Y-78.5
X109.2Y-50.0
X110.0Y-21.5
X110.0Y-78.5
X112.5Y-21.5
X112.5Y-78.5
X118.5Y-27.5
X118.5Y-30.0
X118.5Y-32.5
X118.5Y-35.0
X118.5Y-37.5
X118.5Y-40.0
X118.5Y-42.5
X118.5Y-45.0
X118.5Y-55.0
X118.5Y-57.5
X118.5Y-60.0
X118.5Y-62.5
X118.5Y-65.0
X118.5Y-67.5
X118.5Y-70.0
X118.5Y-72.5
X68.35Y-22.5
X68.833Y-21.333
X68.833Y-23.667
X70.0Y-20.85
X70.0Y-24.15
X71.167Y-21.333
X71.167Y-23.667
X71.65Y-22.5
X115.85Y-77.5
X116.333Y-76.333
X116.333Y-78.667
X117.5Y-75.85
X117.5Y-79.15
X118.667Y-76.333
X118.667Y-78.667
X119.15Y-77.5
X115.85Y-22.5
X116.333Y-21.333
X116.333Y-23.667
X117.5Y-20.85
X117.5Y-24.15
X118.667Y-21.333
X118.667Y-23.667
X119.15Y-22.5
X20.85Y-22.5
X21.333Y-21.333
X21.333Y-23.667
X22.5Y-20.85
X22.5Y-24.15
X23.667Y-21.333
X23.667Y-23.667
X24.15Y-22.5
X68.35Y-77.5
X68.833Y-76.333
X68.833Y-78.667
X70.0Y-75.85
X70.0Y-79.15
X71.167Y-76.333
X71.167Y-78.667
X71.65Y-77.5
X20.85Y-77.5
X21.333Y-76.333
X21.333Y-78.667
X22.5Y-75.85
X22.5Y-79.15
X23.667Y-76.333
X23.667Y-78.667
X24.15Y-77.5
T2
X118.5Y-47.0
X118.5Y-49.0
X118.5Y-51.0
X118.5Y-53.0
T3
X70.0Y-22.5
X117.5Y-77.5
X117.5Y-22.5
X22.5Y-22.5
X70.0Y-77.5
X22.5Y-77.5
T0
M30
