G04 #@! TF.GenerationSoftware,KiCad,Pcbnew,5.1.5*
G04 #@! TF.CreationDate,2019-12-23T15:18:02+01:00*
G04 #@! TF.ProjectId,ledside_rev18A,6c656473-6964-4655-9f72-65763138412e,rev?*
G04 #@! TF.SameCoordinates,Original*
G04 #@! TF.FileFunction,Soldermask,Bot*
G04 #@! TF.FilePolarity,Negative*
%FSLAX46Y46*%
G04 Gerber Fmt 4.6, Leading zero omitted, Abs format (unit mm)*
G04 Created by KiCad (PCBNEW 5.1.5) date 2019-12-23 15:18:02*
%MOMM*%
%LPD*%
G04 APERTURE LIST*
%ADD10C,0.100000*%
G04 APERTURE END LIST*
D10*
G36*
X117775880Y-75259776D02*
G01*
X118156593Y-75335504D01*
X118566249Y-75505189D01*
X118934929Y-75751534D01*
X119248466Y-76065071D01*
X119494811Y-76433751D01*
X119664496Y-76843407D01*
X119751000Y-77278296D01*
X119751000Y-77721704D01*
X119664496Y-78156593D01*
X119494811Y-78566249D01*
X119248466Y-78934929D01*
X118934929Y-79248466D01*
X118566249Y-79494811D01*
X118156593Y-79664496D01*
X117775880Y-79740224D01*
X117721705Y-79751000D01*
X117278295Y-79751000D01*
X117224120Y-79740224D01*
X116843407Y-79664496D01*
X116433751Y-79494811D01*
X116065071Y-79248466D01*
X115751534Y-78934929D01*
X115505189Y-78566249D01*
X115335504Y-78156593D01*
X115249000Y-77721704D01*
X115249000Y-77278296D01*
X115335504Y-76843407D01*
X115505189Y-76433751D01*
X115751534Y-76065071D01*
X116065071Y-75751534D01*
X116433751Y-75505189D01*
X116843407Y-75335504D01*
X117224120Y-75259776D01*
X117278295Y-75249000D01*
X117721705Y-75249000D01*
X117775880Y-75259776D01*
G37*
G36*
X70275880Y-75259776D02*
G01*
X70656593Y-75335504D01*
X71066249Y-75505189D01*
X71434929Y-75751534D01*
X71748466Y-76065071D01*
X71994811Y-76433751D01*
X72164496Y-76843407D01*
X72251000Y-77278296D01*
X72251000Y-77721704D01*
X72164496Y-78156593D01*
X71994811Y-78566249D01*
X71748466Y-78934929D01*
X71434929Y-79248466D01*
X71066249Y-79494811D01*
X70656593Y-79664496D01*
X70275880Y-79740224D01*
X70221705Y-79751000D01*
X69778295Y-79751000D01*
X69724120Y-79740224D01*
X69343407Y-79664496D01*
X68933751Y-79494811D01*
X68565071Y-79248466D01*
X68251534Y-78934929D01*
X68005189Y-78566249D01*
X67835504Y-78156593D01*
X67749000Y-77721704D01*
X67749000Y-77278296D01*
X67835504Y-76843407D01*
X68005189Y-76433751D01*
X68251534Y-76065071D01*
X68565071Y-75751534D01*
X68933751Y-75505189D01*
X69343407Y-75335504D01*
X69724120Y-75259776D01*
X69778295Y-75249000D01*
X70221705Y-75249000D01*
X70275880Y-75259776D01*
G37*
G36*
X22775880Y-75259776D02*
G01*
X23156593Y-75335504D01*
X23566249Y-75505189D01*
X23934929Y-75751534D01*
X24248466Y-76065071D01*
X24494811Y-76433751D01*
X24664496Y-76843407D01*
X24751000Y-77278296D01*
X24751000Y-77721704D01*
X24664496Y-78156593D01*
X24494811Y-78566249D01*
X24248466Y-78934929D01*
X23934929Y-79248466D01*
X23566249Y-79494811D01*
X23156593Y-79664496D01*
X22775880Y-79740224D01*
X22721705Y-79751000D01*
X22278295Y-79751000D01*
X22224120Y-79740224D01*
X21843407Y-79664496D01*
X21433751Y-79494811D01*
X21065071Y-79248466D01*
X20751534Y-78934929D01*
X20505189Y-78566249D01*
X20335504Y-78156593D01*
X20249000Y-77721704D01*
X20249000Y-77278296D01*
X20335504Y-76843407D01*
X20505189Y-76433751D01*
X20751534Y-76065071D01*
X21065071Y-75751534D01*
X21433751Y-75505189D01*
X21843407Y-75335504D01*
X22224120Y-75259776D01*
X22278295Y-75249000D01*
X22721705Y-75249000D01*
X22775880Y-75259776D01*
G37*
G36*
X87631552Y-78066331D02*
G01*
X87713627Y-78100328D01*
X87713629Y-78100329D01*
X87750813Y-78125175D01*
X87787495Y-78149685D01*
X87850315Y-78212505D01*
X87899672Y-78286373D01*
X87933669Y-78368448D01*
X87951000Y-78455579D01*
X87951000Y-78544421D01*
X87933669Y-78631552D01*
X87899672Y-78713627D01*
X87850315Y-78787495D01*
X87787495Y-78850315D01*
X87750813Y-78874825D01*
X87713629Y-78899671D01*
X87713628Y-78899672D01*
X87713627Y-78899672D01*
X87631552Y-78933669D01*
X87544421Y-78951000D01*
X87455579Y-78951000D01*
X87368448Y-78933669D01*
X87286373Y-78899672D01*
X87286372Y-78899672D01*
X87286371Y-78899671D01*
X87249187Y-78874825D01*
X87212505Y-78850315D01*
X87149685Y-78787495D01*
X87100328Y-78713627D01*
X87066331Y-78631552D01*
X87049000Y-78544421D01*
X87049000Y-78455579D01*
X87066331Y-78368448D01*
X87100328Y-78286373D01*
X87149685Y-78212505D01*
X87212505Y-78149685D01*
X87249187Y-78125175D01*
X87286371Y-78100329D01*
X87286373Y-78100328D01*
X87368448Y-78066331D01*
X87455579Y-78049000D01*
X87544421Y-78049000D01*
X87631552Y-78066331D01*
G37*
G36*
X30131552Y-78066331D02*
G01*
X30213627Y-78100328D01*
X30213629Y-78100329D01*
X30250813Y-78125175D01*
X30287495Y-78149685D01*
X30350315Y-78212505D01*
X30399672Y-78286373D01*
X30433669Y-78368448D01*
X30451000Y-78455579D01*
X30451000Y-78544421D01*
X30433669Y-78631552D01*
X30399672Y-78713627D01*
X30350315Y-78787495D01*
X30287495Y-78850315D01*
X30250813Y-78874825D01*
X30213629Y-78899671D01*
X30213628Y-78899672D01*
X30213627Y-78899672D01*
X30131552Y-78933669D01*
X30044421Y-78951000D01*
X29955579Y-78951000D01*
X29868448Y-78933669D01*
X29786373Y-78899672D01*
X29786372Y-78899672D01*
X29786371Y-78899671D01*
X29749187Y-78874825D01*
X29712505Y-78850315D01*
X29649685Y-78787495D01*
X29600328Y-78713627D01*
X29566331Y-78631552D01*
X29549000Y-78544421D01*
X29549000Y-78455579D01*
X29566331Y-78368448D01*
X29600328Y-78286373D01*
X29649685Y-78212505D01*
X29712505Y-78149685D01*
X29749187Y-78125175D01*
X29786371Y-78100329D01*
X29786373Y-78100328D01*
X29868448Y-78066331D01*
X29955579Y-78049000D01*
X30044421Y-78049000D01*
X30131552Y-78066331D01*
G37*
G36*
X92631552Y-78066331D02*
G01*
X92713627Y-78100328D01*
X92713629Y-78100329D01*
X92750813Y-78125175D01*
X92787495Y-78149685D01*
X92850315Y-78212505D01*
X92899672Y-78286373D01*
X92933669Y-78368448D01*
X92951000Y-78455579D01*
X92951000Y-78544421D01*
X92933669Y-78631552D01*
X92899672Y-78713627D01*
X92850315Y-78787495D01*
X92787495Y-78850315D01*
X92750813Y-78874825D01*
X92713629Y-78899671D01*
X92713628Y-78899672D01*
X92713627Y-78899672D01*
X92631552Y-78933669D01*
X92544421Y-78951000D01*
X92455579Y-78951000D01*
X92368448Y-78933669D01*
X92286373Y-78899672D01*
X92286372Y-78899672D01*
X92286371Y-78899671D01*
X92249187Y-78874825D01*
X92212505Y-78850315D01*
X92149685Y-78787495D01*
X92100328Y-78713627D01*
X92066331Y-78631552D01*
X92049000Y-78544421D01*
X92049000Y-78455579D01*
X92066331Y-78368448D01*
X92100328Y-78286373D01*
X92149685Y-78212505D01*
X92212505Y-78149685D01*
X92249187Y-78125175D01*
X92286371Y-78100329D01*
X92286373Y-78100328D01*
X92368448Y-78066331D01*
X92455579Y-78049000D01*
X92544421Y-78049000D01*
X92631552Y-78066331D01*
G37*
G36*
X85131552Y-78066331D02*
G01*
X85213627Y-78100328D01*
X85213629Y-78100329D01*
X85250813Y-78125175D01*
X85287495Y-78149685D01*
X85350315Y-78212505D01*
X85399672Y-78286373D01*
X85433669Y-78368448D01*
X85451000Y-78455579D01*
X85451000Y-78544421D01*
X85433669Y-78631552D01*
X85399672Y-78713627D01*
X85350315Y-78787495D01*
X85287495Y-78850315D01*
X85250813Y-78874825D01*
X85213629Y-78899671D01*
X85213628Y-78899672D01*
X85213627Y-78899672D01*
X85131552Y-78933669D01*
X85044421Y-78951000D01*
X84955579Y-78951000D01*
X84868448Y-78933669D01*
X84786373Y-78899672D01*
X84786372Y-78899672D01*
X84786371Y-78899671D01*
X84749187Y-78874825D01*
X84712505Y-78850315D01*
X84649685Y-78787495D01*
X84600328Y-78713627D01*
X84566331Y-78631552D01*
X84549000Y-78544421D01*
X84549000Y-78455579D01*
X84566331Y-78368448D01*
X84600328Y-78286373D01*
X84649685Y-78212505D01*
X84712505Y-78149685D01*
X84749187Y-78125175D01*
X84786371Y-78100329D01*
X84786373Y-78100328D01*
X84868448Y-78066331D01*
X84955579Y-78049000D01*
X85044421Y-78049000D01*
X85131552Y-78066331D01*
G37*
G36*
X82631552Y-78066331D02*
G01*
X82713627Y-78100328D01*
X82713629Y-78100329D01*
X82750813Y-78125175D01*
X82787495Y-78149685D01*
X82850315Y-78212505D01*
X82899672Y-78286373D01*
X82933669Y-78368448D01*
X82951000Y-78455579D01*
X82951000Y-78544421D01*
X82933669Y-78631552D01*
X82899672Y-78713627D01*
X82850315Y-78787495D01*
X82787495Y-78850315D01*
X82750813Y-78874825D01*
X82713629Y-78899671D01*
X82713628Y-78899672D01*
X82713627Y-78899672D01*
X82631552Y-78933669D01*
X82544421Y-78951000D01*
X82455579Y-78951000D01*
X82368448Y-78933669D01*
X82286373Y-78899672D01*
X82286372Y-78899672D01*
X82286371Y-78899671D01*
X82249187Y-78874825D01*
X82212505Y-78850315D01*
X82149685Y-78787495D01*
X82100328Y-78713627D01*
X82066331Y-78631552D01*
X82049000Y-78544421D01*
X82049000Y-78455579D01*
X82066331Y-78368448D01*
X82100328Y-78286373D01*
X82149685Y-78212505D01*
X82212505Y-78149685D01*
X82249187Y-78125175D01*
X82286371Y-78100329D01*
X82286373Y-78100328D01*
X82368448Y-78066331D01*
X82455579Y-78049000D01*
X82544421Y-78049000D01*
X82631552Y-78066331D01*
G37*
G36*
X80131552Y-78066331D02*
G01*
X80213627Y-78100328D01*
X80213629Y-78100329D01*
X80250813Y-78125175D01*
X80287495Y-78149685D01*
X80350315Y-78212505D01*
X80399672Y-78286373D01*
X80433669Y-78368448D01*
X80451000Y-78455579D01*
X80451000Y-78544421D01*
X80433669Y-78631552D01*
X80399672Y-78713627D01*
X80350315Y-78787495D01*
X80287495Y-78850315D01*
X80250813Y-78874825D01*
X80213629Y-78899671D01*
X80213628Y-78899672D01*
X80213627Y-78899672D01*
X80131552Y-78933669D01*
X80044421Y-78951000D01*
X79955579Y-78951000D01*
X79868448Y-78933669D01*
X79786373Y-78899672D01*
X79786372Y-78899672D01*
X79786371Y-78899671D01*
X79749187Y-78874825D01*
X79712505Y-78850315D01*
X79649685Y-78787495D01*
X79600328Y-78713627D01*
X79566331Y-78631552D01*
X79549000Y-78544421D01*
X79549000Y-78455579D01*
X79566331Y-78368448D01*
X79600328Y-78286373D01*
X79649685Y-78212505D01*
X79712505Y-78149685D01*
X79749187Y-78125175D01*
X79786371Y-78100329D01*
X79786373Y-78100328D01*
X79868448Y-78066331D01*
X79955579Y-78049000D01*
X80044421Y-78049000D01*
X80131552Y-78066331D01*
G37*
G36*
X77631552Y-78066331D02*
G01*
X77713627Y-78100328D01*
X77713629Y-78100329D01*
X77750813Y-78125175D01*
X77787495Y-78149685D01*
X77850315Y-78212505D01*
X77899672Y-78286373D01*
X77933669Y-78368448D01*
X77951000Y-78455579D01*
X77951000Y-78544421D01*
X77933669Y-78631552D01*
X77899672Y-78713627D01*
X77850315Y-78787495D01*
X77787495Y-78850315D01*
X77750813Y-78874825D01*
X77713629Y-78899671D01*
X77713628Y-78899672D01*
X77713627Y-78899672D01*
X77631552Y-78933669D01*
X77544421Y-78951000D01*
X77455579Y-78951000D01*
X77368448Y-78933669D01*
X77286373Y-78899672D01*
X77286372Y-78899672D01*
X77286371Y-78899671D01*
X77249187Y-78874825D01*
X77212505Y-78850315D01*
X77149685Y-78787495D01*
X77100328Y-78713627D01*
X77066331Y-78631552D01*
X77049000Y-78544421D01*
X77049000Y-78455579D01*
X77066331Y-78368448D01*
X77100328Y-78286373D01*
X77149685Y-78212505D01*
X77212505Y-78149685D01*
X77249187Y-78125175D01*
X77286371Y-78100329D01*
X77286373Y-78100328D01*
X77368448Y-78066331D01*
X77455579Y-78049000D01*
X77544421Y-78049000D01*
X77631552Y-78066331D01*
G37*
G36*
X75131552Y-78066331D02*
G01*
X75213627Y-78100328D01*
X75213629Y-78100329D01*
X75250813Y-78125175D01*
X75287495Y-78149685D01*
X75350315Y-78212505D01*
X75399672Y-78286373D01*
X75433669Y-78368448D01*
X75451000Y-78455579D01*
X75451000Y-78544421D01*
X75433669Y-78631552D01*
X75399672Y-78713627D01*
X75350315Y-78787495D01*
X75287495Y-78850315D01*
X75250813Y-78874825D01*
X75213629Y-78899671D01*
X75213628Y-78899672D01*
X75213627Y-78899672D01*
X75131552Y-78933669D01*
X75044421Y-78951000D01*
X74955579Y-78951000D01*
X74868448Y-78933669D01*
X74786373Y-78899672D01*
X74786372Y-78899672D01*
X74786371Y-78899671D01*
X74749187Y-78874825D01*
X74712505Y-78850315D01*
X74649685Y-78787495D01*
X74600328Y-78713627D01*
X74566331Y-78631552D01*
X74549000Y-78544421D01*
X74549000Y-78455579D01*
X74566331Y-78368448D01*
X74600328Y-78286373D01*
X74649685Y-78212505D01*
X74712505Y-78149685D01*
X74749187Y-78125175D01*
X74786371Y-78100329D01*
X74786373Y-78100328D01*
X74868448Y-78066331D01*
X74955579Y-78049000D01*
X75044421Y-78049000D01*
X75131552Y-78066331D01*
G37*
G36*
X55131552Y-78066331D02*
G01*
X55213627Y-78100328D01*
X55213629Y-78100329D01*
X55250813Y-78125175D01*
X55287495Y-78149685D01*
X55350315Y-78212505D01*
X55399672Y-78286373D01*
X55433669Y-78368448D01*
X55451000Y-78455579D01*
X55451000Y-78544421D01*
X55433669Y-78631552D01*
X55399672Y-78713627D01*
X55350315Y-78787495D01*
X55287495Y-78850315D01*
X55250813Y-78874825D01*
X55213629Y-78899671D01*
X55213628Y-78899672D01*
X55213627Y-78899672D01*
X55131552Y-78933669D01*
X55044421Y-78951000D01*
X54955579Y-78951000D01*
X54868448Y-78933669D01*
X54786373Y-78899672D01*
X54786372Y-78899672D01*
X54786371Y-78899671D01*
X54749187Y-78874825D01*
X54712505Y-78850315D01*
X54649685Y-78787495D01*
X54600328Y-78713627D01*
X54566331Y-78631552D01*
X54549000Y-78544421D01*
X54549000Y-78455579D01*
X54566331Y-78368448D01*
X54600328Y-78286373D01*
X54649685Y-78212505D01*
X54712505Y-78149685D01*
X54749187Y-78125175D01*
X54786371Y-78100329D01*
X54786373Y-78100328D01*
X54868448Y-78066331D01*
X54955579Y-78049000D01*
X55044421Y-78049000D01*
X55131552Y-78066331D01*
G37*
G36*
X57631552Y-78066331D02*
G01*
X57713627Y-78100328D01*
X57713629Y-78100329D01*
X57750813Y-78125175D01*
X57787495Y-78149685D01*
X57850315Y-78212505D01*
X57899672Y-78286373D01*
X57933669Y-78368448D01*
X57951000Y-78455579D01*
X57951000Y-78544421D01*
X57933669Y-78631552D01*
X57899672Y-78713627D01*
X57850315Y-78787495D01*
X57787495Y-78850315D01*
X57750813Y-78874825D01*
X57713629Y-78899671D01*
X57713628Y-78899672D01*
X57713627Y-78899672D01*
X57631552Y-78933669D01*
X57544421Y-78951000D01*
X57455579Y-78951000D01*
X57368448Y-78933669D01*
X57286373Y-78899672D01*
X57286372Y-78899672D01*
X57286371Y-78899671D01*
X57249187Y-78874825D01*
X57212505Y-78850315D01*
X57149685Y-78787495D01*
X57100328Y-78713627D01*
X57066331Y-78631552D01*
X57049000Y-78544421D01*
X57049000Y-78455579D01*
X57066331Y-78368448D01*
X57100328Y-78286373D01*
X57149685Y-78212505D01*
X57212505Y-78149685D01*
X57249187Y-78125175D01*
X57286371Y-78100329D01*
X57286373Y-78100328D01*
X57368448Y-78066331D01*
X57455579Y-78049000D01*
X57544421Y-78049000D01*
X57631552Y-78066331D01*
G37*
G36*
X62631552Y-78066331D02*
G01*
X62713627Y-78100328D01*
X62713629Y-78100329D01*
X62750813Y-78125175D01*
X62787495Y-78149685D01*
X62850315Y-78212505D01*
X62899672Y-78286373D01*
X62933669Y-78368448D01*
X62951000Y-78455579D01*
X62951000Y-78544421D01*
X62933669Y-78631552D01*
X62899672Y-78713627D01*
X62850315Y-78787495D01*
X62787495Y-78850315D01*
X62750813Y-78874825D01*
X62713629Y-78899671D01*
X62713628Y-78899672D01*
X62713627Y-78899672D01*
X62631552Y-78933669D01*
X62544421Y-78951000D01*
X62455579Y-78951000D01*
X62368448Y-78933669D01*
X62286373Y-78899672D01*
X62286372Y-78899672D01*
X62286371Y-78899671D01*
X62249187Y-78874825D01*
X62212505Y-78850315D01*
X62149685Y-78787495D01*
X62100328Y-78713627D01*
X62066331Y-78631552D01*
X62049000Y-78544421D01*
X62049000Y-78455579D01*
X62066331Y-78368448D01*
X62100328Y-78286373D01*
X62149685Y-78212505D01*
X62212505Y-78149685D01*
X62249187Y-78125175D01*
X62286371Y-78100329D01*
X62286373Y-78100328D01*
X62368448Y-78066331D01*
X62455579Y-78049000D01*
X62544421Y-78049000D01*
X62631552Y-78066331D01*
G37*
G36*
X65131552Y-78066331D02*
G01*
X65213627Y-78100328D01*
X65213629Y-78100329D01*
X65250813Y-78125175D01*
X65287495Y-78149685D01*
X65350315Y-78212505D01*
X65399672Y-78286373D01*
X65433669Y-78368448D01*
X65451000Y-78455579D01*
X65451000Y-78544421D01*
X65433669Y-78631552D01*
X65399672Y-78713627D01*
X65350315Y-78787495D01*
X65287495Y-78850315D01*
X65250813Y-78874825D01*
X65213629Y-78899671D01*
X65213628Y-78899672D01*
X65213627Y-78899672D01*
X65131552Y-78933669D01*
X65044421Y-78951000D01*
X64955579Y-78951000D01*
X64868448Y-78933669D01*
X64786373Y-78899672D01*
X64786372Y-78899672D01*
X64786371Y-78899671D01*
X64749187Y-78874825D01*
X64712505Y-78850315D01*
X64649685Y-78787495D01*
X64600328Y-78713627D01*
X64566331Y-78631552D01*
X64549000Y-78544421D01*
X64549000Y-78455579D01*
X64566331Y-78368448D01*
X64600328Y-78286373D01*
X64649685Y-78212505D01*
X64712505Y-78149685D01*
X64749187Y-78125175D01*
X64786371Y-78100329D01*
X64786373Y-78100328D01*
X64868448Y-78066331D01*
X64955579Y-78049000D01*
X65044421Y-78049000D01*
X65131552Y-78066331D01*
G37*
G36*
X50131552Y-78066331D02*
G01*
X50213627Y-78100328D01*
X50213629Y-78100329D01*
X50250813Y-78125175D01*
X50287495Y-78149685D01*
X50350315Y-78212505D01*
X50399672Y-78286373D01*
X50433669Y-78368448D01*
X50451000Y-78455579D01*
X50451000Y-78544421D01*
X50433669Y-78631552D01*
X50399672Y-78713627D01*
X50350315Y-78787495D01*
X50287495Y-78850315D01*
X50250813Y-78874825D01*
X50213629Y-78899671D01*
X50213628Y-78899672D01*
X50213627Y-78899672D01*
X50131552Y-78933669D01*
X50044421Y-78951000D01*
X49955579Y-78951000D01*
X49868448Y-78933669D01*
X49786373Y-78899672D01*
X49786372Y-78899672D01*
X49786371Y-78899671D01*
X49749187Y-78874825D01*
X49712505Y-78850315D01*
X49649685Y-78787495D01*
X49600328Y-78713627D01*
X49566331Y-78631552D01*
X49549000Y-78544421D01*
X49549000Y-78455579D01*
X49566331Y-78368448D01*
X49600328Y-78286373D01*
X49649685Y-78212505D01*
X49712505Y-78149685D01*
X49749187Y-78125175D01*
X49786371Y-78100329D01*
X49786373Y-78100328D01*
X49868448Y-78066331D01*
X49955579Y-78049000D01*
X50044421Y-78049000D01*
X50131552Y-78066331D01*
G37*
G36*
X52631552Y-78066331D02*
G01*
X52713627Y-78100328D01*
X52713629Y-78100329D01*
X52750813Y-78125175D01*
X52787495Y-78149685D01*
X52850315Y-78212505D01*
X52899672Y-78286373D01*
X52933669Y-78368448D01*
X52951000Y-78455579D01*
X52951000Y-78544421D01*
X52933669Y-78631552D01*
X52899672Y-78713627D01*
X52850315Y-78787495D01*
X52787495Y-78850315D01*
X52750813Y-78874825D01*
X52713629Y-78899671D01*
X52713628Y-78899672D01*
X52713627Y-78899672D01*
X52631552Y-78933669D01*
X52544421Y-78951000D01*
X52455579Y-78951000D01*
X52368448Y-78933669D01*
X52286373Y-78899672D01*
X52286372Y-78899672D01*
X52286371Y-78899671D01*
X52249187Y-78874825D01*
X52212505Y-78850315D01*
X52149685Y-78787495D01*
X52100328Y-78713627D01*
X52066331Y-78631552D01*
X52049000Y-78544421D01*
X52049000Y-78455579D01*
X52066331Y-78368448D01*
X52100328Y-78286373D01*
X52149685Y-78212505D01*
X52212505Y-78149685D01*
X52249187Y-78125175D01*
X52286371Y-78100329D01*
X52286373Y-78100328D01*
X52368448Y-78066331D01*
X52455579Y-78049000D01*
X52544421Y-78049000D01*
X52631552Y-78066331D01*
G37*
G36*
X32631552Y-78066331D02*
G01*
X32713627Y-78100328D01*
X32713629Y-78100329D01*
X32750813Y-78125175D01*
X32787495Y-78149685D01*
X32850315Y-78212505D01*
X32899672Y-78286373D01*
X32933669Y-78368448D01*
X32951000Y-78455579D01*
X32951000Y-78544421D01*
X32933669Y-78631552D01*
X32899672Y-78713627D01*
X32850315Y-78787495D01*
X32787495Y-78850315D01*
X32750813Y-78874825D01*
X32713629Y-78899671D01*
X32713628Y-78899672D01*
X32713627Y-78899672D01*
X32631552Y-78933669D01*
X32544421Y-78951000D01*
X32455579Y-78951000D01*
X32368448Y-78933669D01*
X32286373Y-78899672D01*
X32286372Y-78899672D01*
X32286371Y-78899671D01*
X32249187Y-78874825D01*
X32212505Y-78850315D01*
X32149685Y-78787495D01*
X32100328Y-78713627D01*
X32066331Y-78631552D01*
X32049000Y-78544421D01*
X32049000Y-78455579D01*
X32066331Y-78368448D01*
X32100328Y-78286373D01*
X32149685Y-78212505D01*
X32212505Y-78149685D01*
X32249187Y-78125175D01*
X32286371Y-78100329D01*
X32286373Y-78100328D01*
X32368448Y-78066331D01*
X32455579Y-78049000D01*
X32544421Y-78049000D01*
X32631552Y-78066331D01*
G37*
G36*
X42631552Y-78066331D02*
G01*
X42713627Y-78100328D01*
X42713629Y-78100329D01*
X42750813Y-78125175D01*
X42787495Y-78149685D01*
X42850315Y-78212505D01*
X42899672Y-78286373D01*
X42933669Y-78368448D01*
X42951000Y-78455579D01*
X42951000Y-78544421D01*
X42933669Y-78631552D01*
X42899672Y-78713627D01*
X42850315Y-78787495D01*
X42787495Y-78850315D01*
X42750813Y-78874825D01*
X42713629Y-78899671D01*
X42713628Y-78899672D01*
X42713627Y-78899672D01*
X42631552Y-78933669D01*
X42544421Y-78951000D01*
X42455579Y-78951000D01*
X42368448Y-78933669D01*
X42286373Y-78899672D01*
X42286372Y-78899672D01*
X42286371Y-78899671D01*
X42249187Y-78874825D01*
X42212505Y-78850315D01*
X42149685Y-78787495D01*
X42100328Y-78713627D01*
X42066331Y-78631552D01*
X42049000Y-78544421D01*
X42049000Y-78455579D01*
X42066331Y-78368448D01*
X42100328Y-78286373D01*
X42149685Y-78212505D01*
X42212505Y-78149685D01*
X42249187Y-78125175D01*
X42286371Y-78100329D01*
X42286373Y-78100328D01*
X42368448Y-78066331D01*
X42455579Y-78049000D01*
X42544421Y-78049000D01*
X42631552Y-78066331D01*
G37*
G36*
X27631552Y-78066331D02*
G01*
X27713627Y-78100328D01*
X27713629Y-78100329D01*
X27750813Y-78125175D01*
X27787495Y-78149685D01*
X27850315Y-78212505D01*
X27899672Y-78286373D01*
X27933669Y-78368448D01*
X27951000Y-78455579D01*
X27951000Y-78544421D01*
X27933669Y-78631552D01*
X27899672Y-78713627D01*
X27850315Y-78787495D01*
X27787495Y-78850315D01*
X27750813Y-78874825D01*
X27713629Y-78899671D01*
X27713628Y-78899672D01*
X27713627Y-78899672D01*
X27631552Y-78933669D01*
X27544421Y-78951000D01*
X27455579Y-78951000D01*
X27368448Y-78933669D01*
X27286373Y-78899672D01*
X27286372Y-78899672D01*
X27286371Y-78899671D01*
X27249187Y-78874825D01*
X27212505Y-78850315D01*
X27149685Y-78787495D01*
X27100328Y-78713627D01*
X27066331Y-78631552D01*
X27049000Y-78544421D01*
X27049000Y-78455579D01*
X27066331Y-78368448D01*
X27100328Y-78286373D01*
X27149685Y-78212505D01*
X27212505Y-78149685D01*
X27249187Y-78125175D01*
X27286371Y-78100329D01*
X27286373Y-78100328D01*
X27368448Y-78066331D01*
X27455579Y-78049000D01*
X27544421Y-78049000D01*
X27631552Y-78066331D01*
G37*
G36*
X90131552Y-78066331D02*
G01*
X90213627Y-78100328D01*
X90213629Y-78100329D01*
X90250813Y-78125175D01*
X90287495Y-78149685D01*
X90350315Y-78212505D01*
X90399672Y-78286373D01*
X90433669Y-78368448D01*
X90451000Y-78455579D01*
X90451000Y-78544421D01*
X90433669Y-78631552D01*
X90399672Y-78713627D01*
X90350315Y-78787495D01*
X90287495Y-78850315D01*
X90250813Y-78874825D01*
X90213629Y-78899671D01*
X90213628Y-78899672D01*
X90213627Y-78899672D01*
X90131552Y-78933669D01*
X90044421Y-78951000D01*
X89955579Y-78951000D01*
X89868448Y-78933669D01*
X89786373Y-78899672D01*
X89786372Y-78899672D01*
X89786371Y-78899671D01*
X89749187Y-78874825D01*
X89712505Y-78850315D01*
X89649685Y-78787495D01*
X89600328Y-78713627D01*
X89566331Y-78631552D01*
X89549000Y-78544421D01*
X89549000Y-78455579D01*
X89566331Y-78368448D01*
X89600328Y-78286373D01*
X89649685Y-78212505D01*
X89712505Y-78149685D01*
X89749187Y-78125175D01*
X89786371Y-78100329D01*
X89786373Y-78100328D01*
X89868448Y-78066331D01*
X89955579Y-78049000D01*
X90044421Y-78049000D01*
X90131552Y-78066331D01*
G37*
G36*
X105131552Y-78066331D02*
G01*
X105213627Y-78100328D01*
X105213629Y-78100329D01*
X105250813Y-78125175D01*
X105287495Y-78149685D01*
X105350315Y-78212505D01*
X105399672Y-78286373D01*
X105433669Y-78368448D01*
X105451000Y-78455579D01*
X105451000Y-78544421D01*
X105433669Y-78631552D01*
X105399672Y-78713627D01*
X105350315Y-78787495D01*
X105287495Y-78850315D01*
X105250813Y-78874825D01*
X105213629Y-78899671D01*
X105213628Y-78899672D01*
X105213627Y-78899672D01*
X105131552Y-78933669D01*
X105044421Y-78951000D01*
X104955579Y-78951000D01*
X104868448Y-78933669D01*
X104786373Y-78899672D01*
X104786372Y-78899672D01*
X104786371Y-78899671D01*
X104749187Y-78874825D01*
X104712505Y-78850315D01*
X104649685Y-78787495D01*
X104600328Y-78713627D01*
X104566331Y-78631552D01*
X104549000Y-78544421D01*
X104549000Y-78455579D01*
X104566331Y-78368448D01*
X104600328Y-78286373D01*
X104649685Y-78212505D01*
X104712505Y-78149685D01*
X104749187Y-78125175D01*
X104786371Y-78100329D01*
X104786373Y-78100328D01*
X104868448Y-78066331D01*
X104955579Y-78049000D01*
X105044421Y-78049000D01*
X105131552Y-78066331D01*
G37*
G36*
X37631552Y-78066331D02*
G01*
X37713627Y-78100328D01*
X37713629Y-78100329D01*
X37750813Y-78125175D01*
X37787495Y-78149685D01*
X37850315Y-78212505D01*
X37899672Y-78286373D01*
X37933669Y-78368448D01*
X37951000Y-78455579D01*
X37951000Y-78544421D01*
X37933669Y-78631552D01*
X37899672Y-78713627D01*
X37850315Y-78787495D01*
X37787495Y-78850315D01*
X37750813Y-78874825D01*
X37713629Y-78899671D01*
X37713628Y-78899672D01*
X37713627Y-78899672D01*
X37631552Y-78933669D01*
X37544421Y-78951000D01*
X37455579Y-78951000D01*
X37368448Y-78933669D01*
X37286373Y-78899672D01*
X37286372Y-78899672D01*
X37286371Y-78899671D01*
X37249187Y-78874825D01*
X37212505Y-78850315D01*
X37149685Y-78787495D01*
X37100328Y-78713627D01*
X37066331Y-78631552D01*
X37049000Y-78544421D01*
X37049000Y-78455579D01*
X37066331Y-78368448D01*
X37100328Y-78286373D01*
X37149685Y-78212505D01*
X37212505Y-78149685D01*
X37249187Y-78125175D01*
X37286371Y-78100329D01*
X37286373Y-78100328D01*
X37368448Y-78066331D01*
X37455579Y-78049000D01*
X37544421Y-78049000D01*
X37631552Y-78066331D01*
G37*
G36*
X60131552Y-78066331D02*
G01*
X60213627Y-78100328D01*
X60213629Y-78100329D01*
X60250813Y-78125175D01*
X60287495Y-78149685D01*
X60350315Y-78212505D01*
X60399672Y-78286373D01*
X60433669Y-78368448D01*
X60451000Y-78455579D01*
X60451000Y-78544421D01*
X60433669Y-78631552D01*
X60399672Y-78713627D01*
X60350315Y-78787495D01*
X60287495Y-78850315D01*
X60250813Y-78874825D01*
X60213629Y-78899671D01*
X60213628Y-78899672D01*
X60213627Y-78899672D01*
X60131552Y-78933669D01*
X60044421Y-78951000D01*
X59955579Y-78951000D01*
X59868448Y-78933669D01*
X59786373Y-78899672D01*
X59786372Y-78899672D01*
X59786371Y-78899671D01*
X59749187Y-78874825D01*
X59712505Y-78850315D01*
X59649685Y-78787495D01*
X59600328Y-78713627D01*
X59566331Y-78631552D01*
X59549000Y-78544421D01*
X59549000Y-78455579D01*
X59566331Y-78368448D01*
X59600328Y-78286373D01*
X59649685Y-78212505D01*
X59712505Y-78149685D01*
X59749187Y-78125175D01*
X59786371Y-78100329D01*
X59786373Y-78100328D01*
X59868448Y-78066331D01*
X59955579Y-78049000D01*
X60044421Y-78049000D01*
X60131552Y-78066331D01*
G37*
G36*
X45131552Y-78066331D02*
G01*
X45213627Y-78100328D01*
X45213629Y-78100329D01*
X45250813Y-78125175D01*
X45287495Y-78149685D01*
X45350315Y-78212505D01*
X45399672Y-78286373D01*
X45433669Y-78368448D01*
X45451000Y-78455579D01*
X45451000Y-78544421D01*
X45433669Y-78631552D01*
X45399672Y-78713627D01*
X45350315Y-78787495D01*
X45287495Y-78850315D01*
X45250813Y-78874825D01*
X45213629Y-78899671D01*
X45213628Y-78899672D01*
X45213627Y-78899672D01*
X45131552Y-78933669D01*
X45044421Y-78951000D01*
X44955579Y-78951000D01*
X44868448Y-78933669D01*
X44786373Y-78899672D01*
X44786372Y-78899672D01*
X44786371Y-78899671D01*
X44749187Y-78874825D01*
X44712505Y-78850315D01*
X44649685Y-78787495D01*
X44600328Y-78713627D01*
X44566331Y-78631552D01*
X44549000Y-78544421D01*
X44549000Y-78455579D01*
X44566331Y-78368448D01*
X44600328Y-78286373D01*
X44649685Y-78212505D01*
X44712505Y-78149685D01*
X44749187Y-78125175D01*
X44786371Y-78100329D01*
X44786373Y-78100328D01*
X44868448Y-78066331D01*
X44955579Y-78049000D01*
X45044421Y-78049000D01*
X45131552Y-78066331D01*
G37*
G36*
X35131552Y-78066331D02*
G01*
X35213627Y-78100328D01*
X35213629Y-78100329D01*
X35250813Y-78125175D01*
X35287495Y-78149685D01*
X35350315Y-78212505D01*
X35399672Y-78286373D01*
X35433669Y-78368448D01*
X35451000Y-78455579D01*
X35451000Y-78544421D01*
X35433669Y-78631552D01*
X35399672Y-78713627D01*
X35350315Y-78787495D01*
X35287495Y-78850315D01*
X35250813Y-78874825D01*
X35213629Y-78899671D01*
X35213628Y-78899672D01*
X35213627Y-78899672D01*
X35131552Y-78933669D01*
X35044421Y-78951000D01*
X34955579Y-78951000D01*
X34868448Y-78933669D01*
X34786373Y-78899672D01*
X34786372Y-78899672D01*
X34786371Y-78899671D01*
X34749187Y-78874825D01*
X34712505Y-78850315D01*
X34649685Y-78787495D01*
X34600328Y-78713627D01*
X34566331Y-78631552D01*
X34549000Y-78544421D01*
X34549000Y-78455579D01*
X34566331Y-78368448D01*
X34600328Y-78286373D01*
X34649685Y-78212505D01*
X34712505Y-78149685D01*
X34749187Y-78125175D01*
X34786371Y-78100329D01*
X34786373Y-78100328D01*
X34868448Y-78066331D01*
X34955579Y-78049000D01*
X35044421Y-78049000D01*
X35131552Y-78066331D01*
G37*
G36*
X40131552Y-78066331D02*
G01*
X40213627Y-78100328D01*
X40213629Y-78100329D01*
X40250813Y-78125175D01*
X40287495Y-78149685D01*
X40350315Y-78212505D01*
X40399672Y-78286373D01*
X40433669Y-78368448D01*
X40451000Y-78455579D01*
X40451000Y-78544421D01*
X40433669Y-78631552D01*
X40399672Y-78713627D01*
X40350315Y-78787495D01*
X40287495Y-78850315D01*
X40250813Y-78874825D01*
X40213629Y-78899671D01*
X40213628Y-78899672D01*
X40213627Y-78899672D01*
X40131552Y-78933669D01*
X40044421Y-78951000D01*
X39955579Y-78951000D01*
X39868448Y-78933669D01*
X39786373Y-78899672D01*
X39786372Y-78899672D01*
X39786371Y-78899671D01*
X39749187Y-78874825D01*
X39712505Y-78850315D01*
X39649685Y-78787495D01*
X39600328Y-78713627D01*
X39566331Y-78631552D01*
X39549000Y-78544421D01*
X39549000Y-78455579D01*
X39566331Y-78368448D01*
X39600328Y-78286373D01*
X39649685Y-78212505D01*
X39712505Y-78149685D01*
X39749187Y-78125175D01*
X39786371Y-78100329D01*
X39786373Y-78100328D01*
X39868448Y-78066331D01*
X39955579Y-78049000D01*
X40044421Y-78049000D01*
X40131552Y-78066331D01*
G37*
G36*
X47631552Y-78066331D02*
G01*
X47713627Y-78100328D01*
X47713629Y-78100329D01*
X47750813Y-78125175D01*
X47787495Y-78149685D01*
X47850315Y-78212505D01*
X47899672Y-78286373D01*
X47933669Y-78368448D01*
X47951000Y-78455579D01*
X47951000Y-78544421D01*
X47933669Y-78631552D01*
X47899672Y-78713627D01*
X47850315Y-78787495D01*
X47787495Y-78850315D01*
X47750813Y-78874825D01*
X47713629Y-78899671D01*
X47713628Y-78899672D01*
X47713627Y-78899672D01*
X47631552Y-78933669D01*
X47544421Y-78951000D01*
X47455579Y-78951000D01*
X47368448Y-78933669D01*
X47286373Y-78899672D01*
X47286372Y-78899672D01*
X47286371Y-78899671D01*
X47249187Y-78874825D01*
X47212505Y-78850315D01*
X47149685Y-78787495D01*
X47100328Y-78713627D01*
X47066331Y-78631552D01*
X47049000Y-78544421D01*
X47049000Y-78455579D01*
X47066331Y-78368448D01*
X47100328Y-78286373D01*
X47149685Y-78212505D01*
X47212505Y-78149685D01*
X47249187Y-78125175D01*
X47286371Y-78100329D01*
X47286373Y-78100328D01*
X47368448Y-78066331D01*
X47455579Y-78049000D01*
X47544421Y-78049000D01*
X47631552Y-78066331D01*
G37*
G36*
X110131552Y-78066331D02*
G01*
X110213627Y-78100328D01*
X110213629Y-78100329D01*
X110250813Y-78125175D01*
X110287495Y-78149685D01*
X110350315Y-78212505D01*
X110399672Y-78286373D01*
X110433669Y-78368448D01*
X110451000Y-78455579D01*
X110451000Y-78544421D01*
X110433669Y-78631552D01*
X110399672Y-78713627D01*
X110350315Y-78787495D01*
X110287495Y-78850315D01*
X110250813Y-78874825D01*
X110213629Y-78899671D01*
X110213628Y-78899672D01*
X110213627Y-78899672D01*
X110131552Y-78933669D01*
X110044421Y-78951000D01*
X109955579Y-78951000D01*
X109868448Y-78933669D01*
X109786373Y-78899672D01*
X109786372Y-78899672D01*
X109786371Y-78899671D01*
X109749187Y-78874825D01*
X109712505Y-78850315D01*
X109649685Y-78787495D01*
X109600328Y-78713627D01*
X109566331Y-78631552D01*
X109549000Y-78544421D01*
X109549000Y-78455579D01*
X109566331Y-78368448D01*
X109600328Y-78286373D01*
X109649685Y-78212505D01*
X109712505Y-78149685D01*
X109749187Y-78125175D01*
X109786371Y-78100329D01*
X109786373Y-78100328D01*
X109868448Y-78066331D01*
X109955579Y-78049000D01*
X110044421Y-78049000D01*
X110131552Y-78066331D01*
G37*
G36*
X100131552Y-78066331D02*
G01*
X100213627Y-78100328D01*
X100213629Y-78100329D01*
X100250813Y-78125175D01*
X100287495Y-78149685D01*
X100350315Y-78212505D01*
X100399672Y-78286373D01*
X100433669Y-78368448D01*
X100451000Y-78455579D01*
X100451000Y-78544421D01*
X100433669Y-78631552D01*
X100399672Y-78713627D01*
X100350315Y-78787495D01*
X100287495Y-78850315D01*
X100250813Y-78874825D01*
X100213629Y-78899671D01*
X100213628Y-78899672D01*
X100213627Y-78899672D01*
X100131552Y-78933669D01*
X100044421Y-78951000D01*
X99955579Y-78951000D01*
X99868448Y-78933669D01*
X99786373Y-78899672D01*
X99786372Y-78899672D01*
X99786371Y-78899671D01*
X99749187Y-78874825D01*
X99712505Y-78850315D01*
X99649685Y-78787495D01*
X99600328Y-78713627D01*
X99566331Y-78631552D01*
X99549000Y-78544421D01*
X99549000Y-78455579D01*
X99566331Y-78368448D01*
X99600328Y-78286373D01*
X99649685Y-78212505D01*
X99712505Y-78149685D01*
X99749187Y-78125175D01*
X99786371Y-78100329D01*
X99786373Y-78100328D01*
X99868448Y-78066331D01*
X99955579Y-78049000D01*
X100044421Y-78049000D01*
X100131552Y-78066331D01*
G37*
G36*
X97631552Y-78066331D02*
G01*
X97713627Y-78100328D01*
X97713629Y-78100329D01*
X97750813Y-78125175D01*
X97787495Y-78149685D01*
X97850315Y-78212505D01*
X97899672Y-78286373D01*
X97933669Y-78368448D01*
X97951000Y-78455579D01*
X97951000Y-78544421D01*
X97933669Y-78631552D01*
X97899672Y-78713627D01*
X97850315Y-78787495D01*
X97787495Y-78850315D01*
X97750813Y-78874825D01*
X97713629Y-78899671D01*
X97713628Y-78899672D01*
X97713627Y-78899672D01*
X97631552Y-78933669D01*
X97544421Y-78951000D01*
X97455579Y-78951000D01*
X97368448Y-78933669D01*
X97286373Y-78899672D01*
X97286372Y-78899672D01*
X97286371Y-78899671D01*
X97249187Y-78874825D01*
X97212505Y-78850315D01*
X97149685Y-78787495D01*
X97100328Y-78713627D01*
X97066331Y-78631552D01*
X97049000Y-78544421D01*
X97049000Y-78455579D01*
X97066331Y-78368448D01*
X97100328Y-78286373D01*
X97149685Y-78212505D01*
X97212505Y-78149685D01*
X97249187Y-78125175D01*
X97286371Y-78100329D01*
X97286373Y-78100328D01*
X97368448Y-78066331D01*
X97455579Y-78049000D01*
X97544421Y-78049000D01*
X97631552Y-78066331D01*
G37*
G36*
X112631552Y-78066331D02*
G01*
X112713627Y-78100328D01*
X112713629Y-78100329D01*
X112750813Y-78125175D01*
X112787495Y-78149685D01*
X112850315Y-78212505D01*
X112899672Y-78286373D01*
X112933669Y-78368448D01*
X112951000Y-78455579D01*
X112951000Y-78544421D01*
X112933669Y-78631552D01*
X112899672Y-78713627D01*
X112850315Y-78787495D01*
X112787495Y-78850315D01*
X112750813Y-78874825D01*
X112713629Y-78899671D01*
X112713628Y-78899672D01*
X112713627Y-78899672D01*
X112631552Y-78933669D01*
X112544421Y-78951000D01*
X112455579Y-78951000D01*
X112368448Y-78933669D01*
X112286373Y-78899672D01*
X112286372Y-78899672D01*
X112286371Y-78899671D01*
X112249187Y-78874825D01*
X112212505Y-78850315D01*
X112149685Y-78787495D01*
X112100328Y-78713627D01*
X112066331Y-78631552D01*
X112049000Y-78544421D01*
X112049000Y-78455579D01*
X112066331Y-78368448D01*
X112100328Y-78286373D01*
X112149685Y-78212505D01*
X112212505Y-78149685D01*
X112249187Y-78125175D01*
X112286371Y-78100329D01*
X112286373Y-78100328D01*
X112368448Y-78066331D01*
X112455579Y-78049000D01*
X112544421Y-78049000D01*
X112631552Y-78066331D01*
G37*
G36*
X102631552Y-78066331D02*
G01*
X102713627Y-78100328D01*
X102713629Y-78100329D01*
X102750813Y-78125175D01*
X102787495Y-78149685D01*
X102850315Y-78212505D01*
X102899672Y-78286373D01*
X102933669Y-78368448D01*
X102951000Y-78455579D01*
X102951000Y-78544421D01*
X102933669Y-78631552D01*
X102899672Y-78713627D01*
X102850315Y-78787495D01*
X102787495Y-78850315D01*
X102750813Y-78874825D01*
X102713629Y-78899671D01*
X102713628Y-78899672D01*
X102713627Y-78899672D01*
X102631552Y-78933669D01*
X102544421Y-78951000D01*
X102455579Y-78951000D01*
X102368448Y-78933669D01*
X102286373Y-78899672D01*
X102286372Y-78899672D01*
X102286371Y-78899671D01*
X102249187Y-78874825D01*
X102212505Y-78850315D01*
X102149685Y-78787495D01*
X102100328Y-78713627D01*
X102066331Y-78631552D01*
X102049000Y-78544421D01*
X102049000Y-78455579D01*
X102066331Y-78368448D01*
X102100328Y-78286373D01*
X102149685Y-78212505D01*
X102212505Y-78149685D01*
X102249187Y-78125175D01*
X102286371Y-78100329D01*
X102286373Y-78100328D01*
X102368448Y-78066331D01*
X102455579Y-78049000D01*
X102544421Y-78049000D01*
X102631552Y-78066331D01*
G37*
G36*
X95131552Y-78066331D02*
G01*
X95213627Y-78100328D01*
X95213629Y-78100329D01*
X95250813Y-78125175D01*
X95287495Y-78149685D01*
X95350315Y-78212505D01*
X95399672Y-78286373D01*
X95433669Y-78368448D01*
X95451000Y-78455579D01*
X95451000Y-78544421D01*
X95433669Y-78631552D01*
X95399672Y-78713627D01*
X95350315Y-78787495D01*
X95287495Y-78850315D01*
X95250813Y-78874825D01*
X95213629Y-78899671D01*
X95213628Y-78899672D01*
X95213627Y-78899672D01*
X95131552Y-78933669D01*
X95044421Y-78951000D01*
X94955579Y-78951000D01*
X94868448Y-78933669D01*
X94786373Y-78899672D01*
X94786372Y-78899672D01*
X94786371Y-78899671D01*
X94749187Y-78874825D01*
X94712505Y-78850315D01*
X94649685Y-78787495D01*
X94600328Y-78713627D01*
X94566331Y-78631552D01*
X94549000Y-78544421D01*
X94549000Y-78455579D01*
X94566331Y-78368448D01*
X94600328Y-78286373D01*
X94649685Y-78212505D01*
X94712505Y-78149685D01*
X94749187Y-78125175D01*
X94786371Y-78100329D01*
X94786373Y-78100328D01*
X94868448Y-78066331D01*
X94955579Y-78049000D01*
X95044421Y-78049000D01*
X95131552Y-78066331D01*
G37*
G36*
X107631552Y-78066331D02*
G01*
X107713627Y-78100328D01*
X107713629Y-78100329D01*
X107750813Y-78125175D01*
X107787495Y-78149685D01*
X107850315Y-78212505D01*
X107899672Y-78286373D01*
X107933669Y-78368448D01*
X107951000Y-78455579D01*
X107951000Y-78544421D01*
X107933669Y-78631552D01*
X107899672Y-78713627D01*
X107850315Y-78787495D01*
X107787495Y-78850315D01*
X107750813Y-78874825D01*
X107713629Y-78899671D01*
X107713628Y-78899672D01*
X107713627Y-78899672D01*
X107631552Y-78933669D01*
X107544421Y-78951000D01*
X107455579Y-78951000D01*
X107368448Y-78933669D01*
X107286373Y-78899672D01*
X107286372Y-78899672D01*
X107286371Y-78899671D01*
X107249187Y-78874825D01*
X107212505Y-78850315D01*
X107149685Y-78787495D01*
X107100328Y-78713627D01*
X107066331Y-78631552D01*
X107049000Y-78544421D01*
X107049000Y-78455579D01*
X107066331Y-78368448D01*
X107100328Y-78286373D01*
X107149685Y-78212505D01*
X107212505Y-78149685D01*
X107249187Y-78125175D01*
X107286371Y-78100329D01*
X107286373Y-78100328D01*
X107368448Y-78066331D01*
X107455579Y-78049000D01*
X107544421Y-78049000D01*
X107631552Y-78066331D01*
G37*
G36*
X21631552Y-72066331D02*
G01*
X21713627Y-72100328D01*
X21713629Y-72100329D01*
X21750813Y-72125175D01*
X21787495Y-72149685D01*
X21850315Y-72212505D01*
X21899672Y-72286373D01*
X21933669Y-72368448D01*
X21951000Y-72455579D01*
X21951000Y-72544421D01*
X21933669Y-72631552D01*
X21899672Y-72713627D01*
X21899671Y-72713629D01*
X21850314Y-72787496D01*
X21787496Y-72850314D01*
X21713629Y-72899671D01*
X21713628Y-72899672D01*
X21713627Y-72899672D01*
X21631552Y-72933669D01*
X21544421Y-72951000D01*
X21455579Y-72951000D01*
X21368448Y-72933669D01*
X21286373Y-72899672D01*
X21286372Y-72899672D01*
X21286371Y-72899671D01*
X21212504Y-72850314D01*
X21149686Y-72787496D01*
X21100329Y-72713629D01*
X21100328Y-72713627D01*
X21066331Y-72631552D01*
X21049000Y-72544421D01*
X21049000Y-72455579D01*
X21066331Y-72368448D01*
X21100328Y-72286373D01*
X21149685Y-72212505D01*
X21212505Y-72149685D01*
X21249187Y-72125175D01*
X21286371Y-72100329D01*
X21286373Y-72100328D01*
X21368448Y-72066331D01*
X21455579Y-72049000D01*
X21544421Y-72049000D01*
X21631552Y-72066331D01*
G37*
G36*
X118631552Y-72066331D02*
G01*
X118713627Y-72100328D01*
X118713629Y-72100329D01*
X118750813Y-72125175D01*
X118787495Y-72149685D01*
X118850315Y-72212505D01*
X118899672Y-72286373D01*
X118933669Y-72368448D01*
X118951000Y-72455579D01*
X118951000Y-72544421D01*
X118933669Y-72631552D01*
X118899672Y-72713627D01*
X118899671Y-72713629D01*
X118850314Y-72787496D01*
X118787496Y-72850314D01*
X118713629Y-72899671D01*
X118713628Y-72899672D01*
X118713627Y-72899672D01*
X118631552Y-72933669D01*
X118544421Y-72951000D01*
X118455579Y-72951000D01*
X118368448Y-72933669D01*
X118286373Y-72899672D01*
X118286372Y-72899672D01*
X118286371Y-72899671D01*
X118212504Y-72850314D01*
X118149686Y-72787496D01*
X118100329Y-72713629D01*
X118100328Y-72713627D01*
X118066331Y-72631552D01*
X118049000Y-72544421D01*
X118049000Y-72455579D01*
X118066331Y-72368448D01*
X118100328Y-72286373D01*
X118149685Y-72212505D01*
X118212505Y-72149685D01*
X118249187Y-72125175D01*
X118286371Y-72100329D01*
X118286373Y-72100328D01*
X118368448Y-72066331D01*
X118455579Y-72049000D01*
X118544421Y-72049000D01*
X118631552Y-72066331D01*
G37*
G36*
X87431538Y-71466331D02*
G01*
X87513613Y-71500328D01*
X87513615Y-71500329D01*
X87550799Y-71525175D01*
X87587481Y-71549685D01*
X87650301Y-71612505D01*
X87699658Y-71686373D01*
X87733655Y-71768448D01*
X87750986Y-71855579D01*
X87750986Y-71944421D01*
X87733655Y-72031552D01*
X87705166Y-72100329D01*
X87699657Y-72113629D01*
X87650300Y-72187496D01*
X87587482Y-72250314D01*
X87513615Y-72299671D01*
X87513614Y-72299672D01*
X87513613Y-72299672D01*
X87431538Y-72333669D01*
X87344407Y-72351000D01*
X87255565Y-72351000D01*
X87168434Y-72333669D01*
X87086359Y-72299672D01*
X87086358Y-72299672D01*
X87086357Y-72299671D01*
X87012490Y-72250314D01*
X86949672Y-72187496D01*
X86900315Y-72113629D01*
X86894806Y-72100329D01*
X86866317Y-72031552D01*
X86848986Y-71944421D01*
X86848986Y-71855579D01*
X86866317Y-71768448D01*
X86900314Y-71686373D01*
X86949671Y-71612505D01*
X87012491Y-71549685D01*
X87049173Y-71525175D01*
X87086357Y-71500329D01*
X87086359Y-71500328D01*
X87168434Y-71466331D01*
X87255565Y-71449000D01*
X87344407Y-71449000D01*
X87431538Y-71466331D01*
G37*
G36*
X21631552Y-69566331D02*
G01*
X21713627Y-69600328D01*
X21713629Y-69600329D01*
X21750813Y-69625175D01*
X21787495Y-69649685D01*
X21850315Y-69712505D01*
X21899672Y-69786373D01*
X21933669Y-69868448D01*
X21951000Y-69955579D01*
X21951000Y-70044421D01*
X21933669Y-70131552D01*
X21899672Y-70213627D01*
X21899671Y-70213629D01*
X21850314Y-70287496D01*
X21787496Y-70350314D01*
X21713629Y-70399671D01*
X21713628Y-70399672D01*
X21713627Y-70399672D01*
X21631552Y-70433669D01*
X21544421Y-70451000D01*
X21455579Y-70451000D01*
X21368448Y-70433669D01*
X21286373Y-70399672D01*
X21286372Y-70399672D01*
X21286371Y-70399671D01*
X21212504Y-70350314D01*
X21149686Y-70287496D01*
X21100329Y-70213629D01*
X21100328Y-70213627D01*
X21066331Y-70131552D01*
X21049000Y-70044421D01*
X21049000Y-69955579D01*
X21066331Y-69868448D01*
X21100328Y-69786373D01*
X21149685Y-69712505D01*
X21212505Y-69649685D01*
X21249187Y-69625175D01*
X21286371Y-69600329D01*
X21286373Y-69600328D01*
X21368448Y-69566331D01*
X21455579Y-69549000D01*
X21544421Y-69549000D01*
X21631552Y-69566331D01*
G37*
G36*
X118631552Y-69566331D02*
G01*
X118713627Y-69600328D01*
X118713629Y-69600329D01*
X118750813Y-69625175D01*
X118787495Y-69649685D01*
X118850315Y-69712505D01*
X118899672Y-69786373D01*
X118933669Y-69868448D01*
X118951000Y-69955579D01*
X118951000Y-70044421D01*
X118933669Y-70131552D01*
X118899672Y-70213627D01*
X118899671Y-70213629D01*
X118850314Y-70287496D01*
X118787496Y-70350314D01*
X118713629Y-70399671D01*
X118713628Y-70399672D01*
X118713627Y-70399672D01*
X118631552Y-70433669D01*
X118544421Y-70451000D01*
X118455579Y-70451000D01*
X118368448Y-70433669D01*
X118286373Y-70399672D01*
X118286372Y-70399672D01*
X118286371Y-70399671D01*
X118212504Y-70350314D01*
X118149686Y-70287496D01*
X118100329Y-70213629D01*
X118100328Y-70213627D01*
X118066331Y-70131552D01*
X118049000Y-70044421D01*
X118049000Y-69955579D01*
X118066331Y-69868448D01*
X118100328Y-69786373D01*
X118149685Y-69712505D01*
X118212505Y-69649685D01*
X118249187Y-69625175D01*
X118286371Y-69600329D01*
X118286373Y-69600328D01*
X118368448Y-69566331D01*
X118455579Y-69549000D01*
X118544421Y-69549000D01*
X118631552Y-69566331D01*
G37*
G36*
X21631552Y-67066331D02*
G01*
X21713627Y-67100328D01*
X21713629Y-67100329D01*
X21750813Y-67125175D01*
X21787495Y-67149685D01*
X21850315Y-67212505D01*
X21899672Y-67286373D01*
X21933669Y-67368448D01*
X21951000Y-67455579D01*
X21951000Y-67544421D01*
X21933669Y-67631552D01*
X21899672Y-67713627D01*
X21899671Y-67713629D01*
X21850314Y-67787496D01*
X21787496Y-67850314D01*
X21713629Y-67899671D01*
X21713628Y-67899672D01*
X21713627Y-67899672D01*
X21631552Y-67933669D01*
X21544421Y-67951000D01*
X21455579Y-67951000D01*
X21368448Y-67933669D01*
X21286373Y-67899672D01*
X21286372Y-67899672D01*
X21286371Y-67899671D01*
X21212504Y-67850314D01*
X21149686Y-67787496D01*
X21100329Y-67713629D01*
X21100328Y-67713627D01*
X21066331Y-67631552D01*
X21049000Y-67544421D01*
X21049000Y-67455579D01*
X21066331Y-67368448D01*
X21100328Y-67286373D01*
X21149685Y-67212505D01*
X21212505Y-67149685D01*
X21249187Y-67125175D01*
X21286371Y-67100329D01*
X21286373Y-67100328D01*
X21368448Y-67066331D01*
X21455579Y-67049000D01*
X21544421Y-67049000D01*
X21631552Y-67066331D01*
G37*
G36*
X118631552Y-67066331D02*
G01*
X118713627Y-67100328D01*
X118713629Y-67100329D01*
X118750813Y-67125175D01*
X118787495Y-67149685D01*
X118850315Y-67212505D01*
X118899672Y-67286373D01*
X118933669Y-67368448D01*
X118951000Y-67455579D01*
X118951000Y-67544421D01*
X118933669Y-67631552D01*
X118899672Y-67713627D01*
X118899671Y-67713629D01*
X118850314Y-67787496D01*
X118787496Y-67850314D01*
X118713629Y-67899671D01*
X118713628Y-67899672D01*
X118713627Y-67899672D01*
X118631552Y-67933669D01*
X118544421Y-67951000D01*
X118455579Y-67951000D01*
X118368448Y-67933669D01*
X118286373Y-67899672D01*
X118286372Y-67899672D01*
X118286371Y-67899671D01*
X118212504Y-67850314D01*
X118149686Y-67787496D01*
X118100329Y-67713629D01*
X118100328Y-67713627D01*
X118066331Y-67631552D01*
X118049000Y-67544421D01*
X118049000Y-67455579D01*
X118066331Y-67368448D01*
X118100328Y-67286373D01*
X118149685Y-67212505D01*
X118212505Y-67149685D01*
X118249187Y-67125175D01*
X118286371Y-67100329D01*
X118286373Y-67100328D01*
X118368448Y-67066331D01*
X118455579Y-67049000D01*
X118544421Y-67049000D01*
X118631552Y-67066331D01*
G37*
G36*
X118631552Y-64566331D02*
G01*
X118713627Y-64600328D01*
X118713629Y-64600329D01*
X118750813Y-64625175D01*
X118787495Y-64649685D01*
X118850315Y-64712505D01*
X118899672Y-64786373D01*
X118933669Y-64868448D01*
X118951000Y-64955579D01*
X118951000Y-65044421D01*
X118933669Y-65131552D01*
X118899672Y-65213627D01*
X118899671Y-65213629D01*
X118850314Y-65287496D01*
X118787496Y-65350314D01*
X118713629Y-65399671D01*
X118713628Y-65399672D01*
X118713627Y-65399672D01*
X118631552Y-65433669D01*
X118544421Y-65451000D01*
X118455579Y-65451000D01*
X118368448Y-65433669D01*
X118286373Y-65399672D01*
X118286372Y-65399672D01*
X118286371Y-65399671D01*
X118212504Y-65350314D01*
X118149686Y-65287496D01*
X118100329Y-65213629D01*
X118100328Y-65213627D01*
X118066331Y-65131552D01*
X118049000Y-65044421D01*
X118049000Y-64955579D01*
X118066331Y-64868448D01*
X118100328Y-64786373D01*
X118149685Y-64712505D01*
X118212505Y-64649685D01*
X118249187Y-64625175D01*
X118286371Y-64600329D01*
X118286373Y-64600328D01*
X118368448Y-64566331D01*
X118455579Y-64549000D01*
X118544421Y-64549000D01*
X118631552Y-64566331D01*
G37*
G36*
X21631552Y-64566331D02*
G01*
X21713627Y-64600328D01*
X21713629Y-64600329D01*
X21750813Y-64625175D01*
X21787495Y-64649685D01*
X21850315Y-64712505D01*
X21899672Y-64786373D01*
X21933669Y-64868448D01*
X21951000Y-64955579D01*
X21951000Y-65044421D01*
X21933669Y-65131552D01*
X21899672Y-65213627D01*
X21899671Y-65213629D01*
X21850314Y-65287496D01*
X21787496Y-65350314D01*
X21713629Y-65399671D01*
X21713628Y-65399672D01*
X21713627Y-65399672D01*
X21631552Y-65433669D01*
X21544421Y-65451000D01*
X21455579Y-65451000D01*
X21368448Y-65433669D01*
X21286373Y-65399672D01*
X21286372Y-65399672D01*
X21286371Y-65399671D01*
X21212504Y-65350314D01*
X21149686Y-65287496D01*
X21100329Y-65213629D01*
X21100328Y-65213627D01*
X21066331Y-65131552D01*
X21049000Y-65044421D01*
X21049000Y-64955579D01*
X21066331Y-64868448D01*
X21100328Y-64786373D01*
X21149685Y-64712505D01*
X21212505Y-64649685D01*
X21249187Y-64625175D01*
X21286371Y-64600329D01*
X21286373Y-64600328D01*
X21368448Y-64566331D01*
X21455579Y-64549000D01*
X21544421Y-64549000D01*
X21631552Y-64566331D01*
G37*
G36*
X118631552Y-62066331D02*
G01*
X118713627Y-62100328D01*
X118713629Y-62100329D01*
X118750813Y-62125175D01*
X118787495Y-62149685D01*
X118850315Y-62212505D01*
X118899672Y-62286373D01*
X118933669Y-62368448D01*
X118951000Y-62455579D01*
X118951000Y-62544421D01*
X118933669Y-62631552D01*
X118899672Y-62713627D01*
X118899671Y-62713629D01*
X118850314Y-62787496D01*
X118787496Y-62850314D01*
X118713629Y-62899671D01*
X118713628Y-62899672D01*
X118713627Y-62899672D01*
X118631552Y-62933669D01*
X118544421Y-62951000D01*
X118455579Y-62951000D01*
X118368448Y-62933669D01*
X118286373Y-62899672D01*
X118286372Y-62899672D01*
X118286371Y-62899671D01*
X118212504Y-62850314D01*
X118149686Y-62787496D01*
X118100329Y-62713629D01*
X118100328Y-62713627D01*
X118066331Y-62631552D01*
X118049000Y-62544421D01*
X118049000Y-62455579D01*
X118066331Y-62368448D01*
X118100328Y-62286373D01*
X118149685Y-62212505D01*
X118212505Y-62149685D01*
X118249187Y-62125175D01*
X118286371Y-62100329D01*
X118286373Y-62100328D01*
X118368448Y-62066331D01*
X118455579Y-62049000D01*
X118544421Y-62049000D01*
X118631552Y-62066331D01*
G37*
G36*
X21631552Y-62066331D02*
G01*
X21713627Y-62100328D01*
X21713629Y-62100329D01*
X21750813Y-62125175D01*
X21787495Y-62149685D01*
X21850315Y-62212505D01*
X21899672Y-62286373D01*
X21933669Y-62368448D01*
X21951000Y-62455579D01*
X21951000Y-62544421D01*
X21933669Y-62631552D01*
X21899672Y-62713627D01*
X21899671Y-62713629D01*
X21850314Y-62787496D01*
X21787496Y-62850314D01*
X21713629Y-62899671D01*
X21713628Y-62899672D01*
X21713627Y-62899672D01*
X21631552Y-62933669D01*
X21544421Y-62951000D01*
X21455579Y-62951000D01*
X21368448Y-62933669D01*
X21286373Y-62899672D01*
X21286372Y-62899672D01*
X21286371Y-62899671D01*
X21212504Y-62850314D01*
X21149686Y-62787496D01*
X21100329Y-62713629D01*
X21100328Y-62713627D01*
X21066331Y-62631552D01*
X21049000Y-62544421D01*
X21049000Y-62455579D01*
X21066331Y-62368448D01*
X21100328Y-62286373D01*
X21149685Y-62212505D01*
X21212505Y-62149685D01*
X21249187Y-62125175D01*
X21286371Y-62100329D01*
X21286373Y-62100328D01*
X21368448Y-62066331D01*
X21455579Y-62049000D01*
X21544421Y-62049000D01*
X21631552Y-62066331D01*
G37*
G36*
X21631552Y-59566331D02*
G01*
X21713627Y-59600328D01*
X21713629Y-59600329D01*
X21750813Y-59625175D01*
X21787495Y-59649685D01*
X21850315Y-59712505D01*
X21899672Y-59786373D01*
X21933669Y-59868448D01*
X21951000Y-59955579D01*
X21951000Y-60044421D01*
X21933669Y-60131552D01*
X21899672Y-60213627D01*
X21899671Y-60213629D01*
X21850314Y-60287496D01*
X21787496Y-60350314D01*
X21713629Y-60399671D01*
X21713628Y-60399672D01*
X21713627Y-60399672D01*
X21631552Y-60433669D01*
X21544421Y-60451000D01*
X21455579Y-60451000D01*
X21368448Y-60433669D01*
X21286373Y-60399672D01*
X21286372Y-60399672D01*
X21286371Y-60399671D01*
X21212504Y-60350314D01*
X21149686Y-60287496D01*
X21100329Y-60213629D01*
X21100328Y-60213627D01*
X21066331Y-60131552D01*
X21049000Y-60044421D01*
X21049000Y-59955579D01*
X21066331Y-59868448D01*
X21100328Y-59786373D01*
X21149685Y-59712505D01*
X21212505Y-59649685D01*
X21249187Y-59625175D01*
X21286371Y-59600329D01*
X21286373Y-59600328D01*
X21368448Y-59566331D01*
X21455579Y-59549000D01*
X21544421Y-59549000D01*
X21631552Y-59566331D01*
G37*
G36*
X118631552Y-59566331D02*
G01*
X118713627Y-59600328D01*
X118713629Y-59600329D01*
X118750813Y-59625175D01*
X118787495Y-59649685D01*
X118850315Y-59712505D01*
X118899672Y-59786373D01*
X118933669Y-59868448D01*
X118951000Y-59955579D01*
X118951000Y-60044421D01*
X118933669Y-60131552D01*
X118899672Y-60213627D01*
X118899671Y-60213629D01*
X118850314Y-60287496D01*
X118787496Y-60350314D01*
X118713629Y-60399671D01*
X118713628Y-60399672D01*
X118713627Y-60399672D01*
X118631552Y-60433669D01*
X118544421Y-60451000D01*
X118455579Y-60451000D01*
X118368448Y-60433669D01*
X118286373Y-60399672D01*
X118286372Y-60399672D01*
X118286371Y-60399671D01*
X118212504Y-60350314D01*
X118149686Y-60287496D01*
X118100329Y-60213629D01*
X118100328Y-60213627D01*
X118066331Y-60131552D01*
X118049000Y-60044421D01*
X118049000Y-59955579D01*
X118066331Y-59868448D01*
X118100328Y-59786373D01*
X118149685Y-59712505D01*
X118212505Y-59649685D01*
X118249187Y-59625175D01*
X118286371Y-59600329D01*
X118286373Y-59600328D01*
X118368448Y-59566331D01*
X118455579Y-59549000D01*
X118544421Y-59549000D01*
X118631552Y-59566331D01*
G37*
G36*
X21631552Y-57066331D02*
G01*
X21713627Y-57100328D01*
X21713629Y-57100329D01*
X21750813Y-57125175D01*
X21787495Y-57149685D01*
X21850315Y-57212505D01*
X21899672Y-57286373D01*
X21933669Y-57368448D01*
X21951000Y-57455579D01*
X21951000Y-57544421D01*
X21933669Y-57631552D01*
X21899672Y-57713627D01*
X21899671Y-57713629D01*
X21850314Y-57787496D01*
X21787496Y-57850314D01*
X21713629Y-57899671D01*
X21713628Y-57899672D01*
X21713627Y-57899672D01*
X21631552Y-57933669D01*
X21544421Y-57951000D01*
X21455579Y-57951000D01*
X21368448Y-57933669D01*
X21286373Y-57899672D01*
X21286372Y-57899672D01*
X21286371Y-57899671D01*
X21212504Y-57850314D01*
X21149686Y-57787496D01*
X21100329Y-57713629D01*
X21100328Y-57713627D01*
X21066331Y-57631552D01*
X21049000Y-57544421D01*
X21049000Y-57455579D01*
X21066331Y-57368448D01*
X21100328Y-57286373D01*
X21149685Y-57212505D01*
X21212505Y-57149685D01*
X21249187Y-57125175D01*
X21286371Y-57100329D01*
X21286373Y-57100328D01*
X21368448Y-57066331D01*
X21455579Y-57049000D01*
X21544421Y-57049000D01*
X21631552Y-57066331D01*
G37*
G36*
X118631552Y-57066331D02*
G01*
X118713627Y-57100328D01*
X118713629Y-57100329D01*
X118750813Y-57125175D01*
X118787495Y-57149685D01*
X118850315Y-57212505D01*
X118899672Y-57286373D01*
X118933669Y-57368448D01*
X118951000Y-57455579D01*
X118951000Y-57544421D01*
X118933669Y-57631552D01*
X118899672Y-57713627D01*
X118899671Y-57713629D01*
X118850314Y-57787496D01*
X118787496Y-57850314D01*
X118713629Y-57899671D01*
X118713628Y-57899672D01*
X118713627Y-57899672D01*
X118631552Y-57933669D01*
X118544421Y-57951000D01*
X118455579Y-57951000D01*
X118368448Y-57933669D01*
X118286373Y-57899672D01*
X118286372Y-57899672D01*
X118286371Y-57899671D01*
X118212504Y-57850314D01*
X118149686Y-57787496D01*
X118100329Y-57713629D01*
X118100328Y-57713627D01*
X118066331Y-57631552D01*
X118049000Y-57544421D01*
X118049000Y-57455579D01*
X118066331Y-57368448D01*
X118100328Y-57286373D01*
X118149685Y-57212505D01*
X118212505Y-57149685D01*
X118249187Y-57125175D01*
X118286371Y-57100329D01*
X118286373Y-57100328D01*
X118368448Y-57066331D01*
X118455579Y-57049000D01*
X118544421Y-57049000D01*
X118631552Y-57066331D01*
G37*
G36*
X118631552Y-54566331D02*
G01*
X118713627Y-54600328D01*
X118713629Y-54600329D01*
X118750813Y-54625175D01*
X118787495Y-54649685D01*
X118850315Y-54712505D01*
X118899672Y-54786373D01*
X118933669Y-54868448D01*
X118951000Y-54955579D01*
X118951000Y-55044421D01*
X118933669Y-55131552D01*
X118899672Y-55213627D01*
X118899671Y-55213629D01*
X118850314Y-55287496D01*
X118787496Y-55350314D01*
X118713629Y-55399671D01*
X118713628Y-55399672D01*
X118713627Y-55399672D01*
X118631552Y-55433669D01*
X118544421Y-55451000D01*
X118455579Y-55451000D01*
X118368448Y-55433669D01*
X118286373Y-55399672D01*
X118286372Y-55399672D01*
X118286371Y-55399671D01*
X118212504Y-55350314D01*
X118149686Y-55287496D01*
X118100329Y-55213629D01*
X118100328Y-55213627D01*
X118066331Y-55131552D01*
X118049000Y-55044421D01*
X118049000Y-54955579D01*
X118066331Y-54868448D01*
X118100328Y-54786373D01*
X118149685Y-54712505D01*
X118212505Y-54649685D01*
X118249187Y-54625175D01*
X118286371Y-54600329D01*
X118286373Y-54600328D01*
X118368448Y-54566331D01*
X118455579Y-54549000D01*
X118544421Y-54549000D01*
X118631552Y-54566331D01*
G37*
G36*
X21631552Y-54566331D02*
G01*
X21713627Y-54600328D01*
X21713629Y-54600329D01*
X21750813Y-54625175D01*
X21787495Y-54649685D01*
X21850315Y-54712505D01*
X21899672Y-54786373D01*
X21933669Y-54868448D01*
X21951000Y-54955579D01*
X21951000Y-55044421D01*
X21933669Y-55131552D01*
X21899672Y-55213627D01*
X21899671Y-55213629D01*
X21850314Y-55287496D01*
X21787496Y-55350314D01*
X21713629Y-55399671D01*
X21713628Y-55399672D01*
X21713627Y-55399672D01*
X21631552Y-55433669D01*
X21544421Y-55451000D01*
X21455579Y-55451000D01*
X21368448Y-55433669D01*
X21286373Y-55399672D01*
X21286372Y-55399672D01*
X21286371Y-55399671D01*
X21212504Y-55350314D01*
X21149686Y-55287496D01*
X21100329Y-55213629D01*
X21100328Y-55213627D01*
X21066331Y-55131552D01*
X21049000Y-55044421D01*
X21049000Y-54955579D01*
X21066331Y-54868448D01*
X21100328Y-54786373D01*
X21149685Y-54712505D01*
X21212505Y-54649685D01*
X21249187Y-54625175D01*
X21286371Y-54600329D01*
X21286373Y-54600328D01*
X21368448Y-54566331D01*
X21455579Y-54549000D01*
X21544421Y-54549000D01*
X21631552Y-54566331D01*
G37*
G36*
X119226000Y-53726000D02*
G01*
X117774000Y-53726000D01*
X117774000Y-52274000D01*
X119226000Y-52274000D01*
X119226000Y-53726000D01*
G37*
G36*
X21631552Y-52066331D02*
G01*
X21713627Y-52100328D01*
X21713629Y-52100329D01*
X21750813Y-52125175D01*
X21787495Y-52149685D01*
X21850315Y-52212505D01*
X21899672Y-52286373D01*
X21933669Y-52368448D01*
X21951000Y-52455579D01*
X21951000Y-52544421D01*
X21933669Y-52631552D01*
X21899672Y-52713627D01*
X21899671Y-52713629D01*
X21850314Y-52787496D01*
X21787496Y-52850314D01*
X21713629Y-52899671D01*
X21713628Y-52899672D01*
X21713627Y-52899672D01*
X21631552Y-52933669D01*
X21544421Y-52951000D01*
X21455579Y-52951000D01*
X21368448Y-52933669D01*
X21286373Y-52899672D01*
X21286372Y-52899672D01*
X21286371Y-52899671D01*
X21212504Y-52850314D01*
X21149686Y-52787496D01*
X21100329Y-52713629D01*
X21100328Y-52713627D01*
X21066331Y-52631552D01*
X21049000Y-52544421D01*
X21049000Y-52455579D01*
X21066331Y-52368448D01*
X21100328Y-52286373D01*
X21149685Y-52212505D01*
X21212505Y-52149685D01*
X21249187Y-52125175D01*
X21286371Y-52100329D01*
X21286373Y-52100328D01*
X21368448Y-52066331D01*
X21455579Y-52049000D01*
X21544421Y-52049000D01*
X21631552Y-52066331D01*
G37*
G36*
X118711766Y-50301899D02*
G01*
X118843888Y-50356626D01*
X118843890Y-50356627D01*
X118962798Y-50436079D01*
X119063921Y-50537202D01*
X119063922Y-50537204D01*
X119143374Y-50656112D01*
X119198101Y-50788234D01*
X119226000Y-50928494D01*
X119226000Y-51071506D01*
X119198101Y-51211766D01*
X119143374Y-51343888D01*
X119143373Y-51343890D01*
X119063921Y-51462798D01*
X118962798Y-51563921D01*
X118843890Y-51643373D01*
X118843889Y-51643374D01*
X118843888Y-51643374D01*
X118711766Y-51698101D01*
X118571506Y-51726000D01*
X118428494Y-51726000D01*
X118288234Y-51698101D01*
X118156112Y-51643374D01*
X118156111Y-51643374D01*
X118156110Y-51643373D01*
X118037202Y-51563921D01*
X117936079Y-51462798D01*
X117856627Y-51343890D01*
X117856626Y-51343888D01*
X117801899Y-51211766D01*
X117774000Y-51071506D01*
X117774000Y-50928494D01*
X117801899Y-50788234D01*
X117856626Y-50656112D01*
X117936078Y-50537204D01*
X117936079Y-50537202D01*
X118037202Y-50436079D01*
X118156110Y-50356627D01*
X118156112Y-50356626D01*
X118288234Y-50301899D01*
X118428494Y-50274000D01*
X118571506Y-50274000D01*
X118711766Y-50301899D01*
G37*
G36*
X21631552Y-49566331D02*
G01*
X21713627Y-49600328D01*
X21713629Y-49600329D01*
X21750813Y-49625175D01*
X21787495Y-49649685D01*
X21850315Y-49712505D01*
X21899672Y-49786373D01*
X21933669Y-49868448D01*
X21951000Y-49955579D01*
X21951000Y-50044421D01*
X21933669Y-50131552D01*
X21899672Y-50213627D01*
X21899671Y-50213629D01*
X21850314Y-50287496D01*
X21787496Y-50350314D01*
X21713629Y-50399671D01*
X21713628Y-50399672D01*
X21713627Y-50399672D01*
X21631552Y-50433669D01*
X21544421Y-50451000D01*
X21455579Y-50451000D01*
X21368448Y-50433669D01*
X21286373Y-50399672D01*
X21286372Y-50399672D01*
X21286371Y-50399671D01*
X21212504Y-50350314D01*
X21149686Y-50287496D01*
X21100329Y-50213629D01*
X21100328Y-50213627D01*
X21066331Y-50131552D01*
X21049000Y-50044421D01*
X21049000Y-49955579D01*
X21066331Y-49868448D01*
X21100328Y-49786373D01*
X21149685Y-49712505D01*
X21212505Y-49649685D01*
X21249187Y-49625175D01*
X21286371Y-49600329D01*
X21286373Y-49600328D01*
X21368448Y-49566331D01*
X21455579Y-49549000D01*
X21544421Y-49549000D01*
X21631552Y-49566331D01*
G37*
G36*
X104131552Y-49566331D02*
G01*
X104213627Y-49600328D01*
X104213629Y-49600329D01*
X104250813Y-49625175D01*
X104287495Y-49649685D01*
X104350315Y-49712505D01*
X104399672Y-49786373D01*
X104433669Y-49868448D01*
X104451000Y-49955579D01*
X104451000Y-50044421D01*
X104433669Y-50131552D01*
X104399672Y-50213627D01*
X104399671Y-50213629D01*
X104350314Y-50287496D01*
X104287496Y-50350314D01*
X104213629Y-50399671D01*
X104213628Y-50399672D01*
X104213627Y-50399672D01*
X104131552Y-50433669D01*
X104044421Y-50451000D01*
X103955579Y-50451000D01*
X103868448Y-50433669D01*
X103786373Y-50399672D01*
X103786372Y-50399672D01*
X103786371Y-50399671D01*
X103712504Y-50350314D01*
X103649686Y-50287496D01*
X103600329Y-50213629D01*
X103600328Y-50213627D01*
X103566331Y-50131552D01*
X103549000Y-50044421D01*
X103549000Y-49955579D01*
X103566331Y-49868448D01*
X103600328Y-49786373D01*
X103649685Y-49712505D01*
X103712505Y-49649685D01*
X103749187Y-49625175D01*
X103786371Y-49600329D01*
X103786373Y-49600328D01*
X103868448Y-49566331D01*
X103955579Y-49549000D01*
X104044421Y-49549000D01*
X104131552Y-49566331D01*
G37*
G36*
X102381552Y-49566331D02*
G01*
X102463627Y-49600328D01*
X102463629Y-49600329D01*
X102500813Y-49625175D01*
X102537495Y-49649685D01*
X102600315Y-49712505D01*
X102649672Y-49786373D01*
X102683669Y-49868448D01*
X102701000Y-49955579D01*
X102701000Y-50044421D01*
X102683669Y-50131552D01*
X102649672Y-50213627D01*
X102649671Y-50213629D01*
X102600314Y-50287496D01*
X102537496Y-50350314D01*
X102463629Y-50399671D01*
X102463628Y-50399672D01*
X102463627Y-50399672D01*
X102381552Y-50433669D01*
X102294421Y-50451000D01*
X102205579Y-50451000D01*
X102118448Y-50433669D01*
X102036373Y-50399672D01*
X102036372Y-50399672D01*
X102036371Y-50399671D01*
X101962504Y-50350314D01*
X101899686Y-50287496D01*
X101850329Y-50213629D01*
X101850328Y-50213627D01*
X101816331Y-50131552D01*
X101799000Y-50044421D01*
X101799000Y-49955579D01*
X101816331Y-49868448D01*
X101850328Y-49786373D01*
X101899685Y-49712505D01*
X101962505Y-49649685D01*
X101999187Y-49625175D01*
X102036371Y-49600329D01*
X102036373Y-49600328D01*
X102118448Y-49566331D01*
X102205579Y-49549000D01*
X102294421Y-49549000D01*
X102381552Y-49566331D01*
G37*
G36*
X109331552Y-49566331D02*
G01*
X109413627Y-49600328D01*
X109413629Y-49600329D01*
X109450813Y-49625175D01*
X109487495Y-49649685D01*
X109550315Y-49712505D01*
X109599672Y-49786373D01*
X109633669Y-49868448D01*
X109651000Y-49955579D01*
X109651000Y-50044421D01*
X109633669Y-50131552D01*
X109599672Y-50213627D01*
X109599671Y-50213629D01*
X109550314Y-50287496D01*
X109487496Y-50350314D01*
X109413629Y-50399671D01*
X109413628Y-50399672D01*
X109413627Y-50399672D01*
X109331552Y-50433669D01*
X109244421Y-50451000D01*
X109155579Y-50451000D01*
X109068448Y-50433669D01*
X108986373Y-50399672D01*
X108986372Y-50399672D01*
X108986371Y-50399671D01*
X108912504Y-50350314D01*
X108849686Y-50287496D01*
X108800329Y-50213629D01*
X108800328Y-50213627D01*
X108766331Y-50131552D01*
X108749000Y-50044421D01*
X108749000Y-49955579D01*
X108766331Y-49868448D01*
X108800328Y-49786373D01*
X108849685Y-49712505D01*
X108912505Y-49649685D01*
X108949187Y-49625175D01*
X108986371Y-49600329D01*
X108986373Y-49600328D01*
X109068448Y-49566331D01*
X109155579Y-49549000D01*
X109244421Y-49549000D01*
X109331552Y-49566331D01*
G37*
G36*
X107581552Y-49566331D02*
G01*
X107663627Y-49600328D01*
X107663629Y-49600329D01*
X107700813Y-49625175D01*
X107737495Y-49649685D01*
X107800315Y-49712505D01*
X107849672Y-49786373D01*
X107883669Y-49868448D01*
X107901000Y-49955579D01*
X107901000Y-50044421D01*
X107883669Y-50131552D01*
X107849672Y-50213627D01*
X107849671Y-50213629D01*
X107800314Y-50287496D01*
X107737496Y-50350314D01*
X107663629Y-50399671D01*
X107663628Y-50399672D01*
X107663627Y-50399672D01*
X107581552Y-50433669D01*
X107494421Y-50451000D01*
X107405579Y-50451000D01*
X107318448Y-50433669D01*
X107236373Y-50399672D01*
X107236372Y-50399672D01*
X107236371Y-50399671D01*
X107162504Y-50350314D01*
X107099686Y-50287496D01*
X107050329Y-50213629D01*
X107050328Y-50213627D01*
X107016331Y-50131552D01*
X106999000Y-50044421D01*
X106999000Y-49955579D01*
X107016331Y-49868448D01*
X107050328Y-49786373D01*
X107099685Y-49712505D01*
X107162505Y-49649685D01*
X107199187Y-49625175D01*
X107236371Y-49600329D01*
X107236373Y-49600328D01*
X107318448Y-49566331D01*
X107405579Y-49549000D01*
X107494421Y-49549000D01*
X107581552Y-49566331D01*
G37*
G36*
X105881552Y-49566331D02*
G01*
X105963627Y-49600328D01*
X105963629Y-49600329D01*
X106000813Y-49625175D01*
X106037495Y-49649685D01*
X106100315Y-49712505D01*
X106149672Y-49786373D01*
X106183669Y-49868448D01*
X106201000Y-49955579D01*
X106201000Y-50044421D01*
X106183669Y-50131552D01*
X106149672Y-50213627D01*
X106149671Y-50213629D01*
X106100314Y-50287496D01*
X106037496Y-50350314D01*
X105963629Y-50399671D01*
X105963628Y-50399672D01*
X105963627Y-50399672D01*
X105881552Y-50433669D01*
X105794421Y-50451000D01*
X105705579Y-50451000D01*
X105618448Y-50433669D01*
X105536373Y-50399672D01*
X105536372Y-50399672D01*
X105536371Y-50399671D01*
X105462504Y-50350314D01*
X105399686Y-50287496D01*
X105350329Y-50213629D01*
X105350328Y-50213627D01*
X105316331Y-50131552D01*
X105299000Y-50044421D01*
X105299000Y-49955579D01*
X105316331Y-49868448D01*
X105350328Y-49786373D01*
X105399685Y-49712505D01*
X105462505Y-49649685D01*
X105499187Y-49625175D01*
X105536371Y-49600329D01*
X105536373Y-49600328D01*
X105618448Y-49566331D01*
X105705579Y-49549000D01*
X105794421Y-49549000D01*
X105881552Y-49566331D01*
G37*
G36*
X118711766Y-48301899D02*
G01*
X118843888Y-48356626D01*
X118843890Y-48356627D01*
X118962798Y-48436079D01*
X119063921Y-48537202D01*
X119063922Y-48537204D01*
X119143374Y-48656112D01*
X119198101Y-48788234D01*
X119226000Y-48928494D01*
X119226000Y-49071506D01*
X119198101Y-49211766D01*
X119143374Y-49343888D01*
X119143373Y-49343890D01*
X119063921Y-49462798D01*
X118962798Y-49563921D01*
X118843890Y-49643373D01*
X118843889Y-49643374D01*
X118843888Y-49643374D01*
X118711766Y-49698101D01*
X118571506Y-49726000D01*
X118428494Y-49726000D01*
X118288234Y-49698101D01*
X118156112Y-49643374D01*
X118156111Y-49643374D01*
X118156110Y-49643373D01*
X118037202Y-49563921D01*
X117936079Y-49462798D01*
X117856627Y-49343890D01*
X117856626Y-49343888D01*
X117801899Y-49211766D01*
X117774000Y-49071506D01*
X117774000Y-48928494D01*
X117801899Y-48788234D01*
X117856626Y-48656112D01*
X117936078Y-48537204D01*
X117936079Y-48537202D01*
X118037202Y-48436079D01*
X118156110Y-48356627D01*
X118156112Y-48356626D01*
X118288234Y-48301899D01*
X118428494Y-48274000D01*
X118571506Y-48274000D01*
X118711766Y-48301899D01*
G37*
G36*
X21631552Y-47066331D02*
G01*
X21713627Y-47100328D01*
X21713629Y-47100329D01*
X21750813Y-47125175D01*
X21787495Y-47149685D01*
X21850315Y-47212505D01*
X21899672Y-47286373D01*
X21933669Y-47368448D01*
X21951000Y-47455579D01*
X21951000Y-47544421D01*
X21933669Y-47631552D01*
X21906103Y-47698101D01*
X21899671Y-47713629D01*
X21850314Y-47787496D01*
X21787496Y-47850314D01*
X21713629Y-47899671D01*
X21713628Y-47899672D01*
X21713627Y-47899672D01*
X21631552Y-47933669D01*
X21544421Y-47951000D01*
X21455579Y-47951000D01*
X21368448Y-47933669D01*
X21286373Y-47899672D01*
X21286372Y-47899672D01*
X21286371Y-47899671D01*
X21212504Y-47850314D01*
X21149686Y-47787496D01*
X21100329Y-47713629D01*
X21093897Y-47698101D01*
X21066331Y-47631552D01*
X21049000Y-47544421D01*
X21049000Y-47455579D01*
X21066331Y-47368448D01*
X21100328Y-47286373D01*
X21149685Y-47212505D01*
X21212505Y-47149685D01*
X21249187Y-47125175D01*
X21286371Y-47100329D01*
X21286373Y-47100328D01*
X21368448Y-47066331D01*
X21455579Y-47049000D01*
X21544421Y-47049000D01*
X21631552Y-47066331D01*
G37*
G36*
X118711766Y-46301899D02*
G01*
X118843888Y-46356626D01*
X118843890Y-46356627D01*
X118962798Y-46436079D01*
X119063921Y-46537202D01*
X119063922Y-46537204D01*
X119143374Y-46656112D01*
X119198101Y-46788234D01*
X119226000Y-46928494D01*
X119226000Y-47071506D01*
X119198101Y-47211766D01*
X119143374Y-47343888D01*
X119143373Y-47343890D01*
X119063921Y-47462798D01*
X118962798Y-47563921D01*
X118843890Y-47643373D01*
X118843889Y-47643374D01*
X118843888Y-47643374D01*
X118711766Y-47698101D01*
X118571506Y-47726000D01*
X118428494Y-47726000D01*
X118288234Y-47698101D01*
X118156112Y-47643374D01*
X118156111Y-47643374D01*
X118156110Y-47643373D01*
X118037202Y-47563921D01*
X117936079Y-47462798D01*
X117856627Y-47343890D01*
X117856626Y-47343888D01*
X117801899Y-47211766D01*
X117774000Y-47071506D01*
X117774000Y-46928494D01*
X117801899Y-46788234D01*
X117856626Y-46656112D01*
X117936078Y-46537204D01*
X117936079Y-46537202D01*
X118037202Y-46436079D01*
X118156110Y-46356627D01*
X118156112Y-46356626D01*
X118288234Y-46301899D01*
X118428494Y-46274000D01*
X118571506Y-46274000D01*
X118711766Y-46301899D01*
G37*
G36*
X118631552Y-44566331D02*
G01*
X118713627Y-44600328D01*
X118713629Y-44600329D01*
X118750813Y-44625175D01*
X118787495Y-44649685D01*
X118850315Y-44712505D01*
X118899672Y-44786373D01*
X118933669Y-44868448D01*
X118951000Y-44955579D01*
X118951000Y-45044421D01*
X118933669Y-45131552D01*
X118899672Y-45213627D01*
X118899671Y-45213629D01*
X118850314Y-45287496D01*
X118787496Y-45350314D01*
X118713629Y-45399671D01*
X118713628Y-45399672D01*
X118713627Y-45399672D01*
X118631552Y-45433669D01*
X118544421Y-45451000D01*
X118455579Y-45451000D01*
X118368448Y-45433669D01*
X118286373Y-45399672D01*
X118286372Y-45399672D01*
X118286371Y-45399671D01*
X118212504Y-45350314D01*
X118149686Y-45287496D01*
X118100329Y-45213629D01*
X118100328Y-45213627D01*
X118066331Y-45131552D01*
X118049000Y-45044421D01*
X118049000Y-44955579D01*
X118066331Y-44868448D01*
X118100328Y-44786373D01*
X118149685Y-44712505D01*
X118212505Y-44649685D01*
X118249187Y-44625175D01*
X118286371Y-44600329D01*
X118286373Y-44600328D01*
X118368448Y-44566331D01*
X118455579Y-44549000D01*
X118544421Y-44549000D01*
X118631552Y-44566331D01*
G37*
G36*
X21631552Y-44566331D02*
G01*
X21713627Y-44600328D01*
X21713629Y-44600329D01*
X21750813Y-44625175D01*
X21787495Y-44649685D01*
X21850315Y-44712505D01*
X21899672Y-44786373D01*
X21933669Y-44868448D01*
X21951000Y-44955579D01*
X21951000Y-45044421D01*
X21933669Y-45131552D01*
X21899672Y-45213627D01*
X21899671Y-45213629D01*
X21850314Y-45287496D01*
X21787496Y-45350314D01*
X21713629Y-45399671D01*
X21713628Y-45399672D01*
X21713627Y-45399672D01*
X21631552Y-45433669D01*
X21544421Y-45451000D01*
X21455579Y-45451000D01*
X21368448Y-45433669D01*
X21286373Y-45399672D01*
X21286372Y-45399672D01*
X21286371Y-45399671D01*
X21212504Y-45350314D01*
X21149686Y-45287496D01*
X21100329Y-45213629D01*
X21100328Y-45213627D01*
X21066331Y-45131552D01*
X21049000Y-45044421D01*
X21049000Y-44955579D01*
X21066331Y-44868448D01*
X21100328Y-44786373D01*
X21149685Y-44712505D01*
X21212505Y-44649685D01*
X21249187Y-44625175D01*
X21286371Y-44600329D01*
X21286373Y-44600328D01*
X21368448Y-44566331D01*
X21455579Y-44549000D01*
X21544421Y-44549000D01*
X21631552Y-44566331D01*
G37*
G36*
X21631552Y-42066331D02*
G01*
X21713627Y-42100328D01*
X21713629Y-42100329D01*
X21750813Y-42125175D01*
X21787495Y-42149685D01*
X21850315Y-42212505D01*
X21899672Y-42286373D01*
X21933669Y-42368448D01*
X21951000Y-42455579D01*
X21951000Y-42544421D01*
X21933669Y-42631552D01*
X21899672Y-42713627D01*
X21899671Y-42713629D01*
X21850314Y-42787496D01*
X21787496Y-42850314D01*
X21713629Y-42899671D01*
X21713628Y-42899672D01*
X21713627Y-42899672D01*
X21631552Y-42933669D01*
X21544421Y-42951000D01*
X21455579Y-42951000D01*
X21368448Y-42933669D01*
X21286373Y-42899672D01*
X21286372Y-42899672D01*
X21286371Y-42899671D01*
X21212504Y-42850314D01*
X21149686Y-42787496D01*
X21100329Y-42713629D01*
X21100328Y-42713627D01*
X21066331Y-42631552D01*
X21049000Y-42544421D01*
X21049000Y-42455579D01*
X21066331Y-42368448D01*
X21100328Y-42286373D01*
X21149685Y-42212505D01*
X21212505Y-42149685D01*
X21249187Y-42125175D01*
X21286371Y-42100329D01*
X21286373Y-42100328D01*
X21368448Y-42066331D01*
X21455579Y-42049000D01*
X21544421Y-42049000D01*
X21631552Y-42066331D01*
G37*
G36*
X118631552Y-42066331D02*
G01*
X118713627Y-42100328D01*
X118713629Y-42100329D01*
X118750813Y-42125175D01*
X118787495Y-42149685D01*
X118850315Y-42212505D01*
X118899672Y-42286373D01*
X118933669Y-42368448D01*
X118951000Y-42455579D01*
X118951000Y-42544421D01*
X118933669Y-42631552D01*
X118899672Y-42713627D01*
X118899671Y-42713629D01*
X118850314Y-42787496D01*
X118787496Y-42850314D01*
X118713629Y-42899671D01*
X118713628Y-42899672D01*
X118713627Y-42899672D01*
X118631552Y-42933669D01*
X118544421Y-42951000D01*
X118455579Y-42951000D01*
X118368448Y-42933669D01*
X118286373Y-42899672D01*
X118286372Y-42899672D01*
X118286371Y-42899671D01*
X118212504Y-42850314D01*
X118149686Y-42787496D01*
X118100329Y-42713629D01*
X118100328Y-42713627D01*
X118066331Y-42631552D01*
X118049000Y-42544421D01*
X118049000Y-42455579D01*
X118066331Y-42368448D01*
X118100328Y-42286373D01*
X118149685Y-42212505D01*
X118212505Y-42149685D01*
X118249187Y-42125175D01*
X118286371Y-42100329D01*
X118286373Y-42100328D01*
X118368448Y-42066331D01*
X118455579Y-42049000D01*
X118544421Y-42049000D01*
X118631552Y-42066331D01*
G37*
G36*
X21631552Y-39566331D02*
G01*
X21713627Y-39600328D01*
X21713629Y-39600329D01*
X21750813Y-39625175D01*
X21787495Y-39649685D01*
X21850315Y-39712505D01*
X21899672Y-39786373D01*
X21933669Y-39868448D01*
X21951000Y-39955579D01*
X21951000Y-40044421D01*
X21933669Y-40131552D01*
X21899672Y-40213627D01*
X21899671Y-40213629D01*
X21850314Y-40287496D01*
X21787496Y-40350314D01*
X21713629Y-40399671D01*
X21713628Y-40399672D01*
X21713627Y-40399672D01*
X21631552Y-40433669D01*
X21544421Y-40451000D01*
X21455579Y-40451000D01*
X21368448Y-40433669D01*
X21286373Y-40399672D01*
X21286372Y-40399672D01*
X21286371Y-40399671D01*
X21212504Y-40350314D01*
X21149686Y-40287496D01*
X21100329Y-40213629D01*
X21100328Y-40213627D01*
X21066331Y-40131552D01*
X21049000Y-40044421D01*
X21049000Y-39955579D01*
X21066331Y-39868448D01*
X21100328Y-39786373D01*
X21149685Y-39712505D01*
X21212505Y-39649685D01*
X21249187Y-39625175D01*
X21286371Y-39600329D01*
X21286373Y-39600328D01*
X21368448Y-39566331D01*
X21455579Y-39549000D01*
X21544421Y-39549000D01*
X21631552Y-39566331D01*
G37*
G36*
X118631552Y-39566331D02*
G01*
X118713627Y-39600328D01*
X118713629Y-39600329D01*
X118750813Y-39625175D01*
X118787495Y-39649685D01*
X118850315Y-39712505D01*
X118899672Y-39786373D01*
X118933669Y-39868448D01*
X118951000Y-39955579D01*
X118951000Y-40044421D01*
X118933669Y-40131552D01*
X118899672Y-40213627D01*
X118899671Y-40213629D01*
X118850314Y-40287496D01*
X118787496Y-40350314D01*
X118713629Y-40399671D01*
X118713628Y-40399672D01*
X118713627Y-40399672D01*
X118631552Y-40433669D01*
X118544421Y-40451000D01*
X118455579Y-40451000D01*
X118368448Y-40433669D01*
X118286373Y-40399672D01*
X118286372Y-40399672D01*
X118286371Y-40399671D01*
X118212504Y-40350314D01*
X118149686Y-40287496D01*
X118100329Y-40213629D01*
X118100328Y-40213627D01*
X118066331Y-40131552D01*
X118049000Y-40044421D01*
X118049000Y-39955579D01*
X118066331Y-39868448D01*
X118100328Y-39786373D01*
X118149685Y-39712505D01*
X118212505Y-39649685D01*
X118249187Y-39625175D01*
X118286371Y-39600329D01*
X118286373Y-39600328D01*
X118368448Y-39566331D01*
X118455579Y-39549000D01*
X118544421Y-39549000D01*
X118631552Y-39566331D01*
G37*
G36*
X21631552Y-37066331D02*
G01*
X21713627Y-37100328D01*
X21713629Y-37100329D01*
X21750813Y-37125175D01*
X21787495Y-37149685D01*
X21850315Y-37212505D01*
X21899672Y-37286373D01*
X21933669Y-37368448D01*
X21951000Y-37455579D01*
X21951000Y-37544421D01*
X21933669Y-37631552D01*
X21899672Y-37713627D01*
X21899671Y-37713629D01*
X21850314Y-37787496D01*
X21787496Y-37850314D01*
X21713629Y-37899671D01*
X21713628Y-37899672D01*
X21713627Y-37899672D01*
X21631552Y-37933669D01*
X21544421Y-37951000D01*
X21455579Y-37951000D01*
X21368448Y-37933669D01*
X21286373Y-37899672D01*
X21286372Y-37899672D01*
X21286371Y-37899671D01*
X21212504Y-37850314D01*
X21149686Y-37787496D01*
X21100329Y-37713629D01*
X21100328Y-37713627D01*
X21066331Y-37631552D01*
X21049000Y-37544421D01*
X21049000Y-37455579D01*
X21066331Y-37368448D01*
X21100328Y-37286373D01*
X21149685Y-37212505D01*
X21212505Y-37149685D01*
X21249187Y-37125175D01*
X21286371Y-37100329D01*
X21286373Y-37100328D01*
X21368448Y-37066331D01*
X21455579Y-37049000D01*
X21544421Y-37049000D01*
X21631552Y-37066331D01*
G37*
G36*
X118631552Y-37066331D02*
G01*
X118713627Y-37100328D01*
X118713629Y-37100329D01*
X118750813Y-37125175D01*
X118787495Y-37149685D01*
X118850315Y-37212505D01*
X118899672Y-37286373D01*
X118933669Y-37368448D01*
X118951000Y-37455579D01*
X118951000Y-37544421D01*
X118933669Y-37631552D01*
X118899672Y-37713627D01*
X118899671Y-37713629D01*
X118850314Y-37787496D01*
X118787496Y-37850314D01*
X118713629Y-37899671D01*
X118713628Y-37899672D01*
X118713627Y-37899672D01*
X118631552Y-37933669D01*
X118544421Y-37951000D01*
X118455579Y-37951000D01*
X118368448Y-37933669D01*
X118286373Y-37899672D01*
X118286372Y-37899672D01*
X118286371Y-37899671D01*
X118212504Y-37850314D01*
X118149686Y-37787496D01*
X118100329Y-37713629D01*
X118100328Y-37713627D01*
X118066331Y-37631552D01*
X118049000Y-37544421D01*
X118049000Y-37455579D01*
X118066331Y-37368448D01*
X118100328Y-37286373D01*
X118149685Y-37212505D01*
X118212505Y-37149685D01*
X118249187Y-37125175D01*
X118286371Y-37100329D01*
X118286373Y-37100328D01*
X118368448Y-37066331D01*
X118455579Y-37049000D01*
X118544421Y-37049000D01*
X118631552Y-37066331D01*
G37*
G36*
X21631552Y-34566331D02*
G01*
X21713627Y-34600328D01*
X21713629Y-34600329D01*
X21750813Y-34625175D01*
X21787495Y-34649685D01*
X21850315Y-34712505D01*
X21899672Y-34786373D01*
X21933669Y-34868448D01*
X21951000Y-34955579D01*
X21951000Y-35044421D01*
X21933669Y-35131552D01*
X21899672Y-35213627D01*
X21899671Y-35213629D01*
X21850314Y-35287496D01*
X21787496Y-35350314D01*
X21713629Y-35399671D01*
X21713628Y-35399672D01*
X21713627Y-35399672D01*
X21631552Y-35433669D01*
X21544421Y-35451000D01*
X21455579Y-35451000D01*
X21368448Y-35433669D01*
X21286373Y-35399672D01*
X21286372Y-35399672D01*
X21286371Y-35399671D01*
X21212504Y-35350314D01*
X21149686Y-35287496D01*
X21100329Y-35213629D01*
X21100328Y-35213627D01*
X21066331Y-35131552D01*
X21049000Y-35044421D01*
X21049000Y-34955579D01*
X21066331Y-34868448D01*
X21100328Y-34786373D01*
X21149685Y-34712505D01*
X21212505Y-34649685D01*
X21249187Y-34625175D01*
X21286371Y-34600329D01*
X21286373Y-34600328D01*
X21368448Y-34566331D01*
X21455579Y-34549000D01*
X21544421Y-34549000D01*
X21631552Y-34566331D01*
G37*
G36*
X118631552Y-34566331D02*
G01*
X118713627Y-34600328D01*
X118713629Y-34600329D01*
X118750813Y-34625175D01*
X118787495Y-34649685D01*
X118850315Y-34712505D01*
X118899672Y-34786373D01*
X118933669Y-34868448D01*
X118951000Y-34955579D01*
X118951000Y-35044421D01*
X118933669Y-35131552D01*
X118899672Y-35213627D01*
X118899671Y-35213629D01*
X118850314Y-35287496D01*
X118787496Y-35350314D01*
X118713629Y-35399671D01*
X118713628Y-35399672D01*
X118713627Y-35399672D01*
X118631552Y-35433669D01*
X118544421Y-35451000D01*
X118455579Y-35451000D01*
X118368448Y-35433669D01*
X118286373Y-35399672D01*
X118286372Y-35399672D01*
X118286371Y-35399671D01*
X118212504Y-35350314D01*
X118149686Y-35287496D01*
X118100329Y-35213629D01*
X118100328Y-35213627D01*
X118066331Y-35131552D01*
X118049000Y-35044421D01*
X118049000Y-34955579D01*
X118066331Y-34868448D01*
X118100328Y-34786373D01*
X118149685Y-34712505D01*
X118212505Y-34649685D01*
X118249187Y-34625175D01*
X118286371Y-34600329D01*
X118286373Y-34600328D01*
X118368448Y-34566331D01*
X118455579Y-34549000D01*
X118544421Y-34549000D01*
X118631552Y-34566331D01*
G37*
G36*
X21631552Y-32066331D02*
G01*
X21713627Y-32100328D01*
X21713629Y-32100329D01*
X21750813Y-32125175D01*
X21787495Y-32149685D01*
X21850315Y-32212505D01*
X21899672Y-32286373D01*
X21933669Y-32368448D01*
X21951000Y-32455579D01*
X21951000Y-32544421D01*
X21933669Y-32631552D01*
X21899672Y-32713627D01*
X21899671Y-32713629D01*
X21850314Y-32787496D01*
X21787496Y-32850314D01*
X21713629Y-32899671D01*
X21713628Y-32899672D01*
X21713627Y-32899672D01*
X21631552Y-32933669D01*
X21544421Y-32951000D01*
X21455579Y-32951000D01*
X21368448Y-32933669D01*
X21286373Y-32899672D01*
X21286372Y-32899672D01*
X21286371Y-32899671D01*
X21212504Y-32850314D01*
X21149686Y-32787496D01*
X21100329Y-32713629D01*
X21100328Y-32713627D01*
X21066331Y-32631552D01*
X21049000Y-32544421D01*
X21049000Y-32455579D01*
X21066331Y-32368448D01*
X21100328Y-32286373D01*
X21149685Y-32212505D01*
X21212505Y-32149685D01*
X21249187Y-32125175D01*
X21286371Y-32100329D01*
X21286373Y-32100328D01*
X21368448Y-32066331D01*
X21455579Y-32049000D01*
X21544421Y-32049000D01*
X21631552Y-32066331D01*
G37*
G36*
X118631552Y-32066331D02*
G01*
X118713627Y-32100328D01*
X118713629Y-32100329D01*
X118750813Y-32125175D01*
X118787495Y-32149685D01*
X118850315Y-32212505D01*
X118899672Y-32286373D01*
X118933669Y-32368448D01*
X118951000Y-32455579D01*
X118951000Y-32544421D01*
X118933669Y-32631552D01*
X118899672Y-32713627D01*
X118899671Y-32713629D01*
X118850314Y-32787496D01*
X118787496Y-32850314D01*
X118713629Y-32899671D01*
X118713628Y-32899672D01*
X118713627Y-32899672D01*
X118631552Y-32933669D01*
X118544421Y-32951000D01*
X118455579Y-32951000D01*
X118368448Y-32933669D01*
X118286373Y-32899672D01*
X118286372Y-32899672D01*
X118286371Y-32899671D01*
X118212504Y-32850314D01*
X118149686Y-32787496D01*
X118100329Y-32713629D01*
X118100328Y-32713627D01*
X118066331Y-32631552D01*
X118049000Y-32544421D01*
X118049000Y-32455579D01*
X118066331Y-32368448D01*
X118100328Y-32286373D01*
X118149685Y-32212505D01*
X118212505Y-32149685D01*
X118249187Y-32125175D01*
X118286371Y-32100329D01*
X118286373Y-32100328D01*
X118368448Y-32066331D01*
X118455579Y-32049000D01*
X118544421Y-32049000D01*
X118631552Y-32066331D01*
G37*
G36*
X21631552Y-29566331D02*
G01*
X21713627Y-29600328D01*
X21713629Y-29600329D01*
X21750813Y-29625175D01*
X21787495Y-29649685D01*
X21850315Y-29712505D01*
X21899672Y-29786373D01*
X21933669Y-29868448D01*
X21951000Y-29955579D01*
X21951000Y-30044421D01*
X21933669Y-30131552D01*
X21899672Y-30213627D01*
X21899671Y-30213629D01*
X21850314Y-30287496D01*
X21787496Y-30350314D01*
X21713629Y-30399671D01*
X21713628Y-30399672D01*
X21713627Y-30399672D01*
X21631552Y-30433669D01*
X21544421Y-30451000D01*
X21455579Y-30451000D01*
X21368448Y-30433669D01*
X21286373Y-30399672D01*
X21286372Y-30399672D01*
X21286371Y-30399671D01*
X21212504Y-30350314D01*
X21149686Y-30287496D01*
X21100329Y-30213629D01*
X21100328Y-30213627D01*
X21066331Y-30131552D01*
X21049000Y-30044421D01*
X21049000Y-29955579D01*
X21066331Y-29868448D01*
X21100328Y-29786373D01*
X21149685Y-29712505D01*
X21212505Y-29649685D01*
X21249187Y-29625175D01*
X21286371Y-29600329D01*
X21286373Y-29600328D01*
X21368448Y-29566331D01*
X21455579Y-29549000D01*
X21544421Y-29549000D01*
X21631552Y-29566331D01*
G37*
G36*
X118631552Y-29566331D02*
G01*
X118713627Y-29600328D01*
X118713629Y-29600329D01*
X118750813Y-29625175D01*
X118787495Y-29649685D01*
X118850315Y-29712505D01*
X118899672Y-29786373D01*
X118933669Y-29868448D01*
X118951000Y-29955579D01*
X118951000Y-30044421D01*
X118933669Y-30131552D01*
X118899672Y-30213627D01*
X118899671Y-30213629D01*
X118850314Y-30287496D01*
X118787496Y-30350314D01*
X118713629Y-30399671D01*
X118713628Y-30399672D01*
X118713627Y-30399672D01*
X118631552Y-30433669D01*
X118544421Y-30451000D01*
X118455579Y-30451000D01*
X118368448Y-30433669D01*
X118286373Y-30399672D01*
X118286372Y-30399672D01*
X118286371Y-30399671D01*
X118212504Y-30350314D01*
X118149686Y-30287496D01*
X118100329Y-30213629D01*
X118100328Y-30213627D01*
X118066331Y-30131552D01*
X118049000Y-30044421D01*
X118049000Y-29955579D01*
X118066331Y-29868448D01*
X118100328Y-29786373D01*
X118149685Y-29712505D01*
X118212505Y-29649685D01*
X118249187Y-29625175D01*
X118286371Y-29600329D01*
X118286373Y-29600328D01*
X118368448Y-29566331D01*
X118455579Y-29549000D01*
X118544421Y-29549000D01*
X118631552Y-29566331D01*
G37*
G36*
X87431552Y-27566331D02*
G01*
X87513627Y-27600328D01*
X87513629Y-27600329D01*
X87550813Y-27625175D01*
X87587495Y-27649685D01*
X87650315Y-27712505D01*
X87699672Y-27786373D01*
X87733669Y-27868448D01*
X87751000Y-27955579D01*
X87751000Y-28044421D01*
X87733669Y-28131552D01*
X87699672Y-28213627D01*
X87699671Y-28213629D01*
X87650314Y-28287496D01*
X87587496Y-28350314D01*
X87513629Y-28399671D01*
X87513628Y-28399672D01*
X87513627Y-28399672D01*
X87431552Y-28433669D01*
X87344421Y-28451000D01*
X87255579Y-28451000D01*
X87168448Y-28433669D01*
X87086373Y-28399672D01*
X87086372Y-28399672D01*
X87086371Y-28399671D01*
X87012504Y-28350314D01*
X86949686Y-28287496D01*
X86900329Y-28213629D01*
X86900328Y-28213627D01*
X86866331Y-28131552D01*
X86849000Y-28044421D01*
X86849000Y-27955579D01*
X86866331Y-27868448D01*
X86900328Y-27786373D01*
X86949685Y-27712505D01*
X87012505Y-27649685D01*
X87049187Y-27625175D01*
X87086371Y-27600329D01*
X87086373Y-27600328D01*
X87168448Y-27566331D01*
X87255579Y-27549000D01*
X87344421Y-27549000D01*
X87431552Y-27566331D01*
G37*
G36*
X21631552Y-27066331D02*
G01*
X21713627Y-27100328D01*
X21713629Y-27100329D01*
X21750813Y-27125175D01*
X21787495Y-27149685D01*
X21850315Y-27212505D01*
X21899672Y-27286373D01*
X21933669Y-27368448D01*
X21951000Y-27455579D01*
X21951000Y-27544421D01*
X21933669Y-27631552D01*
X21899672Y-27713627D01*
X21851065Y-27786373D01*
X21850314Y-27787496D01*
X21787496Y-27850314D01*
X21713629Y-27899671D01*
X21713628Y-27899672D01*
X21713627Y-27899672D01*
X21631552Y-27933669D01*
X21544421Y-27951000D01*
X21455579Y-27951000D01*
X21368448Y-27933669D01*
X21286373Y-27899672D01*
X21286372Y-27899672D01*
X21286371Y-27899671D01*
X21212504Y-27850314D01*
X21149686Y-27787496D01*
X21148936Y-27786373D01*
X21100328Y-27713627D01*
X21066331Y-27631552D01*
X21049000Y-27544421D01*
X21049000Y-27455579D01*
X21066331Y-27368448D01*
X21100328Y-27286373D01*
X21149685Y-27212505D01*
X21212505Y-27149685D01*
X21249187Y-27125175D01*
X21286371Y-27100329D01*
X21286373Y-27100328D01*
X21368448Y-27066331D01*
X21455579Y-27049000D01*
X21544421Y-27049000D01*
X21631552Y-27066331D01*
G37*
G36*
X118631552Y-27066331D02*
G01*
X118713627Y-27100328D01*
X118713629Y-27100329D01*
X118750813Y-27125175D01*
X118787495Y-27149685D01*
X118850315Y-27212505D01*
X118899672Y-27286373D01*
X118933669Y-27368448D01*
X118951000Y-27455579D01*
X118951000Y-27544421D01*
X118933669Y-27631552D01*
X118899672Y-27713627D01*
X118851065Y-27786373D01*
X118850314Y-27787496D01*
X118787496Y-27850314D01*
X118713629Y-27899671D01*
X118713628Y-27899672D01*
X118713627Y-27899672D01*
X118631552Y-27933669D01*
X118544421Y-27951000D01*
X118455579Y-27951000D01*
X118368448Y-27933669D01*
X118286373Y-27899672D01*
X118286372Y-27899672D01*
X118286371Y-27899671D01*
X118212504Y-27850314D01*
X118149686Y-27787496D01*
X118148936Y-27786373D01*
X118100328Y-27713627D01*
X118066331Y-27631552D01*
X118049000Y-27544421D01*
X118049000Y-27455579D01*
X118066331Y-27368448D01*
X118100328Y-27286373D01*
X118149685Y-27212505D01*
X118212505Y-27149685D01*
X118249187Y-27125175D01*
X118286371Y-27100329D01*
X118286373Y-27100328D01*
X118368448Y-27066331D01*
X118455579Y-27049000D01*
X118544421Y-27049000D01*
X118631552Y-27066331D01*
G37*
G36*
X22775880Y-20259776D02*
G01*
X23156593Y-20335504D01*
X23566249Y-20505189D01*
X23934929Y-20751534D01*
X24248466Y-21065071D01*
X24494811Y-21433751D01*
X24664496Y-21843407D01*
X24751000Y-22278296D01*
X24751000Y-22721704D01*
X24664496Y-23156593D01*
X24494811Y-23566249D01*
X24248466Y-23934929D01*
X23934929Y-24248466D01*
X23566249Y-24494811D01*
X23156593Y-24664496D01*
X22775880Y-24740224D01*
X22721705Y-24751000D01*
X22278295Y-24751000D01*
X22224120Y-24740224D01*
X21843407Y-24664496D01*
X21433751Y-24494811D01*
X21065071Y-24248466D01*
X20751534Y-23934929D01*
X20505189Y-23566249D01*
X20335504Y-23156593D01*
X20249000Y-22721704D01*
X20249000Y-22278296D01*
X20335504Y-21843407D01*
X20505189Y-21433751D01*
X20751534Y-21065071D01*
X21065071Y-20751534D01*
X21433751Y-20505189D01*
X21843407Y-20335504D01*
X22224120Y-20259776D01*
X22278295Y-20249000D01*
X22721705Y-20249000D01*
X22775880Y-20259776D01*
G37*
G36*
X117775880Y-20259776D02*
G01*
X118156593Y-20335504D01*
X118566249Y-20505189D01*
X118934929Y-20751534D01*
X119248466Y-21065071D01*
X119494811Y-21433751D01*
X119664496Y-21843407D01*
X119751000Y-22278296D01*
X119751000Y-22721704D01*
X119664496Y-23156593D01*
X119494811Y-23566249D01*
X119248466Y-23934929D01*
X118934929Y-24248466D01*
X118566249Y-24494811D01*
X118156593Y-24664496D01*
X117775880Y-24740224D01*
X117721705Y-24751000D01*
X117278295Y-24751000D01*
X117224120Y-24740224D01*
X116843407Y-24664496D01*
X116433751Y-24494811D01*
X116065071Y-24248466D01*
X115751534Y-23934929D01*
X115505189Y-23566249D01*
X115335504Y-23156593D01*
X115249000Y-22721704D01*
X115249000Y-22278296D01*
X115335504Y-21843407D01*
X115505189Y-21433751D01*
X115751534Y-21065071D01*
X116065071Y-20751534D01*
X116433751Y-20505189D01*
X116843407Y-20335504D01*
X117224120Y-20259776D01*
X117278295Y-20249000D01*
X117721705Y-20249000D01*
X117775880Y-20259776D01*
G37*
G36*
X70275880Y-20259776D02*
G01*
X70656593Y-20335504D01*
X71066249Y-20505189D01*
X71434929Y-20751534D01*
X71748466Y-21065071D01*
X71994811Y-21433751D01*
X72164496Y-21843407D01*
X72251000Y-22278296D01*
X72251000Y-22721704D01*
X72164496Y-23156593D01*
X71994811Y-23566249D01*
X71748466Y-23934929D01*
X71434929Y-24248466D01*
X71066249Y-24494811D01*
X70656593Y-24664496D01*
X70275880Y-24740224D01*
X70221705Y-24751000D01*
X69778295Y-24751000D01*
X69724120Y-24740224D01*
X69343407Y-24664496D01*
X68933751Y-24494811D01*
X68565071Y-24248466D01*
X68251534Y-23934929D01*
X68005189Y-23566249D01*
X67835504Y-23156593D01*
X67749000Y-22721704D01*
X67749000Y-22278296D01*
X67835504Y-21843407D01*
X68005189Y-21433751D01*
X68251534Y-21065071D01*
X68565071Y-20751534D01*
X68933751Y-20505189D01*
X69343407Y-20335504D01*
X69724120Y-20259776D01*
X69778295Y-20249000D01*
X70221705Y-20249000D01*
X70275880Y-20259776D01*
G37*
G36*
X102631552Y-21066331D02*
G01*
X102713627Y-21100328D01*
X102713629Y-21100329D01*
X102721550Y-21105622D01*
X102787495Y-21149685D01*
X102850315Y-21212505D01*
X102899672Y-21286373D01*
X102933669Y-21368448D01*
X102951000Y-21455579D01*
X102951000Y-21544421D01*
X102933669Y-21631552D01*
X102910024Y-21688635D01*
X102899671Y-21713629D01*
X102850314Y-21787496D01*
X102787496Y-21850314D01*
X102713629Y-21899671D01*
X102713628Y-21899672D01*
X102713627Y-21899672D01*
X102631552Y-21933669D01*
X102544421Y-21951000D01*
X102455579Y-21951000D01*
X102368448Y-21933669D01*
X102286373Y-21899672D01*
X102286372Y-21899672D01*
X102286371Y-21899671D01*
X102212504Y-21850314D01*
X102149686Y-21787496D01*
X102100329Y-21713629D01*
X102089976Y-21688635D01*
X102066331Y-21631552D01*
X102049000Y-21544421D01*
X102049000Y-21455579D01*
X102066331Y-21368448D01*
X102100328Y-21286373D01*
X102149685Y-21212505D01*
X102212505Y-21149685D01*
X102278450Y-21105622D01*
X102286371Y-21100329D01*
X102286373Y-21100328D01*
X102368448Y-21066331D01*
X102455579Y-21049000D01*
X102544421Y-21049000D01*
X102631552Y-21066331D01*
G37*
G36*
X57631552Y-21066331D02*
G01*
X57713627Y-21100328D01*
X57713629Y-21100329D01*
X57721550Y-21105622D01*
X57787495Y-21149685D01*
X57850315Y-21212505D01*
X57899672Y-21286373D01*
X57933669Y-21368448D01*
X57951000Y-21455579D01*
X57951000Y-21544421D01*
X57933669Y-21631552D01*
X57910024Y-21688635D01*
X57899671Y-21713629D01*
X57850314Y-21787496D01*
X57787496Y-21850314D01*
X57713629Y-21899671D01*
X57713628Y-21899672D01*
X57713627Y-21899672D01*
X57631552Y-21933669D01*
X57544421Y-21951000D01*
X57455579Y-21951000D01*
X57368448Y-21933669D01*
X57286373Y-21899672D01*
X57286372Y-21899672D01*
X57286371Y-21899671D01*
X57212504Y-21850314D01*
X57149686Y-21787496D01*
X57100329Y-21713629D01*
X57089976Y-21688635D01*
X57066331Y-21631552D01*
X57049000Y-21544421D01*
X57049000Y-21455579D01*
X57066331Y-21368448D01*
X57100328Y-21286373D01*
X57149685Y-21212505D01*
X57212505Y-21149685D01*
X57278450Y-21105622D01*
X57286371Y-21100329D01*
X57286373Y-21100328D01*
X57368448Y-21066331D01*
X57455579Y-21049000D01*
X57544421Y-21049000D01*
X57631552Y-21066331D01*
G37*
G36*
X110131552Y-21066331D02*
G01*
X110213627Y-21100328D01*
X110213629Y-21100329D01*
X110221550Y-21105622D01*
X110287495Y-21149685D01*
X110350315Y-21212505D01*
X110399672Y-21286373D01*
X110433669Y-21368448D01*
X110451000Y-21455579D01*
X110451000Y-21544421D01*
X110433669Y-21631552D01*
X110410024Y-21688635D01*
X110399671Y-21713629D01*
X110350314Y-21787496D01*
X110287496Y-21850314D01*
X110213629Y-21899671D01*
X110213628Y-21899672D01*
X110213627Y-21899672D01*
X110131552Y-21933669D01*
X110044421Y-21951000D01*
X109955579Y-21951000D01*
X109868448Y-21933669D01*
X109786373Y-21899672D01*
X109786372Y-21899672D01*
X109786371Y-21899671D01*
X109712504Y-21850314D01*
X109649686Y-21787496D01*
X109600329Y-21713629D01*
X109589976Y-21688635D01*
X109566331Y-21631552D01*
X109549000Y-21544421D01*
X109549000Y-21455579D01*
X109566331Y-21368448D01*
X109600328Y-21286373D01*
X109649685Y-21212505D01*
X109712505Y-21149685D01*
X109778450Y-21105622D01*
X109786371Y-21100329D01*
X109786373Y-21100328D01*
X109868448Y-21066331D01*
X109955579Y-21049000D01*
X110044421Y-21049000D01*
X110131552Y-21066331D01*
G37*
G36*
X80131552Y-21066331D02*
G01*
X80213627Y-21100328D01*
X80213629Y-21100329D01*
X80221550Y-21105622D01*
X80287495Y-21149685D01*
X80350315Y-21212505D01*
X80399672Y-21286373D01*
X80433669Y-21368448D01*
X80451000Y-21455579D01*
X80451000Y-21544421D01*
X80433669Y-21631552D01*
X80410024Y-21688635D01*
X80399671Y-21713629D01*
X80350314Y-21787496D01*
X80287496Y-21850314D01*
X80213629Y-21899671D01*
X80213628Y-21899672D01*
X80213627Y-21899672D01*
X80131552Y-21933669D01*
X80044421Y-21951000D01*
X79955579Y-21951000D01*
X79868448Y-21933669D01*
X79786373Y-21899672D01*
X79786372Y-21899672D01*
X79786371Y-21899671D01*
X79712504Y-21850314D01*
X79649686Y-21787496D01*
X79600329Y-21713629D01*
X79589976Y-21688635D01*
X79566331Y-21631552D01*
X79549000Y-21544421D01*
X79549000Y-21455579D01*
X79566331Y-21368448D01*
X79600328Y-21286373D01*
X79649685Y-21212505D01*
X79712505Y-21149685D01*
X79778450Y-21105622D01*
X79786371Y-21100329D01*
X79786373Y-21100328D01*
X79868448Y-21066331D01*
X79955579Y-21049000D01*
X80044421Y-21049000D01*
X80131552Y-21066331D01*
G37*
G36*
X112631552Y-21066331D02*
G01*
X112713627Y-21100328D01*
X112713629Y-21100329D01*
X112721550Y-21105622D01*
X112787495Y-21149685D01*
X112850315Y-21212505D01*
X112899672Y-21286373D01*
X112933669Y-21368448D01*
X112951000Y-21455579D01*
X112951000Y-21544421D01*
X112933669Y-21631552D01*
X112910024Y-21688635D01*
X112899671Y-21713629D01*
X112850314Y-21787496D01*
X112787496Y-21850314D01*
X112713629Y-21899671D01*
X112713628Y-21899672D01*
X112713627Y-21899672D01*
X112631552Y-21933669D01*
X112544421Y-21951000D01*
X112455579Y-21951000D01*
X112368448Y-21933669D01*
X112286373Y-21899672D01*
X112286372Y-21899672D01*
X112286371Y-21899671D01*
X112212504Y-21850314D01*
X112149686Y-21787496D01*
X112100329Y-21713629D01*
X112089976Y-21688635D01*
X112066331Y-21631552D01*
X112049000Y-21544421D01*
X112049000Y-21455579D01*
X112066331Y-21368448D01*
X112100328Y-21286373D01*
X112149685Y-21212505D01*
X112212505Y-21149685D01*
X112278450Y-21105622D01*
X112286371Y-21100329D01*
X112286373Y-21100328D01*
X112368448Y-21066331D01*
X112455579Y-21049000D01*
X112544421Y-21049000D01*
X112631552Y-21066331D01*
G37*
G36*
X47631552Y-21066331D02*
G01*
X47713627Y-21100328D01*
X47713629Y-21100329D01*
X47721550Y-21105622D01*
X47787495Y-21149685D01*
X47850315Y-21212505D01*
X47899672Y-21286373D01*
X47933669Y-21368448D01*
X47951000Y-21455579D01*
X47951000Y-21544421D01*
X47933669Y-21631552D01*
X47910024Y-21688635D01*
X47899671Y-21713629D01*
X47850314Y-21787496D01*
X47787496Y-21850314D01*
X47713629Y-21899671D01*
X47713628Y-21899672D01*
X47713627Y-21899672D01*
X47631552Y-21933669D01*
X47544421Y-21951000D01*
X47455579Y-21951000D01*
X47368448Y-21933669D01*
X47286373Y-21899672D01*
X47286372Y-21899672D01*
X47286371Y-21899671D01*
X47212504Y-21850314D01*
X47149686Y-21787496D01*
X47100329Y-21713629D01*
X47089976Y-21688635D01*
X47066331Y-21631552D01*
X47049000Y-21544421D01*
X47049000Y-21455579D01*
X47066331Y-21368448D01*
X47100328Y-21286373D01*
X47149685Y-21212505D01*
X47212505Y-21149685D01*
X47278450Y-21105622D01*
X47286371Y-21100329D01*
X47286373Y-21100328D01*
X47368448Y-21066331D01*
X47455579Y-21049000D01*
X47544421Y-21049000D01*
X47631552Y-21066331D01*
G37*
G36*
X60131552Y-21066331D02*
G01*
X60213627Y-21100328D01*
X60213629Y-21100329D01*
X60221550Y-21105622D01*
X60287495Y-21149685D01*
X60350315Y-21212505D01*
X60399672Y-21286373D01*
X60433669Y-21368448D01*
X60451000Y-21455579D01*
X60451000Y-21544421D01*
X60433669Y-21631552D01*
X60410024Y-21688635D01*
X60399671Y-21713629D01*
X60350314Y-21787496D01*
X60287496Y-21850314D01*
X60213629Y-21899671D01*
X60213628Y-21899672D01*
X60213627Y-21899672D01*
X60131552Y-21933669D01*
X60044421Y-21951000D01*
X59955579Y-21951000D01*
X59868448Y-21933669D01*
X59786373Y-21899672D01*
X59786372Y-21899672D01*
X59786371Y-21899671D01*
X59712504Y-21850314D01*
X59649686Y-21787496D01*
X59600329Y-21713629D01*
X59589976Y-21688635D01*
X59566331Y-21631552D01*
X59549000Y-21544421D01*
X59549000Y-21455579D01*
X59566331Y-21368448D01*
X59600328Y-21286373D01*
X59649685Y-21212505D01*
X59712505Y-21149685D01*
X59778450Y-21105622D01*
X59786371Y-21100329D01*
X59786373Y-21100328D01*
X59868448Y-21066331D01*
X59955579Y-21049000D01*
X60044421Y-21049000D01*
X60131552Y-21066331D01*
G37*
G36*
X97631552Y-21066331D02*
G01*
X97713627Y-21100328D01*
X97713629Y-21100329D01*
X97721550Y-21105622D01*
X97787495Y-21149685D01*
X97850315Y-21212505D01*
X97899672Y-21286373D01*
X97933669Y-21368448D01*
X97951000Y-21455579D01*
X97951000Y-21544421D01*
X97933669Y-21631552D01*
X97910024Y-21688635D01*
X97899671Y-21713629D01*
X97850314Y-21787496D01*
X97787496Y-21850314D01*
X97713629Y-21899671D01*
X97713628Y-21899672D01*
X97713627Y-21899672D01*
X97631552Y-21933669D01*
X97544421Y-21951000D01*
X97455579Y-21951000D01*
X97368448Y-21933669D01*
X97286373Y-21899672D01*
X97286372Y-21899672D01*
X97286371Y-21899671D01*
X97212504Y-21850314D01*
X97149686Y-21787496D01*
X97100329Y-21713629D01*
X97089976Y-21688635D01*
X97066331Y-21631552D01*
X97049000Y-21544421D01*
X97049000Y-21455579D01*
X97066331Y-21368448D01*
X97100328Y-21286373D01*
X97149685Y-21212505D01*
X97212505Y-21149685D01*
X97278450Y-21105622D01*
X97286371Y-21100329D01*
X97286373Y-21100328D01*
X97368448Y-21066331D01*
X97455579Y-21049000D01*
X97544421Y-21049000D01*
X97631552Y-21066331D01*
G37*
G36*
X100131552Y-21066331D02*
G01*
X100213627Y-21100328D01*
X100213629Y-21100329D01*
X100221550Y-21105622D01*
X100287495Y-21149685D01*
X100350315Y-21212505D01*
X100399672Y-21286373D01*
X100433669Y-21368448D01*
X100451000Y-21455579D01*
X100451000Y-21544421D01*
X100433669Y-21631552D01*
X100410024Y-21688635D01*
X100399671Y-21713629D01*
X100350314Y-21787496D01*
X100287496Y-21850314D01*
X100213629Y-21899671D01*
X100213628Y-21899672D01*
X100213627Y-21899672D01*
X100131552Y-21933669D01*
X100044421Y-21951000D01*
X99955579Y-21951000D01*
X99868448Y-21933669D01*
X99786373Y-21899672D01*
X99786372Y-21899672D01*
X99786371Y-21899671D01*
X99712504Y-21850314D01*
X99649686Y-21787496D01*
X99600329Y-21713629D01*
X99589976Y-21688635D01*
X99566331Y-21631552D01*
X99549000Y-21544421D01*
X99549000Y-21455579D01*
X99566331Y-21368448D01*
X99600328Y-21286373D01*
X99649685Y-21212505D01*
X99712505Y-21149685D01*
X99778450Y-21105622D01*
X99786371Y-21100329D01*
X99786373Y-21100328D01*
X99868448Y-21066331D01*
X99955579Y-21049000D01*
X100044421Y-21049000D01*
X100131552Y-21066331D01*
G37*
G36*
X65131552Y-21066331D02*
G01*
X65213627Y-21100328D01*
X65213629Y-21100329D01*
X65221550Y-21105622D01*
X65287495Y-21149685D01*
X65350315Y-21212505D01*
X65399672Y-21286373D01*
X65433669Y-21368448D01*
X65451000Y-21455579D01*
X65451000Y-21544421D01*
X65433669Y-21631552D01*
X65410024Y-21688635D01*
X65399671Y-21713629D01*
X65350314Y-21787496D01*
X65287496Y-21850314D01*
X65213629Y-21899671D01*
X65213628Y-21899672D01*
X65213627Y-21899672D01*
X65131552Y-21933669D01*
X65044421Y-21951000D01*
X64955579Y-21951000D01*
X64868448Y-21933669D01*
X64786373Y-21899672D01*
X64786372Y-21899672D01*
X64786371Y-21899671D01*
X64712504Y-21850314D01*
X64649686Y-21787496D01*
X64600329Y-21713629D01*
X64589976Y-21688635D01*
X64566331Y-21631552D01*
X64549000Y-21544421D01*
X64549000Y-21455579D01*
X64566331Y-21368448D01*
X64600328Y-21286373D01*
X64649685Y-21212505D01*
X64712505Y-21149685D01*
X64778450Y-21105622D01*
X64786371Y-21100329D01*
X64786373Y-21100328D01*
X64868448Y-21066331D01*
X64955579Y-21049000D01*
X65044421Y-21049000D01*
X65131552Y-21066331D01*
G37*
G36*
X40131552Y-21066331D02*
G01*
X40213627Y-21100328D01*
X40213629Y-21100329D01*
X40221550Y-21105622D01*
X40287495Y-21149685D01*
X40350315Y-21212505D01*
X40399672Y-21286373D01*
X40433669Y-21368448D01*
X40451000Y-21455579D01*
X40451000Y-21544421D01*
X40433669Y-21631552D01*
X40410024Y-21688635D01*
X40399671Y-21713629D01*
X40350314Y-21787496D01*
X40287496Y-21850314D01*
X40213629Y-21899671D01*
X40213628Y-21899672D01*
X40213627Y-21899672D01*
X40131552Y-21933669D01*
X40044421Y-21951000D01*
X39955579Y-21951000D01*
X39868448Y-21933669D01*
X39786373Y-21899672D01*
X39786372Y-21899672D01*
X39786371Y-21899671D01*
X39712504Y-21850314D01*
X39649686Y-21787496D01*
X39600329Y-21713629D01*
X39589976Y-21688635D01*
X39566331Y-21631552D01*
X39549000Y-21544421D01*
X39549000Y-21455579D01*
X39566331Y-21368448D01*
X39600328Y-21286373D01*
X39649685Y-21212505D01*
X39712505Y-21149685D01*
X39778450Y-21105622D01*
X39786371Y-21100329D01*
X39786373Y-21100328D01*
X39868448Y-21066331D01*
X39955579Y-21049000D01*
X40044421Y-21049000D01*
X40131552Y-21066331D01*
G37*
G36*
X30131552Y-21066331D02*
G01*
X30213627Y-21100328D01*
X30213629Y-21100329D01*
X30221550Y-21105622D01*
X30287495Y-21149685D01*
X30350315Y-21212505D01*
X30399672Y-21286373D01*
X30433669Y-21368448D01*
X30451000Y-21455579D01*
X30451000Y-21544421D01*
X30433669Y-21631552D01*
X30410024Y-21688635D01*
X30399671Y-21713629D01*
X30350314Y-21787496D01*
X30287496Y-21850314D01*
X30213629Y-21899671D01*
X30213628Y-21899672D01*
X30213627Y-21899672D01*
X30131552Y-21933669D01*
X30044421Y-21951000D01*
X29955579Y-21951000D01*
X29868448Y-21933669D01*
X29786373Y-21899672D01*
X29786372Y-21899672D01*
X29786371Y-21899671D01*
X29712504Y-21850314D01*
X29649686Y-21787496D01*
X29600329Y-21713629D01*
X29589976Y-21688635D01*
X29566331Y-21631552D01*
X29549000Y-21544421D01*
X29549000Y-21455579D01*
X29566331Y-21368448D01*
X29600328Y-21286373D01*
X29649685Y-21212505D01*
X29712505Y-21149685D01*
X29778450Y-21105622D01*
X29786371Y-21100329D01*
X29786373Y-21100328D01*
X29868448Y-21066331D01*
X29955579Y-21049000D01*
X30044421Y-21049000D01*
X30131552Y-21066331D01*
G37*
G36*
X52631552Y-21066331D02*
G01*
X52713627Y-21100328D01*
X52713629Y-21100329D01*
X52721550Y-21105622D01*
X52787495Y-21149685D01*
X52850315Y-21212505D01*
X52899672Y-21286373D01*
X52933669Y-21368448D01*
X52951000Y-21455579D01*
X52951000Y-21544421D01*
X52933669Y-21631552D01*
X52910024Y-21688635D01*
X52899671Y-21713629D01*
X52850314Y-21787496D01*
X52787496Y-21850314D01*
X52713629Y-21899671D01*
X52713628Y-21899672D01*
X52713627Y-21899672D01*
X52631552Y-21933669D01*
X52544421Y-21951000D01*
X52455579Y-21951000D01*
X52368448Y-21933669D01*
X52286373Y-21899672D01*
X52286372Y-21899672D01*
X52286371Y-21899671D01*
X52212504Y-21850314D01*
X52149686Y-21787496D01*
X52100329Y-21713629D01*
X52089976Y-21688635D01*
X52066331Y-21631552D01*
X52049000Y-21544421D01*
X52049000Y-21455579D01*
X52066331Y-21368448D01*
X52100328Y-21286373D01*
X52149685Y-21212505D01*
X52212505Y-21149685D01*
X52278450Y-21105622D01*
X52286371Y-21100329D01*
X52286373Y-21100328D01*
X52368448Y-21066331D01*
X52455579Y-21049000D01*
X52544421Y-21049000D01*
X52631552Y-21066331D01*
G37*
G36*
X45131552Y-21066331D02*
G01*
X45213627Y-21100328D01*
X45213629Y-21100329D01*
X45221550Y-21105622D01*
X45287495Y-21149685D01*
X45350315Y-21212505D01*
X45399672Y-21286373D01*
X45433669Y-21368448D01*
X45451000Y-21455579D01*
X45451000Y-21544421D01*
X45433669Y-21631552D01*
X45410024Y-21688635D01*
X45399671Y-21713629D01*
X45350314Y-21787496D01*
X45287496Y-21850314D01*
X45213629Y-21899671D01*
X45213628Y-21899672D01*
X45213627Y-21899672D01*
X45131552Y-21933669D01*
X45044421Y-21951000D01*
X44955579Y-21951000D01*
X44868448Y-21933669D01*
X44786373Y-21899672D01*
X44786372Y-21899672D01*
X44786371Y-21899671D01*
X44712504Y-21850314D01*
X44649686Y-21787496D01*
X44600329Y-21713629D01*
X44589976Y-21688635D01*
X44566331Y-21631552D01*
X44549000Y-21544421D01*
X44549000Y-21455579D01*
X44566331Y-21368448D01*
X44600328Y-21286373D01*
X44649685Y-21212505D01*
X44712505Y-21149685D01*
X44778450Y-21105622D01*
X44786371Y-21100329D01*
X44786373Y-21100328D01*
X44868448Y-21066331D01*
X44955579Y-21049000D01*
X45044421Y-21049000D01*
X45131552Y-21066331D01*
G37*
G36*
X27631552Y-21066331D02*
G01*
X27713627Y-21100328D01*
X27713629Y-21100329D01*
X27721550Y-21105622D01*
X27787495Y-21149685D01*
X27850315Y-21212505D01*
X27899672Y-21286373D01*
X27933669Y-21368448D01*
X27951000Y-21455579D01*
X27951000Y-21544421D01*
X27933669Y-21631552D01*
X27910024Y-21688635D01*
X27899671Y-21713629D01*
X27850314Y-21787496D01*
X27787496Y-21850314D01*
X27713629Y-21899671D01*
X27713628Y-21899672D01*
X27713627Y-21899672D01*
X27631552Y-21933669D01*
X27544421Y-21951000D01*
X27455579Y-21951000D01*
X27368448Y-21933669D01*
X27286373Y-21899672D01*
X27286372Y-21899672D01*
X27286371Y-21899671D01*
X27212504Y-21850314D01*
X27149686Y-21787496D01*
X27100329Y-21713629D01*
X27089976Y-21688635D01*
X27066331Y-21631552D01*
X27049000Y-21544421D01*
X27049000Y-21455579D01*
X27066331Y-21368448D01*
X27100328Y-21286373D01*
X27149685Y-21212505D01*
X27212505Y-21149685D01*
X27278450Y-21105622D01*
X27286371Y-21100329D01*
X27286373Y-21100328D01*
X27368448Y-21066331D01*
X27455579Y-21049000D01*
X27544421Y-21049000D01*
X27631552Y-21066331D01*
G37*
G36*
X105131552Y-21066331D02*
G01*
X105213627Y-21100328D01*
X105213629Y-21100329D01*
X105221550Y-21105622D01*
X105287495Y-21149685D01*
X105350315Y-21212505D01*
X105399672Y-21286373D01*
X105433669Y-21368448D01*
X105451000Y-21455579D01*
X105451000Y-21544421D01*
X105433669Y-21631552D01*
X105410024Y-21688635D01*
X105399671Y-21713629D01*
X105350314Y-21787496D01*
X105287496Y-21850314D01*
X105213629Y-21899671D01*
X105213628Y-21899672D01*
X105213627Y-21899672D01*
X105131552Y-21933669D01*
X105044421Y-21951000D01*
X104955579Y-21951000D01*
X104868448Y-21933669D01*
X104786373Y-21899672D01*
X104786372Y-21899672D01*
X104786371Y-21899671D01*
X104712504Y-21850314D01*
X104649686Y-21787496D01*
X104600329Y-21713629D01*
X104589976Y-21688635D01*
X104566331Y-21631552D01*
X104549000Y-21544421D01*
X104549000Y-21455579D01*
X104566331Y-21368448D01*
X104600328Y-21286373D01*
X104649685Y-21212505D01*
X104712505Y-21149685D01*
X104778450Y-21105622D01*
X104786371Y-21100329D01*
X104786373Y-21100328D01*
X104868448Y-21066331D01*
X104955579Y-21049000D01*
X105044421Y-21049000D01*
X105131552Y-21066331D01*
G37*
G36*
X42631552Y-21066331D02*
G01*
X42713627Y-21100328D01*
X42713629Y-21100329D01*
X42721550Y-21105622D01*
X42787495Y-21149685D01*
X42850315Y-21212505D01*
X42899672Y-21286373D01*
X42933669Y-21368448D01*
X42951000Y-21455579D01*
X42951000Y-21544421D01*
X42933669Y-21631552D01*
X42910024Y-21688635D01*
X42899671Y-21713629D01*
X42850314Y-21787496D01*
X42787496Y-21850314D01*
X42713629Y-21899671D01*
X42713628Y-21899672D01*
X42713627Y-21899672D01*
X42631552Y-21933669D01*
X42544421Y-21951000D01*
X42455579Y-21951000D01*
X42368448Y-21933669D01*
X42286373Y-21899672D01*
X42286372Y-21899672D01*
X42286371Y-21899671D01*
X42212504Y-21850314D01*
X42149686Y-21787496D01*
X42100329Y-21713629D01*
X42089976Y-21688635D01*
X42066331Y-21631552D01*
X42049000Y-21544421D01*
X42049000Y-21455579D01*
X42066331Y-21368448D01*
X42100328Y-21286373D01*
X42149685Y-21212505D01*
X42212505Y-21149685D01*
X42278450Y-21105622D01*
X42286371Y-21100329D01*
X42286373Y-21100328D01*
X42368448Y-21066331D01*
X42455579Y-21049000D01*
X42544421Y-21049000D01*
X42631552Y-21066331D01*
G37*
G36*
X50131552Y-21066331D02*
G01*
X50213627Y-21100328D01*
X50213629Y-21100329D01*
X50221550Y-21105622D01*
X50287495Y-21149685D01*
X50350315Y-21212505D01*
X50399672Y-21286373D01*
X50433669Y-21368448D01*
X50451000Y-21455579D01*
X50451000Y-21544421D01*
X50433669Y-21631552D01*
X50410024Y-21688635D01*
X50399671Y-21713629D01*
X50350314Y-21787496D01*
X50287496Y-21850314D01*
X50213629Y-21899671D01*
X50213628Y-21899672D01*
X50213627Y-21899672D01*
X50131552Y-21933669D01*
X50044421Y-21951000D01*
X49955579Y-21951000D01*
X49868448Y-21933669D01*
X49786373Y-21899672D01*
X49786372Y-21899672D01*
X49786371Y-21899671D01*
X49712504Y-21850314D01*
X49649686Y-21787496D01*
X49600329Y-21713629D01*
X49589976Y-21688635D01*
X49566331Y-21631552D01*
X49549000Y-21544421D01*
X49549000Y-21455579D01*
X49566331Y-21368448D01*
X49600328Y-21286373D01*
X49649685Y-21212505D01*
X49712505Y-21149685D01*
X49778450Y-21105622D01*
X49786371Y-21100329D01*
X49786373Y-21100328D01*
X49868448Y-21066331D01*
X49955579Y-21049000D01*
X50044421Y-21049000D01*
X50131552Y-21066331D01*
G37*
G36*
X95131552Y-21066331D02*
G01*
X95213627Y-21100328D01*
X95213629Y-21100329D01*
X95221550Y-21105622D01*
X95287495Y-21149685D01*
X95350315Y-21212505D01*
X95399672Y-21286373D01*
X95433669Y-21368448D01*
X95451000Y-21455579D01*
X95451000Y-21544421D01*
X95433669Y-21631552D01*
X95410024Y-21688635D01*
X95399671Y-21713629D01*
X95350314Y-21787496D01*
X95287496Y-21850314D01*
X95213629Y-21899671D01*
X95213628Y-21899672D01*
X95213627Y-21899672D01*
X95131552Y-21933669D01*
X95044421Y-21951000D01*
X94955579Y-21951000D01*
X94868448Y-21933669D01*
X94786373Y-21899672D01*
X94786372Y-21899672D01*
X94786371Y-21899671D01*
X94712504Y-21850314D01*
X94649686Y-21787496D01*
X94600329Y-21713629D01*
X94589976Y-21688635D01*
X94566331Y-21631552D01*
X94549000Y-21544421D01*
X94549000Y-21455579D01*
X94566331Y-21368448D01*
X94600328Y-21286373D01*
X94649685Y-21212505D01*
X94712505Y-21149685D01*
X94778450Y-21105622D01*
X94786371Y-21100329D01*
X94786373Y-21100328D01*
X94868448Y-21066331D01*
X94955579Y-21049000D01*
X95044421Y-21049000D01*
X95131552Y-21066331D01*
G37*
G36*
X90131552Y-21066331D02*
G01*
X90213627Y-21100328D01*
X90213629Y-21100329D01*
X90221550Y-21105622D01*
X90287495Y-21149685D01*
X90350315Y-21212505D01*
X90399672Y-21286373D01*
X90433669Y-21368448D01*
X90451000Y-21455579D01*
X90451000Y-21544421D01*
X90433669Y-21631552D01*
X90410024Y-21688635D01*
X90399671Y-21713629D01*
X90350314Y-21787496D01*
X90287496Y-21850314D01*
X90213629Y-21899671D01*
X90213628Y-21899672D01*
X90213627Y-21899672D01*
X90131552Y-21933669D01*
X90044421Y-21951000D01*
X89955579Y-21951000D01*
X89868448Y-21933669D01*
X89786373Y-21899672D01*
X89786372Y-21899672D01*
X89786371Y-21899671D01*
X89712504Y-21850314D01*
X89649686Y-21787496D01*
X89600329Y-21713629D01*
X89589976Y-21688635D01*
X89566331Y-21631552D01*
X89549000Y-21544421D01*
X89549000Y-21455579D01*
X89566331Y-21368448D01*
X89600328Y-21286373D01*
X89649685Y-21212505D01*
X89712505Y-21149685D01*
X89778450Y-21105622D01*
X89786371Y-21100329D01*
X89786373Y-21100328D01*
X89868448Y-21066331D01*
X89955579Y-21049000D01*
X90044421Y-21049000D01*
X90131552Y-21066331D01*
G37*
G36*
X75131552Y-21066331D02*
G01*
X75213627Y-21100328D01*
X75213629Y-21100329D01*
X75221550Y-21105622D01*
X75287495Y-21149685D01*
X75350315Y-21212505D01*
X75399672Y-21286373D01*
X75433669Y-21368448D01*
X75451000Y-21455579D01*
X75451000Y-21544421D01*
X75433669Y-21631552D01*
X75410024Y-21688635D01*
X75399671Y-21713629D01*
X75350314Y-21787496D01*
X75287496Y-21850314D01*
X75213629Y-21899671D01*
X75213628Y-21899672D01*
X75213627Y-21899672D01*
X75131552Y-21933669D01*
X75044421Y-21951000D01*
X74955579Y-21951000D01*
X74868448Y-21933669D01*
X74786373Y-21899672D01*
X74786372Y-21899672D01*
X74786371Y-21899671D01*
X74712504Y-21850314D01*
X74649686Y-21787496D01*
X74600329Y-21713629D01*
X74589976Y-21688635D01*
X74566331Y-21631552D01*
X74549000Y-21544421D01*
X74549000Y-21455579D01*
X74566331Y-21368448D01*
X74600328Y-21286373D01*
X74649685Y-21212505D01*
X74712505Y-21149685D01*
X74778450Y-21105622D01*
X74786371Y-21100329D01*
X74786373Y-21100328D01*
X74868448Y-21066331D01*
X74955579Y-21049000D01*
X75044421Y-21049000D01*
X75131552Y-21066331D01*
G37*
G36*
X82631552Y-21066331D02*
G01*
X82713627Y-21100328D01*
X82713629Y-21100329D01*
X82721550Y-21105622D01*
X82787495Y-21149685D01*
X82850315Y-21212505D01*
X82899672Y-21286373D01*
X82933669Y-21368448D01*
X82951000Y-21455579D01*
X82951000Y-21544421D01*
X82933669Y-21631552D01*
X82910024Y-21688635D01*
X82899671Y-21713629D01*
X82850314Y-21787496D01*
X82787496Y-21850314D01*
X82713629Y-21899671D01*
X82713628Y-21899672D01*
X82713627Y-21899672D01*
X82631552Y-21933669D01*
X82544421Y-21951000D01*
X82455579Y-21951000D01*
X82368448Y-21933669D01*
X82286373Y-21899672D01*
X82286372Y-21899672D01*
X82286371Y-21899671D01*
X82212504Y-21850314D01*
X82149686Y-21787496D01*
X82100329Y-21713629D01*
X82089976Y-21688635D01*
X82066331Y-21631552D01*
X82049000Y-21544421D01*
X82049000Y-21455579D01*
X82066331Y-21368448D01*
X82100328Y-21286373D01*
X82149685Y-21212505D01*
X82212505Y-21149685D01*
X82278450Y-21105622D01*
X82286371Y-21100329D01*
X82286373Y-21100328D01*
X82368448Y-21066331D01*
X82455579Y-21049000D01*
X82544421Y-21049000D01*
X82631552Y-21066331D01*
G37*
G36*
X87631552Y-21066331D02*
G01*
X87713627Y-21100328D01*
X87713629Y-21100329D01*
X87721550Y-21105622D01*
X87787495Y-21149685D01*
X87850315Y-21212505D01*
X87899672Y-21286373D01*
X87933669Y-21368448D01*
X87951000Y-21455579D01*
X87951000Y-21544421D01*
X87933669Y-21631552D01*
X87910024Y-21688635D01*
X87899671Y-21713629D01*
X87850314Y-21787496D01*
X87787496Y-21850314D01*
X87713629Y-21899671D01*
X87713628Y-21899672D01*
X87713627Y-21899672D01*
X87631552Y-21933669D01*
X87544421Y-21951000D01*
X87455579Y-21951000D01*
X87368448Y-21933669D01*
X87286373Y-21899672D01*
X87286372Y-21899672D01*
X87286371Y-21899671D01*
X87212504Y-21850314D01*
X87149686Y-21787496D01*
X87100329Y-21713629D01*
X87089976Y-21688635D01*
X87066331Y-21631552D01*
X87049000Y-21544421D01*
X87049000Y-21455579D01*
X87066331Y-21368448D01*
X87100328Y-21286373D01*
X87149685Y-21212505D01*
X87212505Y-21149685D01*
X87278450Y-21105622D01*
X87286371Y-21100329D01*
X87286373Y-21100328D01*
X87368448Y-21066331D01*
X87455579Y-21049000D01*
X87544421Y-21049000D01*
X87631552Y-21066331D01*
G37*
G36*
X107631552Y-21066331D02*
G01*
X107713627Y-21100328D01*
X107713629Y-21100329D01*
X107721550Y-21105622D01*
X107787495Y-21149685D01*
X107850315Y-21212505D01*
X107899672Y-21286373D01*
X107933669Y-21368448D01*
X107951000Y-21455579D01*
X107951000Y-21544421D01*
X107933669Y-21631552D01*
X107910024Y-21688635D01*
X107899671Y-21713629D01*
X107850314Y-21787496D01*
X107787496Y-21850314D01*
X107713629Y-21899671D01*
X107713628Y-21899672D01*
X107713627Y-21899672D01*
X107631552Y-21933669D01*
X107544421Y-21951000D01*
X107455579Y-21951000D01*
X107368448Y-21933669D01*
X107286373Y-21899672D01*
X107286372Y-21899672D01*
X107286371Y-21899671D01*
X107212504Y-21850314D01*
X107149686Y-21787496D01*
X107100329Y-21713629D01*
X107089976Y-21688635D01*
X107066331Y-21631552D01*
X107049000Y-21544421D01*
X107049000Y-21455579D01*
X107066331Y-21368448D01*
X107100328Y-21286373D01*
X107149685Y-21212505D01*
X107212505Y-21149685D01*
X107278450Y-21105622D01*
X107286371Y-21100329D01*
X107286373Y-21100328D01*
X107368448Y-21066331D01*
X107455579Y-21049000D01*
X107544421Y-21049000D01*
X107631552Y-21066331D01*
G37*
G36*
X37631552Y-21066331D02*
G01*
X37713627Y-21100328D01*
X37713629Y-21100329D01*
X37721550Y-21105622D01*
X37787495Y-21149685D01*
X37850315Y-21212505D01*
X37899672Y-21286373D01*
X37933669Y-21368448D01*
X37951000Y-21455579D01*
X37951000Y-21544421D01*
X37933669Y-21631552D01*
X37910024Y-21688635D01*
X37899671Y-21713629D01*
X37850314Y-21787496D01*
X37787496Y-21850314D01*
X37713629Y-21899671D01*
X37713628Y-21899672D01*
X37713627Y-21899672D01*
X37631552Y-21933669D01*
X37544421Y-21951000D01*
X37455579Y-21951000D01*
X37368448Y-21933669D01*
X37286373Y-21899672D01*
X37286372Y-21899672D01*
X37286371Y-21899671D01*
X37212504Y-21850314D01*
X37149686Y-21787496D01*
X37100329Y-21713629D01*
X37089976Y-21688635D01*
X37066331Y-21631552D01*
X37049000Y-21544421D01*
X37049000Y-21455579D01*
X37066331Y-21368448D01*
X37100328Y-21286373D01*
X37149685Y-21212505D01*
X37212505Y-21149685D01*
X37278450Y-21105622D01*
X37286371Y-21100329D01*
X37286373Y-21100328D01*
X37368448Y-21066331D01*
X37455579Y-21049000D01*
X37544421Y-21049000D01*
X37631552Y-21066331D01*
G37*
G36*
X35131552Y-21066331D02*
G01*
X35213627Y-21100328D01*
X35213629Y-21100329D01*
X35221550Y-21105622D01*
X35287495Y-21149685D01*
X35350315Y-21212505D01*
X35399672Y-21286373D01*
X35433669Y-21368448D01*
X35451000Y-21455579D01*
X35451000Y-21544421D01*
X35433669Y-21631552D01*
X35410024Y-21688635D01*
X35399671Y-21713629D01*
X35350314Y-21787496D01*
X35287496Y-21850314D01*
X35213629Y-21899671D01*
X35213628Y-21899672D01*
X35213627Y-21899672D01*
X35131552Y-21933669D01*
X35044421Y-21951000D01*
X34955579Y-21951000D01*
X34868448Y-21933669D01*
X34786373Y-21899672D01*
X34786372Y-21899672D01*
X34786371Y-21899671D01*
X34712504Y-21850314D01*
X34649686Y-21787496D01*
X34600329Y-21713629D01*
X34589976Y-21688635D01*
X34566331Y-21631552D01*
X34549000Y-21544421D01*
X34549000Y-21455579D01*
X34566331Y-21368448D01*
X34600328Y-21286373D01*
X34649685Y-21212505D01*
X34712505Y-21149685D01*
X34778450Y-21105622D01*
X34786371Y-21100329D01*
X34786373Y-21100328D01*
X34868448Y-21066331D01*
X34955579Y-21049000D01*
X35044421Y-21049000D01*
X35131552Y-21066331D01*
G37*
G36*
X32631552Y-21066331D02*
G01*
X32713627Y-21100328D01*
X32713629Y-21100329D01*
X32721550Y-21105622D01*
X32787495Y-21149685D01*
X32850315Y-21212505D01*
X32899672Y-21286373D01*
X32933669Y-21368448D01*
X32951000Y-21455579D01*
X32951000Y-21544421D01*
X32933669Y-21631552D01*
X32910024Y-21688635D01*
X32899671Y-21713629D01*
X32850314Y-21787496D01*
X32787496Y-21850314D01*
X32713629Y-21899671D01*
X32713628Y-21899672D01*
X32713627Y-21899672D01*
X32631552Y-21933669D01*
X32544421Y-21951000D01*
X32455579Y-21951000D01*
X32368448Y-21933669D01*
X32286373Y-21899672D01*
X32286372Y-21899672D01*
X32286371Y-21899671D01*
X32212504Y-21850314D01*
X32149686Y-21787496D01*
X32100329Y-21713629D01*
X32089976Y-21688635D01*
X32066331Y-21631552D01*
X32049000Y-21544421D01*
X32049000Y-21455579D01*
X32066331Y-21368448D01*
X32100328Y-21286373D01*
X32149685Y-21212505D01*
X32212505Y-21149685D01*
X32278450Y-21105622D01*
X32286371Y-21100329D01*
X32286373Y-21100328D01*
X32368448Y-21066331D01*
X32455579Y-21049000D01*
X32544421Y-21049000D01*
X32631552Y-21066331D01*
G37*
G36*
X55131552Y-21066331D02*
G01*
X55213627Y-21100328D01*
X55213629Y-21100329D01*
X55221550Y-21105622D01*
X55287495Y-21149685D01*
X55350315Y-21212505D01*
X55399672Y-21286373D01*
X55433669Y-21368448D01*
X55451000Y-21455579D01*
X55451000Y-21544421D01*
X55433669Y-21631552D01*
X55410024Y-21688635D01*
X55399671Y-21713629D01*
X55350314Y-21787496D01*
X55287496Y-21850314D01*
X55213629Y-21899671D01*
X55213628Y-21899672D01*
X55213627Y-21899672D01*
X55131552Y-21933669D01*
X55044421Y-21951000D01*
X54955579Y-21951000D01*
X54868448Y-21933669D01*
X54786373Y-21899672D01*
X54786372Y-21899672D01*
X54786371Y-21899671D01*
X54712504Y-21850314D01*
X54649686Y-21787496D01*
X54600329Y-21713629D01*
X54589976Y-21688635D01*
X54566331Y-21631552D01*
X54549000Y-21544421D01*
X54549000Y-21455579D01*
X54566331Y-21368448D01*
X54600328Y-21286373D01*
X54649685Y-21212505D01*
X54712505Y-21149685D01*
X54778450Y-21105622D01*
X54786371Y-21100329D01*
X54786373Y-21100328D01*
X54868448Y-21066331D01*
X54955579Y-21049000D01*
X55044421Y-21049000D01*
X55131552Y-21066331D01*
G37*
G36*
X77631552Y-21066331D02*
G01*
X77713627Y-21100328D01*
X77713629Y-21100329D01*
X77721550Y-21105622D01*
X77787495Y-21149685D01*
X77850315Y-21212505D01*
X77899672Y-21286373D01*
X77933669Y-21368448D01*
X77951000Y-21455579D01*
X77951000Y-21544421D01*
X77933669Y-21631552D01*
X77910024Y-21688635D01*
X77899671Y-21713629D01*
X77850314Y-21787496D01*
X77787496Y-21850314D01*
X77713629Y-21899671D01*
X77713628Y-21899672D01*
X77713627Y-21899672D01*
X77631552Y-21933669D01*
X77544421Y-21951000D01*
X77455579Y-21951000D01*
X77368448Y-21933669D01*
X77286373Y-21899672D01*
X77286372Y-21899672D01*
X77286371Y-21899671D01*
X77212504Y-21850314D01*
X77149686Y-21787496D01*
X77100329Y-21713629D01*
X77089976Y-21688635D01*
X77066331Y-21631552D01*
X77049000Y-21544421D01*
X77049000Y-21455579D01*
X77066331Y-21368448D01*
X77100328Y-21286373D01*
X77149685Y-21212505D01*
X77212505Y-21149685D01*
X77278450Y-21105622D01*
X77286371Y-21100329D01*
X77286373Y-21100328D01*
X77368448Y-21066331D01*
X77455579Y-21049000D01*
X77544421Y-21049000D01*
X77631552Y-21066331D01*
G37*
G36*
X62631552Y-21066331D02*
G01*
X62713627Y-21100328D01*
X62713629Y-21100329D01*
X62721550Y-21105622D01*
X62787495Y-21149685D01*
X62850315Y-21212505D01*
X62899672Y-21286373D01*
X62933669Y-21368448D01*
X62951000Y-21455579D01*
X62951000Y-21544421D01*
X62933669Y-21631552D01*
X62910024Y-21688635D01*
X62899671Y-21713629D01*
X62850314Y-21787496D01*
X62787496Y-21850314D01*
X62713629Y-21899671D01*
X62713628Y-21899672D01*
X62713627Y-21899672D01*
X62631552Y-21933669D01*
X62544421Y-21951000D01*
X62455579Y-21951000D01*
X62368448Y-21933669D01*
X62286373Y-21899672D01*
X62286372Y-21899672D01*
X62286371Y-21899671D01*
X62212504Y-21850314D01*
X62149686Y-21787496D01*
X62100329Y-21713629D01*
X62089976Y-21688635D01*
X62066331Y-21631552D01*
X62049000Y-21544421D01*
X62049000Y-21455579D01*
X62066331Y-21368448D01*
X62100328Y-21286373D01*
X62149685Y-21212505D01*
X62212505Y-21149685D01*
X62278450Y-21105622D01*
X62286371Y-21100329D01*
X62286373Y-21100328D01*
X62368448Y-21066331D01*
X62455579Y-21049000D01*
X62544421Y-21049000D01*
X62631552Y-21066331D01*
G37*
G36*
X85131552Y-21066331D02*
G01*
X85213627Y-21100328D01*
X85213629Y-21100329D01*
X85221550Y-21105622D01*
X85287495Y-21149685D01*
X85350315Y-21212505D01*
X85399672Y-21286373D01*
X85433669Y-21368448D01*
X85451000Y-21455579D01*
X85451000Y-21544421D01*
X85433669Y-21631552D01*
X85410024Y-21688635D01*
X85399671Y-21713629D01*
X85350314Y-21787496D01*
X85287496Y-21850314D01*
X85213629Y-21899671D01*
X85213628Y-21899672D01*
X85213627Y-21899672D01*
X85131552Y-21933669D01*
X85044421Y-21951000D01*
X84955579Y-21951000D01*
X84868448Y-21933669D01*
X84786373Y-21899672D01*
X84786372Y-21899672D01*
X84786371Y-21899671D01*
X84712504Y-21850314D01*
X84649686Y-21787496D01*
X84600329Y-21713629D01*
X84589976Y-21688635D01*
X84566331Y-21631552D01*
X84549000Y-21544421D01*
X84549000Y-21455579D01*
X84566331Y-21368448D01*
X84600328Y-21286373D01*
X84649685Y-21212505D01*
X84712505Y-21149685D01*
X84778450Y-21105622D01*
X84786371Y-21100329D01*
X84786373Y-21100328D01*
X84868448Y-21066331D01*
X84955579Y-21049000D01*
X85044421Y-21049000D01*
X85131552Y-21066331D01*
G37*
G36*
X92631552Y-21066331D02*
G01*
X92713627Y-21100328D01*
X92713629Y-21100329D01*
X92721550Y-21105622D01*
X92787495Y-21149685D01*
X92850315Y-21212505D01*
X92899672Y-21286373D01*
X92933669Y-21368448D01*
X92951000Y-21455579D01*
X92951000Y-21544421D01*
X92933669Y-21631552D01*
X92910024Y-21688635D01*
X92899671Y-21713629D01*
X92850314Y-21787496D01*
X92787496Y-21850314D01*
X92713629Y-21899671D01*
X92713628Y-21899672D01*
X92713627Y-21899672D01*
X92631552Y-21933669D01*
X92544421Y-21951000D01*
X92455579Y-21951000D01*
X92368448Y-21933669D01*
X92286373Y-21899672D01*
X92286372Y-21899672D01*
X92286371Y-21899671D01*
X92212504Y-21850314D01*
X92149686Y-21787496D01*
X92100329Y-21713629D01*
X92089976Y-21688635D01*
X92066331Y-21631552D01*
X92049000Y-21544421D01*
X92049000Y-21455579D01*
X92066331Y-21368448D01*
X92100328Y-21286373D01*
X92149685Y-21212505D01*
X92212505Y-21149685D01*
X92278450Y-21105622D01*
X92286371Y-21100329D01*
X92286373Y-21100328D01*
X92368448Y-21066331D01*
X92455579Y-21049000D01*
X92544421Y-21049000D01*
X92631552Y-21066331D01*
G37*
M02*
