G04 #@! TF.GenerationSoftware,KiCad,Pcbnew,5.1.2*
G04 #@! TF.CreationDate,2019-07-04T05:20:16+02:00*
G04 #@! TF.ProjectId,ledside_rev17,6c656473-6964-4655-9f72-657631372e6b,rev?*
G04 #@! TF.SameCoordinates,Original*
G04 #@! TF.FileFunction,Copper,L1,Top*
G04 #@! TF.FilePolarity,Positive*
%FSLAX46Y46*%
G04 Gerber Fmt 4.6, Leading zero omitted, Abs format (unit mm)*
G04 Created by KiCad (PCBNEW 5.1.2) date 2019-07-04 05:20:16*
%MOMM*%
%LPD*%
G04 APERTURE LIST*
%ADD10O,1.350000X1.350000*%
%ADD11R,1.350000X1.350000*%
%ADD12C,0.100000*%
%ADD13C,1.250000*%
%ADD14R,1.000000X1.600000*%
%ADD15R,0.650000X0.350000*%
%ADD16R,5.900000X1.600000*%
%ADD17C,0.700000*%
%ADD18C,4.400000*%
%ADD19R,2.400000X0.600000*%
%ADD20R,2.400000X1.600000*%
%ADD21R,0.900000X1.200000*%
%ADD22C,0.975000*%
%ADD23C,0.800000*%
%ADD24C,0.800000*%
%ADD25C,0.350000*%
%ADD26C,0.600000*%
%ADD27C,0.254000*%
G04 APERTURE END LIST*
D10*
X110500000Y-51200000D03*
D11*
X110500000Y-49200000D03*
D12*
G36*
X89799504Y-43226204D02*
G01*
X89823773Y-43229804D01*
X89847571Y-43235765D01*
X89870671Y-43244030D01*
X89892849Y-43254520D01*
X89913893Y-43267133D01*
X89933598Y-43281747D01*
X89951777Y-43298223D01*
X89968253Y-43316402D01*
X89982867Y-43336107D01*
X89995480Y-43357151D01*
X90005970Y-43379329D01*
X90014235Y-43402429D01*
X90020196Y-43426227D01*
X90023796Y-43450496D01*
X90025000Y-43475000D01*
X90025000Y-44725000D01*
X90023796Y-44749504D01*
X90020196Y-44773773D01*
X90014235Y-44797571D01*
X90005970Y-44820671D01*
X89995480Y-44842849D01*
X89982867Y-44863893D01*
X89968253Y-44883598D01*
X89951777Y-44901777D01*
X89933598Y-44918253D01*
X89913893Y-44932867D01*
X89892849Y-44945480D01*
X89870671Y-44955970D01*
X89847571Y-44964235D01*
X89823773Y-44970196D01*
X89799504Y-44973796D01*
X89775000Y-44975000D01*
X89025000Y-44975000D01*
X89000496Y-44973796D01*
X88976227Y-44970196D01*
X88952429Y-44964235D01*
X88929329Y-44955970D01*
X88907151Y-44945480D01*
X88886107Y-44932867D01*
X88866402Y-44918253D01*
X88848223Y-44901777D01*
X88831747Y-44883598D01*
X88817133Y-44863893D01*
X88804520Y-44842849D01*
X88794030Y-44820671D01*
X88785765Y-44797571D01*
X88779804Y-44773773D01*
X88776204Y-44749504D01*
X88775000Y-44725000D01*
X88775000Y-43475000D01*
X88776204Y-43450496D01*
X88779804Y-43426227D01*
X88785765Y-43402429D01*
X88794030Y-43379329D01*
X88804520Y-43357151D01*
X88817133Y-43336107D01*
X88831747Y-43316402D01*
X88848223Y-43298223D01*
X88866402Y-43281747D01*
X88886107Y-43267133D01*
X88907151Y-43254520D01*
X88929329Y-43244030D01*
X88952429Y-43235765D01*
X88976227Y-43229804D01*
X89000496Y-43226204D01*
X89025000Y-43225000D01*
X89775000Y-43225000D01*
X89799504Y-43226204D01*
X89799504Y-43226204D01*
G37*
D13*
X89400000Y-44100000D03*
D12*
G36*
X92599504Y-43226204D02*
G01*
X92623773Y-43229804D01*
X92647571Y-43235765D01*
X92670671Y-43244030D01*
X92692849Y-43254520D01*
X92713893Y-43267133D01*
X92733598Y-43281747D01*
X92751777Y-43298223D01*
X92768253Y-43316402D01*
X92782867Y-43336107D01*
X92795480Y-43357151D01*
X92805970Y-43379329D01*
X92814235Y-43402429D01*
X92820196Y-43426227D01*
X92823796Y-43450496D01*
X92825000Y-43475000D01*
X92825000Y-44725000D01*
X92823796Y-44749504D01*
X92820196Y-44773773D01*
X92814235Y-44797571D01*
X92805970Y-44820671D01*
X92795480Y-44842849D01*
X92782867Y-44863893D01*
X92768253Y-44883598D01*
X92751777Y-44901777D01*
X92733598Y-44918253D01*
X92713893Y-44932867D01*
X92692849Y-44945480D01*
X92670671Y-44955970D01*
X92647571Y-44964235D01*
X92623773Y-44970196D01*
X92599504Y-44973796D01*
X92575000Y-44975000D01*
X91825000Y-44975000D01*
X91800496Y-44973796D01*
X91776227Y-44970196D01*
X91752429Y-44964235D01*
X91729329Y-44955970D01*
X91707151Y-44945480D01*
X91686107Y-44932867D01*
X91666402Y-44918253D01*
X91648223Y-44901777D01*
X91631747Y-44883598D01*
X91617133Y-44863893D01*
X91604520Y-44842849D01*
X91594030Y-44820671D01*
X91585765Y-44797571D01*
X91579804Y-44773773D01*
X91576204Y-44749504D01*
X91575000Y-44725000D01*
X91575000Y-43475000D01*
X91576204Y-43450496D01*
X91579804Y-43426227D01*
X91585765Y-43402429D01*
X91594030Y-43379329D01*
X91604520Y-43357151D01*
X91617133Y-43336107D01*
X91631747Y-43316402D01*
X91648223Y-43298223D01*
X91666402Y-43281747D01*
X91686107Y-43267133D01*
X91707151Y-43254520D01*
X91729329Y-43244030D01*
X91752429Y-43235765D01*
X91776227Y-43229804D01*
X91800496Y-43226204D01*
X91825000Y-43225000D01*
X92575000Y-43225000D01*
X92599504Y-43226204D01*
X92599504Y-43226204D01*
G37*
D13*
X92200000Y-44100000D03*
D12*
G36*
X89799504Y-45926204D02*
G01*
X89823773Y-45929804D01*
X89847571Y-45935765D01*
X89870671Y-45944030D01*
X89892849Y-45954520D01*
X89913893Y-45967133D01*
X89933598Y-45981747D01*
X89951777Y-45998223D01*
X89968253Y-46016402D01*
X89982867Y-46036107D01*
X89995480Y-46057151D01*
X90005970Y-46079329D01*
X90014235Y-46102429D01*
X90020196Y-46126227D01*
X90023796Y-46150496D01*
X90025000Y-46175000D01*
X90025000Y-47425000D01*
X90023796Y-47449504D01*
X90020196Y-47473773D01*
X90014235Y-47497571D01*
X90005970Y-47520671D01*
X89995480Y-47542849D01*
X89982867Y-47563893D01*
X89968253Y-47583598D01*
X89951777Y-47601777D01*
X89933598Y-47618253D01*
X89913893Y-47632867D01*
X89892849Y-47645480D01*
X89870671Y-47655970D01*
X89847571Y-47664235D01*
X89823773Y-47670196D01*
X89799504Y-47673796D01*
X89775000Y-47675000D01*
X89025000Y-47675000D01*
X89000496Y-47673796D01*
X88976227Y-47670196D01*
X88952429Y-47664235D01*
X88929329Y-47655970D01*
X88907151Y-47645480D01*
X88886107Y-47632867D01*
X88866402Y-47618253D01*
X88848223Y-47601777D01*
X88831747Y-47583598D01*
X88817133Y-47563893D01*
X88804520Y-47542849D01*
X88794030Y-47520671D01*
X88785765Y-47497571D01*
X88779804Y-47473773D01*
X88776204Y-47449504D01*
X88775000Y-47425000D01*
X88775000Y-46175000D01*
X88776204Y-46150496D01*
X88779804Y-46126227D01*
X88785765Y-46102429D01*
X88794030Y-46079329D01*
X88804520Y-46057151D01*
X88817133Y-46036107D01*
X88831747Y-46016402D01*
X88848223Y-45998223D01*
X88866402Y-45981747D01*
X88886107Y-45967133D01*
X88907151Y-45954520D01*
X88929329Y-45944030D01*
X88952429Y-45935765D01*
X88976227Y-45929804D01*
X89000496Y-45926204D01*
X89025000Y-45925000D01*
X89775000Y-45925000D01*
X89799504Y-45926204D01*
X89799504Y-45926204D01*
G37*
D13*
X89400000Y-46800000D03*
D12*
G36*
X92599504Y-45926204D02*
G01*
X92623773Y-45929804D01*
X92647571Y-45935765D01*
X92670671Y-45944030D01*
X92692849Y-45954520D01*
X92713893Y-45967133D01*
X92733598Y-45981747D01*
X92751777Y-45998223D01*
X92768253Y-46016402D01*
X92782867Y-46036107D01*
X92795480Y-46057151D01*
X92805970Y-46079329D01*
X92814235Y-46102429D01*
X92820196Y-46126227D01*
X92823796Y-46150496D01*
X92825000Y-46175000D01*
X92825000Y-47425000D01*
X92823796Y-47449504D01*
X92820196Y-47473773D01*
X92814235Y-47497571D01*
X92805970Y-47520671D01*
X92795480Y-47542849D01*
X92782867Y-47563893D01*
X92768253Y-47583598D01*
X92751777Y-47601777D01*
X92733598Y-47618253D01*
X92713893Y-47632867D01*
X92692849Y-47645480D01*
X92670671Y-47655970D01*
X92647571Y-47664235D01*
X92623773Y-47670196D01*
X92599504Y-47673796D01*
X92575000Y-47675000D01*
X91825000Y-47675000D01*
X91800496Y-47673796D01*
X91776227Y-47670196D01*
X91752429Y-47664235D01*
X91729329Y-47655970D01*
X91707151Y-47645480D01*
X91686107Y-47632867D01*
X91666402Y-47618253D01*
X91648223Y-47601777D01*
X91631747Y-47583598D01*
X91617133Y-47563893D01*
X91604520Y-47542849D01*
X91594030Y-47520671D01*
X91585765Y-47497571D01*
X91579804Y-47473773D01*
X91576204Y-47449504D01*
X91575000Y-47425000D01*
X91575000Y-46175000D01*
X91576204Y-46150496D01*
X91579804Y-46126227D01*
X91585765Y-46102429D01*
X91594030Y-46079329D01*
X91604520Y-46057151D01*
X91617133Y-46036107D01*
X91631747Y-46016402D01*
X91648223Y-45998223D01*
X91666402Y-45981747D01*
X91686107Y-45967133D01*
X91707151Y-45954520D01*
X91729329Y-45944030D01*
X91752429Y-45935765D01*
X91776227Y-45929804D01*
X91800496Y-45926204D01*
X91825000Y-45925000D01*
X92575000Y-45925000D01*
X92599504Y-45926204D01*
X92599504Y-45926204D01*
G37*
D13*
X92200000Y-46800000D03*
D12*
G36*
X89799504Y-40526204D02*
G01*
X89823773Y-40529804D01*
X89847571Y-40535765D01*
X89870671Y-40544030D01*
X89892849Y-40554520D01*
X89913893Y-40567133D01*
X89933598Y-40581747D01*
X89951777Y-40598223D01*
X89968253Y-40616402D01*
X89982867Y-40636107D01*
X89995480Y-40657151D01*
X90005970Y-40679329D01*
X90014235Y-40702429D01*
X90020196Y-40726227D01*
X90023796Y-40750496D01*
X90025000Y-40775000D01*
X90025000Y-42025000D01*
X90023796Y-42049504D01*
X90020196Y-42073773D01*
X90014235Y-42097571D01*
X90005970Y-42120671D01*
X89995480Y-42142849D01*
X89982867Y-42163893D01*
X89968253Y-42183598D01*
X89951777Y-42201777D01*
X89933598Y-42218253D01*
X89913893Y-42232867D01*
X89892849Y-42245480D01*
X89870671Y-42255970D01*
X89847571Y-42264235D01*
X89823773Y-42270196D01*
X89799504Y-42273796D01*
X89775000Y-42275000D01*
X89025000Y-42275000D01*
X89000496Y-42273796D01*
X88976227Y-42270196D01*
X88952429Y-42264235D01*
X88929329Y-42255970D01*
X88907151Y-42245480D01*
X88886107Y-42232867D01*
X88866402Y-42218253D01*
X88848223Y-42201777D01*
X88831747Y-42183598D01*
X88817133Y-42163893D01*
X88804520Y-42142849D01*
X88794030Y-42120671D01*
X88785765Y-42097571D01*
X88779804Y-42073773D01*
X88776204Y-42049504D01*
X88775000Y-42025000D01*
X88775000Y-40775000D01*
X88776204Y-40750496D01*
X88779804Y-40726227D01*
X88785765Y-40702429D01*
X88794030Y-40679329D01*
X88804520Y-40657151D01*
X88817133Y-40636107D01*
X88831747Y-40616402D01*
X88848223Y-40598223D01*
X88866402Y-40581747D01*
X88886107Y-40567133D01*
X88907151Y-40554520D01*
X88929329Y-40544030D01*
X88952429Y-40535765D01*
X88976227Y-40529804D01*
X89000496Y-40526204D01*
X89025000Y-40525000D01*
X89775000Y-40525000D01*
X89799504Y-40526204D01*
X89799504Y-40526204D01*
G37*
D13*
X89400000Y-41400000D03*
D12*
G36*
X92599504Y-40526204D02*
G01*
X92623773Y-40529804D01*
X92647571Y-40535765D01*
X92670671Y-40544030D01*
X92692849Y-40554520D01*
X92713893Y-40567133D01*
X92733598Y-40581747D01*
X92751777Y-40598223D01*
X92768253Y-40616402D01*
X92782867Y-40636107D01*
X92795480Y-40657151D01*
X92805970Y-40679329D01*
X92814235Y-40702429D01*
X92820196Y-40726227D01*
X92823796Y-40750496D01*
X92825000Y-40775000D01*
X92825000Y-42025000D01*
X92823796Y-42049504D01*
X92820196Y-42073773D01*
X92814235Y-42097571D01*
X92805970Y-42120671D01*
X92795480Y-42142849D01*
X92782867Y-42163893D01*
X92768253Y-42183598D01*
X92751777Y-42201777D01*
X92733598Y-42218253D01*
X92713893Y-42232867D01*
X92692849Y-42245480D01*
X92670671Y-42255970D01*
X92647571Y-42264235D01*
X92623773Y-42270196D01*
X92599504Y-42273796D01*
X92575000Y-42275000D01*
X91825000Y-42275000D01*
X91800496Y-42273796D01*
X91776227Y-42270196D01*
X91752429Y-42264235D01*
X91729329Y-42255970D01*
X91707151Y-42245480D01*
X91686107Y-42232867D01*
X91666402Y-42218253D01*
X91648223Y-42201777D01*
X91631747Y-42183598D01*
X91617133Y-42163893D01*
X91604520Y-42142849D01*
X91594030Y-42120671D01*
X91585765Y-42097571D01*
X91579804Y-42073773D01*
X91576204Y-42049504D01*
X91575000Y-42025000D01*
X91575000Y-40775000D01*
X91576204Y-40750496D01*
X91579804Y-40726227D01*
X91585765Y-40702429D01*
X91594030Y-40679329D01*
X91604520Y-40657151D01*
X91617133Y-40636107D01*
X91631747Y-40616402D01*
X91648223Y-40598223D01*
X91666402Y-40581747D01*
X91686107Y-40567133D01*
X91707151Y-40554520D01*
X91729329Y-40544030D01*
X91752429Y-40535765D01*
X91776227Y-40529804D01*
X91800496Y-40526204D01*
X91825000Y-40525000D01*
X92575000Y-40525000D01*
X92599504Y-40526204D01*
X92599504Y-40526204D01*
G37*
D13*
X92200000Y-41400000D03*
D12*
G36*
X89799504Y-48626204D02*
G01*
X89823773Y-48629804D01*
X89847571Y-48635765D01*
X89870671Y-48644030D01*
X89892849Y-48654520D01*
X89913893Y-48667133D01*
X89933598Y-48681747D01*
X89951777Y-48698223D01*
X89968253Y-48716402D01*
X89982867Y-48736107D01*
X89995480Y-48757151D01*
X90005970Y-48779329D01*
X90014235Y-48802429D01*
X90020196Y-48826227D01*
X90023796Y-48850496D01*
X90025000Y-48875000D01*
X90025000Y-50125000D01*
X90023796Y-50149504D01*
X90020196Y-50173773D01*
X90014235Y-50197571D01*
X90005970Y-50220671D01*
X89995480Y-50242849D01*
X89982867Y-50263893D01*
X89968253Y-50283598D01*
X89951777Y-50301777D01*
X89933598Y-50318253D01*
X89913893Y-50332867D01*
X89892849Y-50345480D01*
X89870671Y-50355970D01*
X89847571Y-50364235D01*
X89823773Y-50370196D01*
X89799504Y-50373796D01*
X89775000Y-50375000D01*
X89025000Y-50375000D01*
X89000496Y-50373796D01*
X88976227Y-50370196D01*
X88952429Y-50364235D01*
X88929329Y-50355970D01*
X88907151Y-50345480D01*
X88886107Y-50332867D01*
X88866402Y-50318253D01*
X88848223Y-50301777D01*
X88831747Y-50283598D01*
X88817133Y-50263893D01*
X88804520Y-50242849D01*
X88794030Y-50220671D01*
X88785765Y-50197571D01*
X88779804Y-50173773D01*
X88776204Y-50149504D01*
X88775000Y-50125000D01*
X88775000Y-48875000D01*
X88776204Y-48850496D01*
X88779804Y-48826227D01*
X88785765Y-48802429D01*
X88794030Y-48779329D01*
X88804520Y-48757151D01*
X88817133Y-48736107D01*
X88831747Y-48716402D01*
X88848223Y-48698223D01*
X88866402Y-48681747D01*
X88886107Y-48667133D01*
X88907151Y-48654520D01*
X88929329Y-48644030D01*
X88952429Y-48635765D01*
X88976227Y-48629804D01*
X89000496Y-48626204D01*
X89025000Y-48625000D01*
X89775000Y-48625000D01*
X89799504Y-48626204D01*
X89799504Y-48626204D01*
G37*
D13*
X89400000Y-49500000D03*
D12*
G36*
X92599504Y-48626204D02*
G01*
X92623773Y-48629804D01*
X92647571Y-48635765D01*
X92670671Y-48644030D01*
X92692849Y-48654520D01*
X92713893Y-48667133D01*
X92733598Y-48681747D01*
X92751777Y-48698223D01*
X92768253Y-48716402D01*
X92782867Y-48736107D01*
X92795480Y-48757151D01*
X92805970Y-48779329D01*
X92814235Y-48802429D01*
X92820196Y-48826227D01*
X92823796Y-48850496D01*
X92825000Y-48875000D01*
X92825000Y-50125000D01*
X92823796Y-50149504D01*
X92820196Y-50173773D01*
X92814235Y-50197571D01*
X92805970Y-50220671D01*
X92795480Y-50242849D01*
X92782867Y-50263893D01*
X92768253Y-50283598D01*
X92751777Y-50301777D01*
X92733598Y-50318253D01*
X92713893Y-50332867D01*
X92692849Y-50345480D01*
X92670671Y-50355970D01*
X92647571Y-50364235D01*
X92623773Y-50370196D01*
X92599504Y-50373796D01*
X92575000Y-50375000D01*
X91825000Y-50375000D01*
X91800496Y-50373796D01*
X91776227Y-50370196D01*
X91752429Y-50364235D01*
X91729329Y-50355970D01*
X91707151Y-50345480D01*
X91686107Y-50332867D01*
X91666402Y-50318253D01*
X91648223Y-50301777D01*
X91631747Y-50283598D01*
X91617133Y-50263893D01*
X91604520Y-50242849D01*
X91594030Y-50220671D01*
X91585765Y-50197571D01*
X91579804Y-50173773D01*
X91576204Y-50149504D01*
X91575000Y-50125000D01*
X91575000Y-48875000D01*
X91576204Y-48850496D01*
X91579804Y-48826227D01*
X91585765Y-48802429D01*
X91594030Y-48779329D01*
X91604520Y-48757151D01*
X91617133Y-48736107D01*
X91631747Y-48716402D01*
X91648223Y-48698223D01*
X91666402Y-48681747D01*
X91686107Y-48667133D01*
X91707151Y-48654520D01*
X91729329Y-48644030D01*
X91752429Y-48635765D01*
X91776227Y-48629804D01*
X91800496Y-48626204D01*
X91825000Y-48625000D01*
X92575000Y-48625000D01*
X92599504Y-48626204D01*
X92599504Y-48626204D01*
G37*
D13*
X92200000Y-49500000D03*
D14*
X97800000Y-50200000D03*
D15*
X98850000Y-49550000D03*
X98850000Y-50200000D03*
X98850000Y-50850000D03*
X96750000Y-50850000D03*
X96750000Y-50200000D03*
X96750000Y-49550000D03*
D16*
X105700000Y-47850000D03*
X105700000Y-52550000D03*
D17*
X35833274Y-73866726D03*
X37000000Y-74350000D03*
X38166726Y-73866726D03*
X38650000Y-72700000D03*
X38166726Y-71533274D03*
X37000000Y-71050000D03*
X35833274Y-71533274D03*
X35350000Y-72700000D03*
D18*
X37000000Y-72700000D03*
D17*
X35783274Y-28866726D03*
X36950000Y-29350000D03*
X38116726Y-28866726D03*
X38600000Y-27700000D03*
X38116726Y-26533274D03*
X36950000Y-26050000D03*
X35783274Y-26533274D03*
X35300000Y-27700000D03*
D18*
X36950000Y-27700000D03*
D17*
X110833274Y-28866726D03*
X112000000Y-29350000D03*
X113166726Y-28866726D03*
X113650000Y-27700000D03*
X113166726Y-26533274D03*
X112000000Y-26050000D03*
X110833274Y-26533274D03*
X110350000Y-27700000D03*
D18*
X112000000Y-27700000D03*
D17*
X110783274Y-73866726D03*
X111950000Y-74350000D03*
X113116726Y-73866726D03*
X113600000Y-72700000D03*
X113116726Y-71533274D03*
X111950000Y-71050000D03*
X110783274Y-71533274D03*
X110300000Y-72700000D03*
D18*
X111950000Y-72700000D03*
D19*
X48500000Y-36250000D03*
D20*
X48500000Y-34600000D03*
D19*
X68500000Y-36250000D03*
D20*
X68500000Y-34600000D03*
D19*
X78500000Y-36250000D03*
D20*
X78500000Y-34600000D03*
D19*
X58500000Y-36250000D03*
D20*
X58500000Y-34600000D03*
D19*
X48500000Y-51250000D03*
D20*
X48500000Y-49600000D03*
D19*
X68500000Y-51250000D03*
D20*
X68500000Y-49600000D03*
D19*
X78500000Y-51250000D03*
D20*
X78500000Y-49600000D03*
D19*
X58500000Y-51250000D03*
D20*
X58500000Y-49600000D03*
D19*
X48500000Y-66250000D03*
D20*
X48500000Y-64600000D03*
D19*
X68500000Y-66250000D03*
D20*
X68500000Y-64600000D03*
D19*
X78500000Y-66250000D03*
D20*
X78500000Y-64600000D03*
D19*
X58500000Y-66250000D03*
D20*
X58500000Y-64600000D03*
D21*
X99450000Y-54100000D03*
X96150000Y-54100000D03*
D12*
G36*
X106180142Y-41476174D02*
G01*
X106203803Y-41479684D01*
X106227007Y-41485496D01*
X106249529Y-41493554D01*
X106271153Y-41503782D01*
X106291670Y-41516079D01*
X106310883Y-41530329D01*
X106328607Y-41546393D01*
X106344671Y-41564117D01*
X106358921Y-41583330D01*
X106371218Y-41603847D01*
X106381446Y-41625471D01*
X106389504Y-41647993D01*
X106395316Y-41671197D01*
X106398826Y-41694858D01*
X106400000Y-41718750D01*
X106400000Y-42206250D01*
X106398826Y-42230142D01*
X106395316Y-42253803D01*
X106389504Y-42277007D01*
X106381446Y-42299529D01*
X106371218Y-42321153D01*
X106358921Y-42341670D01*
X106344671Y-42360883D01*
X106328607Y-42378607D01*
X106310883Y-42394671D01*
X106291670Y-42408921D01*
X106271153Y-42421218D01*
X106249529Y-42431446D01*
X106227007Y-42439504D01*
X106203803Y-42445316D01*
X106180142Y-42448826D01*
X106156250Y-42450000D01*
X105243750Y-42450000D01*
X105219858Y-42448826D01*
X105196197Y-42445316D01*
X105172993Y-42439504D01*
X105150471Y-42431446D01*
X105128847Y-42421218D01*
X105108330Y-42408921D01*
X105089117Y-42394671D01*
X105071393Y-42378607D01*
X105055329Y-42360883D01*
X105041079Y-42341670D01*
X105028782Y-42321153D01*
X105018554Y-42299529D01*
X105010496Y-42277007D01*
X105004684Y-42253803D01*
X105001174Y-42230142D01*
X105000000Y-42206250D01*
X105000000Y-41718750D01*
X105001174Y-41694858D01*
X105004684Y-41671197D01*
X105010496Y-41647993D01*
X105018554Y-41625471D01*
X105028782Y-41603847D01*
X105041079Y-41583330D01*
X105055329Y-41564117D01*
X105071393Y-41546393D01*
X105089117Y-41530329D01*
X105108330Y-41516079D01*
X105128847Y-41503782D01*
X105150471Y-41493554D01*
X105172993Y-41485496D01*
X105196197Y-41479684D01*
X105219858Y-41476174D01*
X105243750Y-41475000D01*
X106156250Y-41475000D01*
X106180142Y-41476174D01*
X106180142Y-41476174D01*
G37*
D22*
X105700000Y-41962500D03*
D12*
G36*
X106180142Y-43351174D02*
G01*
X106203803Y-43354684D01*
X106227007Y-43360496D01*
X106249529Y-43368554D01*
X106271153Y-43378782D01*
X106291670Y-43391079D01*
X106310883Y-43405329D01*
X106328607Y-43421393D01*
X106344671Y-43439117D01*
X106358921Y-43458330D01*
X106371218Y-43478847D01*
X106381446Y-43500471D01*
X106389504Y-43522993D01*
X106395316Y-43546197D01*
X106398826Y-43569858D01*
X106400000Y-43593750D01*
X106400000Y-44081250D01*
X106398826Y-44105142D01*
X106395316Y-44128803D01*
X106389504Y-44152007D01*
X106381446Y-44174529D01*
X106371218Y-44196153D01*
X106358921Y-44216670D01*
X106344671Y-44235883D01*
X106328607Y-44253607D01*
X106310883Y-44269671D01*
X106291670Y-44283921D01*
X106271153Y-44296218D01*
X106249529Y-44306446D01*
X106227007Y-44314504D01*
X106203803Y-44320316D01*
X106180142Y-44323826D01*
X106156250Y-44325000D01*
X105243750Y-44325000D01*
X105219858Y-44323826D01*
X105196197Y-44320316D01*
X105172993Y-44314504D01*
X105150471Y-44306446D01*
X105128847Y-44296218D01*
X105108330Y-44283921D01*
X105089117Y-44269671D01*
X105071393Y-44253607D01*
X105055329Y-44235883D01*
X105041079Y-44216670D01*
X105028782Y-44196153D01*
X105018554Y-44174529D01*
X105010496Y-44152007D01*
X105004684Y-44128803D01*
X105001174Y-44105142D01*
X105000000Y-44081250D01*
X105000000Y-43593750D01*
X105001174Y-43569858D01*
X105004684Y-43546197D01*
X105010496Y-43522993D01*
X105018554Y-43500471D01*
X105028782Y-43478847D01*
X105041079Y-43458330D01*
X105055329Y-43439117D01*
X105071393Y-43421393D01*
X105089117Y-43405329D01*
X105108330Y-43391079D01*
X105128847Y-43378782D01*
X105150471Y-43368554D01*
X105172993Y-43360496D01*
X105196197Y-43354684D01*
X105219858Y-43351174D01*
X105243750Y-43350000D01*
X106156250Y-43350000D01*
X106180142Y-43351174D01*
X106180142Y-43351174D01*
G37*
D22*
X105700000Y-43837500D03*
D12*
G36*
X91380142Y-68851174D02*
G01*
X91403803Y-68854684D01*
X91427007Y-68860496D01*
X91449529Y-68868554D01*
X91471153Y-68878782D01*
X91491670Y-68891079D01*
X91510883Y-68905329D01*
X91528607Y-68921393D01*
X91544671Y-68939117D01*
X91558921Y-68958330D01*
X91571218Y-68978847D01*
X91581446Y-69000471D01*
X91589504Y-69022993D01*
X91595316Y-69046197D01*
X91598826Y-69069858D01*
X91600000Y-69093750D01*
X91600000Y-69581250D01*
X91598826Y-69605142D01*
X91595316Y-69628803D01*
X91589504Y-69652007D01*
X91581446Y-69674529D01*
X91571218Y-69696153D01*
X91558921Y-69716670D01*
X91544671Y-69735883D01*
X91528607Y-69753607D01*
X91510883Y-69769671D01*
X91491670Y-69783921D01*
X91471153Y-69796218D01*
X91449529Y-69806446D01*
X91427007Y-69814504D01*
X91403803Y-69820316D01*
X91380142Y-69823826D01*
X91356250Y-69825000D01*
X90443750Y-69825000D01*
X90419858Y-69823826D01*
X90396197Y-69820316D01*
X90372993Y-69814504D01*
X90350471Y-69806446D01*
X90328847Y-69796218D01*
X90308330Y-69783921D01*
X90289117Y-69769671D01*
X90271393Y-69753607D01*
X90255329Y-69735883D01*
X90241079Y-69716670D01*
X90228782Y-69696153D01*
X90218554Y-69674529D01*
X90210496Y-69652007D01*
X90204684Y-69628803D01*
X90201174Y-69605142D01*
X90200000Y-69581250D01*
X90200000Y-69093750D01*
X90201174Y-69069858D01*
X90204684Y-69046197D01*
X90210496Y-69022993D01*
X90218554Y-69000471D01*
X90228782Y-68978847D01*
X90241079Y-68958330D01*
X90255329Y-68939117D01*
X90271393Y-68921393D01*
X90289117Y-68905329D01*
X90308330Y-68891079D01*
X90328847Y-68878782D01*
X90350471Y-68868554D01*
X90372993Y-68860496D01*
X90396197Y-68854684D01*
X90419858Y-68851174D01*
X90443750Y-68850000D01*
X91356250Y-68850000D01*
X91380142Y-68851174D01*
X91380142Y-68851174D01*
G37*
D22*
X90900000Y-69337500D03*
D12*
G36*
X91380142Y-66976174D02*
G01*
X91403803Y-66979684D01*
X91427007Y-66985496D01*
X91449529Y-66993554D01*
X91471153Y-67003782D01*
X91491670Y-67016079D01*
X91510883Y-67030329D01*
X91528607Y-67046393D01*
X91544671Y-67064117D01*
X91558921Y-67083330D01*
X91571218Y-67103847D01*
X91581446Y-67125471D01*
X91589504Y-67147993D01*
X91595316Y-67171197D01*
X91598826Y-67194858D01*
X91600000Y-67218750D01*
X91600000Y-67706250D01*
X91598826Y-67730142D01*
X91595316Y-67753803D01*
X91589504Y-67777007D01*
X91581446Y-67799529D01*
X91571218Y-67821153D01*
X91558921Y-67841670D01*
X91544671Y-67860883D01*
X91528607Y-67878607D01*
X91510883Y-67894671D01*
X91491670Y-67908921D01*
X91471153Y-67921218D01*
X91449529Y-67931446D01*
X91427007Y-67939504D01*
X91403803Y-67945316D01*
X91380142Y-67948826D01*
X91356250Y-67950000D01*
X90443750Y-67950000D01*
X90419858Y-67948826D01*
X90396197Y-67945316D01*
X90372993Y-67939504D01*
X90350471Y-67931446D01*
X90328847Y-67921218D01*
X90308330Y-67908921D01*
X90289117Y-67894671D01*
X90271393Y-67878607D01*
X90255329Y-67860883D01*
X90241079Y-67841670D01*
X90228782Y-67821153D01*
X90218554Y-67799529D01*
X90210496Y-67777007D01*
X90204684Y-67753803D01*
X90201174Y-67730142D01*
X90200000Y-67706250D01*
X90200000Y-67218750D01*
X90201174Y-67194858D01*
X90204684Y-67171197D01*
X90210496Y-67147993D01*
X90218554Y-67125471D01*
X90228782Y-67103847D01*
X90241079Y-67083330D01*
X90255329Y-67064117D01*
X90271393Y-67046393D01*
X90289117Y-67030329D01*
X90308330Y-67016079D01*
X90328847Y-67003782D01*
X90350471Y-66993554D01*
X90372993Y-66985496D01*
X90396197Y-66979684D01*
X90419858Y-66976174D01*
X90443750Y-66975000D01*
X91356250Y-66975000D01*
X91380142Y-66976174D01*
X91380142Y-66976174D01*
G37*
D22*
X90900000Y-67462500D03*
D23*
X100950000Y-45600000D03*
X100950000Y-47000000D03*
X100950000Y-48400000D03*
X35300000Y-70200000D03*
X39500000Y-74400000D03*
X44500000Y-26000000D03*
X54500000Y-26000000D03*
X64500000Y-26000000D03*
X74500000Y-26000000D03*
X84500000Y-26000000D03*
X104500000Y-26000000D03*
X35250000Y-50200000D03*
X94500000Y-26000000D03*
X74500000Y-74400000D03*
X64500000Y-74400000D03*
X54500000Y-74400000D03*
X44500000Y-74400000D03*
X84500000Y-74400000D03*
X94500000Y-74400000D03*
X104500000Y-74400000D03*
X113700000Y-50200000D03*
X113700000Y-40200000D03*
X113700000Y-30200000D03*
X113700000Y-60200000D03*
X113700000Y-70200000D03*
X35250000Y-40200000D03*
X35250000Y-30200000D03*
X35250000Y-60200000D03*
X97800000Y-47800000D03*
X97800000Y-45800000D03*
X97800000Y-43800000D03*
X94400000Y-52000000D03*
X92400000Y-52000000D03*
X90400000Y-52000000D03*
X97800000Y-58100000D03*
X97800000Y-60100000D03*
X97800000Y-62200000D03*
D24*
X109600000Y-51200000D02*
X110500000Y-51200000D01*
D25*
X98850000Y-50200000D02*
X108600000Y-50200000D01*
D26*
X108600000Y-50200000D02*
X109600000Y-51200000D01*
D27*
G36*
X40373000Y-74848000D02*
G01*
X37017215Y-74848000D01*
X36583115Y-74805436D01*
X36182104Y-74684365D01*
X35812245Y-74487706D01*
X35487635Y-74222960D01*
X35220626Y-73900201D01*
X35021394Y-73531730D01*
X34897526Y-73131578D01*
X34852000Y-72698422D01*
X34852000Y-69327000D01*
X40373000Y-69327000D01*
X40373000Y-74848000D01*
X40373000Y-74848000D01*
G37*
X40373000Y-74848000D02*
X37017215Y-74848000D01*
X36583115Y-74805436D01*
X36182104Y-74684365D01*
X35812245Y-74487706D01*
X35487635Y-74222960D01*
X35220626Y-73900201D01*
X35021394Y-73531730D01*
X34897526Y-73131578D01*
X34852000Y-72698422D01*
X34852000Y-69327000D01*
X40373000Y-69327000D01*
X40373000Y-74848000D01*
G36*
X95065000Y-53814250D02*
G01*
X95223750Y-53973000D01*
X96023000Y-53973000D01*
X96023000Y-53953000D01*
X96277000Y-53953000D01*
X96277000Y-53973000D01*
X96297000Y-53973000D01*
X96297000Y-54227000D01*
X96277000Y-54227000D01*
X96277000Y-55176250D01*
X96435750Y-55335000D01*
X96600000Y-55338072D01*
X96673000Y-55330882D01*
X96673000Y-68073000D01*
X92225958Y-68073000D01*
X92238072Y-67950000D01*
X92235000Y-67748250D01*
X92076250Y-67589500D01*
X91027000Y-67589500D01*
X91027000Y-67609500D01*
X90773000Y-67609500D01*
X90773000Y-67589500D01*
X89723750Y-67589500D01*
X89565000Y-67748250D01*
X89561928Y-67950000D01*
X89574042Y-68073000D01*
X43927000Y-68073000D01*
X43927000Y-66550000D01*
X46661928Y-66550000D01*
X46674188Y-66674482D01*
X46710498Y-66794180D01*
X46769463Y-66904494D01*
X46848815Y-67001185D01*
X46945506Y-67080537D01*
X47055820Y-67139502D01*
X47175518Y-67175812D01*
X47300000Y-67188072D01*
X48214250Y-67185000D01*
X48373000Y-67026250D01*
X48373000Y-66377000D01*
X48627000Y-66377000D01*
X48627000Y-67026250D01*
X48785750Y-67185000D01*
X49700000Y-67188072D01*
X49824482Y-67175812D01*
X49944180Y-67139502D01*
X50054494Y-67080537D01*
X50151185Y-67001185D01*
X50230537Y-66904494D01*
X50289502Y-66794180D01*
X50325812Y-66674482D01*
X50338072Y-66550000D01*
X56661928Y-66550000D01*
X56674188Y-66674482D01*
X56710498Y-66794180D01*
X56769463Y-66904494D01*
X56848815Y-67001185D01*
X56945506Y-67080537D01*
X57055820Y-67139502D01*
X57175518Y-67175812D01*
X57300000Y-67188072D01*
X58214250Y-67185000D01*
X58373000Y-67026250D01*
X58373000Y-66377000D01*
X58627000Y-66377000D01*
X58627000Y-67026250D01*
X58785750Y-67185000D01*
X59700000Y-67188072D01*
X59824482Y-67175812D01*
X59944180Y-67139502D01*
X60054494Y-67080537D01*
X60151185Y-67001185D01*
X60230537Y-66904494D01*
X60289502Y-66794180D01*
X60325812Y-66674482D01*
X60338072Y-66550000D01*
X66661928Y-66550000D01*
X66674188Y-66674482D01*
X66710498Y-66794180D01*
X66769463Y-66904494D01*
X66848815Y-67001185D01*
X66945506Y-67080537D01*
X67055820Y-67139502D01*
X67175518Y-67175812D01*
X67300000Y-67188072D01*
X68214250Y-67185000D01*
X68373000Y-67026250D01*
X68373000Y-66377000D01*
X68627000Y-66377000D01*
X68627000Y-67026250D01*
X68785750Y-67185000D01*
X69700000Y-67188072D01*
X69824482Y-67175812D01*
X69944180Y-67139502D01*
X70054494Y-67080537D01*
X70151185Y-67001185D01*
X70230537Y-66904494D01*
X70289502Y-66794180D01*
X70325812Y-66674482D01*
X70338072Y-66550000D01*
X76661928Y-66550000D01*
X76674188Y-66674482D01*
X76710498Y-66794180D01*
X76769463Y-66904494D01*
X76848815Y-67001185D01*
X76945506Y-67080537D01*
X77055820Y-67139502D01*
X77175518Y-67175812D01*
X77300000Y-67188072D01*
X78214250Y-67185000D01*
X78373000Y-67026250D01*
X78373000Y-66377000D01*
X78627000Y-66377000D01*
X78627000Y-67026250D01*
X78785750Y-67185000D01*
X79700000Y-67188072D01*
X79824482Y-67175812D01*
X79944180Y-67139502D01*
X80054494Y-67080537D01*
X80151185Y-67001185D01*
X80172674Y-66975000D01*
X89561928Y-66975000D01*
X89565000Y-67176750D01*
X89723750Y-67335500D01*
X90773000Y-67335500D01*
X90773000Y-66498750D01*
X91027000Y-66498750D01*
X91027000Y-67335500D01*
X92076250Y-67335500D01*
X92235000Y-67176750D01*
X92238072Y-66975000D01*
X92225812Y-66850518D01*
X92189502Y-66730820D01*
X92130537Y-66620506D01*
X92051185Y-66523815D01*
X91954494Y-66444463D01*
X91844180Y-66385498D01*
X91724482Y-66349188D01*
X91600000Y-66336928D01*
X91185750Y-66340000D01*
X91027000Y-66498750D01*
X90773000Y-66498750D01*
X90614250Y-66340000D01*
X90200000Y-66336928D01*
X90075518Y-66349188D01*
X89955820Y-66385498D01*
X89845506Y-66444463D01*
X89748815Y-66523815D01*
X89669463Y-66620506D01*
X89610498Y-66730820D01*
X89574188Y-66850518D01*
X89561928Y-66975000D01*
X80172674Y-66975000D01*
X80230537Y-66904494D01*
X80289502Y-66794180D01*
X80325812Y-66674482D01*
X80338072Y-66550000D01*
X80335000Y-66535750D01*
X80176250Y-66377000D01*
X78627000Y-66377000D01*
X78373000Y-66377000D01*
X76823750Y-66377000D01*
X76665000Y-66535750D01*
X76661928Y-66550000D01*
X70338072Y-66550000D01*
X70335000Y-66535750D01*
X70176250Y-66377000D01*
X68627000Y-66377000D01*
X68373000Y-66377000D01*
X66823750Y-66377000D01*
X66665000Y-66535750D01*
X66661928Y-66550000D01*
X60338072Y-66550000D01*
X60335000Y-66535750D01*
X60176250Y-66377000D01*
X58627000Y-66377000D01*
X58373000Y-66377000D01*
X56823750Y-66377000D01*
X56665000Y-66535750D01*
X56661928Y-66550000D01*
X50338072Y-66550000D01*
X50335000Y-66535750D01*
X50176250Y-66377000D01*
X48627000Y-66377000D01*
X48373000Y-66377000D01*
X46823750Y-66377000D01*
X46665000Y-66535750D01*
X46661928Y-66550000D01*
X43927000Y-66550000D01*
X43927000Y-66127000D01*
X83700000Y-66127000D01*
X83724776Y-66124560D01*
X83748601Y-66117333D01*
X83770557Y-66105597D01*
X83789803Y-66089803D01*
X83805597Y-66070557D01*
X83817333Y-66048601D01*
X83824560Y-66024776D01*
X83827000Y-66000000D01*
X83827000Y-54700000D01*
X95061928Y-54700000D01*
X95074188Y-54824482D01*
X95110498Y-54944180D01*
X95169463Y-55054494D01*
X95248815Y-55151185D01*
X95345506Y-55230537D01*
X95455820Y-55289502D01*
X95575518Y-55325812D01*
X95700000Y-55338072D01*
X95864250Y-55335000D01*
X96023000Y-55176250D01*
X96023000Y-54227000D01*
X95223750Y-54227000D01*
X95065000Y-54385750D01*
X95061928Y-54700000D01*
X83827000Y-54700000D01*
X83827000Y-53627000D01*
X95063170Y-53627000D01*
X95065000Y-53814250D01*
X95065000Y-53814250D01*
G37*
X95065000Y-53814250D02*
X95223750Y-53973000D01*
X96023000Y-53973000D01*
X96023000Y-53953000D01*
X96277000Y-53953000D01*
X96277000Y-53973000D01*
X96297000Y-53973000D01*
X96297000Y-54227000D01*
X96277000Y-54227000D01*
X96277000Y-55176250D01*
X96435750Y-55335000D01*
X96600000Y-55338072D01*
X96673000Y-55330882D01*
X96673000Y-68073000D01*
X92225958Y-68073000D01*
X92238072Y-67950000D01*
X92235000Y-67748250D01*
X92076250Y-67589500D01*
X91027000Y-67589500D01*
X91027000Y-67609500D01*
X90773000Y-67609500D01*
X90773000Y-67589500D01*
X89723750Y-67589500D01*
X89565000Y-67748250D01*
X89561928Y-67950000D01*
X89574042Y-68073000D01*
X43927000Y-68073000D01*
X43927000Y-66550000D01*
X46661928Y-66550000D01*
X46674188Y-66674482D01*
X46710498Y-66794180D01*
X46769463Y-66904494D01*
X46848815Y-67001185D01*
X46945506Y-67080537D01*
X47055820Y-67139502D01*
X47175518Y-67175812D01*
X47300000Y-67188072D01*
X48214250Y-67185000D01*
X48373000Y-67026250D01*
X48373000Y-66377000D01*
X48627000Y-66377000D01*
X48627000Y-67026250D01*
X48785750Y-67185000D01*
X49700000Y-67188072D01*
X49824482Y-67175812D01*
X49944180Y-67139502D01*
X50054494Y-67080537D01*
X50151185Y-67001185D01*
X50230537Y-66904494D01*
X50289502Y-66794180D01*
X50325812Y-66674482D01*
X50338072Y-66550000D01*
X56661928Y-66550000D01*
X56674188Y-66674482D01*
X56710498Y-66794180D01*
X56769463Y-66904494D01*
X56848815Y-67001185D01*
X56945506Y-67080537D01*
X57055820Y-67139502D01*
X57175518Y-67175812D01*
X57300000Y-67188072D01*
X58214250Y-67185000D01*
X58373000Y-67026250D01*
X58373000Y-66377000D01*
X58627000Y-66377000D01*
X58627000Y-67026250D01*
X58785750Y-67185000D01*
X59700000Y-67188072D01*
X59824482Y-67175812D01*
X59944180Y-67139502D01*
X60054494Y-67080537D01*
X60151185Y-67001185D01*
X60230537Y-66904494D01*
X60289502Y-66794180D01*
X60325812Y-66674482D01*
X60338072Y-66550000D01*
X66661928Y-66550000D01*
X66674188Y-66674482D01*
X66710498Y-66794180D01*
X66769463Y-66904494D01*
X66848815Y-67001185D01*
X66945506Y-67080537D01*
X67055820Y-67139502D01*
X67175518Y-67175812D01*
X67300000Y-67188072D01*
X68214250Y-67185000D01*
X68373000Y-67026250D01*
X68373000Y-66377000D01*
X68627000Y-66377000D01*
X68627000Y-67026250D01*
X68785750Y-67185000D01*
X69700000Y-67188072D01*
X69824482Y-67175812D01*
X69944180Y-67139502D01*
X70054494Y-67080537D01*
X70151185Y-67001185D01*
X70230537Y-66904494D01*
X70289502Y-66794180D01*
X70325812Y-66674482D01*
X70338072Y-66550000D01*
X76661928Y-66550000D01*
X76674188Y-66674482D01*
X76710498Y-66794180D01*
X76769463Y-66904494D01*
X76848815Y-67001185D01*
X76945506Y-67080537D01*
X77055820Y-67139502D01*
X77175518Y-67175812D01*
X77300000Y-67188072D01*
X78214250Y-67185000D01*
X78373000Y-67026250D01*
X78373000Y-66377000D01*
X78627000Y-66377000D01*
X78627000Y-67026250D01*
X78785750Y-67185000D01*
X79700000Y-67188072D01*
X79824482Y-67175812D01*
X79944180Y-67139502D01*
X80054494Y-67080537D01*
X80151185Y-67001185D01*
X80172674Y-66975000D01*
X89561928Y-66975000D01*
X89565000Y-67176750D01*
X89723750Y-67335500D01*
X90773000Y-67335500D01*
X90773000Y-66498750D01*
X91027000Y-66498750D01*
X91027000Y-67335500D01*
X92076250Y-67335500D01*
X92235000Y-67176750D01*
X92238072Y-66975000D01*
X92225812Y-66850518D01*
X92189502Y-66730820D01*
X92130537Y-66620506D01*
X92051185Y-66523815D01*
X91954494Y-66444463D01*
X91844180Y-66385498D01*
X91724482Y-66349188D01*
X91600000Y-66336928D01*
X91185750Y-66340000D01*
X91027000Y-66498750D01*
X90773000Y-66498750D01*
X90614250Y-66340000D01*
X90200000Y-66336928D01*
X90075518Y-66349188D01*
X89955820Y-66385498D01*
X89845506Y-66444463D01*
X89748815Y-66523815D01*
X89669463Y-66620506D01*
X89610498Y-66730820D01*
X89574188Y-66850518D01*
X89561928Y-66975000D01*
X80172674Y-66975000D01*
X80230537Y-66904494D01*
X80289502Y-66794180D01*
X80325812Y-66674482D01*
X80338072Y-66550000D01*
X80335000Y-66535750D01*
X80176250Y-66377000D01*
X78627000Y-66377000D01*
X78373000Y-66377000D01*
X76823750Y-66377000D01*
X76665000Y-66535750D01*
X76661928Y-66550000D01*
X70338072Y-66550000D01*
X70335000Y-66535750D01*
X70176250Y-66377000D01*
X68627000Y-66377000D01*
X68373000Y-66377000D01*
X66823750Y-66377000D01*
X66665000Y-66535750D01*
X66661928Y-66550000D01*
X60338072Y-66550000D01*
X60335000Y-66535750D01*
X60176250Y-66377000D01*
X58627000Y-66377000D01*
X58373000Y-66377000D01*
X56823750Y-66377000D01*
X56665000Y-66535750D01*
X56661928Y-66550000D01*
X50338072Y-66550000D01*
X50335000Y-66535750D01*
X50176250Y-66377000D01*
X48627000Y-66377000D01*
X48373000Y-66377000D01*
X46823750Y-66377000D01*
X46665000Y-66535750D01*
X46661928Y-66550000D01*
X43927000Y-66550000D01*
X43927000Y-66127000D01*
X83700000Y-66127000D01*
X83724776Y-66124560D01*
X83748601Y-66117333D01*
X83770557Y-66105597D01*
X83789803Y-66089803D01*
X83805597Y-66070557D01*
X83817333Y-66048601D01*
X83824560Y-66024776D01*
X83827000Y-66000000D01*
X83827000Y-54700000D01*
X95061928Y-54700000D01*
X95074188Y-54824482D01*
X95110498Y-54944180D01*
X95169463Y-55054494D01*
X95248815Y-55151185D01*
X95345506Y-55230537D01*
X95455820Y-55289502D01*
X95575518Y-55325812D01*
X95700000Y-55338072D01*
X95864250Y-55335000D01*
X96023000Y-55176250D01*
X96023000Y-54227000D01*
X95223750Y-54227000D01*
X95065000Y-54385750D01*
X95061928Y-54700000D01*
X83827000Y-54700000D01*
X83827000Y-53627000D01*
X95063170Y-53627000D01*
X95065000Y-53814250D01*
G36*
X102673000Y-51119512D02*
G01*
X102625518Y-51124188D01*
X102505820Y-51160498D01*
X102395506Y-51219463D01*
X102298815Y-51298815D01*
X102219463Y-51395506D01*
X102160498Y-51505820D01*
X102124188Y-51625518D01*
X102111928Y-51750000D01*
X102115000Y-52264250D01*
X102273750Y-52423000D01*
X105573000Y-52423000D01*
X105573000Y-52403000D01*
X105827000Y-52403000D01*
X105827000Y-52423000D01*
X105847000Y-52423000D01*
X105847000Y-52677000D01*
X105827000Y-52677000D01*
X105827000Y-53826250D01*
X105985750Y-53985000D01*
X108573000Y-53987983D01*
X108573000Y-54773000D01*
X100530882Y-54773000D01*
X100538072Y-54700000D01*
X100535000Y-54385750D01*
X100376250Y-54227000D01*
X99577000Y-54227000D01*
X99577000Y-54247000D01*
X99323000Y-54247000D01*
X99323000Y-54227000D01*
X99303000Y-54227000D01*
X99303000Y-53973000D01*
X99323000Y-53973000D01*
X99323000Y-53023750D01*
X99577000Y-53023750D01*
X99577000Y-53973000D01*
X100376250Y-53973000D01*
X100535000Y-53814250D01*
X100538072Y-53500000D01*
X100525812Y-53375518D01*
X100518072Y-53350000D01*
X102111928Y-53350000D01*
X102124188Y-53474482D01*
X102160498Y-53594180D01*
X102219463Y-53704494D01*
X102298815Y-53801185D01*
X102395506Y-53880537D01*
X102505820Y-53939502D01*
X102625518Y-53975812D01*
X102750000Y-53988072D01*
X105414250Y-53985000D01*
X105573000Y-53826250D01*
X105573000Y-52677000D01*
X102273750Y-52677000D01*
X102115000Y-52835750D01*
X102111928Y-53350000D01*
X100518072Y-53350000D01*
X100489502Y-53255820D01*
X100430537Y-53145506D01*
X100351185Y-53048815D01*
X100254494Y-52969463D01*
X100144180Y-52910498D01*
X100024482Y-52874188D01*
X99900000Y-52861928D01*
X99735750Y-52865000D01*
X99577000Y-53023750D01*
X99323000Y-53023750D01*
X99164250Y-52865000D01*
X99000000Y-52861928D01*
X98875518Y-52874188D01*
X98755820Y-52910498D01*
X98727000Y-52925903D01*
X98727000Y-50898000D01*
X98977000Y-50898000D01*
X98977000Y-51501250D01*
X99135750Y-51660000D01*
X99159239Y-51662877D01*
X99283986Y-51653695D01*
X99404544Y-51620353D01*
X99516281Y-51564132D01*
X99614903Y-51487192D01*
X99696619Y-51392490D01*
X99758290Y-51283666D01*
X99797546Y-51164902D01*
X99810000Y-51056750D01*
X99651250Y-50898000D01*
X98977000Y-50898000D01*
X98727000Y-50898000D01*
X98727000Y-50827000D01*
X102673000Y-50827000D01*
X102673000Y-51119512D01*
X102673000Y-51119512D01*
G37*
X102673000Y-51119512D02*
X102625518Y-51124188D01*
X102505820Y-51160498D01*
X102395506Y-51219463D01*
X102298815Y-51298815D01*
X102219463Y-51395506D01*
X102160498Y-51505820D01*
X102124188Y-51625518D01*
X102111928Y-51750000D01*
X102115000Y-52264250D01*
X102273750Y-52423000D01*
X105573000Y-52423000D01*
X105573000Y-52403000D01*
X105827000Y-52403000D01*
X105827000Y-52423000D01*
X105847000Y-52423000D01*
X105847000Y-52677000D01*
X105827000Y-52677000D01*
X105827000Y-53826250D01*
X105985750Y-53985000D01*
X108573000Y-53987983D01*
X108573000Y-54773000D01*
X100530882Y-54773000D01*
X100538072Y-54700000D01*
X100535000Y-54385750D01*
X100376250Y-54227000D01*
X99577000Y-54227000D01*
X99577000Y-54247000D01*
X99323000Y-54247000D01*
X99323000Y-54227000D01*
X99303000Y-54227000D01*
X99303000Y-53973000D01*
X99323000Y-53973000D01*
X99323000Y-53023750D01*
X99577000Y-53023750D01*
X99577000Y-53973000D01*
X100376250Y-53973000D01*
X100535000Y-53814250D01*
X100538072Y-53500000D01*
X100525812Y-53375518D01*
X100518072Y-53350000D01*
X102111928Y-53350000D01*
X102124188Y-53474482D01*
X102160498Y-53594180D01*
X102219463Y-53704494D01*
X102298815Y-53801185D01*
X102395506Y-53880537D01*
X102505820Y-53939502D01*
X102625518Y-53975812D01*
X102750000Y-53988072D01*
X105414250Y-53985000D01*
X105573000Y-53826250D01*
X105573000Y-52677000D01*
X102273750Y-52677000D01*
X102115000Y-52835750D01*
X102111928Y-53350000D01*
X100518072Y-53350000D01*
X100489502Y-53255820D01*
X100430537Y-53145506D01*
X100351185Y-53048815D01*
X100254494Y-52969463D01*
X100144180Y-52910498D01*
X100024482Y-52874188D01*
X99900000Y-52861928D01*
X99735750Y-52865000D01*
X99577000Y-53023750D01*
X99323000Y-53023750D01*
X99164250Y-52865000D01*
X99000000Y-52861928D01*
X98875518Y-52874188D01*
X98755820Y-52910498D01*
X98727000Y-52925903D01*
X98727000Y-50898000D01*
X98977000Y-50898000D01*
X98977000Y-51501250D01*
X99135750Y-51660000D01*
X99159239Y-51662877D01*
X99283986Y-51653695D01*
X99404544Y-51620353D01*
X99516281Y-51564132D01*
X99614903Y-51487192D01*
X99696619Y-51392490D01*
X99758290Y-51283666D01*
X99797546Y-51164902D01*
X99810000Y-51056750D01*
X99651250Y-50898000D01*
X98977000Y-50898000D01*
X98727000Y-50898000D01*
X98727000Y-50827000D01*
X102673000Y-50827000D01*
X102673000Y-51119512D01*
G36*
X104365000Y-43551750D02*
G01*
X104523750Y-43710500D01*
X105573000Y-43710500D01*
X105573000Y-43690500D01*
X105827000Y-43690500D01*
X105827000Y-43710500D01*
X106876250Y-43710500D01*
X107035000Y-43551750D01*
X107035377Y-43527000D01*
X108573000Y-43527000D01*
X108573000Y-46412017D01*
X105985750Y-46415000D01*
X105827000Y-46573750D01*
X105827000Y-47723000D01*
X105847000Y-47723000D01*
X105847000Y-47977000D01*
X105827000Y-47977000D01*
X105827000Y-47997000D01*
X105573000Y-47997000D01*
X105573000Y-47977000D01*
X102273750Y-47977000D01*
X102115000Y-48135750D01*
X102111928Y-48650000D01*
X102124188Y-48774482D01*
X102160498Y-48894180D01*
X102219463Y-49004494D01*
X102298815Y-49101185D01*
X102395506Y-49180537D01*
X102505820Y-49239502D01*
X102625518Y-49275812D01*
X102673000Y-49280488D01*
X102673000Y-49573000D01*
X98727000Y-49573000D01*
X98727000Y-47050000D01*
X102111928Y-47050000D01*
X102115000Y-47564250D01*
X102273750Y-47723000D01*
X105573000Y-47723000D01*
X105573000Y-46573750D01*
X105414250Y-46415000D01*
X102750000Y-46411928D01*
X102625518Y-46424188D01*
X102505820Y-46460498D01*
X102395506Y-46519463D01*
X102298815Y-46598815D01*
X102219463Y-46695506D01*
X102160498Y-46805820D01*
X102124188Y-46925518D01*
X102111928Y-47050000D01*
X98727000Y-47050000D01*
X98727000Y-44325000D01*
X104361928Y-44325000D01*
X104374188Y-44449482D01*
X104410498Y-44569180D01*
X104469463Y-44679494D01*
X104548815Y-44776185D01*
X104645506Y-44855537D01*
X104755820Y-44914502D01*
X104875518Y-44950812D01*
X105000000Y-44963072D01*
X105414250Y-44960000D01*
X105573000Y-44801250D01*
X105573000Y-43964500D01*
X105827000Y-43964500D01*
X105827000Y-44801250D01*
X105985750Y-44960000D01*
X106400000Y-44963072D01*
X106524482Y-44950812D01*
X106644180Y-44914502D01*
X106754494Y-44855537D01*
X106851185Y-44776185D01*
X106930537Y-44679494D01*
X106989502Y-44569180D01*
X107025812Y-44449482D01*
X107038072Y-44325000D01*
X107035000Y-44123250D01*
X106876250Y-43964500D01*
X105827000Y-43964500D01*
X105573000Y-43964500D01*
X104523750Y-43964500D01*
X104365000Y-44123250D01*
X104361928Y-44325000D01*
X98727000Y-44325000D01*
X98727000Y-43527000D01*
X104364623Y-43527000D01*
X104365000Y-43551750D01*
X104365000Y-43551750D01*
G37*
X104365000Y-43551750D02*
X104523750Y-43710500D01*
X105573000Y-43710500D01*
X105573000Y-43690500D01*
X105827000Y-43690500D01*
X105827000Y-43710500D01*
X106876250Y-43710500D01*
X107035000Y-43551750D01*
X107035377Y-43527000D01*
X108573000Y-43527000D01*
X108573000Y-46412017D01*
X105985750Y-46415000D01*
X105827000Y-46573750D01*
X105827000Y-47723000D01*
X105847000Y-47723000D01*
X105847000Y-47977000D01*
X105827000Y-47977000D01*
X105827000Y-47997000D01*
X105573000Y-47997000D01*
X105573000Y-47977000D01*
X102273750Y-47977000D01*
X102115000Y-48135750D01*
X102111928Y-48650000D01*
X102124188Y-48774482D01*
X102160498Y-48894180D01*
X102219463Y-49004494D01*
X102298815Y-49101185D01*
X102395506Y-49180537D01*
X102505820Y-49239502D01*
X102625518Y-49275812D01*
X102673000Y-49280488D01*
X102673000Y-49573000D01*
X98727000Y-49573000D01*
X98727000Y-47050000D01*
X102111928Y-47050000D01*
X102115000Y-47564250D01*
X102273750Y-47723000D01*
X105573000Y-47723000D01*
X105573000Y-46573750D01*
X105414250Y-46415000D01*
X102750000Y-46411928D01*
X102625518Y-46424188D01*
X102505820Y-46460498D01*
X102395506Y-46519463D01*
X102298815Y-46598815D01*
X102219463Y-46695506D01*
X102160498Y-46805820D01*
X102124188Y-46925518D01*
X102111928Y-47050000D01*
X98727000Y-47050000D01*
X98727000Y-44325000D01*
X104361928Y-44325000D01*
X104374188Y-44449482D01*
X104410498Y-44569180D01*
X104469463Y-44679494D01*
X104548815Y-44776185D01*
X104645506Y-44855537D01*
X104755820Y-44914502D01*
X104875518Y-44950812D01*
X105000000Y-44963072D01*
X105414250Y-44960000D01*
X105573000Y-44801250D01*
X105573000Y-43964500D01*
X105827000Y-43964500D01*
X105827000Y-44801250D01*
X105985750Y-44960000D01*
X106400000Y-44963072D01*
X106524482Y-44950812D01*
X106644180Y-44914502D01*
X106754494Y-44855537D01*
X106851185Y-44776185D01*
X106930537Y-44679494D01*
X106989502Y-44569180D01*
X107025812Y-44449482D01*
X107038072Y-44325000D01*
X107035000Y-44123250D01*
X106876250Y-43964500D01*
X105827000Y-43964500D01*
X105573000Y-43964500D01*
X104523750Y-43964500D01*
X104365000Y-44123250D01*
X104361928Y-44325000D01*
X98727000Y-44325000D01*
X98727000Y-43527000D01*
X104364623Y-43527000D01*
X104365000Y-43551750D01*
G36*
X96873000Y-49573000D02*
G01*
X96100000Y-49573000D01*
X96075224Y-49575440D01*
X96051399Y-49582667D01*
X96029443Y-49594403D01*
X96025060Y-49598000D01*
X95948750Y-49598000D01*
X95790000Y-49756750D01*
X95802454Y-49864902D01*
X95841710Y-49983666D01*
X95903381Y-50092490D01*
X95973000Y-50173173D01*
X95973000Y-50273000D01*
X93462540Y-50273000D01*
X93460000Y-49785750D01*
X93301250Y-49627000D01*
X92327000Y-49627000D01*
X92327000Y-49647000D01*
X92073000Y-49647000D01*
X92073000Y-49627000D01*
X92053000Y-49627000D01*
X92053000Y-49373000D01*
X92073000Y-49373000D01*
X92073000Y-46927000D01*
X92327000Y-46927000D01*
X92327000Y-49373000D01*
X93301250Y-49373000D01*
X93331000Y-49343250D01*
X95790000Y-49343250D01*
X95948750Y-49502000D01*
X96623000Y-49502000D01*
X96623000Y-48898750D01*
X96464250Y-48740000D01*
X96440761Y-48737123D01*
X96316014Y-48746305D01*
X96195456Y-48779647D01*
X96083719Y-48835868D01*
X95985097Y-48912808D01*
X95903381Y-49007510D01*
X95841710Y-49116334D01*
X95802454Y-49235098D01*
X95790000Y-49343250D01*
X93331000Y-49343250D01*
X93460000Y-49214250D01*
X93463072Y-48625000D01*
X93450812Y-48500518D01*
X93414502Y-48380820D01*
X93355537Y-48270506D01*
X93276185Y-48173815D01*
X93247166Y-48150000D01*
X93276185Y-48126185D01*
X93355537Y-48029494D01*
X93414502Y-47919180D01*
X93450812Y-47799482D01*
X93463072Y-47675000D01*
X93460000Y-47085750D01*
X93301250Y-46927000D01*
X92327000Y-46927000D01*
X92073000Y-46927000D01*
X92053000Y-46927000D01*
X92053000Y-46673000D01*
X92073000Y-46673000D01*
X92073000Y-44227000D01*
X92327000Y-44227000D01*
X92327000Y-46673000D01*
X93301250Y-46673000D01*
X93460000Y-46514250D01*
X93463072Y-45925000D01*
X93450812Y-45800518D01*
X93414502Y-45680820D01*
X93355537Y-45570506D01*
X93276185Y-45473815D01*
X93247166Y-45450000D01*
X93276185Y-45426185D01*
X93355537Y-45329494D01*
X93414502Y-45219180D01*
X93450812Y-45099482D01*
X93463072Y-44975000D01*
X93460000Y-44385750D01*
X93301250Y-44227000D01*
X92327000Y-44227000D01*
X92073000Y-44227000D01*
X92053000Y-44227000D01*
X92053000Y-43973000D01*
X92073000Y-43973000D01*
X92073000Y-41527000D01*
X92327000Y-41527000D01*
X92327000Y-43973000D01*
X93301250Y-43973000D01*
X93460000Y-43814250D01*
X93463072Y-43225000D01*
X93450812Y-43100518D01*
X93414502Y-42980820D01*
X93355537Y-42870506D01*
X93276185Y-42773815D01*
X93247166Y-42750000D01*
X93276185Y-42726185D01*
X93355537Y-42629494D01*
X93414502Y-42519180D01*
X93450812Y-42399482D01*
X93463072Y-42275000D01*
X93460000Y-41685750D01*
X93301250Y-41527000D01*
X92327000Y-41527000D01*
X92073000Y-41527000D01*
X92053000Y-41527000D01*
X92053000Y-41273000D01*
X92073000Y-41273000D01*
X92073000Y-40048750D01*
X92327000Y-40048750D01*
X92327000Y-41273000D01*
X93301250Y-41273000D01*
X93460000Y-41114250D01*
X93463072Y-40525000D01*
X93450812Y-40400518D01*
X93414502Y-40280820D01*
X93355537Y-40170506D01*
X93276185Y-40073815D01*
X93179494Y-39994463D01*
X93069180Y-39935498D01*
X92949482Y-39899188D01*
X92825000Y-39886928D01*
X92485750Y-39890000D01*
X92327000Y-40048750D01*
X92073000Y-40048750D01*
X91914250Y-39890000D01*
X91575000Y-39886928D01*
X91450518Y-39899188D01*
X91330820Y-39935498D01*
X91227000Y-39990992D01*
X91227000Y-35400000D01*
X91224560Y-35375224D01*
X91217333Y-35351399D01*
X91205597Y-35329443D01*
X91189803Y-35310197D01*
X91170557Y-35294403D01*
X91148601Y-35282667D01*
X91124776Y-35275440D01*
X91100000Y-35273000D01*
X80337313Y-35273000D01*
X80335000Y-34885750D01*
X80176250Y-34727000D01*
X78627000Y-34727000D01*
X78627000Y-34747000D01*
X78373000Y-34747000D01*
X78373000Y-34727000D01*
X76823750Y-34727000D01*
X76665000Y-34885750D01*
X76662687Y-35273000D01*
X70337313Y-35273000D01*
X70335000Y-34885750D01*
X70176250Y-34727000D01*
X68627000Y-34727000D01*
X68627000Y-34747000D01*
X68373000Y-34747000D01*
X68373000Y-34727000D01*
X66823750Y-34727000D01*
X66665000Y-34885750D01*
X66662687Y-35273000D01*
X60337313Y-35273000D01*
X60335000Y-34885750D01*
X60176250Y-34727000D01*
X58627000Y-34727000D01*
X58627000Y-34747000D01*
X58373000Y-34747000D01*
X58373000Y-34727000D01*
X56823750Y-34727000D01*
X56665000Y-34885750D01*
X56662687Y-35273000D01*
X50337313Y-35273000D01*
X50335000Y-34885750D01*
X50176250Y-34727000D01*
X48627000Y-34727000D01*
X48627000Y-34747000D01*
X48373000Y-34747000D01*
X48373000Y-34727000D01*
X46823750Y-34727000D01*
X46665000Y-34885750D01*
X46662687Y-35273000D01*
X43927000Y-35273000D01*
X43927000Y-33800000D01*
X46661928Y-33800000D01*
X46665000Y-34314250D01*
X46823750Y-34473000D01*
X48373000Y-34473000D01*
X48373000Y-33323750D01*
X48627000Y-33323750D01*
X48627000Y-34473000D01*
X50176250Y-34473000D01*
X50335000Y-34314250D01*
X50338072Y-33800000D01*
X56661928Y-33800000D01*
X56665000Y-34314250D01*
X56823750Y-34473000D01*
X58373000Y-34473000D01*
X58373000Y-33323750D01*
X58627000Y-33323750D01*
X58627000Y-34473000D01*
X60176250Y-34473000D01*
X60335000Y-34314250D01*
X60338072Y-33800000D01*
X66661928Y-33800000D01*
X66665000Y-34314250D01*
X66823750Y-34473000D01*
X68373000Y-34473000D01*
X68373000Y-33323750D01*
X68627000Y-33323750D01*
X68627000Y-34473000D01*
X70176250Y-34473000D01*
X70335000Y-34314250D01*
X70338072Y-33800000D01*
X76661928Y-33800000D01*
X76665000Y-34314250D01*
X76823750Y-34473000D01*
X78373000Y-34473000D01*
X78373000Y-33323750D01*
X78627000Y-33323750D01*
X78627000Y-34473000D01*
X80176250Y-34473000D01*
X80335000Y-34314250D01*
X80338072Y-33800000D01*
X80325812Y-33675518D01*
X80289502Y-33555820D01*
X80230537Y-33445506D01*
X80151185Y-33348815D01*
X80054494Y-33269463D01*
X79944180Y-33210498D01*
X79824482Y-33174188D01*
X79700000Y-33161928D01*
X78785750Y-33165000D01*
X78627000Y-33323750D01*
X78373000Y-33323750D01*
X78214250Y-33165000D01*
X77300000Y-33161928D01*
X77175518Y-33174188D01*
X77055820Y-33210498D01*
X76945506Y-33269463D01*
X76848815Y-33348815D01*
X76769463Y-33445506D01*
X76710498Y-33555820D01*
X76674188Y-33675518D01*
X76661928Y-33800000D01*
X70338072Y-33800000D01*
X70325812Y-33675518D01*
X70289502Y-33555820D01*
X70230537Y-33445506D01*
X70151185Y-33348815D01*
X70054494Y-33269463D01*
X69944180Y-33210498D01*
X69824482Y-33174188D01*
X69700000Y-33161928D01*
X68785750Y-33165000D01*
X68627000Y-33323750D01*
X68373000Y-33323750D01*
X68214250Y-33165000D01*
X67300000Y-33161928D01*
X67175518Y-33174188D01*
X67055820Y-33210498D01*
X66945506Y-33269463D01*
X66848815Y-33348815D01*
X66769463Y-33445506D01*
X66710498Y-33555820D01*
X66674188Y-33675518D01*
X66661928Y-33800000D01*
X60338072Y-33800000D01*
X60325812Y-33675518D01*
X60289502Y-33555820D01*
X60230537Y-33445506D01*
X60151185Y-33348815D01*
X60054494Y-33269463D01*
X59944180Y-33210498D01*
X59824482Y-33174188D01*
X59700000Y-33161928D01*
X58785750Y-33165000D01*
X58627000Y-33323750D01*
X58373000Y-33323750D01*
X58214250Y-33165000D01*
X57300000Y-33161928D01*
X57175518Y-33174188D01*
X57055820Y-33210498D01*
X56945506Y-33269463D01*
X56848815Y-33348815D01*
X56769463Y-33445506D01*
X56710498Y-33555820D01*
X56674188Y-33675518D01*
X56661928Y-33800000D01*
X50338072Y-33800000D01*
X50325812Y-33675518D01*
X50289502Y-33555820D01*
X50230537Y-33445506D01*
X50151185Y-33348815D01*
X50054494Y-33269463D01*
X49944180Y-33210498D01*
X49824482Y-33174188D01*
X49700000Y-33161928D01*
X48785750Y-33165000D01*
X48627000Y-33323750D01*
X48373000Y-33323750D01*
X48214250Y-33165000D01*
X47300000Y-33161928D01*
X47175518Y-33174188D01*
X47055820Y-33210498D01*
X46945506Y-33269463D01*
X46848815Y-33348815D01*
X46769463Y-33445506D01*
X46710498Y-33555820D01*
X46674188Y-33675518D01*
X46661928Y-33800000D01*
X43927000Y-33800000D01*
X43927000Y-32827000D01*
X96873000Y-32827000D01*
X96873000Y-49573000D01*
X96873000Y-49573000D01*
G37*
X96873000Y-49573000D02*
X96100000Y-49573000D01*
X96075224Y-49575440D01*
X96051399Y-49582667D01*
X96029443Y-49594403D01*
X96025060Y-49598000D01*
X95948750Y-49598000D01*
X95790000Y-49756750D01*
X95802454Y-49864902D01*
X95841710Y-49983666D01*
X95903381Y-50092490D01*
X95973000Y-50173173D01*
X95973000Y-50273000D01*
X93462540Y-50273000D01*
X93460000Y-49785750D01*
X93301250Y-49627000D01*
X92327000Y-49627000D01*
X92327000Y-49647000D01*
X92073000Y-49647000D01*
X92073000Y-49627000D01*
X92053000Y-49627000D01*
X92053000Y-49373000D01*
X92073000Y-49373000D01*
X92073000Y-46927000D01*
X92327000Y-46927000D01*
X92327000Y-49373000D01*
X93301250Y-49373000D01*
X93331000Y-49343250D01*
X95790000Y-49343250D01*
X95948750Y-49502000D01*
X96623000Y-49502000D01*
X96623000Y-48898750D01*
X96464250Y-48740000D01*
X96440761Y-48737123D01*
X96316014Y-48746305D01*
X96195456Y-48779647D01*
X96083719Y-48835868D01*
X95985097Y-48912808D01*
X95903381Y-49007510D01*
X95841710Y-49116334D01*
X95802454Y-49235098D01*
X95790000Y-49343250D01*
X93331000Y-49343250D01*
X93460000Y-49214250D01*
X93463072Y-48625000D01*
X93450812Y-48500518D01*
X93414502Y-48380820D01*
X93355537Y-48270506D01*
X93276185Y-48173815D01*
X93247166Y-48150000D01*
X93276185Y-48126185D01*
X93355537Y-48029494D01*
X93414502Y-47919180D01*
X93450812Y-47799482D01*
X93463072Y-47675000D01*
X93460000Y-47085750D01*
X93301250Y-46927000D01*
X92327000Y-46927000D01*
X92073000Y-46927000D01*
X92053000Y-46927000D01*
X92053000Y-46673000D01*
X92073000Y-46673000D01*
X92073000Y-44227000D01*
X92327000Y-44227000D01*
X92327000Y-46673000D01*
X93301250Y-46673000D01*
X93460000Y-46514250D01*
X93463072Y-45925000D01*
X93450812Y-45800518D01*
X93414502Y-45680820D01*
X93355537Y-45570506D01*
X93276185Y-45473815D01*
X93247166Y-45450000D01*
X93276185Y-45426185D01*
X93355537Y-45329494D01*
X93414502Y-45219180D01*
X93450812Y-45099482D01*
X93463072Y-44975000D01*
X93460000Y-44385750D01*
X93301250Y-44227000D01*
X92327000Y-44227000D01*
X92073000Y-44227000D01*
X92053000Y-44227000D01*
X92053000Y-43973000D01*
X92073000Y-43973000D01*
X92073000Y-41527000D01*
X92327000Y-41527000D01*
X92327000Y-43973000D01*
X93301250Y-43973000D01*
X93460000Y-43814250D01*
X93463072Y-43225000D01*
X93450812Y-43100518D01*
X93414502Y-42980820D01*
X93355537Y-42870506D01*
X93276185Y-42773815D01*
X93247166Y-42750000D01*
X93276185Y-42726185D01*
X93355537Y-42629494D01*
X93414502Y-42519180D01*
X93450812Y-42399482D01*
X93463072Y-42275000D01*
X93460000Y-41685750D01*
X93301250Y-41527000D01*
X92327000Y-41527000D01*
X92073000Y-41527000D01*
X92053000Y-41527000D01*
X92053000Y-41273000D01*
X92073000Y-41273000D01*
X92073000Y-40048750D01*
X92327000Y-40048750D01*
X92327000Y-41273000D01*
X93301250Y-41273000D01*
X93460000Y-41114250D01*
X93463072Y-40525000D01*
X93450812Y-40400518D01*
X93414502Y-40280820D01*
X93355537Y-40170506D01*
X93276185Y-40073815D01*
X93179494Y-39994463D01*
X93069180Y-39935498D01*
X92949482Y-39899188D01*
X92825000Y-39886928D01*
X92485750Y-39890000D01*
X92327000Y-40048750D01*
X92073000Y-40048750D01*
X91914250Y-39890000D01*
X91575000Y-39886928D01*
X91450518Y-39899188D01*
X91330820Y-39935498D01*
X91227000Y-39990992D01*
X91227000Y-35400000D01*
X91224560Y-35375224D01*
X91217333Y-35351399D01*
X91205597Y-35329443D01*
X91189803Y-35310197D01*
X91170557Y-35294403D01*
X91148601Y-35282667D01*
X91124776Y-35275440D01*
X91100000Y-35273000D01*
X80337313Y-35273000D01*
X80335000Y-34885750D01*
X80176250Y-34727000D01*
X78627000Y-34727000D01*
X78627000Y-34747000D01*
X78373000Y-34747000D01*
X78373000Y-34727000D01*
X76823750Y-34727000D01*
X76665000Y-34885750D01*
X76662687Y-35273000D01*
X70337313Y-35273000D01*
X70335000Y-34885750D01*
X70176250Y-34727000D01*
X68627000Y-34727000D01*
X68627000Y-34747000D01*
X68373000Y-34747000D01*
X68373000Y-34727000D01*
X66823750Y-34727000D01*
X66665000Y-34885750D01*
X66662687Y-35273000D01*
X60337313Y-35273000D01*
X60335000Y-34885750D01*
X60176250Y-34727000D01*
X58627000Y-34727000D01*
X58627000Y-34747000D01*
X58373000Y-34747000D01*
X58373000Y-34727000D01*
X56823750Y-34727000D01*
X56665000Y-34885750D01*
X56662687Y-35273000D01*
X50337313Y-35273000D01*
X50335000Y-34885750D01*
X50176250Y-34727000D01*
X48627000Y-34727000D01*
X48627000Y-34747000D01*
X48373000Y-34747000D01*
X48373000Y-34727000D01*
X46823750Y-34727000D01*
X46665000Y-34885750D01*
X46662687Y-35273000D01*
X43927000Y-35273000D01*
X43927000Y-33800000D01*
X46661928Y-33800000D01*
X46665000Y-34314250D01*
X46823750Y-34473000D01*
X48373000Y-34473000D01*
X48373000Y-33323750D01*
X48627000Y-33323750D01*
X48627000Y-34473000D01*
X50176250Y-34473000D01*
X50335000Y-34314250D01*
X50338072Y-33800000D01*
X56661928Y-33800000D01*
X56665000Y-34314250D01*
X56823750Y-34473000D01*
X58373000Y-34473000D01*
X58373000Y-33323750D01*
X58627000Y-33323750D01*
X58627000Y-34473000D01*
X60176250Y-34473000D01*
X60335000Y-34314250D01*
X60338072Y-33800000D01*
X66661928Y-33800000D01*
X66665000Y-34314250D01*
X66823750Y-34473000D01*
X68373000Y-34473000D01*
X68373000Y-33323750D01*
X68627000Y-33323750D01*
X68627000Y-34473000D01*
X70176250Y-34473000D01*
X70335000Y-34314250D01*
X70338072Y-33800000D01*
X76661928Y-33800000D01*
X76665000Y-34314250D01*
X76823750Y-34473000D01*
X78373000Y-34473000D01*
X78373000Y-33323750D01*
X78627000Y-33323750D01*
X78627000Y-34473000D01*
X80176250Y-34473000D01*
X80335000Y-34314250D01*
X80338072Y-33800000D01*
X80325812Y-33675518D01*
X80289502Y-33555820D01*
X80230537Y-33445506D01*
X80151185Y-33348815D01*
X80054494Y-33269463D01*
X79944180Y-33210498D01*
X79824482Y-33174188D01*
X79700000Y-33161928D01*
X78785750Y-33165000D01*
X78627000Y-33323750D01*
X78373000Y-33323750D01*
X78214250Y-33165000D01*
X77300000Y-33161928D01*
X77175518Y-33174188D01*
X77055820Y-33210498D01*
X76945506Y-33269463D01*
X76848815Y-33348815D01*
X76769463Y-33445506D01*
X76710498Y-33555820D01*
X76674188Y-33675518D01*
X76661928Y-33800000D01*
X70338072Y-33800000D01*
X70325812Y-33675518D01*
X70289502Y-33555820D01*
X70230537Y-33445506D01*
X70151185Y-33348815D01*
X70054494Y-33269463D01*
X69944180Y-33210498D01*
X69824482Y-33174188D01*
X69700000Y-33161928D01*
X68785750Y-33165000D01*
X68627000Y-33323750D01*
X68373000Y-33323750D01*
X68214250Y-33165000D01*
X67300000Y-33161928D01*
X67175518Y-33174188D01*
X67055820Y-33210498D01*
X66945506Y-33269463D01*
X66848815Y-33348815D01*
X66769463Y-33445506D01*
X66710498Y-33555820D01*
X66674188Y-33675518D01*
X66661928Y-33800000D01*
X60338072Y-33800000D01*
X60325812Y-33675518D01*
X60289502Y-33555820D01*
X60230537Y-33445506D01*
X60151185Y-33348815D01*
X60054494Y-33269463D01*
X59944180Y-33210498D01*
X59824482Y-33174188D01*
X59700000Y-33161928D01*
X58785750Y-33165000D01*
X58627000Y-33323750D01*
X58373000Y-33323750D01*
X58214250Y-33165000D01*
X57300000Y-33161928D01*
X57175518Y-33174188D01*
X57055820Y-33210498D01*
X56945506Y-33269463D01*
X56848815Y-33348815D01*
X56769463Y-33445506D01*
X56710498Y-33555820D01*
X56674188Y-33675518D01*
X56661928Y-33800000D01*
X50338072Y-33800000D01*
X50325812Y-33675518D01*
X50289502Y-33555820D01*
X50230537Y-33445506D01*
X50151185Y-33348815D01*
X50054494Y-33269463D01*
X49944180Y-33210498D01*
X49824482Y-33174188D01*
X49700000Y-33161928D01*
X48785750Y-33165000D01*
X48627000Y-33323750D01*
X48373000Y-33323750D01*
X48214250Y-33165000D01*
X47300000Y-33161928D01*
X47175518Y-33174188D01*
X47055820Y-33210498D01*
X46945506Y-33269463D01*
X46848815Y-33348815D01*
X46769463Y-33445506D01*
X46710498Y-33555820D01*
X46674188Y-33675518D01*
X46661928Y-33800000D01*
X43927000Y-33800000D01*
X43927000Y-32827000D01*
X96873000Y-32827000D01*
X96873000Y-49573000D01*
G36*
X112416890Y-25594564D02*
G01*
X112817893Y-25715635D01*
X113187752Y-25912292D01*
X113512366Y-26177040D01*
X113779374Y-26499799D01*
X113978606Y-26868270D01*
X114102474Y-27268422D01*
X114148001Y-27701587D01*
X114148000Y-72682785D01*
X114105436Y-73116885D01*
X113984365Y-73517896D01*
X113787706Y-73887755D01*
X113522960Y-74212365D01*
X113200201Y-74479374D01*
X112831730Y-74678606D01*
X112431578Y-74802474D01*
X111998422Y-74848000D01*
X41127000Y-74848000D01*
X41127000Y-69825000D01*
X89561928Y-69825000D01*
X89574188Y-69949482D01*
X89610498Y-70069180D01*
X89669463Y-70179494D01*
X89748815Y-70276185D01*
X89845506Y-70355537D01*
X89955820Y-70414502D01*
X90075518Y-70450812D01*
X90200000Y-70463072D01*
X90614250Y-70460000D01*
X90773000Y-70301250D01*
X90773000Y-69464500D01*
X91027000Y-69464500D01*
X91027000Y-70301250D01*
X91185750Y-70460000D01*
X91600000Y-70463072D01*
X91724482Y-70450812D01*
X91844180Y-70414502D01*
X91954494Y-70355537D01*
X92051185Y-70276185D01*
X92130537Y-70179494D01*
X92189502Y-70069180D01*
X92225812Y-69949482D01*
X92238072Y-69825000D01*
X92235000Y-69623250D01*
X92076250Y-69464500D01*
X91027000Y-69464500D01*
X90773000Y-69464500D01*
X89723750Y-69464500D01*
X89565000Y-69623250D01*
X89561928Y-69825000D01*
X41127000Y-69825000D01*
X41127000Y-68700000D01*
X41124560Y-68675224D01*
X41117333Y-68651399D01*
X41105597Y-68629443D01*
X41089803Y-68610197D01*
X41070557Y-68594403D01*
X41048601Y-68582667D01*
X41024776Y-68575440D01*
X41000000Y-68573000D01*
X34852000Y-68573000D01*
X34852000Y-32200000D01*
X43073000Y-32200000D01*
X43073000Y-68700000D01*
X43075440Y-68724776D01*
X43082667Y-68748601D01*
X43094403Y-68770557D01*
X43110197Y-68789803D01*
X43129443Y-68805597D01*
X43151399Y-68817333D01*
X43175224Y-68824560D01*
X43200000Y-68827000D01*
X89564193Y-68827000D01*
X89561928Y-68850000D01*
X89565000Y-69051750D01*
X89723750Y-69210500D01*
X90773000Y-69210500D01*
X90773000Y-69190500D01*
X91027000Y-69190500D01*
X91027000Y-69210500D01*
X92076250Y-69210500D01*
X92235000Y-69051750D01*
X92238072Y-68850000D01*
X92235807Y-68827000D01*
X97300000Y-68827000D01*
X97324776Y-68824560D01*
X97348601Y-68817333D01*
X97370557Y-68805597D01*
X97389803Y-68789803D01*
X97405597Y-68770557D01*
X97417333Y-68748601D01*
X97424560Y-68724776D01*
X97427000Y-68700000D01*
X97427000Y-53000000D01*
X97424560Y-52975224D01*
X97417333Y-52951399D01*
X97405597Y-52929443D01*
X97389803Y-52910197D01*
X97370557Y-52894403D01*
X97348601Y-52882667D01*
X97324776Y-52875440D01*
X97300000Y-52873000D01*
X83827000Y-52873000D01*
X83827000Y-51056750D01*
X95790000Y-51056750D01*
X95802454Y-51164902D01*
X95841710Y-51283666D01*
X95903381Y-51392490D01*
X95985097Y-51487192D01*
X96083719Y-51564132D01*
X96195456Y-51620353D01*
X96316014Y-51653695D01*
X96440761Y-51662877D01*
X96464250Y-51660000D01*
X96623000Y-51501250D01*
X96623000Y-50898000D01*
X96877000Y-50898000D01*
X96877000Y-51501250D01*
X97035750Y-51660000D01*
X97059239Y-51662877D01*
X97183986Y-51653695D01*
X97304544Y-51620353D01*
X97416281Y-51564132D01*
X97514903Y-51487192D01*
X97596619Y-51392490D01*
X97658290Y-51283666D01*
X97697546Y-51164902D01*
X97710000Y-51056750D01*
X97551250Y-50898000D01*
X96877000Y-50898000D01*
X96623000Y-50898000D01*
X95948750Y-50898000D01*
X95790000Y-51056750D01*
X83827000Y-51056750D01*
X83827000Y-50375000D01*
X88136928Y-50375000D01*
X88149188Y-50499482D01*
X88185498Y-50619180D01*
X88244463Y-50729494D01*
X88323815Y-50826185D01*
X88420506Y-50905537D01*
X88530820Y-50964502D01*
X88650518Y-51000812D01*
X88775000Y-51013072D01*
X89114250Y-51010000D01*
X89273000Y-50851250D01*
X89273000Y-49627000D01*
X88298750Y-49627000D01*
X88140000Y-49785750D01*
X88136928Y-50375000D01*
X83827000Y-50375000D01*
X83827000Y-47675000D01*
X88136928Y-47675000D01*
X88149188Y-47799482D01*
X88185498Y-47919180D01*
X88244463Y-48029494D01*
X88323815Y-48126185D01*
X88352834Y-48150000D01*
X88323815Y-48173815D01*
X88244463Y-48270506D01*
X88185498Y-48380820D01*
X88149188Y-48500518D01*
X88136928Y-48625000D01*
X88140000Y-49214250D01*
X88298750Y-49373000D01*
X89273000Y-49373000D01*
X89273000Y-46927000D01*
X88298750Y-46927000D01*
X88140000Y-47085750D01*
X88136928Y-47675000D01*
X83827000Y-47675000D01*
X83827000Y-44975000D01*
X88136928Y-44975000D01*
X88149188Y-45099482D01*
X88185498Y-45219180D01*
X88244463Y-45329494D01*
X88323815Y-45426185D01*
X88352834Y-45450000D01*
X88323815Y-45473815D01*
X88244463Y-45570506D01*
X88185498Y-45680820D01*
X88149188Y-45800518D01*
X88136928Y-45925000D01*
X88140000Y-46514250D01*
X88298750Y-46673000D01*
X89273000Y-46673000D01*
X89273000Y-44227000D01*
X88298750Y-44227000D01*
X88140000Y-44385750D01*
X88136928Y-44975000D01*
X83827000Y-44975000D01*
X83827000Y-42275000D01*
X88136928Y-42275000D01*
X88149188Y-42399482D01*
X88185498Y-42519180D01*
X88244463Y-42629494D01*
X88323815Y-42726185D01*
X88352834Y-42750000D01*
X88323815Y-42773815D01*
X88244463Y-42870506D01*
X88185498Y-42980820D01*
X88149188Y-43100518D01*
X88136928Y-43225000D01*
X88140000Y-43814250D01*
X88298750Y-43973000D01*
X89273000Y-43973000D01*
X89273000Y-41527000D01*
X88298750Y-41527000D01*
X88140000Y-41685750D01*
X88136928Y-42275000D01*
X83827000Y-42275000D01*
X83827000Y-40525000D01*
X88136928Y-40525000D01*
X88140000Y-41114250D01*
X88298750Y-41273000D01*
X89273000Y-41273000D01*
X89273000Y-40048750D01*
X89114250Y-39890000D01*
X88775000Y-39886928D01*
X88650518Y-39899188D01*
X88530820Y-39935498D01*
X88420506Y-39994463D01*
X88323815Y-40073815D01*
X88244463Y-40170506D01*
X88185498Y-40280820D01*
X88149188Y-40400518D01*
X88136928Y-40525000D01*
X83827000Y-40525000D01*
X83827000Y-36227000D01*
X90273000Y-36227000D01*
X90273000Y-39937540D01*
X90269180Y-39935498D01*
X90149482Y-39899188D01*
X90025000Y-39886928D01*
X89685750Y-39890000D01*
X89527000Y-40048750D01*
X89527000Y-41273000D01*
X89547000Y-41273000D01*
X89547000Y-41527000D01*
X89527000Y-41527000D01*
X89527000Y-43973000D01*
X89547000Y-43973000D01*
X89547000Y-44227000D01*
X89527000Y-44227000D01*
X89527000Y-46673000D01*
X89547000Y-46673000D01*
X89547000Y-46927000D01*
X89527000Y-46927000D01*
X89527000Y-49373000D01*
X89547000Y-49373000D01*
X89547000Y-49627000D01*
X89527000Y-49627000D01*
X89527000Y-50851250D01*
X89685750Y-51010000D01*
X90025000Y-51013072D01*
X90149482Y-51000812D01*
X90269180Y-50964502D01*
X90379494Y-50905537D01*
X90475192Y-50827000D01*
X97300000Y-50827000D01*
X97324776Y-50824560D01*
X97348601Y-50817333D01*
X97370557Y-50805597D01*
X97374940Y-50802000D01*
X97551250Y-50802000D01*
X97710000Y-50643250D01*
X97697546Y-50535098D01*
X97658290Y-50416334D01*
X97596619Y-50307510D01*
X97514903Y-50212808D01*
X97427000Y-50144230D01*
X97427000Y-49429980D01*
X97513592Y-49256796D01*
X97522490Y-49233544D01*
X97527000Y-49200000D01*
X97527000Y-42400000D01*
X98073000Y-42400000D01*
X98073000Y-49200000D01*
X98075440Y-49224776D01*
X98086408Y-49256796D01*
X98173000Y-49429980D01*
X98173000Y-50979390D01*
X98079517Y-51259839D01*
X98073997Y-51284116D01*
X98073000Y-51300000D01*
X98073000Y-55300000D01*
X98075440Y-55324776D01*
X98082667Y-55348601D01*
X98094403Y-55370557D01*
X98110197Y-55389803D01*
X98129443Y-55405597D01*
X98151399Y-55417333D01*
X98175224Y-55424560D01*
X98200000Y-55427000D01*
X109300000Y-55427000D01*
X109324776Y-55424560D01*
X109348601Y-55417333D01*
X109370557Y-55405597D01*
X109389803Y-55389803D01*
X109405597Y-55370557D01*
X109417333Y-55348601D01*
X109424560Y-55324776D01*
X109427000Y-55300000D01*
X109427000Y-51907233D01*
X109457483Y-51916480D01*
X109564292Y-51927000D01*
X109806391Y-51927000D01*
X109940625Y-52037164D01*
X110114696Y-52130206D01*
X110303574Y-52187502D01*
X110450777Y-52202000D01*
X110549223Y-52202000D01*
X110696426Y-52187502D01*
X110885304Y-52130206D01*
X111059375Y-52037164D01*
X111211949Y-51911949D01*
X111337164Y-51759375D01*
X111430206Y-51585304D01*
X111487502Y-51396426D01*
X111506848Y-51200000D01*
X111487502Y-51003574D01*
X111430206Y-50814696D01*
X111337164Y-50640625D01*
X111228185Y-50507834D01*
X111299482Y-50500812D01*
X111419180Y-50464502D01*
X111529494Y-50405537D01*
X111626185Y-50326185D01*
X111705537Y-50229494D01*
X111764502Y-50119180D01*
X111800812Y-49999482D01*
X111813072Y-49875000D01*
X111810000Y-49485750D01*
X111651250Y-49327000D01*
X110627000Y-49327000D01*
X110627000Y-49347000D01*
X110373000Y-49347000D01*
X110373000Y-49327000D01*
X110353000Y-49327000D01*
X110353000Y-49073000D01*
X110373000Y-49073000D01*
X110373000Y-48048750D01*
X110627000Y-48048750D01*
X110627000Y-49073000D01*
X111651250Y-49073000D01*
X111810000Y-48914250D01*
X111813072Y-48525000D01*
X111800812Y-48400518D01*
X111764502Y-48280820D01*
X111705537Y-48170506D01*
X111626185Y-48073815D01*
X111529494Y-47994463D01*
X111419180Y-47935498D01*
X111299482Y-47899188D01*
X111175000Y-47886928D01*
X110785750Y-47890000D01*
X110627000Y-48048750D01*
X110373000Y-48048750D01*
X110214250Y-47890000D01*
X109825000Y-47886928D01*
X109700518Y-47899188D01*
X109580820Y-47935498D01*
X109470506Y-47994463D01*
X109427000Y-48030167D01*
X109427000Y-42400000D01*
X109424560Y-42375224D01*
X109417333Y-42351399D01*
X109405597Y-42329443D01*
X109389803Y-42310197D01*
X109370557Y-42294403D01*
X109348601Y-42282667D01*
X109324776Y-42275440D01*
X109300000Y-42273000D01*
X107035377Y-42273000D01*
X107035000Y-42248250D01*
X106876250Y-42089500D01*
X105827000Y-42089500D01*
X105827000Y-42109500D01*
X105573000Y-42109500D01*
X105573000Y-42089500D01*
X104523750Y-42089500D01*
X104365000Y-42248250D01*
X104364623Y-42273000D01*
X98200000Y-42273000D01*
X98175224Y-42275440D01*
X98151399Y-42282667D01*
X98129443Y-42294403D01*
X98110197Y-42310197D01*
X98094403Y-42329443D01*
X98082667Y-42351399D01*
X98075440Y-42375224D01*
X98073000Y-42400000D01*
X97527000Y-42400000D01*
X97527000Y-41475000D01*
X104361928Y-41475000D01*
X104365000Y-41676750D01*
X104523750Y-41835500D01*
X105573000Y-41835500D01*
X105573000Y-40998750D01*
X105827000Y-40998750D01*
X105827000Y-41835500D01*
X106876250Y-41835500D01*
X107035000Y-41676750D01*
X107038072Y-41475000D01*
X107025812Y-41350518D01*
X106989502Y-41230820D01*
X106930537Y-41120506D01*
X106851185Y-41023815D01*
X106754494Y-40944463D01*
X106644180Y-40885498D01*
X106524482Y-40849188D01*
X106400000Y-40836928D01*
X105985750Y-40840000D01*
X105827000Y-40998750D01*
X105573000Y-40998750D01*
X105414250Y-40840000D01*
X105000000Y-40836928D01*
X104875518Y-40849188D01*
X104755820Y-40885498D01*
X104645506Y-40944463D01*
X104548815Y-41023815D01*
X104469463Y-41120506D01*
X104410498Y-41230820D01*
X104374188Y-41350518D01*
X104361928Y-41475000D01*
X97527000Y-41475000D01*
X97527000Y-32200000D01*
X97524560Y-32175224D01*
X97517333Y-32151399D01*
X97505597Y-32129443D01*
X97489803Y-32110197D01*
X97470557Y-32094403D01*
X97448601Y-32082667D01*
X97424776Y-32075440D01*
X97400000Y-32073000D01*
X43200000Y-32073000D01*
X43175224Y-32075440D01*
X43151399Y-32082667D01*
X43129443Y-32094403D01*
X43110197Y-32110197D01*
X43094403Y-32129443D01*
X43082667Y-32151399D01*
X43075440Y-32175224D01*
X43073000Y-32200000D01*
X34852000Y-32200000D01*
X34852000Y-27717215D01*
X34894564Y-27283110D01*
X35015635Y-26882107D01*
X35212292Y-26512248D01*
X35477040Y-26187634D01*
X35799799Y-25920626D01*
X36168270Y-25721394D01*
X36568422Y-25597526D01*
X37001578Y-25552000D01*
X111982785Y-25552000D01*
X112416890Y-25594564D01*
X112416890Y-25594564D01*
G37*
X112416890Y-25594564D02*
X112817893Y-25715635D01*
X113187752Y-25912292D01*
X113512366Y-26177040D01*
X113779374Y-26499799D01*
X113978606Y-26868270D01*
X114102474Y-27268422D01*
X114148001Y-27701587D01*
X114148000Y-72682785D01*
X114105436Y-73116885D01*
X113984365Y-73517896D01*
X113787706Y-73887755D01*
X113522960Y-74212365D01*
X113200201Y-74479374D01*
X112831730Y-74678606D01*
X112431578Y-74802474D01*
X111998422Y-74848000D01*
X41127000Y-74848000D01*
X41127000Y-69825000D01*
X89561928Y-69825000D01*
X89574188Y-69949482D01*
X89610498Y-70069180D01*
X89669463Y-70179494D01*
X89748815Y-70276185D01*
X89845506Y-70355537D01*
X89955820Y-70414502D01*
X90075518Y-70450812D01*
X90200000Y-70463072D01*
X90614250Y-70460000D01*
X90773000Y-70301250D01*
X90773000Y-69464500D01*
X91027000Y-69464500D01*
X91027000Y-70301250D01*
X91185750Y-70460000D01*
X91600000Y-70463072D01*
X91724482Y-70450812D01*
X91844180Y-70414502D01*
X91954494Y-70355537D01*
X92051185Y-70276185D01*
X92130537Y-70179494D01*
X92189502Y-70069180D01*
X92225812Y-69949482D01*
X92238072Y-69825000D01*
X92235000Y-69623250D01*
X92076250Y-69464500D01*
X91027000Y-69464500D01*
X90773000Y-69464500D01*
X89723750Y-69464500D01*
X89565000Y-69623250D01*
X89561928Y-69825000D01*
X41127000Y-69825000D01*
X41127000Y-68700000D01*
X41124560Y-68675224D01*
X41117333Y-68651399D01*
X41105597Y-68629443D01*
X41089803Y-68610197D01*
X41070557Y-68594403D01*
X41048601Y-68582667D01*
X41024776Y-68575440D01*
X41000000Y-68573000D01*
X34852000Y-68573000D01*
X34852000Y-32200000D01*
X43073000Y-32200000D01*
X43073000Y-68700000D01*
X43075440Y-68724776D01*
X43082667Y-68748601D01*
X43094403Y-68770557D01*
X43110197Y-68789803D01*
X43129443Y-68805597D01*
X43151399Y-68817333D01*
X43175224Y-68824560D01*
X43200000Y-68827000D01*
X89564193Y-68827000D01*
X89561928Y-68850000D01*
X89565000Y-69051750D01*
X89723750Y-69210500D01*
X90773000Y-69210500D01*
X90773000Y-69190500D01*
X91027000Y-69190500D01*
X91027000Y-69210500D01*
X92076250Y-69210500D01*
X92235000Y-69051750D01*
X92238072Y-68850000D01*
X92235807Y-68827000D01*
X97300000Y-68827000D01*
X97324776Y-68824560D01*
X97348601Y-68817333D01*
X97370557Y-68805597D01*
X97389803Y-68789803D01*
X97405597Y-68770557D01*
X97417333Y-68748601D01*
X97424560Y-68724776D01*
X97427000Y-68700000D01*
X97427000Y-53000000D01*
X97424560Y-52975224D01*
X97417333Y-52951399D01*
X97405597Y-52929443D01*
X97389803Y-52910197D01*
X97370557Y-52894403D01*
X97348601Y-52882667D01*
X97324776Y-52875440D01*
X97300000Y-52873000D01*
X83827000Y-52873000D01*
X83827000Y-51056750D01*
X95790000Y-51056750D01*
X95802454Y-51164902D01*
X95841710Y-51283666D01*
X95903381Y-51392490D01*
X95985097Y-51487192D01*
X96083719Y-51564132D01*
X96195456Y-51620353D01*
X96316014Y-51653695D01*
X96440761Y-51662877D01*
X96464250Y-51660000D01*
X96623000Y-51501250D01*
X96623000Y-50898000D01*
X96877000Y-50898000D01*
X96877000Y-51501250D01*
X97035750Y-51660000D01*
X97059239Y-51662877D01*
X97183986Y-51653695D01*
X97304544Y-51620353D01*
X97416281Y-51564132D01*
X97514903Y-51487192D01*
X97596619Y-51392490D01*
X97658290Y-51283666D01*
X97697546Y-51164902D01*
X97710000Y-51056750D01*
X97551250Y-50898000D01*
X96877000Y-50898000D01*
X96623000Y-50898000D01*
X95948750Y-50898000D01*
X95790000Y-51056750D01*
X83827000Y-51056750D01*
X83827000Y-50375000D01*
X88136928Y-50375000D01*
X88149188Y-50499482D01*
X88185498Y-50619180D01*
X88244463Y-50729494D01*
X88323815Y-50826185D01*
X88420506Y-50905537D01*
X88530820Y-50964502D01*
X88650518Y-51000812D01*
X88775000Y-51013072D01*
X89114250Y-51010000D01*
X89273000Y-50851250D01*
X89273000Y-49627000D01*
X88298750Y-49627000D01*
X88140000Y-49785750D01*
X88136928Y-50375000D01*
X83827000Y-50375000D01*
X83827000Y-47675000D01*
X88136928Y-47675000D01*
X88149188Y-47799482D01*
X88185498Y-47919180D01*
X88244463Y-48029494D01*
X88323815Y-48126185D01*
X88352834Y-48150000D01*
X88323815Y-48173815D01*
X88244463Y-48270506D01*
X88185498Y-48380820D01*
X88149188Y-48500518D01*
X88136928Y-48625000D01*
X88140000Y-49214250D01*
X88298750Y-49373000D01*
X89273000Y-49373000D01*
X89273000Y-46927000D01*
X88298750Y-46927000D01*
X88140000Y-47085750D01*
X88136928Y-47675000D01*
X83827000Y-47675000D01*
X83827000Y-44975000D01*
X88136928Y-44975000D01*
X88149188Y-45099482D01*
X88185498Y-45219180D01*
X88244463Y-45329494D01*
X88323815Y-45426185D01*
X88352834Y-45450000D01*
X88323815Y-45473815D01*
X88244463Y-45570506D01*
X88185498Y-45680820D01*
X88149188Y-45800518D01*
X88136928Y-45925000D01*
X88140000Y-46514250D01*
X88298750Y-46673000D01*
X89273000Y-46673000D01*
X89273000Y-44227000D01*
X88298750Y-44227000D01*
X88140000Y-44385750D01*
X88136928Y-44975000D01*
X83827000Y-44975000D01*
X83827000Y-42275000D01*
X88136928Y-42275000D01*
X88149188Y-42399482D01*
X88185498Y-42519180D01*
X88244463Y-42629494D01*
X88323815Y-42726185D01*
X88352834Y-42750000D01*
X88323815Y-42773815D01*
X88244463Y-42870506D01*
X88185498Y-42980820D01*
X88149188Y-43100518D01*
X88136928Y-43225000D01*
X88140000Y-43814250D01*
X88298750Y-43973000D01*
X89273000Y-43973000D01*
X89273000Y-41527000D01*
X88298750Y-41527000D01*
X88140000Y-41685750D01*
X88136928Y-42275000D01*
X83827000Y-42275000D01*
X83827000Y-40525000D01*
X88136928Y-40525000D01*
X88140000Y-41114250D01*
X88298750Y-41273000D01*
X89273000Y-41273000D01*
X89273000Y-40048750D01*
X89114250Y-39890000D01*
X88775000Y-39886928D01*
X88650518Y-39899188D01*
X88530820Y-39935498D01*
X88420506Y-39994463D01*
X88323815Y-40073815D01*
X88244463Y-40170506D01*
X88185498Y-40280820D01*
X88149188Y-40400518D01*
X88136928Y-40525000D01*
X83827000Y-40525000D01*
X83827000Y-36227000D01*
X90273000Y-36227000D01*
X90273000Y-39937540D01*
X90269180Y-39935498D01*
X90149482Y-39899188D01*
X90025000Y-39886928D01*
X89685750Y-39890000D01*
X89527000Y-40048750D01*
X89527000Y-41273000D01*
X89547000Y-41273000D01*
X89547000Y-41527000D01*
X89527000Y-41527000D01*
X89527000Y-43973000D01*
X89547000Y-43973000D01*
X89547000Y-44227000D01*
X89527000Y-44227000D01*
X89527000Y-46673000D01*
X89547000Y-46673000D01*
X89547000Y-46927000D01*
X89527000Y-46927000D01*
X89527000Y-49373000D01*
X89547000Y-49373000D01*
X89547000Y-49627000D01*
X89527000Y-49627000D01*
X89527000Y-50851250D01*
X89685750Y-51010000D01*
X90025000Y-51013072D01*
X90149482Y-51000812D01*
X90269180Y-50964502D01*
X90379494Y-50905537D01*
X90475192Y-50827000D01*
X97300000Y-50827000D01*
X97324776Y-50824560D01*
X97348601Y-50817333D01*
X97370557Y-50805597D01*
X97374940Y-50802000D01*
X97551250Y-50802000D01*
X97710000Y-50643250D01*
X97697546Y-50535098D01*
X97658290Y-50416334D01*
X97596619Y-50307510D01*
X97514903Y-50212808D01*
X97427000Y-50144230D01*
X97427000Y-49429980D01*
X97513592Y-49256796D01*
X97522490Y-49233544D01*
X97527000Y-49200000D01*
X97527000Y-42400000D01*
X98073000Y-42400000D01*
X98073000Y-49200000D01*
X98075440Y-49224776D01*
X98086408Y-49256796D01*
X98173000Y-49429980D01*
X98173000Y-50979390D01*
X98079517Y-51259839D01*
X98073997Y-51284116D01*
X98073000Y-51300000D01*
X98073000Y-55300000D01*
X98075440Y-55324776D01*
X98082667Y-55348601D01*
X98094403Y-55370557D01*
X98110197Y-55389803D01*
X98129443Y-55405597D01*
X98151399Y-55417333D01*
X98175224Y-55424560D01*
X98200000Y-55427000D01*
X109300000Y-55427000D01*
X109324776Y-55424560D01*
X109348601Y-55417333D01*
X109370557Y-55405597D01*
X109389803Y-55389803D01*
X109405597Y-55370557D01*
X109417333Y-55348601D01*
X109424560Y-55324776D01*
X109427000Y-55300000D01*
X109427000Y-51907233D01*
X109457483Y-51916480D01*
X109564292Y-51927000D01*
X109806391Y-51927000D01*
X109940625Y-52037164D01*
X110114696Y-52130206D01*
X110303574Y-52187502D01*
X110450777Y-52202000D01*
X110549223Y-52202000D01*
X110696426Y-52187502D01*
X110885304Y-52130206D01*
X111059375Y-52037164D01*
X111211949Y-51911949D01*
X111337164Y-51759375D01*
X111430206Y-51585304D01*
X111487502Y-51396426D01*
X111506848Y-51200000D01*
X111487502Y-51003574D01*
X111430206Y-50814696D01*
X111337164Y-50640625D01*
X111228185Y-50507834D01*
X111299482Y-50500812D01*
X111419180Y-50464502D01*
X111529494Y-50405537D01*
X111626185Y-50326185D01*
X111705537Y-50229494D01*
X111764502Y-50119180D01*
X111800812Y-49999482D01*
X111813072Y-49875000D01*
X111810000Y-49485750D01*
X111651250Y-49327000D01*
X110627000Y-49327000D01*
X110627000Y-49347000D01*
X110373000Y-49347000D01*
X110373000Y-49327000D01*
X110353000Y-49327000D01*
X110353000Y-49073000D01*
X110373000Y-49073000D01*
X110373000Y-48048750D01*
X110627000Y-48048750D01*
X110627000Y-49073000D01*
X111651250Y-49073000D01*
X111810000Y-48914250D01*
X111813072Y-48525000D01*
X111800812Y-48400518D01*
X111764502Y-48280820D01*
X111705537Y-48170506D01*
X111626185Y-48073815D01*
X111529494Y-47994463D01*
X111419180Y-47935498D01*
X111299482Y-47899188D01*
X111175000Y-47886928D01*
X110785750Y-47890000D01*
X110627000Y-48048750D01*
X110373000Y-48048750D01*
X110214250Y-47890000D01*
X109825000Y-47886928D01*
X109700518Y-47899188D01*
X109580820Y-47935498D01*
X109470506Y-47994463D01*
X109427000Y-48030167D01*
X109427000Y-42400000D01*
X109424560Y-42375224D01*
X109417333Y-42351399D01*
X109405597Y-42329443D01*
X109389803Y-42310197D01*
X109370557Y-42294403D01*
X109348601Y-42282667D01*
X109324776Y-42275440D01*
X109300000Y-42273000D01*
X107035377Y-42273000D01*
X107035000Y-42248250D01*
X106876250Y-42089500D01*
X105827000Y-42089500D01*
X105827000Y-42109500D01*
X105573000Y-42109500D01*
X105573000Y-42089500D01*
X104523750Y-42089500D01*
X104365000Y-42248250D01*
X104364623Y-42273000D01*
X98200000Y-42273000D01*
X98175224Y-42275440D01*
X98151399Y-42282667D01*
X98129443Y-42294403D01*
X98110197Y-42310197D01*
X98094403Y-42329443D01*
X98082667Y-42351399D01*
X98075440Y-42375224D01*
X98073000Y-42400000D01*
X97527000Y-42400000D01*
X97527000Y-41475000D01*
X104361928Y-41475000D01*
X104365000Y-41676750D01*
X104523750Y-41835500D01*
X105573000Y-41835500D01*
X105573000Y-40998750D01*
X105827000Y-40998750D01*
X105827000Y-41835500D01*
X106876250Y-41835500D01*
X107035000Y-41676750D01*
X107038072Y-41475000D01*
X107025812Y-41350518D01*
X106989502Y-41230820D01*
X106930537Y-41120506D01*
X106851185Y-41023815D01*
X106754494Y-40944463D01*
X106644180Y-40885498D01*
X106524482Y-40849188D01*
X106400000Y-40836928D01*
X105985750Y-40840000D01*
X105827000Y-40998750D01*
X105573000Y-40998750D01*
X105414250Y-40840000D01*
X105000000Y-40836928D01*
X104875518Y-40849188D01*
X104755820Y-40885498D01*
X104645506Y-40944463D01*
X104548815Y-41023815D01*
X104469463Y-41120506D01*
X104410498Y-41230820D01*
X104374188Y-41350518D01*
X104361928Y-41475000D01*
X97527000Y-41475000D01*
X97527000Y-32200000D01*
X97524560Y-32175224D01*
X97517333Y-32151399D01*
X97505597Y-32129443D01*
X97489803Y-32110197D01*
X97470557Y-32094403D01*
X97448601Y-32082667D01*
X97424776Y-32075440D01*
X97400000Y-32073000D01*
X43200000Y-32073000D01*
X43175224Y-32075440D01*
X43151399Y-32082667D01*
X43129443Y-32094403D01*
X43110197Y-32110197D01*
X43094403Y-32129443D01*
X43082667Y-32151399D01*
X43075440Y-32175224D01*
X43073000Y-32200000D01*
X34852000Y-32200000D01*
X34852000Y-27717215D01*
X34894564Y-27283110D01*
X35015635Y-26882107D01*
X35212292Y-26512248D01*
X35477040Y-26187634D01*
X35799799Y-25920626D01*
X36168270Y-25721394D01*
X36568422Y-25597526D01*
X37001578Y-25552000D01*
X111982785Y-25552000D01*
X112416890Y-25594564D01*
G36*
X53073000Y-50273000D02*
G01*
X50337313Y-50273000D01*
X50335000Y-49885750D01*
X50176250Y-49727000D01*
X48627000Y-49727000D01*
X48627000Y-49747000D01*
X48373000Y-49747000D01*
X48373000Y-49727000D01*
X46823750Y-49727000D01*
X46665000Y-49885750D01*
X46662687Y-50273000D01*
X43927000Y-50273000D01*
X43927000Y-48800000D01*
X46661928Y-48800000D01*
X46665000Y-49314250D01*
X46823750Y-49473000D01*
X48373000Y-49473000D01*
X48373000Y-48323750D01*
X48627000Y-48323750D01*
X48627000Y-49473000D01*
X50176250Y-49473000D01*
X50335000Y-49314250D01*
X50338072Y-48800000D01*
X50325812Y-48675518D01*
X50289502Y-48555820D01*
X50230537Y-48445506D01*
X50151185Y-48348815D01*
X50054494Y-48269463D01*
X49944180Y-48210498D01*
X49824482Y-48174188D01*
X49700000Y-48161928D01*
X48785750Y-48165000D01*
X48627000Y-48323750D01*
X48373000Y-48323750D01*
X48214250Y-48165000D01*
X47300000Y-48161928D01*
X47175518Y-48174188D01*
X47055820Y-48210498D01*
X46945506Y-48269463D01*
X46848815Y-48348815D01*
X46769463Y-48445506D01*
X46710498Y-48555820D01*
X46674188Y-48675518D01*
X46661928Y-48800000D01*
X43927000Y-48800000D01*
X43927000Y-36550000D01*
X46661928Y-36550000D01*
X46674188Y-36674482D01*
X46710498Y-36794180D01*
X46769463Y-36904494D01*
X46848815Y-37001185D01*
X46945506Y-37080537D01*
X47055820Y-37139502D01*
X47175518Y-37175812D01*
X47300000Y-37188072D01*
X48214250Y-37185000D01*
X48373000Y-37026250D01*
X48373000Y-36377000D01*
X48627000Y-36377000D01*
X48627000Y-37026250D01*
X48785750Y-37185000D01*
X49700000Y-37188072D01*
X49824482Y-37175812D01*
X49944180Y-37139502D01*
X50054494Y-37080537D01*
X50151185Y-37001185D01*
X50230537Y-36904494D01*
X50289502Y-36794180D01*
X50325812Y-36674482D01*
X50338072Y-36550000D01*
X50335000Y-36535750D01*
X50176250Y-36377000D01*
X48627000Y-36377000D01*
X48373000Y-36377000D01*
X46823750Y-36377000D01*
X46665000Y-36535750D01*
X46661928Y-36550000D01*
X43927000Y-36550000D01*
X43927000Y-36127000D01*
X53073000Y-36127000D01*
X53073000Y-50273000D01*
X53073000Y-50273000D01*
G37*
X53073000Y-50273000D02*
X50337313Y-50273000D01*
X50335000Y-49885750D01*
X50176250Y-49727000D01*
X48627000Y-49727000D01*
X48627000Y-49747000D01*
X48373000Y-49747000D01*
X48373000Y-49727000D01*
X46823750Y-49727000D01*
X46665000Y-49885750D01*
X46662687Y-50273000D01*
X43927000Y-50273000D01*
X43927000Y-48800000D01*
X46661928Y-48800000D01*
X46665000Y-49314250D01*
X46823750Y-49473000D01*
X48373000Y-49473000D01*
X48373000Y-48323750D01*
X48627000Y-48323750D01*
X48627000Y-49473000D01*
X50176250Y-49473000D01*
X50335000Y-49314250D01*
X50338072Y-48800000D01*
X50325812Y-48675518D01*
X50289502Y-48555820D01*
X50230537Y-48445506D01*
X50151185Y-48348815D01*
X50054494Y-48269463D01*
X49944180Y-48210498D01*
X49824482Y-48174188D01*
X49700000Y-48161928D01*
X48785750Y-48165000D01*
X48627000Y-48323750D01*
X48373000Y-48323750D01*
X48214250Y-48165000D01*
X47300000Y-48161928D01*
X47175518Y-48174188D01*
X47055820Y-48210498D01*
X46945506Y-48269463D01*
X46848815Y-48348815D01*
X46769463Y-48445506D01*
X46710498Y-48555820D01*
X46674188Y-48675518D01*
X46661928Y-48800000D01*
X43927000Y-48800000D01*
X43927000Y-36550000D01*
X46661928Y-36550000D01*
X46674188Y-36674482D01*
X46710498Y-36794180D01*
X46769463Y-36904494D01*
X46848815Y-37001185D01*
X46945506Y-37080537D01*
X47055820Y-37139502D01*
X47175518Y-37175812D01*
X47300000Y-37188072D01*
X48214250Y-37185000D01*
X48373000Y-37026250D01*
X48373000Y-36377000D01*
X48627000Y-36377000D01*
X48627000Y-37026250D01*
X48785750Y-37185000D01*
X49700000Y-37188072D01*
X49824482Y-37175812D01*
X49944180Y-37139502D01*
X50054494Y-37080537D01*
X50151185Y-37001185D01*
X50230537Y-36904494D01*
X50289502Y-36794180D01*
X50325812Y-36674482D01*
X50338072Y-36550000D01*
X50335000Y-36535750D01*
X50176250Y-36377000D01*
X48627000Y-36377000D01*
X48373000Y-36377000D01*
X46823750Y-36377000D01*
X46665000Y-36535750D01*
X46661928Y-36550000D01*
X43927000Y-36550000D01*
X43927000Y-36127000D01*
X53073000Y-36127000D01*
X53073000Y-50273000D01*
G36*
X63073000Y-50273000D02*
G01*
X60337313Y-50273000D01*
X60335000Y-49885750D01*
X60176250Y-49727000D01*
X58627000Y-49727000D01*
X58627000Y-49747000D01*
X58373000Y-49747000D01*
X58373000Y-49727000D01*
X56823750Y-49727000D01*
X56665000Y-49885750D01*
X56662687Y-50273000D01*
X53927000Y-50273000D01*
X53927000Y-48800000D01*
X56661928Y-48800000D01*
X56665000Y-49314250D01*
X56823750Y-49473000D01*
X58373000Y-49473000D01*
X58373000Y-48323750D01*
X58627000Y-48323750D01*
X58627000Y-49473000D01*
X60176250Y-49473000D01*
X60335000Y-49314250D01*
X60338072Y-48800000D01*
X60325812Y-48675518D01*
X60289502Y-48555820D01*
X60230537Y-48445506D01*
X60151185Y-48348815D01*
X60054494Y-48269463D01*
X59944180Y-48210498D01*
X59824482Y-48174188D01*
X59700000Y-48161928D01*
X58785750Y-48165000D01*
X58627000Y-48323750D01*
X58373000Y-48323750D01*
X58214250Y-48165000D01*
X57300000Y-48161928D01*
X57175518Y-48174188D01*
X57055820Y-48210498D01*
X56945506Y-48269463D01*
X56848815Y-48348815D01*
X56769463Y-48445506D01*
X56710498Y-48555820D01*
X56674188Y-48675518D01*
X56661928Y-48800000D01*
X53927000Y-48800000D01*
X53927000Y-36550000D01*
X56661928Y-36550000D01*
X56674188Y-36674482D01*
X56710498Y-36794180D01*
X56769463Y-36904494D01*
X56848815Y-37001185D01*
X56945506Y-37080537D01*
X57055820Y-37139502D01*
X57175518Y-37175812D01*
X57300000Y-37188072D01*
X58214250Y-37185000D01*
X58373000Y-37026250D01*
X58373000Y-36377000D01*
X58627000Y-36377000D01*
X58627000Y-37026250D01*
X58785750Y-37185000D01*
X59700000Y-37188072D01*
X59824482Y-37175812D01*
X59944180Y-37139502D01*
X60054494Y-37080537D01*
X60151185Y-37001185D01*
X60230537Y-36904494D01*
X60289502Y-36794180D01*
X60325812Y-36674482D01*
X60338072Y-36550000D01*
X60335000Y-36535750D01*
X60176250Y-36377000D01*
X58627000Y-36377000D01*
X58373000Y-36377000D01*
X56823750Y-36377000D01*
X56665000Y-36535750D01*
X56661928Y-36550000D01*
X53927000Y-36550000D01*
X53927000Y-36127000D01*
X63073000Y-36127000D01*
X63073000Y-50273000D01*
X63073000Y-50273000D01*
G37*
X63073000Y-50273000D02*
X60337313Y-50273000D01*
X60335000Y-49885750D01*
X60176250Y-49727000D01*
X58627000Y-49727000D01*
X58627000Y-49747000D01*
X58373000Y-49747000D01*
X58373000Y-49727000D01*
X56823750Y-49727000D01*
X56665000Y-49885750D01*
X56662687Y-50273000D01*
X53927000Y-50273000D01*
X53927000Y-48800000D01*
X56661928Y-48800000D01*
X56665000Y-49314250D01*
X56823750Y-49473000D01*
X58373000Y-49473000D01*
X58373000Y-48323750D01*
X58627000Y-48323750D01*
X58627000Y-49473000D01*
X60176250Y-49473000D01*
X60335000Y-49314250D01*
X60338072Y-48800000D01*
X60325812Y-48675518D01*
X60289502Y-48555820D01*
X60230537Y-48445506D01*
X60151185Y-48348815D01*
X60054494Y-48269463D01*
X59944180Y-48210498D01*
X59824482Y-48174188D01*
X59700000Y-48161928D01*
X58785750Y-48165000D01*
X58627000Y-48323750D01*
X58373000Y-48323750D01*
X58214250Y-48165000D01*
X57300000Y-48161928D01*
X57175518Y-48174188D01*
X57055820Y-48210498D01*
X56945506Y-48269463D01*
X56848815Y-48348815D01*
X56769463Y-48445506D01*
X56710498Y-48555820D01*
X56674188Y-48675518D01*
X56661928Y-48800000D01*
X53927000Y-48800000D01*
X53927000Y-36550000D01*
X56661928Y-36550000D01*
X56674188Y-36674482D01*
X56710498Y-36794180D01*
X56769463Y-36904494D01*
X56848815Y-37001185D01*
X56945506Y-37080537D01*
X57055820Y-37139502D01*
X57175518Y-37175812D01*
X57300000Y-37188072D01*
X58214250Y-37185000D01*
X58373000Y-37026250D01*
X58373000Y-36377000D01*
X58627000Y-36377000D01*
X58627000Y-37026250D01*
X58785750Y-37185000D01*
X59700000Y-37188072D01*
X59824482Y-37175812D01*
X59944180Y-37139502D01*
X60054494Y-37080537D01*
X60151185Y-37001185D01*
X60230537Y-36904494D01*
X60289502Y-36794180D01*
X60325812Y-36674482D01*
X60338072Y-36550000D01*
X60335000Y-36535750D01*
X60176250Y-36377000D01*
X58627000Y-36377000D01*
X58373000Y-36377000D01*
X56823750Y-36377000D01*
X56665000Y-36535750D01*
X56661928Y-36550000D01*
X53927000Y-36550000D01*
X53927000Y-36127000D01*
X63073000Y-36127000D01*
X63073000Y-50273000D01*
G36*
X73073000Y-50273000D02*
G01*
X70337313Y-50273000D01*
X70335000Y-49885750D01*
X70176250Y-49727000D01*
X68627000Y-49727000D01*
X68627000Y-49747000D01*
X68373000Y-49747000D01*
X68373000Y-49727000D01*
X66823750Y-49727000D01*
X66665000Y-49885750D01*
X66662687Y-50273000D01*
X63927000Y-50273000D01*
X63927000Y-48800000D01*
X66661928Y-48800000D01*
X66665000Y-49314250D01*
X66823750Y-49473000D01*
X68373000Y-49473000D01*
X68373000Y-48323750D01*
X68627000Y-48323750D01*
X68627000Y-49473000D01*
X70176250Y-49473000D01*
X70335000Y-49314250D01*
X70338072Y-48800000D01*
X70325812Y-48675518D01*
X70289502Y-48555820D01*
X70230537Y-48445506D01*
X70151185Y-48348815D01*
X70054494Y-48269463D01*
X69944180Y-48210498D01*
X69824482Y-48174188D01*
X69700000Y-48161928D01*
X68785750Y-48165000D01*
X68627000Y-48323750D01*
X68373000Y-48323750D01*
X68214250Y-48165000D01*
X67300000Y-48161928D01*
X67175518Y-48174188D01*
X67055820Y-48210498D01*
X66945506Y-48269463D01*
X66848815Y-48348815D01*
X66769463Y-48445506D01*
X66710498Y-48555820D01*
X66674188Y-48675518D01*
X66661928Y-48800000D01*
X63927000Y-48800000D01*
X63927000Y-36550000D01*
X66661928Y-36550000D01*
X66674188Y-36674482D01*
X66710498Y-36794180D01*
X66769463Y-36904494D01*
X66848815Y-37001185D01*
X66945506Y-37080537D01*
X67055820Y-37139502D01*
X67175518Y-37175812D01*
X67300000Y-37188072D01*
X68214250Y-37185000D01*
X68373000Y-37026250D01*
X68373000Y-36377000D01*
X68627000Y-36377000D01*
X68627000Y-37026250D01*
X68785750Y-37185000D01*
X69700000Y-37188072D01*
X69824482Y-37175812D01*
X69944180Y-37139502D01*
X70054494Y-37080537D01*
X70151185Y-37001185D01*
X70230537Y-36904494D01*
X70289502Y-36794180D01*
X70325812Y-36674482D01*
X70338072Y-36550000D01*
X70335000Y-36535750D01*
X70176250Y-36377000D01*
X68627000Y-36377000D01*
X68373000Y-36377000D01*
X66823750Y-36377000D01*
X66665000Y-36535750D01*
X66661928Y-36550000D01*
X63927000Y-36550000D01*
X63927000Y-36127000D01*
X73073000Y-36127000D01*
X73073000Y-50273000D01*
X73073000Y-50273000D01*
G37*
X73073000Y-50273000D02*
X70337313Y-50273000D01*
X70335000Y-49885750D01*
X70176250Y-49727000D01*
X68627000Y-49727000D01*
X68627000Y-49747000D01*
X68373000Y-49747000D01*
X68373000Y-49727000D01*
X66823750Y-49727000D01*
X66665000Y-49885750D01*
X66662687Y-50273000D01*
X63927000Y-50273000D01*
X63927000Y-48800000D01*
X66661928Y-48800000D01*
X66665000Y-49314250D01*
X66823750Y-49473000D01*
X68373000Y-49473000D01*
X68373000Y-48323750D01*
X68627000Y-48323750D01*
X68627000Y-49473000D01*
X70176250Y-49473000D01*
X70335000Y-49314250D01*
X70338072Y-48800000D01*
X70325812Y-48675518D01*
X70289502Y-48555820D01*
X70230537Y-48445506D01*
X70151185Y-48348815D01*
X70054494Y-48269463D01*
X69944180Y-48210498D01*
X69824482Y-48174188D01*
X69700000Y-48161928D01*
X68785750Y-48165000D01*
X68627000Y-48323750D01*
X68373000Y-48323750D01*
X68214250Y-48165000D01*
X67300000Y-48161928D01*
X67175518Y-48174188D01*
X67055820Y-48210498D01*
X66945506Y-48269463D01*
X66848815Y-48348815D01*
X66769463Y-48445506D01*
X66710498Y-48555820D01*
X66674188Y-48675518D01*
X66661928Y-48800000D01*
X63927000Y-48800000D01*
X63927000Y-36550000D01*
X66661928Y-36550000D01*
X66674188Y-36674482D01*
X66710498Y-36794180D01*
X66769463Y-36904494D01*
X66848815Y-37001185D01*
X66945506Y-37080537D01*
X67055820Y-37139502D01*
X67175518Y-37175812D01*
X67300000Y-37188072D01*
X68214250Y-37185000D01*
X68373000Y-37026250D01*
X68373000Y-36377000D01*
X68627000Y-36377000D01*
X68627000Y-37026250D01*
X68785750Y-37185000D01*
X69700000Y-37188072D01*
X69824482Y-37175812D01*
X69944180Y-37139502D01*
X70054494Y-37080537D01*
X70151185Y-37001185D01*
X70230537Y-36904494D01*
X70289502Y-36794180D01*
X70325812Y-36674482D01*
X70338072Y-36550000D01*
X70335000Y-36535750D01*
X70176250Y-36377000D01*
X68627000Y-36377000D01*
X68373000Y-36377000D01*
X66823750Y-36377000D01*
X66665000Y-36535750D01*
X66661928Y-36550000D01*
X63927000Y-36550000D01*
X63927000Y-36127000D01*
X73073000Y-36127000D01*
X73073000Y-50273000D01*
G36*
X83073000Y-50273000D02*
G01*
X80337313Y-50273000D01*
X80335000Y-49885750D01*
X80176250Y-49727000D01*
X78627000Y-49727000D01*
X78627000Y-49747000D01*
X78373000Y-49747000D01*
X78373000Y-49727000D01*
X76823750Y-49727000D01*
X76665000Y-49885750D01*
X76662687Y-50273000D01*
X73927000Y-50273000D01*
X73927000Y-48800000D01*
X76661928Y-48800000D01*
X76665000Y-49314250D01*
X76823750Y-49473000D01*
X78373000Y-49473000D01*
X78373000Y-48323750D01*
X78627000Y-48323750D01*
X78627000Y-49473000D01*
X80176250Y-49473000D01*
X80335000Y-49314250D01*
X80338072Y-48800000D01*
X80325812Y-48675518D01*
X80289502Y-48555820D01*
X80230537Y-48445506D01*
X80151185Y-48348815D01*
X80054494Y-48269463D01*
X79944180Y-48210498D01*
X79824482Y-48174188D01*
X79700000Y-48161928D01*
X78785750Y-48165000D01*
X78627000Y-48323750D01*
X78373000Y-48323750D01*
X78214250Y-48165000D01*
X77300000Y-48161928D01*
X77175518Y-48174188D01*
X77055820Y-48210498D01*
X76945506Y-48269463D01*
X76848815Y-48348815D01*
X76769463Y-48445506D01*
X76710498Y-48555820D01*
X76674188Y-48675518D01*
X76661928Y-48800000D01*
X73927000Y-48800000D01*
X73927000Y-36550000D01*
X76661928Y-36550000D01*
X76674188Y-36674482D01*
X76710498Y-36794180D01*
X76769463Y-36904494D01*
X76848815Y-37001185D01*
X76945506Y-37080537D01*
X77055820Y-37139502D01*
X77175518Y-37175812D01*
X77300000Y-37188072D01*
X78214250Y-37185000D01*
X78373000Y-37026250D01*
X78373000Y-36377000D01*
X78627000Y-36377000D01*
X78627000Y-37026250D01*
X78785750Y-37185000D01*
X79700000Y-37188072D01*
X79824482Y-37175812D01*
X79944180Y-37139502D01*
X80054494Y-37080537D01*
X80151185Y-37001185D01*
X80230537Y-36904494D01*
X80289502Y-36794180D01*
X80325812Y-36674482D01*
X80338072Y-36550000D01*
X80335000Y-36535750D01*
X80176250Y-36377000D01*
X78627000Y-36377000D01*
X78373000Y-36377000D01*
X76823750Y-36377000D01*
X76665000Y-36535750D01*
X76661928Y-36550000D01*
X73927000Y-36550000D01*
X73927000Y-36127000D01*
X83073000Y-36127000D01*
X83073000Y-50273000D01*
X83073000Y-50273000D01*
G37*
X83073000Y-50273000D02*
X80337313Y-50273000D01*
X80335000Y-49885750D01*
X80176250Y-49727000D01*
X78627000Y-49727000D01*
X78627000Y-49747000D01*
X78373000Y-49747000D01*
X78373000Y-49727000D01*
X76823750Y-49727000D01*
X76665000Y-49885750D01*
X76662687Y-50273000D01*
X73927000Y-50273000D01*
X73927000Y-48800000D01*
X76661928Y-48800000D01*
X76665000Y-49314250D01*
X76823750Y-49473000D01*
X78373000Y-49473000D01*
X78373000Y-48323750D01*
X78627000Y-48323750D01*
X78627000Y-49473000D01*
X80176250Y-49473000D01*
X80335000Y-49314250D01*
X80338072Y-48800000D01*
X80325812Y-48675518D01*
X80289502Y-48555820D01*
X80230537Y-48445506D01*
X80151185Y-48348815D01*
X80054494Y-48269463D01*
X79944180Y-48210498D01*
X79824482Y-48174188D01*
X79700000Y-48161928D01*
X78785750Y-48165000D01*
X78627000Y-48323750D01*
X78373000Y-48323750D01*
X78214250Y-48165000D01*
X77300000Y-48161928D01*
X77175518Y-48174188D01*
X77055820Y-48210498D01*
X76945506Y-48269463D01*
X76848815Y-48348815D01*
X76769463Y-48445506D01*
X76710498Y-48555820D01*
X76674188Y-48675518D01*
X76661928Y-48800000D01*
X73927000Y-48800000D01*
X73927000Y-36550000D01*
X76661928Y-36550000D01*
X76674188Y-36674482D01*
X76710498Y-36794180D01*
X76769463Y-36904494D01*
X76848815Y-37001185D01*
X76945506Y-37080537D01*
X77055820Y-37139502D01*
X77175518Y-37175812D01*
X77300000Y-37188072D01*
X78214250Y-37185000D01*
X78373000Y-37026250D01*
X78373000Y-36377000D01*
X78627000Y-36377000D01*
X78627000Y-37026250D01*
X78785750Y-37185000D01*
X79700000Y-37188072D01*
X79824482Y-37175812D01*
X79944180Y-37139502D01*
X80054494Y-37080537D01*
X80151185Y-37001185D01*
X80230537Y-36904494D01*
X80289502Y-36794180D01*
X80325812Y-36674482D01*
X80338072Y-36550000D01*
X80335000Y-36535750D01*
X80176250Y-36377000D01*
X78627000Y-36377000D01*
X78373000Y-36377000D01*
X76823750Y-36377000D01*
X76665000Y-36535750D01*
X76661928Y-36550000D01*
X73927000Y-36550000D01*
X73927000Y-36127000D01*
X83073000Y-36127000D01*
X83073000Y-50273000D01*
G36*
X83073000Y-65273000D02*
G01*
X80337313Y-65273000D01*
X80335000Y-64885750D01*
X80176250Y-64727000D01*
X78627000Y-64727000D01*
X78627000Y-64747000D01*
X78373000Y-64747000D01*
X78373000Y-64727000D01*
X76823750Y-64727000D01*
X76665000Y-64885750D01*
X76662687Y-65273000D01*
X73927000Y-65273000D01*
X73927000Y-63800000D01*
X76661928Y-63800000D01*
X76665000Y-64314250D01*
X76823750Y-64473000D01*
X78373000Y-64473000D01*
X78373000Y-63323750D01*
X78627000Y-63323750D01*
X78627000Y-64473000D01*
X80176250Y-64473000D01*
X80335000Y-64314250D01*
X80338072Y-63800000D01*
X80325812Y-63675518D01*
X80289502Y-63555820D01*
X80230537Y-63445506D01*
X80151185Y-63348815D01*
X80054494Y-63269463D01*
X79944180Y-63210498D01*
X79824482Y-63174188D01*
X79700000Y-63161928D01*
X78785750Y-63165000D01*
X78627000Y-63323750D01*
X78373000Y-63323750D01*
X78214250Y-63165000D01*
X77300000Y-63161928D01*
X77175518Y-63174188D01*
X77055820Y-63210498D01*
X76945506Y-63269463D01*
X76848815Y-63348815D01*
X76769463Y-63445506D01*
X76710498Y-63555820D01*
X76674188Y-63675518D01*
X76661928Y-63800000D01*
X73927000Y-63800000D01*
X73927000Y-51550000D01*
X76661928Y-51550000D01*
X76674188Y-51674482D01*
X76710498Y-51794180D01*
X76769463Y-51904494D01*
X76848815Y-52001185D01*
X76945506Y-52080537D01*
X77055820Y-52139502D01*
X77175518Y-52175812D01*
X77300000Y-52188072D01*
X78214250Y-52185000D01*
X78373000Y-52026250D01*
X78373000Y-51377000D01*
X78627000Y-51377000D01*
X78627000Y-52026250D01*
X78785750Y-52185000D01*
X79700000Y-52188072D01*
X79824482Y-52175812D01*
X79944180Y-52139502D01*
X80054494Y-52080537D01*
X80151185Y-52001185D01*
X80230537Y-51904494D01*
X80289502Y-51794180D01*
X80325812Y-51674482D01*
X80338072Y-51550000D01*
X80335000Y-51535750D01*
X80176250Y-51377000D01*
X78627000Y-51377000D01*
X78373000Y-51377000D01*
X76823750Y-51377000D01*
X76665000Y-51535750D01*
X76661928Y-51550000D01*
X73927000Y-51550000D01*
X73927000Y-51127000D01*
X83073000Y-51127000D01*
X83073000Y-65273000D01*
X83073000Y-65273000D01*
G37*
X83073000Y-65273000D02*
X80337313Y-65273000D01*
X80335000Y-64885750D01*
X80176250Y-64727000D01*
X78627000Y-64727000D01*
X78627000Y-64747000D01*
X78373000Y-64747000D01*
X78373000Y-64727000D01*
X76823750Y-64727000D01*
X76665000Y-64885750D01*
X76662687Y-65273000D01*
X73927000Y-65273000D01*
X73927000Y-63800000D01*
X76661928Y-63800000D01*
X76665000Y-64314250D01*
X76823750Y-64473000D01*
X78373000Y-64473000D01*
X78373000Y-63323750D01*
X78627000Y-63323750D01*
X78627000Y-64473000D01*
X80176250Y-64473000D01*
X80335000Y-64314250D01*
X80338072Y-63800000D01*
X80325812Y-63675518D01*
X80289502Y-63555820D01*
X80230537Y-63445506D01*
X80151185Y-63348815D01*
X80054494Y-63269463D01*
X79944180Y-63210498D01*
X79824482Y-63174188D01*
X79700000Y-63161928D01*
X78785750Y-63165000D01*
X78627000Y-63323750D01*
X78373000Y-63323750D01*
X78214250Y-63165000D01*
X77300000Y-63161928D01*
X77175518Y-63174188D01*
X77055820Y-63210498D01*
X76945506Y-63269463D01*
X76848815Y-63348815D01*
X76769463Y-63445506D01*
X76710498Y-63555820D01*
X76674188Y-63675518D01*
X76661928Y-63800000D01*
X73927000Y-63800000D01*
X73927000Y-51550000D01*
X76661928Y-51550000D01*
X76674188Y-51674482D01*
X76710498Y-51794180D01*
X76769463Y-51904494D01*
X76848815Y-52001185D01*
X76945506Y-52080537D01*
X77055820Y-52139502D01*
X77175518Y-52175812D01*
X77300000Y-52188072D01*
X78214250Y-52185000D01*
X78373000Y-52026250D01*
X78373000Y-51377000D01*
X78627000Y-51377000D01*
X78627000Y-52026250D01*
X78785750Y-52185000D01*
X79700000Y-52188072D01*
X79824482Y-52175812D01*
X79944180Y-52139502D01*
X80054494Y-52080537D01*
X80151185Y-52001185D01*
X80230537Y-51904494D01*
X80289502Y-51794180D01*
X80325812Y-51674482D01*
X80338072Y-51550000D01*
X80335000Y-51535750D01*
X80176250Y-51377000D01*
X78627000Y-51377000D01*
X78373000Y-51377000D01*
X76823750Y-51377000D01*
X76665000Y-51535750D01*
X76661928Y-51550000D01*
X73927000Y-51550000D01*
X73927000Y-51127000D01*
X83073000Y-51127000D01*
X83073000Y-65273000D01*
G36*
X73073000Y-65273000D02*
G01*
X70337313Y-65273000D01*
X70335000Y-64885750D01*
X70176250Y-64727000D01*
X68627000Y-64727000D01*
X68627000Y-64747000D01*
X68373000Y-64747000D01*
X68373000Y-64727000D01*
X66823750Y-64727000D01*
X66665000Y-64885750D01*
X66662687Y-65273000D01*
X64027000Y-65273000D01*
X64027000Y-63800000D01*
X66661928Y-63800000D01*
X66665000Y-64314250D01*
X66823750Y-64473000D01*
X68373000Y-64473000D01*
X68373000Y-63323750D01*
X68627000Y-63323750D01*
X68627000Y-64473000D01*
X70176250Y-64473000D01*
X70335000Y-64314250D01*
X70338072Y-63800000D01*
X70325812Y-63675518D01*
X70289502Y-63555820D01*
X70230537Y-63445506D01*
X70151185Y-63348815D01*
X70054494Y-63269463D01*
X69944180Y-63210498D01*
X69824482Y-63174188D01*
X69700000Y-63161928D01*
X68785750Y-63165000D01*
X68627000Y-63323750D01*
X68373000Y-63323750D01*
X68214250Y-63165000D01*
X67300000Y-63161928D01*
X67175518Y-63174188D01*
X67055820Y-63210498D01*
X66945506Y-63269463D01*
X66848815Y-63348815D01*
X66769463Y-63445506D01*
X66710498Y-63555820D01*
X66674188Y-63675518D01*
X66661928Y-63800000D01*
X64027000Y-63800000D01*
X64027000Y-51550000D01*
X66661928Y-51550000D01*
X66674188Y-51674482D01*
X66710498Y-51794180D01*
X66769463Y-51904494D01*
X66848815Y-52001185D01*
X66945506Y-52080537D01*
X67055820Y-52139502D01*
X67175518Y-52175812D01*
X67300000Y-52188072D01*
X68214250Y-52185000D01*
X68373000Y-52026250D01*
X68373000Y-51377000D01*
X68627000Y-51377000D01*
X68627000Y-52026250D01*
X68785750Y-52185000D01*
X69700000Y-52188072D01*
X69824482Y-52175812D01*
X69944180Y-52139502D01*
X70054494Y-52080537D01*
X70151185Y-52001185D01*
X70230537Y-51904494D01*
X70289502Y-51794180D01*
X70325812Y-51674482D01*
X70338072Y-51550000D01*
X70335000Y-51535750D01*
X70176250Y-51377000D01*
X68627000Y-51377000D01*
X68373000Y-51377000D01*
X66823750Y-51377000D01*
X66665000Y-51535750D01*
X66661928Y-51550000D01*
X64027000Y-51550000D01*
X64027000Y-51127000D01*
X73073000Y-51127000D01*
X73073000Y-65273000D01*
X73073000Y-65273000D01*
G37*
X73073000Y-65273000D02*
X70337313Y-65273000D01*
X70335000Y-64885750D01*
X70176250Y-64727000D01*
X68627000Y-64727000D01*
X68627000Y-64747000D01*
X68373000Y-64747000D01*
X68373000Y-64727000D01*
X66823750Y-64727000D01*
X66665000Y-64885750D01*
X66662687Y-65273000D01*
X64027000Y-65273000D01*
X64027000Y-63800000D01*
X66661928Y-63800000D01*
X66665000Y-64314250D01*
X66823750Y-64473000D01*
X68373000Y-64473000D01*
X68373000Y-63323750D01*
X68627000Y-63323750D01*
X68627000Y-64473000D01*
X70176250Y-64473000D01*
X70335000Y-64314250D01*
X70338072Y-63800000D01*
X70325812Y-63675518D01*
X70289502Y-63555820D01*
X70230537Y-63445506D01*
X70151185Y-63348815D01*
X70054494Y-63269463D01*
X69944180Y-63210498D01*
X69824482Y-63174188D01*
X69700000Y-63161928D01*
X68785750Y-63165000D01*
X68627000Y-63323750D01*
X68373000Y-63323750D01*
X68214250Y-63165000D01*
X67300000Y-63161928D01*
X67175518Y-63174188D01*
X67055820Y-63210498D01*
X66945506Y-63269463D01*
X66848815Y-63348815D01*
X66769463Y-63445506D01*
X66710498Y-63555820D01*
X66674188Y-63675518D01*
X66661928Y-63800000D01*
X64027000Y-63800000D01*
X64027000Y-51550000D01*
X66661928Y-51550000D01*
X66674188Y-51674482D01*
X66710498Y-51794180D01*
X66769463Y-51904494D01*
X66848815Y-52001185D01*
X66945506Y-52080537D01*
X67055820Y-52139502D01*
X67175518Y-52175812D01*
X67300000Y-52188072D01*
X68214250Y-52185000D01*
X68373000Y-52026250D01*
X68373000Y-51377000D01*
X68627000Y-51377000D01*
X68627000Y-52026250D01*
X68785750Y-52185000D01*
X69700000Y-52188072D01*
X69824482Y-52175812D01*
X69944180Y-52139502D01*
X70054494Y-52080537D01*
X70151185Y-52001185D01*
X70230537Y-51904494D01*
X70289502Y-51794180D01*
X70325812Y-51674482D01*
X70338072Y-51550000D01*
X70335000Y-51535750D01*
X70176250Y-51377000D01*
X68627000Y-51377000D01*
X68373000Y-51377000D01*
X66823750Y-51377000D01*
X66665000Y-51535750D01*
X66661928Y-51550000D01*
X64027000Y-51550000D01*
X64027000Y-51127000D01*
X73073000Y-51127000D01*
X73073000Y-65273000D01*
G36*
X63073000Y-65273000D02*
G01*
X60337313Y-65273000D01*
X60335000Y-64885750D01*
X60176250Y-64727000D01*
X58627000Y-64727000D01*
X58627000Y-64747000D01*
X58373000Y-64747000D01*
X58373000Y-64727000D01*
X56823750Y-64727000D01*
X56665000Y-64885750D01*
X56662687Y-65273000D01*
X53927000Y-65273000D01*
X53927000Y-63800000D01*
X56661928Y-63800000D01*
X56665000Y-64314250D01*
X56823750Y-64473000D01*
X58373000Y-64473000D01*
X58373000Y-63323750D01*
X58627000Y-63323750D01*
X58627000Y-64473000D01*
X60176250Y-64473000D01*
X60335000Y-64314250D01*
X60338072Y-63800000D01*
X60325812Y-63675518D01*
X60289502Y-63555820D01*
X60230537Y-63445506D01*
X60151185Y-63348815D01*
X60054494Y-63269463D01*
X59944180Y-63210498D01*
X59824482Y-63174188D01*
X59700000Y-63161928D01*
X58785750Y-63165000D01*
X58627000Y-63323750D01*
X58373000Y-63323750D01*
X58214250Y-63165000D01*
X57300000Y-63161928D01*
X57175518Y-63174188D01*
X57055820Y-63210498D01*
X56945506Y-63269463D01*
X56848815Y-63348815D01*
X56769463Y-63445506D01*
X56710498Y-63555820D01*
X56674188Y-63675518D01*
X56661928Y-63800000D01*
X53927000Y-63800000D01*
X53927000Y-51550000D01*
X56661928Y-51550000D01*
X56674188Y-51674482D01*
X56710498Y-51794180D01*
X56769463Y-51904494D01*
X56848815Y-52001185D01*
X56945506Y-52080537D01*
X57055820Y-52139502D01*
X57175518Y-52175812D01*
X57300000Y-52188072D01*
X58214250Y-52185000D01*
X58373000Y-52026250D01*
X58373000Y-51377000D01*
X58627000Y-51377000D01*
X58627000Y-52026250D01*
X58785750Y-52185000D01*
X59700000Y-52188072D01*
X59824482Y-52175812D01*
X59944180Y-52139502D01*
X60054494Y-52080537D01*
X60151185Y-52001185D01*
X60230537Y-51904494D01*
X60289502Y-51794180D01*
X60325812Y-51674482D01*
X60338072Y-51550000D01*
X60335000Y-51535750D01*
X60176250Y-51377000D01*
X58627000Y-51377000D01*
X58373000Y-51377000D01*
X56823750Y-51377000D01*
X56665000Y-51535750D01*
X56661928Y-51550000D01*
X53927000Y-51550000D01*
X53927000Y-51127000D01*
X63073000Y-51127000D01*
X63073000Y-65273000D01*
X63073000Y-65273000D01*
G37*
X63073000Y-65273000D02*
X60337313Y-65273000D01*
X60335000Y-64885750D01*
X60176250Y-64727000D01*
X58627000Y-64727000D01*
X58627000Y-64747000D01*
X58373000Y-64747000D01*
X58373000Y-64727000D01*
X56823750Y-64727000D01*
X56665000Y-64885750D01*
X56662687Y-65273000D01*
X53927000Y-65273000D01*
X53927000Y-63800000D01*
X56661928Y-63800000D01*
X56665000Y-64314250D01*
X56823750Y-64473000D01*
X58373000Y-64473000D01*
X58373000Y-63323750D01*
X58627000Y-63323750D01*
X58627000Y-64473000D01*
X60176250Y-64473000D01*
X60335000Y-64314250D01*
X60338072Y-63800000D01*
X60325812Y-63675518D01*
X60289502Y-63555820D01*
X60230537Y-63445506D01*
X60151185Y-63348815D01*
X60054494Y-63269463D01*
X59944180Y-63210498D01*
X59824482Y-63174188D01*
X59700000Y-63161928D01*
X58785750Y-63165000D01*
X58627000Y-63323750D01*
X58373000Y-63323750D01*
X58214250Y-63165000D01*
X57300000Y-63161928D01*
X57175518Y-63174188D01*
X57055820Y-63210498D01*
X56945506Y-63269463D01*
X56848815Y-63348815D01*
X56769463Y-63445506D01*
X56710498Y-63555820D01*
X56674188Y-63675518D01*
X56661928Y-63800000D01*
X53927000Y-63800000D01*
X53927000Y-51550000D01*
X56661928Y-51550000D01*
X56674188Y-51674482D01*
X56710498Y-51794180D01*
X56769463Y-51904494D01*
X56848815Y-52001185D01*
X56945506Y-52080537D01*
X57055820Y-52139502D01*
X57175518Y-52175812D01*
X57300000Y-52188072D01*
X58214250Y-52185000D01*
X58373000Y-52026250D01*
X58373000Y-51377000D01*
X58627000Y-51377000D01*
X58627000Y-52026250D01*
X58785750Y-52185000D01*
X59700000Y-52188072D01*
X59824482Y-52175812D01*
X59944180Y-52139502D01*
X60054494Y-52080537D01*
X60151185Y-52001185D01*
X60230537Y-51904494D01*
X60289502Y-51794180D01*
X60325812Y-51674482D01*
X60338072Y-51550000D01*
X60335000Y-51535750D01*
X60176250Y-51377000D01*
X58627000Y-51377000D01*
X58373000Y-51377000D01*
X56823750Y-51377000D01*
X56665000Y-51535750D01*
X56661928Y-51550000D01*
X53927000Y-51550000D01*
X53927000Y-51127000D01*
X63073000Y-51127000D01*
X63073000Y-65273000D01*
G36*
X53073000Y-65273000D02*
G01*
X50337313Y-65273000D01*
X50335000Y-64885750D01*
X50176250Y-64727000D01*
X48627000Y-64727000D01*
X48627000Y-64747000D01*
X48373000Y-64747000D01*
X48373000Y-64727000D01*
X46823750Y-64727000D01*
X46665000Y-64885750D01*
X46662687Y-65273000D01*
X43927000Y-65273000D01*
X43927000Y-63800000D01*
X46661928Y-63800000D01*
X46665000Y-64314250D01*
X46823750Y-64473000D01*
X48373000Y-64473000D01*
X48373000Y-63323750D01*
X48627000Y-63323750D01*
X48627000Y-64473000D01*
X50176250Y-64473000D01*
X50335000Y-64314250D01*
X50338072Y-63800000D01*
X50325812Y-63675518D01*
X50289502Y-63555820D01*
X50230537Y-63445506D01*
X50151185Y-63348815D01*
X50054494Y-63269463D01*
X49944180Y-63210498D01*
X49824482Y-63174188D01*
X49700000Y-63161928D01*
X48785750Y-63165000D01*
X48627000Y-63323750D01*
X48373000Y-63323750D01*
X48214250Y-63165000D01*
X47300000Y-63161928D01*
X47175518Y-63174188D01*
X47055820Y-63210498D01*
X46945506Y-63269463D01*
X46848815Y-63348815D01*
X46769463Y-63445506D01*
X46710498Y-63555820D01*
X46674188Y-63675518D01*
X46661928Y-63800000D01*
X43927000Y-63800000D01*
X43927000Y-51550000D01*
X46661928Y-51550000D01*
X46674188Y-51674482D01*
X46710498Y-51794180D01*
X46769463Y-51904494D01*
X46848815Y-52001185D01*
X46945506Y-52080537D01*
X47055820Y-52139502D01*
X47175518Y-52175812D01*
X47300000Y-52188072D01*
X48214250Y-52185000D01*
X48373000Y-52026250D01*
X48373000Y-51377000D01*
X48627000Y-51377000D01*
X48627000Y-52026250D01*
X48785750Y-52185000D01*
X49700000Y-52188072D01*
X49824482Y-52175812D01*
X49944180Y-52139502D01*
X50054494Y-52080537D01*
X50151185Y-52001185D01*
X50230537Y-51904494D01*
X50289502Y-51794180D01*
X50325812Y-51674482D01*
X50338072Y-51550000D01*
X50335000Y-51535750D01*
X50176250Y-51377000D01*
X48627000Y-51377000D01*
X48373000Y-51377000D01*
X46823750Y-51377000D01*
X46665000Y-51535750D01*
X46661928Y-51550000D01*
X43927000Y-51550000D01*
X43927000Y-51127000D01*
X53073000Y-51127000D01*
X53073000Y-65273000D01*
X53073000Y-65273000D01*
G37*
X53073000Y-65273000D02*
X50337313Y-65273000D01*
X50335000Y-64885750D01*
X50176250Y-64727000D01*
X48627000Y-64727000D01*
X48627000Y-64747000D01*
X48373000Y-64747000D01*
X48373000Y-64727000D01*
X46823750Y-64727000D01*
X46665000Y-64885750D01*
X46662687Y-65273000D01*
X43927000Y-65273000D01*
X43927000Y-63800000D01*
X46661928Y-63800000D01*
X46665000Y-64314250D01*
X46823750Y-64473000D01*
X48373000Y-64473000D01*
X48373000Y-63323750D01*
X48627000Y-63323750D01*
X48627000Y-64473000D01*
X50176250Y-64473000D01*
X50335000Y-64314250D01*
X50338072Y-63800000D01*
X50325812Y-63675518D01*
X50289502Y-63555820D01*
X50230537Y-63445506D01*
X50151185Y-63348815D01*
X50054494Y-63269463D01*
X49944180Y-63210498D01*
X49824482Y-63174188D01*
X49700000Y-63161928D01*
X48785750Y-63165000D01*
X48627000Y-63323750D01*
X48373000Y-63323750D01*
X48214250Y-63165000D01*
X47300000Y-63161928D01*
X47175518Y-63174188D01*
X47055820Y-63210498D01*
X46945506Y-63269463D01*
X46848815Y-63348815D01*
X46769463Y-63445506D01*
X46710498Y-63555820D01*
X46674188Y-63675518D01*
X46661928Y-63800000D01*
X43927000Y-63800000D01*
X43927000Y-51550000D01*
X46661928Y-51550000D01*
X46674188Y-51674482D01*
X46710498Y-51794180D01*
X46769463Y-51904494D01*
X46848815Y-52001185D01*
X46945506Y-52080537D01*
X47055820Y-52139502D01*
X47175518Y-52175812D01*
X47300000Y-52188072D01*
X48214250Y-52185000D01*
X48373000Y-52026250D01*
X48373000Y-51377000D01*
X48627000Y-51377000D01*
X48627000Y-52026250D01*
X48785750Y-52185000D01*
X49700000Y-52188072D01*
X49824482Y-52175812D01*
X49944180Y-52139502D01*
X50054494Y-52080537D01*
X50151185Y-52001185D01*
X50230537Y-51904494D01*
X50289502Y-51794180D01*
X50325812Y-51674482D01*
X50338072Y-51550000D01*
X50335000Y-51535750D01*
X50176250Y-51377000D01*
X48627000Y-51377000D01*
X48373000Y-51377000D01*
X46823750Y-51377000D01*
X46665000Y-51535750D01*
X46661928Y-51550000D01*
X43927000Y-51550000D01*
X43927000Y-51127000D01*
X53073000Y-51127000D01*
X53073000Y-65273000D01*
M02*
