G04 #@! TF.GenerationSoftware,KiCad,Pcbnew,5.1.2*
G04 #@! TF.CreationDate,2019-07-04T05:20:16+02:00*
G04 #@! TF.ProjectId,ledside_rev17,6c656473-6964-4655-9f72-657631372e6b,rev?*
G04 #@! TF.SameCoordinates,Original*
G04 #@! TF.FileFunction,Copper,L2,Bot*
G04 #@! TF.FilePolarity,Positive*
%FSLAX46Y46*%
G04 Gerber Fmt 4.6, Leading zero omitted, Abs format (unit mm)*
G04 Created by KiCad (PCBNEW 5.1.2) date 2019-07-04 05:20:16*
%MOMM*%
%LPD*%
G04 APERTURE LIST*
%ADD10O,1.350000X1.350000*%
%ADD11R,1.350000X1.350000*%
%ADD12C,0.700000*%
%ADD13C,4.400000*%
%ADD14C,0.800000*%
%ADD15C,0.254000*%
G04 APERTURE END LIST*
D10*
X110500000Y-51200000D03*
D11*
X110500000Y-49200000D03*
D12*
X35833274Y-73866726D03*
X37000000Y-74350000D03*
X38166726Y-73866726D03*
X38650000Y-72700000D03*
X38166726Y-71533274D03*
X37000000Y-71050000D03*
X35833274Y-71533274D03*
X35350000Y-72700000D03*
D13*
X37000000Y-72700000D03*
D12*
X35783274Y-28866726D03*
X36950000Y-29350000D03*
X38116726Y-28866726D03*
X38600000Y-27700000D03*
X38116726Y-26533274D03*
X36950000Y-26050000D03*
X35783274Y-26533274D03*
X35300000Y-27700000D03*
D13*
X36950000Y-27700000D03*
D12*
X110833274Y-28866726D03*
X112000000Y-29350000D03*
X113166726Y-28866726D03*
X113650000Y-27700000D03*
X113166726Y-26533274D03*
X112000000Y-26050000D03*
X110833274Y-26533274D03*
X110350000Y-27700000D03*
D13*
X112000000Y-27700000D03*
D12*
X110783274Y-73866726D03*
X111950000Y-74350000D03*
X113116726Y-73866726D03*
X113600000Y-72700000D03*
X113116726Y-71533274D03*
X111950000Y-71050000D03*
X110783274Y-71533274D03*
X110300000Y-72700000D03*
D13*
X111950000Y-72700000D03*
D14*
X100950000Y-45600000D03*
X100950000Y-47000000D03*
X100950000Y-48400000D03*
X35300000Y-70200000D03*
X39500000Y-74400000D03*
X44500000Y-26000000D03*
X54500000Y-26000000D03*
X64500000Y-26000000D03*
X74500000Y-26000000D03*
X84500000Y-26000000D03*
X104500000Y-26000000D03*
X35250000Y-50200000D03*
X94500000Y-26000000D03*
X74500000Y-74400000D03*
X64500000Y-74400000D03*
X54500000Y-74400000D03*
X44500000Y-74400000D03*
X84500000Y-74400000D03*
X94500000Y-74400000D03*
X104500000Y-74400000D03*
X113700000Y-50200000D03*
X113700000Y-40200000D03*
X113700000Y-30200000D03*
X113700000Y-60200000D03*
X113700000Y-70200000D03*
X35250000Y-40200000D03*
X35250000Y-30200000D03*
X35250000Y-60200000D03*
X97800000Y-47800000D03*
X97800000Y-45800000D03*
X97800000Y-43800000D03*
X94400000Y-52000000D03*
X92400000Y-52000000D03*
X90400000Y-52000000D03*
X97800000Y-58100000D03*
X97800000Y-60100000D03*
X97800000Y-62200000D03*
D15*
G36*
X102473000Y-69073000D02*
G01*
X40500000Y-69073000D01*
X40475224Y-69075440D01*
X40451399Y-69082667D01*
X40429443Y-69094403D01*
X40410197Y-69110197D01*
X40394403Y-69129443D01*
X40382667Y-69151399D01*
X40375440Y-69175224D01*
X40373000Y-69200000D01*
X40373000Y-74848000D01*
X37017215Y-74848000D01*
X36583115Y-74805436D01*
X36182104Y-74684365D01*
X35812245Y-74487706D01*
X35487635Y-74222960D01*
X35220626Y-73900201D01*
X35021394Y-73531730D01*
X34897526Y-73131578D01*
X34852000Y-72698422D01*
X34852000Y-66527000D01*
X99000000Y-66527000D01*
X99024776Y-66524560D01*
X99048601Y-66517333D01*
X99070557Y-66505597D01*
X99089803Y-66489803D01*
X99105597Y-66470557D01*
X99117333Y-66448601D01*
X99124560Y-66424776D01*
X99127000Y-66400000D01*
X99127000Y-43527000D01*
X102473000Y-43527000D01*
X102473000Y-69073000D01*
X102473000Y-69073000D01*
G37*
X102473000Y-69073000D02*
X40500000Y-69073000D01*
X40475224Y-69075440D01*
X40451399Y-69082667D01*
X40429443Y-69094403D01*
X40410197Y-69110197D01*
X40394403Y-69129443D01*
X40382667Y-69151399D01*
X40375440Y-69175224D01*
X40373000Y-69200000D01*
X40373000Y-74848000D01*
X37017215Y-74848000D01*
X36583115Y-74805436D01*
X36182104Y-74684365D01*
X35812245Y-74487706D01*
X35487635Y-74222960D01*
X35220626Y-73900201D01*
X35021394Y-73531730D01*
X34897526Y-73131578D01*
X34852000Y-72698422D01*
X34852000Y-66527000D01*
X99000000Y-66527000D01*
X99024776Y-66524560D01*
X99048601Y-66517333D01*
X99070557Y-66505597D01*
X99089803Y-66489803D01*
X99105597Y-66470557D01*
X99117333Y-66448601D01*
X99124560Y-66424776D01*
X99127000Y-66400000D01*
X99127000Y-43527000D01*
X102473000Y-43527000D01*
X102473000Y-69073000D01*
G36*
X112416890Y-25594564D02*
G01*
X112817893Y-25715635D01*
X113187752Y-25912292D01*
X113512366Y-26177040D01*
X113779374Y-26499799D01*
X113978606Y-26868270D01*
X114102474Y-27268422D01*
X114148001Y-27701587D01*
X114148000Y-72682785D01*
X114105436Y-73116885D01*
X113984365Y-73517896D01*
X113787706Y-73887755D01*
X113522960Y-74212365D01*
X113200201Y-74479374D01*
X112831730Y-74678606D01*
X112431578Y-74802474D01*
X111998422Y-74848000D01*
X41127000Y-74848000D01*
X41127000Y-69827000D01*
X103100000Y-69827000D01*
X103124776Y-69824560D01*
X103148601Y-69817333D01*
X103170557Y-69805597D01*
X103189803Y-69789803D01*
X103205597Y-69770557D01*
X103217333Y-69748601D01*
X103224560Y-69724776D01*
X103227000Y-69700000D01*
X103227000Y-49875000D01*
X109186928Y-49875000D01*
X109199188Y-49999482D01*
X109235498Y-50119180D01*
X109294463Y-50229494D01*
X109373815Y-50326185D01*
X109470506Y-50405537D01*
X109580820Y-50464502D01*
X109700518Y-50500812D01*
X109771815Y-50507834D01*
X109662836Y-50640625D01*
X109569794Y-50814696D01*
X109512498Y-51003574D01*
X109493152Y-51200000D01*
X109512498Y-51396426D01*
X109569794Y-51585304D01*
X109662836Y-51759375D01*
X109788051Y-51911949D01*
X109940625Y-52037164D01*
X110114696Y-52130206D01*
X110303574Y-52187502D01*
X110450777Y-52202000D01*
X110549223Y-52202000D01*
X110696426Y-52187502D01*
X110885304Y-52130206D01*
X111059375Y-52037164D01*
X111211949Y-51911949D01*
X111337164Y-51759375D01*
X111430206Y-51585304D01*
X111487502Y-51396426D01*
X111506848Y-51200000D01*
X111487502Y-51003574D01*
X111430206Y-50814696D01*
X111337164Y-50640625D01*
X111228185Y-50507834D01*
X111299482Y-50500812D01*
X111419180Y-50464502D01*
X111529494Y-50405537D01*
X111626185Y-50326185D01*
X111705537Y-50229494D01*
X111764502Y-50119180D01*
X111800812Y-49999482D01*
X111813072Y-49875000D01*
X111810000Y-49485750D01*
X111651250Y-49327000D01*
X110627000Y-49327000D01*
X110627000Y-49347000D01*
X110373000Y-49347000D01*
X110373000Y-49327000D01*
X109348750Y-49327000D01*
X109190000Y-49485750D01*
X109186928Y-49875000D01*
X103227000Y-49875000D01*
X103227000Y-48525000D01*
X109186928Y-48525000D01*
X109190000Y-48914250D01*
X109348750Y-49073000D01*
X110373000Y-49073000D01*
X110373000Y-48048750D01*
X110627000Y-48048750D01*
X110627000Y-49073000D01*
X111651250Y-49073000D01*
X111810000Y-48914250D01*
X111813072Y-48525000D01*
X111800812Y-48400518D01*
X111764502Y-48280820D01*
X111705537Y-48170506D01*
X111626185Y-48073815D01*
X111529494Y-47994463D01*
X111419180Y-47935498D01*
X111299482Y-47899188D01*
X111175000Y-47886928D01*
X110785750Y-47890000D01*
X110627000Y-48048750D01*
X110373000Y-48048750D01*
X110214250Y-47890000D01*
X109825000Y-47886928D01*
X109700518Y-47899188D01*
X109580820Y-47935498D01*
X109470506Y-47994463D01*
X109373815Y-48073815D01*
X109294463Y-48170506D01*
X109235498Y-48280820D01*
X109199188Y-48400518D01*
X109186928Y-48525000D01*
X103227000Y-48525000D01*
X103227000Y-42400000D01*
X103224560Y-42375224D01*
X103217333Y-42351399D01*
X103205597Y-42329443D01*
X103189803Y-42310197D01*
X103170557Y-42294403D01*
X103148601Y-42282667D01*
X103124776Y-42275440D01*
X103100000Y-42273000D01*
X98500000Y-42273000D01*
X98475224Y-42275440D01*
X98451399Y-42282667D01*
X98429443Y-42294403D01*
X98410197Y-42310197D01*
X98394403Y-42329443D01*
X98382667Y-42351399D01*
X98375440Y-42375224D01*
X98373000Y-42400000D01*
X98373000Y-65773000D01*
X34852000Y-65773000D01*
X34852000Y-27717215D01*
X34894564Y-27283110D01*
X35015635Y-26882107D01*
X35212292Y-26512248D01*
X35477040Y-26187634D01*
X35799799Y-25920626D01*
X36168270Y-25721394D01*
X36568422Y-25597526D01*
X37001578Y-25552000D01*
X111982785Y-25552000D01*
X112416890Y-25594564D01*
X112416890Y-25594564D01*
G37*
X112416890Y-25594564D02*
X112817893Y-25715635D01*
X113187752Y-25912292D01*
X113512366Y-26177040D01*
X113779374Y-26499799D01*
X113978606Y-26868270D01*
X114102474Y-27268422D01*
X114148001Y-27701587D01*
X114148000Y-72682785D01*
X114105436Y-73116885D01*
X113984365Y-73517896D01*
X113787706Y-73887755D01*
X113522960Y-74212365D01*
X113200201Y-74479374D01*
X112831730Y-74678606D01*
X112431578Y-74802474D01*
X111998422Y-74848000D01*
X41127000Y-74848000D01*
X41127000Y-69827000D01*
X103100000Y-69827000D01*
X103124776Y-69824560D01*
X103148601Y-69817333D01*
X103170557Y-69805597D01*
X103189803Y-69789803D01*
X103205597Y-69770557D01*
X103217333Y-69748601D01*
X103224560Y-69724776D01*
X103227000Y-69700000D01*
X103227000Y-49875000D01*
X109186928Y-49875000D01*
X109199188Y-49999482D01*
X109235498Y-50119180D01*
X109294463Y-50229494D01*
X109373815Y-50326185D01*
X109470506Y-50405537D01*
X109580820Y-50464502D01*
X109700518Y-50500812D01*
X109771815Y-50507834D01*
X109662836Y-50640625D01*
X109569794Y-50814696D01*
X109512498Y-51003574D01*
X109493152Y-51200000D01*
X109512498Y-51396426D01*
X109569794Y-51585304D01*
X109662836Y-51759375D01*
X109788051Y-51911949D01*
X109940625Y-52037164D01*
X110114696Y-52130206D01*
X110303574Y-52187502D01*
X110450777Y-52202000D01*
X110549223Y-52202000D01*
X110696426Y-52187502D01*
X110885304Y-52130206D01*
X111059375Y-52037164D01*
X111211949Y-51911949D01*
X111337164Y-51759375D01*
X111430206Y-51585304D01*
X111487502Y-51396426D01*
X111506848Y-51200000D01*
X111487502Y-51003574D01*
X111430206Y-50814696D01*
X111337164Y-50640625D01*
X111228185Y-50507834D01*
X111299482Y-50500812D01*
X111419180Y-50464502D01*
X111529494Y-50405537D01*
X111626185Y-50326185D01*
X111705537Y-50229494D01*
X111764502Y-50119180D01*
X111800812Y-49999482D01*
X111813072Y-49875000D01*
X111810000Y-49485750D01*
X111651250Y-49327000D01*
X110627000Y-49327000D01*
X110627000Y-49347000D01*
X110373000Y-49347000D01*
X110373000Y-49327000D01*
X109348750Y-49327000D01*
X109190000Y-49485750D01*
X109186928Y-49875000D01*
X103227000Y-49875000D01*
X103227000Y-48525000D01*
X109186928Y-48525000D01*
X109190000Y-48914250D01*
X109348750Y-49073000D01*
X110373000Y-49073000D01*
X110373000Y-48048750D01*
X110627000Y-48048750D01*
X110627000Y-49073000D01*
X111651250Y-49073000D01*
X111810000Y-48914250D01*
X111813072Y-48525000D01*
X111800812Y-48400518D01*
X111764502Y-48280820D01*
X111705537Y-48170506D01*
X111626185Y-48073815D01*
X111529494Y-47994463D01*
X111419180Y-47935498D01*
X111299482Y-47899188D01*
X111175000Y-47886928D01*
X110785750Y-47890000D01*
X110627000Y-48048750D01*
X110373000Y-48048750D01*
X110214250Y-47890000D01*
X109825000Y-47886928D01*
X109700518Y-47899188D01*
X109580820Y-47935498D01*
X109470506Y-47994463D01*
X109373815Y-48073815D01*
X109294463Y-48170506D01*
X109235498Y-48280820D01*
X109199188Y-48400518D01*
X109186928Y-48525000D01*
X103227000Y-48525000D01*
X103227000Y-42400000D01*
X103224560Y-42375224D01*
X103217333Y-42351399D01*
X103205597Y-42329443D01*
X103189803Y-42310197D01*
X103170557Y-42294403D01*
X103148601Y-42282667D01*
X103124776Y-42275440D01*
X103100000Y-42273000D01*
X98500000Y-42273000D01*
X98475224Y-42275440D01*
X98451399Y-42282667D01*
X98429443Y-42294403D01*
X98410197Y-42310197D01*
X98394403Y-42329443D01*
X98382667Y-42351399D01*
X98375440Y-42375224D01*
X98373000Y-42400000D01*
X98373000Y-65773000D01*
X34852000Y-65773000D01*
X34852000Y-27717215D01*
X34894564Y-27283110D01*
X35015635Y-26882107D01*
X35212292Y-26512248D01*
X35477040Y-26187634D01*
X35799799Y-25920626D01*
X36168270Y-25721394D01*
X36568422Y-25597526D01*
X37001578Y-25552000D01*
X111982785Y-25552000D01*
X112416890Y-25594564D01*
M02*
