G04 #@! TF.GenerationSoftware,KiCad,Pcbnew,5.1.2*
G04 #@! TF.CreationDate,2019-07-04T05:20:16+02:00*
G04 #@! TF.ProjectId,ledside_rev17,6c656473-6964-4655-9f72-657631372e6b,rev?*
G04 #@! TF.SameCoordinates,Original*
G04 #@! TF.FileFunction,Soldermask,Bot*
G04 #@! TF.FilePolarity,Negative*
%FSLAX46Y46*%
G04 Gerber Fmt 4.6, Leading zero omitted, Abs format (unit mm)*
G04 Created by KiCad (PCBNEW 5.1.2) date 2019-07-04 05:20:16*
%MOMM*%
%LPD*%
G04 APERTURE LIST*
%ADD10C,0.100000*%
G04 APERTURE END LIST*
D10*
G36*
X112225880Y-70459776D02*
G01*
X112606593Y-70535504D01*
X113016249Y-70705189D01*
X113384929Y-70951534D01*
X113698466Y-71265071D01*
X113944811Y-71633751D01*
X114114496Y-72043407D01*
X114201000Y-72478296D01*
X114201000Y-72921704D01*
X114114496Y-73356593D01*
X113944811Y-73766249D01*
X113698466Y-74134929D01*
X113384929Y-74448466D01*
X113016249Y-74694811D01*
X112606593Y-74864496D01*
X112225880Y-74940224D01*
X112171705Y-74951000D01*
X111728295Y-74951000D01*
X111674120Y-74940224D01*
X111293407Y-74864496D01*
X110883751Y-74694811D01*
X110515071Y-74448466D01*
X110201534Y-74134929D01*
X109955189Y-73766249D01*
X109785504Y-73356593D01*
X109699000Y-72921704D01*
X109699000Y-72478296D01*
X109785504Y-72043407D01*
X109955189Y-71633751D01*
X110201534Y-71265071D01*
X110515071Y-70951534D01*
X110883751Y-70705189D01*
X111293407Y-70535504D01*
X111674120Y-70459776D01*
X111728295Y-70449000D01*
X112171705Y-70449000D01*
X112225880Y-70459776D01*
X112225880Y-70459776D01*
G37*
G36*
X37275880Y-70459776D02*
G01*
X37656593Y-70535504D01*
X38066249Y-70705189D01*
X38434929Y-70951534D01*
X38748466Y-71265071D01*
X38994811Y-71633751D01*
X39164496Y-72043407D01*
X39251000Y-72478296D01*
X39251000Y-72921704D01*
X39164496Y-73356593D01*
X38994811Y-73766249D01*
X38748466Y-74134929D01*
X38434929Y-74448466D01*
X38066249Y-74694811D01*
X37656593Y-74864496D01*
X37275880Y-74940224D01*
X37221705Y-74951000D01*
X36778295Y-74951000D01*
X36724120Y-74940224D01*
X36343407Y-74864496D01*
X35933751Y-74694811D01*
X35565071Y-74448466D01*
X35251534Y-74134929D01*
X35005189Y-73766249D01*
X34835504Y-73356593D01*
X34749000Y-72921704D01*
X34749000Y-72478296D01*
X34835504Y-72043407D01*
X35005189Y-71633751D01*
X35251534Y-71265071D01*
X35565071Y-70951534D01*
X35933751Y-70705189D01*
X36343407Y-70535504D01*
X36724120Y-70459776D01*
X36778295Y-70449000D01*
X37221705Y-70449000D01*
X37275880Y-70459776D01*
X37275880Y-70459776D01*
G37*
G36*
X39631552Y-73966331D02*
G01*
X39713627Y-74000328D01*
X39713629Y-74000329D01*
X39750813Y-74025175D01*
X39787495Y-74049685D01*
X39850315Y-74112505D01*
X39899672Y-74186373D01*
X39933669Y-74268448D01*
X39951000Y-74355579D01*
X39951000Y-74444421D01*
X39933669Y-74531552D01*
X39899672Y-74613627D01*
X39850315Y-74687495D01*
X39787495Y-74750315D01*
X39750813Y-74774825D01*
X39713629Y-74799671D01*
X39713628Y-74799672D01*
X39713627Y-74799672D01*
X39631552Y-74833669D01*
X39544421Y-74851000D01*
X39455579Y-74851000D01*
X39368448Y-74833669D01*
X39286373Y-74799672D01*
X39286372Y-74799672D01*
X39286371Y-74799671D01*
X39249187Y-74774825D01*
X39212505Y-74750315D01*
X39149685Y-74687495D01*
X39100328Y-74613627D01*
X39066331Y-74531552D01*
X39049000Y-74444421D01*
X39049000Y-74355579D01*
X39066331Y-74268448D01*
X39100328Y-74186373D01*
X39149685Y-74112505D01*
X39212505Y-74049685D01*
X39249187Y-74025175D01*
X39286371Y-74000329D01*
X39286373Y-74000328D01*
X39368448Y-73966331D01*
X39455579Y-73949000D01*
X39544421Y-73949000D01*
X39631552Y-73966331D01*
X39631552Y-73966331D01*
G37*
G36*
X64631552Y-73966331D02*
G01*
X64713627Y-74000328D01*
X64713629Y-74000329D01*
X64750813Y-74025175D01*
X64787495Y-74049685D01*
X64850315Y-74112505D01*
X64899672Y-74186373D01*
X64933669Y-74268448D01*
X64951000Y-74355579D01*
X64951000Y-74444421D01*
X64933669Y-74531552D01*
X64899672Y-74613627D01*
X64850315Y-74687495D01*
X64787495Y-74750315D01*
X64750813Y-74774825D01*
X64713629Y-74799671D01*
X64713628Y-74799672D01*
X64713627Y-74799672D01*
X64631552Y-74833669D01*
X64544421Y-74851000D01*
X64455579Y-74851000D01*
X64368448Y-74833669D01*
X64286373Y-74799672D01*
X64286372Y-74799672D01*
X64286371Y-74799671D01*
X64249187Y-74774825D01*
X64212505Y-74750315D01*
X64149685Y-74687495D01*
X64100328Y-74613627D01*
X64066331Y-74531552D01*
X64049000Y-74444421D01*
X64049000Y-74355579D01*
X64066331Y-74268448D01*
X64100328Y-74186373D01*
X64149685Y-74112505D01*
X64212505Y-74049685D01*
X64249187Y-74025175D01*
X64286371Y-74000329D01*
X64286373Y-74000328D01*
X64368448Y-73966331D01*
X64455579Y-73949000D01*
X64544421Y-73949000D01*
X64631552Y-73966331D01*
X64631552Y-73966331D01*
G37*
G36*
X54631552Y-73966331D02*
G01*
X54713627Y-74000328D01*
X54713629Y-74000329D01*
X54750813Y-74025175D01*
X54787495Y-74049685D01*
X54850315Y-74112505D01*
X54899672Y-74186373D01*
X54933669Y-74268448D01*
X54951000Y-74355579D01*
X54951000Y-74444421D01*
X54933669Y-74531552D01*
X54899672Y-74613627D01*
X54850315Y-74687495D01*
X54787495Y-74750315D01*
X54750813Y-74774825D01*
X54713629Y-74799671D01*
X54713628Y-74799672D01*
X54713627Y-74799672D01*
X54631552Y-74833669D01*
X54544421Y-74851000D01*
X54455579Y-74851000D01*
X54368448Y-74833669D01*
X54286373Y-74799672D01*
X54286372Y-74799672D01*
X54286371Y-74799671D01*
X54249187Y-74774825D01*
X54212505Y-74750315D01*
X54149685Y-74687495D01*
X54100328Y-74613627D01*
X54066331Y-74531552D01*
X54049000Y-74444421D01*
X54049000Y-74355579D01*
X54066331Y-74268448D01*
X54100328Y-74186373D01*
X54149685Y-74112505D01*
X54212505Y-74049685D01*
X54249187Y-74025175D01*
X54286371Y-74000329D01*
X54286373Y-74000328D01*
X54368448Y-73966331D01*
X54455579Y-73949000D01*
X54544421Y-73949000D01*
X54631552Y-73966331D01*
X54631552Y-73966331D01*
G37*
G36*
X44631552Y-73966331D02*
G01*
X44713627Y-74000328D01*
X44713629Y-74000329D01*
X44750813Y-74025175D01*
X44787495Y-74049685D01*
X44850315Y-74112505D01*
X44899672Y-74186373D01*
X44933669Y-74268448D01*
X44951000Y-74355579D01*
X44951000Y-74444421D01*
X44933669Y-74531552D01*
X44899672Y-74613627D01*
X44850315Y-74687495D01*
X44787495Y-74750315D01*
X44750813Y-74774825D01*
X44713629Y-74799671D01*
X44713628Y-74799672D01*
X44713627Y-74799672D01*
X44631552Y-74833669D01*
X44544421Y-74851000D01*
X44455579Y-74851000D01*
X44368448Y-74833669D01*
X44286373Y-74799672D01*
X44286372Y-74799672D01*
X44286371Y-74799671D01*
X44249187Y-74774825D01*
X44212505Y-74750315D01*
X44149685Y-74687495D01*
X44100328Y-74613627D01*
X44066331Y-74531552D01*
X44049000Y-74444421D01*
X44049000Y-74355579D01*
X44066331Y-74268448D01*
X44100328Y-74186373D01*
X44149685Y-74112505D01*
X44212505Y-74049685D01*
X44249187Y-74025175D01*
X44286371Y-74000329D01*
X44286373Y-74000328D01*
X44368448Y-73966331D01*
X44455579Y-73949000D01*
X44544421Y-73949000D01*
X44631552Y-73966331D01*
X44631552Y-73966331D01*
G37*
G36*
X84631552Y-73966331D02*
G01*
X84713627Y-74000328D01*
X84713629Y-74000329D01*
X84750813Y-74025175D01*
X84787495Y-74049685D01*
X84850315Y-74112505D01*
X84899672Y-74186373D01*
X84933669Y-74268448D01*
X84951000Y-74355579D01*
X84951000Y-74444421D01*
X84933669Y-74531552D01*
X84899672Y-74613627D01*
X84850315Y-74687495D01*
X84787495Y-74750315D01*
X84750813Y-74774825D01*
X84713629Y-74799671D01*
X84713628Y-74799672D01*
X84713627Y-74799672D01*
X84631552Y-74833669D01*
X84544421Y-74851000D01*
X84455579Y-74851000D01*
X84368448Y-74833669D01*
X84286373Y-74799672D01*
X84286372Y-74799672D01*
X84286371Y-74799671D01*
X84249187Y-74774825D01*
X84212505Y-74750315D01*
X84149685Y-74687495D01*
X84100328Y-74613627D01*
X84066331Y-74531552D01*
X84049000Y-74444421D01*
X84049000Y-74355579D01*
X84066331Y-74268448D01*
X84100328Y-74186373D01*
X84149685Y-74112505D01*
X84212505Y-74049685D01*
X84249187Y-74025175D01*
X84286371Y-74000329D01*
X84286373Y-74000328D01*
X84368448Y-73966331D01*
X84455579Y-73949000D01*
X84544421Y-73949000D01*
X84631552Y-73966331D01*
X84631552Y-73966331D01*
G37*
G36*
X94631552Y-73966331D02*
G01*
X94713627Y-74000328D01*
X94713629Y-74000329D01*
X94750813Y-74025175D01*
X94787495Y-74049685D01*
X94850315Y-74112505D01*
X94899672Y-74186373D01*
X94933669Y-74268448D01*
X94951000Y-74355579D01*
X94951000Y-74444421D01*
X94933669Y-74531552D01*
X94899672Y-74613627D01*
X94850315Y-74687495D01*
X94787495Y-74750315D01*
X94750813Y-74774825D01*
X94713629Y-74799671D01*
X94713628Y-74799672D01*
X94713627Y-74799672D01*
X94631552Y-74833669D01*
X94544421Y-74851000D01*
X94455579Y-74851000D01*
X94368448Y-74833669D01*
X94286373Y-74799672D01*
X94286372Y-74799672D01*
X94286371Y-74799671D01*
X94249187Y-74774825D01*
X94212505Y-74750315D01*
X94149685Y-74687495D01*
X94100328Y-74613627D01*
X94066331Y-74531552D01*
X94049000Y-74444421D01*
X94049000Y-74355579D01*
X94066331Y-74268448D01*
X94100328Y-74186373D01*
X94149685Y-74112505D01*
X94212505Y-74049685D01*
X94249187Y-74025175D01*
X94286371Y-74000329D01*
X94286373Y-74000328D01*
X94368448Y-73966331D01*
X94455579Y-73949000D01*
X94544421Y-73949000D01*
X94631552Y-73966331D01*
X94631552Y-73966331D01*
G37*
G36*
X104631552Y-73966331D02*
G01*
X104713627Y-74000328D01*
X104713629Y-74000329D01*
X104750813Y-74025175D01*
X104787495Y-74049685D01*
X104850315Y-74112505D01*
X104899672Y-74186373D01*
X104933669Y-74268448D01*
X104951000Y-74355579D01*
X104951000Y-74444421D01*
X104933669Y-74531552D01*
X104899672Y-74613627D01*
X104850315Y-74687495D01*
X104787495Y-74750315D01*
X104750813Y-74774825D01*
X104713629Y-74799671D01*
X104713628Y-74799672D01*
X104713627Y-74799672D01*
X104631552Y-74833669D01*
X104544421Y-74851000D01*
X104455579Y-74851000D01*
X104368448Y-74833669D01*
X104286373Y-74799672D01*
X104286372Y-74799672D01*
X104286371Y-74799671D01*
X104249187Y-74774825D01*
X104212505Y-74750315D01*
X104149685Y-74687495D01*
X104100328Y-74613627D01*
X104066331Y-74531552D01*
X104049000Y-74444421D01*
X104049000Y-74355579D01*
X104066331Y-74268448D01*
X104100328Y-74186373D01*
X104149685Y-74112505D01*
X104212505Y-74049685D01*
X104249187Y-74025175D01*
X104286371Y-74000329D01*
X104286373Y-74000328D01*
X104368448Y-73966331D01*
X104455579Y-73949000D01*
X104544421Y-73949000D01*
X104631552Y-73966331D01*
X104631552Y-73966331D01*
G37*
G36*
X74631552Y-73966331D02*
G01*
X74713627Y-74000328D01*
X74713629Y-74000329D01*
X74750813Y-74025175D01*
X74787495Y-74049685D01*
X74850315Y-74112505D01*
X74899672Y-74186373D01*
X74933669Y-74268448D01*
X74951000Y-74355579D01*
X74951000Y-74444421D01*
X74933669Y-74531552D01*
X74899672Y-74613627D01*
X74850315Y-74687495D01*
X74787495Y-74750315D01*
X74750813Y-74774825D01*
X74713629Y-74799671D01*
X74713628Y-74799672D01*
X74713627Y-74799672D01*
X74631552Y-74833669D01*
X74544421Y-74851000D01*
X74455579Y-74851000D01*
X74368448Y-74833669D01*
X74286373Y-74799672D01*
X74286372Y-74799672D01*
X74286371Y-74799671D01*
X74249187Y-74774825D01*
X74212505Y-74750315D01*
X74149685Y-74687495D01*
X74100328Y-74613627D01*
X74066331Y-74531552D01*
X74049000Y-74444421D01*
X74049000Y-74355579D01*
X74066331Y-74268448D01*
X74100328Y-74186373D01*
X74149685Y-74112505D01*
X74212505Y-74049685D01*
X74249187Y-74025175D01*
X74286371Y-74000329D01*
X74286373Y-74000328D01*
X74368448Y-73966331D01*
X74455579Y-73949000D01*
X74544421Y-73949000D01*
X74631552Y-73966331D01*
X74631552Y-73966331D01*
G37*
G36*
X35431552Y-69766331D02*
G01*
X35513627Y-69800328D01*
X35513629Y-69800329D01*
X35550813Y-69825175D01*
X35587495Y-69849685D01*
X35650315Y-69912505D01*
X35699672Y-69986373D01*
X35733669Y-70068448D01*
X35751000Y-70155579D01*
X35751000Y-70244421D01*
X35733669Y-70331552D01*
X35699672Y-70413627D01*
X35699671Y-70413629D01*
X35650314Y-70487496D01*
X35587496Y-70550314D01*
X35513629Y-70599671D01*
X35513628Y-70599672D01*
X35513627Y-70599672D01*
X35431552Y-70633669D01*
X35344421Y-70651000D01*
X35255579Y-70651000D01*
X35168448Y-70633669D01*
X35086373Y-70599672D01*
X35086372Y-70599672D01*
X35086371Y-70599671D01*
X35012504Y-70550314D01*
X34949686Y-70487496D01*
X34900329Y-70413629D01*
X34900328Y-70413627D01*
X34866331Y-70331552D01*
X34849000Y-70244421D01*
X34849000Y-70155579D01*
X34866331Y-70068448D01*
X34900328Y-69986373D01*
X34949685Y-69912505D01*
X35012505Y-69849685D01*
X35049187Y-69825175D01*
X35086371Y-69800329D01*
X35086373Y-69800328D01*
X35168448Y-69766331D01*
X35255579Y-69749000D01*
X35344421Y-69749000D01*
X35431552Y-69766331D01*
X35431552Y-69766331D01*
G37*
G36*
X113831552Y-69766331D02*
G01*
X113913627Y-69800328D01*
X113913629Y-69800329D01*
X113950813Y-69825175D01*
X113987495Y-69849685D01*
X114050315Y-69912505D01*
X114099672Y-69986373D01*
X114133669Y-70068448D01*
X114151000Y-70155579D01*
X114151000Y-70244421D01*
X114133669Y-70331552D01*
X114099672Y-70413627D01*
X114099671Y-70413629D01*
X114050314Y-70487496D01*
X113987496Y-70550314D01*
X113913629Y-70599671D01*
X113913628Y-70599672D01*
X113913627Y-70599672D01*
X113831552Y-70633669D01*
X113744421Y-70651000D01*
X113655579Y-70651000D01*
X113568448Y-70633669D01*
X113486373Y-70599672D01*
X113486372Y-70599672D01*
X113486371Y-70599671D01*
X113412504Y-70550314D01*
X113349686Y-70487496D01*
X113300329Y-70413629D01*
X113300328Y-70413627D01*
X113266331Y-70331552D01*
X113249000Y-70244421D01*
X113249000Y-70155579D01*
X113266331Y-70068448D01*
X113300328Y-69986373D01*
X113349685Y-69912505D01*
X113412505Y-69849685D01*
X113449187Y-69825175D01*
X113486371Y-69800329D01*
X113486373Y-69800328D01*
X113568448Y-69766331D01*
X113655579Y-69749000D01*
X113744421Y-69749000D01*
X113831552Y-69766331D01*
X113831552Y-69766331D01*
G37*
G36*
X97931552Y-61766331D02*
G01*
X98013627Y-61800328D01*
X98013629Y-61800329D01*
X98050813Y-61825175D01*
X98087495Y-61849685D01*
X98150315Y-61912505D01*
X98199672Y-61986373D01*
X98233669Y-62068448D01*
X98251000Y-62155579D01*
X98251000Y-62244421D01*
X98233669Y-62331552D01*
X98199672Y-62413627D01*
X98199671Y-62413629D01*
X98150314Y-62487496D01*
X98087496Y-62550314D01*
X98013629Y-62599671D01*
X98013628Y-62599672D01*
X98013627Y-62599672D01*
X97931552Y-62633669D01*
X97844421Y-62651000D01*
X97755579Y-62651000D01*
X97668448Y-62633669D01*
X97586373Y-62599672D01*
X97586372Y-62599672D01*
X97586371Y-62599671D01*
X97512504Y-62550314D01*
X97449686Y-62487496D01*
X97400329Y-62413629D01*
X97400328Y-62413627D01*
X97366331Y-62331552D01*
X97349000Y-62244421D01*
X97349000Y-62155579D01*
X97366331Y-62068448D01*
X97400328Y-61986373D01*
X97449685Y-61912505D01*
X97512505Y-61849685D01*
X97549187Y-61825175D01*
X97586371Y-61800329D01*
X97586373Y-61800328D01*
X97668448Y-61766331D01*
X97755579Y-61749000D01*
X97844421Y-61749000D01*
X97931552Y-61766331D01*
X97931552Y-61766331D01*
G37*
G36*
X113831552Y-59766331D02*
G01*
X113913627Y-59800328D01*
X113913629Y-59800329D01*
X113931850Y-59812504D01*
X113987495Y-59849685D01*
X114050315Y-59912505D01*
X114099672Y-59986373D01*
X114133669Y-60068448D01*
X114151000Y-60155579D01*
X114151000Y-60244421D01*
X114133669Y-60331552D01*
X114099672Y-60413627D01*
X114050315Y-60487495D01*
X113987495Y-60550315D01*
X113950813Y-60574825D01*
X113913629Y-60599671D01*
X113913628Y-60599672D01*
X113913627Y-60599672D01*
X113831552Y-60633669D01*
X113744421Y-60651000D01*
X113655579Y-60651000D01*
X113568448Y-60633669D01*
X113486373Y-60599672D01*
X113486372Y-60599672D01*
X113486371Y-60599671D01*
X113449187Y-60574825D01*
X113412505Y-60550315D01*
X113349685Y-60487495D01*
X113300328Y-60413627D01*
X113266331Y-60331552D01*
X113249000Y-60244421D01*
X113249000Y-60155579D01*
X113266331Y-60068448D01*
X113300328Y-59986373D01*
X113349685Y-59912505D01*
X113412505Y-59849685D01*
X113468150Y-59812504D01*
X113486371Y-59800329D01*
X113486373Y-59800328D01*
X113568448Y-59766331D01*
X113655579Y-59749000D01*
X113744421Y-59749000D01*
X113831552Y-59766331D01*
X113831552Y-59766331D01*
G37*
G36*
X35381552Y-59766331D02*
G01*
X35463627Y-59800328D01*
X35463629Y-59800329D01*
X35481850Y-59812504D01*
X35537495Y-59849685D01*
X35600315Y-59912505D01*
X35649672Y-59986373D01*
X35683669Y-60068448D01*
X35701000Y-60155579D01*
X35701000Y-60244421D01*
X35683669Y-60331552D01*
X35649672Y-60413627D01*
X35600315Y-60487495D01*
X35537495Y-60550315D01*
X35500813Y-60574825D01*
X35463629Y-60599671D01*
X35463628Y-60599672D01*
X35463627Y-60599672D01*
X35381552Y-60633669D01*
X35294421Y-60651000D01*
X35205579Y-60651000D01*
X35118448Y-60633669D01*
X35036373Y-60599672D01*
X35036372Y-60599672D01*
X35036371Y-60599671D01*
X34999187Y-60574825D01*
X34962505Y-60550315D01*
X34899685Y-60487495D01*
X34850328Y-60413627D01*
X34816331Y-60331552D01*
X34799000Y-60244421D01*
X34799000Y-60155579D01*
X34816331Y-60068448D01*
X34850328Y-59986373D01*
X34899685Y-59912505D01*
X34962505Y-59849685D01*
X35018150Y-59812504D01*
X35036371Y-59800329D01*
X35036373Y-59800328D01*
X35118448Y-59766331D01*
X35205579Y-59749000D01*
X35294421Y-59749000D01*
X35381552Y-59766331D01*
X35381552Y-59766331D01*
G37*
G36*
X97931552Y-59666331D02*
G01*
X98013627Y-59700328D01*
X98013629Y-59700329D01*
X98050813Y-59725175D01*
X98087495Y-59749685D01*
X98150315Y-59812505D01*
X98199672Y-59886373D01*
X98233669Y-59968448D01*
X98251000Y-60055579D01*
X98251000Y-60144421D01*
X98233669Y-60231552D01*
X98228338Y-60244421D01*
X98199671Y-60313629D01*
X98150314Y-60387496D01*
X98087496Y-60450314D01*
X98013629Y-60499671D01*
X98013628Y-60499672D01*
X98013627Y-60499672D01*
X97931552Y-60533669D01*
X97844421Y-60551000D01*
X97755579Y-60551000D01*
X97668448Y-60533669D01*
X97586373Y-60499672D01*
X97586372Y-60499672D01*
X97586371Y-60499671D01*
X97512504Y-60450314D01*
X97449686Y-60387496D01*
X97400329Y-60313629D01*
X97371662Y-60244421D01*
X97366331Y-60231552D01*
X97349000Y-60144421D01*
X97349000Y-60055579D01*
X97366331Y-59968448D01*
X97400328Y-59886373D01*
X97449685Y-59812505D01*
X97512505Y-59749685D01*
X97549187Y-59725175D01*
X97586371Y-59700329D01*
X97586373Y-59700328D01*
X97668448Y-59666331D01*
X97755579Y-59649000D01*
X97844421Y-59649000D01*
X97931552Y-59666331D01*
X97931552Y-59666331D01*
G37*
G36*
X97931552Y-57666331D02*
G01*
X98013627Y-57700328D01*
X98013629Y-57700329D01*
X98050813Y-57725175D01*
X98087495Y-57749685D01*
X98150315Y-57812505D01*
X98199672Y-57886373D01*
X98233669Y-57968448D01*
X98251000Y-58055579D01*
X98251000Y-58144421D01*
X98233669Y-58231552D01*
X98199672Y-58313627D01*
X98199671Y-58313629D01*
X98150314Y-58387496D01*
X98087496Y-58450314D01*
X98013629Y-58499671D01*
X98013628Y-58499672D01*
X98013627Y-58499672D01*
X97931552Y-58533669D01*
X97844421Y-58551000D01*
X97755579Y-58551000D01*
X97668448Y-58533669D01*
X97586373Y-58499672D01*
X97586372Y-58499672D01*
X97586371Y-58499671D01*
X97512504Y-58450314D01*
X97449686Y-58387496D01*
X97400329Y-58313629D01*
X97400328Y-58313627D01*
X97366331Y-58231552D01*
X97349000Y-58144421D01*
X97349000Y-58055579D01*
X97366331Y-57968448D01*
X97400328Y-57886373D01*
X97449685Y-57812505D01*
X97512505Y-57749685D01*
X97549187Y-57725175D01*
X97586371Y-57700329D01*
X97586373Y-57700328D01*
X97668448Y-57666331D01*
X97755579Y-57649000D01*
X97844421Y-57649000D01*
X97931552Y-57666331D01*
X97931552Y-57666331D01*
G37*
G36*
X90531552Y-51566331D02*
G01*
X90613627Y-51600328D01*
X90613629Y-51600329D01*
X90621061Y-51605295D01*
X90687495Y-51649685D01*
X90750315Y-51712505D01*
X90799672Y-51786373D01*
X90833669Y-51868448D01*
X90851000Y-51955579D01*
X90851000Y-52044421D01*
X90833669Y-52131552D01*
X90799672Y-52213627D01*
X90799671Y-52213629D01*
X90750314Y-52287496D01*
X90687496Y-52350314D01*
X90613629Y-52399671D01*
X90613628Y-52399672D01*
X90613627Y-52399672D01*
X90531552Y-52433669D01*
X90444421Y-52451000D01*
X90355579Y-52451000D01*
X90268448Y-52433669D01*
X90186373Y-52399672D01*
X90186372Y-52399672D01*
X90186371Y-52399671D01*
X90112504Y-52350314D01*
X90049686Y-52287496D01*
X90000329Y-52213629D01*
X90000328Y-52213627D01*
X89966331Y-52131552D01*
X89949000Y-52044421D01*
X89949000Y-51955579D01*
X89966331Y-51868448D01*
X90000328Y-51786373D01*
X90049685Y-51712505D01*
X90112505Y-51649685D01*
X90178939Y-51605295D01*
X90186371Y-51600329D01*
X90186373Y-51600328D01*
X90268448Y-51566331D01*
X90355579Y-51549000D01*
X90444421Y-51549000D01*
X90531552Y-51566331D01*
X90531552Y-51566331D01*
G37*
G36*
X92531552Y-51566331D02*
G01*
X92613627Y-51600328D01*
X92613629Y-51600329D01*
X92621061Y-51605295D01*
X92687495Y-51649685D01*
X92750315Y-51712505D01*
X92799672Y-51786373D01*
X92833669Y-51868448D01*
X92851000Y-51955579D01*
X92851000Y-52044421D01*
X92833669Y-52131552D01*
X92799672Y-52213627D01*
X92799671Y-52213629D01*
X92750314Y-52287496D01*
X92687496Y-52350314D01*
X92613629Y-52399671D01*
X92613628Y-52399672D01*
X92613627Y-52399672D01*
X92531552Y-52433669D01*
X92444421Y-52451000D01*
X92355579Y-52451000D01*
X92268448Y-52433669D01*
X92186373Y-52399672D01*
X92186372Y-52399672D01*
X92186371Y-52399671D01*
X92112504Y-52350314D01*
X92049686Y-52287496D01*
X92000329Y-52213629D01*
X92000328Y-52213627D01*
X91966331Y-52131552D01*
X91949000Y-52044421D01*
X91949000Y-51955579D01*
X91966331Y-51868448D01*
X92000328Y-51786373D01*
X92049685Y-51712505D01*
X92112505Y-51649685D01*
X92178939Y-51605295D01*
X92186371Y-51600329D01*
X92186373Y-51600328D01*
X92268448Y-51566331D01*
X92355579Y-51549000D01*
X92444421Y-51549000D01*
X92531552Y-51566331D01*
X92531552Y-51566331D01*
G37*
G36*
X94531552Y-51566331D02*
G01*
X94613627Y-51600328D01*
X94613629Y-51600329D01*
X94621061Y-51605295D01*
X94687495Y-51649685D01*
X94750315Y-51712505D01*
X94799672Y-51786373D01*
X94833669Y-51868448D01*
X94851000Y-51955579D01*
X94851000Y-52044421D01*
X94833669Y-52131552D01*
X94799672Y-52213627D01*
X94799671Y-52213629D01*
X94750314Y-52287496D01*
X94687496Y-52350314D01*
X94613629Y-52399671D01*
X94613628Y-52399672D01*
X94613627Y-52399672D01*
X94531552Y-52433669D01*
X94444421Y-52451000D01*
X94355579Y-52451000D01*
X94268448Y-52433669D01*
X94186373Y-52399672D01*
X94186372Y-52399672D01*
X94186371Y-52399671D01*
X94112504Y-52350314D01*
X94049686Y-52287496D01*
X94000329Y-52213629D01*
X94000328Y-52213627D01*
X93966331Y-52131552D01*
X93949000Y-52044421D01*
X93949000Y-51955579D01*
X93966331Y-51868448D01*
X94000328Y-51786373D01*
X94049685Y-51712505D01*
X94112505Y-51649685D01*
X94178939Y-51605295D01*
X94186371Y-51600329D01*
X94186373Y-51600328D01*
X94268448Y-51566331D01*
X94355579Y-51549000D01*
X94444421Y-51549000D01*
X94531552Y-51566331D01*
X94531552Y-51566331D01*
G37*
G36*
X110571213Y-50477502D02*
G01*
X110642321Y-50484505D01*
X110779172Y-50526019D01*
X110779175Y-50526020D01*
X110905294Y-50593432D01*
X111015843Y-50684157D01*
X111106568Y-50794706D01*
X111173980Y-50920825D01*
X111173981Y-50920828D01*
X111215495Y-51057679D01*
X111229512Y-51200000D01*
X111215495Y-51342321D01*
X111173981Y-51479172D01*
X111173980Y-51479175D01*
X111106568Y-51605294D01*
X111015843Y-51715843D01*
X110905294Y-51806568D01*
X110779175Y-51873980D01*
X110779172Y-51873981D01*
X110642321Y-51915495D01*
X110571213Y-51922498D01*
X110535660Y-51926000D01*
X110464340Y-51926000D01*
X110428787Y-51922498D01*
X110357679Y-51915495D01*
X110220828Y-51873981D01*
X110220825Y-51873980D01*
X110094706Y-51806568D01*
X109984157Y-51715843D01*
X109893432Y-51605294D01*
X109826020Y-51479175D01*
X109826019Y-51479172D01*
X109784505Y-51342321D01*
X109770488Y-51200000D01*
X109784505Y-51057679D01*
X109826019Y-50920828D01*
X109826020Y-50920825D01*
X109893432Y-50794706D01*
X109984157Y-50684157D01*
X110094706Y-50593432D01*
X110220825Y-50526020D01*
X110220828Y-50526019D01*
X110357679Y-50484505D01*
X110428787Y-50477502D01*
X110464340Y-50474000D01*
X110535660Y-50474000D01*
X110571213Y-50477502D01*
X110571213Y-50477502D01*
G37*
G36*
X113831552Y-49766331D02*
G01*
X113913627Y-49800328D01*
X113913629Y-49800329D01*
X113950813Y-49825175D01*
X113987495Y-49849685D01*
X114050315Y-49912505D01*
X114099672Y-49986373D01*
X114133669Y-50068448D01*
X114151000Y-50155579D01*
X114151000Y-50244421D01*
X114133669Y-50331552D01*
X114099672Y-50413627D01*
X114099671Y-50413629D01*
X114050314Y-50487496D01*
X113987496Y-50550314D01*
X113913629Y-50599671D01*
X113913628Y-50599672D01*
X113913627Y-50599672D01*
X113831552Y-50633669D01*
X113744421Y-50651000D01*
X113655579Y-50651000D01*
X113568448Y-50633669D01*
X113486373Y-50599672D01*
X113486372Y-50599672D01*
X113486371Y-50599671D01*
X113412504Y-50550314D01*
X113349686Y-50487496D01*
X113300329Y-50413629D01*
X113300328Y-50413627D01*
X113266331Y-50331552D01*
X113249000Y-50244421D01*
X113249000Y-50155579D01*
X113266331Y-50068448D01*
X113300328Y-49986373D01*
X113349685Y-49912505D01*
X113412505Y-49849685D01*
X113449187Y-49825175D01*
X113486371Y-49800329D01*
X113486373Y-49800328D01*
X113568448Y-49766331D01*
X113655579Y-49749000D01*
X113744421Y-49749000D01*
X113831552Y-49766331D01*
X113831552Y-49766331D01*
G37*
G36*
X35381552Y-49766331D02*
G01*
X35463627Y-49800328D01*
X35463629Y-49800329D01*
X35500813Y-49825175D01*
X35537495Y-49849685D01*
X35600315Y-49912505D01*
X35649672Y-49986373D01*
X35683669Y-50068448D01*
X35701000Y-50155579D01*
X35701000Y-50244421D01*
X35683669Y-50331552D01*
X35649672Y-50413627D01*
X35649671Y-50413629D01*
X35600314Y-50487496D01*
X35537496Y-50550314D01*
X35463629Y-50599671D01*
X35463628Y-50599672D01*
X35463627Y-50599672D01*
X35381552Y-50633669D01*
X35294421Y-50651000D01*
X35205579Y-50651000D01*
X35118448Y-50633669D01*
X35036373Y-50599672D01*
X35036372Y-50599672D01*
X35036371Y-50599671D01*
X34962504Y-50550314D01*
X34899686Y-50487496D01*
X34850329Y-50413629D01*
X34850328Y-50413627D01*
X34816331Y-50331552D01*
X34799000Y-50244421D01*
X34799000Y-50155579D01*
X34816331Y-50068448D01*
X34850328Y-49986373D01*
X34899685Y-49912505D01*
X34962505Y-49849685D01*
X34999187Y-49825175D01*
X35036371Y-49800329D01*
X35036373Y-49800328D01*
X35118448Y-49766331D01*
X35205579Y-49749000D01*
X35294421Y-49749000D01*
X35381552Y-49766331D01*
X35381552Y-49766331D01*
G37*
G36*
X111226000Y-49926000D02*
G01*
X109774000Y-49926000D01*
X109774000Y-48474000D01*
X111226000Y-48474000D01*
X111226000Y-49926000D01*
X111226000Y-49926000D01*
G37*
G36*
X101081552Y-47966331D02*
G01*
X101163627Y-48000328D01*
X101163629Y-48000329D01*
X101200813Y-48025175D01*
X101237495Y-48049685D01*
X101300315Y-48112505D01*
X101349672Y-48186373D01*
X101383669Y-48268448D01*
X101401000Y-48355579D01*
X101401000Y-48444421D01*
X101383669Y-48531552D01*
X101349672Y-48613627D01*
X101349671Y-48613629D01*
X101300314Y-48687496D01*
X101237496Y-48750314D01*
X101163629Y-48799671D01*
X101163628Y-48799672D01*
X101163627Y-48799672D01*
X101081552Y-48833669D01*
X100994421Y-48851000D01*
X100905579Y-48851000D01*
X100818448Y-48833669D01*
X100736373Y-48799672D01*
X100736372Y-48799672D01*
X100736371Y-48799671D01*
X100662504Y-48750314D01*
X100599686Y-48687496D01*
X100550329Y-48613629D01*
X100550328Y-48613627D01*
X100516331Y-48531552D01*
X100499000Y-48444421D01*
X100499000Y-48355579D01*
X100516331Y-48268448D01*
X100550328Y-48186373D01*
X100599685Y-48112505D01*
X100662505Y-48049685D01*
X100699187Y-48025175D01*
X100736371Y-48000329D01*
X100736373Y-48000328D01*
X100818448Y-47966331D01*
X100905579Y-47949000D01*
X100994421Y-47949000D01*
X101081552Y-47966331D01*
X101081552Y-47966331D01*
G37*
G36*
X97931552Y-47366331D02*
G01*
X98012043Y-47399672D01*
X98013629Y-47400329D01*
X98050813Y-47425175D01*
X98087495Y-47449685D01*
X98150315Y-47512505D01*
X98199672Y-47586373D01*
X98233669Y-47668448D01*
X98251000Y-47755579D01*
X98251000Y-47844421D01*
X98233669Y-47931552D01*
X98205180Y-48000329D01*
X98199671Y-48013629D01*
X98150314Y-48087496D01*
X98087496Y-48150314D01*
X98013629Y-48199671D01*
X98013628Y-48199672D01*
X98013627Y-48199672D01*
X97931552Y-48233669D01*
X97844421Y-48251000D01*
X97755579Y-48251000D01*
X97668448Y-48233669D01*
X97586373Y-48199672D01*
X97586372Y-48199672D01*
X97586371Y-48199671D01*
X97512504Y-48150314D01*
X97449686Y-48087496D01*
X97400329Y-48013629D01*
X97394820Y-48000329D01*
X97366331Y-47931552D01*
X97349000Y-47844421D01*
X97349000Y-47755579D01*
X97366331Y-47668448D01*
X97400328Y-47586373D01*
X97449685Y-47512505D01*
X97512505Y-47449685D01*
X97549187Y-47425175D01*
X97586371Y-47400329D01*
X97587957Y-47399672D01*
X97668448Y-47366331D01*
X97755579Y-47349000D01*
X97844421Y-47349000D01*
X97931552Y-47366331D01*
X97931552Y-47366331D01*
G37*
G36*
X101081552Y-46566331D02*
G01*
X101163627Y-46600328D01*
X101163629Y-46600329D01*
X101200813Y-46625175D01*
X101237495Y-46649685D01*
X101300315Y-46712505D01*
X101349672Y-46786373D01*
X101383669Y-46868448D01*
X101401000Y-46955579D01*
X101401000Y-47044421D01*
X101383669Y-47131552D01*
X101349672Y-47213627D01*
X101349671Y-47213629D01*
X101300314Y-47287496D01*
X101237496Y-47350314D01*
X101163629Y-47399671D01*
X101163628Y-47399672D01*
X101163627Y-47399672D01*
X101081552Y-47433669D01*
X100994421Y-47451000D01*
X100905579Y-47451000D01*
X100818448Y-47433669D01*
X100736373Y-47399672D01*
X100736372Y-47399672D01*
X100736371Y-47399671D01*
X100662504Y-47350314D01*
X100599686Y-47287496D01*
X100550329Y-47213629D01*
X100550328Y-47213627D01*
X100516331Y-47131552D01*
X100499000Y-47044421D01*
X100499000Y-46955579D01*
X100516331Y-46868448D01*
X100550328Y-46786373D01*
X100599685Y-46712505D01*
X100662505Y-46649685D01*
X100699187Y-46625175D01*
X100736371Y-46600329D01*
X100736373Y-46600328D01*
X100818448Y-46566331D01*
X100905579Y-46549000D01*
X100994421Y-46549000D01*
X101081552Y-46566331D01*
X101081552Y-46566331D01*
G37*
G36*
X97931552Y-45366331D02*
G01*
X98013627Y-45400328D01*
X98013629Y-45400329D01*
X98050813Y-45425175D01*
X98087495Y-45449685D01*
X98150315Y-45512505D01*
X98199672Y-45586373D01*
X98233669Y-45668448D01*
X98251000Y-45755579D01*
X98251000Y-45844421D01*
X98233669Y-45931552D01*
X98205453Y-45999671D01*
X98199671Y-46013629D01*
X98150314Y-46087496D01*
X98087496Y-46150314D01*
X98013629Y-46199671D01*
X98013628Y-46199672D01*
X98013627Y-46199672D01*
X97931552Y-46233669D01*
X97844421Y-46251000D01*
X97755579Y-46251000D01*
X97668448Y-46233669D01*
X97586373Y-46199672D01*
X97586372Y-46199672D01*
X97586371Y-46199671D01*
X97512504Y-46150314D01*
X97449686Y-46087496D01*
X97400329Y-46013629D01*
X97394547Y-45999671D01*
X97366331Y-45931552D01*
X97349000Y-45844421D01*
X97349000Y-45755579D01*
X97366331Y-45668448D01*
X97400328Y-45586373D01*
X97449685Y-45512505D01*
X97512505Y-45449685D01*
X97549187Y-45425175D01*
X97586371Y-45400329D01*
X97586373Y-45400328D01*
X97668448Y-45366331D01*
X97755579Y-45349000D01*
X97844421Y-45349000D01*
X97931552Y-45366331D01*
X97931552Y-45366331D01*
G37*
G36*
X101081552Y-45166331D02*
G01*
X101163627Y-45200328D01*
X101163629Y-45200329D01*
X101237496Y-45249686D01*
X101300314Y-45312504D01*
X101336281Y-45366331D01*
X101349672Y-45386373D01*
X101383669Y-45468448D01*
X101401000Y-45555579D01*
X101401000Y-45644421D01*
X101383669Y-45731552D01*
X101349672Y-45813627D01*
X101349671Y-45813629D01*
X101300314Y-45887496D01*
X101237496Y-45950314D01*
X101163629Y-45999671D01*
X101163628Y-45999672D01*
X101163627Y-45999672D01*
X101081552Y-46033669D01*
X100994421Y-46051000D01*
X100905579Y-46051000D01*
X100818448Y-46033669D01*
X100736373Y-45999672D01*
X100736372Y-45999672D01*
X100736371Y-45999671D01*
X100662504Y-45950314D01*
X100599686Y-45887496D01*
X100550329Y-45813629D01*
X100550328Y-45813627D01*
X100516331Y-45731552D01*
X100499000Y-45644421D01*
X100499000Y-45555579D01*
X100516331Y-45468448D01*
X100550328Y-45386373D01*
X100563720Y-45366331D01*
X100599686Y-45312504D01*
X100662504Y-45249686D01*
X100736371Y-45200329D01*
X100736373Y-45200328D01*
X100818448Y-45166331D01*
X100905579Y-45149000D01*
X100994421Y-45149000D01*
X101081552Y-45166331D01*
X101081552Y-45166331D01*
G37*
G36*
X97931552Y-43366331D02*
G01*
X98013627Y-43400328D01*
X98013629Y-43400329D01*
X98050813Y-43425175D01*
X98087495Y-43449685D01*
X98150315Y-43512505D01*
X98199672Y-43586373D01*
X98233669Y-43668448D01*
X98251000Y-43755579D01*
X98251000Y-43844421D01*
X98233669Y-43931552D01*
X98199672Y-44013627D01*
X98199671Y-44013629D01*
X98150314Y-44087496D01*
X98087496Y-44150314D01*
X98013629Y-44199671D01*
X98013628Y-44199672D01*
X98013627Y-44199672D01*
X97931552Y-44233669D01*
X97844421Y-44251000D01*
X97755579Y-44251000D01*
X97668448Y-44233669D01*
X97586373Y-44199672D01*
X97586372Y-44199672D01*
X97586371Y-44199671D01*
X97512504Y-44150314D01*
X97449686Y-44087496D01*
X97400329Y-44013629D01*
X97400328Y-44013627D01*
X97366331Y-43931552D01*
X97349000Y-43844421D01*
X97349000Y-43755579D01*
X97366331Y-43668448D01*
X97400328Y-43586373D01*
X97449685Y-43512505D01*
X97512505Y-43449685D01*
X97549187Y-43425175D01*
X97586371Y-43400329D01*
X97586373Y-43400328D01*
X97668448Y-43366331D01*
X97755579Y-43349000D01*
X97844421Y-43349000D01*
X97931552Y-43366331D01*
X97931552Y-43366331D01*
G37*
G36*
X113831552Y-39766331D02*
G01*
X113913627Y-39800328D01*
X113913629Y-39800329D01*
X113950813Y-39825175D01*
X113987495Y-39849685D01*
X114050315Y-39912505D01*
X114099672Y-39986373D01*
X114133669Y-40068448D01*
X114151000Y-40155579D01*
X114151000Y-40244421D01*
X114133669Y-40331552D01*
X114099672Y-40413627D01*
X114099671Y-40413629D01*
X114050314Y-40487496D01*
X113987496Y-40550314D01*
X113913629Y-40599671D01*
X113913628Y-40599672D01*
X113913627Y-40599672D01*
X113831552Y-40633669D01*
X113744421Y-40651000D01*
X113655579Y-40651000D01*
X113568448Y-40633669D01*
X113486373Y-40599672D01*
X113486372Y-40599672D01*
X113486371Y-40599671D01*
X113412504Y-40550314D01*
X113349686Y-40487496D01*
X113300329Y-40413629D01*
X113300328Y-40413627D01*
X113266331Y-40331552D01*
X113249000Y-40244421D01*
X113249000Y-40155579D01*
X113266331Y-40068448D01*
X113300328Y-39986373D01*
X113349685Y-39912505D01*
X113412505Y-39849685D01*
X113449187Y-39825175D01*
X113486371Y-39800329D01*
X113486373Y-39800328D01*
X113568448Y-39766331D01*
X113655579Y-39749000D01*
X113744421Y-39749000D01*
X113831552Y-39766331D01*
X113831552Y-39766331D01*
G37*
G36*
X35381552Y-39766331D02*
G01*
X35463627Y-39800328D01*
X35463629Y-39800329D01*
X35500813Y-39825175D01*
X35537495Y-39849685D01*
X35600315Y-39912505D01*
X35649672Y-39986373D01*
X35683669Y-40068448D01*
X35701000Y-40155579D01*
X35701000Y-40244421D01*
X35683669Y-40331552D01*
X35649672Y-40413627D01*
X35649671Y-40413629D01*
X35600314Y-40487496D01*
X35537496Y-40550314D01*
X35463629Y-40599671D01*
X35463628Y-40599672D01*
X35463627Y-40599672D01*
X35381552Y-40633669D01*
X35294421Y-40651000D01*
X35205579Y-40651000D01*
X35118448Y-40633669D01*
X35036373Y-40599672D01*
X35036372Y-40599672D01*
X35036371Y-40599671D01*
X34962504Y-40550314D01*
X34899686Y-40487496D01*
X34850329Y-40413629D01*
X34850328Y-40413627D01*
X34816331Y-40331552D01*
X34799000Y-40244421D01*
X34799000Y-40155579D01*
X34816331Y-40068448D01*
X34850328Y-39986373D01*
X34899685Y-39912505D01*
X34962505Y-39849685D01*
X34999187Y-39825175D01*
X35036371Y-39800329D01*
X35036373Y-39800328D01*
X35118448Y-39766331D01*
X35205579Y-39749000D01*
X35294421Y-39749000D01*
X35381552Y-39766331D01*
X35381552Y-39766331D01*
G37*
G36*
X113831552Y-29766331D02*
G01*
X113913627Y-29800328D01*
X113913629Y-29800329D01*
X113950813Y-29825175D01*
X113987495Y-29849685D01*
X114050315Y-29912505D01*
X114099672Y-29986373D01*
X114133669Y-30068448D01*
X114151000Y-30155579D01*
X114151000Y-30244421D01*
X114133669Y-30331552D01*
X114099672Y-30413627D01*
X114099671Y-30413629D01*
X114050314Y-30487496D01*
X113987496Y-30550314D01*
X113913629Y-30599671D01*
X113913628Y-30599672D01*
X113913627Y-30599672D01*
X113831552Y-30633669D01*
X113744421Y-30651000D01*
X113655579Y-30651000D01*
X113568448Y-30633669D01*
X113486373Y-30599672D01*
X113486372Y-30599672D01*
X113486371Y-30599671D01*
X113412504Y-30550314D01*
X113349686Y-30487496D01*
X113300329Y-30413629D01*
X113300328Y-30413627D01*
X113266331Y-30331552D01*
X113249000Y-30244421D01*
X113249000Y-30155579D01*
X113266331Y-30068448D01*
X113300328Y-29986373D01*
X113349685Y-29912505D01*
X113412505Y-29849685D01*
X113449187Y-29825175D01*
X113486371Y-29800329D01*
X113486373Y-29800328D01*
X113568448Y-29766331D01*
X113655579Y-29749000D01*
X113744421Y-29749000D01*
X113831552Y-29766331D01*
X113831552Y-29766331D01*
G37*
G36*
X35381552Y-29766331D02*
G01*
X35463627Y-29800328D01*
X35463629Y-29800329D01*
X35500813Y-29825175D01*
X35537495Y-29849685D01*
X35600315Y-29912505D01*
X35649672Y-29986373D01*
X35683669Y-30068448D01*
X35701000Y-30155579D01*
X35701000Y-30244421D01*
X35683669Y-30331552D01*
X35649672Y-30413627D01*
X35649671Y-30413629D01*
X35600314Y-30487496D01*
X35537496Y-30550314D01*
X35463629Y-30599671D01*
X35463628Y-30599672D01*
X35463627Y-30599672D01*
X35381552Y-30633669D01*
X35294421Y-30651000D01*
X35205579Y-30651000D01*
X35118448Y-30633669D01*
X35036373Y-30599672D01*
X35036372Y-30599672D01*
X35036371Y-30599671D01*
X34962504Y-30550314D01*
X34899686Y-30487496D01*
X34850329Y-30413629D01*
X34850328Y-30413627D01*
X34816331Y-30331552D01*
X34799000Y-30244421D01*
X34799000Y-30155579D01*
X34816331Y-30068448D01*
X34850328Y-29986373D01*
X34899685Y-29912505D01*
X34962505Y-29849685D01*
X34999187Y-29825175D01*
X35036371Y-29800329D01*
X35036373Y-29800328D01*
X35118448Y-29766331D01*
X35205579Y-29749000D01*
X35294421Y-29749000D01*
X35381552Y-29766331D01*
X35381552Y-29766331D01*
G37*
G36*
X37225880Y-25459776D02*
G01*
X37606593Y-25535504D01*
X38016249Y-25705189D01*
X38384929Y-25951534D01*
X38698466Y-26265071D01*
X38944811Y-26633751D01*
X39114496Y-27043407D01*
X39201000Y-27478296D01*
X39201000Y-27921704D01*
X39114496Y-28356593D01*
X38944811Y-28766249D01*
X38698466Y-29134929D01*
X38384929Y-29448466D01*
X38016249Y-29694811D01*
X37606593Y-29864496D01*
X37225880Y-29940224D01*
X37171705Y-29951000D01*
X36728295Y-29951000D01*
X36674120Y-29940224D01*
X36293407Y-29864496D01*
X35883751Y-29694811D01*
X35515071Y-29448466D01*
X35201534Y-29134929D01*
X34955189Y-28766249D01*
X34785504Y-28356593D01*
X34699000Y-27921704D01*
X34699000Y-27478296D01*
X34785504Y-27043407D01*
X34955189Y-26633751D01*
X35201534Y-26265071D01*
X35515071Y-25951534D01*
X35883751Y-25705189D01*
X36293407Y-25535504D01*
X36674120Y-25459776D01*
X36728295Y-25449000D01*
X37171705Y-25449000D01*
X37225880Y-25459776D01*
X37225880Y-25459776D01*
G37*
G36*
X112275880Y-25459776D02*
G01*
X112656593Y-25535504D01*
X113066249Y-25705189D01*
X113434929Y-25951534D01*
X113748466Y-26265071D01*
X113994811Y-26633751D01*
X114164496Y-27043407D01*
X114251000Y-27478296D01*
X114251000Y-27921704D01*
X114164496Y-28356593D01*
X113994811Y-28766249D01*
X113748466Y-29134929D01*
X113434929Y-29448466D01*
X113066249Y-29694811D01*
X112656593Y-29864496D01*
X112275880Y-29940224D01*
X112221705Y-29951000D01*
X111778295Y-29951000D01*
X111724120Y-29940224D01*
X111343407Y-29864496D01*
X110933751Y-29694811D01*
X110565071Y-29448466D01*
X110251534Y-29134929D01*
X110005189Y-28766249D01*
X109835504Y-28356593D01*
X109749000Y-27921704D01*
X109749000Y-27478296D01*
X109835504Y-27043407D01*
X110005189Y-26633751D01*
X110251534Y-26265071D01*
X110565071Y-25951534D01*
X110933751Y-25705189D01*
X111343407Y-25535504D01*
X111724120Y-25459776D01*
X111778295Y-25449000D01*
X112221705Y-25449000D01*
X112275880Y-25459776D01*
X112275880Y-25459776D01*
G37*
G36*
X44631552Y-25566331D02*
G01*
X44713627Y-25600328D01*
X44713629Y-25600329D01*
X44750813Y-25625175D01*
X44787495Y-25649685D01*
X44850315Y-25712505D01*
X44899672Y-25786373D01*
X44933669Y-25868448D01*
X44951000Y-25955579D01*
X44951000Y-26044421D01*
X44933669Y-26131552D01*
X44899672Y-26213627D01*
X44865298Y-26265072D01*
X44850314Y-26287496D01*
X44787496Y-26350314D01*
X44713629Y-26399671D01*
X44713628Y-26399672D01*
X44713627Y-26399672D01*
X44631552Y-26433669D01*
X44544421Y-26451000D01*
X44455579Y-26451000D01*
X44368448Y-26433669D01*
X44286373Y-26399672D01*
X44286372Y-26399672D01*
X44286371Y-26399671D01*
X44212504Y-26350314D01*
X44149686Y-26287496D01*
X44134703Y-26265072D01*
X44100328Y-26213627D01*
X44066331Y-26131552D01*
X44049000Y-26044421D01*
X44049000Y-25955579D01*
X44066331Y-25868448D01*
X44100328Y-25786373D01*
X44149685Y-25712505D01*
X44212505Y-25649685D01*
X44249187Y-25625175D01*
X44286371Y-25600329D01*
X44286373Y-25600328D01*
X44368448Y-25566331D01*
X44455579Y-25549000D01*
X44544421Y-25549000D01*
X44631552Y-25566331D01*
X44631552Y-25566331D01*
G37*
G36*
X64631552Y-25566331D02*
G01*
X64713627Y-25600328D01*
X64713629Y-25600329D01*
X64750813Y-25625175D01*
X64787495Y-25649685D01*
X64850315Y-25712505D01*
X64899672Y-25786373D01*
X64933669Y-25868448D01*
X64951000Y-25955579D01*
X64951000Y-26044421D01*
X64933669Y-26131552D01*
X64899672Y-26213627D01*
X64865298Y-26265072D01*
X64850314Y-26287496D01*
X64787496Y-26350314D01*
X64713629Y-26399671D01*
X64713628Y-26399672D01*
X64713627Y-26399672D01*
X64631552Y-26433669D01*
X64544421Y-26451000D01*
X64455579Y-26451000D01*
X64368448Y-26433669D01*
X64286373Y-26399672D01*
X64286372Y-26399672D01*
X64286371Y-26399671D01*
X64212504Y-26350314D01*
X64149686Y-26287496D01*
X64134703Y-26265072D01*
X64100328Y-26213627D01*
X64066331Y-26131552D01*
X64049000Y-26044421D01*
X64049000Y-25955579D01*
X64066331Y-25868448D01*
X64100328Y-25786373D01*
X64149685Y-25712505D01*
X64212505Y-25649685D01*
X64249187Y-25625175D01*
X64286371Y-25600329D01*
X64286373Y-25600328D01*
X64368448Y-25566331D01*
X64455579Y-25549000D01*
X64544421Y-25549000D01*
X64631552Y-25566331D01*
X64631552Y-25566331D01*
G37*
G36*
X74631552Y-25566331D02*
G01*
X74713627Y-25600328D01*
X74713629Y-25600329D01*
X74750813Y-25625175D01*
X74787495Y-25649685D01*
X74850315Y-25712505D01*
X74899672Y-25786373D01*
X74933669Y-25868448D01*
X74951000Y-25955579D01*
X74951000Y-26044421D01*
X74933669Y-26131552D01*
X74899672Y-26213627D01*
X74865298Y-26265072D01*
X74850314Y-26287496D01*
X74787496Y-26350314D01*
X74713629Y-26399671D01*
X74713628Y-26399672D01*
X74713627Y-26399672D01*
X74631552Y-26433669D01*
X74544421Y-26451000D01*
X74455579Y-26451000D01*
X74368448Y-26433669D01*
X74286373Y-26399672D01*
X74286372Y-26399672D01*
X74286371Y-26399671D01*
X74212504Y-26350314D01*
X74149686Y-26287496D01*
X74134703Y-26265072D01*
X74100328Y-26213627D01*
X74066331Y-26131552D01*
X74049000Y-26044421D01*
X74049000Y-25955579D01*
X74066331Y-25868448D01*
X74100328Y-25786373D01*
X74149685Y-25712505D01*
X74212505Y-25649685D01*
X74249187Y-25625175D01*
X74286371Y-25600329D01*
X74286373Y-25600328D01*
X74368448Y-25566331D01*
X74455579Y-25549000D01*
X74544421Y-25549000D01*
X74631552Y-25566331D01*
X74631552Y-25566331D01*
G37*
G36*
X84631552Y-25566331D02*
G01*
X84713627Y-25600328D01*
X84713629Y-25600329D01*
X84750813Y-25625175D01*
X84787495Y-25649685D01*
X84850315Y-25712505D01*
X84899672Y-25786373D01*
X84933669Y-25868448D01*
X84951000Y-25955579D01*
X84951000Y-26044421D01*
X84933669Y-26131552D01*
X84899672Y-26213627D01*
X84865298Y-26265072D01*
X84850314Y-26287496D01*
X84787496Y-26350314D01*
X84713629Y-26399671D01*
X84713628Y-26399672D01*
X84713627Y-26399672D01*
X84631552Y-26433669D01*
X84544421Y-26451000D01*
X84455579Y-26451000D01*
X84368448Y-26433669D01*
X84286373Y-26399672D01*
X84286372Y-26399672D01*
X84286371Y-26399671D01*
X84212504Y-26350314D01*
X84149686Y-26287496D01*
X84134703Y-26265072D01*
X84100328Y-26213627D01*
X84066331Y-26131552D01*
X84049000Y-26044421D01*
X84049000Y-25955579D01*
X84066331Y-25868448D01*
X84100328Y-25786373D01*
X84149685Y-25712505D01*
X84212505Y-25649685D01*
X84249187Y-25625175D01*
X84286371Y-25600329D01*
X84286373Y-25600328D01*
X84368448Y-25566331D01*
X84455579Y-25549000D01*
X84544421Y-25549000D01*
X84631552Y-25566331D01*
X84631552Y-25566331D01*
G37*
G36*
X94631552Y-25566331D02*
G01*
X94713627Y-25600328D01*
X94713629Y-25600329D01*
X94750813Y-25625175D01*
X94787495Y-25649685D01*
X94850315Y-25712505D01*
X94899672Y-25786373D01*
X94933669Y-25868448D01*
X94951000Y-25955579D01*
X94951000Y-26044421D01*
X94933669Y-26131552D01*
X94899672Y-26213627D01*
X94865298Y-26265072D01*
X94850314Y-26287496D01*
X94787496Y-26350314D01*
X94713629Y-26399671D01*
X94713628Y-26399672D01*
X94713627Y-26399672D01*
X94631552Y-26433669D01*
X94544421Y-26451000D01*
X94455579Y-26451000D01*
X94368448Y-26433669D01*
X94286373Y-26399672D01*
X94286372Y-26399672D01*
X94286371Y-26399671D01*
X94212504Y-26350314D01*
X94149686Y-26287496D01*
X94134703Y-26265072D01*
X94100328Y-26213627D01*
X94066331Y-26131552D01*
X94049000Y-26044421D01*
X94049000Y-25955579D01*
X94066331Y-25868448D01*
X94100328Y-25786373D01*
X94149685Y-25712505D01*
X94212505Y-25649685D01*
X94249187Y-25625175D01*
X94286371Y-25600329D01*
X94286373Y-25600328D01*
X94368448Y-25566331D01*
X94455579Y-25549000D01*
X94544421Y-25549000D01*
X94631552Y-25566331D01*
X94631552Y-25566331D01*
G37*
G36*
X104631552Y-25566331D02*
G01*
X104713627Y-25600328D01*
X104713629Y-25600329D01*
X104750813Y-25625175D01*
X104787495Y-25649685D01*
X104850315Y-25712505D01*
X104899672Y-25786373D01*
X104933669Y-25868448D01*
X104951000Y-25955579D01*
X104951000Y-26044421D01*
X104933669Y-26131552D01*
X104899672Y-26213627D01*
X104865298Y-26265072D01*
X104850314Y-26287496D01*
X104787496Y-26350314D01*
X104713629Y-26399671D01*
X104713628Y-26399672D01*
X104713627Y-26399672D01*
X104631552Y-26433669D01*
X104544421Y-26451000D01*
X104455579Y-26451000D01*
X104368448Y-26433669D01*
X104286373Y-26399672D01*
X104286372Y-26399672D01*
X104286371Y-26399671D01*
X104212504Y-26350314D01*
X104149686Y-26287496D01*
X104134703Y-26265072D01*
X104100328Y-26213627D01*
X104066331Y-26131552D01*
X104049000Y-26044421D01*
X104049000Y-25955579D01*
X104066331Y-25868448D01*
X104100328Y-25786373D01*
X104149685Y-25712505D01*
X104212505Y-25649685D01*
X104249187Y-25625175D01*
X104286371Y-25600329D01*
X104286373Y-25600328D01*
X104368448Y-25566331D01*
X104455579Y-25549000D01*
X104544421Y-25549000D01*
X104631552Y-25566331D01*
X104631552Y-25566331D01*
G37*
G36*
X54631552Y-25566331D02*
G01*
X54713627Y-25600328D01*
X54713629Y-25600329D01*
X54750813Y-25625175D01*
X54787495Y-25649685D01*
X54850315Y-25712505D01*
X54899672Y-25786373D01*
X54933669Y-25868448D01*
X54951000Y-25955579D01*
X54951000Y-26044421D01*
X54933669Y-26131552D01*
X54899672Y-26213627D01*
X54865298Y-26265072D01*
X54850314Y-26287496D01*
X54787496Y-26350314D01*
X54713629Y-26399671D01*
X54713628Y-26399672D01*
X54713627Y-26399672D01*
X54631552Y-26433669D01*
X54544421Y-26451000D01*
X54455579Y-26451000D01*
X54368448Y-26433669D01*
X54286373Y-26399672D01*
X54286372Y-26399672D01*
X54286371Y-26399671D01*
X54212504Y-26350314D01*
X54149686Y-26287496D01*
X54134703Y-26265072D01*
X54100328Y-26213627D01*
X54066331Y-26131552D01*
X54049000Y-26044421D01*
X54049000Y-25955579D01*
X54066331Y-25868448D01*
X54100328Y-25786373D01*
X54149685Y-25712505D01*
X54212505Y-25649685D01*
X54249187Y-25625175D01*
X54286371Y-25600329D01*
X54286373Y-25600328D01*
X54368448Y-25566331D01*
X54455579Y-25549000D01*
X54544421Y-25549000D01*
X54631552Y-25566331D01*
X54631552Y-25566331D01*
G37*
M02*
