M48
; DRILL file {KiCad 5.1.5} date Mon 23 Dec 2019 15:08:22 CET
; FORMAT={-:-/ absolute / metric / decimal}
; #@! TF.CreationDate,2019-12-23T15:08:22+01:00
; #@! TF.GenerationSoftware,Kicad,Pcbnew,5.1.5
FMAT,2
METRIC
T1C0.300
T2C0.400
T3C0.800
T4C2.200
T5C0.500
%
G90
G05
T1
X51.0Y-55.8
X51.0Y-58.3
X51.0Y-60.8
X51.0Y-63.3
X51.0Y-65.8
X51.0Y-68.3
X51.0Y-70.8
X51.0Y-73.3
X51.0Y-84.3
X51.0Y-85.9
X51.0Y-103.3
X54.0Y-101.5
X55.6Y-101.5
X55.6Y-103.9
X56.2Y-108.5
X56.3Y-50.5
X57.3Y-98.8
X58.2Y-98.0
X58.7Y-108.5
X58.8Y-50.5
X59.0Y-102.7
X59.5Y-102.1
X60.0Y-102.7
X60.1Y-103.9
X60.4Y-79.5
X60.9Y-89.7
X61.2Y-94.8
X61.2Y-108.5
X61.3Y-50.5
X61.7Y-98.3
X61.7Y-99.1
X61.7Y-99.9
X62.0Y-106.5
X62.0Y-107.4
X62.3Y-94.8
X62.5Y-98.3
X62.5Y-99.1
X62.5Y-99.9
X63.3Y-98.3
X63.3Y-99.1
X63.3Y-99.9
X63.3Y-105.4
X63.7Y-108.5
X63.8Y-50.5
X65.9Y-94.8
X66.2Y-108.5
X66.3Y-50.5
X67.1Y-99.4
X68.7Y-108.5
X68.8Y-50.5
X70.6Y-101.0
X71.2Y-108.5
X71.3Y-50.5
X72.3Y-94.2
X72.3Y-95.2
X72.3Y-96.2
X73.3Y-94.2
X73.3Y-95.2
X73.3Y-96.2
X73.7Y-108.5
X73.8Y-50.5
X76.2Y-108.5
X76.3Y-50.5
X78.7Y-108.5
X78.8Y-50.5
X81.2Y-108.5
X81.3Y-50.5
X81.7Y-97.65
X81.7Y-98.7
X81.7Y-99.7
X83.4Y-95.2
X83.7Y-108.5
X83.8Y-50.5
X86.2Y-108.5
X86.3Y-50.5
X87.9Y-105.6
X87.9Y-106.5
X87.9Y-107.4
X88.2Y-103.9
X88.7Y-108.5
X88.8Y-50.5
X88.9Y-95.2
X90.0Y-103.9
X91.2Y-108.5
X91.3Y-50.5
X93.7Y-108.5
X93.8Y-50.5
X95.0Y-100.5
X95.4Y-93.8
X96.2Y-108.5
X96.3Y-50.5
X103.8Y-50.5
X103.8Y-108.5
X104.8Y-93.8
X106.3Y-50.5
X106.3Y-108.5
X108.8Y-50.5
X108.8Y-108.5
X111.3Y-50.5
X111.3Y-108.5
X113.8Y-50.5
X113.8Y-108.5
X116.3Y-50.5
X116.3Y-108.5
X116.6Y-99.8
X116.6Y-100.6
X116.6Y-101.4
X117.4Y-99.8
X117.4Y-100.6
X117.4Y-101.4
X118.8Y-50.5
X118.8Y-108.5
X121.3Y-50.5
X121.3Y-108.5
X123.8Y-50.5
X123.8Y-108.5
X126.3Y-50.5
X126.3Y-108.5
X128.8Y-50.5
X128.8Y-108.5
X131.3Y-50.5
X131.3Y-108.5
X133.8Y-50.5
X135.8Y-100.4
X135.8Y-101.4
X136.3Y-50.5
X136.8Y-100.4
X136.8Y-101.4
X137.6Y-73.2
X137.8Y-100.4
X137.8Y-101.4
X138.8Y-50.5
X141.3Y-50.5
X141.5Y-73.2
X143.5Y-73.2
X143.5Y-73.9
X143.5Y-78.3
X143.5Y-79.0
X143.6Y-68.6
X143.6Y-69.4
X143.8Y-50.5
X144.4Y-68.6
X144.4Y-69.4
X144.4Y-73.2
X144.4Y-73.9
X144.4Y-78.3
X144.4Y-79.0
X145.2Y-68.6
X145.2Y-69.4
X145.3Y-73.2
X145.3Y-73.9
X145.3Y-78.3
X145.3Y-79.0
X149.0Y-55.7
X149.0Y-58.2
X149.0Y-60.7
X149.0Y-63.2
X149.0Y-65.7
X149.0Y-68.2
X149.0Y-70.7
X149.0Y-73.2
X149.0Y-75.7
X149.0Y-78.2
X149.0Y-80.7
X149.0Y-83.2
X149.0Y-85.7
X149.0Y-88.2
X149.0Y-90.7
X149.0Y-93.2
X149.0Y-95.7
X149.0Y-98.2
X149.0Y-100.7
X149.0Y-103.2
T2
X98.35Y-107.0
X98.833Y-105.833
X98.833Y-108.167
X100.0Y-105.35
X100.0Y-108.65
X101.167Y-105.833
X101.167Y-108.167
X101.65Y-107.0
X50.85Y-52.0
X51.333Y-50.833
X51.333Y-53.167
X52.5Y-50.35
X52.5Y-53.65
X53.667Y-50.833
X53.667Y-53.167
X54.15Y-52.0
X50.85Y-107.0
X51.333Y-105.833
X51.333Y-108.167
X52.5Y-105.35
X52.5Y-108.65
X53.667Y-105.833
X53.667Y-108.167
X54.15Y-107.0
X145.85Y-52.0
X146.333Y-50.833
X146.333Y-53.167
X147.5Y-50.35
X147.5Y-53.65
X148.667Y-50.833
X148.667Y-53.167
X149.15Y-52.0
X145.85Y-107.0
X146.333Y-105.833
X146.333Y-108.167
X147.5Y-105.35
X147.5Y-108.65
X148.667Y-105.833
X148.667Y-108.167
X149.15Y-107.0
X98.35Y-52.0
X98.833Y-50.833
X98.833Y-53.167
X100.0Y-50.35
X100.0Y-53.65
X101.167Y-50.833
X101.167Y-53.167
X101.65Y-52.0
T3
X51.9Y-76.5
X51.9Y-78.5
X51.9Y-80.5
X51.9Y-82.5
T4
X100.0Y-52.0
X100.0Y-107.0
X52.5Y-52.0
X52.5Y-107.0
X147.5Y-52.0
X147.5Y-107.0
T5
X80.15Y-106.9
X81.85Y-106.9
X68.15Y-106.9
X69.85Y-106.9
X124.15Y-106.9
X125.85Y-106.9
T2
G00X135.4Y-104.25
M15
G01X135.4Y-103.65
M16
G05
G00X135.4Y-108.15
M15
G01X135.4Y-107.55
M16
G05
G00X142.775Y-104.25
M15
G01X142.775Y-103.65
M16
G05
G00X142.8Y-108.15
M15
G01X142.8Y-107.55
M16
G05
T0
M30
