G04 #@! TF.GenerationSoftware,KiCad,Pcbnew,5.1.5*
G04 #@! TF.CreationDate,2019-12-23T15:09:15+01:00*
G04 #@! TF.ProjectId,eside_rev18,65736964-655f-4726-9576-31382e6b6963,rev?*
G04 #@! TF.SameCoordinates,Original*
G04 #@! TF.FileFunction,Copper,L1,Top*
G04 #@! TF.FilePolarity,Positive*
%FSLAX46Y46*%
G04 Gerber Fmt 4.6, Leading zero omitted, Abs format (unit mm)*
G04 Created by KiCad (PCBNEW 5.1.5) date 2019-12-23 15:09:15*
%MOMM*%
%LPD*%
G04 APERTURE LIST*
%ADD10O,1.350000X1.350000*%
%ADD11R,1.350000X1.350000*%
%ADD12C,0.100000*%
%ADD13O,1.000000X1.800000*%
%ADD14C,0.700000*%
%ADD15C,4.400000*%
%ADD16C,0.600000*%
%ADD17C,0.600000*%
%ADD18C,2.000000*%
%ADD19C,3.000000*%
%ADD20C,1.000000*%
%ADD21C,0.200000*%
%ADD22C,0.800000*%
%ADD23C,0.400000*%
%ADD24C,0.254000*%
G04 APERTURE END LIST*
D10*
X51900000Y-82500000D03*
X51900000Y-80500000D03*
X51900000Y-78500000D03*
D11*
X51900000Y-76500000D03*
G04 #@! TA.AperFunction,SMDPad,CuDef*
D12*
G36*
X56427691Y-78026053D02*
G01*
X56448926Y-78029203D01*
X56469750Y-78034419D01*
X56489962Y-78041651D01*
X56509368Y-78050830D01*
X56527781Y-78061866D01*
X56545024Y-78074654D01*
X56560930Y-78089070D01*
X56575346Y-78104976D01*
X56588134Y-78122219D01*
X56599170Y-78140632D01*
X56608349Y-78160038D01*
X56615581Y-78180250D01*
X56620797Y-78201074D01*
X56623947Y-78222309D01*
X56625000Y-78243750D01*
X56625000Y-78756250D01*
X56623947Y-78777691D01*
X56620797Y-78798926D01*
X56615581Y-78819750D01*
X56608349Y-78839962D01*
X56599170Y-78859368D01*
X56588134Y-78877781D01*
X56575346Y-78895024D01*
X56560930Y-78910930D01*
X56545024Y-78925346D01*
X56527781Y-78938134D01*
X56509368Y-78949170D01*
X56489962Y-78958349D01*
X56469750Y-78965581D01*
X56448926Y-78970797D01*
X56427691Y-78973947D01*
X56406250Y-78975000D01*
X55968750Y-78975000D01*
X55947309Y-78973947D01*
X55926074Y-78970797D01*
X55905250Y-78965581D01*
X55885038Y-78958349D01*
X55865632Y-78949170D01*
X55847219Y-78938134D01*
X55829976Y-78925346D01*
X55814070Y-78910930D01*
X55799654Y-78895024D01*
X55786866Y-78877781D01*
X55775830Y-78859368D01*
X55766651Y-78839962D01*
X55759419Y-78819750D01*
X55754203Y-78798926D01*
X55751053Y-78777691D01*
X55750000Y-78756250D01*
X55750000Y-78243750D01*
X55751053Y-78222309D01*
X55754203Y-78201074D01*
X55759419Y-78180250D01*
X55766651Y-78160038D01*
X55775830Y-78140632D01*
X55786866Y-78122219D01*
X55799654Y-78104976D01*
X55814070Y-78089070D01*
X55829976Y-78074654D01*
X55847219Y-78061866D01*
X55865632Y-78050830D01*
X55885038Y-78041651D01*
X55905250Y-78034419D01*
X55926074Y-78029203D01*
X55947309Y-78026053D01*
X55968750Y-78025000D01*
X56406250Y-78025000D01*
X56427691Y-78026053D01*
G37*
G04 #@! TD.AperFunction*
G04 #@! TA.AperFunction,SMDPad,CuDef*
G36*
X54852691Y-78026053D02*
G01*
X54873926Y-78029203D01*
X54894750Y-78034419D01*
X54914962Y-78041651D01*
X54934368Y-78050830D01*
X54952781Y-78061866D01*
X54970024Y-78074654D01*
X54985930Y-78089070D01*
X55000346Y-78104976D01*
X55013134Y-78122219D01*
X55024170Y-78140632D01*
X55033349Y-78160038D01*
X55040581Y-78180250D01*
X55045797Y-78201074D01*
X55048947Y-78222309D01*
X55050000Y-78243750D01*
X55050000Y-78756250D01*
X55048947Y-78777691D01*
X55045797Y-78798926D01*
X55040581Y-78819750D01*
X55033349Y-78839962D01*
X55024170Y-78859368D01*
X55013134Y-78877781D01*
X55000346Y-78895024D01*
X54985930Y-78910930D01*
X54970024Y-78925346D01*
X54952781Y-78938134D01*
X54934368Y-78949170D01*
X54914962Y-78958349D01*
X54894750Y-78965581D01*
X54873926Y-78970797D01*
X54852691Y-78973947D01*
X54831250Y-78975000D01*
X54393750Y-78975000D01*
X54372309Y-78973947D01*
X54351074Y-78970797D01*
X54330250Y-78965581D01*
X54310038Y-78958349D01*
X54290632Y-78949170D01*
X54272219Y-78938134D01*
X54254976Y-78925346D01*
X54239070Y-78910930D01*
X54224654Y-78895024D01*
X54211866Y-78877781D01*
X54200830Y-78859368D01*
X54191651Y-78839962D01*
X54184419Y-78819750D01*
X54179203Y-78798926D01*
X54176053Y-78777691D01*
X54175000Y-78756250D01*
X54175000Y-78243750D01*
X54176053Y-78222309D01*
X54179203Y-78201074D01*
X54184419Y-78180250D01*
X54191651Y-78160038D01*
X54200830Y-78140632D01*
X54211866Y-78122219D01*
X54224654Y-78104976D01*
X54239070Y-78089070D01*
X54254976Y-78074654D01*
X54272219Y-78061866D01*
X54290632Y-78050830D01*
X54310038Y-78041651D01*
X54330250Y-78034419D01*
X54351074Y-78029203D01*
X54372309Y-78026053D01*
X54393750Y-78025000D01*
X54831250Y-78025000D01*
X54852691Y-78026053D01*
G37*
G04 #@! TD.AperFunction*
G04 #@! TA.AperFunction,SMDPad,CuDef*
G36*
X56427691Y-80026053D02*
G01*
X56448926Y-80029203D01*
X56469750Y-80034419D01*
X56489962Y-80041651D01*
X56509368Y-80050830D01*
X56527781Y-80061866D01*
X56545024Y-80074654D01*
X56560930Y-80089070D01*
X56575346Y-80104976D01*
X56588134Y-80122219D01*
X56599170Y-80140632D01*
X56608349Y-80160038D01*
X56615581Y-80180250D01*
X56620797Y-80201074D01*
X56623947Y-80222309D01*
X56625000Y-80243750D01*
X56625000Y-80756250D01*
X56623947Y-80777691D01*
X56620797Y-80798926D01*
X56615581Y-80819750D01*
X56608349Y-80839962D01*
X56599170Y-80859368D01*
X56588134Y-80877781D01*
X56575346Y-80895024D01*
X56560930Y-80910930D01*
X56545024Y-80925346D01*
X56527781Y-80938134D01*
X56509368Y-80949170D01*
X56489962Y-80958349D01*
X56469750Y-80965581D01*
X56448926Y-80970797D01*
X56427691Y-80973947D01*
X56406250Y-80975000D01*
X55968750Y-80975000D01*
X55947309Y-80973947D01*
X55926074Y-80970797D01*
X55905250Y-80965581D01*
X55885038Y-80958349D01*
X55865632Y-80949170D01*
X55847219Y-80938134D01*
X55829976Y-80925346D01*
X55814070Y-80910930D01*
X55799654Y-80895024D01*
X55786866Y-80877781D01*
X55775830Y-80859368D01*
X55766651Y-80839962D01*
X55759419Y-80819750D01*
X55754203Y-80798926D01*
X55751053Y-80777691D01*
X55750000Y-80756250D01*
X55750000Y-80243750D01*
X55751053Y-80222309D01*
X55754203Y-80201074D01*
X55759419Y-80180250D01*
X55766651Y-80160038D01*
X55775830Y-80140632D01*
X55786866Y-80122219D01*
X55799654Y-80104976D01*
X55814070Y-80089070D01*
X55829976Y-80074654D01*
X55847219Y-80061866D01*
X55865632Y-80050830D01*
X55885038Y-80041651D01*
X55905250Y-80034419D01*
X55926074Y-80029203D01*
X55947309Y-80026053D01*
X55968750Y-80025000D01*
X56406250Y-80025000D01*
X56427691Y-80026053D01*
G37*
G04 #@! TD.AperFunction*
G04 #@! TA.AperFunction,SMDPad,CuDef*
G36*
X54852691Y-80026053D02*
G01*
X54873926Y-80029203D01*
X54894750Y-80034419D01*
X54914962Y-80041651D01*
X54934368Y-80050830D01*
X54952781Y-80061866D01*
X54970024Y-80074654D01*
X54985930Y-80089070D01*
X55000346Y-80104976D01*
X55013134Y-80122219D01*
X55024170Y-80140632D01*
X55033349Y-80160038D01*
X55040581Y-80180250D01*
X55045797Y-80201074D01*
X55048947Y-80222309D01*
X55050000Y-80243750D01*
X55050000Y-80756250D01*
X55048947Y-80777691D01*
X55045797Y-80798926D01*
X55040581Y-80819750D01*
X55033349Y-80839962D01*
X55024170Y-80859368D01*
X55013134Y-80877781D01*
X55000346Y-80895024D01*
X54985930Y-80910930D01*
X54970024Y-80925346D01*
X54952781Y-80938134D01*
X54934368Y-80949170D01*
X54914962Y-80958349D01*
X54894750Y-80965581D01*
X54873926Y-80970797D01*
X54852691Y-80973947D01*
X54831250Y-80975000D01*
X54393750Y-80975000D01*
X54372309Y-80973947D01*
X54351074Y-80970797D01*
X54330250Y-80965581D01*
X54310038Y-80958349D01*
X54290632Y-80949170D01*
X54272219Y-80938134D01*
X54254976Y-80925346D01*
X54239070Y-80910930D01*
X54224654Y-80895024D01*
X54211866Y-80877781D01*
X54200830Y-80859368D01*
X54191651Y-80839962D01*
X54184419Y-80819750D01*
X54179203Y-80798926D01*
X54176053Y-80777691D01*
X54175000Y-80756250D01*
X54175000Y-80243750D01*
X54176053Y-80222309D01*
X54179203Y-80201074D01*
X54184419Y-80180250D01*
X54191651Y-80160038D01*
X54200830Y-80140632D01*
X54211866Y-80122219D01*
X54224654Y-80104976D01*
X54239070Y-80089070D01*
X54254976Y-80074654D01*
X54272219Y-80061866D01*
X54290632Y-80050830D01*
X54310038Y-80041651D01*
X54330250Y-80034419D01*
X54351074Y-80029203D01*
X54372309Y-80026053D01*
X54393750Y-80025000D01*
X54831250Y-80025000D01*
X54852691Y-80026053D01*
G37*
G04 #@! TD.AperFunction*
D13*
X135400000Y-107850000D03*
X142800000Y-107850000D03*
X135400000Y-103950000D03*
X142775000Y-103950000D03*
D14*
X101166726Y-108166726D03*
X100000000Y-108650000D03*
X98833274Y-108166726D03*
X98350000Y-107000000D03*
X98833274Y-105833274D03*
X100000000Y-105350000D03*
X101166726Y-105833274D03*
X101650000Y-107000000D03*
D15*
X100000000Y-107000000D03*
D14*
X101166726Y-53166726D03*
X100000000Y-53650000D03*
X98833274Y-53166726D03*
X98350000Y-52000000D03*
X98833274Y-50833274D03*
X100000000Y-50350000D03*
X101166726Y-50833274D03*
X101650000Y-52000000D03*
D15*
X100000000Y-52000000D03*
D14*
X53666726Y-108166726D03*
X52500000Y-108650000D03*
X51333274Y-108166726D03*
X50850000Y-107000000D03*
X51333274Y-105833274D03*
X52500000Y-105350000D03*
X53666726Y-105833274D03*
X54150000Y-107000000D03*
D15*
X52500000Y-107000000D03*
D14*
X148666726Y-53166726D03*
X147500000Y-53650000D03*
X146333274Y-53166726D03*
X145850000Y-52000000D03*
X146333274Y-50833274D03*
X147500000Y-50350000D03*
X148666726Y-50833274D03*
X149150000Y-52000000D03*
D15*
X147500000Y-52000000D03*
D14*
X148666726Y-108166726D03*
X147500000Y-108650000D03*
X146333274Y-108166726D03*
X145850000Y-107000000D03*
X146333274Y-105833274D03*
X147500000Y-105350000D03*
X148666726Y-105833274D03*
X149150000Y-107000000D03*
D15*
X147500000Y-107000000D03*
D14*
X53666726Y-53166726D03*
X52500000Y-53650000D03*
X51333274Y-53166726D03*
X50850000Y-52000000D03*
X51333274Y-50833274D03*
X52500000Y-50350000D03*
X53666726Y-50833274D03*
X54150000Y-52000000D03*
D15*
X52500000Y-52000000D03*
D16*
X144400000Y-73200000D03*
X143500000Y-73200000D03*
X145300000Y-73200000D03*
X143500000Y-73900000D03*
X144400000Y-73900000D03*
X145300000Y-73900000D03*
X144400000Y-78300000D03*
X143500000Y-78300000D03*
X145300000Y-78300000D03*
X144400000Y-79000000D03*
X143500000Y-79000000D03*
X145300000Y-79000000D03*
X143600000Y-68600000D03*
X144400000Y-68600000D03*
X145200000Y-68600000D03*
X143600000Y-69400000D03*
X144400000Y-69400000D03*
X145200000Y-69400000D03*
X96200000Y-108500000D03*
X93700000Y-108500000D03*
X91200000Y-108500000D03*
X88700000Y-108500000D03*
X86200000Y-108500000D03*
X61200000Y-108500000D03*
X56200000Y-108500000D03*
X118800000Y-108500000D03*
X106300000Y-108500000D03*
X111300000Y-108500000D03*
X108800000Y-108500000D03*
X116300000Y-108500000D03*
X113800000Y-108500000D03*
X103800000Y-108500000D03*
X123800000Y-108500000D03*
X131300000Y-108500000D03*
X121300000Y-108500000D03*
X128800000Y-108500000D03*
X126300000Y-108500000D03*
X149000000Y-68200000D03*
X149000000Y-78200000D03*
X149000000Y-85700000D03*
X149000000Y-58200000D03*
X149000000Y-63200000D03*
X149000000Y-70700000D03*
X149000000Y-88200000D03*
X149000000Y-65700000D03*
X149000000Y-55700000D03*
X149000000Y-75700000D03*
X149000000Y-73200000D03*
X149000000Y-60700000D03*
X149000000Y-83200000D03*
X149000000Y-80700000D03*
X128800000Y-50500000D03*
X118800000Y-50500000D03*
X106300000Y-50500000D03*
X111300000Y-50500000D03*
X138800000Y-50500000D03*
X103800000Y-50500000D03*
X133800000Y-50500000D03*
X126300000Y-50500000D03*
X108800000Y-50500000D03*
X131300000Y-50500000D03*
X141300000Y-50500000D03*
X121300000Y-50500000D03*
X123800000Y-50500000D03*
X136300000Y-50500000D03*
X113800000Y-50500000D03*
X143800000Y-50500000D03*
X116300000Y-50500000D03*
X71300000Y-50500000D03*
X96300000Y-50500000D03*
X86300000Y-50500000D03*
X68800000Y-50500000D03*
X63800000Y-50500000D03*
X73800000Y-50500000D03*
X58800000Y-50500000D03*
X91300000Y-50500000D03*
X61300000Y-50500000D03*
X83800000Y-50500000D03*
X88800000Y-50500000D03*
X78800000Y-50500000D03*
X81300000Y-50500000D03*
X93800000Y-50500000D03*
X56300000Y-50500000D03*
X66300000Y-50500000D03*
X76300000Y-50500000D03*
X51000000Y-103300000D03*
X51000000Y-68300000D03*
X51000000Y-65800000D03*
X51000000Y-63300000D03*
X51000000Y-60800000D03*
X51000000Y-58300000D03*
X51000000Y-55800000D03*
X78700000Y-108500000D03*
X73700000Y-108500000D03*
X81200000Y-108500000D03*
X76200000Y-108500000D03*
X83700000Y-108500000D03*
X68700000Y-108500000D03*
X66200000Y-108500000D03*
X71200000Y-108500000D03*
X63700000Y-108500000D03*
X63300000Y-98300000D03*
X61700000Y-98300000D03*
X62500000Y-98300000D03*
X116600000Y-99800000D03*
X116600000Y-101400000D03*
X116600000Y-100600000D03*
X117400000Y-99800000D03*
X117400000Y-101400000D03*
X117400000Y-100600000D03*
X58700000Y-108500000D03*
X62500000Y-99100000D03*
X63300000Y-99100000D03*
X61700000Y-99100000D03*
X62500000Y-99900000D03*
X61700000Y-99900000D03*
X63300000Y-99900000D03*
X149000000Y-90700000D03*
X149000000Y-93200000D03*
X149000000Y-100700000D03*
X149000000Y-98200000D03*
X149000000Y-95700000D03*
X149000000Y-103200000D03*
X59000000Y-102700000D03*
X60000000Y-102700000D03*
X88900000Y-95200000D03*
X81700000Y-99700000D03*
X81700000Y-98700000D03*
X72300000Y-95200000D03*
X73300000Y-95200000D03*
X72300000Y-96200000D03*
X72300000Y-94200000D03*
X73300000Y-94200000D03*
X73300000Y-96200000D03*
X95000000Y-100500000D03*
X54000000Y-101500000D03*
X63300000Y-105400000D03*
X87900000Y-105600000D03*
X51000000Y-85900000D03*
X51000000Y-84300000D03*
X51000000Y-70800000D03*
X51000000Y-73300000D03*
X59500000Y-102100000D03*
X60400000Y-79500000D03*
X137800000Y-101400000D03*
X136800000Y-101400000D03*
X136800000Y-100400000D03*
X137800000Y-100400000D03*
X135800000Y-100400000D03*
X135800000Y-101400000D03*
X141500000Y-73200000D03*
X104800000Y-93800000D03*
X95400000Y-93800000D03*
X137600000Y-73200000D03*
X90000000Y-103900000D03*
X60100000Y-103900000D03*
X88200000Y-103900000D03*
X55600000Y-103900000D03*
X83400000Y-95200000D03*
X60900000Y-89700000D03*
X67100000Y-99399994D03*
X70600000Y-101000000D03*
X81699990Y-97650000D03*
X87900000Y-106500000D03*
X61999998Y-106499998D03*
X57300000Y-98800000D03*
X55600000Y-101500000D03*
X61200000Y-94800000D03*
X62300000Y-94800000D03*
X65900000Y-94800000D03*
X58199998Y-98000000D03*
X62000000Y-107400000D03*
X87900000Y-107400000D03*
D17*
X104800000Y-93800000D02*
X95400000Y-93800000D01*
X141500000Y-73200000D02*
X137600000Y-73200000D01*
D18*
X142800000Y-107850000D02*
X135400000Y-107850000D01*
X135400000Y-103950000D02*
X142775000Y-103950000D01*
D19*
X139000000Y-104500000D02*
X139000000Y-107300000D01*
D20*
X60100000Y-103900000D02*
X55600000Y-103900000D01*
X90100000Y-103900000D02*
X90072999Y-103927001D01*
X60524264Y-103900000D02*
X60100000Y-103900000D01*
X60551265Y-103927001D02*
X60524264Y-103900000D01*
X90072999Y-103927001D02*
X83372999Y-103927001D01*
X83372999Y-103927001D02*
X60551265Y-103927001D01*
D21*
X83372999Y-95227001D02*
X83400000Y-95200000D01*
D17*
X83400000Y-103900000D02*
X83400000Y-95200000D01*
X66800001Y-89400001D02*
X67100000Y-89700000D01*
X67100000Y-89700000D02*
X67100000Y-98975730D01*
X60900000Y-89700000D02*
X61199999Y-89400001D01*
X61199999Y-89400001D02*
X66800001Y-89400001D01*
X67100000Y-98975730D02*
X67100000Y-99399994D01*
D22*
X51900000Y-80500000D02*
X54612500Y-80500000D01*
D17*
X71100000Y-97600000D02*
X81649990Y-97600000D01*
X81649990Y-97600000D02*
X81699990Y-97650000D01*
X70600000Y-101000000D02*
X70600000Y-98100000D01*
X70600000Y-98100000D02*
X71100000Y-97600000D01*
D22*
X52854594Y-78500000D02*
X54612500Y-78500000D01*
X51900000Y-78500000D02*
X52854594Y-78500000D01*
D21*
X62000000Y-106500000D02*
X61999998Y-106499998D01*
D23*
X67627011Y-104872989D02*
X66000000Y-106500000D01*
X81431457Y-104872989D02*
X67627011Y-104872989D01*
X83058468Y-106500000D02*
X81431457Y-104872989D01*
X66000000Y-106500000D02*
X62000000Y-106500000D01*
X87900000Y-106500000D02*
X83058468Y-106500000D01*
D17*
X57300000Y-80800000D02*
X57300000Y-98800000D01*
X56087500Y-80500000D02*
X57000000Y-80500000D01*
X57000000Y-80500000D02*
X57300000Y-80800000D01*
X59400000Y-94800000D02*
X61200000Y-94800000D01*
X59100000Y-95100000D02*
X59400000Y-94800000D01*
X59100000Y-101200000D02*
X59100000Y-95100000D01*
X55600000Y-101500000D02*
X58800000Y-101500000D01*
X58800000Y-101500000D02*
X59100000Y-101200000D01*
X62300000Y-94800000D02*
X65900000Y-94800000D01*
X58199998Y-97575736D02*
X58199998Y-98000000D01*
X58199998Y-78899998D02*
X58199998Y-97575736D01*
X56087500Y-78500000D02*
X57800000Y-78500000D01*
X57800000Y-78500000D02*
X58199998Y-78899998D01*
D23*
X83213162Y-107400000D02*
X87475736Y-107400000D01*
X65900000Y-107400000D02*
X67800000Y-105500000D01*
X67800000Y-105500000D02*
X81313162Y-105500000D01*
X87475736Y-107400000D02*
X87900000Y-107400000D01*
X81313162Y-105500000D02*
X83213162Y-107400000D01*
X62000000Y-107400000D02*
X65900000Y-107400000D01*
D24*
G36*
X96973000Y-54500000D02*
G01*
X96975440Y-54524776D01*
X96982667Y-54548601D01*
X96994403Y-54570557D01*
X97010197Y-54589803D01*
X97410197Y-54989803D01*
X97429443Y-55005597D01*
X97451399Y-55017333D01*
X97475224Y-55024560D01*
X97500000Y-55027000D01*
X102500000Y-55027000D01*
X102524776Y-55024560D01*
X102548601Y-55017333D01*
X102570557Y-55005597D01*
X102589803Y-54989803D01*
X102989803Y-54589803D01*
X103005597Y-54570557D01*
X103017333Y-54548601D01*
X103024560Y-54524776D01*
X103027000Y-54500000D01*
X103027000Y-49906000D01*
X147480146Y-49906000D01*
X147906345Y-49947789D01*
X148297222Y-50065802D01*
X148657723Y-50257484D01*
X148974131Y-50515539D01*
X149234390Y-50830138D01*
X149428586Y-51189295D01*
X149549323Y-51579333D01*
X149594001Y-52004416D01*
X149594000Y-106980146D01*
X149552211Y-107406346D01*
X149434199Y-107797219D01*
X149242514Y-108157726D01*
X148984457Y-108474135D01*
X148669860Y-108734391D01*
X148310704Y-108928586D01*
X147920667Y-109049323D01*
X147495594Y-109094000D01*
X143402231Y-109094000D01*
X143570955Y-109003815D01*
X143781239Y-108831239D01*
X143953815Y-108620955D01*
X144082051Y-108381043D01*
X144161018Y-108120723D01*
X144187682Y-107850000D01*
X144161018Y-107579277D01*
X144082051Y-107318957D01*
X143953815Y-107079045D01*
X143781239Y-106868761D01*
X143570955Y-106696185D01*
X143331043Y-106567949D01*
X143070723Y-106488982D01*
X142867843Y-106469000D01*
X140881000Y-106469000D01*
X140881000Y-105331000D01*
X142842843Y-105331000D01*
X143045723Y-105311018D01*
X143306043Y-105232051D01*
X143545955Y-105103815D01*
X143756239Y-104931239D01*
X143928815Y-104720955D01*
X144057051Y-104481043D01*
X144136018Y-104220723D01*
X144162682Y-103950000D01*
X144136018Y-103679277D01*
X144057051Y-103418957D01*
X143928815Y-103179045D01*
X143756239Y-102968761D01*
X143545955Y-102796185D01*
X143306043Y-102667949D01*
X143045723Y-102588982D01*
X142842843Y-102569000D01*
X135332157Y-102569000D01*
X135129277Y-102588982D01*
X134868957Y-102667949D01*
X134629045Y-102796185D01*
X134418761Y-102968761D01*
X134246185Y-103179045D01*
X134117949Y-103418957D01*
X134038982Y-103679277D01*
X134012318Y-103950000D01*
X134038982Y-104220723D01*
X134117949Y-104481043D01*
X134246185Y-104720955D01*
X134418761Y-104931239D01*
X134629045Y-105103815D01*
X134868957Y-105232051D01*
X135129277Y-105311018D01*
X135332157Y-105331000D01*
X137119000Y-105331000D01*
X137119001Y-106469000D01*
X135332157Y-106469000D01*
X135129277Y-106488982D01*
X134868957Y-106567949D01*
X134629045Y-106696185D01*
X134418761Y-106868761D01*
X134246185Y-107079045D01*
X134117949Y-107318957D01*
X134038982Y-107579277D01*
X134012318Y-107850000D01*
X134038982Y-108120723D01*
X134117949Y-108381043D01*
X134246185Y-108620955D01*
X134418761Y-108831239D01*
X134629045Y-109003815D01*
X134797769Y-109094000D01*
X103027000Y-109094000D01*
X103027000Y-106837852D01*
X123519000Y-106837852D01*
X123519000Y-106962148D01*
X123543249Y-107084056D01*
X123590815Y-107198891D01*
X123659870Y-107302239D01*
X123747761Y-107390130D01*
X123851109Y-107459185D01*
X123965944Y-107506751D01*
X124087852Y-107531000D01*
X124212148Y-107531000D01*
X124334056Y-107506751D01*
X124448891Y-107459185D01*
X124552239Y-107390130D01*
X124640130Y-107302239D01*
X124709185Y-107198891D01*
X124756751Y-107084056D01*
X124781000Y-106962148D01*
X124781000Y-106837852D01*
X125219000Y-106837852D01*
X125219000Y-106962148D01*
X125243249Y-107084056D01*
X125290815Y-107198891D01*
X125359870Y-107302239D01*
X125447761Y-107390130D01*
X125551109Y-107459185D01*
X125665944Y-107506751D01*
X125787852Y-107531000D01*
X125912148Y-107531000D01*
X126034056Y-107506751D01*
X126148891Y-107459185D01*
X126252239Y-107390130D01*
X126340130Y-107302239D01*
X126409185Y-107198891D01*
X126456751Y-107084056D01*
X126481000Y-106962148D01*
X126481000Y-106837852D01*
X126456751Y-106715944D01*
X126409185Y-106601109D01*
X126340130Y-106497761D01*
X126252239Y-106409870D01*
X126148891Y-106340815D01*
X126034056Y-106293249D01*
X125912148Y-106269000D01*
X125787852Y-106269000D01*
X125665944Y-106293249D01*
X125551109Y-106340815D01*
X125447761Y-106409870D01*
X125359870Y-106497761D01*
X125290815Y-106601109D01*
X125243249Y-106715944D01*
X125219000Y-106837852D01*
X124781000Y-106837852D01*
X124756751Y-106715944D01*
X124709185Y-106601109D01*
X124640130Y-106497761D01*
X124552239Y-106409870D01*
X124448891Y-106340815D01*
X124334056Y-106293249D01*
X124212148Y-106269000D01*
X124087852Y-106269000D01*
X123965944Y-106293249D01*
X123851109Y-106340815D01*
X123747761Y-106409870D01*
X123659870Y-106497761D01*
X123590815Y-106601109D01*
X123543249Y-106715944D01*
X123519000Y-106837852D01*
X103027000Y-106837852D01*
X103027000Y-104700000D01*
X103024560Y-104675224D01*
X103017333Y-104651399D01*
X103005597Y-104629443D01*
X102989803Y-104610197D01*
X102389803Y-104010197D01*
X102370557Y-103994403D01*
X102348601Y-103982667D01*
X102324776Y-103975440D01*
X102300000Y-103973000D01*
X97700000Y-103973000D01*
X97675224Y-103975440D01*
X97651399Y-103982667D01*
X97629443Y-103994403D01*
X97610197Y-104010197D01*
X97010197Y-104610197D01*
X96994403Y-104629443D01*
X96982667Y-104651399D01*
X96975440Y-104675224D01*
X96973000Y-104700000D01*
X96973000Y-109094000D01*
X52519854Y-109094000D01*
X52093654Y-109052211D01*
X51702781Y-108934199D01*
X51342274Y-108742514D01*
X51025865Y-108484457D01*
X50765609Y-108169860D01*
X50571414Y-107810704D01*
X50450677Y-107420667D01*
X50406000Y-106995594D01*
X50406000Y-103900000D01*
X54714738Y-103900000D01*
X54731748Y-104072706D01*
X54782125Y-104238775D01*
X54863932Y-104391825D01*
X54974025Y-104525975D01*
X55108175Y-104636068D01*
X55261225Y-104717875D01*
X55427294Y-104768252D01*
X55556727Y-104781000D01*
X60331574Y-104781000D01*
X60378559Y-104795253D01*
X60507992Y-104808001D01*
X60507994Y-104808001D01*
X60551264Y-104812263D01*
X60594534Y-104808001D01*
X66870341Y-104808001D01*
X65759343Y-105919000D01*
X62356240Y-105919000D01*
X62322572Y-105896504D01*
X62198638Y-105845169D01*
X62067071Y-105818998D01*
X61932925Y-105818998D01*
X61801358Y-105845169D01*
X61677424Y-105896504D01*
X61565886Y-105971031D01*
X61471031Y-106065886D01*
X61396504Y-106177424D01*
X61345169Y-106301358D01*
X61318998Y-106432925D01*
X61318998Y-106567071D01*
X61345169Y-106698638D01*
X61396504Y-106822572D01*
X61471031Y-106934110D01*
X61486921Y-106950000D01*
X61471033Y-106965888D01*
X61396506Y-107077426D01*
X61345171Y-107201360D01*
X61319000Y-107332927D01*
X61319000Y-107467073D01*
X61345171Y-107598640D01*
X61396506Y-107722574D01*
X61471033Y-107834112D01*
X61565888Y-107928967D01*
X61677426Y-108003494D01*
X61801360Y-108054829D01*
X61932927Y-108081000D01*
X62067073Y-108081000D01*
X62198640Y-108054829D01*
X62322574Y-108003494D01*
X62356239Y-107981000D01*
X65871460Y-107981000D01*
X65900000Y-107983811D01*
X65928540Y-107981000D01*
X66013896Y-107972593D01*
X66123415Y-107939371D01*
X66224348Y-107885421D01*
X66312817Y-107812817D01*
X66331017Y-107790640D01*
X67283806Y-106837852D01*
X67519000Y-106837852D01*
X67519000Y-106962148D01*
X67543249Y-107084056D01*
X67590815Y-107198891D01*
X67659870Y-107302239D01*
X67747761Y-107390130D01*
X67851109Y-107459185D01*
X67965944Y-107506751D01*
X68087852Y-107531000D01*
X68212148Y-107531000D01*
X68334056Y-107506751D01*
X68448891Y-107459185D01*
X68552239Y-107390130D01*
X68640130Y-107302239D01*
X68709185Y-107198891D01*
X68756751Y-107084056D01*
X68781000Y-106962148D01*
X68781000Y-106837852D01*
X69219000Y-106837852D01*
X69219000Y-106962148D01*
X69243249Y-107084056D01*
X69290815Y-107198891D01*
X69359870Y-107302239D01*
X69447761Y-107390130D01*
X69551109Y-107459185D01*
X69665944Y-107506751D01*
X69787852Y-107531000D01*
X69912148Y-107531000D01*
X70034056Y-107506751D01*
X70148891Y-107459185D01*
X70252239Y-107390130D01*
X70340130Y-107302239D01*
X70409185Y-107198891D01*
X70456751Y-107084056D01*
X70481000Y-106962148D01*
X70481000Y-106837852D01*
X79519000Y-106837852D01*
X79519000Y-106962148D01*
X79543249Y-107084056D01*
X79590815Y-107198891D01*
X79659870Y-107302239D01*
X79747761Y-107390130D01*
X79851109Y-107459185D01*
X79965944Y-107506751D01*
X80087852Y-107531000D01*
X80212148Y-107531000D01*
X80334056Y-107506751D01*
X80448891Y-107459185D01*
X80552239Y-107390130D01*
X80640130Y-107302239D01*
X80709185Y-107198891D01*
X80756751Y-107084056D01*
X80781000Y-106962148D01*
X80781000Y-106837852D01*
X80756751Y-106715944D01*
X80709185Y-106601109D01*
X80640130Y-106497761D01*
X80552239Y-106409870D01*
X80448891Y-106340815D01*
X80334056Y-106293249D01*
X80212148Y-106269000D01*
X80087852Y-106269000D01*
X79965944Y-106293249D01*
X79851109Y-106340815D01*
X79747761Y-106409870D01*
X79659870Y-106497761D01*
X79590815Y-106601109D01*
X79543249Y-106715944D01*
X79519000Y-106837852D01*
X70481000Y-106837852D01*
X70456751Y-106715944D01*
X70409185Y-106601109D01*
X70340130Y-106497761D01*
X70252239Y-106409870D01*
X70148891Y-106340815D01*
X70034056Y-106293249D01*
X69912148Y-106269000D01*
X69787852Y-106269000D01*
X69665944Y-106293249D01*
X69551109Y-106340815D01*
X69447761Y-106409870D01*
X69359870Y-106497761D01*
X69290815Y-106601109D01*
X69243249Y-106715944D01*
X69219000Y-106837852D01*
X68781000Y-106837852D01*
X68756751Y-106715944D01*
X68709185Y-106601109D01*
X68640130Y-106497761D01*
X68552239Y-106409870D01*
X68448891Y-106340815D01*
X68334056Y-106293249D01*
X68212148Y-106269000D01*
X68087852Y-106269000D01*
X67965944Y-106293249D01*
X67851109Y-106340815D01*
X67747761Y-106409870D01*
X67659870Y-106497761D01*
X67590815Y-106601109D01*
X67543249Y-106715944D01*
X67519000Y-106837852D01*
X67283806Y-106837852D01*
X68040659Y-106081000D01*
X81072505Y-106081000D01*
X81424568Y-106433063D01*
X81359870Y-106497761D01*
X81290815Y-106601109D01*
X81243249Y-106715944D01*
X81219000Y-106837852D01*
X81219000Y-106962148D01*
X81243249Y-107084056D01*
X81290815Y-107198891D01*
X81359870Y-107302239D01*
X81447761Y-107390130D01*
X81551109Y-107459185D01*
X81665944Y-107506751D01*
X81787852Y-107531000D01*
X81912148Y-107531000D01*
X82034056Y-107506751D01*
X82148891Y-107459185D01*
X82252239Y-107390130D01*
X82316936Y-107325433D01*
X82782154Y-107790651D01*
X82800345Y-107812817D01*
X82822511Y-107831008D01*
X82822513Y-107831010D01*
X82888814Y-107885421D01*
X82989747Y-107939371D01*
X83099266Y-107972593D01*
X83213162Y-107983811D01*
X83241702Y-107981000D01*
X87543761Y-107981000D01*
X87577426Y-108003494D01*
X87701360Y-108054829D01*
X87832927Y-108081000D01*
X87967073Y-108081000D01*
X88098640Y-108054829D01*
X88222574Y-108003494D01*
X88334112Y-107928967D01*
X88428967Y-107834112D01*
X88503494Y-107722574D01*
X88554829Y-107598640D01*
X88581000Y-107467073D01*
X88581000Y-107332927D01*
X88554829Y-107201360D01*
X88503494Y-107077426D01*
X88428967Y-106965888D01*
X88413079Y-106950000D01*
X88428967Y-106934112D01*
X88503494Y-106822574D01*
X88554829Y-106698640D01*
X88581000Y-106567073D01*
X88581000Y-106432927D01*
X88554829Y-106301360D01*
X88503494Y-106177426D01*
X88428967Y-106065888D01*
X88334112Y-105971033D01*
X88222574Y-105896506D01*
X88098640Y-105845171D01*
X87967073Y-105819000D01*
X87832927Y-105819000D01*
X87701360Y-105845171D01*
X87577426Y-105896506D01*
X87543761Y-105919000D01*
X83299126Y-105919000D01*
X82188126Y-104808001D01*
X90029729Y-104808001D01*
X90072999Y-104812263D01*
X90116269Y-104808001D01*
X90116272Y-104808001D01*
X90245705Y-104795253D01*
X90411774Y-104744876D01*
X90564824Y-104663069D01*
X90698974Y-104552976D01*
X90726565Y-104519356D01*
X90753559Y-104492362D01*
X90836068Y-104391825D01*
X90917874Y-104238774D01*
X90968251Y-104072706D01*
X90985262Y-103900001D01*
X90968251Y-103727295D01*
X90917874Y-103561226D01*
X90836068Y-103408175D01*
X90725974Y-103274026D01*
X90591825Y-103163932D01*
X90438774Y-103082126D01*
X90272705Y-103031749D01*
X90099999Y-103014738D01*
X89927294Y-103031749D01*
X89880312Y-103046001D01*
X84081000Y-103046001D01*
X84081000Y-95132927D01*
X84074441Y-95099953D01*
X84071146Y-95066501D01*
X84061388Y-95034332D01*
X84054829Y-95001360D01*
X84041965Y-94970304D01*
X84032206Y-94938132D01*
X84016358Y-94908483D01*
X84003494Y-94877426D01*
X83984817Y-94849475D01*
X83968970Y-94819826D01*
X83947643Y-94793838D01*
X83928967Y-94765888D01*
X83905200Y-94742121D01*
X83883870Y-94716130D01*
X83857879Y-94694800D01*
X83834112Y-94671033D01*
X83806162Y-94652357D01*
X83780174Y-94631030D01*
X83750525Y-94615183D01*
X83722574Y-94596506D01*
X83691517Y-94583642D01*
X83661868Y-94567794D01*
X83629696Y-94558035D01*
X83598640Y-94545171D01*
X83565668Y-94538612D01*
X83533499Y-94528854D01*
X83500047Y-94525559D01*
X83467073Y-94519000D01*
X83433453Y-94519000D01*
X83400000Y-94515705D01*
X83366547Y-94519000D01*
X83332927Y-94519000D01*
X83299952Y-94525559D01*
X83266502Y-94528854D01*
X83234335Y-94538612D01*
X83201360Y-94545171D01*
X83170301Y-94558036D01*
X83138133Y-94567794D01*
X83108487Y-94583640D01*
X83077426Y-94596506D01*
X83049471Y-94615185D01*
X83019827Y-94631030D01*
X82993844Y-94652354D01*
X82965888Y-94671033D01*
X82942116Y-94694805D01*
X82916131Y-94716130D01*
X82894806Y-94742115D01*
X82871033Y-94765888D01*
X82852353Y-94793845D01*
X82831031Y-94819826D01*
X82815188Y-94849467D01*
X82796506Y-94877426D01*
X82783639Y-94908491D01*
X82767795Y-94938132D01*
X82758039Y-94970295D01*
X82745171Y-95001360D01*
X82738610Y-95034342D01*
X82728855Y-95066501D01*
X82725561Y-95099943D01*
X82719000Y-95132927D01*
X82719000Y-95267073D01*
X82719001Y-95267078D01*
X82719000Y-103046001D01*
X60743955Y-103046001D01*
X60696970Y-103031748D01*
X60567537Y-103019000D01*
X60567534Y-103019000D01*
X60524264Y-103014738D01*
X60480994Y-103019000D01*
X55556727Y-103019000D01*
X55427294Y-103031748D01*
X55261225Y-103082125D01*
X55108175Y-103163932D01*
X54974025Y-103274025D01*
X54863932Y-103408175D01*
X54782125Y-103561225D01*
X54731748Y-103727294D01*
X54714738Y-103900000D01*
X50406000Y-103900000D01*
X50406000Y-75825000D01*
X50842157Y-75825000D01*
X50842157Y-77175000D01*
X50849513Y-77249689D01*
X50871299Y-77321508D01*
X50906678Y-77387696D01*
X50954289Y-77445711D01*
X51012304Y-77493322D01*
X51078492Y-77528701D01*
X51150311Y-77550487D01*
X51225000Y-77557843D01*
X51415107Y-77557843D01*
X51399796Y-77564185D01*
X51226839Y-77679751D01*
X51079751Y-77826839D01*
X50964185Y-77999796D01*
X50884581Y-78191976D01*
X50844000Y-78395993D01*
X50844000Y-78604007D01*
X50884581Y-78808024D01*
X50964185Y-79000204D01*
X51079751Y-79173161D01*
X51226839Y-79320249D01*
X51399796Y-79435815D01*
X51554751Y-79500000D01*
X51399796Y-79564185D01*
X51226839Y-79679751D01*
X51079751Y-79826839D01*
X50964185Y-79999796D01*
X50884581Y-80191976D01*
X50844000Y-80395993D01*
X50844000Y-80604007D01*
X50884581Y-80808024D01*
X50964185Y-81000204D01*
X51079751Y-81173161D01*
X51226839Y-81320249D01*
X51399796Y-81435815D01*
X51554751Y-81500000D01*
X51399796Y-81564185D01*
X51226839Y-81679751D01*
X51079751Y-81826839D01*
X50964185Y-81999796D01*
X50884581Y-82191976D01*
X50844000Y-82395993D01*
X50844000Y-82604007D01*
X50884581Y-82808024D01*
X50964185Y-83000204D01*
X51079751Y-83173161D01*
X51226839Y-83320249D01*
X51399796Y-83435815D01*
X51591976Y-83515419D01*
X51795993Y-83556000D01*
X52004007Y-83556000D01*
X52208024Y-83515419D01*
X52400204Y-83435815D01*
X52573161Y-83320249D01*
X52720249Y-83173161D01*
X52835815Y-83000204D01*
X52915419Y-82808024D01*
X52956000Y-82604007D01*
X52956000Y-82395993D01*
X52915419Y-82191976D01*
X52835815Y-81999796D01*
X52720249Y-81826839D01*
X52573161Y-81679751D01*
X52400204Y-81564185D01*
X52245249Y-81500000D01*
X52400204Y-81435815D01*
X52573161Y-81320249D01*
X52612410Y-81281000D01*
X54105442Y-81281000D01*
X54163530Y-81312049D01*
X54276385Y-81346284D01*
X54393750Y-81357843D01*
X54831250Y-81357843D01*
X54948615Y-81346284D01*
X55061470Y-81312049D01*
X55165477Y-81256456D01*
X55256640Y-81181640D01*
X55331456Y-81090477D01*
X55387049Y-80986470D01*
X55400000Y-80943777D01*
X55412951Y-80986470D01*
X55468544Y-81090477D01*
X55543360Y-81181640D01*
X55634523Y-81256456D01*
X55738530Y-81312049D01*
X55851385Y-81346284D01*
X55968750Y-81357843D01*
X56406250Y-81357843D01*
X56523615Y-81346284D01*
X56619000Y-81317349D01*
X56619001Y-98732922D01*
X56619000Y-98732927D01*
X56619000Y-98867073D01*
X56625561Y-98900057D01*
X56628855Y-98933499D01*
X56638610Y-98965658D01*
X56645171Y-98998640D01*
X56658039Y-99029705D01*
X56667795Y-99061868D01*
X56683639Y-99091509D01*
X56696506Y-99122574D01*
X56715188Y-99150533D01*
X56731031Y-99180174D01*
X56752353Y-99206155D01*
X56771033Y-99234112D01*
X56794806Y-99257885D01*
X56816131Y-99283870D01*
X56842116Y-99305195D01*
X56865888Y-99328967D01*
X56893844Y-99347646D01*
X56919827Y-99368970D01*
X56949471Y-99384815D01*
X56977426Y-99403494D01*
X57008487Y-99416360D01*
X57038133Y-99432206D01*
X57070301Y-99441964D01*
X57101360Y-99454829D01*
X57134335Y-99461388D01*
X57166502Y-99471146D01*
X57199952Y-99474441D01*
X57232927Y-99481000D01*
X57266547Y-99481000D01*
X57300000Y-99484295D01*
X57333453Y-99481000D01*
X57367073Y-99481000D01*
X57400047Y-99474441D01*
X57433499Y-99471146D01*
X57465668Y-99461388D01*
X57498640Y-99454829D01*
X57529696Y-99441965D01*
X57561868Y-99432206D01*
X57591517Y-99416358D01*
X57622574Y-99403494D01*
X57650525Y-99384817D01*
X57680174Y-99368970D01*
X57706162Y-99347643D01*
X57734112Y-99328967D01*
X57757879Y-99305200D01*
X57783870Y-99283870D01*
X57805200Y-99257879D01*
X57828967Y-99234112D01*
X57847643Y-99206162D01*
X57868970Y-99180174D01*
X57884817Y-99150525D01*
X57903494Y-99122574D01*
X57916358Y-99091517D01*
X57932206Y-99061868D01*
X57941965Y-99029696D01*
X57954829Y-98998640D01*
X57961388Y-98965668D01*
X57971146Y-98933499D01*
X57974441Y-98900047D01*
X57981000Y-98867073D01*
X57981000Y-98646396D01*
X58001358Y-98654829D01*
X58034333Y-98661388D01*
X58066500Y-98671146D01*
X58099950Y-98674441D01*
X58132925Y-98681000D01*
X58166545Y-98681000D01*
X58199998Y-98684295D01*
X58233451Y-98681000D01*
X58267071Y-98681000D01*
X58300045Y-98674441D01*
X58333497Y-98671146D01*
X58365666Y-98661388D01*
X58398638Y-98654829D01*
X58419000Y-98646395D01*
X58419000Y-100819000D01*
X55532927Y-100819000D01*
X55499953Y-100825559D01*
X55466501Y-100828854D01*
X55434332Y-100838612D01*
X55401360Y-100845171D01*
X55370304Y-100858035D01*
X55338132Y-100867794D01*
X55308483Y-100883642D01*
X55277426Y-100896506D01*
X55249475Y-100915183D01*
X55219826Y-100931030D01*
X55193838Y-100952357D01*
X55165888Y-100971033D01*
X55142121Y-100994800D01*
X55116130Y-101016130D01*
X55094800Y-101042121D01*
X55071033Y-101065888D01*
X55052357Y-101093838D01*
X55031030Y-101119826D01*
X55015183Y-101149475D01*
X54996506Y-101177426D01*
X54983642Y-101208483D01*
X54967794Y-101238132D01*
X54958035Y-101270304D01*
X54945171Y-101301360D01*
X54938612Y-101334332D01*
X54928854Y-101366501D01*
X54925559Y-101399953D01*
X54919000Y-101432927D01*
X54919000Y-101466547D01*
X54915705Y-101500000D01*
X54919000Y-101533453D01*
X54919000Y-101567073D01*
X54925559Y-101600047D01*
X54928854Y-101633499D01*
X54938612Y-101665668D01*
X54945171Y-101698640D01*
X54958035Y-101729696D01*
X54967794Y-101761868D01*
X54983642Y-101791517D01*
X54996506Y-101822574D01*
X55015183Y-101850525D01*
X55031030Y-101880174D01*
X55052357Y-101906162D01*
X55071033Y-101934112D01*
X55094800Y-101957879D01*
X55116130Y-101983870D01*
X55142121Y-102005200D01*
X55165888Y-102028967D01*
X55193838Y-102047643D01*
X55219826Y-102068970D01*
X55249475Y-102084817D01*
X55277426Y-102103494D01*
X55308483Y-102116358D01*
X55338132Y-102132206D01*
X55370304Y-102141965D01*
X55401360Y-102154829D01*
X55434332Y-102161388D01*
X55466501Y-102171146D01*
X55499953Y-102174441D01*
X55532927Y-102181000D01*
X58766547Y-102181000D01*
X58800000Y-102184295D01*
X58833453Y-102181000D01*
X58933499Y-102171146D01*
X59061868Y-102132206D01*
X59180174Y-102068970D01*
X59283870Y-101983870D01*
X59305204Y-101957874D01*
X59557878Y-101705200D01*
X59583869Y-101683870D01*
X59668970Y-101580174D01*
X59732206Y-101461868D01*
X59771146Y-101333499D01*
X59781000Y-101233453D01*
X59781000Y-101233452D01*
X59784295Y-101200001D01*
X59781000Y-101166548D01*
X59781000Y-95481000D01*
X61267073Y-95481000D01*
X61300047Y-95474441D01*
X61333499Y-95471146D01*
X61365668Y-95461388D01*
X61398640Y-95454829D01*
X61429696Y-95441965D01*
X61461868Y-95432206D01*
X61491517Y-95416358D01*
X61522574Y-95403494D01*
X61550525Y-95384817D01*
X61580174Y-95368970D01*
X61606162Y-95347643D01*
X61634112Y-95328967D01*
X61657879Y-95305200D01*
X61683870Y-95283870D01*
X61705200Y-95257879D01*
X61728967Y-95234112D01*
X61747643Y-95206162D01*
X61750000Y-95203289D01*
X61752357Y-95206162D01*
X61771033Y-95234112D01*
X61794800Y-95257879D01*
X61816130Y-95283870D01*
X61842121Y-95305200D01*
X61865888Y-95328967D01*
X61893838Y-95347643D01*
X61919826Y-95368970D01*
X61949475Y-95384817D01*
X61977426Y-95403494D01*
X62008483Y-95416358D01*
X62038132Y-95432206D01*
X62070304Y-95441965D01*
X62101360Y-95454829D01*
X62134332Y-95461388D01*
X62166501Y-95471146D01*
X62199953Y-95474441D01*
X62232927Y-95481000D01*
X65967073Y-95481000D01*
X66000047Y-95474441D01*
X66033499Y-95471146D01*
X66065668Y-95461388D01*
X66098640Y-95454829D01*
X66129696Y-95441965D01*
X66161868Y-95432206D01*
X66191517Y-95416358D01*
X66222574Y-95403494D01*
X66250525Y-95384817D01*
X66280174Y-95368970D01*
X66306162Y-95347643D01*
X66334112Y-95328967D01*
X66357879Y-95305200D01*
X66383870Y-95283870D01*
X66405200Y-95257879D01*
X66419001Y-95244078D01*
X66419001Y-98942268D01*
X66419000Y-98942278D01*
X66419000Y-99467067D01*
X66425559Y-99500041D01*
X66428854Y-99533493D01*
X66438612Y-99565662D01*
X66445171Y-99598634D01*
X66458035Y-99629690D01*
X66467794Y-99661862D01*
X66483642Y-99691511D01*
X66496506Y-99722568D01*
X66515183Y-99750519D01*
X66531030Y-99780168D01*
X66552356Y-99806154D01*
X66571033Y-99834106D01*
X66594804Y-99857877D01*
X66616131Y-99883864D01*
X66642116Y-99905189D01*
X66665888Y-99928961D01*
X66693844Y-99947640D01*
X66719827Y-99968964D01*
X66749471Y-99984809D01*
X66777426Y-100003488D01*
X66808487Y-100016354D01*
X66838133Y-100032200D01*
X66870301Y-100041958D01*
X66901360Y-100054823D01*
X66934335Y-100061382D01*
X66966502Y-100071140D01*
X66999952Y-100074435D01*
X67032927Y-100080994D01*
X67066547Y-100080994D01*
X67100000Y-100084289D01*
X67133453Y-100080994D01*
X67167073Y-100080994D01*
X67200047Y-100074435D01*
X67233499Y-100071140D01*
X67265668Y-100061382D01*
X67298640Y-100054823D01*
X67329696Y-100041959D01*
X67361868Y-100032200D01*
X67391517Y-100016352D01*
X67422574Y-100003488D01*
X67450525Y-99984811D01*
X67480174Y-99968964D01*
X67506162Y-99947637D01*
X67534112Y-99928961D01*
X67557879Y-99905194D01*
X67583870Y-99883864D01*
X67605200Y-99857873D01*
X67628967Y-99834106D01*
X67647643Y-99806156D01*
X67668970Y-99780168D01*
X67684817Y-99750519D01*
X67703494Y-99722568D01*
X67716358Y-99691511D01*
X67732206Y-99661862D01*
X67741965Y-99629690D01*
X67754829Y-99598634D01*
X67761388Y-99565662D01*
X67771146Y-99533493D01*
X67774441Y-99500042D01*
X67781000Y-99467067D01*
X67781000Y-98100000D01*
X69915705Y-98100000D01*
X69919001Y-98133463D01*
X69919000Y-100932927D01*
X69919000Y-101067073D01*
X69925559Y-101100048D01*
X69928854Y-101133498D01*
X69938612Y-101165665D01*
X69945171Y-101198640D01*
X69958036Y-101229699D01*
X69967794Y-101261867D01*
X69983640Y-101291513D01*
X69996506Y-101322574D01*
X70015185Y-101350529D01*
X70031030Y-101380173D01*
X70052354Y-101406156D01*
X70071033Y-101434112D01*
X70094805Y-101457884D01*
X70116130Y-101483869D01*
X70142117Y-101505196D01*
X70165888Y-101528967D01*
X70193840Y-101547644D01*
X70219826Y-101568970D01*
X70249475Y-101584817D01*
X70277426Y-101603494D01*
X70308483Y-101616358D01*
X70338132Y-101632206D01*
X70370304Y-101641965D01*
X70401360Y-101654829D01*
X70434332Y-101661388D01*
X70466501Y-101671146D01*
X70499953Y-101674441D01*
X70532927Y-101681000D01*
X70566547Y-101681000D01*
X70600000Y-101684295D01*
X70633453Y-101681000D01*
X70667073Y-101681000D01*
X70700048Y-101674441D01*
X70733498Y-101671146D01*
X70765665Y-101661388D01*
X70798640Y-101654829D01*
X70829699Y-101641964D01*
X70861867Y-101632206D01*
X70891513Y-101616360D01*
X70922574Y-101603494D01*
X70950529Y-101584815D01*
X70980173Y-101568970D01*
X71006156Y-101547646D01*
X71034112Y-101528967D01*
X71057884Y-101505195D01*
X71083869Y-101483870D01*
X71105196Y-101457883D01*
X71128967Y-101434112D01*
X71147644Y-101406160D01*
X71168970Y-101380174D01*
X71184817Y-101350525D01*
X71203494Y-101322574D01*
X71216358Y-101291517D01*
X71232206Y-101261868D01*
X71241965Y-101229696D01*
X71254829Y-101198640D01*
X71261388Y-101165668D01*
X71271146Y-101133499D01*
X71274441Y-101100047D01*
X71281000Y-101067073D01*
X71281000Y-98382078D01*
X71382079Y-98281000D01*
X81435866Y-98281000D01*
X81438122Y-98282206D01*
X81470293Y-98291965D01*
X81501350Y-98304829D01*
X81534324Y-98311388D01*
X81566492Y-98321146D01*
X81599942Y-98324441D01*
X81632917Y-98331000D01*
X81666537Y-98331000D01*
X81699990Y-98334295D01*
X81733443Y-98331000D01*
X81767063Y-98331000D01*
X81800037Y-98324441D01*
X81833489Y-98321146D01*
X81865658Y-98311388D01*
X81898630Y-98304829D01*
X81929686Y-98291965D01*
X81961858Y-98282206D01*
X81991507Y-98266358D01*
X82022564Y-98253494D01*
X82050515Y-98234817D01*
X82080164Y-98218970D01*
X82106149Y-98197645D01*
X82134102Y-98178967D01*
X82157877Y-98155192D01*
X82183859Y-98133869D01*
X82205182Y-98107887D01*
X82228957Y-98084112D01*
X82247635Y-98056159D01*
X82268960Y-98030174D01*
X82284807Y-98000525D01*
X82303484Y-97972574D01*
X82316348Y-97941517D01*
X82332196Y-97911868D01*
X82341955Y-97879696D01*
X82354819Y-97848640D01*
X82361378Y-97815668D01*
X82371136Y-97783499D01*
X82374431Y-97750047D01*
X82380990Y-97717073D01*
X82380990Y-97683453D01*
X82384285Y-97650000D01*
X82380990Y-97616547D01*
X82380990Y-97582927D01*
X82374431Y-97549952D01*
X82371136Y-97516502D01*
X82361378Y-97484334D01*
X82354819Y-97451360D01*
X82341955Y-97420303D01*
X82332196Y-97388132D01*
X82316348Y-97358484D01*
X82303484Y-97327426D01*
X82284805Y-97299472D01*
X82268960Y-97269827D01*
X82247638Y-97243846D01*
X82228957Y-97215888D01*
X82155190Y-97142121D01*
X82133860Y-97116130D01*
X82030164Y-97031030D01*
X81911858Y-96967794D01*
X81783489Y-96928854D01*
X81683443Y-96919000D01*
X81649990Y-96915705D01*
X81616537Y-96919000D01*
X71133453Y-96919000D01*
X71100000Y-96915705D01*
X71066547Y-96919000D01*
X70966501Y-96928854D01*
X70838132Y-96967794D01*
X70719826Y-97031030D01*
X70616130Y-97116130D01*
X70594800Y-97142121D01*
X70142121Y-97594800D01*
X70116131Y-97616130D01*
X70031031Y-97719826D01*
X70023723Y-97733499D01*
X69967795Y-97838132D01*
X69928854Y-97966502D01*
X69915705Y-98100000D01*
X67781000Y-98100000D01*
X67781000Y-93800000D01*
X94715705Y-93800000D01*
X94719000Y-93833453D01*
X94719000Y-93867073D01*
X94725559Y-93900047D01*
X94728854Y-93933499D01*
X94738612Y-93965668D01*
X94745171Y-93998640D01*
X94758035Y-94029696D01*
X94767794Y-94061868D01*
X94783642Y-94091517D01*
X94796506Y-94122574D01*
X94815183Y-94150525D01*
X94831030Y-94180174D01*
X94852357Y-94206162D01*
X94871033Y-94234112D01*
X94894800Y-94257879D01*
X94916130Y-94283870D01*
X94942121Y-94305200D01*
X94965888Y-94328967D01*
X94993838Y-94347643D01*
X95019826Y-94368970D01*
X95049475Y-94384817D01*
X95077426Y-94403494D01*
X95108483Y-94416358D01*
X95138132Y-94432206D01*
X95170304Y-94441965D01*
X95201360Y-94454829D01*
X95234332Y-94461388D01*
X95266501Y-94471146D01*
X95299953Y-94474441D01*
X95332927Y-94481000D01*
X104867073Y-94481000D01*
X104900047Y-94474441D01*
X104933499Y-94471146D01*
X104965668Y-94461388D01*
X104998640Y-94454829D01*
X105029696Y-94441965D01*
X105061868Y-94432206D01*
X105091517Y-94416358D01*
X105122574Y-94403494D01*
X105150525Y-94384817D01*
X105180174Y-94368970D01*
X105206162Y-94347643D01*
X105234112Y-94328967D01*
X105257879Y-94305200D01*
X105283870Y-94283870D01*
X105305200Y-94257879D01*
X105328967Y-94234112D01*
X105347643Y-94206162D01*
X105368970Y-94180174D01*
X105384817Y-94150525D01*
X105403494Y-94122574D01*
X105416358Y-94091517D01*
X105432206Y-94061868D01*
X105441965Y-94029696D01*
X105454829Y-93998640D01*
X105461388Y-93965668D01*
X105471146Y-93933499D01*
X105474441Y-93900047D01*
X105481000Y-93867073D01*
X105481000Y-93833453D01*
X105484295Y-93800000D01*
X105481000Y-93766547D01*
X105481000Y-93732927D01*
X105474441Y-93699953D01*
X105471146Y-93666501D01*
X105461388Y-93634332D01*
X105454829Y-93601360D01*
X105441965Y-93570304D01*
X105432206Y-93538132D01*
X105416358Y-93508483D01*
X105403494Y-93477426D01*
X105384817Y-93449475D01*
X105368970Y-93419826D01*
X105347643Y-93393838D01*
X105328967Y-93365888D01*
X105305200Y-93342121D01*
X105283870Y-93316130D01*
X105257879Y-93294800D01*
X105234112Y-93271033D01*
X105206162Y-93252357D01*
X105180174Y-93231030D01*
X105150525Y-93215183D01*
X105122574Y-93196506D01*
X105091517Y-93183642D01*
X105061868Y-93167794D01*
X105029696Y-93158035D01*
X104998640Y-93145171D01*
X104965668Y-93138612D01*
X104933499Y-93128854D01*
X104900047Y-93125559D01*
X104867073Y-93119000D01*
X95332927Y-93119000D01*
X95299953Y-93125559D01*
X95266501Y-93128854D01*
X95234332Y-93138612D01*
X95201360Y-93145171D01*
X95170304Y-93158035D01*
X95138132Y-93167794D01*
X95108483Y-93183642D01*
X95077426Y-93196506D01*
X95049475Y-93215183D01*
X95019826Y-93231030D01*
X94993838Y-93252357D01*
X94965888Y-93271033D01*
X94942121Y-93294800D01*
X94916130Y-93316130D01*
X94894800Y-93342121D01*
X94871033Y-93365888D01*
X94852357Y-93393838D01*
X94831030Y-93419826D01*
X94815183Y-93449475D01*
X94796506Y-93477426D01*
X94783642Y-93508483D01*
X94767794Y-93538132D01*
X94758035Y-93570304D01*
X94745171Y-93601360D01*
X94738612Y-93634332D01*
X94728854Y-93666501D01*
X94725559Y-93699953D01*
X94719000Y-93732927D01*
X94719000Y-93766547D01*
X94715705Y-93800000D01*
X67781000Y-93800000D01*
X67781000Y-89733453D01*
X67784295Y-89700000D01*
X67771146Y-89566501D01*
X67732206Y-89438131D01*
X67699758Y-89377426D01*
X67668970Y-89319826D01*
X67583869Y-89216130D01*
X67557878Y-89194800D01*
X67305205Y-88942127D01*
X67283871Y-88916131D01*
X67180175Y-88831031D01*
X67061869Y-88767795D01*
X66933500Y-88728855D01*
X66833454Y-88719001D01*
X66800001Y-88715706D01*
X66766548Y-88719001D01*
X61233452Y-88719001D01*
X61199999Y-88715706D01*
X61066500Y-88728855D01*
X60938130Y-88767795D01*
X60878978Y-88799413D01*
X60819825Y-88831031D01*
X60716129Y-88916131D01*
X60694795Y-88942127D01*
X60465891Y-89171031D01*
X60465888Y-89171033D01*
X60371033Y-89265888D01*
X60352349Y-89293850D01*
X60331031Y-89319827D01*
X60315190Y-89349464D01*
X60296506Y-89377426D01*
X60283638Y-89408492D01*
X60267795Y-89438132D01*
X60258038Y-89470296D01*
X60245171Y-89501360D01*
X60238611Y-89534337D01*
X60228854Y-89566502D01*
X60225559Y-89599952D01*
X60219000Y-89632927D01*
X60219000Y-89666547D01*
X60215705Y-89700000D01*
X60219000Y-89733453D01*
X60219000Y-89767073D01*
X60225559Y-89800048D01*
X60228854Y-89833498D01*
X60238611Y-89865663D01*
X60245171Y-89898640D01*
X60258038Y-89929704D01*
X60267795Y-89961868D01*
X60283638Y-89991508D01*
X60296506Y-90022574D01*
X60315190Y-90050536D01*
X60331031Y-90080173D01*
X60352349Y-90106150D01*
X60371033Y-90134112D01*
X60394810Y-90157889D01*
X60416131Y-90183869D01*
X60442111Y-90205190D01*
X60465888Y-90228967D01*
X60493850Y-90247651D01*
X60519827Y-90268969D01*
X60549464Y-90284810D01*
X60577426Y-90303494D01*
X60608492Y-90316362D01*
X60638132Y-90332205D01*
X60670296Y-90341962D01*
X60701360Y-90354829D01*
X60734337Y-90361389D01*
X60766502Y-90371146D01*
X60799952Y-90374441D01*
X60832927Y-90381000D01*
X60866547Y-90381000D01*
X60900000Y-90384295D01*
X60933453Y-90381000D01*
X60967073Y-90381000D01*
X61000048Y-90374441D01*
X61033498Y-90371146D01*
X61065663Y-90361389D01*
X61098640Y-90354829D01*
X61129704Y-90341962D01*
X61161868Y-90332205D01*
X61191508Y-90316362D01*
X61222574Y-90303494D01*
X61250536Y-90284810D01*
X61280173Y-90268969D01*
X61306150Y-90247651D01*
X61334112Y-90228967D01*
X61428967Y-90134112D01*
X61428969Y-90134109D01*
X61482077Y-90081001D01*
X66419000Y-90081001D01*
X66419001Y-94355922D01*
X66405200Y-94342121D01*
X66383870Y-94316130D01*
X66357879Y-94294800D01*
X66334112Y-94271033D01*
X66306162Y-94252357D01*
X66280174Y-94231030D01*
X66250525Y-94215183D01*
X66222574Y-94196506D01*
X66191517Y-94183642D01*
X66161868Y-94167794D01*
X66129696Y-94158035D01*
X66098640Y-94145171D01*
X66065668Y-94138612D01*
X66033499Y-94128854D01*
X66000047Y-94125559D01*
X65967073Y-94119000D01*
X62232927Y-94119000D01*
X62199953Y-94125559D01*
X62166501Y-94128854D01*
X62134332Y-94138612D01*
X62101360Y-94145171D01*
X62070304Y-94158035D01*
X62038132Y-94167794D01*
X62008483Y-94183642D01*
X61977426Y-94196506D01*
X61949475Y-94215183D01*
X61919826Y-94231030D01*
X61893838Y-94252357D01*
X61865888Y-94271033D01*
X61842121Y-94294800D01*
X61816130Y-94316130D01*
X61794800Y-94342121D01*
X61771033Y-94365888D01*
X61752357Y-94393838D01*
X61750000Y-94396711D01*
X61747643Y-94393838D01*
X61728967Y-94365888D01*
X61705200Y-94342121D01*
X61683870Y-94316130D01*
X61657879Y-94294800D01*
X61634112Y-94271033D01*
X61606162Y-94252357D01*
X61580174Y-94231030D01*
X61550525Y-94215183D01*
X61522574Y-94196506D01*
X61491517Y-94183642D01*
X61461868Y-94167794D01*
X61429696Y-94158035D01*
X61398640Y-94145171D01*
X61365668Y-94138612D01*
X61333499Y-94128854D01*
X61300047Y-94125559D01*
X61267073Y-94119000D01*
X59433452Y-94119000D01*
X59399999Y-94115705D01*
X59266501Y-94128854D01*
X59138132Y-94167794D01*
X59019826Y-94231030D01*
X58916130Y-94316130D01*
X58894796Y-94342126D01*
X58880998Y-94355924D01*
X58880998Y-78933451D01*
X58884293Y-78899998D01*
X58871144Y-78766499D01*
X58832204Y-78638129D01*
X58768968Y-78519824D01*
X58752699Y-78500000D01*
X58683867Y-78416128D01*
X58657876Y-78394798D01*
X58305204Y-78042126D01*
X58283870Y-78016130D01*
X58180174Y-77931030D01*
X58061868Y-77867794D01*
X57933499Y-77828854D01*
X57833453Y-77819000D01*
X57800000Y-77815705D01*
X57766547Y-77819000D01*
X56832165Y-77819000D01*
X56831640Y-77818360D01*
X56740477Y-77743544D01*
X56636470Y-77687951D01*
X56523615Y-77653716D01*
X56406250Y-77642157D01*
X55968750Y-77642157D01*
X55851385Y-77653716D01*
X55738530Y-77687951D01*
X55634523Y-77743544D01*
X55543360Y-77818360D01*
X55468544Y-77909523D01*
X55412951Y-78013530D01*
X55400000Y-78056223D01*
X55387049Y-78013530D01*
X55331456Y-77909523D01*
X55256640Y-77818360D01*
X55165477Y-77743544D01*
X55061470Y-77687951D01*
X54948615Y-77653716D01*
X54831250Y-77642157D01*
X54393750Y-77642157D01*
X54276385Y-77653716D01*
X54163530Y-77687951D01*
X54105442Y-77719000D01*
X52612410Y-77719000D01*
X52573161Y-77679751D01*
X52400204Y-77564185D01*
X52384893Y-77557843D01*
X52575000Y-77557843D01*
X52649689Y-77550487D01*
X52721508Y-77528701D01*
X52787696Y-77493322D01*
X52845711Y-77445711D01*
X52893322Y-77387696D01*
X52928701Y-77321508D01*
X52950487Y-77249689D01*
X52957843Y-77175000D01*
X52957843Y-75825000D01*
X52950487Y-75750311D01*
X52928701Y-75678492D01*
X52893322Y-75612304D01*
X52845711Y-75554289D01*
X52787696Y-75506678D01*
X52721508Y-75471299D01*
X52649689Y-75449513D01*
X52575000Y-75442157D01*
X51225000Y-75442157D01*
X51150311Y-75449513D01*
X51078492Y-75471299D01*
X51012304Y-75506678D01*
X50954289Y-75554289D01*
X50906678Y-75612304D01*
X50871299Y-75678492D01*
X50849513Y-75750311D01*
X50842157Y-75825000D01*
X50406000Y-75825000D01*
X50406000Y-73200000D01*
X136915705Y-73200000D01*
X136919000Y-73233453D01*
X136919000Y-73267073D01*
X136925559Y-73300047D01*
X136928854Y-73333499D01*
X136938612Y-73365668D01*
X136945171Y-73398640D01*
X136958035Y-73429696D01*
X136967794Y-73461868D01*
X136983642Y-73491517D01*
X136996506Y-73522574D01*
X137015183Y-73550525D01*
X137031030Y-73580174D01*
X137052357Y-73606162D01*
X137071033Y-73634112D01*
X137094800Y-73657879D01*
X137116130Y-73683870D01*
X137142121Y-73705200D01*
X137165888Y-73728967D01*
X137193838Y-73747643D01*
X137219826Y-73768970D01*
X137249475Y-73784817D01*
X137277426Y-73803494D01*
X137308483Y-73816358D01*
X137338132Y-73832206D01*
X137370304Y-73841965D01*
X137401360Y-73854829D01*
X137434332Y-73861388D01*
X137466501Y-73871146D01*
X137499953Y-73874441D01*
X137532927Y-73881000D01*
X141567073Y-73881000D01*
X141600047Y-73874441D01*
X141633499Y-73871146D01*
X141665668Y-73861388D01*
X141698640Y-73854829D01*
X141729696Y-73841965D01*
X141761868Y-73832206D01*
X141791517Y-73816358D01*
X141822574Y-73803494D01*
X141850525Y-73784817D01*
X141880174Y-73768970D01*
X141906162Y-73747643D01*
X141934112Y-73728967D01*
X141957879Y-73705200D01*
X141983870Y-73683870D01*
X142005200Y-73657879D01*
X142028967Y-73634112D01*
X142047643Y-73606162D01*
X142068970Y-73580174D01*
X142084817Y-73550525D01*
X142103494Y-73522574D01*
X142116358Y-73491517D01*
X142132206Y-73461868D01*
X142141965Y-73429696D01*
X142154829Y-73398640D01*
X142161388Y-73365668D01*
X142171146Y-73333499D01*
X142174441Y-73300047D01*
X142181000Y-73267073D01*
X142181000Y-73233453D01*
X142184295Y-73200000D01*
X142181000Y-73166547D01*
X142181000Y-73132927D01*
X142174441Y-73099953D01*
X142171146Y-73066501D01*
X142161388Y-73034332D01*
X142154829Y-73001360D01*
X142141965Y-72970304D01*
X142132206Y-72938132D01*
X142116358Y-72908483D01*
X142103494Y-72877426D01*
X142084817Y-72849475D01*
X142068970Y-72819826D01*
X142047643Y-72793838D01*
X142028967Y-72765888D01*
X142005200Y-72742121D01*
X141983870Y-72716130D01*
X141957879Y-72694800D01*
X141934112Y-72671033D01*
X141906162Y-72652357D01*
X141880174Y-72631030D01*
X141850525Y-72615183D01*
X141822574Y-72596506D01*
X141791517Y-72583642D01*
X141761868Y-72567794D01*
X141729696Y-72558035D01*
X141698640Y-72545171D01*
X141665668Y-72538612D01*
X141633499Y-72528854D01*
X141600047Y-72525559D01*
X141567073Y-72519000D01*
X137532927Y-72519000D01*
X137499953Y-72525559D01*
X137466501Y-72528854D01*
X137434332Y-72538612D01*
X137401360Y-72545171D01*
X137370304Y-72558035D01*
X137338132Y-72567794D01*
X137308483Y-72583642D01*
X137277426Y-72596506D01*
X137249475Y-72615183D01*
X137219826Y-72631030D01*
X137193838Y-72652357D01*
X137165888Y-72671033D01*
X137142121Y-72694800D01*
X137116130Y-72716130D01*
X137094800Y-72742121D01*
X137071033Y-72765888D01*
X137052357Y-72793838D01*
X137031030Y-72819826D01*
X137015183Y-72849475D01*
X136996506Y-72877426D01*
X136983642Y-72908483D01*
X136967794Y-72938132D01*
X136958035Y-72970304D01*
X136945171Y-73001360D01*
X136938612Y-73034332D01*
X136928854Y-73066501D01*
X136925559Y-73099953D01*
X136919000Y-73132927D01*
X136919000Y-73166547D01*
X136915705Y-73200000D01*
X50406000Y-73200000D01*
X50406000Y-52019854D01*
X50447789Y-51593655D01*
X50565802Y-51202778D01*
X50757484Y-50842277D01*
X51015539Y-50525869D01*
X51330138Y-50265610D01*
X51689295Y-50071414D01*
X52079333Y-49950677D01*
X52504406Y-49906000D01*
X96973000Y-49906000D01*
X96973000Y-54500000D01*
G37*
X96973000Y-54500000D02*
X96975440Y-54524776D01*
X96982667Y-54548601D01*
X96994403Y-54570557D01*
X97010197Y-54589803D01*
X97410197Y-54989803D01*
X97429443Y-55005597D01*
X97451399Y-55017333D01*
X97475224Y-55024560D01*
X97500000Y-55027000D01*
X102500000Y-55027000D01*
X102524776Y-55024560D01*
X102548601Y-55017333D01*
X102570557Y-55005597D01*
X102589803Y-54989803D01*
X102989803Y-54589803D01*
X103005597Y-54570557D01*
X103017333Y-54548601D01*
X103024560Y-54524776D01*
X103027000Y-54500000D01*
X103027000Y-49906000D01*
X147480146Y-49906000D01*
X147906345Y-49947789D01*
X148297222Y-50065802D01*
X148657723Y-50257484D01*
X148974131Y-50515539D01*
X149234390Y-50830138D01*
X149428586Y-51189295D01*
X149549323Y-51579333D01*
X149594001Y-52004416D01*
X149594000Y-106980146D01*
X149552211Y-107406346D01*
X149434199Y-107797219D01*
X149242514Y-108157726D01*
X148984457Y-108474135D01*
X148669860Y-108734391D01*
X148310704Y-108928586D01*
X147920667Y-109049323D01*
X147495594Y-109094000D01*
X143402231Y-109094000D01*
X143570955Y-109003815D01*
X143781239Y-108831239D01*
X143953815Y-108620955D01*
X144082051Y-108381043D01*
X144161018Y-108120723D01*
X144187682Y-107850000D01*
X144161018Y-107579277D01*
X144082051Y-107318957D01*
X143953815Y-107079045D01*
X143781239Y-106868761D01*
X143570955Y-106696185D01*
X143331043Y-106567949D01*
X143070723Y-106488982D01*
X142867843Y-106469000D01*
X140881000Y-106469000D01*
X140881000Y-105331000D01*
X142842843Y-105331000D01*
X143045723Y-105311018D01*
X143306043Y-105232051D01*
X143545955Y-105103815D01*
X143756239Y-104931239D01*
X143928815Y-104720955D01*
X144057051Y-104481043D01*
X144136018Y-104220723D01*
X144162682Y-103950000D01*
X144136018Y-103679277D01*
X144057051Y-103418957D01*
X143928815Y-103179045D01*
X143756239Y-102968761D01*
X143545955Y-102796185D01*
X143306043Y-102667949D01*
X143045723Y-102588982D01*
X142842843Y-102569000D01*
X135332157Y-102569000D01*
X135129277Y-102588982D01*
X134868957Y-102667949D01*
X134629045Y-102796185D01*
X134418761Y-102968761D01*
X134246185Y-103179045D01*
X134117949Y-103418957D01*
X134038982Y-103679277D01*
X134012318Y-103950000D01*
X134038982Y-104220723D01*
X134117949Y-104481043D01*
X134246185Y-104720955D01*
X134418761Y-104931239D01*
X134629045Y-105103815D01*
X134868957Y-105232051D01*
X135129277Y-105311018D01*
X135332157Y-105331000D01*
X137119000Y-105331000D01*
X137119001Y-106469000D01*
X135332157Y-106469000D01*
X135129277Y-106488982D01*
X134868957Y-106567949D01*
X134629045Y-106696185D01*
X134418761Y-106868761D01*
X134246185Y-107079045D01*
X134117949Y-107318957D01*
X134038982Y-107579277D01*
X134012318Y-107850000D01*
X134038982Y-108120723D01*
X134117949Y-108381043D01*
X134246185Y-108620955D01*
X134418761Y-108831239D01*
X134629045Y-109003815D01*
X134797769Y-109094000D01*
X103027000Y-109094000D01*
X103027000Y-106837852D01*
X123519000Y-106837852D01*
X123519000Y-106962148D01*
X123543249Y-107084056D01*
X123590815Y-107198891D01*
X123659870Y-107302239D01*
X123747761Y-107390130D01*
X123851109Y-107459185D01*
X123965944Y-107506751D01*
X124087852Y-107531000D01*
X124212148Y-107531000D01*
X124334056Y-107506751D01*
X124448891Y-107459185D01*
X124552239Y-107390130D01*
X124640130Y-107302239D01*
X124709185Y-107198891D01*
X124756751Y-107084056D01*
X124781000Y-106962148D01*
X124781000Y-106837852D01*
X125219000Y-106837852D01*
X125219000Y-106962148D01*
X125243249Y-107084056D01*
X125290815Y-107198891D01*
X125359870Y-107302239D01*
X125447761Y-107390130D01*
X125551109Y-107459185D01*
X125665944Y-107506751D01*
X125787852Y-107531000D01*
X125912148Y-107531000D01*
X126034056Y-107506751D01*
X126148891Y-107459185D01*
X126252239Y-107390130D01*
X126340130Y-107302239D01*
X126409185Y-107198891D01*
X126456751Y-107084056D01*
X126481000Y-106962148D01*
X126481000Y-106837852D01*
X126456751Y-106715944D01*
X126409185Y-106601109D01*
X126340130Y-106497761D01*
X126252239Y-106409870D01*
X126148891Y-106340815D01*
X126034056Y-106293249D01*
X125912148Y-106269000D01*
X125787852Y-106269000D01*
X125665944Y-106293249D01*
X125551109Y-106340815D01*
X125447761Y-106409870D01*
X125359870Y-106497761D01*
X125290815Y-106601109D01*
X125243249Y-106715944D01*
X125219000Y-106837852D01*
X124781000Y-106837852D01*
X124756751Y-106715944D01*
X124709185Y-106601109D01*
X124640130Y-106497761D01*
X124552239Y-106409870D01*
X124448891Y-106340815D01*
X124334056Y-106293249D01*
X124212148Y-106269000D01*
X124087852Y-106269000D01*
X123965944Y-106293249D01*
X123851109Y-106340815D01*
X123747761Y-106409870D01*
X123659870Y-106497761D01*
X123590815Y-106601109D01*
X123543249Y-106715944D01*
X123519000Y-106837852D01*
X103027000Y-106837852D01*
X103027000Y-104700000D01*
X103024560Y-104675224D01*
X103017333Y-104651399D01*
X103005597Y-104629443D01*
X102989803Y-104610197D01*
X102389803Y-104010197D01*
X102370557Y-103994403D01*
X102348601Y-103982667D01*
X102324776Y-103975440D01*
X102300000Y-103973000D01*
X97700000Y-103973000D01*
X97675224Y-103975440D01*
X97651399Y-103982667D01*
X97629443Y-103994403D01*
X97610197Y-104010197D01*
X97010197Y-104610197D01*
X96994403Y-104629443D01*
X96982667Y-104651399D01*
X96975440Y-104675224D01*
X96973000Y-104700000D01*
X96973000Y-109094000D01*
X52519854Y-109094000D01*
X52093654Y-109052211D01*
X51702781Y-108934199D01*
X51342274Y-108742514D01*
X51025865Y-108484457D01*
X50765609Y-108169860D01*
X50571414Y-107810704D01*
X50450677Y-107420667D01*
X50406000Y-106995594D01*
X50406000Y-103900000D01*
X54714738Y-103900000D01*
X54731748Y-104072706D01*
X54782125Y-104238775D01*
X54863932Y-104391825D01*
X54974025Y-104525975D01*
X55108175Y-104636068D01*
X55261225Y-104717875D01*
X55427294Y-104768252D01*
X55556727Y-104781000D01*
X60331574Y-104781000D01*
X60378559Y-104795253D01*
X60507992Y-104808001D01*
X60507994Y-104808001D01*
X60551264Y-104812263D01*
X60594534Y-104808001D01*
X66870341Y-104808001D01*
X65759343Y-105919000D01*
X62356240Y-105919000D01*
X62322572Y-105896504D01*
X62198638Y-105845169D01*
X62067071Y-105818998D01*
X61932925Y-105818998D01*
X61801358Y-105845169D01*
X61677424Y-105896504D01*
X61565886Y-105971031D01*
X61471031Y-106065886D01*
X61396504Y-106177424D01*
X61345169Y-106301358D01*
X61318998Y-106432925D01*
X61318998Y-106567071D01*
X61345169Y-106698638D01*
X61396504Y-106822572D01*
X61471031Y-106934110D01*
X61486921Y-106950000D01*
X61471033Y-106965888D01*
X61396506Y-107077426D01*
X61345171Y-107201360D01*
X61319000Y-107332927D01*
X61319000Y-107467073D01*
X61345171Y-107598640D01*
X61396506Y-107722574D01*
X61471033Y-107834112D01*
X61565888Y-107928967D01*
X61677426Y-108003494D01*
X61801360Y-108054829D01*
X61932927Y-108081000D01*
X62067073Y-108081000D01*
X62198640Y-108054829D01*
X62322574Y-108003494D01*
X62356239Y-107981000D01*
X65871460Y-107981000D01*
X65900000Y-107983811D01*
X65928540Y-107981000D01*
X66013896Y-107972593D01*
X66123415Y-107939371D01*
X66224348Y-107885421D01*
X66312817Y-107812817D01*
X66331017Y-107790640D01*
X67283806Y-106837852D01*
X67519000Y-106837852D01*
X67519000Y-106962148D01*
X67543249Y-107084056D01*
X67590815Y-107198891D01*
X67659870Y-107302239D01*
X67747761Y-107390130D01*
X67851109Y-107459185D01*
X67965944Y-107506751D01*
X68087852Y-107531000D01*
X68212148Y-107531000D01*
X68334056Y-107506751D01*
X68448891Y-107459185D01*
X68552239Y-107390130D01*
X68640130Y-107302239D01*
X68709185Y-107198891D01*
X68756751Y-107084056D01*
X68781000Y-106962148D01*
X68781000Y-106837852D01*
X69219000Y-106837852D01*
X69219000Y-106962148D01*
X69243249Y-107084056D01*
X69290815Y-107198891D01*
X69359870Y-107302239D01*
X69447761Y-107390130D01*
X69551109Y-107459185D01*
X69665944Y-107506751D01*
X69787852Y-107531000D01*
X69912148Y-107531000D01*
X70034056Y-107506751D01*
X70148891Y-107459185D01*
X70252239Y-107390130D01*
X70340130Y-107302239D01*
X70409185Y-107198891D01*
X70456751Y-107084056D01*
X70481000Y-106962148D01*
X70481000Y-106837852D01*
X79519000Y-106837852D01*
X79519000Y-106962148D01*
X79543249Y-107084056D01*
X79590815Y-107198891D01*
X79659870Y-107302239D01*
X79747761Y-107390130D01*
X79851109Y-107459185D01*
X79965944Y-107506751D01*
X80087852Y-107531000D01*
X80212148Y-107531000D01*
X80334056Y-107506751D01*
X80448891Y-107459185D01*
X80552239Y-107390130D01*
X80640130Y-107302239D01*
X80709185Y-107198891D01*
X80756751Y-107084056D01*
X80781000Y-106962148D01*
X80781000Y-106837852D01*
X80756751Y-106715944D01*
X80709185Y-106601109D01*
X80640130Y-106497761D01*
X80552239Y-106409870D01*
X80448891Y-106340815D01*
X80334056Y-106293249D01*
X80212148Y-106269000D01*
X80087852Y-106269000D01*
X79965944Y-106293249D01*
X79851109Y-106340815D01*
X79747761Y-106409870D01*
X79659870Y-106497761D01*
X79590815Y-106601109D01*
X79543249Y-106715944D01*
X79519000Y-106837852D01*
X70481000Y-106837852D01*
X70456751Y-106715944D01*
X70409185Y-106601109D01*
X70340130Y-106497761D01*
X70252239Y-106409870D01*
X70148891Y-106340815D01*
X70034056Y-106293249D01*
X69912148Y-106269000D01*
X69787852Y-106269000D01*
X69665944Y-106293249D01*
X69551109Y-106340815D01*
X69447761Y-106409870D01*
X69359870Y-106497761D01*
X69290815Y-106601109D01*
X69243249Y-106715944D01*
X69219000Y-106837852D01*
X68781000Y-106837852D01*
X68756751Y-106715944D01*
X68709185Y-106601109D01*
X68640130Y-106497761D01*
X68552239Y-106409870D01*
X68448891Y-106340815D01*
X68334056Y-106293249D01*
X68212148Y-106269000D01*
X68087852Y-106269000D01*
X67965944Y-106293249D01*
X67851109Y-106340815D01*
X67747761Y-106409870D01*
X67659870Y-106497761D01*
X67590815Y-106601109D01*
X67543249Y-106715944D01*
X67519000Y-106837852D01*
X67283806Y-106837852D01*
X68040659Y-106081000D01*
X81072505Y-106081000D01*
X81424568Y-106433063D01*
X81359870Y-106497761D01*
X81290815Y-106601109D01*
X81243249Y-106715944D01*
X81219000Y-106837852D01*
X81219000Y-106962148D01*
X81243249Y-107084056D01*
X81290815Y-107198891D01*
X81359870Y-107302239D01*
X81447761Y-107390130D01*
X81551109Y-107459185D01*
X81665944Y-107506751D01*
X81787852Y-107531000D01*
X81912148Y-107531000D01*
X82034056Y-107506751D01*
X82148891Y-107459185D01*
X82252239Y-107390130D01*
X82316936Y-107325433D01*
X82782154Y-107790651D01*
X82800345Y-107812817D01*
X82822511Y-107831008D01*
X82822513Y-107831010D01*
X82888814Y-107885421D01*
X82989747Y-107939371D01*
X83099266Y-107972593D01*
X83213162Y-107983811D01*
X83241702Y-107981000D01*
X87543761Y-107981000D01*
X87577426Y-108003494D01*
X87701360Y-108054829D01*
X87832927Y-108081000D01*
X87967073Y-108081000D01*
X88098640Y-108054829D01*
X88222574Y-108003494D01*
X88334112Y-107928967D01*
X88428967Y-107834112D01*
X88503494Y-107722574D01*
X88554829Y-107598640D01*
X88581000Y-107467073D01*
X88581000Y-107332927D01*
X88554829Y-107201360D01*
X88503494Y-107077426D01*
X88428967Y-106965888D01*
X88413079Y-106950000D01*
X88428967Y-106934112D01*
X88503494Y-106822574D01*
X88554829Y-106698640D01*
X88581000Y-106567073D01*
X88581000Y-106432927D01*
X88554829Y-106301360D01*
X88503494Y-106177426D01*
X88428967Y-106065888D01*
X88334112Y-105971033D01*
X88222574Y-105896506D01*
X88098640Y-105845171D01*
X87967073Y-105819000D01*
X87832927Y-105819000D01*
X87701360Y-105845171D01*
X87577426Y-105896506D01*
X87543761Y-105919000D01*
X83299126Y-105919000D01*
X82188126Y-104808001D01*
X90029729Y-104808001D01*
X90072999Y-104812263D01*
X90116269Y-104808001D01*
X90116272Y-104808001D01*
X90245705Y-104795253D01*
X90411774Y-104744876D01*
X90564824Y-104663069D01*
X90698974Y-104552976D01*
X90726565Y-104519356D01*
X90753559Y-104492362D01*
X90836068Y-104391825D01*
X90917874Y-104238774D01*
X90968251Y-104072706D01*
X90985262Y-103900001D01*
X90968251Y-103727295D01*
X90917874Y-103561226D01*
X90836068Y-103408175D01*
X90725974Y-103274026D01*
X90591825Y-103163932D01*
X90438774Y-103082126D01*
X90272705Y-103031749D01*
X90099999Y-103014738D01*
X89927294Y-103031749D01*
X89880312Y-103046001D01*
X84081000Y-103046001D01*
X84081000Y-95132927D01*
X84074441Y-95099953D01*
X84071146Y-95066501D01*
X84061388Y-95034332D01*
X84054829Y-95001360D01*
X84041965Y-94970304D01*
X84032206Y-94938132D01*
X84016358Y-94908483D01*
X84003494Y-94877426D01*
X83984817Y-94849475D01*
X83968970Y-94819826D01*
X83947643Y-94793838D01*
X83928967Y-94765888D01*
X83905200Y-94742121D01*
X83883870Y-94716130D01*
X83857879Y-94694800D01*
X83834112Y-94671033D01*
X83806162Y-94652357D01*
X83780174Y-94631030D01*
X83750525Y-94615183D01*
X83722574Y-94596506D01*
X83691517Y-94583642D01*
X83661868Y-94567794D01*
X83629696Y-94558035D01*
X83598640Y-94545171D01*
X83565668Y-94538612D01*
X83533499Y-94528854D01*
X83500047Y-94525559D01*
X83467073Y-94519000D01*
X83433453Y-94519000D01*
X83400000Y-94515705D01*
X83366547Y-94519000D01*
X83332927Y-94519000D01*
X83299952Y-94525559D01*
X83266502Y-94528854D01*
X83234335Y-94538612D01*
X83201360Y-94545171D01*
X83170301Y-94558036D01*
X83138133Y-94567794D01*
X83108487Y-94583640D01*
X83077426Y-94596506D01*
X83049471Y-94615185D01*
X83019827Y-94631030D01*
X82993844Y-94652354D01*
X82965888Y-94671033D01*
X82942116Y-94694805D01*
X82916131Y-94716130D01*
X82894806Y-94742115D01*
X82871033Y-94765888D01*
X82852353Y-94793845D01*
X82831031Y-94819826D01*
X82815188Y-94849467D01*
X82796506Y-94877426D01*
X82783639Y-94908491D01*
X82767795Y-94938132D01*
X82758039Y-94970295D01*
X82745171Y-95001360D01*
X82738610Y-95034342D01*
X82728855Y-95066501D01*
X82725561Y-95099943D01*
X82719000Y-95132927D01*
X82719000Y-95267073D01*
X82719001Y-95267078D01*
X82719000Y-103046001D01*
X60743955Y-103046001D01*
X60696970Y-103031748D01*
X60567537Y-103019000D01*
X60567534Y-103019000D01*
X60524264Y-103014738D01*
X60480994Y-103019000D01*
X55556727Y-103019000D01*
X55427294Y-103031748D01*
X55261225Y-103082125D01*
X55108175Y-103163932D01*
X54974025Y-103274025D01*
X54863932Y-103408175D01*
X54782125Y-103561225D01*
X54731748Y-103727294D01*
X54714738Y-103900000D01*
X50406000Y-103900000D01*
X50406000Y-75825000D01*
X50842157Y-75825000D01*
X50842157Y-77175000D01*
X50849513Y-77249689D01*
X50871299Y-77321508D01*
X50906678Y-77387696D01*
X50954289Y-77445711D01*
X51012304Y-77493322D01*
X51078492Y-77528701D01*
X51150311Y-77550487D01*
X51225000Y-77557843D01*
X51415107Y-77557843D01*
X51399796Y-77564185D01*
X51226839Y-77679751D01*
X51079751Y-77826839D01*
X50964185Y-77999796D01*
X50884581Y-78191976D01*
X50844000Y-78395993D01*
X50844000Y-78604007D01*
X50884581Y-78808024D01*
X50964185Y-79000204D01*
X51079751Y-79173161D01*
X51226839Y-79320249D01*
X51399796Y-79435815D01*
X51554751Y-79500000D01*
X51399796Y-79564185D01*
X51226839Y-79679751D01*
X51079751Y-79826839D01*
X50964185Y-79999796D01*
X50884581Y-80191976D01*
X50844000Y-80395993D01*
X50844000Y-80604007D01*
X50884581Y-80808024D01*
X50964185Y-81000204D01*
X51079751Y-81173161D01*
X51226839Y-81320249D01*
X51399796Y-81435815D01*
X51554751Y-81500000D01*
X51399796Y-81564185D01*
X51226839Y-81679751D01*
X51079751Y-81826839D01*
X50964185Y-81999796D01*
X50884581Y-82191976D01*
X50844000Y-82395993D01*
X50844000Y-82604007D01*
X50884581Y-82808024D01*
X50964185Y-83000204D01*
X51079751Y-83173161D01*
X51226839Y-83320249D01*
X51399796Y-83435815D01*
X51591976Y-83515419D01*
X51795993Y-83556000D01*
X52004007Y-83556000D01*
X52208024Y-83515419D01*
X52400204Y-83435815D01*
X52573161Y-83320249D01*
X52720249Y-83173161D01*
X52835815Y-83000204D01*
X52915419Y-82808024D01*
X52956000Y-82604007D01*
X52956000Y-82395993D01*
X52915419Y-82191976D01*
X52835815Y-81999796D01*
X52720249Y-81826839D01*
X52573161Y-81679751D01*
X52400204Y-81564185D01*
X52245249Y-81500000D01*
X52400204Y-81435815D01*
X52573161Y-81320249D01*
X52612410Y-81281000D01*
X54105442Y-81281000D01*
X54163530Y-81312049D01*
X54276385Y-81346284D01*
X54393750Y-81357843D01*
X54831250Y-81357843D01*
X54948615Y-81346284D01*
X55061470Y-81312049D01*
X55165477Y-81256456D01*
X55256640Y-81181640D01*
X55331456Y-81090477D01*
X55387049Y-80986470D01*
X55400000Y-80943777D01*
X55412951Y-80986470D01*
X55468544Y-81090477D01*
X55543360Y-81181640D01*
X55634523Y-81256456D01*
X55738530Y-81312049D01*
X55851385Y-81346284D01*
X55968750Y-81357843D01*
X56406250Y-81357843D01*
X56523615Y-81346284D01*
X56619000Y-81317349D01*
X56619001Y-98732922D01*
X56619000Y-98732927D01*
X56619000Y-98867073D01*
X56625561Y-98900057D01*
X56628855Y-98933499D01*
X56638610Y-98965658D01*
X56645171Y-98998640D01*
X56658039Y-99029705D01*
X56667795Y-99061868D01*
X56683639Y-99091509D01*
X56696506Y-99122574D01*
X56715188Y-99150533D01*
X56731031Y-99180174D01*
X56752353Y-99206155D01*
X56771033Y-99234112D01*
X56794806Y-99257885D01*
X56816131Y-99283870D01*
X56842116Y-99305195D01*
X56865888Y-99328967D01*
X56893844Y-99347646D01*
X56919827Y-99368970D01*
X56949471Y-99384815D01*
X56977426Y-99403494D01*
X57008487Y-99416360D01*
X57038133Y-99432206D01*
X57070301Y-99441964D01*
X57101360Y-99454829D01*
X57134335Y-99461388D01*
X57166502Y-99471146D01*
X57199952Y-99474441D01*
X57232927Y-99481000D01*
X57266547Y-99481000D01*
X57300000Y-99484295D01*
X57333453Y-99481000D01*
X57367073Y-99481000D01*
X57400047Y-99474441D01*
X57433499Y-99471146D01*
X57465668Y-99461388D01*
X57498640Y-99454829D01*
X57529696Y-99441965D01*
X57561868Y-99432206D01*
X57591517Y-99416358D01*
X57622574Y-99403494D01*
X57650525Y-99384817D01*
X57680174Y-99368970D01*
X57706162Y-99347643D01*
X57734112Y-99328967D01*
X57757879Y-99305200D01*
X57783870Y-99283870D01*
X57805200Y-99257879D01*
X57828967Y-99234112D01*
X57847643Y-99206162D01*
X57868970Y-99180174D01*
X57884817Y-99150525D01*
X57903494Y-99122574D01*
X57916358Y-99091517D01*
X57932206Y-99061868D01*
X57941965Y-99029696D01*
X57954829Y-98998640D01*
X57961388Y-98965668D01*
X57971146Y-98933499D01*
X57974441Y-98900047D01*
X57981000Y-98867073D01*
X57981000Y-98646396D01*
X58001358Y-98654829D01*
X58034333Y-98661388D01*
X58066500Y-98671146D01*
X58099950Y-98674441D01*
X58132925Y-98681000D01*
X58166545Y-98681000D01*
X58199998Y-98684295D01*
X58233451Y-98681000D01*
X58267071Y-98681000D01*
X58300045Y-98674441D01*
X58333497Y-98671146D01*
X58365666Y-98661388D01*
X58398638Y-98654829D01*
X58419000Y-98646395D01*
X58419000Y-100819000D01*
X55532927Y-100819000D01*
X55499953Y-100825559D01*
X55466501Y-100828854D01*
X55434332Y-100838612D01*
X55401360Y-100845171D01*
X55370304Y-100858035D01*
X55338132Y-100867794D01*
X55308483Y-100883642D01*
X55277426Y-100896506D01*
X55249475Y-100915183D01*
X55219826Y-100931030D01*
X55193838Y-100952357D01*
X55165888Y-100971033D01*
X55142121Y-100994800D01*
X55116130Y-101016130D01*
X55094800Y-101042121D01*
X55071033Y-101065888D01*
X55052357Y-101093838D01*
X55031030Y-101119826D01*
X55015183Y-101149475D01*
X54996506Y-101177426D01*
X54983642Y-101208483D01*
X54967794Y-101238132D01*
X54958035Y-101270304D01*
X54945171Y-101301360D01*
X54938612Y-101334332D01*
X54928854Y-101366501D01*
X54925559Y-101399953D01*
X54919000Y-101432927D01*
X54919000Y-101466547D01*
X54915705Y-101500000D01*
X54919000Y-101533453D01*
X54919000Y-101567073D01*
X54925559Y-101600047D01*
X54928854Y-101633499D01*
X54938612Y-101665668D01*
X54945171Y-101698640D01*
X54958035Y-101729696D01*
X54967794Y-101761868D01*
X54983642Y-101791517D01*
X54996506Y-101822574D01*
X55015183Y-101850525D01*
X55031030Y-101880174D01*
X55052357Y-101906162D01*
X55071033Y-101934112D01*
X55094800Y-101957879D01*
X55116130Y-101983870D01*
X55142121Y-102005200D01*
X55165888Y-102028967D01*
X55193838Y-102047643D01*
X55219826Y-102068970D01*
X55249475Y-102084817D01*
X55277426Y-102103494D01*
X55308483Y-102116358D01*
X55338132Y-102132206D01*
X55370304Y-102141965D01*
X55401360Y-102154829D01*
X55434332Y-102161388D01*
X55466501Y-102171146D01*
X55499953Y-102174441D01*
X55532927Y-102181000D01*
X58766547Y-102181000D01*
X58800000Y-102184295D01*
X58833453Y-102181000D01*
X58933499Y-102171146D01*
X59061868Y-102132206D01*
X59180174Y-102068970D01*
X59283870Y-101983870D01*
X59305204Y-101957874D01*
X59557878Y-101705200D01*
X59583869Y-101683870D01*
X59668970Y-101580174D01*
X59732206Y-101461868D01*
X59771146Y-101333499D01*
X59781000Y-101233453D01*
X59781000Y-101233452D01*
X59784295Y-101200001D01*
X59781000Y-101166548D01*
X59781000Y-95481000D01*
X61267073Y-95481000D01*
X61300047Y-95474441D01*
X61333499Y-95471146D01*
X61365668Y-95461388D01*
X61398640Y-95454829D01*
X61429696Y-95441965D01*
X61461868Y-95432206D01*
X61491517Y-95416358D01*
X61522574Y-95403494D01*
X61550525Y-95384817D01*
X61580174Y-95368970D01*
X61606162Y-95347643D01*
X61634112Y-95328967D01*
X61657879Y-95305200D01*
X61683870Y-95283870D01*
X61705200Y-95257879D01*
X61728967Y-95234112D01*
X61747643Y-95206162D01*
X61750000Y-95203289D01*
X61752357Y-95206162D01*
X61771033Y-95234112D01*
X61794800Y-95257879D01*
X61816130Y-95283870D01*
X61842121Y-95305200D01*
X61865888Y-95328967D01*
X61893838Y-95347643D01*
X61919826Y-95368970D01*
X61949475Y-95384817D01*
X61977426Y-95403494D01*
X62008483Y-95416358D01*
X62038132Y-95432206D01*
X62070304Y-95441965D01*
X62101360Y-95454829D01*
X62134332Y-95461388D01*
X62166501Y-95471146D01*
X62199953Y-95474441D01*
X62232927Y-95481000D01*
X65967073Y-95481000D01*
X66000047Y-95474441D01*
X66033499Y-95471146D01*
X66065668Y-95461388D01*
X66098640Y-95454829D01*
X66129696Y-95441965D01*
X66161868Y-95432206D01*
X66191517Y-95416358D01*
X66222574Y-95403494D01*
X66250525Y-95384817D01*
X66280174Y-95368970D01*
X66306162Y-95347643D01*
X66334112Y-95328967D01*
X66357879Y-95305200D01*
X66383870Y-95283870D01*
X66405200Y-95257879D01*
X66419001Y-95244078D01*
X66419001Y-98942268D01*
X66419000Y-98942278D01*
X66419000Y-99467067D01*
X66425559Y-99500041D01*
X66428854Y-99533493D01*
X66438612Y-99565662D01*
X66445171Y-99598634D01*
X66458035Y-99629690D01*
X66467794Y-99661862D01*
X66483642Y-99691511D01*
X66496506Y-99722568D01*
X66515183Y-99750519D01*
X66531030Y-99780168D01*
X66552356Y-99806154D01*
X66571033Y-99834106D01*
X66594804Y-99857877D01*
X66616131Y-99883864D01*
X66642116Y-99905189D01*
X66665888Y-99928961D01*
X66693844Y-99947640D01*
X66719827Y-99968964D01*
X66749471Y-99984809D01*
X66777426Y-100003488D01*
X66808487Y-100016354D01*
X66838133Y-100032200D01*
X66870301Y-100041958D01*
X66901360Y-100054823D01*
X66934335Y-100061382D01*
X66966502Y-100071140D01*
X66999952Y-100074435D01*
X67032927Y-100080994D01*
X67066547Y-100080994D01*
X67100000Y-100084289D01*
X67133453Y-100080994D01*
X67167073Y-100080994D01*
X67200047Y-100074435D01*
X67233499Y-100071140D01*
X67265668Y-100061382D01*
X67298640Y-100054823D01*
X67329696Y-100041959D01*
X67361868Y-100032200D01*
X67391517Y-100016352D01*
X67422574Y-100003488D01*
X67450525Y-99984811D01*
X67480174Y-99968964D01*
X67506162Y-99947637D01*
X67534112Y-99928961D01*
X67557879Y-99905194D01*
X67583870Y-99883864D01*
X67605200Y-99857873D01*
X67628967Y-99834106D01*
X67647643Y-99806156D01*
X67668970Y-99780168D01*
X67684817Y-99750519D01*
X67703494Y-99722568D01*
X67716358Y-99691511D01*
X67732206Y-99661862D01*
X67741965Y-99629690D01*
X67754829Y-99598634D01*
X67761388Y-99565662D01*
X67771146Y-99533493D01*
X67774441Y-99500042D01*
X67781000Y-99467067D01*
X67781000Y-98100000D01*
X69915705Y-98100000D01*
X69919001Y-98133463D01*
X69919000Y-100932927D01*
X69919000Y-101067073D01*
X69925559Y-101100048D01*
X69928854Y-101133498D01*
X69938612Y-101165665D01*
X69945171Y-101198640D01*
X69958036Y-101229699D01*
X69967794Y-101261867D01*
X69983640Y-101291513D01*
X69996506Y-101322574D01*
X70015185Y-101350529D01*
X70031030Y-101380173D01*
X70052354Y-101406156D01*
X70071033Y-101434112D01*
X70094805Y-101457884D01*
X70116130Y-101483869D01*
X70142117Y-101505196D01*
X70165888Y-101528967D01*
X70193840Y-101547644D01*
X70219826Y-101568970D01*
X70249475Y-101584817D01*
X70277426Y-101603494D01*
X70308483Y-101616358D01*
X70338132Y-101632206D01*
X70370304Y-101641965D01*
X70401360Y-101654829D01*
X70434332Y-101661388D01*
X70466501Y-101671146D01*
X70499953Y-101674441D01*
X70532927Y-101681000D01*
X70566547Y-101681000D01*
X70600000Y-101684295D01*
X70633453Y-101681000D01*
X70667073Y-101681000D01*
X70700048Y-101674441D01*
X70733498Y-101671146D01*
X70765665Y-101661388D01*
X70798640Y-101654829D01*
X70829699Y-101641964D01*
X70861867Y-101632206D01*
X70891513Y-101616360D01*
X70922574Y-101603494D01*
X70950529Y-101584815D01*
X70980173Y-101568970D01*
X71006156Y-101547646D01*
X71034112Y-101528967D01*
X71057884Y-101505195D01*
X71083869Y-101483870D01*
X71105196Y-101457883D01*
X71128967Y-101434112D01*
X71147644Y-101406160D01*
X71168970Y-101380174D01*
X71184817Y-101350525D01*
X71203494Y-101322574D01*
X71216358Y-101291517D01*
X71232206Y-101261868D01*
X71241965Y-101229696D01*
X71254829Y-101198640D01*
X71261388Y-101165668D01*
X71271146Y-101133499D01*
X71274441Y-101100047D01*
X71281000Y-101067073D01*
X71281000Y-98382078D01*
X71382079Y-98281000D01*
X81435866Y-98281000D01*
X81438122Y-98282206D01*
X81470293Y-98291965D01*
X81501350Y-98304829D01*
X81534324Y-98311388D01*
X81566492Y-98321146D01*
X81599942Y-98324441D01*
X81632917Y-98331000D01*
X81666537Y-98331000D01*
X81699990Y-98334295D01*
X81733443Y-98331000D01*
X81767063Y-98331000D01*
X81800037Y-98324441D01*
X81833489Y-98321146D01*
X81865658Y-98311388D01*
X81898630Y-98304829D01*
X81929686Y-98291965D01*
X81961858Y-98282206D01*
X81991507Y-98266358D01*
X82022564Y-98253494D01*
X82050515Y-98234817D01*
X82080164Y-98218970D01*
X82106149Y-98197645D01*
X82134102Y-98178967D01*
X82157877Y-98155192D01*
X82183859Y-98133869D01*
X82205182Y-98107887D01*
X82228957Y-98084112D01*
X82247635Y-98056159D01*
X82268960Y-98030174D01*
X82284807Y-98000525D01*
X82303484Y-97972574D01*
X82316348Y-97941517D01*
X82332196Y-97911868D01*
X82341955Y-97879696D01*
X82354819Y-97848640D01*
X82361378Y-97815668D01*
X82371136Y-97783499D01*
X82374431Y-97750047D01*
X82380990Y-97717073D01*
X82380990Y-97683453D01*
X82384285Y-97650000D01*
X82380990Y-97616547D01*
X82380990Y-97582927D01*
X82374431Y-97549952D01*
X82371136Y-97516502D01*
X82361378Y-97484334D01*
X82354819Y-97451360D01*
X82341955Y-97420303D01*
X82332196Y-97388132D01*
X82316348Y-97358484D01*
X82303484Y-97327426D01*
X82284805Y-97299472D01*
X82268960Y-97269827D01*
X82247638Y-97243846D01*
X82228957Y-97215888D01*
X82155190Y-97142121D01*
X82133860Y-97116130D01*
X82030164Y-97031030D01*
X81911858Y-96967794D01*
X81783489Y-96928854D01*
X81683443Y-96919000D01*
X81649990Y-96915705D01*
X81616537Y-96919000D01*
X71133453Y-96919000D01*
X71100000Y-96915705D01*
X71066547Y-96919000D01*
X70966501Y-96928854D01*
X70838132Y-96967794D01*
X70719826Y-97031030D01*
X70616130Y-97116130D01*
X70594800Y-97142121D01*
X70142121Y-97594800D01*
X70116131Y-97616130D01*
X70031031Y-97719826D01*
X70023723Y-97733499D01*
X69967795Y-97838132D01*
X69928854Y-97966502D01*
X69915705Y-98100000D01*
X67781000Y-98100000D01*
X67781000Y-93800000D01*
X94715705Y-93800000D01*
X94719000Y-93833453D01*
X94719000Y-93867073D01*
X94725559Y-93900047D01*
X94728854Y-93933499D01*
X94738612Y-93965668D01*
X94745171Y-93998640D01*
X94758035Y-94029696D01*
X94767794Y-94061868D01*
X94783642Y-94091517D01*
X94796506Y-94122574D01*
X94815183Y-94150525D01*
X94831030Y-94180174D01*
X94852357Y-94206162D01*
X94871033Y-94234112D01*
X94894800Y-94257879D01*
X94916130Y-94283870D01*
X94942121Y-94305200D01*
X94965888Y-94328967D01*
X94993838Y-94347643D01*
X95019826Y-94368970D01*
X95049475Y-94384817D01*
X95077426Y-94403494D01*
X95108483Y-94416358D01*
X95138132Y-94432206D01*
X95170304Y-94441965D01*
X95201360Y-94454829D01*
X95234332Y-94461388D01*
X95266501Y-94471146D01*
X95299953Y-94474441D01*
X95332927Y-94481000D01*
X104867073Y-94481000D01*
X104900047Y-94474441D01*
X104933499Y-94471146D01*
X104965668Y-94461388D01*
X104998640Y-94454829D01*
X105029696Y-94441965D01*
X105061868Y-94432206D01*
X105091517Y-94416358D01*
X105122574Y-94403494D01*
X105150525Y-94384817D01*
X105180174Y-94368970D01*
X105206162Y-94347643D01*
X105234112Y-94328967D01*
X105257879Y-94305200D01*
X105283870Y-94283870D01*
X105305200Y-94257879D01*
X105328967Y-94234112D01*
X105347643Y-94206162D01*
X105368970Y-94180174D01*
X105384817Y-94150525D01*
X105403494Y-94122574D01*
X105416358Y-94091517D01*
X105432206Y-94061868D01*
X105441965Y-94029696D01*
X105454829Y-93998640D01*
X105461388Y-93965668D01*
X105471146Y-93933499D01*
X105474441Y-93900047D01*
X105481000Y-93867073D01*
X105481000Y-93833453D01*
X105484295Y-93800000D01*
X105481000Y-93766547D01*
X105481000Y-93732927D01*
X105474441Y-93699953D01*
X105471146Y-93666501D01*
X105461388Y-93634332D01*
X105454829Y-93601360D01*
X105441965Y-93570304D01*
X105432206Y-93538132D01*
X105416358Y-93508483D01*
X105403494Y-93477426D01*
X105384817Y-93449475D01*
X105368970Y-93419826D01*
X105347643Y-93393838D01*
X105328967Y-93365888D01*
X105305200Y-93342121D01*
X105283870Y-93316130D01*
X105257879Y-93294800D01*
X105234112Y-93271033D01*
X105206162Y-93252357D01*
X105180174Y-93231030D01*
X105150525Y-93215183D01*
X105122574Y-93196506D01*
X105091517Y-93183642D01*
X105061868Y-93167794D01*
X105029696Y-93158035D01*
X104998640Y-93145171D01*
X104965668Y-93138612D01*
X104933499Y-93128854D01*
X104900047Y-93125559D01*
X104867073Y-93119000D01*
X95332927Y-93119000D01*
X95299953Y-93125559D01*
X95266501Y-93128854D01*
X95234332Y-93138612D01*
X95201360Y-93145171D01*
X95170304Y-93158035D01*
X95138132Y-93167794D01*
X95108483Y-93183642D01*
X95077426Y-93196506D01*
X95049475Y-93215183D01*
X95019826Y-93231030D01*
X94993838Y-93252357D01*
X94965888Y-93271033D01*
X94942121Y-93294800D01*
X94916130Y-93316130D01*
X94894800Y-93342121D01*
X94871033Y-93365888D01*
X94852357Y-93393838D01*
X94831030Y-93419826D01*
X94815183Y-93449475D01*
X94796506Y-93477426D01*
X94783642Y-93508483D01*
X94767794Y-93538132D01*
X94758035Y-93570304D01*
X94745171Y-93601360D01*
X94738612Y-93634332D01*
X94728854Y-93666501D01*
X94725559Y-93699953D01*
X94719000Y-93732927D01*
X94719000Y-93766547D01*
X94715705Y-93800000D01*
X67781000Y-93800000D01*
X67781000Y-89733453D01*
X67784295Y-89700000D01*
X67771146Y-89566501D01*
X67732206Y-89438131D01*
X67699758Y-89377426D01*
X67668970Y-89319826D01*
X67583869Y-89216130D01*
X67557878Y-89194800D01*
X67305205Y-88942127D01*
X67283871Y-88916131D01*
X67180175Y-88831031D01*
X67061869Y-88767795D01*
X66933500Y-88728855D01*
X66833454Y-88719001D01*
X66800001Y-88715706D01*
X66766548Y-88719001D01*
X61233452Y-88719001D01*
X61199999Y-88715706D01*
X61066500Y-88728855D01*
X60938130Y-88767795D01*
X60878978Y-88799413D01*
X60819825Y-88831031D01*
X60716129Y-88916131D01*
X60694795Y-88942127D01*
X60465891Y-89171031D01*
X60465888Y-89171033D01*
X60371033Y-89265888D01*
X60352349Y-89293850D01*
X60331031Y-89319827D01*
X60315190Y-89349464D01*
X60296506Y-89377426D01*
X60283638Y-89408492D01*
X60267795Y-89438132D01*
X60258038Y-89470296D01*
X60245171Y-89501360D01*
X60238611Y-89534337D01*
X60228854Y-89566502D01*
X60225559Y-89599952D01*
X60219000Y-89632927D01*
X60219000Y-89666547D01*
X60215705Y-89700000D01*
X60219000Y-89733453D01*
X60219000Y-89767073D01*
X60225559Y-89800048D01*
X60228854Y-89833498D01*
X60238611Y-89865663D01*
X60245171Y-89898640D01*
X60258038Y-89929704D01*
X60267795Y-89961868D01*
X60283638Y-89991508D01*
X60296506Y-90022574D01*
X60315190Y-90050536D01*
X60331031Y-90080173D01*
X60352349Y-90106150D01*
X60371033Y-90134112D01*
X60394810Y-90157889D01*
X60416131Y-90183869D01*
X60442111Y-90205190D01*
X60465888Y-90228967D01*
X60493850Y-90247651D01*
X60519827Y-90268969D01*
X60549464Y-90284810D01*
X60577426Y-90303494D01*
X60608492Y-90316362D01*
X60638132Y-90332205D01*
X60670296Y-90341962D01*
X60701360Y-90354829D01*
X60734337Y-90361389D01*
X60766502Y-90371146D01*
X60799952Y-90374441D01*
X60832927Y-90381000D01*
X60866547Y-90381000D01*
X60900000Y-90384295D01*
X60933453Y-90381000D01*
X60967073Y-90381000D01*
X61000048Y-90374441D01*
X61033498Y-90371146D01*
X61065663Y-90361389D01*
X61098640Y-90354829D01*
X61129704Y-90341962D01*
X61161868Y-90332205D01*
X61191508Y-90316362D01*
X61222574Y-90303494D01*
X61250536Y-90284810D01*
X61280173Y-90268969D01*
X61306150Y-90247651D01*
X61334112Y-90228967D01*
X61428967Y-90134112D01*
X61428969Y-90134109D01*
X61482077Y-90081001D01*
X66419000Y-90081001D01*
X66419001Y-94355922D01*
X66405200Y-94342121D01*
X66383870Y-94316130D01*
X66357879Y-94294800D01*
X66334112Y-94271033D01*
X66306162Y-94252357D01*
X66280174Y-94231030D01*
X66250525Y-94215183D01*
X66222574Y-94196506D01*
X66191517Y-94183642D01*
X66161868Y-94167794D01*
X66129696Y-94158035D01*
X66098640Y-94145171D01*
X66065668Y-94138612D01*
X66033499Y-94128854D01*
X66000047Y-94125559D01*
X65967073Y-94119000D01*
X62232927Y-94119000D01*
X62199953Y-94125559D01*
X62166501Y-94128854D01*
X62134332Y-94138612D01*
X62101360Y-94145171D01*
X62070304Y-94158035D01*
X62038132Y-94167794D01*
X62008483Y-94183642D01*
X61977426Y-94196506D01*
X61949475Y-94215183D01*
X61919826Y-94231030D01*
X61893838Y-94252357D01*
X61865888Y-94271033D01*
X61842121Y-94294800D01*
X61816130Y-94316130D01*
X61794800Y-94342121D01*
X61771033Y-94365888D01*
X61752357Y-94393838D01*
X61750000Y-94396711D01*
X61747643Y-94393838D01*
X61728967Y-94365888D01*
X61705200Y-94342121D01*
X61683870Y-94316130D01*
X61657879Y-94294800D01*
X61634112Y-94271033D01*
X61606162Y-94252357D01*
X61580174Y-94231030D01*
X61550525Y-94215183D01*
X61522574Y-94196506D01*
X61491517Y-94183642D01*
X61461868Y-94167794D01*
X61429696Y-94158035D01*
X61398640Y-94145171D01*
X61365668Y-94138612D01*
X61333499Y-94128854D01*
X61300047Y-94125559D01*
X61267073Y-94119000D01*
X59433452Y-94119000D01*
X59399999Y-94115705D01*
X59266501Y-94128854D01*
X59138132Y-94167794D01*
X59019826Y-94231030D01*
X58916130Y-94316130D01*
X58894796Y-94342126D01*
X58880998Y-94355924D01*
X58880998Y-78933451D01*
X58884293Y-78899998D01*
X58871144Y-78766499D01*
X58832204Y-78638129D01*
X58768968Y-78519824D01*
X58752699Y-78500000D01*
X58683867Y-78416128D01*
X58657876Y-78394798D01*
X58305204Y-78042126D01*
X58283870Y-78016130D01*
X58180174Y-77931030D01*
X58061868Y-77867794D01*
X57933499Y-77828854D01*
X57833453Y-77819000D01*
X57800000Y-77815705D01*
X57766547Y-77819000D01*
X56832165Y-77819000D01*
X56831640Y-77818360D01*
X56740477Y-77743544D01*
X56636470Y-77687951D01*
X56523615Y-77653716D01*
X56406250Y-77642157D01*
X55968750Y-77642157D01*
X55851385Y-77653716D01*
X55738530Y-77687951D01*
X55634523Y-77743544D01*
X55543360Y-77818360D01*
X55468544Y-77909523D01*
X55412951Y-78013530D01*
X55400000Y-78056223D01*
X55387049Y-78013530D01*
X55331456Y-77909523D01*
X55256640Y-77818360D01*
X55165477Y-77743544D01*
X55061470Y-77687951D01*
X54948615Y-77653716D01*
X54831250Y-77642157D01*
X54393750Y-77642157D01*
X54276385Y-77653716D01*
X54163530Y-77687951D01*
X54105442Y-77719000D01*
X52612410Y-77719000D01*
X52573161Y-77679751D01*
X52400204Y-77564185D01*
X52384893Y-77557843D01*
X52575000Y-77557843D01*
X52649689Y-77550487D01*
X52721508Y-77528701D01*
X52787696Y-77493322D01*
X52845711Y-77445711D01*
X52893322Y-77387696D01*
X52928701Y-77321508D01*
X52950487Y-77249689D01*
X52957843Y-77175000D01*
X52957843Y-75825000D01*
X52950487Y-75750311D01*
X52928701Y-75678492D01*
X52893322Y-75612304D01*
X52845711Y-75554289D01*
X52787696Y-75506678D01*
X52721508Y-75471299D01*
X52649689Y-75449513D01*
X52575000Y-75442157D01*
X51225000Y-75442157D01*
X51150311Y-75449513D01*
X51078492Y-75471299D01*
X51012304Y-75506678D01*
X50954289Y-75554289D01*
X50906678Y-75612304D01*
X50871299Y-75678492D01*
X50849513Y-75750311D01*
X50842157Y-75825000D01*
X50406000Y-75825000D01*
X50406000Y-73200000D01*
X136915705Y-73200000D01*
X136919000Y-73233453D01*
X136919000Y-73267073D01*
X136925559Y-73300047D01*
X136928854Y-73333499D01*
X136938612Y-73365668D01*
X136945171Y-73398640D01*
X136958035Y-73429696D01*
X136967794Y-73461868D01*
X136983642Y-73491517D01*
X136996506Y-73522574D01*
X137015183Y-73550525D01*
X137031030Y-73580174D01*
X137052357Y-73606162D01*
X137071033Y-73634112D01*
X137094800Y-73657879D01*
X137116130Y-73683870D01*
X137142121Y-73705200D01*
X137165888Y-73728967D01*
X137193838Y-73747643D01*
X137219826Y-73768970D01*
X137249475Y-73784817D01*
X137277426Y-73803494D01*
X137308483Y-73816358D01*
X137338132Y-73832206D01*
X137370304Y-73841965D01*
X137401360Y-73854829D01*
X137434332Y-73861388D01*
X137466501Y-73871146D01*
X137499953Y-73874441D01*
X137532927Y-73881000D01*
X141567073Y-73881000D01*
X141600047Y-73874441D01*
X141633499Y-73871146D01*
X141665668Y-73861388D01*
X141698640Y-73854829D01*
X141729696Y-73841965D01*
X141761868Y-73832206D01*
X141791517Y-73816358D01*
X141822574Y-73803494D01*
X141850525Y-73784817D01*
X141880174Y-73768970D01*
X141906162Y-73747643D01*
X141934112Y-73728967D01*
X141957879Y-73705200D01*
X141983870Y-73683870D01*
X142005200Y-73657879D01*
X142028967Y-73634112D01*
X142047643Y-73606162D01*
X142068970Y-73580174D01*
X142084817Y-73550525D01*
X142103494Y-73522574D01*
X142116358Y-73491517D01*
X142132206Y-73461868D01*
X142141965Y-73429696D01*
X142154829Y-73398640D01*
X142161388Y-73365668D01*
X142171146Y-73333499D01*
X142174441Y-73300047D01*
X142181000Y-73267073D01*
X142181000Y-73233453D01*
X142184295Y-73200000D01*
X142181000Y-73166547D01*
X142181000Y-73132927D01*
X142174441Y-73099953D01*
X142171146Y-73066501D01*
X142161388Y-73034332D01*
X142154829Y-73001360D01*
X142141965Y-72970304D01*
X142132206Y-72938132D01*
X142116358Y-72908483D01*
X142103494Y-72877426D01*
X142084817Y-72849475D01*
X142068970Y-72819826D01*
X142047643Y-72793838D01*
X142028967Y-72765888D01*
X142005200Y-72742121D01*
X141983870Y-72716130D01*
X141957879Y-72694800D01*
X141934112Y-72671033D01*
X141906162Y-72652357D01*
X141880174Y-72631030D01*
X141850525Y-72615183D01*
X141822574Y-72596506D01*
X141791517Y-72583642D01*
X141761868Y-72567794D01*
X141729696Y-72558035D01*
X141698640Y-72545171D01*
X141665668Y-72538612D01*
X141633499Y-72528854D01*
X141600047Y-72525559D01*
X141567073Y-72519000D01*
X137532927Y-72519000D01*
X137499953Y-72525559D01*
X137466501Y-72528854D01*
X137434332Y-72538612D01*
X137401360Y-72545171D01*
X137370304Y-72558035D01*
X137338132Y-72567794D01*
X137308483Y-72583642D01*
X137277426Y-72596506D01*
X137249475Y-72615183D01*
X137219826Y-72631030D01*
X137193838Y-72652357D01*
X137165888Y-72671033D01*
X137142121Y-72694800D01*
X137116130Y-72716130D01*
X137094800Y-72742121D01*
X137071033Y-72765888D01*
X137052357Y-72793838D01*
X137031030Y-72819826D01*
X137015183Y-72849475D01*
X136996506Y-72877426D01*
X136983642Y-72908483D01*
X136967794Y-72938132D01*
X136958035Y-72970304D01*
X136945171Y-73001360D01*
X136938612Y-73034332D01*
X136928854Y-73066501D01*
X136925559Y-73099953D01*
X136919000Y-73132927D01*
X136919000Y-73166547D01*
X136915705Y-73200000D01*
X50406000Y-73200000D01*
X50406000Y-52019854D01*
X50447789Y-51593655D01*
X50565802Y-51202778D01*
X50757484Y-50842277D01*
X51015539Y-50525869D01*
X51330138Y-50265610D01*
X51689295Y-50071414D01*
X52079333Y-49950677D01*
X52504406Y-49906000D01*
X96973000Y-49906000D01*
X96973000Y-54500000D01*
G36*
X102373000Y-105052606D02*
G01*
X102373000Y-108947394D01*
X102226394Y-109094000D01*
X97773606Y-109094000D01*
X97627000Y-108947394D01*
X97627000Y-105052606D01*
X98052606Y-104627000D01*
X101947394Y-104627000D01*
X102373000Y-105052606D01*
G37*
X102373000Y-105052606D02*
X102373000Y-108947394D01*
X102226394Y-109094000D01*
X97773606Y-109094000D01*
X97627000Y-108947394D01*
X97627000Y-105052606D01*
X98052606Y-104627000D01*
X101947394Y-104627000D01*
X102373000Y-105052606D01*
G36*
X102373000Y-50052606D02*
G01*
X102373000Y-53947394D01*
X101947394Y-54373000D01*
X98052606Y-54373000D01*
X97627000Y-53947394D01*
X97627000Y-50052606D01*
X97773606Y-49906000D01*
X102226394Y-49906000D01*
X102373000Y-50052606D01*
G37*
X102373000Y-50052606D02*
X102373000Y-53947394D01*
X101947394Y-54373000D01*
X98052606Y-54373000D01*
X97627000Y-53947394D01*
X97627000Y-50052606D01*
X97773606Y-49906000D01*
X102226394Y-49906000D01*
X102373000Y-50052606D01*
G36*
X102373000Y-50041633D02*
G01*
X102373000Y-53936421D01*
X101947394Y-54362027D01*
X98052606Y-54362027D01*
X97627000Y-53936421D01*
X97627000Y-50041633D01*
X97762633Y-49906000D01*
X102237367Y-49906000D01*
X102373000Y-50041633D01*
G37*
X102373000Y-50041633D02*
X102373000Y-53936421D01*
X101947394Y-54362027D01*
X98052606Y-54362027D01*
X97627000Y-53936421D01*
X97627000Y-50041633D01*
X97762633Y-49906000D01*
X102237367Y-49906000D01*
X102373000Y-50041633D01*
M02*
