<?xml version="1.0" standalone="no"?>
 <!DOCTYPE svg PUBLIC "-//W3C//DTD SVG 1.1//EN" 
 "http://www.w3.org/Graphics/SVG/1.1/DTD/svg11.dtd"> 
<svg xmlns="http://www.w3.org/2000/svg" version="1.1" 
    width="29.7002cm" height="21.0007cm" viewBox="0 0 116930 82680 ">
<title>SVG Picture created as modular_eside_rev8-F.SilkS.svg date 2017/09/09 21:38:50 </title>
  <desc>Picture generated by PCBNEW </desc>
<g style="fill:#000000; fill-opacity:1;stroke:#000000; stroke-opacity:1;
stroke-linecap:round; stroke-linejoin:round; "
 transform="translate(0 0) scale(1 1)">
</g>
<g style="fill:#000000; fill-opacity:0.0; 
stroke:#000000; stroke-width:-0.000393701; stroke-opacity:1; 
stroke-linecap:round; stroke-linejoin:round;">
</g>
<g style="fill:#000000; fill-opacity:0.0; 
stroke:#000000; stroke-width:39.3701; stroke-opacity:1; 
stroke-linecap:round; stroke-linejoin:round;">
</g>
<g style="fill:#000000; fill-opacity:0.0; 
stroke:#000000; stroke-width:59.0551; stroke-opacity:1; 
stroke-linecap:round; stroke-linejoin:round;">
<rect x="69685.9" y="65357.2" width="42519.7" height="12598.4" rx="0" />
</g>
<g style="fill:#000000; fill-opacity:0.0; 
stroke:#000000; stroke-width:39.3701; stroke-opacity:1; 
stroke-linecap:round; stroke-linejoin:round;">
</g>
<g style="fill:#000000; fill-opacity:0.0; 
stroke:#000000; stroke-width:59.0551; stroke-opacity:1; 
stroke-linecap:round; stroke-linejoin:round;">
<rect x="3937.01" y="3937.01" width="109056" height="74806" rx="0" />
</g>
<g style="fill:#000000; fill-opacity:0.0; 
stroke:#000000; stroke-width:39.3701; stroke-opacity:1; 
stroke-linecap:round; stroke-linejoin:round;">
</g>
<g style="fill:#000000; fill-opacity:0.0; 
stroke:#000000; stroke-width:59.0551; stroke-opacity:1; 
stroke-linecap:round; stroke-linejoin:round;">
<rect x="4724.41" y="4724.41" width="107481" height="73231.2" rx="0" />
</g>
<g style="fill:#000000; fill-opacity:0.0; 
stroke:#000000; stroke-width:39.3701; stroke-opacity:1; 
stroke-linecap:round; stroke-linejoin:round;">
</g>
<g style="fill:#000000; fill-opacity:0.0; 
stroke:#000000; stroke-width:59.0551; stroke-opacity:1; 
stroke-linecap:round; stroke-linejoin:round;">
<path d="M23622 4724
L23622 3937
" />
</g>
<g style="fill:#000000; fill-opacity:0.0; 
stroke:#000000; stroke-width:39.3701; stroke-opacity:1; 
stroke-linecap:round; stroke-linejoin:round;">
</g>
<g style="fill:#000000; fill-opacity:0.0; 
stroke:#000000; stroke-width:59.0551; stroke-opacity:1; 
stroke-linecap:round; stroke-linejoin:round;">
<path d="M43307 4724
L43307 3937
" />
</g>
<g style="fill:#000000; fill-opacity:0.0; 
stroke:#000000; stroke-width:39.3701; stroke-opacity:1; 
stroke-linecap:round; stroke-linejoin:round;">
</g>
<g style="fill:#000000; fill-opacity:0.0; 
stroke:#000000; stroke-width:59.0551; stroke-opacity:1; 
stroke-linecap:round; stroke-linejoin:round;">
<path d="M62992 4724
L62992 3937
" />
</g>
<g style="fill:#000000; fill-opacity:0.0; 
stroke:#000000; stroke-width:39.3701; stroke-opacity:1; 
stroke-linecap:round; stroke-linejoin:round;">
</g>
<g style="fill:#000000; fill-opacity:0.0; 
stroke:#000000; stroke-width:59.0551; stroke-opacity:1; 
stroke-linecap:round; stroke-linejoin:round;">
<path d="M82677 4724
L82677 3937
" />
</g>
<g style="fill:#000000; fill-opacity:0.0; 
stroke:#000000; stroke-width:39.3701; stroke-opacity:1; 
stroke-linecap:round; stroke-linejoin:round;">
</g>
<g style="fill:#000000; fill-opacity:0.0; 
stroke:#000000; stroke-width:59.0551; stroke-opacity:1; 
stroke-linecap:round; stroke-linejoin:round;">
<path d="M102362 4724
L102362 3937
" />
</g>
<g style="fill:#000000; fill-opacity:0.0; 
stroke:#000000; stroke-width:39.3701; stroke-opacity:1; 
stroke-linecap:round; stroke-linejoin:round;">
</g>
<g style="fill:#000000; fill-opacity:0.0; 
stroke:#000000; stroke-width:59.0551; stroke-opacity:1; 
stroke-linecap:round; stroke-linejoin:round;">
<path d="M14169 4562
L13877 4562
" />
<path d="M14023 4562
L14023 4050
L13974 4123
L13925 4172
L13877 4196
" />
</g>
<g style="fill:#000000; fill-opacity:0.0; 
stroke:#000000; stroke-width:39.3701; stroke-opacity:1; 
stroke-linecap:round; stroke-linejoin:round;">
</g>
<g style="fill:#000000; fill-opacity:0.0; 
stroke:#000000; stroke-width:59.0551; stroke-opacity:1; 
stroke-linecap:round; stroke-linejoin:round;">
<path d="M33562 4099
L33586 4074
L33635 4050
L33757 4050
L33805 4074
L33830 4099
L33854 4147
L33854 4196
L33830 4269
L33537 4562
L33854 4562
" />
</g>
<g style="fill:#000000; fill-opacity:0.0; 
stroke:#000000; stroke-width:39.3701; stroke-opacity:1; 
stroke-linecap:round; stroke-linejoin:round;">
</g>
<g style="fill:#000000; fill-opacity:0.0; 
stroke:#000000; stroke-width:59.0551; stroke-opacity:1; 
stroke-linecap:round; stroke-linejoin:round;">
<path d="M53222 4050
L53539 4050
L53368 4245
L53442 4245
L53490 4269
L53515 4294
L53539 4342
L53539 4464
L53515 4513
L53490 4537
L53442 4562
L53295 4562
L53247 4537
L53222 4513
" />
</g>
<g style="fill:#000000; fill-opacity:0.0; 
stroke:#000000; stroke-width:39.3701; stroke-opacity:1; 
stroke-linecap:round; stroke-linejoin:round;">
</g>
<g style="fill:#000000; fill-opacity:0.0; 
stroke:#000000; stroke-width:59.0551; stroke-opacity:1; 
stroke-linecap:round; stroke-linejoin:round;">
<path d="M73175 4221
L73175 4562
" />
<path d="M73053 4026
L72932 4391
L73248 4391
" />
</g>
<g style="fill:#000000; fill-opacity:0.0; 
stroke:#000000; stroke-width:39.3701; stroke-opacity:1; 
stroke-linecap:round; stroke-linejoin:round;">
</g>
<g style="fill:#000000; fill-opacity:0.0; 
stroke:#000000; stroke-width:59.0551; stroke-opacity:1; 
stroke-linecap:round; stroke-linejoin:round;">
<path d="M92885 4050
L92641 4050
L92617 4294
L92641 4269
L92690 4245
L92812 4245
L92860 4269
L92885 4294
L92909 4342
L92909 4464
L92885 4513
L92860 4537
L92812 4562
L92690 4562
L92641 4537
L92617 4513
" />
</g>
<g style="fill:#000000; fill-opacity:0.0; 
stroke:#000000; stroke-width:39.3701; stroke-opacity:1; 
stroke-linecap:round; stroke-linejoin:round;">
</g>
<g style="fill:#000000; fill-opacity:0.0; 
stroke:#000000; stroke-width:59.0551; stroke-opacity:1; 
stroke-linecap:round; stroke-linejoin:round;">
<path d="M112545 4050
L112448 4050
L112399 4074
L112375 4099
L112326 4172
L112302 4269
L112302 4464
L112326 4513
L112350 4537
L112399 4562
L112497 4562
L112545 4537
L112570 4513
L112594 4464
L112594 4342
L112570 4294
L112545 4269
L112497 4245
L112399 4245
L112350 4269
L112326 4294
L112302 4342
" />
</g>
<g style="fill:#000000; fill-opacity:0.0; 
stroke:#000000; stroke-width:39.3701; stroke-opacity:1; 
stroke-linecap:round; stroke-linejoin:round;">
</g>
<g style="fill:#000000; fill-opacity:0.0; 
stroke:#000000; stroke-width:59.0551; stroke-opacity:1; 
stroke-linecap:round; stroke-linejoin:round;">
<path d="M23622 77955
L23622 78742
" />
</g>
<g style="fill:#000000; fill-opacity:0.0; 
stroke:#000000; stroke-width:39.3701; stroke-opacity:1; 
stroke-linecap:round; stroke-linejoin:round;">
</g>
<g style="fill:#000000; fill-opacity:0.0; 
stroke:#000000; stroke-width:59.0551; stroke-opacity:1; 
stroke-linecap:round; stroke-linejoin:round;">
<path d="M43307 77955
L43307 78742
" />
</g>
<g style="fill:#000000; fill-opacity:0.0; 
stroke:#000000; stroke-width:39.3701; stroke-opacity:1; 
stroke-linecap:round; stroke-linejoin:round;">
</g>
<g style="fill:#000000; fill-opacity:0.0; 
stroke:#000000; stroke-width:59.0551; stroke-opacity:1; 
stroke-linecap:round; stroke-linejoin:round;">
<path d="M62992 77955
L62992 78742
" />
</g>
<g style="fill:#000000; fill-opacity:0.0; 
stroke:#000000; stroke-width:39.3701; stroke-opacity:1; 
stroke-linecap:round; stroke-linejoin:round;">
</g>
<g style="fill:#000000; fill-opacity:0.0; 
stroke:#000000; stroke-width:59.0551; stroke-opacity:1; 
stroke-linecap:round; stroke-linejoin:round;">
<path d="M82677 77955
L82677 78742
" />
</g>
<g style="fill:#000000; fill-opacity:0.0; 
stroke:#000000; stroke-width:39.3701; stroke-opacity:1; 
stroke-linecap:round; stroke-linejoin:round;">
</g>
<g style="fill:#000000; fill-opacity:0.0; 
stroke:#000000; stroke-width:59.0551; stroke-opacity:1; 
stroke-linecap:round; stroke-linejoin:round;">
<path d="M102362 77955
L102362 78742
" />
</g>
<g style="fill:#000000; fill-opacity:0.0; 
stroke:#000000; stroke-width:39.3701; stroke-opacity:1; 
stroke-linecap:round; stroke-linejoin:round;">
</g>
<g style="fill:#000000; fill-opacity:0.0; 
stroke:#000000; stroke-width:59.0551; stroke-opacity:1; 
stroke-linecap:round; stroke-linejoin:round;">
<path d="M14169 78580
L13877 78580
" />
<path d="M14023 78580
L14023 78069
L13974 78142
L13925 78190
L13877 78215
" />
</g>
<g style="fill:#000000; fill-opacity:0.0; 
stroke:#000000; stroke-width:39.3701; stroke-opacity:1; 
stroke-linecap:round; stroke-linejoin:round;">
</g>
<g style="fill:#000000; fill-opacity:0.0; 
stroke:#000000; stroke-width:59.0551; stroke-opacity:1; 
stroke-linecap:round; stroke-linejoin:round;">
<path d="M33562 78117
L33586 78093
L33635 78069
L33757 78069
L33805 78093
L33830 78117
L33854 78166
L33854 78215
L33830 78288
L33537 78580
L33854 78580
" />
</g>
<g style="fill:#000000; fill-opacity:0.0; 
stroke:#000000; stroke-width:39.3701; stroke-opacity:1; 
stroke-linecap:round; stroke-linejoin:round;">
</g>
<g style="fill:#000000; fill-opacity:0.0; 
stroke:#000000; stroke-width:59.0551; stroke-opacity:1; 
stroke-linecap:round; stroke-linejoin:round;">
<path d="M53222 78069
L53539 78069
L53368 78263
L53442 78263
L53490 78288
L53515 78312
L53539 78361
L53539 78483
L53515 78532
L53490 78556
L53442 78580
L53295 78580
L53247 78556
L53222 78532
" />
</g>
<g style="fill:#000000; fill-opacity:0.0; 
stroke:#000000; stroke-width:39.3701; stroke-opacity:1; 
stroke-linecap:round; stroke-linejoin:round;">
</g>
<g style="fill:#000000; fill-opacity:0.0; 
stroke:#000000; stroke-width:59.0551; stroke-opacity:1; 
stroke-linecap:round; stroke-linejoin:round;">
<path d="M73175 78239
L73175 78580
" />
<path d="M73053 78044
L72932 78410
L73248 78410
" />
</g>
<g style="fill:#000000; fill-opacity:0.0; 
stroke:#000000; stroke-width:39.3701; stroke-opacity:1; 
stroke-linecap:round; stroke-linejoin:round;">
</g>
<g style="fill:#000000; fill-opacity:0.0; 
stroke:#000000; stroke-width:59.0551; stroke-opacity:1; 
stroke-linecap:round; stroke-linejoin:round;">
<path d="M92885 78069
L92641 78069
L92617 78312
L92641 78288
L92690 78263
L92812 78263
L92860 78288
L92885 78312
L92909 78361
L92909 78483
L92885 78532
L92860 78556
L92812 78580
L92690 78580
L92641 78556
L92617 78532
" />
</g>
<g style="fill:#000000; fill-opacity:0.0; 
stroke:#000000; stroke-width:39.3701; stroke-opacity:1; 
stroke-linecap:round; stroke-linejoin:round;">
</g>
<g style="fill:#000000; fill-opacity:0.0; 
stroke:#000000; stroke-width:59.0551; stroke-opacity:1; 
stroke-linecap:round; stroke-linejoin:round;">
<path d="M112545 78069
L112448 78069
L112399 78093
L112375 78117
L112326 78190
L112302 78288
L112302 78483
L112326 78532
L112350 78556
L112399 78580
L112497 78580
L112545 78556
L112570 78532
L112594 78483
L112594 78361
L112570 78312
L112545 78288
L112497 78263
L112399 78263
L112350 78288
L112326 78312
L112302 78361
" />
</g>
<g style="fill:#000000; fill-opacity:0.0; 
stroke:#000000; stroke-width:39.3701; stroke-opacity:1; 
stroke-linecap:round; stroke-linejoin:round;">
</g>
<g style="fill:#000000; fill-opacity:0.0; 
stroke:#000000; stroke-width:59.0551; stroke-opacity:1; 
stroke-linecap:round; stroke-linejoin:round;">
<path d="M3937 23622
L4724 23622
" />
</g>
<g style="fill:#000000; fill-opacity:0.0; 
stroke:#000000; stroke-width:39.3701; stroke-opacity:1; 
stroke-linecap:round; stroke-linejoin:round;">
</g>
<g style="fill:#000000; fill-opacity:0.0; 
stroke:#000000; stroke-width:59.0551; stroke-opacity:1; 
stroke-linecap:round; stroke-linejoin:round;">
<path d="M3937 43307
L4724 43307
" />
</g>
<g style="fill:#000000; fill-opacity:0.0; 
stroke:#000000; stroke-width:39.3701; stroke-opacity:1; 
stroke-linecap:round; stroke-linejoin:round;">
</g>
<g style="fill:#000000; fill-opacity:0.0; 
stroke:#000000; stroke-width:59.0551; stroke-opacity:1; 
stroke-linecap:round; stroke-linejoin:round;">
<path d="M3937 62992
L4724 62992
" />
</g>
<g style="fill:#000000; fill-opacity:0.0; 
stroke:#000000; stroke-width:39.3701; stroke-opacity:1; 
stroke-linecap:round; stroke-linejoin:round;">
</g>
<g style="fill:#000000; fill-opacity:0.0; 
stroke:#000000; stroke-width:59.0551; stroke-opacity:1; 
stroke-linecap:round; stroke-linejoin:round;">
<path d="M4208 13864
L4452 13864
" />
<path d="M4160 14011
L4330 13499
L4501 14011
" />
</g>
<g style="fill:#000000; fill-opacity:0.0; 
stroke:#000000; stroke-width:39.3701; stroke-opacity:1; 
stroke-linecap:round; stroke-linejoin:round;">
</g>
<g style="fill:#000000; fill-opacity:0.0; 
stroke:#000000; stroke-width:59.0551; stroke-opacity:1; 
stroke-linecap:round; stroke-linejoin:round;">
<path d="M4367 33428
L4440 33452
L4464 33476
L4489 33525
L4489 33598
L4464 33647
L4440 33671
L4391 33696
L4196 33696
L4196 33184
L4367 33184
L4416 33208
L4440 33233
L4464 33281
L4464 33330
L4440 33379
L4416 33403
L4367 33428
L4196 33428
" />
</g>
<g style="fill:#000000; fill-opacity:0.0; 
stroke:#000000; stroke-width:39.3701; stroke-opacity:1; 
stroke-linecap:round; stroke-linejoin:round;">
</g>
<g style="fill:#000000; fill-opacity:0.0; 
stroke:#000000; stroke-width:59.0551; stroke-opacity:1; 
stroke-linecap:round; stroke-linejoin:round;">
<path d="M4489 53332
L4464 53356
L4391 53381
L4342 53381
L4269 53356
L4221 53308
L4196 53259
L4172 53161
L4172 53088
L4196 52991
L4221 52942
L4269 52893
L4342 52869
L4391 52869
L4464 52893
L4489 52918
" />
</g>
<g style="fill:#000000; fill-opacity:0.0; 
stroke:#000000; stroke-width:39.3701; stroke-opacity:1; 
stroke-linecap:round; stroke-linejoin:round;">
</g>
<g style="fill:#000000; fill-opacity:0.0; 
stroke:#000000; stroke-width:59.0551; stroke-opacity:1; 
stroke-linecap:round; stroke-linejoin:round;">
<path d="M4196 73066
L4196 72554
L4318 72554
L4391 72578
L4440 72627
L4464 72676
L4489 72773
L4489 72846
L4464 72944
L4440 72993
L4391 73041
L4318 73066
L4196 73066
" />
</g>
<g style="fill:#000000; fill-opacity:0.0; 
stroke:#000000; stroke-width:39.3701; stroke-opacity:1; 
stroke-linecap:round; stroke-linejoin:round;">
</g>
<g style="fill:#000000; fill-opacity:0.0; 
stroke:#000000; stroke-width:59.0551; stroke-opacity:1; 
stroke-linecap:round; stroke-linejoin:round;">
<path d="M112992 23622
L112205 23622
" />
</g>
<g style="fill:#000000; fill-opacity:0.0; 
stroke:#000000; stroke-width:39.3701; stroke-opacity:1; 
stroke-linecap:round; stroke-linejoin:round;">
</g>
<g style="fill:#000000; fill-opacity:0.0; 
stroke:#000000; stroke-width:59.0551; stroke-opacity:1; 
stroke-linecap:round; stroke-linejoin:round;">
<path d="M112992 43307
L112205 43307
" />
</g>
<g style="fill:#000000; fill-opacity:0.0; 
stroke:#000000; stroke-width:39.3701; stroke-opacity:1; 
stroke-linecap:round; stroke-linejoin:round;">
</g>
<g style="fill:#000000; fill-opacity:0.0; 
stroke:#000000; stroke-width:59.0551; stroke-opacity:1; 
stroke-linecap:round; stroke-linejoin:round;">
<path d="M112992 62992
L112205 62992
" />
</g>
<g style="fill:#000000; fill-opacity:0.0; 
stroke:#000000; stroke-width:39.3701; stroke-opacity:1; 
stroke-linecap:round; stroke-linejoin:round;">
</g>
<g style="fill:#000000; fill-opacity:0.0; 
stroke:#000000; stroke-width:59.0551; stroke-opacity:1; 
stroke-linecap:round; stroke-linejoin:round;">
<path d="M112477 13864
L112721 13864
" />
<path d="M112428 14011
L112599 13499
L112769 14011
" />
</g>
<g style="fill:#000000; fill-opacity:0.0; 
stroke:#000000; stroke-width:39.3701; stroke-opacity:1; 
stroke-linecap:round; stroke-linejoin:round;">
</g>
<g style="fill:#000000; fill-opacity:0.0; 
stroke:#000000; stroke-width:59.0551; stroke-opacity:1; 
stroke-linecap:round; stroke-linejoin:round;">
<path d="M112635 33428
L112708 33452
L112733 33476
L112757 33525
L112757 33598
L112733 33647
L112708 33671
L112660 33696
L112465 33696
L112465 33184
L112635 33184
L112684 33208
L112708 33233
L112733 33281
L112733 33330
L112708 33379
L112684 33403
L112635 33428
L112465 33428
" />
</g>
<g style="fill:#000000; fill-opacity:0.0; 
stroke:#000000; stroke-width:39.3701; stroke-opacity:1; 
stroke-linecap:round; stroke-linejoin:round;">
</g>
<g style="fill:#000000; fill-opacity:0.0; 
stroke:#000000; stroke-width:59.0551; stroke-opacity:1; 
stroke-linecap:round; stroke-linejoin:round;">
<path d="M112757 53332
L112733 53356
L112660 53381
L112611 53381
L112538 53356
L112489 53308
L112465 53259
L112440 53161
L112440 53088
L112465 52991
L112489 52942
L112538 52893
L112611 52869
L112660 52869
L112733 52893
L112757 52918
" />
</g>
<g style="fill:#000000; fill-opacity:0.0; 
stroke:#000000; stroke-width:39.3701; stroke-opacity:1; 
stroke-linecap:round; stroke-linejoin:round;">
</g>
<g style="fill:#000000; fill-opacity:0.0; 
stroke:#000000; stroke-width:59.0551; stroke-opacity:1; 
stroke-linecap:round; stroke-linejoin:round;">
<path d="M112465 73066
L112465 72554
L112587 72554
L112660 72578
L112708 72627
L112733 72676
L112757 72773
L112757 72846
L112733 72944
L112708 72993
L112660 73041
L112587 73066
L112465 73066
" />
</g>
<g style="fill:#000000; fill-opacity:0.0; 
stroke:#000000; stroke-width:39.3701; stroke-opacity:1; 
stroke-linecap:round; stroke-linejoin:round;">
</g>
<g style="fill:#000000; fill-opacity:0.0; 
stroke:#000000; stroke-width:59.0551; stroke-opacity:1; 
stroke-linecap:round; stroke-linejoin:round;">
<path d="M78881 76293
L78881 75703
L79022 75703
L79106 75731
L79162 75787
L79190 75843
L79219 75956
L79219 76040
L79190 76153
L79162 76209
L79106 76265
L79022 76293
L78881 76293
" />
<path d="M79725 76293
L79725 75984
L79697 75928
L79640 75899
L79528 75899
L79472 75928
" />
<path d="M79725 76265
L79669 76293
L79528 76293
L79472 76265
L79444 76209
L79444 76153
L79472 76096
L79528 76068
L79669 76068
L79725 76040
" />
<path d="M79922 75899
L80147 75899
" />
<path d="M80006 75703
L80006 76209
L80034 76265
L80090 76293
L80147 76293
" />
<path d="M80568 76265
L80512 76293
L80400 76293
L80343 76265
L80315 76209
L80315 75984
L80343 75928
L80400 75899
L80512 75899
L80568 75928
L80597 75984
L80597 76040
L80315 76096
" />
<path d="M80850 76237
L80878 76265
L80850 76293
L80822 76265
L80850 76237
L80850 76293
" />
<path d="M80850 75928
L80878 75956
L80850 75984
L80822 75956
L80850 75928
L80850 75984
" />
</g>
<g style="fill:#000000; fill-opacity:0.0; 
stroke:#000000; stroke-width:39.3701; stroke-opacity:1; 
stroke-linecap:round; stroke-linejoin:round;">
</g>
<g style="fill:#000000; fill-opacity:0.0; 
stroke:#000000; stroke-width:59.0551; stroke-opacity:1; 
stroke-linecap:round; stroke-linejoin:round;">
<path d="M69685 76577
L112205 76577
" />
</g>
<g style="fill:#000000; fill-opacity:0.0; 
stroke:#000000; stroke-width:39.3701; stroke-opacity:1; 
stroke-linecap:round; stroke-linejoin:round;">
</g>
<g style="fill:#000000; fill-opacity:0.0; 
stroke:#000000; stroke-width:59.0551; stroke-opacity:1; 
stroke-linecap:round; stroke-linejoin:round;">
<path d="M70220 77395
L70220 76805
" />
<path d="M70557 77395
L70304 77058
" />
<path d="M70557 76805
L70220 77142
" />
<path d="M70810 77395
L70810 77002
" />
<path d="M70810 76805
L70782 76833
L70810 76861
L70838 76833
L70810 76805
L70810 76861
" />
<path d="M71429 77339
L71401 77367
L71316 77395
L71260 77395
L71176 77367
L71120 77311
L71091 77255
L71063 77142
L71063 77058
L71091 76946
L71120 76889
L71176 76833
L71260 76805
L71316 76805
L71401 76833
L71429 76861
" />
<path d="M71935 77395
L71935 77086
L71907 77030
L71851 77002
L71738 77002
L71682 77030
" />
<path d="M71935 77367
L71879 77395
L71738 77395
L71682 77367
L71654 77311
L71654 77255
L71682 77199
L71738 77171
L71879 77171
L71935 77142
" />
<path d="M72469 77395
L72469 76805
" />
<path d="M72469 77367
L72413 77395
L72301 77395
L72244 77367
L72216 77339
L72188 77283
L72188 77114
L72216 77058
L72244 77030
L72301 77002
L72413 77002
L72469 77030
" />
<path d="M73201 77086
L73397 77086
" />
<path d="M73482 77395
L73201 77395
L73201 76805
L73482 76805
" />
<path d="M73735 77339
L73763 77367
L73735 77395
L73707 77367
L73735 77339
L73735 77395
" />
<path d="M74016 77395
L74016 76805
L74157 76805
L74241 76833
L74297 76889
L74325 76946
L74354 77058
L74354 77142
L74325 77255
L74297 77311
L74241 77367
L74157 77395
L74016 77395
" />
<path d="M74607 77339
L74635 77367
L74607 77395
L74579 77367
L74607 77339
L74607 77395
" />
<path d="M74860 77227
L75141 77227
" />
<path d="M74804 77395
L75000 76805
L75197 77395
" />
<path d="M75394 77339
L75422 77367
L75394 77395
L75366 77367
L75394 77339
L75394 77395
" />
<path d="M76575 77395
L76575 76805
" />
<path d="M76631 77171
L76800 77395
" />
<path d="M76800 77002
L76575 77227
" />
<path d="M77053 77395
L77053 77002
" />
<path d="M77053 76805
L77025 76833
L77053 76861
L77081 76833
L77053 76805
L77053 76861
" />
<path d="M77588 77367
L77531 77395
L77419 77395
L77363 77367
L77334 77339
L77306 77283
L77306 77114
L77334 77058
L77363 77030
L77419 77002
L77531 77002
L77588 77030
" />
<path d="M78094 77395
L78094 77086
L78066 77030
L78009 77002
L77897 77002
L77841 77030
" />
<path d="M78094 77367
L78037 77395
L77897 77395
L77841 77367
L77813 77311
L77813 77255
L77841 77199
L77897 77171
L78037 77171
L78094 77142
" />
<path d="M78628 77395
L78628 76805
" />
<path d="M78628 77367
L78572 77395
L78459 77395
L78403 77367
L78375 77339
L78347 77283
L78347 77114
L78375 77058
L78403 77030
L78459 77002
L78572 77002
L78628 77030
" />
<path d="M79612 77002
L79612 77395
" />
<path d="M79472 76777
L79331 77199
L79697 77199
" />
<path d="M79922 77339
L79950 77367
L79922 77395
L79894 77367
L79922 77339
L79922 77395
" />
<path d="M80315 76805
L80372 76805
L80428 76833
L80456 76861
L80484 76917
L80512 77030
L80512 77171
L80484 77283
L80456 77339
L80428 77367
L80372 77395
L80315 77395
L80259 77367
L80231 77339
L80203 77283
L80175 77171
L80175 77030
L80203 76917
L80231 76861
L80259 76833
L80315 76805
" />
<path d="M80765 77339
L80793 77367
L80765 77395
L80737 77367
L80765 77339
L80765 77395
" />
<path d="M81300 76805
L81187 76805
L81131 76833
L81103 76861
L81046 76946
L81018 77058
L81018 77283
L81046 77339
L81075 77367
L81131 77395
L81243 77395
L81300 77367
L81328 77339
L81356 77283
L81356 77142
L81328 77086
L81300 77058
L81243 77030
L81131 77030
L81075 77058
L81046 77086
L81018 77142
" />
</g>
<g style="fill:#000000; fill-opacity:0.0; 
stroke:#000000; stroke-width:39.3701; stroke-opacity:1; 
stroke-linecap:round; stroke-linejoin:round;">
</g>
<g style="fill:#000000; fill-opacity:0.0; 
stroke:#000000; stroke-width:59.0551; stroke-opacity:1; 
stroke-linecap:round; stroke-linejoin:round;">
<path d="M69685 75396
L112205 75396
" />
</g>
<g style="fill:#000000; fill-opacity:0.0; 
stroke:#000000; stroke-width:39.3701; stroke-opacity:1; 
stroke-linecap:round; stroke-linejoin:round;">
</g>
<g style="fill:#000000; fill-opacity:0.0; 
stroke:#000000; stroke-width:118.11; stroke-opacity:1; 
stroke-linecap:round; stroke-linejoin:round;">
<path d="M104022 76293
L103825 76012
" />
<path d="M103684 76293
L103684 75703
L103909 75703
L103965 75731
L103994 75759
L104022 75815
L104022 75899
L103994 75956
L103965 75984
L103909 76012
L103684 76012
" />
<path d="M104500 76265
L104444 76293
L104331 76293
L104275 76265
L104247 76209
L104247 75984
L104275 75928
L104331 75899
L104444 75899
L104500 75928
L104528 75984
L104528 76040
L104247 76096
" />
<path d="M104725 75899
L104865 76293
L105006 75899
" />
<path d="M105231 76237
L105259 76265
L105231 76293
L105203 76265
L105231 76237
L105231 76293
" />
<path d="M105231 75928
L105259 75956
L105231 75984
L105203 75956
L105231 75928
L105231 75984
" />
</g>
<g style="fill:#000000; fill-opacity:0.0; 
stroke:#000000; stroke-width:39.3701; stroke-opacity:1; 
stroke-linecap:round; stroke-linejoin:round;">
</g>
<g style="fill:#000000; fill-opacity:0.0; 
stroke:#000000; stroke-width:59.0551; stroke-opacity:1; 
stroke-linecap:round; stroke-linejoin:round;">
<path d="M70192 76265
L70276 76293
L70417 76293
L70473 76265
L70501 76237
L70529 76181
L70529 76124
L70501 76068
L70473 76040
L70417 76012
L70304 75984
L70248 75956
L70220 75928
L70192 75871
L70192 75815
L70220 75759
L70248 75731
L70304 75703
L70445 75703
L70529 75731
" />
<path d="M70782 76293
L70782 75899
" />
<path d="M70782 75703
L70754 75731
L70782 75759
L70810 75731
L70782 75703
L70782 75759
" />
<path d="M71007 75899
L71316 75899
L71007 76293
L71316 76293
" />
<path d="M71766 76265
L71710 76293
L71598 76293
L71541 76265
L71513 76209
L71513 75984
L71541 75928
L71598 75899
L71710 75899
L71766 75928
L71795 75984
L71795 76040
L71513 76096
" />
<path d="M72048 76237
L72076 76265
L72048 76293
L72019 76265
L72048 76237
L72048 76293
" />
<path d="M72048 75928
L72076 75956
L72048 75984
L72019 75956
L72048 75928
L72048 75984
" />
<path d="M72751 76124
L73032 76124
" />
<path d="M72694 76293
L72891 75703
L73088 76293
" />
<path d="M73538 75899
L73538 76293
" />
<path d="M73397 75674
L73257 76096
L73622 76096
" />
</g>
<g style="fill:#000000; fill-opacity:0.0; 
stroke:#000000; stroke-width:39.3701; stroke-opacity:1; 
stroke-linecap:round; stroke-linejoin:round;">
</g>
<g style="fill:#000000; fill-opacity:0.0; 
stroke:#000000; stroke-width:59.0551; stroke-opacity:1; 
stroke-linecap:round; stroke-linejoin:round;">
<path d="M103684 77395
L103684 76805
" />
<path d="M104219 77395
L104219 76805
" />
<path d="M104219 77367
L104162 77395
L104050 77395
L103994 77367
L103965 77339
L103937 77283
L103937 77114
L103965 77058
L103994 77030
L104050 77002
L104162 77002
L104219 77030
" />
<path d="M104500 77339
L104528 77367
L104500 77395
L104472 77367
L104500 77339
L104500 77395
" />
<path d="M104500 77030
L104528 77058
L104500 77086
L104472 77058
L104500 77030
L104500 77086
" />
<path d="M105540 77395
L105203 77395
" />
<path d="M105372 77395
L105372 76805
L105315 76889
L105259 76946
L105203 76974
" />
<path d="M106215 76777
L105709 77536
" />
<path d="M106721 77395
L106384 77395
" />
<path d="M106553 77395
L106553 76805
L106496 76889
L106440 76946
L106384 76974
" />
</g>
<g style="fill:#000000; fill-opacity:0.0; 
stroke:#000000; stroke-width:39.3701; stroke-opacity:1; 
stroke-linecap:round; stroke-linejoin:round;">
</g>
<g style="fill:#000000; fill-opacity:0.0; 
stroke:#000000; stroke-width:59.0551; stroke-opacity:1; 
stroke-linecap:round; stroke-linejoin:round;">
<path d="M69685 73821
L112205 73821
" />
</g>
<g style="fill:#000000; fill-opacity:0.0; 
stroke:#000000; stroke-width:39.3701; stroke-opacity:1; 
stroke-linecap:round; stroke-linejoin:round;">
</g>
<g style="fill:#000000; fill-opacity:0.0; 
stroke:#000000; stroke-width:157.48; stroke-opacity:1; 
stroke-linecap:round; stroke-linejoin:round;">
<path d="M70257 74099
L70707 74099
" />
<path d="M70384 74886
L70482 74099
" />
<path d="M70871 74886
L70937 74361
" />
<path d="M70970 74099
L70927 74136
L70960 74174
L71002 74136
L70970 74099
L70960 74174
" />
<path d="M71199 74361
L71499 74361
" />
<path d="M71345 74099
L71260 74774
L71288 74849
L71359 74886
L71434 74886
" />
<path d="M71809 74886
L71738 74849
L71710 74774
L71795 74099
" />
<path d="M72413 74849
L72334 74886
L72184 74886
L72113 74849
L72085 74774
L72123 74474
L72169 74399
L72249 74361
L72399 74361
L72469 74399
L72498 74474
L72488 74549
L72104 74624
" />
<path d="M72793 74811
L72826 74849
L72783 74886
L72751 74849
L72793 74811
L72783 74886
" />
<path d="M72844 74399
L72877 74436
L72835 74474
L72802 74436
L72844 74399
L72835 74474
" />
</g>
<g style="fill:#000000; fill-opacity:0.0; 
stroke:#000000; stroke-width:39.3701; stroke-opacity:1; 
stroke-linecap:round; stroke-linejoin:round;">
</g>
<g style="fill:#000000; fill-opacity:0.0; 
stroke:#000000; stroke-width:59.0551; stroke-opacity:1; 
stroke-linecap:round; stroke-linejoin:round;">
<path d="M70417 73070
L70220 73070
" />
<path d="M70220 73380
L70220 72789
L70501 72789
" />
<path d="M70726 73380
L70726 72986
" />
<path d="M70726 72789
L70698 72817
L70726 72845
L70754 72817
L70726 72789
L70726 72845
" />
<path d="M71091 73380
L71035 73352
L71007 73295
L71007 72789
" />
<path d="M71541 73352
L71485 73380
L71373 73380
L71316 73352
L71288 73295
L71288 73070
L71316 73014
L71373 72986
L71485 72986
L71541 73014
L71570 73070
L71570 73127
L71288 73183
" />
<path d="M71823 73323
L71851 73352
L71823 73380
L71795 73352
L71823 73323
L71823 73380
" />
<path d="M71823 73014
L71851 73042
L71823 73070
L71795 73042
L71823 73014
L71823 73070
" />
<path d="M72554 73380
L72554 72986
" />
<path d="M72554 73042
L72582 73014
L72638 72986
L72723 72986
L72779 73014
L72807 73070
L72807 73380
" />
<path d="M72807 73070
L72835 73014
L72891 72986
L72976 72986
L73032 73014
L73060 73070
L73060 73380
" />
<path d="M73426 73380
L73369 73352
L73341 73323
L73313 73267
L73313 73099
L73341 73042
L73369 73014
L73426 72986
L73510 72986
L73566 73014
L73594 73042
L73622 73099
L73622 73267
L73594 73323
L73566 73352
L73510 73380
L73426 73380
" />
<path d="M74129 73380
L74129 72789
" />
<path d="M74129 73352
L74072 73380
L73960 73380
L73904 73352
L73876 73323
L73847 73267
L73847 73099
L73876 73042
L73904 73014
L73960 72986
L74072 72986
L74129 73014
" />
<path d="M74663 72986
L74663 73380
" />
<path d="M74410 72986
L74410 73295
L74438 73352
L74494 73380
L74579 73380
L74635 73352
L74663 73323
" />
<path d="M75028 73380
L74972 73352
L74944 73295
L74944 72789
" />
<path d="M75507 73380
L75507 73070
L75478 73014
L75422 72986
L75310 72986
L75253 73014
" />
<path d="M75507 73352
L75450 73380
L75310 73380
L75253 73352
L75225 73295
L75225 73239
L75253 73183
L75310 73155
L75450 73155
L75507 73127
" />
<path d="M75788 73380
L75788 72986
" />
<path d="M75788 73099
L75816 73042
L75844 73014
L75900 72986
L75956 72986
" />
<path d="M76013 73436
L76463 73436
" />
<path d="M76828 73352
L76772 73380
L76660 73380
L76603 73352
L76575 73295
L76575 73070
L76603 73014
L76660 72986
L76772 72986
L76828 73014
L76856 73070
L76856 73127
L76575 73183
" />
<path d="M77081 73352
L77138 73380
L77250 73380
L77306 73352
L77334 73295
L77334 73267
L77306 73211
L77250 73183
L77166 73183
L77109 73155
L77081 73099
L77081 73070
L77109 73014
L77166 72986
L77250 72986
L77306 73014
" />
<path d="M77588 73380
L77588 72986
" />
<path d="M77588 72789
L77559 72817
L77588 72845
L77616 72817
L77588 72789
L77588 72845
" />
<path d="M78122 73380
L78122 72789
" />
<path d="M78122 73352
L78066 73380
L77953 73380
L77897 73352
L77869 73323
L77841 73267
L77841 73099
L77869 73042
L77897 73014
L77953 72986
L78066 72986
L78122 73014
" />
<path d="M78628 73352
L78572 73380
L78459 73380
L78403 73352
L78375 73295
L78375 73070
L78403 73014
L78459 72986
L78572 72986
L78628 73014
L78656 73070
L78656 73127
L78375 73183
" />
<path d="M78769 73436
L79219 73436
" />
<path d="M79359 73380
L79359 72986
" />
<path d="M79359 73099
L79387 73042
L79415 73014
L79472 72986
L79528 72986
" />
<path d="M79950 73352
L79894 73380
L79781 73380
L79725 73352
L79697 73295
L79697 73070
L79725 73014
L79781 72986
L79894 72986
L79950 73014
L79978 73070
L79978 73127
L79697 73183
" />
<path d="M80175 72986
L80315 73380
L80456 72986
" />
<path d="M80765 73042
L80709 73014
L80681 72986
L80653 72930
L80653 72902
L80681 72845
L80709 72817
L80765 72789
L80878 72789
L80934 72817
L80962 72845
L80990 72902
L80990 72930
L80962 72986
L80934 73014
L80878 73042
L80765 73042
L80709 73070
L80681 73099
L80653 73155
L80653 73267
L80681 73323
L80709 73352
L80765 73380
L80878 73380
L80934 73352
L80962 73323
L80990 73267
L80990 73155
L80962 73099
L80934 73070
L80878 73042
" />
<path d="M81243 73323
L81271 73352
L81243 73380
L81215 73352
L81243 73323
L81243 73380
" />
<path d="M81525 73380
L81525 72789
" />
<path d="M81581 73155
L81750 73380
" />
<path d="M81750 72986
L81525 73211
" />
<path d="M82003 73380
L82003 72986
" />
<path d="M82003 72789
L81974 72817
L82003 72845
L82031 72817
L82003 72789
L82003 72845
" />
<path d="M82537 73352
L82481 73380
L82368 73380
L82312 73352
L82284 73323
L82256 73267
L82256 73099
L82284 73042
L82312 73014
L82368 72986
L82481 72986
L82537 73014
" />
<path d="M83043 73380
L83043 73070
L83015 73014
L82959 72986
L82846 72986
L82790 73014
" />
<path d="M83043 73352
L82987 73380
L82846 73380
L82790 73352
L82762 73295
L82762 73239
L82790 73183
L82846 73155
L82987 73155
L83043 73127
" />
<path d="M83577 73380
L83577 72789
" />
<path d="M83577 73352
L83521 73380
L83409 73380
L83352 73352
L83324 73323
L83296 73267
L83296 73099
L83324 73042
L83352 73014
L83409 72986
L83521 72986
L83577 73014
" />
<path d="M83718 73436
L84168 73436
" />
<path d="M84309 72986
L84309 73577
" />
<path d="M84309 73014
L84365 72986
L84477 72986
L84534 73014
L84562 73042
L84590 73099
L84590 73267
L84562 73323
L84534 73352
L84477 73380
L84365 73380
L84309 73352
" />
<path d="M85096 73352
L85040 73380
L84927 73380
L84871 73352
L84843 73323
L84815 73267
L84815 73099
L84843 73042
L84871 73014
L84927 72986
L85040 72986
L85096 73014
" />
<path d="M85349 73380
L85349 72789
" />
<path d="M85349 73014
L85405 72986
L85518 72986
L85574 73014
L85602 73042
L85630 73099
L85630 73267
L85602 73323
L85574 73352
L85518 73380
L85405 73380
L85349 73352
" />
</g>
<g style="fill:#000000; fill-opacity:0.0; 
stroke:#000000; stroke-width:39.3701; stroke-opacity:1; 
stroke-linecap:round; stroke-linejoin:round;">
</g>
<g style="fill:#000000; fill-opacity:0.0; 
stroke:#000000; stroke-width:59.0551; stroke-opacity:1; 
stroke-linecap:round; stroke-linejoin:round;">
<path d="M69685 71459
L112205 71459
" />
</g>
<g style="fill:#000000; fill-opacity:0.0; 
stroke:#000000; stroke-width:39.3701; stroke-opacity:1; 
stroke-linecap:round; stroke-linejoin:round;">
</g>
<g style="fill:#000000; fill-opacity:0.0; 
stroke:#000000; stroke-width:59.0551; stroke-opacity:1; 
stroke-linecap:round; stroke-linejoin:round;">
<path d="M70192 72289
L70276 72317
L70417 72317
L70473 72289
L70501 72260
L70529 72204
L70529 72148
L70501 72092
L70473 72064
L70417 72036
L70304 72007
L70248 71979
L70220 71951
L70192 71895
L70192 71839
L70220 71782
L70248 71754
L70304 71726
L70445 71726
L70529 71754
" />
<path d="M70782 72317
L70782 71726
" />
<path d="M71035 72317
L71035 72007
L71007 71951
L70951 71923
L70867 71923
L70810 71951
L70782 71979
" />
<path d="M71541 72289
L71485 72317
L71373 72317
L71316 72289
L71288 72232
L71288 72007
L71316 71951
L71373 71923
L71485 71923
L71541 71951
L71570 72007
L71570 72064
L71288 72120
" />
<path d="M72048 72289
L71991 72317
L71879 72317
L71823 72289
L71795 72232
L71795 72007
L71823 71951
L71879 71923
L71991 71923
L72048 71951
L72076 72007
L72076 72064
L71795 72120
" />
<path d="M72244 71923
L72469 71923
" />
<path d="M72329 71726
L72329 72232
L72357 72289
L72413 72317
L72469 72317
" />
<path d="M72666 72260
L72694 72289
L72666 72317
L72638 72289
L72666 72260
L72666 72317
" />
<path d="M72666 71951
L72694 71979
L72666 72007
L72638 71979
L72666 71951
L72666 72007
" />
</g>
<g style="fill:#000000; fill-opacity:0.0; 
stroke:#000000; stroke-width:39.3701; stroke-opacity:1; 
stroke-linecap:round; stroke-linejoin:round;">
</g>
<g style="fill:#000000; fill-opacity:0.0; 
stroke:#000000; stroke-width:59.0551; stroke-opacity:1; 
stroke-linecap:round; stroke-linejoin:round;">
<path d="M77559 75396
L77559 76577
" />
</g>
<g style="fill:#000000; fill-opacity:0.0; 
stroke:#000000; stroke-width:39.3701; stroke-opacity:1; 
stroke-linecap:round; stroke-linejoin:round;">
</g>
<g style="fill:#000000; fill-opacity:0.0; 
stroke:#000000; stroke-width:59.0551; stroke-opacity:1; 
stroke-linecap:round; stroke-linejoin:round;">
<path d="M102756 75396
L102756 77955
" />
</g>
<g style="fill:#C2C200; fill-opacity:0.0; 
stroke:#C2C200; stroke-width:59.0551; stroke-opacity:1; 
stroke-linecap:round; stroke-linejoin:round;">
<path d="M69685 19291
L97834 19291
" />
<path d="M68503 20472
L68503 37007
" />
<path d="M97834 38188
L69685 38188
" />
<path d="M99015 20472
L99015 37007
" />
<path d="M68503.9 37007.9 A1181.1 1181.1 0.0 0 0 69685 38189 " />
<path d="M97834.6 38189 A1181.1 1181.1 0.0 0 0 99015.7 37007.9 " />
<path d="M99015.7 20472.4 A1181.1 1181.1 0.0 0 0 97834.6 19291.3 " />
<path d="M69685 19291.3 A1181.1 1181.1 0.0 0 0 68503.9 20472.4 " />
<path d="M92139 34193
L92007 34006
" />
<path d="M91914 34193
L91914 33800
L92064 33800
L92101 33818
L92120 33837
L92139 33875
L92139 33931
L92120 33968
L92101 33987
L92064 34006
L91914 34006
" />
<path d="M92476 33931
L92476 34193
" />
<path d="M92382 33781
L92289 34062
L92532 34062
" />
<path d="M75013 33288
L74881 33100
" />
<path d="M74788 33288
L74788 32894
L74938 32894
L74975 32913
L74994 32932
L75013 32969
L75013 33025
L74994 33063
L74975 33082
L74938 33100
L74788 33100
" />
<path d="M75238 33063
L75200 33044
L75181 33025
L75163 32988
L75163 32969
L75181 32932
L75200 32913
L75238 32894
L75313 32894
L75350 32913
L75369 32932
L75388 32969
L75388 32988
L75369 33025
L75350 33044
L75313 33063
L75238 33063
L75200 33082
L75181 33100
L75163 33138
L75163 33213
L75181 33250
L75200 33269
L75238 33288
L75313 33288
L75350 33269
L75369 33250
L75388 33213
L75388 33138
L75369 33100
L75350 33082
L75313 33063
" />
<path d="M77268 35217
L77268 34823
L77362 34823
L77418 34842
L77455 34880
L77474 34917
L77493 34992
L77493 35048
L77474 35123
L77455 35161
L77418 35198
L77362 35217
L77268 35217
" />
<path d="M77624 34823
L77868 34823
L77737 34973
L77793 34973
L77830 34992
L77849 35011
L77868 35048
L77868 35142
L77849 35179
L77830 35198
L77793 35217
L77680 35217
L77643 35198
L77624 35179
" />
<path d="M76481 35256
L76481 34863
L76574 34863
L76631 34881
L76668 34919
L76687 34956
L76706 35031
L76706 35088
L76687 35163
L76668 35200
L76631 35238
L76574 35256
L76481 35256
" />
<path d="M77043 34994
L77043 35256
" />
<path d="M76949 34844
L76856 35125
L77099 35125
" />
<path d="M75693 35256
L75693 34863
L75787 34863
L75843 34881
L75881 34919
L75899 34956
L75918 35031
L75918 35088
L75899 35163
L75881 35200
L75843 35238
L75787 35256
L75693 35256
" />
<path d="M76274 34863
L76087 34863
L76068 35050
L76087 35031
L76124 35013
L76218 35013
L76256 35031
L76274 35050
L76293 35088
L76293 35181
L76274 35219
L76256 35238
L76218 35256
L76124 35256
L76087 35238
L76068 35219
" />
<path d="M74906 35256
L74906 34863
L75000 34863
L75056 34881
L75093 34919
L75112 34956
L75131 35031
L75131 35088
L75112 35163
L75093 35200
L75056 35238
L75000 35256
L74906 35256
" />
<path d="M75468 34863
L75393 34863
L75356 34881
L75337 34900
L75299 34956
L75281 35031
L75281 35181
L75299 35219
L75318 35238
L75356 35256
L75431 35256
L75468 35238
L75487 35219
L75506 35181
L75506 35088
L75487 35050
L75468 35031
L75431 35013
L75356 35013
L75318 35031
L75299 35050
L75281 35088
" />
<path d="M74118 35296
L74118 34902
L74212 34902
L74268 34921
L74306 34958
L74325 34996
L74343 35071
L74343 35127
L74325 35202
L74306 35239
L74268 35277
L74212 35296
L74118 35296
" />
<path d="M74475 34902
L74737 34902
L74568 35296
" />
<path d="M76145 33288
L76014 33100
" />
<path d="M75920 33288
L75920 32894
L76070 32894
L76107 32913
L76126 32932
L76145 32969
L76145 33025
L76126 33063
L76107 33082
L76070 33100
L75920 33100
" />
<path d="M76314 33288
L76314 32894
L76539 33288
L76539 32894
" />
<path d="M76932 33288
L76707 33288
" />
<path d="M76820 33288
L76820 32894
L76782 32950
L76745 32988
L76707 33007
" />
<path d="M95142 34626
L95142 34233
L95236 34233
L95292 34251
L95329 34289
L95348 34326
L95367 34401
L95367 34458
L95348 34533
L95329 34570
L95292 34608
L95236 34626
L95142 34626
" />
<path d="M95592 34401
L95554 34383
L95536 34364
L95517 34326
L95517 34308
L95536 34270
L95554 34251
L95592 34233
L95667 34233
L95704 34251
L95723 34270
L95742 34308
L95742 34326
L95723 34364
L95704 34383
L95667 34401
L95592 34401
L95554 34420
L95536 34439
L95517 34476
L95517 34551
L95536 34589
L95554 34608
L95592 34626
L95667 34626
L95704 34608
L95723 34589
L95742 34551
L95742 34476
L95723 34439
L95704 34420
L95667 34401
" />
<path d="M88093 21128
L88112 21147
L88130 21203
L88130 21241
L88112 21297
L88074 21334
L88037 21353
L87962 21372
L87905 21372
L87830 21353
L87793 21334
L87755 21297
L87737 21241
L87737 21203
L87755 21147
L87774 21128
" />
<path d="M88130 20753
L88130 20978
" />
<path d="M88130 20866
L87737 20866
L87793 20903
L87830 20941
L87849 20978
" />
<path d="M91272 24668
L91254 24686
L91197 24705
L91160 24705
L91104 24686
L91066 24649
L91047 24611
L91029 24536
L91029 24480
L91047 24405
L91066 24368
L91104 24330
L91160 24311
L91197 24311
L91254 24330
L91272 24349
" />
<path d="M91422 24349
L91441 24330
L91479 24311
L91572 24311
L91610 24330
L91629 24349
L91647 24386
L91647 24424
L91629 24480
L91404 24705
L91647 24705
" />
<path d="M97099 34156
L97080 34175
L97024 34193
L96987 34193
L96931 34175
L96893 34137
L96874 34100
L96856 34025
L96856 33968
L96874 33893
L96893 33856
L96931 33818
L96987 33800
L97024 33800
L97080 33818
L97099 33837
" />
<path d="M97230 33800
L97474 33800
L97343 33950
L97399 33950
L97437 33968
L97455 33987
L97474 34025
L97474 34118
L97455 34156
L97437 34175
L97399 34193
L97287 34193
L97249 34175
L97230 34156
" />
<path d="M72965 25140
L72947 25159
L72890 25178
L72853 25178
L72797 25159
L72759 25121
L72740 25084
L72722 25009
L72722 24953
L72740 24878
L72759 24840
L72797 24803
L72853 24784
L72890 24784
L72947 24803
L72965 24821
" />
<path d="M73097 24784
L73359 24784
L73190 25178
" />
<path d="M90841 21162
L90841 21481
L90860 21518
L90879 21537
L90916 21556
L90991 21556
L91029 21537
L91047 21518
L91066 21481
L91066 21162
" />
<path d="M91460 21556
L91235 21556
" />
<path d="M91347 21556
L91347 21162
L91310 21218
L91272 21256
L91235 21274
" />
<path d="M93290 34587
L93158 34400
" />
<path d="M93065 34587
L93065 34193
L93215 34193
L93252 34212
L93271 34231
L93290 34268
L93290 34325
L93271 34362
L93252 34381
L93215 34400
L93065 34400
" />
<path d="M93440 34231
L93458 34212
L93496 34193
L93590 34193
L93627 34212
L93646 34231
L93665 34268
L93665 34306
L93646 34362
L93421 34587
L93665 34587
" />
<path d="M94040 34587
L93815 34587
" />
<path d="M93927 34587
L93927 34193
L93890 34250
L93852 34287
L93815 34306
" />
<path d="M97808 31319
L97677 31132
" />
<path d="M97583 31319
L97583 30926
L97733 30926
L97770 30944
L97789 30963
L97808 31001
L97808 31057
L97789 31094
L97770 31113
L97733 31132
L97583 31132
" />
<path d="M98164 30926
L97977 30926
L97958 31113
L97977 31094
L98014 31076
L98108 31076
L98145 31094
L98164 31113
L98183 31151
L98183 31244
L98164 31282
L98145 31301
L98108 31319
L98014 31319
L97977 31301
L97958 31282
" />
<path d="M71991 24508
L71859 24321
" />
<path d="M71766 24508
L71766 24115
L71916 24115
L71953 24133
L71972 24152
L71991 24190
L71991 24246
L71972 24283
L71953 24302
L71916 24321
L71766 24321
" />
<path d="M72140 24152
L72159 24133
L72197 24115
L72290 24115
L72328 24133
L72347 24152
L72365 24190
L72365 24227
L72347 24283
L72122 24508
L72365 24508
" />
<path d="M72515 24152
L72534 24133
L72572 24115
L72665 24115
L72703 24133
L72722 24152
L72740 24190
L72740 24227
L72722 24283
L72497 24508
L72740 24508
" />
<path d="M92296 36437
L92165 36250
" />
<path d="M92071 36437
L92071 36044
L92221 36044
L92259 36062
L92277 36081
L92296 36119
L92296 36175
L92277 36212
L92259 36231
L92221 36250
L92071 36250
" />
<path d="M92427 36044
L92690 36044
L92521 36437
" />
<path d="M86115 20217
L85984 20029
" />
<path d="M85890 20217
L85890 19823
L86040 19823
L86077 19842
L86096 19861
L86115 19898
L86115 19955
L86096 19992
L86077 20011
L86040 20029
L85890 20029
" />
<path d="M86452 19823
L86377 19823
L86340 19842
L86321 19861
L86284 19917
L86265 19992
L86265 20142
L86284 20179
L86302 20198
L86340 20217
L86415 20217
L86452 20198
L86471 20179
L86490 20142
L86490 20048
L86471 20011
L86452 19992
L86415 19973
L86340 19973
L86302 19992
L86284 20011
L86265 20048
" />
<path d="M89154 21128
L88967 21259
" />
<path d="M89154 21353
L88760 21353
L88760 21203
L88779 21166
L88798 21147
L88835 21128
L88892 21128
L88929 21147
L88948 21166
L88967 21203
L88967 21353
" />
<path d="M89154 20753
L89154 20978
" />
<path d="M89154 20866
L88760 20866
L88817 20903
L88854 20941
L88873 20978
" />
<path d="M78250 31792
L78119 31604
" />
<path d="M78025 31792
L78025 31398
L78175 31398
L78213 31417
L78232 31436
L78250 31473
L78250 31529
L78232 31567
L78213 31586
L78175 31604
L78025 31604
" />
<path d="M78400 31436
L78419 31417
L78457 31398
L78550 31398
L78588 31417
L78607 31436
L78625 31473
L78625 31511
L78607 31567
L78382 31792
L78625 31792
" />
<path d="M78757 31398
L79000 31398
L78869 31548
L78925 31548
L78963 31567
L78982 31586
L79000 31623
L79000 31717
L78982 31754
L78963 31773
L78925 31792
L78813 31792
L78775 31773
L78757 31754
" />
<path d="M72935 24075
L72804 23888
" />
<path d="M72710 24075
L72710 23682
L72860 23682
L72898 23700
L72917 23719
L72935 23757
L72935 23813
L72917 23850
L72898 23869
L72860 23888
L72710 23888
" />
<path d="M73310 24075
L73085 24075
" />
<path d="M73198 24075
L73198 23682
L73160 23738
L73123 23775
L73085 23794
" />
<path d="M73442 23682
L73704 23682
L73535 24075
" />
<path d="M94304 24036
L94173 23848
" />
<path d="M94079 24036
L94079 23642
L94229 23642
L94266 23661
L94285 23680
L94304 23717
L94304 23773
L94285 23811
L94266 23830
L94229 23848
L94079 23848
" />
<path d="M94435 23642
L94679 23642
L94548 23792
L94604 23792
L94641 23811
L94660 23830
L94679 23867
L94679 23961
L94660 23998
L94641 24017
L94604 24036
L94491 24036
L94454 24017
L94435 23998
" />
<path d="M94304 21595
L94173 21407
" />
<path d="M94079 21595
L94079 21201
L94229 21201
L94266 21220
L94285 21239
L94304 21276
L94304 21332
L94285 21370
L94266 21389
L94229 21407
L94079 21407
" />
<path d="M94454 21239
L94473 21220
L94510 21201
L94604 21201
L94641 21220
L94660 21239
L94679 21276
L94679 21314
L94660 21370
L94435 21595
L94679 21595
" />
<path d="M92049 32341
L92011 32322
L91974 32285
L91917 32229
L91880 32210
L91842 32210
" />
<path d="M91861 32304
L91824 32285
L91786 32247
L91767 32172
L91767 32041
L91786 31966
L91824 31929
L91861 31910
L91936 31910
L91974 31929
L92011 31966
L92030 32041
L92030 32172
L92011 32247
L91974 32285
L91936 32304
L91861 32304
" />
<path d="M92405 32304
L92180 32304
" />
<path d="M92292 32304
L92292 31910
L92255 31966
L92217 32004
L92180 32022
" />
<path d="M95693 21890
L95693 21497
L95787 21497
L95843 21515
L95881 21553
L95899 21590
L95918 21665
L95918 21721
L95899 21796
L95881 21834
L95843 21871
L95787 21890
L95693 21890
" />
<path d="M96293 21890
L96068 21890
" />
<path d="M96181 21890
L96181 21497
L96143 21553
L96106 21590
L96068 21609
" />
<path d="M95693 22756
L95693 22363
L95787 22363
L95843 22381
L95881 22419
L95899 22456
L95918 22531
L95918 22588
L95899 22663
L95881 22700
L95843 22738
L95787 22756
L95693 22756
" />
<path d="M96068 22400
L96087 22381
L96124 22363
L96218 22363
L96256 22381
L96274 22400
L96293 22438
L96293 22475
L96274 22531
L96049 22756
L96293 22756
" />
<path d="M78095 33248
L78095 32855
L78188 32855
L78245 32874
L78282 32911
L78301 32949
L78320 33023
L78320 33080
L78301 33155
L78282 33192
L78245 33230
L78188 33248
L78095 33248
" />
<path d="M78507 33248
L78582 33248
L78620 33230
L78638 33211
L78676 33155
L78695 33080
L78695 32930
L78676 32892
L78657 32874
L78620 32855
L78545 32855
L78507 32874
L78488 32892
L78470 32930
L78470 33023
L78488 33061
L78507 33080
L78545 33098
L78620 33098
L78657 33080
L78676 33061
L78695 33023
" />
<path d="M96655 33517
L96674 33460
L96674 33367
L96655 33329
L96636 33310
L96599 33292
L96561 33292
L96524 33310
L96505 33329
L96486 33367
L96467 33442
L96449 33479
L96430 33498
L96392 33517
L96355 33517
L96317 33498
L96299 33479
L96280 33442
L96280 33348
L96299 33292
" />
<path d="M96280 33160
L96674 33067
L96392 32992
L96674 32917
L96280 32823
" />
<path d="M96674 32467
L96674 32692
" />
<path d="M96674 32579
L96280 32579
L96336 32617
L96374 32654
L96392 32692
" />
<path d="M68608 23663
L68665 23682
L68758 23682
L68796 23663
L68815 23644
L68833 23607
L68833 23569
L68815 23532
L68796 23513
L68758 23494
L68683 23475
L68646 23457
L68627 23438
L68608 23400
L68608 23363
L68627 23325
L68646 23307
L68683 23288
L68777 23288
L68833 23307
" />
<path d="M68965 23288
L69058 23682
L69133 23400
L69208 23682
L69302 23288
" />
<path d="M69433 23325
L69452 23307
L69490 23288
L69583 23288
L69621 23307
L69640 23325
L69658 23363
L69658 23400
L69640 23457
L69415 23682
L69658 23682
" />
<path d="M78831 37887
L79112 37887
L79169 37905
L79206 37943
L79225 37999
L79225 38037
" />
<path d="M78962 37530
L79225 37530
" />
<path d="M78812 37624
L79094 37718
L79094 37474
" />
<path d="M93044 19855
L93325 19855
L93381 19874
L93419 19911
L93437 19968
L93437 20005
" />
<path d="M93044 19499
L93044 19574
L93062 19611
L93081 19630
L93137 19668
L93212 19686
L93362 19686
L93400 19668
L93419 19649
L93437 19611
L93437 19536
L93419 19499
L93400 19480
L93362 19461
L93269 19461
L93231 19480
L93212 19499
L93194 19536
L93194 19611
L93212 19649
L93231 19668
L93269 19686
" />
<path d="M93044 38074
L93325 38074
L93381 38093
L93419 38130
L93437 38187
L93437 38224
" />
<path d="M93437 37680
L93437 37905
" />
<path d="M93437 37793
L93044 37793
L93100 37830
L93137 37868
L93156 37905
" />
<path d="M93044 37437
L93044 37399
L93062 37362
L93081 37343
L93119 37324
L93194 37305
L93287 37305
L93362 37324
L93400 37343
L93419 37362
L93437 37399
L93437 37437
L93419 37474
L93400 37493
L93362 37512
L93287 37530
L93194 37530
L93119 37512
L93081 37493
L93062 37474
L93044 37437
" />
<path d="M78831 20043
L79112 20043
L79169 20061
L79206 20099
L79225 20155
L79225 20193
" />
<path d="M79225 19649
L79225 19874
" />
<path d="M79225 19761
L78831 19761
L78887 19799
L78925 19836
L78944 19874
" />
<path d="M78869 19499
L78850 19480
L78831 19443
L78831 19349
L78850 19311
L78869 19293
L78906 19274
L78944 19274
L79000 19293
L79225 19518
L79225 19274
" />
<path d="M70881 26280
L70881 26599
L70899 26636
L70918 26655
L70956 26674
L71031 26674
L71068 26655
L71087 26636
L71106 26599
L71106 26280
" />
<path d="M71274 26317
L71293 26299
L71331 26280
L71424 26280
L71462 26299
L71481 26317
L71499 26355
L71499 26392
L71481 26449
L71256 26674
L71499 26674
" />
<path d="M79904 29435
L79923 29454
L79941 29510
L79941 29548
L79923 29604
L79885 29641
L79848 29660
L79773 29679
L79716 29679
L79641 29660
L79604 29641
L79566 29604
L79548 29548
L79548 29510
L79566 29454
L79585 29435
" />
<path d="M79548 29098
L79548 29173
L79566 29210
L79585 29229
L79641 29266
L79716 29285
L79866 29285
L79904 29266
L79923 29248
L79941 29210
L79941 29135
L79923 29098
L79904 29079
L79866 29060
L79773 29060
L79735 29079
L79716 29098
L79698 29135
L79698 29210
L79716 29248
L79735 29266
L79773 29285
" />
<path d="M80138 28648
L80138 28835
L79745 28835
" />
<path d="M80138 28310
L80138 28535
" />
<path d="M80138 28423
L79745 28423
L79801 28460
L79838 28498
L79857 28535
" />
<path d="M81081 36021
L81062 36059
L81025 36096
L80969 36152
L80950 36190
L80950 36227
" />
<path d="M81044 36209
L81025 36246
L80988 36284
L80913 36302
L80781 36302
L80706 36284
L80669 36246
L80650 36209
L80650 36134
L80669 36096
L80706 36059
L80781 36040
L80913 36040
L80988 36059
L81025 36096
L81044 36134
L81044 36209
" />
<path d="M80688 35890
L80669 35871
L80650 35834
L80650 35740
L80669 35703
L80688 35684
L80725 35665
L80763 35665
L80819 35684
L81044 35909
L81044 35665
" />
<path d="M71024 35144
L70837 35275
" />
<path d="M71024 35369
L70630 35369
L70630 35219
L70649 35181
L70668 35163
L70705 35144
L70762 35144
L70799 35163
L70818 35181
L70837 35219
L70837 35369
" />
<path d="M71024 34956
L71024 34881
L71005 34844
L70987 34825
L70930 34788
L70855 34769
L70705 34769
L70668 34788
L70649 34806
L70630 34844
L70630 34919
L70649 34956
L70668 34975
L70705 34994
L70799 34994
L70837 34975
L70855 34956
L70874 34919
L70874 34844
L70855 34806
L70837 34788
L70799 34769
" />
<path d="M68608 34056
L68665 34075
L68758 34075
L68796 34056
L68815 34038
L68833 34000
L68833 33963
L68815 33925
L68796 33907
L68758 33888
L68683 33869
L68646 33850
L68627 33832
L68608 33794
L68608 33757
L68627 33719
L68646 33700
L68683 33682
L68777 33682
L68833 33700
" />
<path d="M68965 33682
L69058 34075
L69133 33794
L69208 34075
L69302 33682
" />
<path d="M69415 33682
L69658 33682
L69527 33832
L69583 33832
L69621 33850
L69640 33869
L69658 33907
L69658 34000
L69640 34038
L69621 34056
L69583 34075
L69471 34075
L69433 34056
L69415 34038
" />
<path d="M82286 36049
L82305 36068
L82323 36124
L82323 36162
L82305 36218
L82267 36256
L82230 36274
L82155 36293
L82098 36293
L82023 36274
L81986 36256
L81948 36218
L81930 36162
L81930 36124
L81948 36068
L81967 36049
" />
<path d="M82061 35712
L82323 35712
" />
<path d="M81911 35806
L82192 35899
L82192 35656
" />
<path d="M72030 31949
L71899 31762
" />
<path d="M71805 31949
L71805 31556
L71955 31556
L71992 31574
L72011 31593
L72030 31631
L72030 31687
L72011 31724
L71992 31743
L71955 31762
L71805 31762
" />
<path d="M72405 31949
L72180 31949
" />
<path d="M72292 31949
L72292 31556
L72255 31612
L72217 31649
L72180 31668
" />
<path d="M72649 31556
L72686 31556
L72724 31574
L72742 31593
L72761 31631
L72780 31706
L72780 31799
L72761 31874
L72742 31912
L72724 31931
L72686 31949
L72649 31949
L72611 31931
L72592 31912
L72574 31874
L72555 31799
L72555 31706
L72574 31631
L72592 31593
L72611 31574
L72649 31556
" />
<path d="M68845 32091
L68845 32372
L68826 32428
L68788 32466
L68732 32485
L68695 32485
" />
<path d="M69013 32128
L69032 32110
L69070 32091
L69163 32091
L69201 32110
L69220 32128
L69238 32166
L69238 32203
L69220 32260
L68995 32485
L69238 32485
" />
</g>
<g style="fill:#008484; fill-opacity:0.0; 
stroke:#008484; stroke-width:59.0551; stroke-opacity:1; 
stroke-linecap:round; stroke-linejoin:round;">
</g>
<g style="fill:#008484; fill-opacity:0.0; 
stroke:#008484; stroke-width:47.2441; stroke-opacity:1; 
stroke-linecap:round; stroke-linejoin:round;">
<path d="M93149 33669
L93622 33669
" />
<path d="M93622 34362
L93149 34362
" />
<path d="M75307 33858
L75307 34330
" />
<path d="M74614 34330
L74614 33858
" />
<path d="M77362 36535
L77362 35708
" />
<path d="M77755 36535
L77755 35708
" />
<path d="M77362 36535
L77755 36535
" />
<path d="M76574 36535
L76968 36535
" />
<path d="M76968 36535
L76968 35708
" />
<path d="M76574 36535
L76574 35708
" />
<path d="M75787 36535
L75787 35708
" />
<path d="M76181 36535
L76181 35708
" />
<path d="M75787 36535
L76181 36535
" />
<path d="M75000 36535
L75393 36535
" />
<path d="M75393 36535
L75393 35708
" />
<path d="M75000 36535
L75000 35708
" />
<path d="M74212 36535
L74212 35708
" />
<path d="M74606 36535
L74606 35708
" />
<path d="M74212 36535
L74606 36535
" />
<path d="M77039 34291
L77039 33897
" />
<path d="M75716 34291
L75716 33897
" />
<path d="M96397 35492
L94803 35492
" />
<path d="M96397 34822
L94803 34822
" />
<path d="M96417 35492
L96417 34822
" />
<path d="M87618 22125
L87618 22519
" />
<path d="M88287 22519
L88287 22125
" />
<path d="M92913 24192
L92519 24192
" />
<path d="M92519 24862
L92913 24862
" />
<path d="M96181 33681
L95787 33681
" />
<path d="M95787 34350
L96181 34350
" />
<path d="M74055 25334
L74448 25334
" />
<path d="M74448 24665
L74055 24665
" />
</g>
<g style="fill:#008484; fill-opacity:0.0; 
stroke:#008484; stroke-width:59.0551; stroke-opacity:1; 
stroke-linecap:round; stroke-linejoin:round;">
<path d="M90324 21840
L89773 21840
" />
<path d="M90324 23848
L91958 23848
" />
<path d="M90324 21820
L91958 21820
" />
<path d="M90324 23848
L90324 23791
" />
<path d="M91958 23848
L91958 23791
" />
<path d="M91958 21820
L91958 21877
" />
<path d="M90324 21820
L90324 21840
" />
</g>
<g style="fill:#008484; fill-opacity:0.0; 
stroke:#008484; stroke-width:47.2441; stroke-opacity:1; 
stroke-linecap:round; stroke-linejoin:round;">
<path d="M93307 34811
L93779 34811
" />
<path d="M93779 35503
L93307 35503
" />
<path d="M96456 30795
L96929 30795
" />
<path d="M96929 31488
L96456 31488
" />
<path d="M72480 25346
L72007 25346
" />
<path d="M72007 24653
L72480 24653
" />
<path d="M93307 35913
L93779 35913
" />
<path d="M93779 36606
L93307 36606
" />
<path d="M84842 19692
L85314 19692
" />
<path d="M85314 20385
L84842 20385
" />
<path d="M89322 22086
L89322 22559
" />
<path d="M88629 22559
L88629 22086
" />
<path d="M78732 32362
L78732 32834
" />
<path d="M78039 32834
L78039 32362
" />
<path d="M74251 23314
L75039 23314
" />
<path d="M75039 24480
L74251 24480
" />
<path d="M94606 23417
L94133 23417
" />
<path d="M94133 22724
L94606 22724
" />
<path d="M94606 22551
L94133 22551
" />
<path d="M94133 21858
L94606 21858
" />
</g>
<g style="fill:#008484; fill-opacity:0.0; 
stroke:#008484; stroke-width:59.0551; stroke-opacity:1; 
stroke-linecap:round; stroke-linejoin:round;">
<path d="M95068 33120
L95620 33120
" />
<path d="M95068 31112
L93435 31112
" />
<path d="M95068 33139
L93435 33139
" />
<path d="M95068 31112
L95068 31169
" />
<path d="M93435 31112
L93435 31169
" />
<path d="M93435 33139
L93435 33082
" />
<path d="M95068 33139
L95068 33120
" />
</g>
<g style="fill:#008484; fill-opacity:0.0; 
stroke:#008484; stroke-width:47.2441; stroke-opacity:1; 
stroke-linecap:round; stroke-linejoin:round;">
<path d="M95472 22007
L95472 22401
" />
<path d="M95472 22401
L96299 22401
" />
<path d="M95472 22007
L96299 22007
" />
<path d="M95472 22874
L95472 23267
" />
<path d="M95472 23267
L96299 23267
" />
<path d="M95472 22874
L96299 22874
" />
<path d="M78188 34488
L78582 34488
" />
<path d="M78582 34488
L78582 33661
" />
<path d="M78188 34488
L78188 33661
" />
</g>
<g style="fill:#008484; fill-opacity:0.0; 
stroke:#008484; stroke-width:19.685; stroke-opacity:1; 
stroke-linecap:round; stroke-linejoin:round;">
<path d="M79409 37283
L79803 37283
" />
<path d="M79409 37519
L79409 37283
" />
<path d="M81929 38228
L81929 37874
" />
<path d="M81692 38228
L81929 38228
" />
<path d="M93622 19251
L94015 19251
" />
<path d="M93622 19488
L93622 19251
" />
<path d="M96141 20196
L96141 19842
" />
<path d="M95905 20196
L96141 20196
" />
<path d="M93622 37283
L94015 37283
" />
<path d="M93622 37519
L93622 37283
" />
<path d="M96141 38228
L96141 37874
" />
<path d="M95905 38228
L96141 38228
" />
<path d="M79409 19251
L79803 19251
" />
<path d="M79409 19488
L79409 19251
" />
<path d="M81929 20196
L81929 19842
" />
<path d="M81692 20196
L81929 20196
" />
</g>
<g style="fill:#008484; fill-opacity:0.0; 
stroke:#008484; stroke-width:59.0551; stroke-opacity:1; 
stroke-linecap:round; stroke-linejoin:round;">
<path d="M72293 26702
L72293 26929
" />
<path d="M76368 26702
L76368 26968
" />
<path d="M76368 30777
L76368 30511
" />
<path d="M72293 30777
L72293 30511
" />
<path d="M72293 26702
L72559 26702
" />
<path d="M72293 30777
L72559 30777
" />
<path d="M76368 30777
L76102 30777
" />
<path d="M76368 26702
L76102 26702
" />
<path d="M72293 26929
L71791 26929
" />
</g>
<g style="fill:#008484; fill-opacity:0.0; 
stroke:#008484; stroke-width:47.2441; stroke-opacity:1; 
stroke-linecap:round; stroke-linejoin:round;">
<path d="M78937 29035
L78543 29035
" />
<path d="M78543 29704
L78937 29704
" />
<path d="M78543 28917
L78937 28917
" />
<path d="M78937 28248
L78543 28248
" />
<path d="M79259 36283
L79625 36283
" />
<path d="M80503 36283
L80137 36283
" />
<path d="M80503 36283
L80503 35433
" />
<path d="M79259 36283
L79259 35708
" />
<path d="M69850 35314
L69850 34842
" />
<path d="M70543 34842
L70543 35314
" />
<path d="M81858 36377
L81858 35590
" />
<path d="M81055 35590
L81055 36377
" />
<path d="M71976 32992
L71976 32519
" />
<path d="M72669 32519
L72669 32992
" />
<path d="M69393 25566
L68559 25566
" />
<path d="M69393 31102
L69393 25566
" />
<path d="M68559 31102
L68559 25566
" />
<path d="M69393 31102
L68559 31102
" />
<path d="M69393 31496
L69393 31913
" />
<path d="M69393 31913
L68976 31913
" />
</g> 
</svg>
