<?xml version="1.0" standalone="no"?>
 <!DOCTYPE svg PUBLIC "-//W3C//DTD SVG 1.1//EN" 
 "http://www.w3.org/Graphics/SVG/1.1/DTD/svg11.dtd"> 
<svg xmlns="http://www.w3.org/2000/svg" version="1.1" 
    width="8.56996cm" height="6.68528cm" viewBox="0 0 33740 26320 ">
<title>SVG Picture created as modular_eside_rev8-B.Cu.svg date 2017/09/12 09:09:25 </title>
  <desc>Picture generated by PCBNEW </desc>
<g style="fill:#000000; fill-opacity:1;stroke:#000000; stroke-opacity:1;
stroke-linecap:round; stroke-linejoin:round; "
 transform="translate(0 0) scale(1 1)">
</g>
<g style="fill:#000000; fill-opacity:0.0; 
stroke:#000000; stroke-width:-0.000393701; stroke-opacity:1; 
stroke-linecap:round; stroke-linejoin:round;">
</g>
<g style="fill:#000000; fill-opacity:0.0; 
stroke:#000000; stroke-width:0; stroke-opacity:1; 
stroke-linecap:round; stroke-linejoin:round;">
</g>
<g style="fill:#000000; fill-opacity:1.0; 
stroke:#000000; stroke-width:0; stroke-opacity:1; 
stroke-linecap:round; stroke-linejoin:round;">
<polyline style="fill-rule:evenodd;"
points="29422,13582
29422,12795
31391,12795
31391,13582
29422,13582
" /> 
<polyline style="fill-rule:evenodd;"
points="29422,12204
29422,11417
31391,11417
31391,12204
29422,12204
" /> 
<polyline style="fill-rule:evenodd;"
points="29422,10826
29422,10039
31391,10039
31391,10826
29422,10826
" /> 
<polyline style="fill-rule:evenodd;"
points="30367,5492
31154,5492
31154,5688
30367,5688
30367,5492
" /> 
<polyline style="fill-rule:evenodd;"
points="30411,7755
30411,7913
29880,7913
29880,7755
30411,7755
" /> 
<polyline style="fill-rule:evenodd;"
points="30411,7499
30411,7657
29880,7657
29880,7499
30411,7499
" /> 
<polyline style="fill-rule:evenodd;"
points="30411,7243
30411,7401
29880,7401
29880,7243
30411,7243
" /> 
<polyline style="fill-rule:evenodd;"
points="30411,6987
30411,7145
29880,7145
29880,6987
30411,6987
" /> 
<polyline style="fill-rule:evenodd;"
points="30411,6731
30411,6889
29880,6889
29880,6731
30411,6731
" /> 
<polyline style="fill-rule:evenodd;"
points="30328,8956
31115,8956
31115,9153
30328,9153
30328,8956
" /> 
<polyline style="fill-rule:evenodd;"
points="31784,15039
30997,15039
30997,14409
31784,14409
31784,15039
" /> 
<polyline style="fill-rule:evenodd;"
points="31784,17795
30997,17795
30997,17165
31784,17165
31784,17795
" /> 
<polyline style="fill-rule:evenodd;"
points="1745,7795
2532,7795
2532,8425
1745,8425
1745,7795
" /> 
<polyline style="fill-rule:evenodd;"
points="1745,5039
2532,5039
2532,5669
1745,5669
1745,5039
" /> 
<polyline style="fill-rule:evenodd;"
points="14727,21259
14196,21259
14196,20472
14727,20472
14727,21259
" /> 
<polyline style="fill-rule:evenodd;"
points="13940,21259
13408,21259
13408,20472
13940,20472
13940,21259
" /> 
<polyline style="fill-rule:evenodd;"
points="13152,21259
12621,21259
12621,20472
13152,20472
13152,21259
" /> 
<polyline style="fill-rule:evenodd;"
points="28940,3228
28408,3228
28408,2440
28940,2440
28940,3228
" /> 
<polyline style="fill-rule:evenodd;"
points="28152,3228
27621,3228
27621,2440
28152,2440
28152,3228
" /> 
<polyline style="fill-rule:evenodd;"
points="27365,3228
26833,3228
26833,2440
27365,2440
27365,3228
" /> 
<polyline style="fill-rule:evenodd;"
points="28940,21259
28408,21259
28408,20472
28940,20472
28940,21259
" /> 
<polyline style="fill-rule:evenodd;"
points="28152,21259
27621,21259
27621,20472
28152,20472
28152,21259
" /> 
<polyline style="fill-rule:evenodd;"
points="27365,21259
26833,21259
26833,20472
27365,20472
27365,21259
" /> 
<polyline style="fill-rule:evenodd;"
points="14727,3228
14196,3228
14196,2440
14727,2440
14727,3228
" /> 
<polyline style="fill-rule:evenodd;"
points="13940,3228
13408,3228
13408,2440
13940,2440
13940,3228
" /> 
<polyline style="fill-rule:evenodd;"
points="13152,3228
12621,3228
12621,2440
13152,2440
13152,3228
" /> 
<polyline style="fill-rule:evenodd;"
points="2532,15905
1745,15905
1745,15275
2532,15275
2532,15905
" /> 
<polyline style="fill-rule:evenodd;"
points="2532,18661
1745,18661
1745,18031
2532,18031
2532,18661
" /> 
<polyline style="fill-rule:evenodd;"
points="2375,14311
2375,14901
1587,14901
1587,14311
2375,14311
" /> 
<polyline style="fill-rule:evenodd;"
points="2375,13523
2375,14114
1587,14114
1587,13523
2375,13523
" /> 
<polyline style="fill-rule:evenodd;"
points="2375,12736
2375,13326
1587,13326
1587,12736
2375,12736
" /> 
<polyline style="fill-rule:evenodd;"
points="2375,11948
2375,12539
1587,12539
1587,11948
2375,11948
" /> 
<polyline style="fill-rule:evenodd;"
points="2375,11161
2375,11751
1587,11751
1587,11161
2375,11161
" /> 
<polyline style="fill-rule:evenodd;"
points="2375,10374
2375,10964
1587,10964
1587,10374
2375,10374
" /> 
<polyline style="fill-rule:evenodd;"
points="2375,9586
2375,10177
1587,10177
1587,9586
2375,9586
" /> 
<polyline style="fill-rule:evenodd;"
points="2375,8799
2375,9389
1587,9389
1587,8799
2375,8799
" /> 
<circle cx="6745.41" cy="16338.6" r="275.591" /> 
</g>
<g style="fill:#000000; fill-opacity:1.0; 
stroke:#000000; stroke-width:39.3701; stroke-opacity:1; 
stroke-linecap:round; stroke-linejoin:round;">
</g>
<g style="fill:#000000; fill-opacity:1.0; 
stroke:#000000; stroke-width:0; stroke-opacity:1; 
stroke-linecap:round; stroke-linejoin:round;">
<circle cx="24147" cy="7559.06" r="354.331" /> 
</g>
<g style="fill:#000000; fill-opacity:1.0; 
stroke:#000000; stroke-width:39.3701; stroke-opacity:1; 
stroke-linecap:round; stroke-linejoin:round;">
</g>
<g style="fill:#000000; fill-opacity:1.0; 
stroke:#000000; stroke-width:0; stroke-opacity:1; 
stroke-linecap:round; stroke-linejoin:round;">
<circle cx="30131.2" cy="16299.2" r="354.331" /> 
</g>
<g style="fill:#000000; fill-opacity:1.0; 
stroke:#000000; stroke-width:39.3701; stroke-opacity:1; 
stroke-linecap:round; stroke-linejoin:round;">
</g>
<g style="fill:#000000; fill-opacity:1.0; 
stroke:#000000; stroke-width:0; stroke-opacity:1; 
stroke-linecap:round; stroke-linejoin:round;">
<circle cx="12532.8" cy="16338.6" r="275.591" /> 
</g>
<g style="fill:#000000; fill-opacity:1.0; 
stroke:#000000; stroke-width:39.3701; stroke-opacity:1; 
stroke-linecap:round; stroke-linejoin:round;">
</g>
<g style="fill:#000000; fill-opacity:1.0; 
stroke:#000000; stroke-width:0; stroke-opacity:1; 
stroke-linecap:round; stroke-linejoin:round;">
<circle cx="4068.24" cy="7007.87" r="275.591" /> 
</g>
<g style="fill:#000000; fill-opacity:1.0; 
stroke:#000000; stroke-width:39.3701; stroke-opacity:1; 
stroke-linecap:round; stroke-linejoin:round;">
</g>
<g style="fill:#000000; fill-opacity:1.0; 
stroke:#000000; stroke-width:0; stroke-opacity:1; 
stroke-linecap:round; stroke-linejoin:round;">
<circle cx="2847.77" cy="13031.5" r="275.591" /> 
</g>
<g style="fill:#000000; fill-opacity:1.0; 
stroke:#000000; stroke-width:39.3701; stroke-opacity:1; 
stroke-linecap:round; stroke-linejoin:round;">
</g>
<g style="fill:#000000; fill-opacity:1.0; 
stroke:#000000; stroke-width:0; stroke-opacity:1; 
stroke-linecap:round; stroke-linejoin:round;">
<circle cx="28399" cy="4173.23" r="275.591" /> 
</g>
<g style="fill:#000000; fill-opacity:1.0; 
stroke:#000000; stroke-width:39.3701; stroke-opacity:1; 
stroke-linecap:round; stroke-linejoin:round;">
</g>
<g style="fill:#000000; fill-opacity:1.0; 
stroke:#000000; stroke-width:0; stroke-opacity:1; 
stroke-linecap:round; stroke-linejoin:round;">
<circle cx="30997.4" cy="13189" r="354.331" /> 
</g>
<g style="fill:#000000; fill-opacity:1.0; 
stroke:#000000; stroke-width:39.3701; stroke-opacity:1; 
stroke-linecap:round; stroke-linejoin:round;">
</g>
<g style="fill:#000000; fill-opacity:1.0; 
stroke:#000000; stroke-width:0; stroke-opacity:1; 
stroke-linecap:round; stroke-linejoin:round;">
<circle cx="27650.9" cy="17126" r="275.591" /> 
</g>
<g style="fill:#000000; fill-opacity:1.0; 
stroke:#000000; stroke-width:39.3701; stroke-opacity:1; 
stroke-linecap:round; stroke-linejoin:round;">
</g>
<g style="fill:#000000; fill-opacity:1.0; 
stroke:#000000; stroke-width:0; stroke-opacity:1; 
stroke-linecap:round; stroke-linejoin:round;">
<circle cx="13398.9" cy="15472.4" r="275.591" /> 
</g>
<g style="fill:#000000; fill-opacity:1.0; 
stroke:#000000; stroke-width:39.3701; stroke-opacity:1; 
stroke-linecap:round; stroke-linejoin:round;">
</g>
<g style="fill:#000000; fill-opacity:1.0; 
stroke:#000000; stroke-width:0; stroke-opacity:1; 
stroke-linecap:round; stroke-linejoin:round;">
<circle cx="6745.41" cy="15472.4" r="275.591" /> 
</g>
<g style="fill:#000000; fill-opacity:1.0; 
stroke:#000000; stroke-width:39.3701; stroke-opacity:1; 
stroke-linecap:round; stroke-linejoin:round;">
</g>
<g style="fill:#000000; fill-opacity:1.0; 
stroke:#000000; stroke-width:0; stroke-opacity:1; 
stroke-linecap:round; stroke-linejoin:round;">
<circle cx="3123.36" cy="9094.49" r="275.591" /> 
</g>
<g style="fill:#000000; fill-opacity:1.0; 
stroke:#000000; stroke-width:39.3701; stroke-opacity:1; 
stroke-linecap:round; stroke-linejoin:round;">
</g>
<g style="fill:#000000; fill-opacity:1.0; 
stroke:#000000; stroke-width:0; stroke-opacity:1; 
stroke-linecap:round; stroke-linejoin:round;">
<circle cx="3950.13" cy="12007.9" r="275.591" /> 
</g>
<g style="fill:#000000; fill-opacity:1.0; 
stroke:#000000; stroke-width:39.3701; stroke-opacity:1; 
stroke-linecap:round; stroke-linejoin:round;">
</g>
<g style="fill:#000000; fill-opacity:1.0; 
stroke:#000000; stroke-width:0; stroke-opacity:1; 
stroke-linecap:round; stroke-linejoin:round;">
<circle cx="9107.61" cy="8188.98" r="275.591" /> 
</g>
<g style="fill:#000000; fill-opacity:1.0; 
stroke:#000000; stroke-width:39.3701; stroke-opacity:1; 
stroke-linecap:round; stroke-linejoin:round;">
</g>
<g style="fill:#000000; fill-opacity:1.0; 
stroke:#000000; stroke-width:0; stroke-opacity:1; 
stroke-linecap:round; stroke-linejoin:round;">
<circle cx="2847.77" cy="13818.9" r="275.591" /> 
</g>
<g style="fill:#000000; fill-opacity:1.0; 
stroke:#000000; stroke-width:39.3701; stroke-opacity:1; 
stroke-linecap:round; stroke-linejoin:round;">
</g>
<g style="fill:#000000; fill-opacity:1.0; 
stroke:#000000; stroke-width:0; stroke-opacity:1; 
stroke-linecap:round; stroke-linejoin:round;">
<circle cx="10761.2" cy="10826.8" r="275.591" /> 
</g>
<g style="fill:#000000; fill-opacity:1.0; 
stroke:#000000; stroke-width:39.3701; stroke-opacity:1; 
stroke-linecap:round; stroke-linejoin:round;">
</g>
<g style="fill:#000000; fill-opacity:1.0; 
stroke:#000000; stroke-width:0; stroke-opacity:1; 
stroke-linecap:round; stroke-linejoin:round;">
<circle cx="2847.77" cy="14606.3" r="275.591" /> 
</g>
<g style="fill:#000000; fill-opacity:1.0; 
stroke:#000000; stroke-width:39.3701; stroke-opacity:1; 
stroke-linecap:round; stroke-linejoin:round;">
</g>
<g style="fill:#000000; fill-opacity:1.0; 
stroke:#000000; stroke-width:0; stroke-opacity:1; 
stroke-linecap:round; stroke-linejoin:round;">
<circle cx="3950.13" cy="12874" r="275.591" /> 
</g>
<g style="fill:#000000; fill-opacity:1.0; 
stroke:#000000; stroke-width:39.3701; stroke-opacity:1; 
stroke-linecap:round; stroke-linejoin:round;">
</g>
<g style="fill:#000000; fill-opacity:1.0; 
stroke:#000000; stroke-width:0; stroke-opacity:1; 
stroke-linecap:round; stroke-linejoin:round;">
<circle cx="4068.24" cy="8110.24" r="275.591" /> 
</g>
<g style="fill:#000000; fill-opacity:1.0; 
stroke:#000000; stroke-width:39.3701; stroke-opacity:1; 
stroke-linecap:round; stroke-linejoin:round;">
</g>
<g style="fill:#000000; fill-opacity:1.0; 
stroke:#000000; stroke-width:0; stroke-opacity:1; 
stroke-linecap:round; stroke-linejoin:round;">
<circle cx="26312.3" cy="20866.1" r="275.591" /> 
</g>
<g style="fill:#000000; fill-opacity:1.0; 
stroke:#000000; stroke-width:39.3701; stroke-opacity:1; 
stroke-linecap:round; stroke-linejoin:round;">
</g>
<g style="fill:#000000; fill-opacity:1.0; 
stroke:#000000; stroke-width:0; stroke-opacity:1; 
stroke-linecap:round; stroke-linejoin:round;">
<circle cx="6036.75" cy="18070.9" r="275.591" /> 
</g>
<g style="fill:#000000; fill-opacity:1.0; 
stroke:#000000; stroke-width:39.3701; stroke-opacity:1; 
stroke-linecap:round; stroke-linejoin:round;">
</g>
<g style="fill:#000000; fill-opacity:1.0; 
stroke:#000000; stroke-width:0; stroke-opacity:1; 
stroke-linecap:round; stroke-linejoin:round;">
<circle cx="13280.8" cy="17126" r="275.591" /> 
</g>
<g style="fill:#000000; fill-opacity:1.0; 
stroke:#000000; stroke-width:39.3701; stroke-opacity:1; 
stroke-linecap:round; stroke-linejoin:round;">
</g>
<g style="fill:#000000; fill-opacity:1.0; 
stroke:#000000; stroke-width:0; stroke-opacity:1; 
stroke-linecap:round; stroke-linejoin:round;">
<circle cx="5328.08" cy="17126" r="275.591" /> 
</g>
<g style="fill:#000000; fill-opacity:1.0; 
stroke:#000000; stroke-width:39.3701; stroke-opacity:1; 
stroke-linecap:round; stroke-linejoin:round;">
</g>
<g style="fill:#000000; fill-opacity:1.0; 
stroke:#000000; stroke-width:157.48; stroke-opacity:1; 
stroke-linecap:round; stroke-linejoin:round;">
</g>
<g style="fill:#000000; fill-opacity:0.0; 
stroke:#000000; stroke-width:157.48; stroke-opacity:1; 
stroke-linecap:round; stroke-linejoin:round;">
<path d="M2847 13031
L2965 13031
" />
<path d="M30145 7834
L29107 7834
" />
<path d="M29107 7834
L29107 7834
" />
<path d="M30145 7578
L29127 7578
" />
<path d="M29127 7578
L29107 7598
" />
<path d="M30761 9015
L30721 9055
" />
<path d="M30145 6810
L29029 6810
" />
<path d="M29029 6810
L29028 6811
" />
<path d="M30997 13188
L30977 13208
" />
<path d="M30977 13208
L30406 13188
" />
<path d="M6745 15472
L13398 15472
" />
<path d="M2847 5354
L2808 5354
" />
<path d="M3005 9094
L1981 9094
" />
<path d="M2808 5354
L3005 5551
" />
<path d="M3005 5551
L3005 9094
" />
<path d="M2139 18346
L2454 18346
" />
<path d="M16706 20866
L26312 20866
" />
<path d="M16312 20472
L16706 20866
" />
<path d="M16312 18503
L16312 20472
" />
<path d="M15879 18070
L16312 18503
" />
<path d="M6036 18070
L15879 18070
" />
<path d="M26312 20866
L27099 20866
" />
<path d="M5328 17125
L5367 17086
" />
</g>
<g style="fill:#000000; fill-opacity:1.0; 
stroke:#000000; stroke-width:39.3701; stroke-opacity:1; 
stroke-linecap:round; stroke-linejoin:round;">
<polyline style="fill-rule:evenodd;"
points="29009,3630
29009,6653
29009,6659
29012,6664
29014,6667
29054,6706
29058,6710
29063,6712
29068,6712
29256,6712
29284,6740
29284,6881
29256,6909
27777,6909
27749,6881
27749,3630
27777,3602
28981,3602
29009,3630
" /> 
<polyline style="fill-rule:evenodd;"
points="31410,12764
31410,13692
31382,13720
28013,13720
27985,13692
27985,12764
28013,12736
31382,12736
31410,12764
" /> 
<polyline style="fill-rule:evenodd;"
points="31971,15649
30966,15649
30938,15621
30938,15078
30937,15073
30935,15068
30932,15064
30893,15025
30888,15022
30883,15020
30879,15019
28280,15019
28275,15020
28270,15022
28266,15025
28227,15064
28224,15069
28222,15074
28221,15078
28221,17511
28193,17539
27107,17539
27080,17511
27080,14378
27107,14350
31971,14350
31971,15649
" /> 
<polyline style="fill-rule:evenodd;"
points="31971,18523
30966,18523
30938,18495
30938,16031
30966,16003
31971,16003
31971,18523
" /> 
<polyline style="fill-rule:evenodd;"
points="16489,17842
16489,20393
16490,20399
16492,20404
16495,20407
16534,20446
16539,20450
16544,20452
16548,20452
28981,20452
29009,20480
29009,21250
15150,21250
15150,18385
15150,18380
15147,18375
15145,18371
15105,18332
15101,18329
15096,18327
15091,18326
5808,18326
5780,18298
5780,17842
5808,17814
16461,17814
16489,17842
" /> 
<polyline style="fill-rule:evenodd;"
points="14796,20480
14796,21250
12552,21250
12552,20480
12580,20452
14768,20452
14796,20480
" /> 
<polyline style="fill-rule:evenodd;"
points="14875,3259
14847,3287
3438,3287
3432,3288
3427,3290
3424,3293
3385,3332
3381,3336
3379,3342
3379,3346
3379,11692
3380,11698
3382,11703
3385,11706
3424,11746
3428,11749
3434,11751
3438,11751
4256,11751
4284,11779
4284,12235
4256,12263
2974,12263
2946,12235
2946,9409
2945,9403
2943,9398
2940,9395
2901,9356
2896,9352
2891,9350
2887,9350
2383,9350
2355,9322
2355,8866
2383,8838
2887,8838
2892,8837
2897,8835
2901,8832
2940,8793
2943,8789
2945,8783
2946,8779
2946,7480
2945,7474
2943,7469
2940,7466
2901,7427
2896,7423
2891,7421
2887,7421
1558,7421
1558,3585
1580,3362
1644,3151
1747,2956
1887,2785
2057,2644
2251,2539
2462,2474
2684,2450
2690,2450
14875,2450
14875,3259
" /> 
<polyline style="fill-rule:evenodd;"
points="4599,7803
4599,13102
4571,13129
3722,13129
3694,13102
3694,12645
3722,12618
4422,12618
4428,12617
4433,12615
4436,12612
4475,12572
4479,12568
4481,12563
4481,12559
4481,11377
4480,11372
4478,11367
4475,11364
4436,11324
4432,11321
4426,11319
4422,11318
3761,11318
3733,11291
3733,7803
3761,7775
4571,7775
4599,7803
" /> 
<polyline style="fill-rule:evenodd;"
points="31059,2472
31271,2536
31466,2640
31637,2779
31778,2949
31883,3144
31948,3355
31971,3577
31971,3582
31971,5688
29391,5688
29363,5661
29363,3307
29362,3301
29360,3296
29357,3293
29318,3253
29313,3250
29308,3248
29304,3248
27454,3248
27448,3248
27443,3251
27440,3253
27400,3293
27397,3297
27395,3302
27395,3307
27395,7204
27395,7210
27398,7215
27400,7218
27440,7258
27444,7261
27449,7263
27454,7263
29256,7263
29284,7291
29284,8818
29285,8824
29287,8829
29290,8832
29329,8872
29334,8875
29339,8877
29343,8877
31971,8877
31971,10925
26627,10964
26621,10965
26616,10967
26613,10970
26573,11009
26570,11014
26568,11019
26568,11023
26568,17992
26569,17997
26571,18002
26574,18006
26613,18045
26617,18048
26622,18050
26627,18051
28517,18051
28522,18050
28527,18048
28530,18045
28570,18006
28573,18001
28575,17996
28576,17992
28576,15401
28603,15374
30634,15374
30662,15401
30623,18818
30624,18824
30626,18829
30629,18832
30668,18872
30672,18875
30677,18877
30682,18877
31934,18877
31962,18906
31971,19468
31971,20115
31949,20337
31886,20549
31782,20744
31642,20915
31472,21056
31278,21161
31067,21226
30845,21249
30839,21250
29402,21250
29402,20157
29402,20151
29399,20146
29397,20143
29357,20104
29353,20100
29348,20098
29343,20098
16871,20098
16843,20070
16843,17440
16843,17435
16840,17430
16838,17427
16798,17387
16794,17384
16789,17382
16784,17381
13997,17381
13969,17354
13969,16653
13969,16648
13966,16643
13964,16639
13924,16600
13920,16596
13915,16594
13910,16594
4776,16594
4771,16595
4766,16597
4762,16600
4723,16639
4720,16644
4718,16649
4717,16653
4717,18622
4718,18627
4720,18632
4723,18635
4762,18675
4767,18678
4772,18680
4776,18681
14768,18681
14796,18708
14796,20070
14768,20098
12257,20098
12251,20099
12246,20101
12243,20104
12203,20143
12200,20147
12198,20153
12198,20157
12198,21250
2692,21250
2470,21228
2259,21164
2064,21060
1892,20921
1752,20750
1647,20556
1581,20345
1558,20123
1558,20118
1558,19074
3753,19074
3758,19074
3763,19071
3767,19069
3806,19029
3809,19025
3811,19020
3812,19015
3812,16110
3840,16082
13910,16082
13916,16081
13921,16079
13924,16076
13964,16037
13967,16033
13969,16027
13969,16023
13969,14881
13969,14876
13966,14871
13964,14867
13924,14828
13920,14825
13915,14823
13910,14822
11359,14822
11332,14794
11332,10354
11331,10348
11328,10343
11326,10340
11286,10301
11282,10297
11277,10295
11272,10295
10533,10295
10505,10267
10505,7598
10504,7592
10502,7587
10499,7584
10460,7545
10455,7541
10450,7539
10446,7539
8517,7539
8511,7540
8506,7542
8503,7545
8463,7584
8460,7588
8458,7594
8458,7598
8458,8740
8458,8745
8461,8750
8463,8754
8503,8793
8507,8796
8512,8798
8517,8799
9729,8799
9757,8827
9757,13692
9729,13720
8517,13720
8516,13720
8438,13720
8438,13720
4973,13759
4894,13759
3619,13759
3560,13734
3164,13321
3158,13317
3091,13288
3083,13287
1558,13287
1558,12775
3213,12775
3241,12803
3241,13031
3242,13039
3270,13106
3275,13112
3534,13371
3540,13376
3607,13404
3615,13405
4895,13405
4900,13404
4905,13402
4908,13399
4948,13360
4951,13355
4953,13350
4954,13346
4954,7480
4953,7474
4951,7469
4948,7466
4908,7427
4904,7423
4899,7421
4895,7421
3761,7421
3733,7393
3733,3669
3761,3641
15249,3641
15254,3640
15259,3638
15263,3635
15302,3596
15305,3592
15307,3586
15308,3582
15308,2450
30837,2450
31059,2472
" /> 
<polyline style="fill-rule:evenodd;"
points="13654,15244
13654,15700
13627,15728
3517,15728
3511,15729
3506,15731
3503,15734
3463,15773
3460,15777
3458,15783
3458,15787
3458,18692
3430,18720
1558,18720
1558,16240
2808,16240
2813,16239
2818,16237
2822,16234
2861,16195
2865,16190
2866,16185
2867,16181
2867,15244
2895,15216
13627,15216
13654,15244
" /> 
<polyline style="fill-rule:evenodd;"
points="13536,16897
13536,17354
13508,17381
5643,17381
5637,17382
5632,17384
5629,17387
5589,17427
5586,17431
5584,17436
5583,17440
5583,18298
5556,18326
5100,18326
5072,18298
5072,16897
5100,16870
13508,16870
13536,16897
" /> 
<polyline style="fill-rule:evenodd;"
points="2591,15244
2591,15936
2564,15964
1558,15964
1558,15216
2564,15216
2591,15244
" /> 
<polyline style="fill-rule:evenodd;"
points="10190,7921
10190,14204
10162,14232
3479,14232
3409,14215
3167,14094
3163,14092
3088,14075
3083,14074
1558,14074
1558,13562
3075,13562
3103,13590
3103,13622
3105,13629
3133,13696
3137,13703
3396,13962
3402,13966
3470,13994
3477,13996
9973,13996
9979,13995
9984,13993
9987,13990
10027,13950
10030,13946
10032,13941
10032,13937
10032,8543
10032,8537
10029,8532
10027,8529
9987,8490
9983,8486
9978,8484
9973,8484
8840,8484
8812,8456
8812,7921
8840,7893
10162,7893
10190,7921
" /> 
<polyline style="fill-rule:evenodd;"
points="11017,10598
11017,14834
10989,14862
1558,14862
1558,14350
3081,14350
3151,14366
3394,14488
3398,14489
3473,14507
3477,14507
10446,14507
10451,14507
10456,14504
10460,14502
10499,14462
10502,14458
10504,14453
10505,14448
10505,10598
10533,10570
10989,10570
11017,10598
" /> 
<polyline style="fill-rule:evenodd;"
points="2591,7764
2591,8417
2564,8444
1558,8444
1558,7736
2564,7736
2591,7764
" /> 
</g>
<g style="fill:#FFFFFF; fill-opacity:1.0; 
stroke:#FFFFFF; stroke-width:39.3701; stroke-opacity:1; 
stroke-linecap:round; stroke-linejoin:round;">
</g>
<g style="fill:#FFFFFF; fill-opacity:1.0; 
stroke:#FFFFFF; stroke-width:0; stroke-opacity:1; 
stroke-linecap:round; stroke-linejoin:round;">
<circle cx="6745.41" cy="16338.6" r="157.48" /> 
</g>
<g style="fill:#FFFFFF; fill-opacity:1.0; 
stroke:#FFFFFF; stroke-width:39.3701; stroke-opacity:1; 
stroke-linecap:round; stroke-linejoin:round;">
</g>
<g style="fill:#FFFFFF; fill-opacity:1.0; 
stroke:#FFFFFF; stroke-width:0; stroke-opacity:1; 
stroke-linecap:round; stroke-linejoin:round;">
<circle cx="24147" cy="7559.06" r="196.85" /> 
</g>
<g style="fill:#FFFFFF; fill-opacity:1.0; 
stroke:#FFFFFF; stroke-width:39.3701; stroke-opacity:1; 
stroke-linecap:round; stroke-linejoin:round;">
</g>
<g style="fill:#FFFFFF; fill-opacity:1.0; 
stroke:#FFFFFF; stroke-width:0; stroke-opacity:1; 
stroke-linecap:round; stroke-linejoin:round;">
<circle cx="30131.2" cy="16299.2" r="196.85" /> 
</g>
<g style="fill:#FFFFFF; fill-opacity:1.0; 
stroke:#FFFFFF; stroke-width:39.3701; stroke-opacity:1; 
stroke-linecap:round; stroke-linejoin:round;">
</g>
<g style="fill:#FFFFFF; fill-opacity:1.0; 
stroke:#FFFFFF; stroke-width:0; stroke-opacity:1; 
stroke-linecap:round; stroke-linejoin:round;">
<circle cx="12532.8" cy="16338.6" r="157.48" /> 
</g>
<g style="fill:#FFFFFF; fill-opacity:1.0; 
stroke:#FFFFFF; stroke-width:39.3701; stroke-opacity:1; 
stroke-linecap:round; stroke-linejoin:round;">
</g>
<g style="fill:#FFFFFF; fill-opacity:1.0; 
stroke:#FFFFFF; stroke-width:0; stroke-opacity:1; 
stroke-linecap:round; stroke-linejoin:round;">
<circle cx="4068.24" cy="7007.87" r="157.48" /> 
</g>
<g style="fill:#FFFFFF; fill-opacity:1.0; 
stroke:#FFFFFF; stroke-width:39.3701; stroke-opacity:1; 
stroke-linecap:round; stroke-linejoin:round;">
</g>
<g style="fill:#FFFFFF; fill-opacity:1.0; 
stroke:#FFFFFF; stroke-width:0; stroke-opacity:1; 
stroke-linecap:round; stroke-linejoin:round;">
<circle cx="2847.77" cy="13031.5" r="157.48" /> 
</g>
<g style="fill:#FFFFFF; fill-opacity:1.0; 
stroke:#FFFFFF; stroke-width:39.3701; stroke-opacity:1; 
stroke-linecap:round; stroke-linejoin:round;">
</g>
<g style="fill:#FFFFFF; fill-opacity:1.0; 
stroke:#FFFFFF; stroke-width:0; stroke-opacity:1; 
stroke-linecap:round; stroke-linejoin:round;">
<circle cx="28399" cy="4173.23" r="157.48" /> 
</g>
<g style="fill:#FFFFFF; fill-opacity:1.0; 
stroke:#FFFFFF; stroke-width:39.3701; stroke-opacity:1; 
stroke-linecap:round; stroke-linejoin:round;">
</g>
<g style="fill:#FFFFFF; fill-opacity:1.0; 
stroke:#FFFFFF; stroke-width:0; stroke-opacity:1; 
stroke-linecap:round; stroke-linejoin:round;">
<circle cx="30997.4" cy="13189" r="196.85" /> 
</g>
<g style="fill:#FFFFFF; fill-opacity:1.0; 
stroke:#FFFFFF; stroke-width:39.3701; stroke-opacity:1; 
stroke-linecap:round; stroke-linejoin:round;">
</g>
<g style="fill:#FFFFFF; fill-opacity:1.0; 
stroke:#FFFFFF; stroke-width:0; stroke-opacity:1; 
stroke-linecap:round; stroke-linejoin:round;">
<circle cx="27650.9" cy="17126" r="157.48" /> 
</g>
<g style="fill:#FFFFFF; fill-opacity:1.0; 
stroke:#FFFFFF; stroke-width:39.3701; stroke-opacity:1; 
stroke-linecap:round; stroke-linejoin:round;">
</g>
<g style="fill:#FFFFFF; fill-opacity:1.0; 
stroke:#FFFFFF; stroke-width:0; stroke-opacity:1; 
stroke-linecap:round; stroke-linejoin:round;">
<circle cx="13398.9" cy="15472.4" r="157.48" /> 
</g>
<g style="fill:#FFFFFF; fill-opacity:1.0; 
stroke:#FFFFFF; stroke-width:39.3701; stroke-opacity:1; 
stroke-linecap:round; stroke-linejoin:round;">
</g>
<g style="fill:#FFFFFF; fill-opacity:1.0; 
stroke:#FFFFFF; stroke-width:0; stroke-opacity:1; 
stroke-linecap:round; stroke-linejoin:round;">
<circle cx="6745.41" cy="15472.4" r="157.48" /> 
</g>
<g style="fill:#FFFFFF; fill-opacity:1.0; 
stroke:#FFFFFF; stroke-width:39.3701; stroke-opacity:1; 
stroke-linecap:round; stroke-linejoin:round;">
</g>
<g style="fill:#FFFFFF; fill-opacity:1.0; 
stroke:#FFFFFF; stroke-width:0; stroke-opacity:1; 
stroke-linecap:round; stroke-linejoin:round;">
<circle cx="3123.36" cy="9094.49" r="157.48" /> 
</g>
<g style="fill:#FFFFFF; fill-opacity:1.0; 
stroke:#FFFFFF; stroke-width:39.3701; stroke-opacity:1; 
stroke-linecap:round; stroke-linejoin:round;">
</g>
<g style="fill:#FFFFFF; fill-opacity:1.0; 
stroke:#FFFFFF; stroke-width:0; stroke-opacity:1; 
stroke-linecap:round; stroke-linejoin:round;">
<circle cx="3950.13" cy="12007.9" r="157.48" /> 
</g>
<g style="fill:#FFFFFF; fill-opacity:1.0; 
stroke:#FFFFFF; stroke-width:39.3701; stroke-opacity:1; 
stroke-linecap:round; stroke-linejoin:round;">
</g>
<g style="fill:#FFFFFF; fill-opacity:1.0; 
stroke:#FFFFFF; stroke-width:0; stroke-opacity:1; 
stroke-linecap:round; stroke-linejoin:round;">
<circle cx="9107.61" cy="8188.98" r="157.48" /> 
</g>
<g style="fill:#FFFFFF; fill-opacity:1.0; 
stroke:#FFFFFF; stroke-width:39.3701; stroke-opacity:1; 
stroke-linecap:round; stroke-linejoin:round;">
</g>
<g style="fill:#FFFFFF; fill-opacity:1.0; 
stroke:#FFFFFF; stroke-width:0; stroke-opacity:1; 
stroke-linecap:round; stroke-linejoin:round;">
<circle cx="2847.77" cy="13818.9" r="157.48" /> 
</g>
<g style="fill:#FFFFFF; fill-opacity:1.0; 
stroke:#FFFFFF; stroke-width:39.3701; stroke-opacity:1; 
stroke-linecap:round; stroke-linejoin:round;">
</g>
<g style="fill:#FFFFFF; fill-opacity:1.0; 
stroke:#FFFFFF; stroke-width:0; stroke-opacity:1; 
stroke-linecap:round; stroke-linejoin:round;">
<circle cx="10761.2" cy="10826.8" r="157.48" /> 
</g>
<g style="fill:#FFFFFF; fill-opacity:1.0; 
stroke:#FFFFFF; stroke-width:39.3701; stroke-opacity:1; 
stroke-linecap:round; stroke-linejoin:round;">
</g>
<g style="fill:#FFFFFF; fill-opacity:1.0; 
stroke:#FFFFFF; stroke-width:0; stroke-opacity:1; 
stroke-linecap:round; stroke-linejoin:round;">
<circle cx="2847.77" cy="14606.3" r="157.48" /> 
</g>
<g style="fill:#FFFFFF; fill-opacity:1.0; 
stroke:#FFFFFF; stroke-width:39.3701; stroke-opacity:1; 
stroke-linecap:round; stroke-linejoin:round;">
</g>
<g style="fill:#FFFFFF; fill-opacity:1.0; 
stroke:#FFFFFF; stroke-width:0; stroke-opacity:1; 
stroke-linecap:round; stroke-linejoin:round;">
<circle cx="3950.13" cy="12874" r="157.48" /> 
</g>
<g style="fill:#FFFFFF; fill-opacity:1.0; 
stroke:#FFFFFF; stroke-width:39.3701; stroke-opacity:1; 
stroke-linecap:round; stroke-linejoin:round;">
</g>
<g style="fill:#FFFFFF; fill-opacity:1.0; 
stroke:#FFFFFF; stroke-width:0; stroke-opacity:1; 
stroke-linecap:round; stroke-linejoin:round;">
<circle cx="4068.24" cy="8110.24" r="157.48" /> 
</g>
<g style="fill:#FFFFFF; fill-opacity:1.0; 
stroke:#FFFFFF; stroke-width:39.3701; stroke-opacity:1; 
stroke-linecap:round; stroke-linejoin:round;">
</g>
<g style="fill:#FFFFFF; fill-opacity:1.0; 
stroke:#FFFFFF; stroke-width:0; stroke-opacity:1; 
stroke-linecap:round; stroke-linejoin:round;">
<circle cx="26312.3" cy="20866.1" r="157.48" /> 
</g>
<g style="fill:#FFFFFF; fill-opacity:1.0; 
stroke:#FFFFFF; stroke-width:39.3701; stroke-opacity:1; 
stroke-linecap:round; stroke-linejoin:round;">
</g>
<g style="fill:#FFFFFF; fill-opacity:1.0; 
stroke:#FFFFFF; stroke-width:0; stroke-opacity:1; 
stroke-linecap:round; stroke-linejoin:round;">
<circle cx="6036.75" cy="18070.9" r="157.48" /> 
</g>
<g style="fill:#FFFFFF; fill-opacity:1.0; 
stroke:#FFFFFF; stroke-width:39.3701; stroke-opacity:1; 
stroke-linecap:round; stroke-linejoin:round;">
</g>
<g style="fill:#FFFFFF; fill-opacity:1.0; 
stroke:#FFFFFF; stroke-width:0; stroke-opacity:1; 
stroke-linecap:round; stroke-linejoin:round;">
<circle cx="13280.8" cy="17126" r="157.48" /> 
</g>
<g style="fill:#FFFFFF; fill-opacity:1.0; 
stroke:#FFFFFF; stroke-width:39.3701; stroke-opacity:1; 
stroke-linecap:round; stroke-linejoin:round;">
</g>
<g style="fill:#FFFFFF; fill-opacity:1.0; 
stroke:#FFFFFF; stroke-width:0; stroke-opacity:1; 
stroke-linecap:round; stroke-linejoin:round;">
<circle cx="5328.08" cy="17126" r="157.48" /> 
</g>
<g style="fill:#FFFFFF; fill-opacity:1.0; 
stroke:#FFFFFF; stroke-width:39.3701; stroke-opacity:1; 
stroke-linecap:round; stroke-linejoin:round;">
</g>
<g style="fill:#FFFFFF; fill-opacity:1.0; 
stroke:#FFFFFF; stroke-width:0; stroke-opacity:1; 
stroke-linecap:round; stroke-linejoin:round;">
<circle cx="31391.1" cy="14724.4" r="216.535" /> 
</g>
<g style="fill:#FFFFFF; fill-opacity:1.0; 
stroke:#FFFFFF; stroke-width:39.3701; stroke-opacity:1; 
stroke-linecap:round; stroke-linejoin:round;">
</g>
<g style="fill:#FFFFFF; fill-opacity:1.0; 
stroke:#FFFFFF; stroke-width:0; stroke-opacity:1; 
stroke-linecap:round; stroke-linejoin:round;">
<circle cx="31391.1" cy="17480.3" r="216.535" /> 
</g>
<g style="fill:#FFFFFF; fill-opacity:1.0; 
stroke:#FFFFFF; stroke-width:39.3701; stroke-opacity:1; 
stroke-linecap:round; stroke-linejoin:round;">
</g>
<g style="fill:#FFFFFF; fill-opacity:1.0; 
stroke:#FFFFFF; stroke-width:0; stroke-opacity:1; 
stroke-linecap:round; stroke-linejoin:round;">
<circle cx="2139.11" cy="8110.24" r="216.535" /> 
</g>
<g style="fill:#FFFFFF; fill-opacity:1.0; 
stroke:#FFFFFF; stroke-width:39.3701; stroke-opacity:1; 
stroke-linecap:round; stroke-linejoin:round;">
</g>
<g style="fill:#FFFFFF; fill-opacity:1.0; 
stroke:#FFFFFF; stroke-width:0; stroke-opacity:1; 
stroke-linecap:round; stroke-linejoin:round;">
<circle cx="2139.11" cy="5354.33" r="216.535" /> 
</g>
<g style="fill:#FFFFFF; fill-opacity:1.0; 
stroke:#FFFFFF; stroke-width:39.3701; stroke-opacity:1; 
stroke-linecap:round; stroke-linejoin:round;">
</g>
<g style="fill:#FFFFFF; fill-opacity:1.0; 
stroke:#FFFFFF; stroke-width:0; stroke-opacity:1; 
stroke-linecap:round; stroke-linejoin:round;">
<circle cx="14461.9" cy="20866.1" r="157.48" /> 
</g>
<g style="fill:#FFFFFF; fill-opacity:1.0; 
stroke:#FFFFFF; stroke-width:39.3701; stroke-opacity:1; 
stroke-linecap:round; stroke-linejoin:round;">
</g>
<g style="fill:#FFFFFF; fill-opacity:1.0; 
stroke:#FFFFFF; stroke-width:0; stroke-opacity:1; 
stroke-linecap:round; stroke-linejoin:round;">
<circle cx="13674.5" cy="20866.1" r="157.48" /> 
</g>
<g style="fill:#FFFFFF; fill-opacity:1.0; 
stroke:#FFFFFF; stroke-width:39.3701; stroke-opacity:1; 
stroke-linecap:round; stroke-linejoin:round;">
</g>
<g style="fill:#FFFFFF; fill-opacity:1.0; 
stroke:#FFFFFF; stroke-width:0; stroke-opacity:1; 
stroke-linecap:round; stroke-linejoin:round;">
<circle cx="12887.1" cy="20866.1" r="157.48" /> 
</g>
<g style="fill:#FFFFFF; fill-opacity:1.0; 
stroke:#FFFFFF; stroke-width:39.3701; stroke-opacity:1; 
stroke-linecap:round; stroke-linejoin:round;">
</g>
<g style="fill:#FFFFFF; fill-opacity:1.0; 
stroke:#FFFFFF; stroke-width:0; stroke-opacity:1; 
stroke-linecap:round; stroke-linejoin:round;">
<circle cx="28674.5" cy="2834.65" r="157.48" /> 
</g>
<g style="fill:#FFFFFF; fill-opacity:1.0; 
stroke:#FFFFFF; stroke-width:39.3701; stroke-opacity:1; 
stroke-linecap:round; stroke-linejoin:round;">
</g>
<g style="fill:#FFFFFF; fill-opacity:1.0; 
stroke:#FFFFFF; stroke-width:0; stroke-opacity:1; 
stroke-linecap:round; stroke-linejoin:round;">
<circle cx="27887.1" cy="2834.65" r="157.48" /> 
</g>
<g style="fill:#FFFFFF; fill-opacity:1.0; 
stroke:#FFFFFF; stroke-width:39.3701; stroke-opacity:1; 
stroke-linecap:round; stroke-linejoin:round;">
</g>
<g style="fill:#FFFFFF; fill-opacity:1.0; 
stroke:#FFFFFF; stroke-width:0; stroke-opacity:1; 
stroke-linecap:round; stroke-linejoin:round;">
<circle cx="27099.7" cy="2834.65" r="157.48" /> 
</g>
<g style="fill:#FFFFFF; fill-opacity:1.0; 
stroke:#FFFFFF; stroke-width:39.3701; stroke-opacity:1; 
stroke-linecap:round; stroke-linejoin:round;">
</g>
<g style="fill:#FFFFFF; fill-opacity:1.0; 
stroke:#FFFFFF; stroke-width:0; stroke-opacity:1; 
stroke-linecap:round; stroke-linejoin:round;">
<circle cx="28674.5" cy="20866.1" r="157.48" /> 
</g>
<g style="fill:#FFFFFF; fill-opacity:1.0; 
stroke:#FFFFFF; stroke-width:39.3701; stroke-opacity:1; 
stroke-linecap:round; stroke-linejoin:round;">
</g>
<g style="fill:#FFFFFF; fill-opacity:1.0; 
stroke:#FFFFFF; stroke-width:0; stroke-opacity:1; 
stroke-linecap:round; stroke-linejoin:round;">
<circle cx="27887.1" cy="20866.1" r="157.48" /> 
</g>
<g style="fill:#FFFFFF; fill-opacity:1.0; 
stroke:#FFFFFF; stroke-width:39.3701; stroke-opacity:1; 
stroke-linecap:round; stroke-linejoin:round;">
</g>
<g style="fill:#FFFFFF; fill-opacity:1.0; 
stroke:#FFFFFF; stroke-width:0; stroke-opacity:1; 
stroke-linecap:round; stroke-linejoin:round;">
<circle cx="27099.7" cy="20866.1" r="157.48" /> 
</g>
<g style="fill:#FFFFFF; fill-opacity:1.0; 
stroke:#FFFFFF; stroke-width:39.3701; stroke-opacity:1; 
stroke-linecap:round; stroke-linejoin:round;">
</g>
<g style="fill:#FFFFFF; fill-opacity:1.0; 
stroke:#FFFFFF; stroke-width:0; stroke-opacity:1; 
stroke-linecap:round; stroke-linejoin:round;">
<circle cx="14461.9" cy="2834.65" r="157.48" /> 
</g>
<g style="fill:#FFFFFF; fill-opacity:1.0; 
stroke:#FFFFFF; stroke-width:39.3701; stroke-opacity:1; 
stroke-linecap:round; stroke-linejoin:round;">
</g>
<g style="fill:#FFFFFF; fill-opacity:1.0; 
stroke:#FFFFFF; stroke-width:0; stroke-opacity:1; 
stroke-linecap:round; stroke-linejoin:round;">
<circle cx="13674.5" cy="2834.65" r="157.48" /> 
</g>
<g style="fill:#FFFFFF; fill-opacity:1.0; 
stroke:#FFFFFF; stroke-width:39.3701; stroke-opacity:1; 
stroke-linecap:round; stroke-linejoin:round;">
</g>
<g style="fill:#FFFFFF; fill-opacity:1.0; 
stroke:#FFFFFF; stroke-width:0; stroke-opacity:1; 
stroke-linecap:round; stroke-linejoin:round;">
<circle cx="12887.1" cy="2834.65" r="157.48" /> 
</g>
<g style="fill:#FFFFFF; fill-opacity:1.0; 
stroke:#FFFFFF; stroke-width:39.3701; stroke-opacity:1; 
stroke-linecap:round; stroke-linejoin:round;">
</g>
<g style="fill:#FFFFFF; fill-opacity:1.0; 
stroke:#FFFFFF; stroke-width:0; stroke-opacity:1; 
stroke-linecap:round; stroke-linejoin:round;">
<circle cx="2139.11" cy="15590.6" r="216.535" /> 
</g>
<g style="fill:#FFFFFF; fill-opacity:1.0; 
stroke:#FFFFFF; stroke-width:39.3701; stroke-opacity:1; 
stroke-linecap:round; stroke-linejoin:round;">
</g>
<g style="fill:#FFFFFF; fill-opacity:1.0; 
stroke:#FFFFFF; stroke-width:0; stroke-opacity:1; 
stroke-linecap:round; stroke-linejoin:round;">
<circle cx="2139.11" cy="18346.5" r="216.535" /> 
</g>
<g style="fill:#FFFFFF; fill-opacity:1.0; 
stroke:#FFFFFF; stroke-width:39.3701; stroke-opacity:1; 
stroke-linecap:round; stroke-linejoin:round;">
</g>
<g style="fill:#FFFFFF; fill-opacity:1.0; 
stroke:#FFFFFF; stroke-width:0; stroke-opacity:1; 
stroke-linecap:round; stroke-linejoin:round;">
<circle cx="1981.63" cy="14606.3" r="157.48" /> 
</g>
<g style="fill:#FFFFFF; fill-opacity:1.0; 
stroke:#FFFFFF; stroke-width:39.3701; stroke-opacity:1; 
stroke-linecap:round; stroke-linejoin:round;">
</g>
<g style="fill:#FFFFFF; fill-opacity:1.0; 
stroke:#FFFFFF; stroke-width:0; stroke-opacity:1; 
stroke-linecap:round; stroke-linejoin:round;">
<circle cx="1981.63" cy="13818.9" r="157.48" /> 
</g>
<g style="fill:#FFFFFF; fill-opacity:1.0; 
stroke:#FFFFFF; stroke-width:39.3701; stroke-opacity:1; 
stroke-linecap:round; stroke-linejoin:round;">
</g>
<g style="fill:#FFFFFF; fill-opacity:1.0; 
stroke:#FFFFFF; stroke-width:0; stroke-opacity:1; 
stroke-linecap:round; stroke-linejoin:round;">
<circle cx="1981.63" cy="13031.5" r="157.48" /> 
</g>
<g style="fill:#FFFFFF; fill-opacity:1.0; 
stroke:#FFFFFF; stroke-width:39.3701; stroke-opacity:1; 
stroke-linecap:round; stroke-linejoin:round;">
</g>
<g style="fill:#FFFFFF; fill-opacity:1.0; 
stroke:#FFFFFF; stroke-width:0; stroke-opacity:1; 
stroke-linecap:round; stroke-linejoin:round;">
<circle cx="1981.63" cy="12244.1" r="157.48" /> 
</g>
<g style="fill:#FFFFFF; fill-opacity:1.0; 
stroke:#FFFFFF; stroke-width:39.3701; stroke-opacity:1; 
stroke-linecap:round; stroke-linejoin:round;">
</g>
<g style="fill:#FFFFFF; fill-opacity:1.0; 
stroke:#FFFFFF; stroke-width:0; stroke-opacity:1; 
stroke-linecap:round; stroke-linejoin:round;">
<circle cx="1981.63" cy="11456.7" r="157.48" /> 
</g>
<g style="fill:#FFFFFF; fill-opacity:1.0; 
stroke:#FFFFFF; stroke-width:39.3701; stroke-opacity:1; 
stroke-linecap:round; stroke-linejoin:round;">
</g>
<g style="fill:#FFFFFF; fill-opacity:1.0; 
stroke:#FFFFFF; stroke-width:0; stroke-opacity:1; 
stroke-linecap:round; stroke-linejoin:round;">
<circle cx="1981.63" cy="10669.3" r="157.48" /> 
</g>
<g style="fill:#FFFFFF; fill-opacity:1.0; 
stroke:#FFFFFF; stroke-width:39.3701; stroke-opacity:1; 
stroke-linecap:round; stroke-linejoin:round;">
</g>
<g style="fill:#FFFFFF; fill-opacity:1.0; 
stroke:#FFFFFF; stroke-width:0; stroke-opacity:1; 
stroke-linecap:round; stroke-linejoin:round;">
<circle cx="1981.63" cy="9881.89" r="157.48" /> 
</g>
<g style="fill:#FFFFFF; fill-opacity:1.0; 
stroke:#FFFFFF; stroke-width:39.3701; stroke-opacity:1; 
stroke-linecap:round; stroke-linejoin:round;">
</g>
<g style="fill:#FFFFFF; fill-opacity:1.0; 
stroke:#FFFFFF; stroke-width:0; stroke-opacity:1; 
stroke-linecap:round; stroke-linejoin:round;">
<circle cx="1981.63" cy="9094.49" r="157.48" /> 
</g>
<g style="fill:#FFFFFF; fill-opacity:1.0; 
stroke:#FFFFFF; stroke-width:39.3701; stroke-opacity:1; 
stroke-linecap:round; stroke-linejoin:round;">
</g>
<g style="fill:#000000; fill-opacity:1.0; 
stroke:#000000; stroke-width:39.3701; stroke-opacity:1; 
stroke-linecap:round; stroke-linejoin:round;">
</g> 
</svg>
