G04 #@! TF.GenerationSoftware,KiCad,Pcbnew,5.0.0*
G04 #@! TF.CreationDate,2018-08-30T01:52:46+01:00*
G04 #@! TF.ProjectId,test,746573742E6B696361645F7063620000,rev?*
G04 #@! TF.SameCoordinates,Original*
G04 #@! TF.FileFunction,Soldermask,Bot*
G04 #@! TF.FilePolarity,Negative*
%FSLAX46Y46*%
G04 Gerber Fmt 4.6, Leading zero omitted, Abs format (unit mm)*
G04 Created by KiCad (PCBNEW 5.0.0) date Thu Aug 30 01:52:46 2018*
%MOMM*%
%LPD*%
G01*
G04 APERTURE LIST*
%ADD10R,1.400000X1.950000*%
%ADD11R,1.400000X1.000000*%
%ADD12R,1.450000X0.500000*%
%ADD13O,1.900000X1.100000*%
%ADD14R,2.100000X2.100000*%
%ADD15R,1.750000X1.750000*%
%ADD16O,1.750000X1.750000*%
%ADD17C,4.800000*%
%ADD18R,1.250000X2.000000*%
%ADD19R,2.550000X1.900000*%
%ADD20R,1.400000X1.800000*%
%ADD21R,1.400000X1.700000*%
%ADD22C,1.200000*%
G04 APERTURE END LIST*
D10*
G04 #@! TO.C,SW1*
X86900000Y-45750000D03*
X86900000Y-50450000D03*
D11*
X85175000Y-49700000D03*
X85175000Y-46475000D03*
G04 #@! TD*
D10*
G04 #@! TO.C,SW3*
X14200000Y-24600000D03*
X14200000Y-19900000D03*
D11*
X15925000Y-20650000D03*
X15925000Y-23875000D03*
G04 #@! TD*
G04 #@! TO.C,SW2*
X15875000Y-51675000D03*
X15875000Y-48450000D03*
D10*
X14150000Y-47700000D03*
X14150000Y-52400000D03*
G04 #@! TD*
D12*
G04 #@! TO.C,J1*
X85175000Y-24550000D03*
X85175000Y-23900000D03*
X85175000Y-23250000D03*
X85175000Y-22600000D03*
X85175000Y-21950000D03*
D13*
X88300000Y-26950000D03*
D14*
X87850000Y-23250000D03*
D13*
X88300000Y-19550000D03*
X84400000Y-26950000D03*
X84400000Y-19575000D03*
G04 #@! TD*
D15*
G04 #@! TO.C,J2*
X14600000Y-37100000D03*
D16*
X14600000Y-35100000D03*
G04 #@! TD*
D17*
G04 #@! TO.C,MH3*
X87600000Y-57600000D03*
G04 #@! TD*
G04 #@! TO.C,MH4*
X87600000Y-14600000D03*
G04 #@! TD*
G04 #@! TO.C,MH6*
X14600000Y-14600000D03*
G04 #@! TD*
D18*
G04 #@! TO.C,D8*
X14225000Y-27950000D03*
X15975000Y-27950000D03*
X14225000Y-31450000D03*
X15975000Y-31450000D03*
G04 #@! TD*
D19*
G04 #@! TO.C,BAT1*
X86117919Y-31638069D03*
D20*
X88217919Y-38600000D03*
D19*
X86117919Y-40638069D03*
D21*
X88217919Y-36100000D03*
D20*
X88217919Y-33600000D03*
G04 #@! TD*
D17*
G04 #@! TO.C,MH5*
X14600000Y-57600000D03*
G04 #@! TD*
D18*
G04 #@! TO.C,D4*
X14125000Y-40650000D03*
X15875000Y-40650000D03*
X14125000Y-44150000D03*
X15875000Y-44150000D03*
G04 #@! TD*
D15*
G04 #@! TO.C,J1*
X166950000Y-37100000D03*
D16*
X166950000Y-35100000D03*
G04 #@! TD*
D17*
G04 #@! TO.C,MH1*
X93950000Y-57600000D03*
G04 #@! TD*
G04 #@! TO.C,MH2*
X94000000Y-14600000D03*
G04 #@! TD*
G04 #@! TO.C,MH3*
X166950000Y-14600000D03*
G04 #@! TD*
G04 #@! TO.C,MH4*
X166950000Y-57600000D03*
G04 #@! TD*
D22*
X36400000Y-21399998D03*
X37200000Y-22200000D03*
X36499996Y-16900000D03*
X37200000Y-17500000D03*
X76300000Y-27200002D03*
X76300000Y-29200000D03*
X76300000Y-31200002D03*
X76300000Y-33200000D03*
X19500000Y-25700000D03*
X21300000Y-49400000D03*
X18500000Y-31599998D03*
X127450000Y-33200000D03*
X133650002Y-33200000D03*
X130550000Y-40100000D03*
X89100000Y-53100000D03*
X87200000Y-53100000D03*
X40000000Y-35300000D03*
X39000000Y-35300000D03*
X70500000Y-44200000D03*
X71300000Y-44900000D03*
X19500000Y-24300000D03*
X19500000Y-22900000D03*
X22100000Y-50200000D03*
X88200000Y-54400000D03*
X81800000Y-58850000D03*
X76800000Y-58850000D03*
X66750000Y-58850000D03*
X71750000Y-58850000D03*
X61800000Y-58850000D03*
X56800000Y-58850000D03*
X46800000Y-58850000D03*
X41750000Y-58850000D03*
X26800000Y-58850000D03*
X36750000Y-58850000D03*
X51800000Y-58850000D03*
X31800000Y-58850000D03*
X21800000Y-58850000D03*
X18500000Y-32900000D03*
X126600000Y-34600000D03*
X134550000Y-34600000D03*
X131800000Y-40100000D03*
X129300000Y-40100000D03*
X72100000Y-27199996D03*
X81000002Y-19900000D03*
X79650000Y-19900000D03*
X72095000Y-26200000D03*
X24800000Y-42800006D03*
X24800000Y-26600000D03*
X24800000Y-24900000D03*
X74200000Y-27200000D03*
X82100000Y-50400000D03*
X21600000Y-40800000D03*
X151550000Y-13350000D03*
X156550000Y-13350000D03*
X161550000Y-13350000D03*
X74200000Y-26200000D03*
X19250000Y-54600000D03*
X19250000Y-58850000D03*
X22600000Y-40800000D03*
X20600000Y-40800000D03*
X45050000Y-13350000D03*
X22500000Y-24899998D03*
X22500000Y-26600000D03*
X41100000Y-33100000D03*
X41100000Y-37400000D03*
X43800000Y-21800000D03*
X79200000Y-50400000D03*
X136550000Y-13350000D03*
X141550000Y-13350000D03*
X146550000Y-13350000D03*
X121550000Y-13350000D03*
X126550000Y-13350000D03*
X131550000Y-13350000D03*
X111550000Y-13350000D03*
X116550000Y-13350000D03*
X106550000Y-13350000D03*
X101550000Y-13350000D03*
X146550000Y-58850000D03*
X151550000Y-58850000D03*
X156550000Y-58850000D03*
X136550000Y-58850000D03*
X141550000Y-58850000D03*
X116550000Y-58850000D03*
X131550000Y-58850000D03*
X126550000Y-58850000D03*
X161550000Y-58850000D03*
X111550000Y-58850000D03*
X101550000Y-58850000D03*
X121550000Y-58850000D03*
X106550000Y-58850000D03*
X50050000Y-13350000D03*
X55050000Y-13350000D03*
X60050000Y-13350000D03*
X65050000Y-13350000D03*
X70050000Y-13350000D03*
X75050000Y-13350000D03*
X80050000Y-13350000D03*
X76600000Y-53000000D03*
X33200000Y-21400000D03*
X34000000Y-22200000D03*
X18400000Y-13300000D03*
X38400000Y-13300000D03*
X28850000Y-13350000D03*
X33400000Y-13300000D03*
X23400000Y-13300000D03*
X30800000Y-14900000D03*
X35500000Y-47400000D03*
X34700000Y-48200000D03*
X82000000Y-46435000D03*
X141849996Y-28550000D03*
X37500000Y-43200000D03*
X141850000Y-43800004D03*
M02*
