M48
;DRILL file {KiCad 5.0.0} date Thu Aug 30 01:52:52 2018
;FORMAT={-:-/ absolute / metric / decimal}
FMAT,2
METRIC,TZ
T1C0.400
T2C0.800
T3C2.200
T4C0.300
%
G90
G05
M71
T1
X18.4Y-13.3
X18.5Y-31.6
X18.5Y-32.9
X19.25Y-54.6
X19.25Y-58.85
X19.5Y-22.9
X19.5Y-24.3
X19.5Y-25.7
X20.6Y-40.8
X21.3Y-49.4
X21.6Y-40.8
X21.8Y-58.85
X22.1Y-50.2
X22.5Y-24.9
X22.5Y-26.6
X22.6Y-40.8
X23.4Y-13.3
X24.8Y-24.9
X24.8Y-26.6
X24.8Y-42.8
X26.8Y-58.85
X28.85Y-13.35
X30.8Y-14.9
X31.8Y-58.85
X33.2Y-21.4
X33.4Y-13.3
X34.Y-22.2
X34.7Y-48.2
X35.5Y-47.4
X36.4Y-21.4
X36.5Y-16.9
X36.75Y-58.85
X37.2Y-17.5
X37.2Y-22.2
X37.5Y-43.2
X38.4Y-13.3
X39.Y-35.3
X40.Y-35.3
X41.1Y-33.1
X41.1Y-37.4
X41.75Y-58.85
X43.8Y-21.8
X45.05Y-13.35
X46.8Y-58.85
X50.05Y-13.35
X51.8Y-58.85
X55.05Y-13.35
X56.8Y-58.85
X60.05Y-13.35
X61.8Y-58.85
X65.05Y-13.35
X66.75Y-58.85
X70.05Y-13.35
X70.5Y-44.2
X71.3Y-44.9
X71.75Y-58.85
X72.095Y-26.2
X72.1Y-27.2
X74.2Y-26.2
X74.2Y-27.2
X75.05Y-13.35
X76.3Y-27.2
X76.3Y-29.2
X76.3Y-31.2
X76.3Y-33.2
X76.6Y-53.
X76.8Y-58.85
X79.2Y-50.4
X79.65Y-19.9
X80.05Y-13.35
X81.Y-19.9
X81.8Y-58.85
X82.Y-46.435
X82.1Y-50.4
X87.2Y-53.1
X88.2Y-54.4
X89.1Y-53.1
X101.55Y-13.35
X101.55Y-58.85
X106.55Y-13.35
X106.55Y-58.85
X111.55Y-13.35
X111.55Y-58.85
X116.55Y-13.35
X116.55Y-58.85
X121.55Y-13.35
X121.55Y-58.85
X126.55Y-13.35
X126.55Y-58.85
X126.6Y-34.6
X127.45Y-33.2
X129.3Y-40.1
X130.55Y-40.1
X131.55Y-13.35
X131.55Y-58.85
X131.8Y-40.1
X133.65Y-33.2
X134.55Y-34.6
X136.55Y-13.35
X136.55Y-58.85
X141.55Y-13.35
X141.55Y-58.85
X141.85Y-28.55
X141.85Y-43.8
X146.55Y-13.35
X146.55Y-58.85
X151.55Y-13.35
X151.55Y-58.85
X156.55Y-13.35
X156.55Y-58.85
X161.55Y-13.35
X161.55Y-58.85
T2
X166.95Y-35.1
X166.95Y-37.1
X14.6Y-35.1
X14.6Y-37.1
T3
X87.6Y-57.6
X166.95Y-14.6
X87.6Y-14.6
X14.6Y-57.6
X14.6Y-14.6
X166.95Y-57.6
X94.Y-14.6
X93.95Y-57.6
T4
X14.6Y-21.4
X14.6Y-23.1
X14.55Y-49.2
X14.55Y-50.9
X86.5Y-47.25
X86.5Y-48.95
T1
X84.7Y-19.575G85X84.1Y-19.575
G05
X84.7Y-26.95G85X84.1Y-26.95
G05
X88.6Y-19.55G85X88.Y-19.55
G05
X88.6Y-26.95G85X88.Y-26.95
G05
T0
M30
