G04 #@! TF.GenerationSoftware,KiCad,Pcbnew,5.0.0*
G04 #@! TF.CreationDate,2018-08-30T01:52:45+01:00*
G04 #@! TF.ProjectId,test,746573742E6B696361645F7063620000,rev?*
G04 #@! TF.SameCoordinates,Original*
G04 #@! TF.FileFunction,Copper,L2,Bot,Signal*
G04 #@! TF.FilePolarity,Positive*
%FSLAX46Y46*%
G04 Gerber Fmt 4.6, Leading zero omitted, Abs format (unit mm)*
G04 Created by KiCad (PCBNEW 5.0.0) date Thu Aug 30 01:52:45 2018*
%MOMM*%
%LPD*%
G01*
G04 APERTURE LIST*
G04 #@! TA.AperFunction,SMDPad,CuDef*
%ADD10R,1.000000X1.550000*%
G04 #@! TD*
G04 #@! TA.AperFunction,SMDPad,CuDef*
%ADD11R,1.000000X0.600000*%
G04 #@! TD*
G04 #@! TA.AperFunction,SMDPad,CuDef*
%ADD12R,1.350000X0.400000*%
G04 #@! TD*
G04 #@! TA.AperFunction,ComponentPad*
%ADD13O,1.800000X1.000000*%
G04 #@! TD*
G04 #@! TA.AperFunction,SMDPad,CuDef*
%ADD14R,2.000000X2.000000*%
G04 #@! TD*
G04 #@! TA.AperFunction,ComponentPad*
%ADD15R,1.350000X1.350000*%
G04 #@! TD*
G04 #@! TA.AperFunction,ComponentPad*
%ADD16O,1.350000X1.350000*%
G04 #@! TD*
G04 #@! TA.AperFunction,ComponentPad*
%ADD17C,4.400000*%
G04 #@! TD*
G04 #@! TA.AperFunction,SMDPad,CuDef*
%ADD18R,0.850000X1.600000*%
G04 #@! TD*
G04 #@! TA.AperFunction,SMDPad,CuDef*
%ADD19R,2.150000X1.500000*%
G04 #@! TD*
G04 #@! TA.AperFunction,SMDPad,CuDef*
%ADD20R,1.000000X1.400000*%
G04 #@! TD*
G04 #@! TA.AperFunction,SMDPad,CuDef*
%ADD21R,1.000000X1.300000*%
G04 #@! TD*
G04 #@! TA.AperFunction,ViaPad*
%ADD22C,0.800000*%
G04 #@! TD*
G04 #@! TA.AperFunction,Conductor*
%ADD23C,0.500000*%
G04 #@! TD*
G04 #@! TA.AperFunction,Conductor*
%ADD24C,0.600000*%
G04 #@! TD*
G04 #@! TA.AperFunction,Conductor*
%ADD25C,0.400000*%
G04 #@! TD*
G04 #@! TA.AperFunction,Conductor*
%ADD26C,0.800000*%
G04 #@! TD*
G04 #@! TA.AperFunction,Conductor*
%ADD27C,0.254000*%
G04 #@! TD*
G04 #@! TA.AperFunction,NonConductor*
%ADD28C,0.254000*%
G04 #@! TD*
G04 APERTURE END LIST*
D10*
G04 #@! TO.P,SW1,*
G04 #@! TO.N,*
X86900000Y-45750000D03*
X86900000Y-50450000D03*
D11*
G04 #@! TO.P,SW1,1*
G04 #@! TO.N,Net-(C8-Pad2)*
X85175000Y-49700000D03*
G04 #@! TO.P,SW1,2*
G04 #@! TO.N,Net-(Q1-Pad2)*
X85175000Y-46475000D03*
G04 #@! TD*
D10*
G04 #@! TO.P,SW3,*
G04 #@! TO.N,*
X14200000Y-24600000D03*
X14200000Y-19900000D03*
D11*
G04 #@! TO.P,SW3,1*
G04 #@! TO.N,PD4*
X15925000Y-20650000D03*
G04 #@! TO.P,SW3,2*
G04 #@! TO.N,VCC*
X15925000Y-23875000D03*
G04 #@! TD*
G04 #@! TO.P,SW2,2*
G04 #@! TO.N,PD3*
X15875000Y-51675000D03*
G04 #@! TO.P,SW2,1*
G04 #@! TO.N,VCC*
X15875000Y-48450000D03*
D10*
G04 #@! TO.P,SW2,*
G04 #@! TO.N,*
X14150000Y-47700000D03*
X14150000Y-52400000D03*
G04 #@! TD*
D12*
G04 #@! TO.P,J1,5*
G04 #@! TO.N,GND*
X85175000Y-24550000D03*
G04 #@! TO.P,J1,4*
G04 #@! TO.N,Net-(J1-Pad4)*
X85175000Y-23900000D03*
G04 #@! TO.P,J1,3*
G04 #@! TO.N,Net-(J1-Pad3)*
X85175000Y-23250000D03*
G04 #@! TO.P,J1,2*
G04 #@! TO.N,Net-(J1-Pad2)*
X85175000Y-22600000D03*
G04 #@! TO.P,J1,1*
G04 #@! TO.N,VBUS*
X85175000Y-21950000D03*
D13*
G04 #@! TO.P,J1,6*
G04 #@! TO.N,GND*
X88300000Y-26950000D03*
D14*
G04 #@! TO.P,J1,5*
X87850000Y-23250000D03*
D13*
G04 #@! TO.P,J1,6*
X88300000Y-19550000D03*
X84400000Y-26950000D03*
X84400000Y-19575000D03*
G04 #@! TD*
D15*
G04 #@! TO.P,J2,1*
G04 #@! TO.N,ADC0*
X14600000Y-37100000D03*
D16*
G04 #@! TO.P,J2,2*
G04 #@! TO.N,AREF*
X14600000Y-35100000D03*
G04 #@! TD*
D17*
G04 #@! TO.P,MH3,1*
G04 #@! TO.N,VCC*
X87600000Y-57600000D03*
G04 #@! TD*
G04 #@! TO.P,MH4,1*
G04 #@! TO.N,GND*
X87600000Y-14600000D03*
G04 #@! TD*
G04 #@! TO.P,MH6,1*
G04 #@! TO.N,Net-(MH6-Pad1)*
X14600000Y-14600000D03*
G04 #@! TD*
D18*
G04 #@! TO.P,D8,3*
G04 #@! TO.N,Net-(D8-Pad3)*
X14225000Y-27950000D03*
G04 #@! TO.P,D8,4*
G04 #@! TO.N,VCC*
X15975000Y-27950000D03*
G04 #@! TO.P,D8,2*
G04 #@! TO.N,GND*
X14225000Y-31450000D03*
G04 #@! TO.P,D8,1*
G04 #@! TO.N,Net-(D4-Pad3)*
X15975000Y-31450000D03*
G04 #@! TD*
D19*
G04 #@! TO.P,BAT1,*
G04 #@! TO.N,*
X86117919Y-31638069D03*
D20*
G04 #@! TO.P,BAT1,3*
G04 #@! TO.N,GND*
X88217919Y-38600000D03*
D19*
G04 #@! TO.P,BAT1,*
G04 #@! TO.N,*
X86117919Y-40638069D03*
D21*
G04 #@! TO.P,BAT1,2*
G04 #@! TO.N,Net-(BAT1-Pad2)*
X88217919Y-36100000D03*
D20*
G04 #@! TO.P,BAT1,1*
G04 #@! TO.N,+BATT*
X88217919Y-33600000D03*
G04 #@! TD*
D17*
G04 #@! TO.P,MH5,1*
G04 #@! TO.N,GND*
X14600000Y-57600000D03*
G04 #@! TD*
D18*
G04 #@! TO.P,D4,3*
G04 #@! TO.N,Net-(D4-Pad3)*
X14125000Y-40650000D03*
G04 #@! TO.P,D4,4*
G04 #@! TO.N,VCC*
X15875000Y-40650000D03*
G04 #@! TO.P,D4,2*
G04 #@! TO.N,GND*
X14125000Y-44150000D03*
G04 #@! TO.P,D4,1*
G04 #@! TO.N,Net-(D4-Pad1)*
X15875000Y-44150000D03*
G04 #@! TD*
D15*
G04 #@! TO.P,J1,1*
G04 #@! TO.N,Net-(J1-Pad1)*
X166950000Y-37100000D03*
D16*
G04 #@! TO.P,J1,2*
G04 #@! TO.N,Net-(J1-Pad2)*
X166950000Y-35100000D03*
G04 #@! TD*
D17*
G04 #@! TO.P,MH1,1*
G04 #@! TO.N,VCC*
X93950000Y-57600000D03*
G04 #@! TD*
G04 #@! TO.P,MH2,1*
G04 #@! TO.N,Net-(MH2-Pad1)*
X94000000Y-14600000D03*
G04 #@! TD*
G04 #@! TO.P,MH3,1*
G04 #@! TO.N,GND*
X166950000Y-14600000D03*
G04 #@! TD*
G04 #@! TO.P,MH4,1*
G04 #@! TO.N,Net-(MH4-Pad1)*
X166950000Y-57600000D03*
G04 #@! TD*
D22*
G04 #@! TO.N,Net-(Q2-Pad1)*
X36400000Y-21399998D03*
X37200000Y-22200000D03*
X36499996Y-16900000D03*
X37200000Y-17500000D03*
G04 #@! TO.N,+BATT*
X76300000Y-27200002D03*
X76300000Y-29200000D03*
X76300000Y-31200002D03*
X76300000Y-33200000D03*
G04 #@! TO.N,VCC*
X19500000Y-25700000D03*
X21300000Y-49400000D03*
X18500000Y-31599998D03*
X127450000Y-33200000D03*
X133650002Y-33200000D03*
X130550000Y-40100000D03*
X89100000Y-53100000D03*
X87200000Y-53100000D03*
X40000000Y-35300000D03*
X39000000Y-35300000D03*
X70500000Y-44200000D03*
X71300000Y-44900000D03*
X19500000Y-24300000D03*
X19500000Y-22900000D03*
X22100000Y-50200000D03*
X88200000Y-54400000D03*
X81800000Y-58850000D03*
X76800000Y-58850000D03*
X66750000Y-58850000D03*
X71750000Y-58850000D03*
X61800000Y-58850000D03*
X56800000Y-58850000D03*
X46800000Y-58850000D03*
X41750000Y-58850000D03*
X26800000Y-58850000D03*
X36750000Y-58850000D03*
X51800000Y-58850000D03*
X31800000Y-58850000D03*
X21800000Y-58850000D03*
X18500000Y-32900000D03*
X126600000Y-34600000D03*
X134550000Y-34600000D03*
X131800000Y-40100000D03*
X129300000Y-40100000D03*
G04 #@! TO.N,VBUS*
X72100000Y-27199996D03*
X81000002Y-19900000D03*
X79650000Y-19900000D03*
X72095000Y-26200000D03*
G04 #@! TO.N,RESET*
X24800000Y-42800006D03*
X24800000Y-26600000D03*
X24800000Y-24900000D03*
G04 #@! TO.N,GND*
X74200000Y-27200000D03*
X82100000Y-50400000D03*
X21600000Y-40800000D03*
X151550000Y-13350000D03*
X156550000Y-13350000D03*
X161550000Y-13350000D03*
X74200000Y-26200000D03*
X19250000Y-54600000D03*
X19250000Y-58850000D03*
X22600000Y-40800000D03*
X20600000Y-40800000D03*
X45050000Y-13350000D03*
X22500000Y-24899998D03*
X22500000Y-26600000D03*
X41100000Y-33100000D03*
X41100000Y-37400000D03*
X43800000Y-21800000D03*
X79200000Y-50400000D03*
X136550000Y-13350000D03*
X141550000Y-13350000D03*
X146550000Y-13350000D03*
X121550000Y-13350000D03*
X126550000Y-13350000D03*
X131550000Y-13350000D03*
X111550000Y-13350000D03*
X116550000Y-13350000D03*
X106550000Y-13350000D03*
X101550000Y-13350000D03*
X146550000Y-58850000D03*
X151550000Y-58850000D03*
X156550000Y-58850000D03*
X136550000Y-58850000D03*
X141550000Y-58850000D03*
X116550000Y-58850000D03*
X131550000Y-58850000D03*
X126550000Y-58850000D03*
X161550000Y-58850000D03*
X111550000Y-58850000D03*
X101550000Y-58850000D03*
X121550000Y-58850000D03*
X106550000Y-58850000D03*
X50050000Y-13350000D03*
X55050000Y-13350000D03*
X60050000Y-13350000D03*
X65050000Y-13350000D03*
X70050000Y-13350000D03*
X75050000Y-13350000D03*
X80050000Y-13350000D03*
G04 #@! TO.N,Net-(C8-Pad2)*
X76600000Y-53000000D03*
G04 #@! TO.N,Net-(D8-Pad3)*
X33200000Y-21400000D03*
X34000000Y-22200000D03*
G04 #@! TO.N,Net-(MH6-Pad1)*
X18400000Y-13300000D03*
X38400000Y-13300000D03*
X28850000Y-13350000D03*
X33400000Y-13300000D03*
X23400000Y-13300000D03*
X30800000Y-14900000D03*
G04 #@! TO.N,PD3*
X35500000Y-47400000D03*
X34700000Y-48200000D03*
G04 #@! TO.N,Net-(Q1-Pad2)*
X82000000Y-46435000D03*
G04 #@! TO.N,Net-(J1-Pad2)*
X141849996Y-28550000D03*
G04 #@! TO.N,PD4*
X37500000Y-43200000D03*
G04 #@! TO.N,Net-(J1-Pad1)*
X141850000Y-43800004D03*
G04 #@! TD*
D23*
G04 #@! TO.N,Net-(Q2-Pad1)*
X36400000Y-16999996D02*
X36499996Y-16900000D01*
X36400000Y-21399998D02*
X36400000Y-16999996D01*
G04 #@! TO.N,+BATT*
X76300000Y-33500000D02*
X76300000Y-28250000D01*
X88217919Y-33600000D02*
X76400000Y-33600000D01*
X76400000Y-33600000D02*
X76300000Y-33500000D01*
D24*
G04 #@! TO.N,VCC*
X16700000Y-40650000D02*
X18350000Y-40650000D01*
X15875000Y-40650000D02*
X16700000Y-40650000D01*
X15925000Y-23875000D02*
X19625000Y-23875000D01*
X15875000Y-48450000D02*
X18450000Y-48450000D01*
D23*
X19625000Y-23875000D02*
X19650000Y-23900000D01*
D24*
X16500000Y-25800000D02*
X17750000Y-25800000D01*
X15975000Y-27950000D02*
X15975000Y-26325000D01*
X15975000Y-26325000D02*
X16500000Y-25800000D01*
D23*
X18500000Y-33300000D02*
X18500000Y-31599998D01*
D25*
X127450000Y-33950000D02*
X133650002Y-33950000D01*
X127450000Y-33950000D02*
X127450000Y-37000000D01*
X127450000Y-37000000D02*
X129850001Y-39400001D01*
X129850001Y-39400001D02*
X130550000Y-40100000D01*
X93950000Y-57600000D02*
X93950000Y-42300000D01*
X129850001Y-40799999D02*
X130550000Y-40100000D01*
X95450001Y-40799999D02*
X129850001Y-40799999D01*
X93950000Y-42300000D02*
X95450001Y-40799999D01*
G04 #@! TO.N,VBUS*
X78099100Y-21999100D02*
X78100000Y-22000000D01*
X72100000Y-26210047D02*
X72100000Y-27199996D01*
X72100000Y-22700000D02*
X72100000Y-26210047D01*
X78100000Y-22000000D02*
X72800000Y-22000000D01*
X72800000Y-22000000D02*
X72100000Y-22700000D01*
X78900002Y-22000000D02*
X80300003Y-20599999D01*
X80300003Y-20599999D02*
X81000002Y-19900000D01*
X78100000Y-22000000D02*
X78900002Y-22000000D01*
X85175000Y-21950000D02*
X82700000Y-21950000D01*
G04 #@! TO.N,GND*
X74200000Y-38600000D02*
X88217919Y-38600000D01*
X74200000Y-40870000D02*
X74200000Y-38600000D01*
X74200000Y-28189949D02*
X74200000Y-27200000D01*
X74200000Y-40870000D02*
X74200000Y-28189949D01*
X74700900Y-24599100D02*
X74200000Y-25100000D01*
X74200000Y-25100000D02*
X74200000Y-26200000D01*
X82100000Y-49410051D02*
X82100000Y-50400000D01*
D23*
X64500000Y-44600000D02*
X70300000Y-50400000D01*
X70300000Y-50400000D02*
X79200000Y-50400000D01*
X81110051Y-50400000D02*
X82100000Y-50400000D01*
D25*
X82100000Y-48770000D02*
X82100000Y-49410051D01*
X74200000Y-40870000D02*
X82100000Y-48770000D01*
D24*
X14125000Y-44150000D02*
X14125000Y-46275000D01*
D25*
X14125000Y-46275000D02*
X13900000Y-46500000D01*
X13900000Y-46500000D02*
X13300000Y-46500000D01*
D24*
X14700000Y-29700000D02*
X20500000Y-29700000D01*
X14225000Y-31450000D02*
X14225000Y-30175000D01*
X14225000Y-30175000D02*
X14700000Y-29700000D01*
D25*
X74200000Y-26200000D02*
X74200000Y-27200000D01*
D23*
X79200000Y-50400000D02*
X81110051Y-50400000D01*
D25*
X85175000Y-24550000D02*
X82600000Y-24550000D01*
X85175000Y-24550000D02*
X87150000Y-24550000D01*
G04 #@! TO.N,Net-(C8-Pad2)*
X80400000Y-53000000D02*
X76600000Y-53000000D01*
X85175000Y-49700000D02*
X83700000Y-49700000D01*
G04 #@! TO.N,Net-(D8-Pad3)*
X12575010Y-26075010D02*
X12575010Y-24900000D01*
X12800000Y-26300000D02*
X12575010Y-26075010D01*
X14050000Y-26300000D02*
X12800000Y-26300000D01*
D24*
X14225000Y-27950000D02*
X14225000Y-26475000D01*
D25*
X14225000Y-26475000D02*
X14050000Y-26300000D01*
D24*
G04 #@! TO.N,PD3*
X15875000Y-51675000D02*
X19925000Y-51675000D01*
D25*
G04 #@! TO.N,Net-(Q1-Pad2)*
X82040000Y-46475000D02*
X82000000Y-46435000D01*
D24*
X85175000Y-46475000D02*
X82040000Y-46475000D01*
D25*
G04 #@! TO.N,Net-(J1-Pad2)*
X142750000Y-35100000D02*
X165995406Y-35100000D01*
X165995406Y-35100000D02*
X166950000Y-35100000D01*
D24*
G04 #@! TO.N,Net-(D4-Pad3)*
X13050000Y-40650000D02*
X14125000Y-40650000D01*
X15975000Y-32925000D02*
X15600000Y-33300000D01*
X15600000Y-33300000D02*
X12850000Y-33300000D01*
X12850000Y-33300000D02*
X12625010Y-33524990D01*
X15975000Y-31450000D02*
X15975000Y-32925000D01*
X12625010Y-33524990D02*
X12625010Y-40225010D01*
X12625010Y-40225010D02*
X13050000Y-40650000D01*
D26*
G04 #@! TO.N,PD4*
X25650000Y-20650000D02*
X26400000Y-21400000D01*
X15925000Y-20650000D02*
X25650000Y-20650000D01*
X26400000Y-21400000D02*
X26400000Y-43200000D01*
D25*
G04 #@! TO.N,Net-(J1-Pad1)*
X166950000Y-37100000D02*
X148550004Y-37100000D01*
G04 #@! TD*
D27*
G04 #@! TO.N,VBUS*
G36*
X81973000Y-21100000D02*
X81975440Y-21124776D01*
X81982667Y-21148601D01*
X81994403Y-21170557D01*
X82010197Y-21189803D01*
X82029443Y-21205597D01*
X82056803Y-21219428D01*
X84094840Y-21956590D01*
X82075301Y-22773000D01*
X72900000Y-22773000D01*
X72875224Y-22775440D01*
X72851399Y-22782667D01*
X72829443Y-22794403D01*
X72810197Y-22810197D01*
X72794403Y-22829443D01*
X72782667Y-22851399D01*
X72775440Y-22875224D01*
X72773000Y-22900000D01*
X72773000Y-27973000D01*
X71427000Y-27973000D01*
X71427000Y-19127000D01*
X81973000Y-19127000D01*
X81973000Y-21100000D01*
X81973000Y-21100000D01*
G37*
X81973000Y-21100000D02*
X81975440Y-21124776D01*
X81982667Y-21148601D01*
X81994403Y-21170557D01*
X82010197Y-21189803D01*
X82029443Y-21205597D01*
X82056803Y-21219428D01*
X84094840Y-21956590D01*
X82075301Y-22773000D01*
X72900000Y-22773000D01*
X72875224Y-22775440D01*
X72851399Y-22782667D01*
X72829443Y-22794403D01*
X72810197Y-22810197D01*
X72794403Y-22829443D01*
X72782667Y-22851399D01*
X72775440Y-22875224D01*
X72773000Y-22900000D01*
X72773000Y-27973000D01*
X71427000Y-27973000D01*
X71427000Y-19127000D01*
X81973000Y-19127000D01*
X81973000Y-21100000D01*
G04 #@! TO.N,+BATT*
G36*
X76973000Y-32900000D02*
X76975440Y-32924776D01*
X76982667Y-32948601D01*
X76994403Y-32970557D01*
X77010197Y-32989803D01*
X77029443Y-33005597D01*
X77051399Y-33017333D01*
X77075224Y-33024560D01*
X77100000Y-33027000D01*
X88573000Y-33027000D01*
X88573000Y-34173000D01*
X75627000Y-34173000D01*
X75627000Y-26427000D01*
X76973000Y-26427000D01*
X76973000Y-32900000D01*
X76973000Y-32900000D01*
G37*
X76973000Y-32900000D02*
X76975440Y-32924776D01*
X76982667Y-32948601D01*
X76994403Y-32970557D01*
X77010197Y-32989803D01*
X77029443Y-33005597D01*
X77051399Y-33017333D01*
X77075224Y-33024560D01*
X77100000Y-33027000D01*
X88573000Y-33027000D01*
X88573000Y-34173000D01*
X75627000Y-34173000D01*
X75627000Y-26427000D01*
X76973000Y-26427000D01*
X76973000Y-32900000D01*
G04 #@! TO.N,Net-(MH6-Pad1)*
G36*
X39273000Y-15373000D02*
X35500000Y-15373000D01*
X35475224Y-15375440D01*
X35451399Y-15382667D01*
X35429443Y-15394403D01*
X35410197Y-15410197D01*
X35394403Y-15429443D01*
X35382667Y-15451399D01*
X35375440Y-15475224D01*
X35373000Y-15500000D01*
X35373000Y-16873000D01*
X12302000Y-16873000D01*
X12302000Y-14609880D01*
X12346715Y-14153840D01*
X12476289Y-13724669D01*
X12686755Y-13328842D01*
X12970093Y-12981433D01*
X13315519Y-12695673D01*
X13709865Y-12482451D01*
X14138118Y-12349885D01*
X14593479Y-12302024D01*
X14600420Y-12302000D01*
X39273000Y-12302000D01*
X39273000Y-15373000D01*
X39273000Y-15373000D01*
G37*
X39273000Y-15373000D02*
X35500000Y-15373000D01*
X35475224Y-15375440D01*
X35451399Y-15382667D01*
X35429443Y-15394403D01*
X35410197Y-15410197D01*
X35394403Y-15429443D01*
X35382667Y-15451399D01*
X35375440Y-15475224D01*
X35373000Y-15500000D01*
X35373000Y-16873000D01*
X12302000Y-16873000D01*
X12302000Y-14609880D01*
X12346715Y-14153840D01*
X12476289Y-13724669D01*
X12686755Y-13328842D01*
X12970093Y-12981433D01*
X13315519Y-12695673D01*
X13709865Y-12482451D01*
X14138118Y-12349885D01*
X14593479Y-12302024D01*
X14600420Y-12302000D01*
X39273000Y-12302000D01*
X39273000Y-15373000D01*
G04 #@! TO.N,VCC*
G36*
X20273000Y-26473000D02*
X17127000Y-26473000D01*
X17127000Y-22027000D01*
X20273000Y-22027000D01*
X20273000Y-26473000D01*
X20273000Y-26473000D01*
G37*
X20273000Y-26473000D02*
X17127000Y-26473000D01*
X17127000Y-22027000D01*
X20273000Y-22027000D01*
X20273000Y-26473000D01*
G04 #@! TO.N,RESET*
G36*
X25373000Y-43873000D02*
X24227000Y-43873000D01*
X24227000Y-22027000D01*
X25373000Y-22027000D01*
X25373000Y-43873000D01*
X25373000Y-43873000D01*
G37*
X25373000Y-43873000D02*
X24227000Y-43873000D01*
X24227000Y-22027000D01*
X25373000Y-22027000D01*
X25373000Y-43873000D01*
G04 #@! TO.N,VCC*
G36*
X19273000Y-48900000D02*
X19275440Y-48924776D01*
X19282667Y-48948601D01*
X19294403Y-48970557D01*
X19310197Y-48989803D01*
X19329443Y-49005597D01*
X19351399Y-49017333D01*
X19375224Y-49024560D01*
X19400000Y-49027000D01*
X26073000Y-49027000D01*
X26073000Y-50573000D01*
X17727000Y-50573000D01*
X17727000Y-30827000D01*
X19273000Y-30827000D01*
X19273000Y-48900000D01*
X19273000Y-48900000D01*
G37*
X19273000Y-48900000D02*
X19275440Y-48924776D01*
X19282667Y-48948601D01*
X19294403Y-48970557D01*
X19310197Y-48989803D01*
X19329443Y-49005597D01*
X19351399Y-49017333D01*
X19375224Y-49024560D01*
X19400000Y-49027000D01*
X26073000Y-49027000D01*
X26073000Y-50573000D01*
X17727000Y-50573000D01*
X17727000Y-30827000D01*
X19273000Y-30827000D01*
X19273000Y-48900000D01*
G04 #@! TO.N,PD3*
G36*
X35873000Y-48573000D02*
X27600000Y-48573000D01*
X27575224Y-48575440D01*
X27551399Y-48582667D01*
X27529443Y-48594403D01*
X27510197Y-48610197D01*
X27494403Y-48629443D01*
X27482667Y-48651399D01*
X27475440Y-48675224D01*
X27473000Y-48700000D01*
X27473000Y-52773000D01*
X17727000Y-52773000D01*
X17727000Y-51327000D01*
X26800000Y-51327000D01*
X26824776Y-51324560D01*
X26848601Y-51317333D01*
X26870557Y-51305597D01*
X26889803Y-51289803D01*
X26905597Y-51270557D01*
X26917333Y-51248601D01*
X26924560Y-51224776D01*
X26927000Y-51200000D01*
X26927000Y-47027000D01*
X35873000Y-47027000D01*
X35873000Y-48573000D01*
X35873000Y-48573000D01*
G37*
X35873000Y-48573000D02*
X27600000Y-48573000D01*
X27575224Y-48575440D01*
X27551399Y-48582667D01*
X27529443Y-48594403D01*
X27510197Y-48610197D01*
X27494403Y-48629443D01*
X27482667Y-48651399D01*
X27475440Y-48675224D01*
X27473000Y-48700000D01*
X27473000Y-52773000D01*
X17727000Y-52773000D01*
X17727000Y-51327000D01*
X26800000Y-51327000D01*
X26824776Y-51324560D01*
X26848601Y-51317333D01*
X26870557Y-51305597D01*
X26889803Y-51289803D01*
X26905597Y-51270557D01*
X26917333Y-51248601D01*
X26924560Y-51224776D01*
X26927000Y-51200000D01*
X26927000Y-47027000D01*
X35873000Y-47027000D01*
X35873000Y-48573000D01*
G04 #@! TO.N,VCC*
G36*
X71673000Y-45273000D02*
X70127000Y-45273000D01*
X70127000Y-36200000D01*
X70124560Y-36175224D01*
X70117333Y-36151399D01*
X70105597Y-36129443D01*
X70089803Y-36110197D01*
X70070557Y-36094403D01*
X70048601Y-36082667D01*
X70024776Y-36075440D01*
X70000000Y-36073000D01*
X38627000Y-36073000D01*
X38627000Y-34527000D01*
X71673000Y-34527000D01*
X71673000Y-45273000D01*
X71673000Y-45273000D01*
G37*
X71673000Y-45273000D02*
X70127000Y-45273000D01*
X70127000Y-36200000D01*
X70124560Y-36175224D01*
X70117333Y-36151399D01*
X70105597Y-36129443D01*
X70089803Y-36110197D01*
X70070557Y-36094403D01*
X70048601Y-36082667D01*
X70024776Y-36075440D01*
X70000000Y-36073000D01*
X38627000Y-36073000D01*
X38627000Y-34527000D01*
X71673000Y-34527000D01*
X71673000Y-45273000D01*
G04 #@! TO.N,Net-(C8-Pad2)*
G36*
X84573000Y-49873000D02*
X83900000Y-49873000D01*
X83875224Y-49875440D01*
X83851399Y-49882667D01*
X83829443Y-49894403D01*
X83810197Y-49910197D01*
X83794403Y-49929443D01*
X83782667Y-49951399D01*
X83775440Y-49975224D01*
X83773000Y-50000000D01*
X83773000Y-53773000D01*
X75727000Y-53773000D01*
X75727000Y-52227000D01*
X83300000Y-52227000D01*
X83324776Y-52224560D01*
X83348601Y-52217333D01*
X83370557Y-52205597D01*
X83389803Y-52189803D01*
X83405597Y-52170557D01*
X83417333Y-52148601D01*
X83424560Y-52124776D01*
X83427000Y-52100000D01*
X83427000Y-49527000D01*
X84573000Y-49527000D01*
X84573000Y-49873000D01*
X84573000Y-49873000D01*
G37*
X84573000Y-49873000D02*
X83900000Y-49873000D01*
X83875224Y-49875440D01*
X83851399Y-49882667D01*
X83829443Y-49894403D01*
X83810197Y-49910197D01*
X83794403Y-49929443D01*
X83782667Y-49951399D01*
X83775440Y-49975224D01*
X83773000Y-50000000D01*
X83773000Y-53773000D01*
X75727000Y-53773000D01*
X75727000Y-52227000D01*
X83300000Y-52227000D01*
X83324776Y-52224560D01*
X83348601Y-52217333D01*
X83370557Y-52205597D01*
X83389803Y-52189803D01*
X83405597Y-52170557D01*
X83417333Y-52148601D01*
X83424560Y-52124776D01*
X83427000Y-52100000D01*
X83427000Y-49527000D01*
X84573000Y-49527000D01*
X84573000Y-49873000D01*
G04 #@! TO.N,Net-(Q1-Pad2)*
G36*
X84073000Y-47173000D02*
X81327000Y-47173000D01*
X81327000Y-45727000D01*
X84073000Y-45727000D01*
X84073000Y-47173000D01*
X84073000Y-47173000D01*
G37*
X84073000Y-47173000D02*
X81327000Y-47173000D01*
X81327000Y-45727000D01*
X84073000Y-45727000D01*
X84073000Y-47173000D01*
G04 #@! TO.N,VCC*
G36*
X89898001Y-57590109D02*
X89853285Y-58046161D01*
X89723710Y-58475333D01*
X89513248Y-58871155D01*
X89229905Y-59218569D01*
X88884484Y-59504325D01*
X88490135Y-59717549D01*
X88061882Y-59850115D01*
X87606521Y-59897976D01*
X87599580Y-59898000D01*
X20927000Y-59898000D01*
X20927000Y-57827000D01*
X75600000Y-57827000D01*
X75624776Y-57824560D01*
X75648601Y-57817333D01*
X75670557Y-57805597D01*
X75689803Y-57789803D01*
X75705597Y-57770557D01*
X75717333Y-57748601D01*
X75724560Y-57724776D01*
X75727000Y-57700000D01*
X75727000Y-55327000D01*
X84700000Y-55327000D01*
X84724776Y-55324560D01*
X84748601Y-55317333D01*
X84770557Y-55305597D01*
X84789803Y-55289803D01*
X84805597Y-55270557D01*
X84817333Y-55248601D01*
X84824560Y-55224776D01*
X84827000Y-55200000D01*
X84827000Y-52227000D01*
X89898001Y-52227000D01*
X89898001Y-57590109D01*
X89898001Y-57590109D01*
G37*
X89898001Y-57590109D02*
X89853285Y-58046161D01*
X89723710Y-58475333D01*
X89513248Y-58871155D01*
X89229905Y-59218569D01*
X88884484Y-59504325D01*
X88490135Y-59717549D01*
X88061882Y-59850115D01*
X87606521Y-59897976D01*
X87599580Y-59898000D01*
X20927000Y-59898000D01*
X20927000Y-57827000D01*
X75600000Y-57827000D01*
X75624776Y-57824560D01*
X75648601Y-57817333D01*
X75670557Y-57805597D01*
X75689803Y-57789803D01*
X75705597Y-57770557D01*
X75717333Y-57748601D01*
X75724560Y-57724776D01*
X75727000Y-57700000D01*
X75727000Y-55327000D01*
X84700000Y-55327000D01*
X84724776Y-55324560D01*
X84748601Y-55317333D01*
X84770557Y-55305597D01*
X84789803Y-55289803D01*
X84805597Y-55270557D01*
X84817333Y-55248601D01*
X84824560Y-55224776D01*
X84827000Y-55200000D01*
X84827000Y-52227000D01*
X89898001Y-52227000D01*
X89898001Y-57590109D01*
G04 #@! TO.N,GND*
G36*
X88046160Y-12346715D02*
X88475331Y-12476289D01*
X88871158Y-12686755D01*
X89218567Y-12970093D01*
X89504327Y-13315519D01*
X89717549Y-13709865D01*
X89850115Y-14138118D01*
X89897976Y-14593479D01*
X89898000Y-14600420D01*
X89898000Y-29773000D01*
X77827000Y-29773000D01*
X77827000Y-25800000D01*
X77824560Y-25775224D01*
X77817333Y-25751399D01*
X77805597Y-25729443D01*
X77789803Y-25710197D01*
X77770557Y-25694403D01*
X77748601Y-25682667D01*
X77724776Y-25675440D01*
X77700000Y-25673000D01*
X75000000Y-25673000D01*
X74975224Y-25675440D01*
X74951399Y-25682667D01*
X74929443Y-25694403D01*
X74910197Y-25710197D01*
X74894403Y-25729443D01*
X74882667Y-25751399D01*
X74875440Y-25775224D01*
X74873000Y-25800000D01*
X74873000Y-34900000D01*
X74875440Y-34924776D01*
X74882667Y-34948601D01*
X74894403Y-34970557D01*
X74910197Y-34989803D01*
X74929443Y-35005597D01*
X74951399Y-35017333D01*
X74975224Y-35024560D01*
X75000000Y-35027000D01*
X86573000Y-35027000D01*
X86573000Y-38000000D01*
X86575440Y-38024776D01*
X86582667Y-38048601D01*
X86594403Y-38070557D01*
X86610197Y-38089803D01*
X86629443Y-38105597D01*
X86651399Y-38117333D01*
X86675224Y-38124560D01*
X86700000Y-38127000D01*
X88573000Y-38127000D01*
X88573000Y-39073000D01*
X84200000Y-39073000D01*
X84175224Y-39075440D01*
X84151399Y-39082667D01*
X84129443Y-39094403D01*
X84110197Y-39110197D01*
X84094403Y-39129443D01*
X84082667Y-39151399D01*
X84075440Y-39175224D01*
X84073000Y-39200000D01*
X84073000Y-41900000D01*
X84075440Y-41924776D01*
X84082667Y-41948601D01*
X84094403Y-41970557D01*
X84110197Y-41989803D01*
X84129443Y-42005597D01*
X84151399Y-42017333D01*
X84175224Y-42024560D01*
X84200000Y-42027000D01*
X85573000Y-42027000D01*
X85573000Y-45073000D01*
X80800000Y-45073000D01*
X80775224Y-45075440D01*
X80751399Y-45082667D01*
X80729443Y-45094403D01*
X80710197Y-45110197D01*
X80694403Y-45129443D01*
X80682667Y-45151399D01*
X80675440Y-45175224D01*
X80673000Y-45200000D01*
X80673000Y-47700000D01*
X80675440Y-47724776D01*
X80682667Y-47748601D01*
X80694403Y-47770557D01*
X80710197Y-47789803D01*
X80729443Y-47805597D01*
X80751399Y-47817333D01*
X80775224Y-47824560D01*
X80800000Y-47827000D01*
X82773000Y-47827000D01*
X82773000Y-51473000D01*
X74500000Y-51473000D01*
X74475224Y-51475440D01*
X74451399Y-51482667D01*
X74429443Y-51494403D01*
X74410197Y-51510197D01*
X74394403Y-51529443D01*
X74382667Y-51551399D01*
X74375440Y-51575224D01*
X74373000Y-51600000D01*
X74373000Y-56573000D01*
X20250000Y-56573000D01*
X20225224Y-56575440D01*
X20201399Y-56582667D01*
X20179443Y-56594403D01*
X20160197Y-56610197D01*
X20144403Y-56629443D01*
X20132667Y-56651399D01*
X20125440Y-56675224D01*
X20123000Y-56700000D01*
X20123000Y-59898000D01*
X14609880Y-59898000D01*
X14153839Y-59853285D01*
X13724667Y-59723710D01*
X13328845Y-59513248D01*
X12981431Y-59229905D01*
X12695675Y-58884484D01*
X12482451Y-58490135D01*
X12349885Y-58061882D01*
X12302024Y-57606521D01*
X12302000Y-57599580D01*
X12302000Y-46227000D01*
X14474682Y-46227000D01*
X14479608Y-46596418D01*
X13650000Y-46596418D01*
X13585897Y-46602732D01*
X13524257Y-46621430D01*
X13467450Y-46651794D01*
X13417657Y-46692657D01*
X13376794Y-46742450D01*
X13346430Y-46799257D01*
X13327732Y-46860897D01*
X13321418Y-46925000D01*
X13321418Y-48475000D01*
X13327732Y-48539103D01*
X13346430Y-48600743D01*
X13376794Y-48657550D01*
X13417657Y-48707343D01*
X13467450Y-48748206D01*
X13524257Y-48778570D01*
X13585897Y-48797268D01*
X13650000Y-48803582D01*
X14284704Y-48803582D01*
X14245930Y-48829490D01*
X14179490Y-48895930D01*
X14127288Y-48974056D01*
X14091331Y-49060864D01*
X14073000Y-49153020D01*
X14073000Y-49246980D01*
X14091331Y-49339136D01*
X14127288Y-49425944D01*
X14179490Y-49504070D01*
X14245930Y-49570510D01*
X14324056Y-49622712D01*
X14410864Y-49658669D01*
X14503020Y-49677000D01*
X14520682Y-49677000D01*
X14530629Y-50423000D01*
X14503020Y-50423000D01*
X14410864Y-50441331D01*
X14324056Y-50477288D01*
X14245930Y-50529490D01*
X14179490Y-50595930D01*
X14127288Y-50674056D01*
X14091331Y-50760864D01*
X14073000Y-50853020D01*
X14073000Y-50946980D01*
X14091331Y-51039136D01*
X14127288Y-51125944D01*
X14179490Y-51204070D01*
X14245930Y-51270510D01*
X14284704Y-51296418D01*
X13650000Y-51296418D01*
X13585897Y-51302732D01*
X13524257Y-51321430D01*
X13467450Y-51351794D01*
X13417657Y-51392657D01*
X13376794Y-51442450D01*
X13346430Y-51499257D01*
X13327732Y-51560897D01*
X13321418Y-51625000D01*
X13321418Y-53175000D01*
X13327732Y-53239103D01*
X13346430Y-53300743D01*
X13376794Y-53357550D01*
X13417657Y-53407343D01*
X13467450Y-53448206D01*
X13524257Y-53478570D01*
X13585897Y-53497268D01*
X13650000Y-53503582D01*
X14571703Y-53503582D01*
X14573011Y-53601693D01*
X14575782Y-53626435D01*
X14583326Y-53650161D01*
X14595353Y-53671959D01*
X14611403Y-53690992D01*
X14630857Y-53706528D01*
X14652968Y-53717970D01*
X14676886Y-53724879D01*
X14700000Y-53727000D01*
X28100000Y-53727000D01*
X28124776Y-53724560D01*
X28148601Y-53717333D01*
X28170557Y-53705597D01*
X28189803Y-53689803D01*
X28205597Y-53670557D01*
X28217333Y-53648601D01*
X28224560Y-53624776D01*
X28227000Y-53600000D01*
X28227000Y-49327000D01*
X36500000Y-49327000D01*
X36524776Y-49324560D01*
X36548601Y-49317333D01*
X36570557Y-49305597D01*
X36589803Y-49289803D01*
X36605597Y-49270557D01*
X36617333Y-49248601D01*
X36624560Y-49224776D01*
X36627000Y-49200000D01*
X36627000Y-46400000D01*
X36624560Y-46375224D01*
X36617333Y-46351399D01*
X36605597Y-46329443D01*
X36589803Y-46310197D01*
X36570557Y-46294403D01*
X36548601Y-46282667D01*
X36524776Y-46275440D01*
X36500000Y-46273000D01*
X26200000Y-46273000D01*
X26175224Y-46275440D01*
X26151399Y-46282667D01*
X26129443Y-46294403D01*
X26110197Y-46310197D01*
X26094403Y-46329443D01*
X26082667Y-46351399D01*
X26075440Y-46375224D01*
X26073000Y-46400000D01*
X26073000Y-48273000D01*
X20027000Y-48273000D01*
X20027000Y-30000000D01*
X20024560Y-29975224D01*
X20017333Y-29951399D01*
X20005597Y-29929443D01*
X19989803Y-29910197D01*
X19970557Y-29894403D01*
X19948601Y-29882667D01*
X19924776Y-29875440D01*
X19900000Y-29873000D01*
X17727000Y-29873000D01*
X17727000Y-27327000D01*
X21700000Y-27327000D01*
X21724776Y-27324560D01*
X21748601Y-27317333D01*
X21770557Y-27305597D01*
X21789803Y-27289803D01*
X21805597Y-27270557D01*
X21817333Y-27248601D01*
X21824560Y-27224776D01*
X21827000Y-27200000D01*
X21827000Y-22027000D01*
X23173000Y-22027000D01*
X23173000Y-44500000D01*
X23175440Y-44524776D01*
X23182667Y-44548601D01*
X23194403Y-44570557D01*
X23210197Y-44589803D01*
X23229443Y-44605597D01*
X23251399Y-44617333D01*
X23275224Y-44624560D01*
X23300000Y-44627000D01*
X38900000Y-44627000D01*
X38924776Y-44624560D01*
X38948601Y-44617333D01*
X38970557Y-44605597D01*
X38989803Y-44589803D01*
X39005597Y-44570557D01*
X39017333Y-44548601D01*
X39024560Y-44524776D01*
X39027000Y-44500000D01*
X39027000Y-41800000D01*
X39024560Y-41775224D01*
X39017333Y-41751399D01*
X39005597Y-41729443D01*
X38989803Y-41710197D01*
X38970557Y-41694403D01*
X38948601Y-41682667D01*
X38924776Y-41675440D01*
X38900000Y-41673000D01*
X27527000Y-41673000D01*
X27527000Y-33800000D01*
X37673000Y-33800000D01*
X37673000Y-36800000D01*
X37675440Y-36824776D01*
X37682667Y-36848601D01*
X37694403Y-36870557D01*
X37710197Y-36889803D01*
X37729443Y-36905597D01*
X37751399Y-36917333D01*
X37775224Y-36924560D01*
X37800000Y-36927000D01*
X69273000Y-36927000D01*
X69273000Y-46100000D01*
X69275440Y-46124776D01*
X69282667Y-46148601D01*
X69294403Y-46170557D01*
X69310197Y-46189803D01*
X69329443Y-46205597D01*
X69351399Y-46217333D01*
X69375224Y-46224560D01*
X69400000Y-46227000D01*
X72400000Y-46227000D01*
X72424776Y-46224560D01*
X72448601Y-46217333D01*
X72470557Y-46205597D01*
X72489803Y-46189803D01*
X72505597Y-46170557D01*
X72517333Y-46148601D01*
X72524560Y-46124776D01*
X72527000Y-46100000D01*
X72527000Y-33800000D01*
X72524560Y-33775224D01*
X72517333Y-33751399D01*
X72505597Y-33729443D01*
X72489803Y-33710197D01*
X72470557Y-33694403D01*
X72448601Y-33682667D01*
X72424776Y-33675440D01*
X72400000Y-33673000D01*
X37800000Y-33673000D01*
X37775224Y-33675440D01*
X37751399Y-33682667D01*
X37729443Y-33694403D01*
X37710197Y-33710197D01*
X37694403Y-33729443D01*
X37682667Y-33751399D01*
X37675440Y-33775224D01*
X37673000Y-33800000D01*
X27527000Y-33800000D01*
X27527000Y-23227000D01*
X38200000Y-23227000D01*
X38224776Y-23224560D01*
X38248601Y-23217333D01*
X38270557Y-23205597D01*
X38289803Y-23189803D01*
X38305597Y-23170557D01*
X38317333Y-23148601D01*
X38324560Y-23124776D01*
X38327000Y-23100000D01*
X38327000Y-18500000D01*
X70673000Y-18500000D01*
X70673000Y-28600000D01*
X70675440Y-28624776D01*
X70682667Y-28648601D01*
X70694403Y-28670557D01*
X70710197Y-28689803D01*
X70729443Y-28705597D01*
X70751399Y-28717333D01*
X70775224Y-28724560D01*
X70800000Y-28727000D01*
X73400000Y-28727000D01*
X73424776Y-28724560D01*
X73448601Y-28717333D01*
X73470557Y-28705597D01*
X73489803Y-28689803D01*
X73505597Y-28670557D01*
X73517333Y-28648601D01*
X73524560Y-28624776D01*
X73527000Y-28600000D01*
X73527000Y-23527000D01*
X81973000Y-23527000D01*
X81973000Y-23800000D01*
X81975440Y-23824776D01*
X81982667Y-23848601D01*
X81994403Y-23870557D01*
X82010197Y-23889803D01*
X82029443Y-23905597D01*
X82058170Y-23919913D01*
X83885750Y-24557441D01*
X82053307Y-25281895D01*
X82031163Y-25293274D01*
X82011665Y-25308754D01*
X81995561Y-25327740D01*
X81983470Y-25349504D01*
X81975858Y-25373208D01*
X81973000Y-25400000D01*
X81973000Y-25800000D01*
X81975440Y-25824776D01*
X81982667Y-25848601D01*
X81994403Y-25870557D01*
X82010197Y-25889803D01*
X82029443Y-25905597D01*
X82051399Y-25917333D01*
X82075224Y-25924560D01*
X82100000Y-25927000D01*
X86800000Y-25927000D01*
X86824776Y-25924560D01*
X86848601Y-25917333D01*
X86870557Y-25905597D01*
X86889803Y-25889803D01*
X86905597Y-25870557D01*
X86917333Y-25848601D01*
X86924560Y-25824776D01*
X86927000Y-25800000D01*
X86927000Y-20800000D01*
X86924560Y-20775224D01*
X86917333Y-20751399D01*
X86905597Y-20729443D01*
X86889803Y-20710197D01*
X86870557Y-20694403D01*
X86848601Y-20682667D01*
X86824776Y-20675440D01*
X86800000Y-20673000D01*
X83327000Y-20673000D01*
X83327000Y-18500000D01*
X83324560Y-18475224D01*
X83317333Y-18451399D01*
X83305597Y-18429443D01*
X83289803Y-18410197D01*
X83270557Y-18394403D01*
X83248601Y-18382667D01*
X83224776Y-18375440D01*
X83200000Y-18373000D01*
X70800000Y-18373000D01*
X70775224Y-18375440D01*
X70751399Y-18382667D01*
X70729443Y-18394403D01*
X70710197Y-18410197D01*
X70694403Y-18429443D01*
X70682667Y-18451399D01*
X70675440Y-18475224D01*
X70673000Y-18500000D01*
X38327000Y-18500000D01*
X38327000Y-16327000D01*
X40000000Y-16327000D01*
X40024776Y-16324560D01*
X40048601Y-16317333D01*
X40070557Y-16305597D01*
X40089803Y-16289803D01*
X40105597Y-16270557D01*
X40117333Y-16248601D01*
X40124560Y-16224776D01*
X40127000Y-16200000D01*
X40127000Y-12302000D01*
X87590120Y-12302000D01*
X88046160Y-12346715D01*
X88046160Y-12346715D01*
G37*
X88046160Y-12346715D02*
X88475331Y-12476289D01*
X88871158Y-12686755D01*
X89218567Y-12970093D01*
X89504327Y-13315519D01*
X89717549Y-13709865D01*
X89850115Y-14138118D01*
X89897976Y-14593479D01*
X89898000Y-14600420D01*
X89898000Y-29773000D01*
X77827000Y-29773000D01*
X77827000Y-25800000D01*
X77824560Y-25775224D01*
X77817333Y-25751399D01*
X77805597Y-25729443D01*
X77789803Y-25710197D01*
X77770557Y-25694403D01*
X77748601Y-25682667D01*
X77724776Y-25675440D01*
X77700000Y-25673000D01*
X75000000Y-25673000D01*
X74975224Y-25675440D01*
X74951399Y-25682667D01*
X74929443Y-25694403D01*
X74910197Y-25710197D01*
X74894403Y-25729443D01*
X74882667Y-25751399D01*
X74875440Y-25775224D01*
X74873000Y-25800000D01*
X74873000Y-34900000D01*
X74875440Y-34924776D01*
X74882667Y-34948601D01*
X74894403Y-34970557D01*
X74910197Y-34989803D01*
X74929443Y-35005597D01*
X74951399Y-35017333D01*
X74975224Y-35024560D01*
X75000000Y-35027000D01*
X86573000Y-35027000D01*
X86573000Y-38000000D01*
X86575440Y-38024776D01*
X86582667Y-38048601D01*
X86594403Y-38070557D01*
X86610197Y-38089803D01*
X86629443Y-38105597D01*
X86651399Y-38117333D01*
X86675224Y-38124560D01*
X86700000Y-38127000D01*
X88573000Y-38127000D01*
X88573000Y-39073000D01*
X84200000Y-39073000D01*
X84175224Y-39075440D01*
X84151399Y-39082667D01*
X84129443Y-39094403D01*
X84110197Y-39110197D01*
X84094403Y-39129443D01*
X84082667Y-39151399D01*
X84075440Y-39175224D01*
X84073000Y-39200000D01*
X84073000Y-41900000D01*
X84075440Y-41924776D01*
X84082667Y-41948601D01*
X84094403Y-41970557D01*
X84110197Y-41989803D01*
X84129443Y-42005597D01*
X84151399Y-42017333D01*
X84175224Y-42024560D01*
X84200000Y-42027000D01*
X85573000Y-42027000D01*
X85573000Y-45073000D01*
X80800000Y-45073000D01*
X80775224Y-45075440D01*
X80751399Y-45082667D01*
X80729443Y-45094403D01*
X80710197Y-45110197D01*
X80694403Y-45129443D01*
X80682667Y-45151399D01*
X80675440Y-45175224D01*
X80673000Y-45200000D01*
X80673000Y-47700000D01*
X80675440Y-47724776D01*
X80682667Y-47748601D01*
X80694403Y-47770557D01*
X80710197Y-47789803D01*
X80729443Y-47805597D01*
X80751399Y-47817333D01*
X80775224Y-47824560D01*
X80800000Y-47827000D01*
X82773000Y-47827000D01*
X82773000Y-51473000D01*
X74500000Y-51473000D01*
X74475224Y-51475440D01*
X74451399Y-51482667D01*
X74429443Y-51494403D01*
X74410197Y-51510197D01*
X74394403Y-51529443D01*
X74382667Y-51551399D01*
X74375440Y-51575224D01*
X74373000Y-51600000D01*
X74373000Y-56573000D01*
X20250000Y-56573000D01*
X20225224Y-56575440D01*
X20201399Y-56582667D01*
X20179443Y-56594403D01*
X20160197Y-56610197D01*
X20144403Y-56629443D01*
X20132667Y-56651399D01*
X20125440Y-56675224D01*
X20123000Y-56700000D01*
X20123000Y-59898000D01*
X14609880Y-59898000D01*
X14153839Y-59853285D01*
X13724667Y-59723710D01*
X13328845Y-59513248D01*
X12981431Y-59229905D01*
X12695675Y-58884484D01*
X12482451Y-58490135D01*
X12349885Y-58061882D01*
X12302024Y-57606521D01*
X12302000Y-57599580D01*
X12302000Y-46227000D01*
X14474682Y-46227000D01*
X14479608Y-46596418D01*
X13650000Y-46596418D01*
X13585897Y-46602732D01*
X13524257Y-46621430D01*
X13467450Y-46651794D01*
X13417657Y-46692657D01*
X13376794Y-46742450D01*
X13346430Y-46799257D01*
X13327732Y-46860897D01*
X13321418Y-46925000D01*
X13321418Y-48475000D01*
X13327732Y-48539103D01*
X13346430Y-48600743D01*
X13376794Y-48657550D01*
X13417657Y-48707343D01*
X13467450Y-48748206D01*
X13524257Y-48778570D01*
X13585897Y-48797268D01*
X13650000Y-48803582D01*
X14284704Y-48803582D01*
X14245930Y-48829490D01*
X14179490Y-48895930D01*
X14127288Y-48974056D01*
X14091331Y-49060864D01*
X14073000Y-49153020D01*
X14073000Y-49246980D01*
X14091331Y-49339136D01*
X14127288Y-49425944D01*
X14179490Y-49504070D01*
X14245930Y-49570510D01*
X14324056Y-49622712D01*
X14410864Y-49658669D01*
X14503020Y-49677000D01*
X14520682Y-49677000D01*
X14530629Y-50423000D01*
X14503020Y-50423000D01*
X14410864Y-50441331D01*
X14324056Y-50477288D01*
X14245930Y-50529490D01*
X14179490Y-50595930D01*
X14127288Y-50674056D01*
X14091331Y-50760864D01*
X14073000Y-50853020D01*
X14073000Y-50946980D01*
X14091331Y-51039136D01*
X14127288Y-51125944D01*
X14179490Y-51204070D01*
X14245930Y-51270510D01*
X14284704Y-51296418D01*
X13650000Y-51296418D01*
X13585897Y-51302732D01*
X13524257Y-51321430D01*
X13467450Y-51351794D01*
X13417657Y-51392657D01*
X13376794Y-51442450D01*
X13346430Y-51499257D01*
X13327732Y-51560897D01*
X13321418Y-51625000D01*
X13321418Y-53175000D01*
X13327732Y-53239103D01*
X13346430Y-53300743D01*
X13376794Y-53357550D01*
X13417657Y-53407343D01*
X13467450Y-53448206D01*
X13524257Y-53478570D01*
X13585897Y-53497268D01*
X13650000Y-53503582D01*
X14571703Y-53503582D01*
X14573011Y-53601693D01*
X14575782Y-53626435D01*
X14583326Y-53650161D01*
X14595353Y-53671959D01*
X14611403Y-53690992D01*
X14630857Y-53706528D01*
X14652968Y-53717970D01*
X14676886Y-53724879D01*
X14700000Y-53727000D01*
X28100000Y-53727000D01*
X28124776Y-53724560D01*
X28148601Y-53717333D01*
X28170557Y-53705597D01*
X28189803Y-53689803D01*
X28205597Y-53670557D01*
X28217333Y-53648601D01*
X28224560Y-53624776D01*
X28227000Y-53600000D01*
X28227000Y-49327000D01*
X36500000Y-49327000D01*
X36524776Y-49324560D01*
X36548601Y-49317333D01*
X36570557Y-49305597D01*
X36589803Y-49289803D01*
X36605597Y-49270557D01*
X36617333Y-49248601D01*
X36624560Y-49224776D01*
X36627000Y-49200000D01*
X36627000Y-46400000D01*
X36624560Y-46375224D01*
X36617333Y-46351399D01*
X36605597Y-46329443D01*
X36589803Y-46310197D01*
X36570557Y-46294403D01*
X36548601Y-46282667D01*
X36524776Y-46275440D01*
X36500000Y-46273000D01*
X26200000Y-46273000D01*
X26175224Y-46275440D01*
X26151399Y-46282667D01*
X26129443Y-46294403D01*
X26110197Y-46310197D01*
X26094403Y-46329443D01*
X26082667Y-46351399D01*
X26075440Y-46375224D01*
X26073000Y-46400000D01*
X26073000Y-48273000D01*
X20027000Y-48273000D01*
X20027000Y-30000000D01*
X20024560Y-29975224D01*
X20017333Y-29951399D01*
X20005597Y-29929443D01*
X19989803Y-29910197D01*
X19970557Y-29894403D01*
X19948601Y-29882667D01*
X19924776Y-29875440D01*
X19900000Y-29873000D01*
X17727000Y-29873000D01*
X17727000Y-27327000D01*
X21700000Y-27327000D01*
X21724776Y-27324560D01*
X21748601Y-27317333D01*
X21770557Y-27305597D01*
X21789803Y-27289803D01*
X21805597Y-27270557D01*
X21817333Y-27248601D01*
X21824560Y-27224776D01*
X21827000Y-27200000D01*
X21827000Y-22027000D01*
X23173000Y-22027000D01*
X23173000Y-44500000D01*
X23175440Y-44524776D01*
X23182667Y-44548601D01*
X23194403Y-44570557D01*
X23210197Y-44589803D01*
X23229443Y-44605597D01*
X23251399Y-44617333D01*
X23275224Y-44624560D01*
X23300000Y-44627000D01*
X38900000Y-44627000D01*
X38924776Y-44624560D01*
X38948601Y-44617333D01*
X38970557Y-44605597D01*
X38989803Y-44589803D01*
X39005597Y-44570557D01*
X39017333Y-44548601D01*
X39024560Y-44524776D01*
X39027000Y-44500000D01*
X39027000Y-41800000D01*
X39024560Y-41775224D01*
X39017333Y-41751399D01*
X39005597Y-41729443D01*
X38989803Y-41710197D01*
X38970557Y-41694403D01*
X38948601Y-41682667D01*
X38924776Y-41675440D01*
X38900000Y-41673000D01*
X27527000Y-41673000D01*
X27527000Y-33800000D01*
X37673000Y-33800000D01*
X37673000Y-36800000D01*
X37675440Y-36824776D01*
X37682667Y-36848601D01*
X37694403Y-36870557D01*
X37710197Y-36889803D01*
X37729443Y-36905597D01*
X37751399Y-36917333D01*
X37775224Y-36924560D01*
X37800000Y-36927000D01*
X69273000Y-36927000D01*
X69273000Y-46100000D01*
X69275440Y-46124776D01*
X69282667Y-46148601D01*
X69294403Y-46170557D01*
X69310197Y-46189803D01*
X69329443Y-46205597D01*
X69351399Y-46217333D01*
X69375224Y-46224560D01*
X69400000Y-46227000D01*
X72400000Y-46227000D01*
X72424776Y-46224560D01*
X72448601Y-46217333D01*
X72470557Y-46205597D01*
X72489803Y-46189803D01*
X72505597Y-46170557D01*
X72517333Y-46148601D01*
X72524560Y-46124776D01*
X72527000Y-46100000D01*
X72527000Y-33800000D01*
X72524560Y-33775224D01*
X72517333Y-33751399D01*
X72505597Y-33729443D01*
X72489803Y-33710197D01*
X72470557Y-33694403D01*
X72448601Y-33682667D01*
X72424776Y-33675440D01*
X72400000Y-33673000D01*
X37800000Y-33673000D01*
X37775224Y-33675440D01*
X37751399Y-33682667D01*
X37729443Y-33694403D01*
X37710197Y-33710197D01*
X37694403Y-33729443D01*
X37682667Y-33751399D01*
X37675440Y-33775224D01*
X37673000Y-33800000D01*
X27527000Y-33800000D01*
X27527000Y-23227000D01*
X38200000Y-23227000D01*
X38224776Y-23224560D01*
X38248601Y-23217333D01*
X38270557Y-23205597D01*
X38289803Y-23189803D01*
X38305597Y-23170557D01*
X38317333Y-23148601D01*
X38324560Y-23124776D01*
X38327000Y-23100000D01*
X38327000Y-18500000D01*
X70673000Y-18500000D01*
X70673000Y-28600000D01*
X70675440Y-28624776D01*
X70682667Y-28648601D01*
X70694403Y-28670557D01*
X70710197Y-28689803D01*
X70729443Y-28705597D01*
X70751399Y-28717333D01*
X70775224Y-28724560D01*
X70800000Y-28727000D01*
X73400000Y-28727000D01*
X73424776Y-28724560D01*
X73448601Y-28717333D01*
X73470557Y-28705597D01*
X73489803Y-28689803D01*
X73505597Y-28670557D01*
X73517333Y-28648601D01*
X73524560Y-28624776D01*
X73527000Y-28600000D01*
X73527000Y-23527000D01*
X81973000Y-23527000D01*
X81973000Y-23800000D01*
X81975440Y-23824776D01*
X81982667Y-23848601D01*
X81994403Y-23870557D01*
X82010197Y-23889803D01*
X82029443Y-23905597D01*
X82058170Y-23919913D01*
X83885750Y-24557441D01*
X82053307Y-25281895D01*
X82031163Y-25293274D01*
X82011665Y-25308754D01*
X81995561Y-25327740D01*
X81983470Y-25349504D01*
X81975858Y-25373208D01*
X81973000Y-25400000D01*
X81973000Y-25800000D01*
X81975440Y-25824776D01*
X81982667Y-25848601D01*
X81994403Y-25870557D01*
X82010197Y-25889803D01*
X82029443Y-25905597D01*
X82051399Y-25917333D01*
X82075224Y-25924560D01*
X82100000Y-25927000D01*
X86800000Y-25927000D01*
X86824776Y-25924560D01*
X86848601Y-25917333D01*
X86870557Y-25905597D01*
X86889803Y-25889803D01*
X86905597Y-25870557D01*
X86917333Y-25848601D01*
X86924560Y-25824776D01*
X86927000Y-25800000D01*
X86927000Y-20800000D01*
X86924560Y-20775224D01*
X86917333Y-20751399D01*
X86905597Y-20729443D01*
X86889803Y-20710197D01*
X86870557Y-20694403D01*
X86848601Y-20682667D01*
X86824776Y-20675440D01*
X86800000Y-20673000D01*
X83327000Y-20673000D01*
X83327000Y-18500000D01*
X83324560Y-18475224D01*
X83317333Y-18451399D01*
X83305597Y-18429443D01*
X83289803Y-18410197D01*
X83270557Y-18394403D01*
X83248601Y-18382667D01*
X83224776Y-18375440D01*
X83200000Y-18373000D01*
X70800000Y-18373000D01*
X70775224Y-18375440D01*
X70751399Y-18382667D01*
X70729443Y-18394403D01*
X70710197Y-18410197D01*
X70694403Y-18429443D01*
X70682667Y-18451399D01*
X70675440Y-18475224D01*
X70673000Y-18500000D01*
X38327000Y-18500000D01*
X38327000Y-16327000D01*
X40000000Y-16327000D01*
X40024776Y-16324560D01*
X40048601Y-16317333D01*
X40070557Y-16305597D01*
X40089803Y-16289803D01*
X40105597Y-16270557D01*
X40117333Y-16248601D01*
X40124560Y-16224776D01*
X40127000Y-16200000D01*
X40127000Y-12302000D01*
X87590120Y-12302000D01*
X88046160Y-12346715D01*
G04 #@! TO.N,Net-(Q2-Pad1)*
G36*
X37573000Y-22573000D02*
X36027000Y-22573000D01*
X36027000Y-16327000D01*
X37573000Y-16327000D01*
X37573000Y-22573000D01*
X37573000Y-22573000D01*
G37*
X37573000Y-22573000D02*
X36027000Y-22573000D01*
X36027000Y-16327000D01*
X37573000Y-16327000D01*
X37573000Y-22573000D01*
G04 #@! TO.N,Net-(D8-Pad3)*
G36*
X35373000Y-22566535D02*
X27527000Y-22572897D01*
X27527000Y-18700000D01*
X27524560Y-18675224D01*
X27517333Y-18651399D01*
X27505597Y-18629443D01*
X27489803Y-18610197D01*
X27470557Y-18594403D01*
X27448601Y-18582667D01*
X27424776Y-18575440D01*
X27400000Y-18573000D01*
X15727000Y-18573000D01*
X15727000Y-18300000D01*
X15724560Y-18275224D01*
X15717333Y-18251399D01*
X15705597Y-18229443D01*
X15689803Y-18210197D01*
X15670557Y-18194403D01*
X15648601Y-18182667D01*
X15624776Y-18175440D01*
X15600000Y-18173000D01*
X14700000Y-18173000D01*
X14675224Y-18175440D01*
X14651399Y-18182667D01*
X14629443Y-18194403D01*
X14610197Y-18210197D01*
X14594403Y-18229443D01*
X14582667Y-18251399D01*
X14575440Y-18275224D01*
X14573000Y-18300000D01*
X14573000Y-18796418D01*
X13700000Y-18796418D01*
X13635897Y-18802732D01*
X13574257Y-18821430D01*
X13517450Y-18851794D01*
X13467657Y-18892657D01*
X13426794Y-18942450D01*
X13396430Y-18999257D01*
X13377732Y-19060897D01*
X13371418Y-19125000D01*
X13371418Y-20675000D01*
X13377732Y-20739103D01*
X13396430Y-20800743D01*
X13426794Y-20857550D01*
X13467657Y-20907343D01*
X13517450Y-20948206D01*
X13574257Y-20978570D01*
X13635897Y-20997268D01*
X13700000Y-21003582D01*
X14334704Y-21003582D01*
X14295930Y-21029490D01*
X14229490Y-21095930D01*
X14177288Y-21174056D01*
X14141331Y-21260864D01*
X14123000Y-21353020D01*
X14123000Y-21446980D01*
X14141331Y-21539136D01*
X14177288Y-21625944D01*
X14229490Y-21704070D01*
X14295930Y-21770510D01*
X14374056Y-21822712D01*
X14460864Y-21858669D01*
X14553020Y-21877000D01*
X14573000Y-21877000D01*
X14573000Y-22623000D01*
X14553020Y-22623000D01*
X14460864Y-22641331D01*
X14374056Y-22677288D01*
X14295930Y-22729490D01*
X14229490Y-22795930D01*
X14177288Y-22874056D01*
X14141331Y-22960864D01*
X14123000Y-23053020D01*
X14123000Y-23146980D01*
X14141331Y-23239136D01*
X14177288Y-23325944D01*
X14229490Y-23404070D01*
X14295930Y-23470510D01*
X14334704Y-23496418D01*
X13700000Y-23496418D01*
X13635897Y-23502732D01*
X13574257Y-23521430D01*
X13517450Y-23551794D01*
X13467657Y-23592657D01*
X13426794Y-23642450D01*
X13396430Y-23699257D01*
X13377732Y-23760897D01*
X13371418Y-23825000D01*
X13371418Y-25375000D01*
X13377732Y-25439103D01*
X13396430Y-25500743D01*
X13426794Y-25557550D01*
X13467657Y-25607343D01*
X13517450Y-25648206D01*
X13574257Y-25678570D01*
X13635897Y-25697268D01*
X13700000Y-25703582D01*
X14573000Y-25703582D01*
X14573000Y-26473000D01*
X12302000Y-26473000D01*
X12302000Y-17727000D01*
X35373000Y-17727000D01*
X35373000Y-22566535D01*
X35373000Y-22566535D01*
G37*
X35373000Y-22566535D02*
X27527000Y-22572897D01*
X27527000Y-18700000D01*
X27524560Y-18675224D01*
X27517333Y-18651399D01*
X27505597Y-18629443D01*
X27489803Y-18610197D01*
X27470557Y-18594403D01*
X27448601Y-18582667D01*
X27424776Y-18575440D01*
X27400000Y-18573000D01*
X15727000Y-18573000D01*
X15727000Y-18300000D01*
X15724560Y-18275224D01*
X15717333Y-18251399D01*
X15705597Y-18229443D01*
X15689803Y-18210197D01*
X15670557Y-18194403D01*
X15648601Y-18182667D01*
X15624776Y-18175440D01*
X15600000Y-18173000D01*
X14700000Y-18173000D01*
X14675224Y-18175440D01*
X14651399Y-18182667D01*
X14629443Y-18194403D01*
X14610197Y-18210197D01*
X14594403Y-18229443D01*
X14582667Y-18251399D01*
X14575440Y-18275224D01*
X14573000Y-18300000D01*
X14573000Y-18796418D01*
X13700000Y-18796418D01*
X13635897Y-18802732D01*
X13574257Y-18821430D01*
X13517450Y-18851794D01*
X13467657Y-18892657D01*
X13426794Y-18942450D01*
X13396430Y-18999257D01*
X13377732Y-19060897D01*
X13371418Y-19125000D01*
X13371418Y-20675000D01*
X13377732Y-20739103D01*
X13396430Y-20800743D01*
X13426794Y-20857550D01*
X13467657Y-20907343D01*
X13517450Y-20948206D01*
X13574257Y-20978570D01*
X13635897Y-20997268D01*
X13700000Y-21003582D01*
X14334704Y-21003582D01*
X14295930Y-21029490D01*
X14229490Y-21095930D01*
X14177288Y-21174056D01*
X14141331Y-21260864D01*
X14123000Y-21353020D01*
X14123000Y-21446980D01*
X14141331Y-21539136D01*
X14177288Y-21625944D01*
X14229490Y-21704070D01*
X14295930Y-21770510D01*
X14374056Y-21822712D01*
X14460864Y-21858669D01*
X14553020Y-21877000D01*
X14573000Y-21877000D01*
X14573000Y-22623000D01*
X14553020Y-22623000D01*
X14460864Y-22641331D01*
X14374056Y-22677288D01*
X14295930Y-22729490D01*
X14229490Y-22795930D01*
X14177288Y-22874056D01*
X14141331Y-22960864D01*
X14123000Y-23053020D01*
X14123000Y-23146980D01*
X14141331Y-23239136D01*
X14177288Y-23325944D01*
X14229490Y-23404070D01*
X14295930Y-23470510D01*
X14334704Y-23496418D01*
X13700000Y-23496418D01*
X13635897Y-23502732D01*
X13574257Y-23521430D01*
X13517450Y-23551794D01*
X13467657Y-23592657D01*
X13426794Y-23642450D01*
X13396430Y-23699257D01*
X13377732Y-23760897D01*
X13371418Y-23825000D01*
X13371418Y-25375000D01*
X13377732Y-25439103D01*
X13396430Y-25500743D01*
X13426794Y-25557550D01*
X13467657Y-25607343D01*
X13517450Y-25648206D01*
X13574257Y-25678570D01*
X13635897Y-25697268D01*
X13700000Y-25703582D01*
X14573000Y-25703582D01*
X14573000Y-26473000D01*
X12302000Y-26473000D01*
X12302000Y-17727000D01*
X35373000Y-17727000D01*
X35373000Y-22566535D01*
G04 #@! TO.N,PD4*
G36*
X38073000Y-43873000D02*
X26127000Y-43873000D01*
X26127000Y-42527000D01*
X38073000Y-42527000D01*
X38073000Y-43873000D01*
X38073000Y-43873000D01*
G37*
X38073000Y-43873000D02*
X26127000Y-43873000D01*
X26127000Y-42527000D01*
X38073000Y-42527000D01*
X38073000Y-43873000D01*
G36*
X26673000Y-21373000D02*
X17127000Y-21373000D01*
X17127000Y-19627000D01*
X26673000Y-19627000D01*
X26673000Y-21373000D01*
X26673000Y-21373000D01*
G37*
X26673000Y-21373000D02*
X17127000Y-21373000D01*
X17127000Y-19627000D01*
X26673000Y-19627000D01*
X26673000Y-21373000D01*
D28*
G36*
X84714337Y-32273000D02*
X77827000Y-32273000D01*
X77827000Y-31027000D01*
X84714337Y-31027000D01*
X84714337Y-32273000D01*
X84714337Y-32273000D01*
G37*
X84714337Y-32273000D02*
X77827000Y-32273000D01*
X77827000Y-31027000D01*
X84714337Y-31027000D01*
X84714337Y-32273000D01*
G36*
X89898000Y-32273000D02*
X87521501Y-32273000D01*
X87521501Y-31027000D01*
X89898000Y-31027000D01*
X89898000Y-32273000D01*
X89898000Y-32273000D01*
G37*
X89898000Y-32273000D02*
X87521501Y-32273000D01*
X87521501Y-31027000D01*
X89898000Y-31027000D01*
X89898000Y-32273000D01*
G36*
X89898001Y-41273000D02*
X87521501Y-41273000D01*
X87521501Y-40027000D01*
X89898001Y-40027000D01*
X89898001Y-41273000D01*
X89898001Y-41273000D01*
G37*
X89898001Y-41273000D02*
X87521501Y-41273000D01*
X87521501Y-40027000D01*
X89898001Y-40027000D01*
X89898001Y-41273000D01*
G36*
X89898001Y-51473000D02*
X87613264Y-51473000D01*
X87632343Y-51457343D01*
X87673206Y-51407550D01*
X87703570Y-51350743D01*
X87722268Y-51289103D01*
X87728582Y-51225000D01*
X87728582Y-49675000D01*
X87722268Y-49610897D01*
X87703570Y-49549257D01*
X87673206Y-49492450D01*
X87632343Y-49442657D01*
X87582550Y-49401794D01*
X87525743Y-49371430D01*
X87464103Y-49352732D01*
X87400000Y-49346418D01*
X86765296Y-49346418D01*
X86804070Y-49320510D01*
X86870510Y-49254070D01*
X86922712Y-49175944D01*
X86958669Y-49089136D01*
X86977000Y-48996980D01*
X86977000Y-48903020D01*
X86958669Y-48810864D01*
X86922712Y-48724056D01*
X86870510Y-48645930D01*
X86804070Y-48579490D01*
X86725944Y-48527288D01*
X86639136Y-48491331D01*
X86546980Y-48473000D01*
X86527000Y-48473000D01*
X86527000Y-47727000D01*
X86546980Y-47727000D01*
X86639136Y-47708669D01*
X86725944Y-47672712D01*
X86804070Y-47620510D01*
X86870510Y-47554070D01*
X86922712Y-47475944D01*
X86958669Y-47389136D01*
X86977000Y-47296980D01*
X86977000Y-47203020D01*
X86958669Y-47110864D01*
X86922712Y-47024056D01*
X86870510Y-46945930D01*
X86804070Y-46879490D01*
X86765296Y-46853582D01*
X87400000Y-46853582D01*
X87464103Y-46847268D01*
X87525743Y-46828570D01*
X87582550Y-46798206D01*
X87632343Y-46757343D01*
X87673206Y-46707550D01*
X87703570Y-46650743D01*
X87722268Y-46589103D01*
X87728582Y-46525000D01*
X87728582Y-44975000D01*
X87722268Y-44910897D01*
X87703570Y-44849257D01*
X87673206Y-44792450D01*
X87632343Y-44742657D01*
X87582550Y-44701794D01*
X87525743Y-44671430D01*
X87464103Y-44652732D01*
X87400000Y-44646418D01*
X86527000Y-44646418D01*
X86527000Y-42027000D01*
X89898001Y-42027000D01*
X89898001Y-51473000D01*
X89898001Y-51473000D01*
G37*
X89898001Y-51473000D02*
X87613264Y-51473000D01*
X87632343Y-51457343D01*
X87673206Y-51407550D01*
X87703570Y-51350743D01*
X87722268Y-51289103D01*
X87728582Y-51225000D01*
X87728582Y-49675000D01*
X87722268Y-49610897D01*
X87703570Y-49549257D01*
X87673206Y-49492450D01*
X87632343Y-49442657D01*
X87582550Y-49401794D01*
X87525743Y-49371430D01*
X87464103Y-49352732D01*
X87400000Y-49346418D01*
X86765296Y-49346418D01*
X86804070Y-49320510D01*
X86870510Y-49254070D01*
X86922712Y-49175944D01*
X86958669Y-49089136D01*
X86977000Y-48996980D01*
X86977000Y-48903020D01*
X86958669Y-48810864D01*
X86922712Y-48724056D01*
X86870510Y-48645930D01*
X86804070Y-48579490D01*
X86725944Y-48527288D01*
X86639136Y-48491331D01*
X86546980Y-48473000D01*
X86527000Y-48473000D01*
X86527000Y-47727000D01*
X86546980Y-47727000D01*
X86639136Y-47708669D01*
X86725944Y-47672712D01*
X86804070Y-47620510D01*
X86870510Y-47554070D01*
X86922712Y-47475944D01*
X86958669Y-47389136D01*
X86977000Y-47296980D01*
X86977000Y-47203020D01*
X86958669Y-47110864D01*
X86922712Y-47024056D01*
X86870510Y-46945930D01*
X86804070Y-46879490D01*
X86765296Y-46853582D01*
X87400000Y-46853582D01*
X87464103Y-46847268D01*
X87525743Y-46828570D01*
X87582550Y-46798206D01*
X87632343Y-46757343D01*
X87673206Y-46707550D01*
X87703570Y-46650743D01*
X87722268Y-46589103D01*
X87728582Y-46525000D01*
X87728582Y-44975000D01*
X87722268Y-44910897D01*
X87703570Y-44849257D01*
X87673206Y-44792450D01*
X87632343Y-44742657D01*
X87582550Y-44701794D01*
X87525743Y-44671430D01*
X87464103Y-44652732D01*
X87400000Y-44646418D01*
X86527000Y-44646418D01*
X86527000Y-42027000D01*
X89898001Y-42027000D01*
X89898001Y-51473000D01*
D27*
G04 #@! TO.N,VCC*
G36*
X135023000Y-41673000D02*
X97650000Y-41673000D01*
X97625224Y-41675440D01*
X97601399Y-41682667D01*
X97579443Y-41694403D01*
X97560197Y-41710197D01*
X97544403Y-41729443D01*
X97532667Y-41751399D01*
X97525440Y-41775224D01*
X97523000Y-41800000D01*
X97523000Y-59898000D01*
X93959880Y-59898000D01*
X93503839Y-59853285D01*
X93074667Y-59723710D01*
X92678845Y-59513248D01*
X92331431Y-59229905D01*
X92045675Y-58884484D01*
X91832451Y-58490135D01*
X91699885Y-58061882D01*
X91652024Y-57606521D01*
X91652000Y-57599580D01*
X91652000Y-31227000D01*
X135023000Y-31227000D01*
X135023000Y-41673000D01*
X135023000Y-41673000D01*
G37*
X135023000Y-41673000D02*
X97650000Y-41673000D01*
X97625224Y-41675440D01*
X97601399Y-41682667D01*
X97579443Y-41694403D01*
X97560197Y-41710197D01*
X97544403Y-41729443D01*
X97532667Y-41751399D01*
X97525440Y-41775224D01*
X97523000Y-41800000D01*
X97523000Y-59898000D01*
X93959880Y-59898000D01*
X93503839Y-59853285D01*
X93074667Y-59723710D01*
X92678845Y-59513248D01*
X92331431Y-59229905D01*
X92045675Y-58884484D01*
X91832451Y-58490135D01*
X91699885Y-58061882D01*
X91652024Y-57606521D01*
X91652000Y-57599580D01*
X91652000Y-31227000D01*
X135023000Y-31227000D01*
X135023000Y-41673000D01*
G04 #@! TO.N,Net-(J1-Pad2)*
G36*
X142623000Y-34400000D02*
X142625440Y-34424776D01*
X142632667Y-34448601D01*
X142644403Y-34470557D01*
X142660197Y-34489803D01*
X142679443Y-34505597D01*
X142701399Y-34517333D01*
X142725224Y-34524560D01*
X142750000Y-34527000D01*
X169248001Y-34527000D01*
X169248001Y-35673000D01*
X141077000Y-35673000D01*
X141077000Y-27627000D01*
X142623000Y-27627000D01*
X142623000Y-34400000D01*
X142623000Y-34400000D01*
G37*
X142623000Y-34400000D02*
X142625440Y-34424776D01*
X142632667Y-34448601D01*
X142644403Y-34470557D01*
X142660197Y-34489803D01*
X142679443Y-34505597D01*
X142701399Y-34517333D01*
X142725224Y-34524560D01*
X142750000Y-34527000D01*
X169248001Y-34527000D01*
X169248001Y-35673000D01*
X141077000Y-35673000D01*
X141077000Y-27627000D01*
X142623000Y-27627000D01*
X142623000Y-34400000D01*
G04 #@! TO.N,Net-(J1-Pad1)*
G36*
X169248000Y-37673000D02*
X142700000Y-37673000D01*
X142675224Y-37675440D01*
X142651399Y-37682667D01*
X142629443Y-37694403D01*
X142610197Y-37710197D01*
X142594403Y-37729443D01*
X142582667Y-37751399D01*
X142575440Y-37775224D01*
X142573000Y-37800000D01*
X142573000Y-44573000D01*
X141077000Y-44573000D01*
X141077000Y-36527000D01*
X169248000Y-36527000D01*
X169248000Y-37673000D01*
X169248000Y-37673000D01*
G37*
X169248000Y-37673000D02*
X142700000Y-37673000D01*
X142675224Y-37675440D01*
X142651399Y-37682667D01*
X142629443Y-37694403D01*
X142610197Y-37710197D01*
X142594403Y-37729443D01*
X142582667Y-37751399D01*
X142575440Y-37775224D01*
X142573000Y-37800000D01*
X142573000Y-44573000D01*
X141077000Y-44573000D01*
X141077000Y-36527000D01*
X169248000Y-36527000D01*
X169248000Y-37673000D01*
G04 #@! TO.N,GND*
G36*
X167396160Y-12346715D02*
X167825331Y-12476289D01*
X168221158Y-12686755D01*
X168568567Y-12970093D01*
X168854327Y-13315519D01*
X169067549Y-13709865D01*
X169200115Y-14138118D01*
X169247976Y-14593479D01*
X169248001Y-14600706D01*
X169248001Y-33473000D01*
X143827000Y-33473000D01*
X143827000Y-26800000D01*
X143824560Y-26775224D01*
X143817333Y-26751399D01*
X143805597Y-26729443D01*
X143789803Y-26710197D01*
X143770557Y-26694403D01*
X143748601Y-26682667D01*
X143724776Y-26675440D01*
X143700000Y-26673000D01*
X140350000Y-26673000D01*
X140325224Y-26675440D01*
X140301399Y-26682667D01*
X140279443Y-26694403D01*
X140260197Y-26710197D01*
X140244403Y-26729443D01*
X140232667Y-26751399D01*
X140225440Y-26775224D01*
X140223000Y-26800000D01*
X140223000Y-45500000D01*
X140225440Y-45524776D01*
X140232667Y-45548601D01*
X140244403Y-45570557D01*
X140260197Y-45589803D01*
X140279443Y-45605597D01*
X140301399Y-45617333D01*
X140325224Y-45624560D01*
X140350000Y-45627000D01*
X143700000Y-45627000D01*
X143724776Y-45624560D01*
X143748601Y-45617333D01*
X143770557Y-45605597D01*
X143789803Y-45589803D01*
X143805597Y-45570557D01*
X143817333Y-45548601D01*
X143824560Y-45524776D01*
X143827000Y-45500000D01*
X143827000Y-38727000D01*
X169248000Y-38727000D01*
X169248000Y-56544494D01*
X169189398Y-56403017D01*
X168912849Y-55989131D01*
X168560869Y-55637151D01*
X168146983Y-55360602D01*
X167687099Y-55170111D01*
X167198888Y-55073000D01*
X166701112Y-55073000D01*
X166212901Y-55170111D01*
X165753017Y-55360602D01*
X165339131Y-55637151D01*
X164987151Y-55989131D01*
X164710602Y-56403017D01*
X164520111Y-56862901D01*
X164423000Y-57351112D01*
X164423000Y-57848888D01*
X164520111Y-58337099D01*
X164710602Y-58796983D01*
X164987151Y-59210869D01*
X165339131Y-59562849D01*
X165753017Y-59839398D01*
X165894494Y-59898000D01*
X98577000Y-59898000D01*
X98577000Y-42727000D01*
X135850000Y-42727000D01*
X135874776Y-42724560D01*
X135898601Y-42717333D01*
X135920557Y-42705597D01*
X135939803Y-42689803D01*
X135955597Y-42670557D01*
X135967333Y-42648601D01*
X135974560Y-42624776D01*
X135977000Y-42600000D01*
X135977000Y-30300000D01*
X135974560Y-30275224D01*
X135967333Y-30251399D01*
X135955597Y-30229443D01*
X135939803Y-30210197D01*
X135920557Y-30194403D01*
X135898601Y-30182667D01*
X135874776Y-30175440D01*
X135850000Y-30173000D01*
X91652000Y-30173000D01*
X91652000Y-15534796D01*
X91760602Y-15796983D01*
X92037151Y-16210869D01*
X92389131Y-16562849D01*
X92803017Y-16839398D01*
X93262901Y-17029889D01*
X93751112Y-17127000D01*
X94248888Y-17127000D01*
X94737099Y-17029889D01*
X95196983Y-16839398D01*
X95610869Y-16562849D01*
X95962849Y-16210869D01*
X96239398Y-15796983D01*
X96429889Y-15337099D01*
X96527000Y-14848888D01*
X96527000Y-14351112D01*
X96429889Y-13862901D01*
X96239398Y-13403017D01*
X95962849Y-12989131D01*
X95610869Y-12637151D01*
X95196983Y-12360602D01*
X95055506Y-12302000D01*
X166940120Y-12302000D01*
X167396160Y-12346715D01*
X167396160Y-12346715D01*
G37*
X167396160Y-12346715D02*
X167825331Y-12476289D01*
X168221158Y-12686755D01*
X168568567Y-12970093D01*
X168854327Y-13315519D01*
X169067549Y-13709865D01*
X169200115Y-14138118D01*
X169247976Y-14593479D01*
X169248001Y-14600706D01*
X169248001Y-33473000D01*
X143827000Y-33473000D01*
X143827000Y-26800000D01*
X143824560Y-26775224D01*
X143817333Y-26751399D01*
X143805597Y-26729443D01*
X143789803Y-26710197D01*
X143770557Y-26694403D01*
X143748601Y-26682667D01*
X143724776Y-26675440D01*
X143700000Y-26673000D01*
X140350000Y-26673000D01*
X140325224Y-26675440D01*
X140301399Y-26682667D01*
X140279443Y-26694403D01*
X140260197Y-26710197D01*
X140244403Y-26729443D01*
X140232667Y-26751399D01*
X140225440Y-26775224D01*
X140223000Y-26800000D01*
X140223000Y-45500000D01*
X140225440Y-45524776D01*
X140232667Y-45548601D01*
X140244403Y-45570557D01*
X140260197Y-45589803D01*
X140279443Y-45605597D01*
X140301399Y-45617333D01*
X140325224Y-45624560D01*
X140350000Y-45627000D01*
X143700000Y-45627000D01*
X143724776Y-45624560D01*
X143748601Y-45617333D01*
X143770557Y-45605597D01*
X143789803Y-45589803D01*
X143805597Y-45570557D01*
X143817333Y-45548601D01*
X143824560Y-45524776D01*
X143827000Y-45500000D01*
X143827000Y-38727000D01*
X169248000Y-38727000D01*
X169248000Y-56544494D01*
X169189398Y-56403017D01*
X168912849Y-55989131D01*
X168560869Y-55637151D01*
X168146983Y-55360602D01*
X167687099Y-55170111D01*
X167198888Y-55073000D01*
X166701112Y-55073000D01*
X166212901Y-55170111D01*
X165753017Y-55360602D01*
X165339131Y-55637151D01*
X164987151Y-55989131D01*
X164710602Y-56403017D01*
X164520111Y-56862901D01*
X164423000Y-57351112D01*
X164423000Y-57848888D01*
X164520111Y-58337099D01*
X164710602Y-58796983D01*
X164987151Y-59210869D01*
X165339131Y-59562849D01*
X165753017Y-59839398D01*
X165894494Y-59898000D01*
X98577000Y-59898000D01*
X98577000Y-42727000D01*
X135850000Y-42727000D01*
X135874776Y-42724560D01*
X135898601Y-42717333D01*
X135920557Y-42705597D01*
X135939803Y-42689803D01*
X135955597Y-42670557D01*
X135967333Y-42648601D01*
X135974560Y-42624776D01*
X135977000Y-42600000D01*
X135977000Y-30300000D01*
X135974560Y-30275224D01*
X135967333Y-30251399D01*
X135955597Y-30229443D01*
X135939803Y-30210197D01*
X135920557Y-30194403D01*
X135898601Y-30182667D01*
X135874776Y-30175440D01*
X135850000Y-30173000D01*
X91652000Y-30173000D01*
X91652000Y-15534796D01*
X91760602Y-15796983D01*
X92037151Y-16210869D01*
X92389131Y-16562849D01*
X92803017Y-16839398D01*
X93262901Y-17029889D01*
X93751112Y-17127000D01*
X94248888Y-17127000D01*
X94737099Y-17029889D01*
X95196983Y-16839398D01*
X95610869Y-16562849D01*
X95962849Y-16210869D01*
X96239398Y-15796983D01*
X96429889Y-15337099D01*
X96527000Y-14848888D01*
X96527000Y-14351112D01*
X96429889Y-13862901D01*
X96239398Y-13403017D01*
X95962849Y-12989131D01*
X95610869Y-12637151D01*
X95196983Y-12360602D01*
X95055506Y-12302000D01*
X166940120Y-12302000D01*
X167396160Y-12346715D01*
G04 #@! TD*
M02*
