<?xml version="1.0" standalone="no"?>
 <!DOCTYPE svg PUBLIC "-//W3C//DTD SVG 1.1//EN" 
 "http://www.w3.org/Graphics/SVG/1.1/DTD/svg11.dtd"> 
<svg xmlns="http://www.w3.org/2000/svg" version="1.1" 
    width="17.6352cm" height="6.38556cm" viewBox="0 0 69430 25140 ">
<title>SVG Picture created as modular_eside_rev4-B.Cu.svg date 2017/07/17 00:30:04 </title>
  <desc>Picture generated by PCBNEW </desc>
<g style="fill:#000000; fill-opacity:1;stroke:#000000; stroke-opacity:1;
stroke-linecap:round; stroke-linejoin:round; "
 transform="translate(0 0) scale(1 1)">
</g>
<g style="fill:#000000; fill-opacity:0.0; 
stroke:#000000; stroke-width:-0.000393701; stroke-opacity:1; 
stroke-linecap:round; stroke-linejoin:round;">
</g>
<g style="fill:#000000; fill-opacity:0.0; 
stroke:#000000; stroke-width:0; stroke-opacity:1; 
stroke-linecap:round; stroke-linejoin:round;">
</g>
<g style="fill:#000000; fill-opacity:1.0; 
stroke:#000000; stroke-width:0; stroke-opacity:1; 
stroke-linecap:round; stroke-linejoin:round;">
<polyline style="fill-rule:evenodd;"
points="4891,21062
5423,21062
5423,21850
4891,21850
4891,21062
" /> 
<polyline style="fill-rule:evenodd;"
points="5679,21062
6210,21062
6210,21850
5679,21850
5679,21062
" /> 
<polyline style="fill-rule:evenodd;"
points="6466,21062
6998,21062
6998,21850
6466,21850
6466,21062
" /> 
<polyline style="fill-rule:evenodd;"
points="62903,21850
62372,21850
62372,21062
62903,21062
62903,21850
" /> 
<polyline style="fill-rule:evenodd;"
points="63690,21850
63159,21850
63159,21062
63690,21062
63690,21850
" /> 
<polyline style="fill-rule:evenodd;"
points="64478,21850
63946,21850
63946,21062
64478,21062
64478,21850
" /> 
<polyline style="fill-rule:evenodd;"
points="4891,2716
5423,2716
5423,3503
4891,3503
4891,2716
" /> 
<polyline style="fill-rule:evenodd;"
points="5679,2716
6210,2716
6210,3503
5679,3503
5679,2716
" /> 
<polyline style="fill-rule:evenodd;"
points="6466,2716
6998,2716
6998,3503
6466,3503
6466,2716
" /> 
<polyline style="fill-rule:evenodd;"
points="49773,2716
50305,2716
50305,3503
49773,3503
49773,2716
" /> 
<polyline style="fill-rule:evenodd;"
points="48986,2716
49517,2716
49517,3503
48986,3503
48986,2716
" /> 
<polyline style="fill-rule:evenodd;"
points="48198,2716
48730,2716
48730,3503
48198,3503
48198,2716
" /> 
<polyline style="fill-rule:evenodd;"
points="37047,8218
37047,7687
37834,7687
37834,8218
37047,8218
" /> 
<polyline style="fill-rule:evenodd;"
points="37047,7431
37047,6899
37834,6899
37834,7431
37047,7431
" /> 
<polyline style="fill-rule:evenodd;"
points="37047,6643
37047,6112
37834,6112
37834,6643
37047,6643
" /> 
<polyline style="fill-rule:evenodd;"
points="37047,9202
37047,8671
37834,8671
37834,9202
37047,9202
" /> 
<polyline style="fill-rule:evenodd;"
points="37047,9990
37047,9458
37834,9458
37834,9990
37047,9990
" /> 
<polyline style="fill-rule:evenodd;"
points="37047,10777
37047,10246
37834,10246
37834,10777
37047,10777
" /> 
<polyline style="fill-rule:evenodd;"
points="64478,3503
63946,3503
63946,2716
64478,2716
64478,3503
" /> 
<polyline style="fill-rule:evenodd;"
points="63690,3503
63159,3503
63159,2716
63690,2716
63690,3503
" /> 
<polyline style="fill-rule:evenodd;"
points="62903,3503
62372,3503
62372,2716
62903,2716
62903,3503
" /> 
<polyline style="fill-rule:evenodd;"
points="19596,3503
19064,3503
19064,2716
19596,2716
19596,3503
" /> 
<polyline style="fill-rule:evenodd;"
points="20383,3503
19852,3503
19852,2716
20383,2716
20383,3503
" /> 
<polyline style="fill-rule:evenodd;"
points="21171,3503
20639,3503
20639,2716
21171,2716
21171,3503
" /> 
<polyline style="fill-rule:evenodd;"
points="48198,21062
48730,21062
48730,21850
48198,21850
48198,21062
" /> 
<polyline style="fill-rule:evenodd;"
points="48986,21062
49517,21062
49517,21850
48986,21850
48986,21062
" /> 
<polyline style="fill-rule:evenodd;"
points="49773,21062
50305,21062
50305,21850
49773,21850
49773,21062
" /> 
<polyline style="fill-rule:evenodd;"
points="19596,21850
19064,21850
19064,21062
19596,21062
19596,21850
" /> 
<polyline style="fill-rule:evenodd;"
points="20383,21850
19852,21850
19852,21062
20383,21062
20383,21850
" /> 
<polyline style="fill-rule:evenodd;"
points="21171,21850
20639,21850
20639,21062
21171,21062
21171,21850
" /> 
<polyline style="fill-rule:evenodd;"
points="37047,13336
37047,12805
37834,12805
37834,13336
37047,13336
" /> 
<polyline style="fill-rule:evenodd;"
points="37047,12549
37047,12017
37834,12017
37834,12549
37047,12549
" /> 
<polyline style="fill-rule:evenodd;"
points="37047,11761
37047,11230
37834,11230
37834,11761
37047,11761
" /> 
<polyline style="fill-rule:evenodd;"
points="31535,11761
31535,11230
32322,11230
32322,11761
31535,11761
" /> 
<polyline style="fill-rule:evenodd;"
points="31535,12549
31535,12017
32322,12017
32322,12549
31535,12549
" /> 
<polyline style="fill-rule:evenodd;"
points="31535,13336
31535,12805
32322,12805
32322,13336
31535,13336
" /> 
<polyline style="fill-rule:evenodd;"
points="64842,14055
64842,13267
66811,13267
66811,14055
64842,14055
" /> 
<polyline style="fill-rule:evenodd;"
points="64842,12677
64842,11889
66811,11889
66811,12677
64842,12677
" /> 
<polyline style="fill-rule:evenodd;"
points="64842,11299
64842,10511
66811,10511
66811,11299
64842,11299
" /> 
<polyline style="fill-rule:evenodd;"
points="66574,5728
67362,5728
67362,5925
66574,5925
66574,5728
" /> 
<polyline style="fill-rule:evenodd;"
points="66619,7991
66619,8149
66087,8149
66087,7991
66619,7991
" /> 
<polyline style="fill-rule:evenodd;"
points="66619,7735
66619,7893
66087,7893
66087,7735
66619,7735
" /> 
<polyline style="fill-rule:evenodd;"
points="66619,7479
66619,7637
66087,7637
66087,7479
66619,7479
" /> 
<polyline style="fill-rule:evenodd;"
points="66619,7224
66619,7381
66087,7381
66087,7224
66619,7224
" /> 
<polyline style="fill-rule:evenodd;"
points="66619,6968
66619,7125
66087,7125
66087,6968
66619,6968
" /> 
<polyline style="fill-rule:evenodd;"
points="66535,9192
67322,9192
67322,9389
66535,9389
66535,9192
" /> 
<polyline style="fill-rule:evenodd;"
points="67795,15236
67007,15236
67007,14606
67795,14606
67795,15236
" /> 
<polyline style="fill-rule:evenodd;"
points="67795,17598
67007,17598
67007,16968
67795,16968
67795,17598
" /> 
<polyline style="fill-rule:evenodd;"
points="38188,16338
37401,16338
37401,15708
38188,15708
38188,16338
" /> 
<polyline style="fill-rule:evenodd;"
points="38188,18700
37401,18700
37401,18070
38188,18070
38188,18700
" /> 
<circle cx="49055.1" cy="4881.89" r="354.331" /> 
</g>
<g style="fill:#000000; fill-opacity:1.0; 
stroke:#000000; stroke-width:39.3701; stroke-opacity:1; 
stroke-linecap:round; stroke-linejoin:round;">
</g>
<g style="fill:#000000; fill-opacity:1.0; 
stroke:#000000; stroke-width:0; stroke-opacity:1; 
stroke-linecap:round; stroke-linejoin:round;">
<circle cx="59015.7" cy="7874.02" r="354.331" /> 
</g>
<g style="fill:#000000; fill-opacity:1.0; 
stroke:#000000; stroke-width:39.3701; stroke-opacity:1; 
stroke-linecap:round; stroke-linejoin:round;">
</g>
<g style="fill:#000000; fill-opacity:1.0; 
stroke:#000000; stroke-width:0; stroke-opacity:1; 
stroke-linecap:round; stroke-linejoin:round;">
<circle cx="49881.9" cy="15787.4" r="354.331" /> 
</g>
<g style="fill:#000000; fill-opacity:1.0; 
stroke:#000000; stroke-width:39.3701; stroke-opacity:1; 
stroke-linecap:round; stroke-linejoin:round;">
</g>
<g style="fill:#000000; fill-opacity:1.0; 
stroke:#000000; stroke-width:0; stroke-opacity:1; 
stroke-linecap:round; stroke-linejoin:round;">
<circle cx="65472.4" cy="18543.3" r="354.331" /> 
</g>
<g style="fill:#000000; fill-opacity:1.0; 
stroke:#000000; stroke-width:39.3701; stroke-opacity:1; 
stroke-linecap:round; stroke-linejoin:round;">
</g>
<g style="fill:#000000; fill-opacity:1.0; 
stroke:#000000; stroke-width:0; stroke-opacity:1; 
stroke-linecap:round; stroke-linejoin:round;">
<circle cx="40433.1" cy="10511.8" r="354.331" /> 
</g>
<g style="fill:#000000; fill-opacity:1.0; 
stroke:#000000; stroke-width:39.3701; stroke-opacity:1; 
stroke-linecap:round; stroke-linejoin:round;">
</g>
<g style="fill:#000000; fill-opacity:1.0; 
stroke:#000000; stroke-width:0; stroke-opacity:1; 
stroke-linecap:round; stroke-linejoin:round;">
<circle cx="64448.8" cy="4448.82" r="354.331" /> 
</g>
<g style="fill:#000000; fill-opacity:1.0; 
stroke:#000000; stroke-width:39.3701; stroke-opacity:1; 
stroke-linecap:round; stroke-linejoin:round;">
</g>
<g style="fill:#000000; fill-opacity:1.0; 
stroke:#000000; stroke-width:0; stroke-opacity:1; 
stroke-linecap:round; stroke-linejoin:round;">
<circle cx="67519.7" cy="13661.4" r="354.331" /> 
</g>
<g style="fill:#000000; fill-opacity:1.0; 
stroke:#000000; stroke-width:39.3701; stroke-opacity:1; 
stroke-linecap:round; stroke-linejoin:round;">
</g>
<g style="fill:#000000; fill-opacity:1.0; 
stroke:#000000; stroke-width:0; stroke-opacity:1; 
stroke-linecap:round; stroke-linejoin:round;">
<circle cx="62677.2" cy="18543.3" r="354.331" /> 
</g>
<g style="fill:#000000; fill-opacity:1.0; 
stroke:#000000; stroke-width:39.3701; stroke-opacity:1; 
stroke-linecap:round; stroke-linejoin:round;">
</g>
<g style="fill:#000000; fill-opacity:1.0; 
stroke:#000000; stroke-width:0; stroke-opacity:1; 
stroke-linecap:round; stroke-linejoin:round;">
<circle cx="40433.1" cy="11456.7" r="354.331" /> 
</g>
<g style="fill:#000000; fill-opacity:1.0; 
stroke:#000000; stroke-width:39.3701; stroke-opacity:1; 
stroke-linecap:round; stroke-linejoin:round;">
</g>
<g style="fill:#000000; fill-opacity:1.0; 
stroke:#000000; stroke-width:0; stroke-opacity:1; 
stroke-linecap:round; stroke-linejoin:round;">
<circle cx="38779.5" cy="6377.95" r="354.331" /> 
</g>
<g style="fill:#000000; fill-opacity:1.0; 
stroke:#000000; stroke-width:39.3701; stroke-opacity:1; 
stroke-linecap:round; stroke-linejoin:round;">
</g>
<g style="fill:#000000; fill-opacity:1.0; 
stroke:#000000; stroke-width:0; stroke-opacity:1; 
stroke-linecap:round; stroke-linejoin:round;">
<circle cx="46417.3" cy="15787.4" r="354.331" /> 
</g>
<g style="fill:#000000; fill-opacity:1.0; 
stroke:#000000; stroke-width:39.3701; stroke-opacity:1; 
stroke-linecap:round; stroke-linejoin:round;">
</g>
<g style="fill:#000000; fill-opacity:1.0; 
stroke:#000000; stroke-width:0; stroke-opacity:1; 
stroke-linecap:round; stroke-linejoin:round;">
<circle cx="42992.1" cy="9724.41" r="354.331" /> 
</g>
<g style="fill:#000000; fill-opacity:1.0; 
stroke:#000000; stroke-width:39.3701; stroke-opacity:1; 
stroke-linecap:round; stroke-linejoin:round;">
</g>
<g style="fill:#000000; fill-opacity:1.0; 
stroke:#000000; stroke-width:0; stroke-opacity:1; 
stroke-linecap:round; stroke-linejoin:round;">
<circle cx="47519.7" cy="15787.4" r="354.331" /> 
</g>
<g style="fill:#000000; fill-opacity:1.0; 
stroke:#000000; stroke-width:39.3701; stroke-opacity:1; 
stroke-linecap:round; stroke-linejoin:round;">
</g>
<g style="fill:#000000; fill-opacity:1.0; 
stroke:#000000; stroke-width:0; stroke-opacity:1; 
stroke-linecap:round; stroke-linejoin:round;">
<circle cx="41653.5" cy="15787.4" r="354.331" /> 
</g>
<g style="fill:#000000; fill-opacity:1.0; 
stroke:#000000; stroke-width:39.3701; stroke-opacity:1; 
stroke-linecap:round; stroke-linejoin:round;">
</g>
<g style="fill:#000000; fill-opacity:1.0; 
stroke:#000000; stroke-width:157.48; stroke-opacity:1; 
stroke-linecap:round; stroke-linejoin:round;">
</g>
<g style="fill:#000000; fill-opacity:0.0; 
stroke:#000000; stroke-width:157.48; stroke-opacity:1; 
stroke-linecap:round; stroke-linejoin:round;">
<path d="M59015 7874
L57913 7874
" />
<path d="M57913 7874
L49881 15787
" />
<path d="M66353 8070
L64842 8070
" />
<path d="M64842 8070
L64803 8031
" />
<path d="M66353 7814
L64823 7814
" />
<path d="M64823 7814
L64803 7834
" />
<path d="M66353 7046
L64645 7046
" />
<path d="M64448 6850
L64448 4448
" />
<path d="M64645 7046
L64448 6850
" />
</g>
<g style="fill:#000000; fill-opacity:0.0; 
stroke:#000000; stroke-width:236.22; stroke-opacity:1; 
stroke-linecap:round; stroke-linejoin:round;">
<path d="M65826 13661
L67519 13661
" />
<path d="M62716 14921
L67519 14921
" />
<path d="M62677 18543
L62716 14921
" />
</g>
<g style="fill:#000000; fill-opacity:0.0; 
stroke:#000000; stroke-width:157.48; stroke-opacity:1; 
stroke-linecap:round; stroke-linejoin:round;">
<path d="M40393 11496
L38779 11496
" />
<path d="M40433 11456
L40393 11496
" />
<path d="M38779 18188
L38779 11496
" />
<path d="M38779 11496
L38779 6377
" />
<path d="M38779 18188
L38858 18110
" />
<path d="M42992 9724
L42992 14606
" />
<path d="M47519 15787
L47519 16968
" />
<path d="M41653 16771
L41653 15787
" />
<path d="M41968 17086
L41653 16771
" />
<path d="M47401 17086
L41968 17086
" />
<path d="M47519 16968
L47401 17086
" />
</g>
<g style="fill:#000000; fill-opacity:1.0; 
stroke:#000000; stroke-width:39.3701; stroke-opacity:1; 
stroke-linecap:round; stroke-linejoin:round;">
<polyline style="fill-rule:evenodd;"
points="47775,2764
47775,3779
47776,3785
47778,3790
47781,3793
47899,3911
47903,3914
47909,3916
47913,3917
50590,3917
50596,3916
50601,3914
50604,3911
50722,3793
50725,3789
50727,3783
50728,3779
50728,2764
50805,2687
61871,2687
61948,2764
61948,3818
61949,3824
61951,3829
61954,3832
62072,3950
62077,3954
62082,3956
62086,3956
63417,3956
63523,4063
63523,7440
63524,7446
63526,7451
63529,7454
63647,7572
63651,7576
63657,7578
63661,7578
64755,7578
64907,7730
64911,7733
64916,7735
64921,7736
65109,7736
65216,7842
65216,8062
65109,8169
64960,8169
64955,8170
64950,8172
64946,8175
64828,8293
64825,8297
64823,8302
64822,8307
64822,8503
64823,8509
64825,8514
64828,8517
64946,8635
64951,8639
64956,8641
64960,8641
65109,8641
65216,8748
65216,8818
65217,8824
65219,8829
65222,8832
65340,8950
65344,8954
65350,8956
65354,8956
67204,8956
67210,8955
67215,8953
67218,8950
67336,8832
67340,8828
67342,8823
67342,8818
67342,6299
67341,6293
67339,6288
67336,6285
67218,6167
67214,6163
67209,6161
67204,6161
65480,6161
65374,6054
65374,2764
65451,2687
66966,2687
67188,2708
67399,2772
67594,2876
67765,3015
67906,3186
68011,3380
68077,3591
68100,3813
68100,3818
68100,9706
68023,9783
65551,9783
65545,9784
65540,9786
65537,9789
65419,9907
65415,9911
65413,9916
65413,9921
65413,10275
65414,10281
65416,10286
65419,10289
65537,10407
65541,10410
65546,10412
65551,10413
67275,10413
67381,10519
67381,11291
67275,11397
63551,11397
63444,11291
63444,10118
63444,10112
63441,10107
63439,10104
63321,9986
63316,9982
63311,9980
63307,9980
61968,9980
61963,9981
61957,9983
61954,9986
61836,10104
61833,10108
61831,10113
61830,10118
61830,19251
61831,19257
61833,19262
61836,19265
61954,19383
61959,19387
61964,19389
61968,19389
63425,19389
63430,19388
63435,19386
63439,19383
63557,19265
63560,19261
63562,19256
63562,19251
63562,15795
63669,15688
66369,15688
66476,15795
66476,18307
66477,18312
66479,18317
66482,18321
66600,18439
66604,18442
66609,18444
66614,18444
68023,18444
68100,18521
68100,20745
68078,20967
68014,21179
67911,21374
67771,21545
67601,21686
67407,21791
67196,21856
66974,21879
66968,21879
64978,21879
64901,21802
64901,20787
64900,20781
64898,20776
64895,20773
64777,20655
64773,20652
64768,20650
64763,20649
62086,20649
62081,20650
62076,20652
62072,20655
61954,20773
61951,20777
61949,20783
61948,20787
61948,21802
61871,21879
50805,21879
50728,21802
50728,20787
50727,20781
50725,20776
50722,20773
50604,20655
50600,20652
50594,20650
50590,20649
47913,20649
47907,20650
47902,20652
47899,20655
47781,20773
47778,20777
47776,20783
47775,20787
47775,21802
47698,21879
38230,21879
38008,21858
37797,21794
37602,21690
37430,21551
37290,21380
37185,21186
37119,20975
37096,20753
37096,20747
37096,19269
37173,19192
39409,19192
39414,19192
39419,19189
39423,19187
39541,19069
39544,19064
39546,19059
39547,19055
39547,13464
40807,13464
40807,17480
40807,17485
40810,17490
40812,17494
40930,17612
40935,17615
40940,17617
40944,17618
48267,17618
48273,17617
48278,17615
48281,17612
48399,17494
48403,17489
48405,17484
48405,17480
48405,15078
48404,15073
48402,15068
48399,15064
48281,14946
48277,14943
48272,14941
48267,14940
44023,14940
43917,14834
43917,8937
43916,8931
43914,8926
43911,8923
43793,8804
43789,8801
43783,8799
43779,8799
42204,8799
42199,8799
42194,8802
42190,8804
42072,8923
42069,8927
42067,8932
42066,8937
42066,13220
41960,13326
40944,13326
40939,13327
40934,13329
40930,13332
40812,13450
40809,13455
40807,13460
40807,13464
39547,13464
39547,12330
39653,12224
41062,12224
41068,12223
41073,12221
41076,12218
41195,12100
41198,12096
41200,12090
41200,12086
41200,10905
41200,10900
41197,10894
41195,10891
41076,10773
41072,10770
41067,10768
41062,10767
39653,10767
39547,10661
39547,5748
39546,5742
39544,5737
39541,5734
39423,5616
39418,5612
39413,5610
39409,5610
37173,5610
37096,5533
37096,3821
37118,3599
37182,3387
37285,3192
37425,3021
37595,2880
37789,2775
38000,2710
38222,2687
38228,2687
47698,2687
47775,2764
" /> 
<polyline style="fill-rule:evenodd;"
points="1265,21220
1267,21224
1269,21228
1269,21229
1379,21431
1381,21435
1384,21439
1384,21439
1531,21617
1534,21620
1537,21623
1538,21624
1716,21769
1720,21772
1724,21774
1724,21775
1928,21883
1932,21885
1936,21886
1937,21887
2011,21909
1346,21909
1240,21802
1240,21137
1265,21220
" /> 
<polyline style="fill-rule:evenodd;"
points="32303,21802
32196,21909
31531,21909
31613,21883
31618,21882
31622,21880
31622,21880
31825,21770
31829,21768
31833,21765
31833,21765
32011,21618
32014,21615
32017,21611
32017,21611
32163,21432
32166,21429
32168,21425
32168,21424
32277,21221
32278,21217
32280,21212
32280,21212
32303,21138
32303,21802
" /> 
<polyline style="fill-rule:evenodd;"
points="4468,2764
4468,3779
4469,3785
4471,3790
4474,3793
4592,3911
4596,3914
4601,3916
4606,3917
7283,3917
7288,3916
7293,3914
7297,3911
7415,3793
7418,3789
7420,3783
7421,3779
7421,2764
7498,2687
18564,2687
18641,2764
18641,3779
18642,3785
18644,3790
18647,3793
18765,3911
18770,3914
18775,3916
18779,3917
21456,3917
21462,3916
21467,3914
21470,3911
21588,3793
21592,3789
21594,3783
21594,3779
21594,2764
21671,2687
31139,2687
31361,2708
31572,2772
31767,2876
31939,3015
32079,3186
32184,3380
32250,3591
32273,3813
32273,3818
32273,10730
32196,10807
31259,10807
31254,10807
31249,10810
31245,10812
31127,10930
31124,10935
31122,10940
31122,10944
31122,13622
31122,13627
31125,13632
31127,13635
31245,13754
31250,13757
31255,13759
31259,13759
32196,13759
32273,13836
32273,20745
32251,20967
32187,21179
32084,21374
31944,21545
31774,21686
31580,21791
31369,21856
31147,21879
31141,21879
21671,21879
21594,21802
21594,20787
21593,20781
21591,20776
21588,20773
21470,20655
21466,20652
21461,20650
21456,20649
18779,20649
18774,20650
18768,20652
18765,20655
18647,20773
18644,20777
18642,20783
18641,20787
18641,21802
18564,21879
7498,21879
7421,21802
7421,20787
7420,20781
7418,20776
7415,20773
7297,20655
7292,20652
7287,20650
7283,20649
4606,20649
4600,20650
4595,20652
4592,20655
4474,20773
4470,20777
4468,20783
4468,20787
4468,21802
4391,21879
2403,21879
2181,21858
1970,21794
1775,21690
1604,21551
1463,21380
1358,21186
1293,20975
1269,20753
1269,20747
1269,3821
1291,3599
1355,3387
1458,3192
1598,3021
1768,2880
1963,2775
2174,2710
2395,2687
2401,2687
4391,2687
4468,2764
" /> 
<polyline style="fill-rule:evenodd;"
points="32303,2764
32303,3429
32277,3346
32275,3342
32274,3338
32273,3337
32164,3135
32161,3131
32159,3127
32158,3127
32011,2949
32008,2946
32005,2943
32005,2942
31826,2796
31822,2794
31819,2792
31818,2791
31614,2683
31610,2681
31606,2680
31606,2679
31532,2657
32196,2657
32303,2764
" /> 
<polyline style="fill-rule:evenodd;"
points="1929,2683
1925,2684
1921,2686
1920,2686
1717,2796
1714,2798
1710,2801
1709,2801
1532,2948
1528,2951
1525,2955
1525,2955
1379,3134
1377,3137
1374,3141
1374,3142
1266,3345
1264,3349
1262,3353
1262,3354
1240,3428
1240,2764
1346,2657
2011,2657
1929,2683
" /> 
<polyline style="fill-rule:evenodd;"
points="43484,9338
43484,15236
43485,15241
43487,15246
43490,15250
43608,15368
43612,15371
43617,15373
43622,15374
46724,15374
46830,15480
46830,16094
46724,16200
42606,16200
42500,16094
42500,9338
42606,9232
43377,9232
43484,9338
" /> 
<polyline style="fill-rule:evenodd;"
points="39114,6149
39114,10984
39114,10989
39117,10994
39119,10998
39238,11116
39242,11119
39247,11121
39251,11122
40661,11122
40767,11228
40767,11684
40661,11791
39251,11791
39246,11792
39241,11794
39238,11797
39119,11915
39116,11919
39114,11924
39114,11929
39114,18653
39007,18759
37173,18759
37096,18682
37096,17498
37173,17421
38464,17421
38470,17420
38475,17418
38478,17415
38596,17297
38599,17292
38601,17287
38602,17283
38602,6771
38601,6766
38599,6761
38596,6757
38478,6639
38474,6636
38468,6634
38464,6633
37173,6633
37096,6556
37096,6199
37173,6122
38385,6122
38391,6121
38396,6118
38399,6116
38472,6043
39007,6043
39114,6149
" /> 
<polyline style="fill-rule:evenodd;"
points="64940,4063
64940,6811
64941,6816
64944,6821
64946,6824
65064,6943
65069,6946
65074,6948
65078,6948
65109,6948
65208,7047
65109,7145
64063,7145
63956,7039
63956,4063
64063,3956
64834,3956
64940,4063
" /> 
<polyline style="fill-rule:evenodd;"
points="42066,13866
42066,16496
42067,16501
42069,16506
42072,16509
42190,16628
42195,16631
42200,16633
42204,16633
46968,16633
46973,16633
46979,16630
46982,16628
47100,16509
47103,16505
47105,16500
47106,16496
47106,15480
47212,15374
47826,15374
47933,15480
47933,17078
47826,17185
41346,17185
41240,17078
41240,13866
41346,13759
41960,13759
42066,13866
" /> 
<polyline style="fill-rule:evenodd;"
points="67933,13275
67933,14046
67826,14153
63551,14153
63444,14046
63444,13275
63551,13169
67826,13169
67933,13275
" /> 
<polyline style="fill-rule:evenodd;"
points="68100,14663
68100,15178
68023,15255
63228,15255
63222,15256
63217,15258
63214,15261
63096,15379
63092,15384
63091,15389
63090,15393
63090,18850
62983,18956
62370,18956
62263,18850
62263,14693
62370,14586
68023,14586
68100,14663
" /> 
<polyline style="fill-rule:evenodd;"
points="68100,16632
68100,17934
68023,18011
67016,18011
66909,17905
66909,16661
67016,16555
68023,16555
68100,16632
" /> 
<polyline style="fill-rule:evenodd;"
points="38169,13866
38169,16881
38062,16988
37173,16988
37096,16911
37096,13836
37173,13759
38062,13759
38169,13866
" /> 
</g>
<g style="fill:#FFFFFF; fill-opacity:1.0; 
stroke:#FFFFFF; stroke-width:39.3701; stroke-opacity:1; 
stroke-linecap:round; stroke-linejoin:round;">
</g>
<g style="fill:#FFFFFF; fill-opacity:1.0; 
stroke:#FFFFFF; stroke-width:0; stroke-opacity:1; 
stroke-linecap:round; stroke-linejoin:round;">
<circle cx="49055.1" cy="4881.89" r="196.85" /> 
</g>
<g style="fill:#FFFFFF; fill-opacity:1.0; 
stroke:#FFFFFF; stroke-width:39.3701; stroke-opacity:1; 
stroke-linecap:round; stroke-linejoin:round;">
</g>
<g style="fill:#FFFFFF; fill-opacity:1.0; 
stroke:#FFFFFF; stroke-width:0; stroke-opacity:1; 
stroke-linecap:round; stroke-linejoin:round;">
<circle cx="59015.7" cy="7874.02" r="196.85" /> 
</g>
<g style="fill:#FFFFFF; fill-opacity:1.0; 
stroke:#FFFFFF; stroke-width:39.3701; stroke-opacity:1; 
stroke-linecap:round; stroke-linejoin:round;">
</g>
<g style="fill:#FFFFFF; fill-opacity:1.0; 
stroke:#FFFFFF; stroke-width:0; stroke-opacity:1; 
stroke-linecap:round; stroke-linejoin:round;">
<circle cx="49881.9" cy="15787.4" r="196.85" /> 
</g>
<g style="fill:#FFFFFF; fill-opacity:1.0; 
stroke:#FFFFFF; stroke-width:39.3701; stroke-opacity:1; 
stroke-linecap:round; stroke-linejoin:round;">
</g>
<g style="fill:#FFFFFF; fill-opacity:1.0; 
stroke:#FFFFFF; stroke-width:0; stroke-opacity:1; 
stroke-linecap:round; stroke-linejoin:round;">
<circle cx="65472.4" cy="18543.3" r="196.85" /> 
</g>
<g style="fill:#FFFFFF; fill-opacity:1.0; 
stroke:#FFFFFF; stroke-width:39.3701; stroke-opacity:1; 
stroke-linecap:round; stroke-linejoin:round;">
</g>
<g style="fill:#FFFFFF; fill-opacity:1.0; 
stroke:#FFFFFF; stroke-width:0; stroke-opacity:1; 
stroke-linecap:round; stroke-linejoin:round;">
<circle cx="40433.1" cy="10511.8" r="196.85" /> 
</g>
<g style="fill:#FFFFFF; fill-opacity:1.0; 
stroke:#FFFFFF; stroke-width:39.3701; stroke-opacity:1; 
stroke-linecap:round; stroke-linejoin:round;">
</g>
<g style="fill:#FFFFFF; fill-opacity:1.0; 
stroke:#FFFFFF; stroke-width:0; stroke-opacity:1; 
stroke-linecap:round; stroke-linejoin:round;">
<circle cx="64448.8" cy="4448.82" r="196.85" /> 
</g>
<g style="fill:#FFFFFF; fill-opacity:1.0; 
stroke:#FFFFFF; stroke-width:39.3701; stroke-opacity:1; 
stroke-linecap:round; stroke-linejoin:round;">
</g>
<g style="fill:#FFFFFF; fill-opacity:1.0; 
stroke:#FFFFFF; stroke-width:0; stroke-opacity:1; 
stroke-linecap:round; stroke-linejoin:round;">
<circle cx="67519.7" cy="13661.4" r="196.85" /> 
</g>
<g style="fill:#FFFFFF; fill-opacity:1.0; 
stroke:#FFFFFF; stroke-width:39.3701; stroke-opacity:1; 
stroke-linecap:round; stroke-linejoin:round;">
</g>
<g style="fill:#FFFFFF; fill-opacity:1.0; 
stroke:#FFFFFF; stroke-width:0; stroke-opacity:1; 
stroke-linecap:round; stroke-linejoin:round;">
<circle cx="62677.2" cy="18543.3" r="196.85" /> 
</g>
<g style="fill:#FFFFFF; fill-opacity:1.0; 
stroke:#FFFFFF; stroke-width:39.3701; stroke-opacity:1; 
stroke-linecap:round; stroke-linejoin:round;">
</g>
<g style="fill:#FFFFFF; fill-opacity:1.0; 
stroke:#FFFFFF; stroke-width:0; stroke-opacity:1; 
stroke-linecap:round; stroke-linejoin:round;">
<circle cx="40433.1" cy="11456.7" r="196.85" /> 
</g>
<g style="fill:#FFFFFF; fill-opacity:1.0; 
stroke:#FFFFFF; stroke-width:39.3701; stroke-opacity:1; 
stroke-linecap:round; stroke-linejoin:round;">
</g>
<g style="fill:#FFFFFF; fill-opacity:1.0; 
stroke:#FFFFFF; stroke-width:0; stroke-opacity:1; 
stroke-linecap:round; stroke-linejoin:round;">
<circle cx="38779.5" cy="6377.95" r="196.85" /> 
</g>
<g style="fill:#FFFFFF; fill-opacity:1.0; 
stroke:#FFFFFF; stroke-width:39.3701; stroke-opacity:1; 
stroke-linecap:round; stroke-linejoin:round;">
</g>
<g style="fill:#FFFFFF; fill-opacity:1.0; 
stroke:#FFFFFF; stroke-width:0; stroke-opacity:1; 
stroke-linecap:round; stroke-linejoin:round;">
<circle cx="46417.3" cy="15787.4" r="196.85" /> 
</g>
<g style="fill:#FFFFFF; fill-opacity:1.0; 
stroke:#FFFFFF; stroke-width:39.3701; stroke-opacity:1; 
stroke-linecap:round; stroke-linejoin:round;">
</g>
<g style="fill:#FFFFFF; fill-opacity:1.0; 
stroke:#FFFFFF; stroke-width:0; stroke-opacity:1; 
stroke-linecap:round; stroke-linejoin:round;">
<circle cx="42992.1" cy="9724.41" r="196.85" /> 
</g>
<g style="fill:#FFFFFF; fill-opacity:1.0; 
stroke:#FFFFFF; stroke-width:39.3701; stroke-opacity:1; 
stroke-linecap:round; stroke-linejoin:round;">
</g>
<g style="fill:#FFFFFF; fill-opacity:1.0; 
stroke:#FFFFFF; stroke-width:0; stroke-opacity:1; 
stroke-linecap:round; stroke-linejoin:round;">
<circle cx="47519.7" cy="15787.4" r="196.85" /> 
</g>
<g style="fill:#FFFFFF; fill-opacity:1.0; 
stroke:#FFFFFF; stroke-width:39.3701; stroke-opacity:1; 
stroke-linecap:round; stroke-linejoin:round;">
</g>
<g style="fill:#FFFFFF; fill-opacity:1.0; 
stroke:#FFFFFF; stroke-width:0; stroke-opacity:1; 
stroke-linecap:round; stroke-linejoin:round;">
<circle cx="41653.5" cy="15787.4" r="196.85" /> 
</g>
<g style="fill:#FFFFFF; fill-opacity:1.0; 
stroke:#FFFFFF; stroke-width:39.3701; stroke-opacity:1; 
stroke-linecap:round; stroke-linejoin:round;">
</g>
<g style="fill:#FFFFFF; fill-opacity:1.0; 
stroke:#FFFFFF; stroke-width:0; stroke-opacity:1; 
stroke-linecap:round; stroke-linejoin:round;">
<circle cx="5157.48" cy="21456.7" r="157.48" /> 
</g>
<g style="fill:#FFFFFF; fill-opacity:1.0; 
stroke:#FFFFFF; stroke-width:39.3701; stroke-opacity:1; 
stroke-linecap:round; stroke-linejoin:round;">
</g>
<g style="fill:#FFFFFF; fill-opacity:1.0; 
stroke:#FFFFFF; stroke-width:0; stroke-opacity:1; 
stroke-linecap:round; stroke-linejoin:round;">
<circle cx="5944.88" cy="21456.7" r="157.48" /> 
</g>
<g style="fill:#FFFFFF; fill-opacity:1.0; 
stroke:#FFFFFF; stroke-width:39.3701; stroke-opacity:1; 
stroke-linecap:round; stroke-linejoin:round;">
</g>
<g style="fill:#FFFFFF; fill-opacity:1.0; 
stroke:#FFFFFF; stroke-width:0; stroke-opacity:1; 
stroke-linecap:round; stroke-linejoin:round;">
<circle cx="6732.28" cy="21456.7" r="157.48" /> 
</g>
<g style="fill:#FFFFFF; fill-opacity:1.0; 
stroke:#FFFFFF; stroke-width:39.3701; stroke-opacity:1; 
stroke-linecap:round; stroke-linejoin:round;">
</g>
<g style="fill:#FFFFFF; fill-opacity:1.0; 
stroke:#FFFFFF; stroke-width:0; stroke-opacity:1; 
stroke-linecap:round; stroke-linejoin:round;">
<circle cx="62637.8" cy="21456.7" r="157.48" /> 
</g>
<g style="fill:#FFFFFF; fill-opacity:1.0; 
stroke:#FFFFFF; stroke-width:39.3701; stroke-opacity:1; 
stroke-linecap:round; stroke-linejoin:round;">
</g>
<g style="fill:#FFFFFF; fill-opacity:1.0; 
stroke:#FFFFFF; stroke-width:0; stroke-opacity:1; 
stroke-linecap:round; stroke-linejoin:round;">
<circle cx="63425.2" cy="21456.7" r="157.48" /> 
</g>
<g style="fill:#FFFFFF; fill-opacity:1.0; 
stroke:#FFFFFF; stroke-width:39.3701; stroke-opacity:1; 
stroke-linecap:round; stroke-linejoin:round;">
</g>
<g style="fill:#FFFFFF; fill-opacity:1.0; 
stroke:#FFFFFF; stroke-width:0; stroke-opacity:1; 
stroke-linecap:round; stroke-linejoin:round;">
<circle cx="64212.6" cy="21456.7" r="157.48" /> 
</g>
<g style="fill:#FFFFFF; fill-opacity:1.0; 
stroke:#FFFFFF; stroke-width:39.3701; stroke-opacity:1; 
stroke-linecap:round; stroke-linejoin:round;">
</g>
<g style="fill:#FFFFFF; fill-opacity:1.0; 
stroke:#FFFFFF; stroke-width:0; stroke-opacity:1; 
stroke-linecap:round; stroke-linejoin:round;">
<circle cx="5157.48" cy="3110.24" r="157.48" /> 
</g>
<g style="fill:#FFFFFF; fill-opacity:1.0; 
stroke:#FFFFFF; stroke-width:39.3701; stroke-opacity:1; 
stroke-linecap:round; stroke-linejoin:round;">
</g>
<g style="fill:#FFFFFF; fill-opacity:1.0; 
stroke:#FFFFFF; stroke-width:0; stroke-opacity:1; 
stroke-linecap:round; stroke-linejoin:round;">
<circle cx="5944.88" cy="3110.24" r="157.48" /> 
</g>
<g style="fill:#FFFFFF; fill-opacity:1.0; 
stroke:#FFFFFF; stroke-width:39.3701; stroke-opacity:1; 
stroke-linecap:round; stroke-linejoin:round;">
</g>
<g style="fill:#FFFFFF; fill-opacity:1.0; 
stroke:#FFFFFF; stroke-width:0; stroke-opacity:1; 
stroke-linecap:round; stroke-linejoin:round;">
<circle cx="6732.28" cy="3110.24" r="157.48" /> 
</g>
<g style="fill:#FFFFFF; fill-opacity:1.0; 
stroke:#FFFFFF; stroke-width:39.3701; stroke-opacity:1; 
stroke-linecap:round; stroke-linejoin:round;">
</g>
<g style="fill:#FFFFFF; fill-opacity:1.0; 
stroke:#FFFFFF; stroke-width:0; stroke-opacity:1; 
stroke-linecap:round; stroke-linejoin:round;">
<circle cx="50039.4" cy="3110.24" r="157.48" /> 
</g>
<g style="fill:#FFFFFF; fill-opacity:1.0; 
stroke:#FFFFFF; stroke-width:39.3701; stroke-opacity:1; 
stroke-linecap:round; stroke-linejoin:round;">
</g>
<g style="fill:#FFFFFF; fill-opacity:1.0; 
stroke:#FFFFFF; stroke-width:0; stroke-opacity:1; 
stroke-linecap:round; stroke-linejoin:round;">
<circle cx="49252" cy="3110.24" r="157.48" /> 
</g>
<g style="fill:#FFFFFF; fill-opacity:1.0; 
stroke:#FFFFFF; stroke-width:39.3701; stroke-opacity:1; 
stroke-linecap:round; stroke-linejoin:round;">
</g>
<g style="fill:#FFFFFF; fill-opacity:1.0; 
stroke:#FFFFFF; stroke-width:0; stroke-opacity:1; 
stroke-linecap:round; stroke-linejoin:round;">
<circle cx="48464.6" cy="3110.24" r="157.48" /> 
</g>
<g style="fill:#FFFFFF; fill-opacity:1.0; 
stroke:#FFFFFF; stroke-width:39.3701; stroke-opacity:1; 
stroke-linecap:round; stroke-linejoin:round;">
</g>
<g style="fill:#FFFFFF; fill-opacity:1.0; 
stroke:#FFFFFF; stroke-width:0; stroke-opacity:1; 
stroke-linecap:round; stroke-linejoin:round;">
<circle cx="37440.9" cy="7952.76" r="157.48" /> 
</g>
<g style="fill:#FFFFFF; fill-opacity:1.0; 
stroke:#FFFFFF; stroke-width:39.3701; stroke-opacity:1; 
stroke-linecap:round; stroke-linejoin:round;">
</g>
<g style="fill:#FFFFFF; fill-opacity:1.0; 
stroke:#FFFFFF; stroke-width:0; stroke-opacity:1; 
stroke-linecap:round; stroke-linejoin:round;">
<circle cx="37440.9" cy="7165.35" r="157.48" /> 
</g>
<g style="fill:#FFFFFF; fill-opacity:1.0; 
stroke:#FFFFFF; stroke-width:39.3701; stroke-opacity:1; 
stroke-linecap:round; stroke-linejoin:round;">
</g>
<g style="fill:#FFFFFF; fill-opacity:1.0; 
stroke:#FFFFFF; stroke-width:0; stroke-opacity:1; 
stroke-linecap:round; stroke-linejoin:round;">
<circle cx="37440.9" cy="6377.95" r="157.48" /> 
</g>
<g style="fill:#FFFFFF; fill-opacity:1.0; 
stroke:#FFFFFF; stroke-width:39.3701; stroke-opacity:1; 
stroke-linecap:round; stroke-linejoin:round;">
</g>
<g style="fill:#FFFFFF; fill-opacity:1.0; 
stroke:#FFFFFF; stroke-width:0; stroke-opacity:1; 
stroke-linecap:round; stroke-linejoin:round;">
<circle cx="37440.9" cy="8937.01" r="157.48" /> 
</g>
<g style="fill:#FFFFFF; fill-opacity:1.0; 
stroke:#FFFFFF; stroke-width:39.3701; stroke-opacity:1; 
stroke-linecap:round; stroke-linejoin:round;">
</g>
<g style="fill:#FFFFFF; fill-opacity:1.0; 
stroke:#FFFFFF; stroke-width:0; stroke-opacity:1; 
stroke-linecap:round; stroke-linejoin:round;">
<circle cx="37440.9" cy="9724.41" r="157.48" /> 
</g>
<g style="fill:#FFFFFF; fill-opacity:1.0; 
stroke:#FFFFFF; stroke-width:39.3701; stroke-opacity:1; 
stroke-linecap:round; stroke-linejoin:round;">
</g>
<g style="fill:#FFFFFF; fill-opacity:1.0; 
stroke:#FFFFFF; stroke-width:0; stroke-opacity:1; 
stroke-linecap:round; stroke-linejoin:round;">
<circle cx="37440.9" cy="10511.8" r="157.48" /> 
</g>
<g style="fill:#FFFFFF; fill-opacity:1.0; 
stroke:#FFFFFF; stroke-width:39.3701; stroke-opacity:1; 
stroke-linecap:round; stroke-linejoin:round;">
</g>
<g style="fill:#FFFFFF; fill-opacity:1.0; 
stroke:#FFFFFF; stroke-width:0; stroke-opacity:1; 
stroke-linecap:round; stroke-linejoin:round;">
<circle cx="64212.6" cy="3110.24" r="157.48" /> 
</g>
<g style="fill:#FFFFFF; fill-opacity:1.0; 
stroke:#FFFFFF; stroke-width:39.3701; stroke-opacity:1; 
stroke-linecap:round; stroke-linejoin:round;">
</g>
<g style="fill:#FFFFFF; fill-opacity:1.0; 
stroke:#FFFFFF; stroke-width:0; stroke-opacity:1; 
stroke-linecap:round; stroke-linejoin:round;">
<circle cx="63425.2" cy="3110.24" r="157.48" /> 
</g>
<g style="fill:#FFFFFF; fill-opacity:1.0; 
stroke:#FFFFFF; stroke-width:39.3701; stroke-opacity:1; 
stroke-linecap:round; stroke-linejoin:round;">
</g>
<g style="fill:#FFFFFF; fill-opacity:1.0; 
stroke:#FFFFFF; stroke-width:0; stroke-opacity:1; 
stroke-linecap:round; stroke-linejoin:round;">
<circle cx="62637.8" cy="3110.24" r="157.48" /> 
</g>
<g style="fill:#FFFFFF; fill-opacity:1.0; 
stroke:#FFFFFF; stroke-width:39.3701; stroke-opacity:1; 
stroke-linecap:round; stroke-linejoin:round;">
</g>
<g style="fill:#FFFFFF; fill-opacity:1.0; 
stroke:#FFFFFF; stroke-width:0; stroke-opacity:1; 
stroke-linecap:round; stroke-linejoin:round;">
<circle cx="19330.7" cy="3110.24" r="157.48" /> 
</g>
<g style="fill:#FFFFFF; fill-opacity:1.0; 
stroke:#FFFFFF; stroke-width:39.3701; stroke-opacity:1; 
stroke-linecap:round; stroke-linejoin:round;">
</g>
<g style="fill:#FFFFFF; fill-opacity:1.0; 
stroke:#FFFFFF; stroke-width:0; stroke-opacity:1; 
stroke-linecap:round; stroke-linejoin:round;">
<circle cx="20118.1" cy="3110.24" r="157.48" /> 
</g>
<g style="fill:#FFFFFF; fill-opacity:1.0; 
stroke:#FFFFFF; stroke-width:39.3701; stroke-opacity:1; 
stroke-linecap:round; stroke-linejoin:round;">
</g>
<g style="fill:#FFFFFF; fill-opacity:1.0; 
stroke:#FFFFFF; stroke-width:0; stroke-opacity:1; 
stroke-linecap:round; stroke-linejoin:round;">
<circle cx="20905.5" cy="3110.24" r="157.48" /> 
</g>
<g style="fill:#FFFFFF; fill-opacity:1.0; 
stroke:#FFFFFF; stroke-width:39.3701; stroke-opacity:1; 
stroke-linecap:round; stroke-linejoin:round;">
</g>
<g style="fill:#FFFFFF; fill-opacity:1.0; 
stroke:#FFFFFF; stroke-width:0; stroke-opacity:1; 
stroke-linecap:round; stroke-linejoin:round;">
<circle cx="48464.6" cy="21456.7" r="157.48" /> 
</g>
<g style="fill:#FFFFFF; fill-opacity:1.0; 
stroke:#FFFFFF; stroke-width:39.3701; stroke-opacity:1; 
stroke-linecap:round; stroke-linejoin:round;">
</g>
<g style="fill:#FFFFFF; fill-opacity:1.0; 
stroke:#FFFFFF; stroke-width:0; stroke-opacity:1; 
stroke-linecap:round; stroke-linejoin:round;">
<circle cx="49252" cy="21456.7" r="157.48" /> 
</g>
<g style="fill:#FFFFFF; fill-opacity:1.0; 
stroke:#FFFFFF; stroke-width:39.3701; stroke-opacity:1; 
stroke-linecap:round; stroke-linejoin:round;">
</g>
<g style="fill:#FFFFFF; fill-opacity:1.0; 
stroke:#FFFFFF; stroke-width:0; stroke-opacity:1; 
stroke-linecap:round; stroke-linejoin:round;">
<circle cx="50039.4" cy="21456.7" r="157.48" /> 
</g>
<g style="fill:#FFFFFF; fill-opacity:1.0; 
stroke:#FFFFFF; stroke-width:39.3701; stroke-opacity:1; 
stroke-linecap:round; stroke-linejoin:round;">
</g>
<g style="fill:#FFFFFF; fill-opacity:1.0; 
stroke:#FFFFFF; stroke-width:0; stroke-opacity:1; 
stroke-linecap:round; stroke-linejoin:round;">
<circle cx="19330.7" cy="21456.7" r="157.48" /> 
</g>
<g style="fill:#FFFFFF; fill-opacity:1.0; 
stroke:#FFFFFF; stroke-width:39.3701; stroke-opacity:1; 
stroke-linecap:round; stroke-linejoin:round;">
</g>
<g style="fill:#FFFFFF; fill-opacity:1.0; 
stroke:#FFFFFF; stroke-width:0; stroke-opacity:1; 
stroke-linecap:round; stroke-linejoin:round;">
<circle cx="20118.1" cy="21456.7" r="157.48" /> 
</g>
<g style="fill:#FFFFFF; fill-opacity:1.0; 
stroke:#FFFFFF; stroke-width:39.3701; stroke-opacity:1; 
stroke-linecap:round; stroke-linejoin:round;">
</g>
<g style="fill:#FFFFFF; fill-opacity:1.0; 
stroke:#FFFFFF; stroke-width:0; stroke-opacity:1; 
stroke-linecap:round; stroke-linejoin:round;">
<circle cx="20905.5" cy="21456.7" r="157.48" /> 
</g>
<g style="fill:#FFFFFF; fill-opacity:1.0; 
stroke:#FFFFFF; stroke-width:39.3701; stroke-opacity:1; 
stroke-linecap:round; stroke-linejoin:round;">
</g>
<g style="fill:#FFFFFF; fill-opacity:1.0; 
stroke:#FFFFFF; stroke-width:0; stroke-opacity:1; 
stroke-linecap:round; stroke-linejoin:round;">
<circle cx="37440.9" cy="13070.9" r="157.48" /> 
</g>
<g style="fill:#FFFFFF; fill-opacity:1.0; 
stroke:#FFFFFF; stroke-width:39.3701; stroke-opacity:1; 
stroke-linecap:round; stroke-linejoin:round;">
</g>
<g style="fill:#FFFFFF; fill-opacity:1.0; 
stroke:#FFFFFF; stroke-width:0; stroke-opacity:1; 
stroke-linecap:round; stroke-linejoin:round;">
<circle cx="37440.9" cy="12283.5" r="157.48" /> 
</g>
<g style="fill:#FFFFFF; fill-opacity:1.0; 
stroke:#FFFFFF; stroke-width:39.3701; stroke-opacity:1; 
stroke-linecap:round; stroke-linejoin:round;">
</g>
<g style="fill:#FFFFFF; fill-opacity:1.0; 
stroke:#FFFFFF; stroke-width:0; stroke-opacity:1; 
stroke-linecap:round; stroke-linejoin:round;">
<circle cx="37440.9" cy="11496.1" r="157.48" /> 
</g>
<g style="fill:#FFFFFF; fill-opacity:1.0; 
stroke:#FFFFFF; stroke-width:39.3701; stroke-opacity:1; 
stroke-linecap:round; stroke-linejoin:round;">
</g>
<g style="fill:#FFFFFF; fill-opacity:1.0; 
stroke:#FFFFFF; stroke-width:0; stroke-opacity:1; 
stroke-linecap:round; stroke-linejoin:round;">
<circle cx="31929.1" cy="11496.1" r="157.48" /> 
</g>
<g style="fill:#FFFFFF; fill-opacity:1.0; 
stroke:#FFFFFF; stroke-width:39.3701; stroke-opacity:1; 
stroke-linecap:round; stroke-linejoin:round;">
</g>
<g style="fill:#FFFFFF; fill-opacity:1.0; 
stroke:#FFFFFF; stroke-width:0; stroke-opacity:1; 
stroke-linecap:round; stroke-linejoin:round;">
<circle cx="31929.1" cy="12283.5" r="157.48" /> 
</g>
<g style="fill:#FFFFFF; fill-opacity:1.0; 
stroke:#FFFFFF; stroke-width:39.3701; stroke-opacity:1; 
stroke-linecap:round; stroke-linejoin:round;">
</g>
<g style="fill:#FFFFFF; fill-opacity:1.0; 
stroke:#FFFFFF; stroke-width:0; stroke-opacity:1; 
stroke-linecap:round; stroke-linejoin:round;">
<circle cx="31929.1" cy="13070.9" r="157.48" /> 
</g>
<g style="fill:#FFFFFF; fill-opacity:1.0; 
stroke:#FFFFFF; stroke-width:39.3701; stroke-opacity:1; 
stroke-linecap:round; stroke-linejoin:round;">
</g>
<g style="fill:#FFFFFF; fill-opacity:1.0; 
stroke:#FFFFFF; stroke-width:0; stroke-opacity:1; 
stroke-linecap:round; stroke-linejoin:round;">
<circle cx="67401.6" cy="14921.3" r="196.85" /> 
</g>
<g style="fill:#FFFFFF; fill-opacity:1.0; 
stroke:#FFFFFF; stroke-width:39.3701; stroke-opacity:1; 
stroke-linecap:round; stroke-linejoin:round;">
</g>
<g style="fill:#FFFFFF; fill-opacity:1.0; 
stroke:#FFFFFF; stroke-width:0; stroke-opacity:1; 
stroke-linecap:round; stroke-linejoin:round;">
<circle cx="67401.6" cy="17283.5" r="196.85" /> 
</g>
<g style="fill:#FFFFFF; fill-opacity:1.0; 
stroke:#FFFFFF; stroke-width:39.3701; stroke-opacity:1; 
stroke-linecap:round; stroke-linejoin:round;">
</g>
<g style="fill:#FFFFFF; fill-opacity:1.0; 
stroke:#FFFFFF; stroke-width:0; stroke-opacity:1; 
stroke-linecap:round; stroke-linejoin:round;">
<circle cx="37795.3" cy="16023.6" r="196.85" /> 
</g>
<g style="fill:#FFFFFF; fill-opacity:1.0; 
stroke:#FFFFFF; stroke-width:39.3701; stroke-opacity:1; 
stroke-linecap:round; stroke-linejoin:round;">
</g>
<g style="fill:#FFFFFF; fill-opacity:1.0; 
stroke:#FFFFFF; stroke-width:0; stroke-opacity:1; 
stroke-linecap:round; stroke-linejoin:round;">
<circle cx="37795.3" cy="18385.8" r="196.85" /> 
</g>
<g style="fill:#FFFFFF; fill-opacity:1.0; 
stroke:#FFFFFF; stroke-width:39.3701; stroke-opacity:1; 
stroke-linecap:round; stroke-linejoin:round;">
</g>
<g style="fill:#000000; fill-opacity:1.0; 
stroke:#000000; stroke-width:39.3701; stroke-opacity:1; 
stroke-linecap:round; stroke-linejoin:round;">
</g> 
</svg>
