<?xml version="1.0" standalone="no"?>
 <!DOCTYPE svg PUBLIC "-//W3C//DTD SVG 1.1//EN" 
 "http://www.w3.org/Graphics/SVG/1.1/DTD/svg11.dtd"> 
<svg xmlns="http://www.w3.org/2000/svg" version="1.1" 
    width="17.6352cm" height="6.38556cm" viewBox="0 0 69430 25140 ">
<title>SVG Picture created as modular_eside_rev4-F.Cu.svg date 2017/07/17 00:30:04 </title>
  <desc>Picture generated by PCBNEW </desc>
<g style="fill:#000000; fill-opacity:1;stroke:#000000; stroke-opacity:1;
stroke-linecap:round; stroke-linejoin:round; "
 transform="translate(0 0) scale(1 1)">
</g>
<g style="fill:#000000; fill-opacity:0.0; 
stroke:#000000; stroke-width:-0.000393701; stroke-opacity:1; 
stroke-linecap:round; stroke-linejoin:round;">
</g>
<g style="fill:#000000; fill-opacity:0.0; 
stroke:#000000; stroke-width:0; stroke-opacity:1; 
stroke-linecap:round; stroke-linejoin:round;">
</g>
<g style="fill:#000000; fill-opacity:1.0; 
stroke:#000000; stroke-width:0; stroke-opacity:1; 
stroke-linecap:round; stroke-linejoin:round;">
<polyline style="fill-rule:evenodd;"
points="43326,16181
43838,16181
43838,16456
43326,16456
43326,16181
" /> 
<polyline style="fill-rule:evenodd;"
points="43326,15433
43838,15433
43838,15708
43326,15708
43326,15433
" /> 
<polyline style="fill-rule:evenodd;"
points="46062,18110
46377,18110
46377,18425
46062,18425
46062,18110
" /> 
<polyline style="fill-rule:evenodd;"
points="46062,17480
46377,17480
46377,17795
46062,17795
46062,17480
" /> 
<polyline style="fill-rule:evenodd;"
points="45275,17480
45590,17480
45590,17795
45275,17795
45275,17480
" /> 
<polyline style="fill-rule:evenodd;"
points="45275,18110
45590,18110
45590,18425
45275,18425
45275,18110
" /> 
<polyline style="fill-rule:evenodd;"
points="44488,18110
44803,18110
44803,18425
44488,18425
44488,18110
" /> 
<polyline style="fill-rule:evenodd;"
points="44488,17480
44803,17480
44803,17795
44488,17795
44488,17480
" /> 
<polyline style="fill-rule:evenodd;"
points="43700,17480
44015,17480
44015,17795
43700,17795
43700,17480
" /> 
<polyline style="fill-rule:evenodd;"
points="43700,18110
44015,18110
44015,18425
43700,18425
43700,18110
" /> 
<polyline style="fill-rule:evenodd;"
points="42913,18110
43228,18110
43228,18425
42913,18425
42913,18110
" /> 
<polyline style="fill-rule:evenodd;"
points="42913,17480
43228,17480
43228,17795
42913,17795
42913,17480
" /> 
<polyline style="fill-rule:evenodd;"
points="52125,6062
51496,6062
51496,5669
52125,5669
52125,6062
" /> 
<polyline style="fill-rule:evenodd;"
points="52125,7244
51496,7244
51496,6850
52125,6850
52125,7244
" /> 
<polyline style="fill-rule:evenodd;"
points="53700,6062
53070,6062
53070,5669
53700,5669
53700,6062
" /> 
<polyline style="fill-rule:evenodd;"
points="53700,7244
53070,7244
53070,6850
53700,6850
53700,7244
" /> 
<polyline style="fill-rule:evenodd;"
points="44468,16141
44665,16141
44665,16456
44468,16456
44468,16141
" /> 
<polyline style="fill-rule:evenodd;"
points="44803,16141
44960,16141
44960,16456
44803,16456
44803,16141
" /> 
<polyline style="fill-rule:evenodd;"
points="45413,16141
45610,16141
45610,16456
45413,16456
45413,16141
" /> 
<polyline style="fill-rule:evenodd;"
points="45118,16141
45275,16141
45275,16456
45118,16456
45118,16141
" /> 
<polyline style="fill-rule:evenodd;"
points="44468,15433
44665,15433
44665,15748
44468,15748
44468,15433
" /> 
<polyline style="fill-rule:evenodd;"
points="45118,15433
45275,15433
45275,15748
45118,15748
45118,15433
" /> 
<polyline style="fill-rule:evenodd;"
points="44803,15433
44960,15433
44960,15748
44803,15748
44803,15433
" /> 
<polyline style="fill-rule:evenodd;"
points="45413,15433
45610,15433
45610,15748
45413,15748
45413,15433
" /> 
<polyline style="fill-rule:evenodd;"
points="4891,21062
5423,21062
5423,21850
4891,21850
4891,21062
" /> 
<polyline style="fill-rule:evenodd;"
points="5679,21062
6210,21062
6210,21850
5679,21850
5679,21062
" /> 
<polyline style="fill-rule:evenodd;"
points="6466,21062
6998,21062
6998,21850
6466,21850
6466,21062
" /> 
<polyline style="fill-rule:evenodd;"
points="62903,21850
62372,21850
62372,21062
62903,21062
62903,21850
" /> 
<polyline style="fill-rule:evenodd;"
points="63690,21850
63159,21850
63159,21062
63690,21062
63690,21850
" /> 
<polyline style="fill-rule:evenodd;"
points="64478,21850
63946,21850
63946,21062
64478,21062
64478,21850
" /> 
<polyline style="fill-rule:evenodd;"
points="4891,2716
5423,2716
5423,3503
4891,3503
4891,2716
" /> 
<polyline style="fill-rule:evenodd;"
points="5679,2716
6210,2716
6210,3503
5679,3503
5679,2716
" /> 
<polyline style="fill-rule:evenodd;"
points="6466,2716
6998,2716
6998,3503
6466,3503
6466,2716
" /> 
<polyline style="fill-rule:evenodd;"
points="49773,2716
50305,2716
50305,3503
49773,3503
49773,2716
" /> 
<polyline style="fill-rule:evenodd;"
points="48986,2716
49517,2716
49517,3503
48986,3503
48986,2716
" /> 
<polyline style="fill-rule:evenodd;"
points="48198,2716
48730,2716
48730,3503
48198,3503
48198,2716
" /> 
<polyline style="fill-rule:evenodd;"
points="64173,19940
64173,19350
64763,19350
64763,19940
64173,19940
" /> 
<polyline style="fill-rule:evenodd;"
points="62874,19940
62874,19350
63464,19350
63464,19940
62874,19940
" /> 
<polyline style="fill-rule:evenodd;"
points="58041,6259
57549,6259
57549,5866
58041,5866
58041,6259
" /> 
<polyline style="fill-rule:evenodd;"
points="58041,5472
57549,5472
57549,5078
58041,5078
58041,5472
" /> 
<polyline style="fill-rule:evenodd;"
points="61653,7627
61653,8120
61259,8120
61259,7627
61653,7627
" /> 
<polyline style="fill-rule:evenodd;"
points="62440,7627
62440,8120
62047,8120
62047,7627
62440,7627
" /> 
<polyline style="fill-rule:evenodd;"
points="63503,18592
63503,18100
63897,18100
63897,18592
63503,18592
" /> 
<polyline style="fill-rule:evenodd;"
points="64291,18592
64291,18100
64685,18100
64685,18592
64291,18592
" /> 
<polyline style="fill-rule:evenodd;"
points="49242,12007
49734,12007
49734,12401
49242,12401
49242,12007
" /> 
<polyline style="fill-rule:evenodd;"
points="49242,12795
49734,12795
49734,13188
49242,13188
49242,12795
" /> 
<polyline style="fill-rule:evenodd;"
points="42165,10757
42165,10265
42559,10265
42559,10757
42165,10757
" /> 
<polyline style="fill-rule:evenodd;"
points="41377,10757
41377,10265
41771,10265
41771,10757
41377,10757
" /> 
<polyline style="fill-rule:evenodd;"
points="60403,6181
60403,5718
60866,5718
60866,6181
60403,6181
" /> 
<polyline style="fill-rule:evenodd;"
points="60403,6643
60403,6181
60866,6181
60866,6643
60403,6643
" /> 
<polyline style="fill-rule:evenodd;"
points="60866,6181
60866,5718
61328,5718
61328,6181
60866,6181
" /> 
<polyline style="fill-rule:evenodd;"
points="60866,6643
60866,6181
61328,6181
61328,6643
60866,6643
" /> 
<polyline style="fill-rule:evenodd;"
points="61624,5549
61624,5312
62234,5312
62234,5549
61624,5549
" /> 
<polyline style="fill-rule:evenodd;"
points="61624,6049
61624,5812
62234,5812
62234,6049
61624,6049
" /> 
<polyline style="fill-rule:evenodd;"
points="61624,6549
61624,6312
62234,6312
62234,6549
61624,6549
" /> 
<polyline style="fill-rule:evenodd;"
points="61624,7049
61624,6812
62234,6812
62234,7049
61624,7049
" /> 
<polyline style="fill-rule:evenodd;"
points="59498,7049
59498,6812
60108,6812
60108,7049
59498,7049
" /> 
<polyline style="fill-rule:evenodd;"
points="59498,6549
59498,6312
60108,6312
60108,6549
59498,6549
" /> 
<polyline style="fill-rule:evenodd;"
points="59498,6049
59498,5812
60108,5812
60108,6049
59498,6049
" /> 
<polyline style="fill-rule:evenodd;"
points="59498,5549
59498,5312
60108,5312
60108,5549
59498,5549
" /> 
<polyline style="fill-rule:evenodd;"
points="42362,11791
42362,11122
42716,11122
42716,11791
42362,11791
" /> 
<polyline style="fill-rule:evenodd;"
points="41220,11791
41220,11122
41574,11122
41574,11791
41220,11791
" /> 
<polyline style="fill-rule:evenodd;"
points="61850,19389
61850,19901
61574,19901
61574,19389
61850,19389
" /> 
<polyline style="fill-rule:evenodd;"
points="61102,19389
61102,19901
60826,19901
60826,19389
61102,19389
" /> 
<polyline style="fill-rule:evenodd;"
points="65748,15177
65748,15688
65472,15688
65472,15177
65748,15177
" /> 
<polyline style="fill-rule:evenodd;"
points="65000,15177
65000,15688
64724,15688
64724,15177
65000,15177
" /> 
<polyline style="fill-rule:evenodd;"
points="45531,8976
46043,8976
46043,9251
45531,9251
45531,8976
" /> 
<polyline style="fill-rule:evenodd;"
points="45531,8228
46043,8228
46043,8503
45531,8503
45531,8228
" /> 
<polyline style="fill-rule:evenodd;"
points="47263,17440
47775,17440
47775,17716
47263,17716
47263,17440
" /> 
<polyline style="fill-rule:evenodd;"
points="47263,18188
47775,18188
47775,18464
47263,18464
47263,18188
" /> 
<polyline style="fill-rule:evenodd;"
points="46397,8976
46909,8976
46909,9251
46397,9251
46397,8976
" /> 
<polyline style="fill-rule:evenodd;"
points="46397,8228
46909,8228
46909,8503
46397,8503
46397,8228
" /> 
<polyline style="fill-rule:evenodd;"
points="61850,20295
61850,20807
61574,20807
61574,20295
61850,20295
" /> 
<polyline style="fill-rule:evenodd;"
points="61102,20295
61102,20807
60826,20807
60826,20295
61102,20295
" /> 
<polyline style="fill-rule:evenodd;"
points="56437,8425
55925,8425
55925,8149
56437,8149
56437,8425
" /> 
<polyline style="fill-rule:evenodd;"
points="56437,9173
55925,9173
55925,8897
56437,8897
56437,9173
" /> 
<polyline style="fill-rule:evenodd;"
points="58444,5787
58956,5787
58956,6062
58444,6062
58444,5787
" /> 
<polyline style="fill-rule:evenodd;"
points="58444,5039
58956,5039
58956,5314
58444,5314
58444,5039
" /> 
<polyline style="fill-rule:evenodd;"
points="48917,16456
48405,16456
48405,16181
48917,16181
48917,16456
" /> 
<polyline style="fill-rule:evenodd;"
points="48917,15708
48405,15708
48405,15433
48917,15433
48917,15708
" /> 
<polyline style="fill-rule:evenodd;"
points="30610,15866
31122,15866
31122,16141
30610,16141
30610,15866
" /> 
<polyline style="fill-rule:evenodd;"
points="30610,15118
31122,15118
31122,15393
30610,15393
30610,15118
" /> 
<polyline style="fill-rule:evenodd;"
points="38405,11889
39389,11889
39389,12244
38405,12244
38405,11889
" /> 
<polyline style="fill-rule:evenodd;"
points="38405,10748
39389,10748
39389,11102
38405,11102
38405,10748
" /> 
<polyline style="fill-rule:evenodd;"
points="46318,4389
46003,4389
46003,4035
46318,4035
46318,4389
" /> 
<polyline style="fill-rule:evenodd;"
points="46692,5177
46377,5177
46377,4822
46692,4822
46692,5177
" /> 
<polyline style="fill-rule:evenodd;"
points="45944,5177
45629,5177
45629,4822
45944,4822
45944,5177
" /> 
<polyline style="fill-rule:evenodd;"
points="37047,8218
37047,7687
37834,7687
37834,8218
37047,8218
" /> 
<polyline style="fill-rule:evenodd;"
points="37047,7431
37047,6899
37834,6899
37834,7431
37047,7431
" /> 
<polyline style="fill-rule:evenodd;"
points="37047,6643
37047,6112
37834,6112
37834,6643
37047,6643
" /> 
<polyline style="fill-rule:evenodd;"
points="37047,9202
37047,8671
37834,8671
37834,9202
37047,9202
" /> 
<polyline style="fill-rule:evenodd;"
points="37047,9990
37047,9458
37834,9458
37834,9990
37047,9990
" /> 
<polyline style="fill-rule:evenodd;"
points="37047,10777
37047,10246
37834,10246
37834,10777
37047,10777
" /> 
<polyline style="fill-rule:evenodd;"
points="64478,3503
63946,3503
63946,2716
64478,2716
64478,3503
" /> 
<polyline style="fill-rule:evenodd;"
points="63690,3503
63159,3503
63159,2716
63690,2716
63690,3503
" /> 
<polyline style="fill-rule:evenodd;"
points="62903,3503
62372,3503
62372,2716
62903,2716
62903,3503
" /> 
<polyline style="fill-rule:evenodd;"
points="19596,3503
19064,3503
19064,2716
19596,2716
19596,3503
" /> 
<polyline style="fill-rule:evenodd;"
points="20383,3503
19852,3503
19852,2716
20383,2716
20383,3503
" /> 
<polyline style="fill-rule:evenodd;"
points="21171,3503
20639,3503
20639,2716
21171,2716
21171,3503
" /> 
<polyline style="fill-rule:evenodd;"
points="48198,21062
48730,21062
48730,21850
48198,21850
48198,21062
" /> 
<polyline style="fill-rule:evenodd;"
points="48986,21062
49517,21062
49517,21850
48986,21850
48986,21062
" /> 
<polyline style="fill-rule:evenodd;"
points="49773,21062
50305,21062
50305,21850
49773,21850
49773,21062
" /> 
<polyline style="fill-rule:evenodd;"
points="19596,21850
19064,21850
19064,21062
19596,21062
19596,21850
" /> 
<polyline style="fill-rule:evenodd;"
points="20383,21850
19852,21850
19852,21062
20383,21062
20383,21850
" /> 
<polyline style="fill-rule:evenodd;"
points="21171,21850
20639,21850
20639,21062
21171,21062
21171,21850
" /> 
<polyline style="fill-rule:evenodd;"
points="37047,13336
37047,12805
37834,12805
37834,13336
37047,13336
" /> 
<polyline style="fill-rule:evenodd;"
points="37047,12549
37047,12017
37834,12017
37834,12549
37047,12549
" /> 
<polyline style="fill-rule:evenodd;"
points="37047,11761
37047,11230
37834,11230
37834,11761
37047,11761
" /> 
<polyline style="fill-rule:evenodd;"
points="31535,11761
31535,11230
32322,11230
32322,11761
31535,11761
" /> 
<polyline style="fill-rule:evenodd;"
points="31535,12549
31535,12017
32322,12017
32322,12549
31535,12549
" /> 
<polyline style="fill-rule:evenodd;"
points="31535,13336
31535,12805
32322,12805
32322,13336
31535,13336
" /> 
<polyline style="fill-rule:evenodd;"
points="63385,6200
63385,6712
63110,6712
63110,6200
63385,6200
" /> 
<polyline style="fill-rule:evenodd;"
points="64133,6200
64133,6712
63858,6712
63858,6200
64133,6200
" /> 
<polyline style="fill-rule:evenodd;"
points="61574,18602
61574,18090
61850,18090
61850,18602
61574,18602
" /> 
<polyline style="fill-rule:evenodd;"
points="60826,18602
60826,18090
61102,18090
61102,18602
60826,18602
" /> 
<polyline style="fill-rule:evenodd;"
points="63385,5334
63385,5846
63110,5846
63110,5334
63385,5334
" /> 
<polyline style="fill-rule:evenodd;"
points="64133,5334
64133,5846
63858,5846
63858,5334
64133,5334
" /> 
<polyline style="fill-rule:evenodd;"
points="61879,17246
61879,17482
61269,17482
61269,17246
61879,17246
" /> 
<polyline style="fill-rule:evenodd;"
points="61879,16746
61879,16982
61269,16982
61269,16746
61879,16746
" /> 
<polyline style="fill-rule:evenodd;"
points="61879,16246
61879,16482
61269,16482
61269,16246
61879,16246
" /> 
<polyline style="fill-rule:evenodd;"
points="61879,15746
61879,15982
61269,15982
61269,15746
61879,15746
" /> 
<polyline style="fill-rule:evenodd;"
points="64005,15746
64005,15982
63395,15982
63395,15746
64005,15746
" /> 
<polyline style="fill-rule:evenodd;"
points="64005,16246
64005,16482
63395,16482
63395,16246
64005,16246
" /> 
<polyline style="fill-rule:evenodd;"
points="64005,16746
64005,16982
63395,16982
63395,16746
64005,16746
" /> 
<polyline style="fill-rule:evenodd;"
points="64005,17246
64005,17482
63395,17482
63395,17246
64005,17246
" /> 
<polyline style="fill-rule:evenodd;"
points="55196,4389
54881,4389
54881,4035
55196,4035
55196,4389
" /> 
<polyline style="fill-rule:evenodd;"
points="55570,5177
55255,5177
55255,4822
55570,4822
55570,5177
" /> 
<polyline style="fill-rule:evenodd;"
points="54822,5177
54507,5177
54507,4822
54822,4822
54822,5177
" /> 
<polyline style="fill-rule:evenodd;"
points="67795,15236
67007,15236
67007,14606
67795,14606
67795,15236
" /> 
<polyline style="fill-rule:evenodd;"
points="67795,17598
67007,17598
67007,16968
67795,16968
67795,17598
" /> 
<polyline style="fill-rule:evenodd;"
points="38188,16338
37401,16338
37401,15708
38188,15708
38188,16338
" /> 
<polyline style="fill-rule:evenodd;"
points="38188,18700
37401,18700
37401,18070
38188,18070
38188,18700
" /> 
<polyline style="fill-rule:evenodd;"
points="66181,6220
66181,6535
65866,6535
65866,6220
66181,6220
" /> 
<polyline style="fill-rule:evenodd;"
points="65551,6220
65551,6535
65236,6535
65236,6220
65551,6220
" /> 
<polyline style="fill-rule:evenodd;"
points="66181,8582
66181,8897
65866,8897
65866,8582
66181,8582
" /> 
<polyline style="fill-rule:evenodd;"
points="65551,8582
65551,8897
65236,8897
65236,8582
65551,8582
" /> 
<polyline style="fill-rule:evenodd;"
points="48503,17480
48818,17480
48818,17795
48503,17795
48503,17480
" /> 
<polyline style="fill-rule:evenodd;"
points="48503,18110
48818,18110
48818,18425
48503,18425
48503,18110
" /> 
<polyline style="fill-rule:evenodd;"
points="48248,13297
48248,13474
47618,13474
47618,13297
48248,13297
" /> 
<polyline style="fill-rule:evenodd;"
points="48248,12982
48248,13159
47618,13159
47618,12982
48248,12982
" /> 
<polyline style="fill-rule:evenodd;"
points="48248,12667
48248,12844
47618,12844
47618,12667
48248,12667
" /> 
<polyline style="fill-rule:evenodd;"
points="48248,12352
48248,12529
47618,12529
47618,12352
48248,12352
" /> 
<polyline style="fill-rule:evenodd;"
points="48248,12037
48248,12214
47618,12214
47618,12037
48248,12037
" /> 
<polyline style="fill-rule:evenodd;"
points="48248,11722
48248,11899
47618,11899
47618,11722
48248,11722
" /> 
<polyline style="fill-rule:evenodd;"
points="48248,11407
48248,11584
47618,11584
47618,11407
48248,11407
" /> 
<polyline style="fill-rule:evenodd;"
points="48248,11092
48248,11269
47618,11269
47618,11092
48248,11092
" /> 
<polyline style="fill-rule:evenodd;"
points="47273,10295
47450,10295
47450,10925
47273,10925
47273,10295
" /> 
<polyline style="fill-rule:evenodd;"
points="46958,10295
47135,10295
47135,10925
46958,10925
46958,10295
" /> 
<polyline style="fill-rule:evenodd;"
points="46643,10295
46820,10295
46820,10925
46643,10925
46643,10295
" /> 
<polyline style="fill-rule:evenodd;"
points="46328,10295
46505,10295
46505,10925
46328,10925
46328,10295
" /> 
<polyline style="fill-rule:evenodd;"
points="46013,10295
46190,10295
46190,10925
46013,10925
46013,10295
" /> 
<polyline style="fill-rule:evenodd;"
points="45698,10295
45875,10295
45875,10925
45698,10925
45698,10295
" /> 
<polyline style="fill-rule:evenodd;"
points="45383,10295
45561,10295
45561,10925
45383,10925
45383,10295
" /> 
<polyline style="fill-rule:evenodd;"
points="45068,10295
45246,10295
45246,10925
45068,10925
45068,10295
" /> 
<polyline style="fill-rule:evenodd;"
points="44901,11092
44901,11269
44271,11269
44271,11092
44901,11092
" /> 
<polyline style="fill-rule:evenodd;"
points="44901,11407
44901,11584
44271,11584
44271,11407
44901,11407
" /> 
<polyline style="fill-rule:evenodd;"
points="44901,11722
44901,11899
44271,11899
44271,11722
44901,11722
" /> 
<polyline style="fill-rule:evenodd;"
points="44901,12037
44901,12214
44271,12214
44271,12037
44901,12037
" /> 
<polyline style="fill-rule:evenodd;"
points="44901,12352
44901,12529
44271,12529
44271,12352
44901,12352
" /> 
<polyline style="fill-rule:evenodd;"
points="44901,12667
44901,12844
44271,12844
44271,12667
44901,12667
" /> 
<polyline style="fill-rule:evenodd;"
points="44901,12982
44901,13159
44271,13159
44271,12982
44901,12982
" /> 
<polyline style="fill-rule:evenodd;"
points="44901,13297
44901,13474
44271,13474
44271,13297
44901,13297
" /> 
<polyline style="fill-rule:evenodd;"
points="45068,13641
45246,13641
45246,14271
45068,14271
45068,13641
" /> 
<polyline style="fill-rule:evenodd;"
points="45383,13641
45561,13641
45561,14271
45383,14271
45383,13641
" /> 
<polyline style="fill-rule:evenodd;"
points="45698,13641
45875,13641
45875,14271
45698,14271
45698,13641
" /> 
<polyline style="fill-rule:evenodd;"
points="46013,13641
46190,13641
46190,14271
46013,14271
46013,13641
" /> 
<polyline style="fill-rule:evenodd;"
points="46328,13641
46505,13641
46505,14271
46328,14271
46328,13641
" /> 
<polyline style="fill-rule:evenodd;"
points="46643,13641
46820,13641
46820,14271
46643,14271
46643,13641
" /> 
<polyline style="fill-rule:evenodd;"
points="46958,13641
47135,13641
47135,14271
46958,14271
46958,13641
" /> 
<polyline style="fill-rule:evenodd;"
points="47273,13641
47450,13641
47450,14271
47273,14271
47273,13641
" /> 
<polyline style="fill-rule:evenodd;"
points="9094,14645
11456,14645
11456,16614
9094,16614
9094,14645
" /> 
<polyline style="fill-rule:evenodd;"
points="9291,13188
11259,13188
11259,13976
9291,13976
9291,13188
" /> 
<polyline style="fill-rule:evenodd;"
points="9291,17283
11259,17283
11259,18070
9291,18070
9291,17283
" /> 
<polyline style="fill-rule:evenodd;"
points="13622,7559
15984,7559
15984,9527
13622,9527
13622,7559
" /> 
<polyline style="fill-rule:evenodd;"
points="13818,6102
15787,6102
15787,6889
13818,6889
13818,6102
" /> 
<polyline style="fill-rule:evenodd;"
points="13818,10196
15787,10196
15787,10984
13818,10984
13818,10196
" /> 
<polyline style="fill-rule:evenodd;"
points="18149,14645
20511,14645
20511,16614
18149,16614
18149,14645
" /> 
<polyline style="fill-rule:evenodd;"
points="18346,13188
20314,13188
20314,13976
18346,13976
18346,13188
" /> 
<polyline style="fill-rule:evenodd;"
points="18346,17283
20314,17283
20314,18070
18346,18070
18346,17283
" /> 
<polyline style="fill-rule:evenodd;"
points="27204,14645
29566,14645
29566,16614
27204,16614
27204,14645
" /> 
<polyline style="fill-rule:evenodd;"
points="27401,13188
29370,13188
29370,13976
27401,13976
27401,13188
" /> 
<polyline style="fill-rule:evenodd;"
points="27401,17283
29370,17283
29370,18070
27401,18070
27401,17283
" /> 
<polyline style="fill-rule:evenodd;"
points="22677,7559
25039,7559
25039,9527
22677,9527
22677,7559
" /> 
<polyline style="fill-rule:evenodd;"
points="22874,6102
24842,6102
24842,6889
22874,6889
22874,6102
" /> 
<polyline style="fill-rule:evenodd;"
points="22874,10196
24842,10196
24842,10984
22874,10984
22874,10196
" /> 
<polyline style="fill-rule:evenodd;"
points="4409,4350
4409,4862
3818,4862
3818,4350
4409,4350
" /> 
<polyline style="fill-rule:evenodd;"
points="3346,4350
3346,4862
2755,4862
2755,4350
3346,4350
" /> 
<polyline style="fill-rule:evenodd;"
points="4409,5374
4409,5885
3818,5885
3818,5374
4409,5374
" /> 
<polyline style="fill-rule:evenodd;"
points="3346,5374
3346,5885
2755,5885
2755,5374
3346,5374
" /> 
<polyline style="fill-rule:evenodd;"
points="4409,6397
4409,6909
3818,6909
3818,6397
4409,6397
" /> 
<polyline style="fill-rule:evenodd;"
points="3346,6397
3346,6909
2755,6909
2755,6397
3346,6397
" /> 
<polyline style="fill-rule:evenodd;"
points="4409,7421
4409,7933
3818,7933
3818,7421
4409,7421
" /> 
<polyline style="fill-rule:evenodd;"
points="3346,7421
3346,7933
2755,7933
2755,7421
3346,7421
" /> 
<polyline style="fill-rule:evenodd;"
points="4409,8444
4409,8956
3818,8956
3818,8444
4409,8444
" /> 
<polyline style="fill-rule:evenodd;"
points="3346,8444
3346,8956
2755,8956
2755,8444
3346,8444
" /> 
<polyline style="fill-rule:evenodd;"
points="4409,9468
4409,9980
3818,9980
3818,9468
4409,9468
" /> 
<polyline style="fill-rule:evenodd;"
points="3346,9468
3346,9980
2755,9980
2755,9468
3346,9468
" /> 
<polyline style="fill-rule:evenodd;"
points="4409,10492
4409,11003
3818,11003
3818,10492
4409,10492
" /> 
<polyline style="fill-rule:evenodd;"
points="3346,10492
3346,11003
2755,11003
2755,10492
3346,10492
" /> 
<polyline style="fill-rule:evenodd;"
points="4409,12539
4409,13051
3818,13051
3818,12539
4409,12539
" /> 
<polyline style="fill-rule:evenodd;"
points="3346,12539
3346,13051
2755,13051
2755,12539
3346,12539
" /> 
<polyline style="fill-rule:evenodd;"
points="4409,13562
4409,14074
3818,14074
3818,13562
4409,13562
" /> 
<polyline style="fill-rule:evenodd;"
points="3346,13562
3346,14074
2755,14074
2755,13562
3346,13562
" /> 
<polyline style="fill-rule:evenodd;"
points="4409,14586
4409,15098
3818,15098
3818,14586
4409,14586
" /> 
<polyline style="fill-rule:evenodd;"
points="3346,14586
3346,15098
2755,15098
2755,14586
3346,14586
" /> 
<polyline style="fill-rule:evenodd;"
points="4409,16633
4409,17145
3818,17145
3818,16633
4409,16633
" /> 
<polyline style="fill-rule:evenodd;"
points="3346,16633
3346,17145
2755,17145
2755,16633
3346,16633
" /> 
<polyline style="fill-rule:evenodd;"
points="4409,18681
4409,19192
3818,19192
3818,18681
4409,18681
" /> 
<polyline style="fill-rule:evenodd;"
points="3346,18681
3346,19192
2755,19192
2755,18681
3346,18681
" /> 
<polyline style="fill-rule:evenodd;"
points="4409,19704
4409,20216
3818,20216
3818,19704
4409,19704
" /> 
<polyline style="fill-rule:evenodd;"
points="3346,19704
3346,20216
2755,20216
2755,19704
3346,19704
" /> 
<polyline style="fill-rule:evenodd;"
points="4409,15610
4409,16122
3818,16122
3818,15610
4409,15610
" /> 
<polyline style="fill-rule:evenodd;"
points="3346,15610
3346,16122
2755,16122
2755,15610
3346,15610
" /> 
<polyline style="fill-rule:evenodd;"
points="4409,11515
4409,12027
3818,12027
3818,11515
4409,11515
" /> 
<polyline style="fill-rule:evenodd;"
points="3346,11515
3346,12027
2755,12027
2755,11515
3346,11515
" /> 
<polyline style="fill-rule:evenodd;"
points="4409,17657
4409,18169
3818,18169
3818,17657
4409,17657
" /> 
<polyline style="fill-rule:evenodd;"
points="3346,17657
3346,18169
2755,18169
2755,17657
3346,17657
" /> 
<circle cx="49055.1" cy="4881.89" r="354.331" /> 
</g>
<g style="fill:#000000; fill-opacity:1.0; 
stroke:#000000; stroke-width:39.3701; stroke-opacity:1; 
stroke-linecap:round; stroke-linejoin:round;">
</g>
<g style="fill:#000000; fill-opacity:1.0; 
stroke:#000000; stroke-width:0; stroke-opacity:1; 
stroke-linecap:round; stroke-linejoin:round;">
<circle cx="59015.7" cy="7874.02" r="354.331" /> 
</g>
<g style="fill:#000000; fill-opacity:1.0; 
stroke:#000000; stroke-width:39.3701; stroke-opacity:1; 
stroke-linecap:round; stroke-linejoin:round;">
</g>
<g style="fill:#000000; fill-opacity:1.0; 
stroke:#000000; stroke-width:0; stroke-opacity:1; 
stroke-linecap:round; stroke-linejoin:round;">
<circle cx="49881.9" cy="15787.4" r="354.331" /> 
</g>
<g style="fill:#000000; fill-opacity:1.0; 
stroke:#000000; stroke-width:39.3701; stroke-opacity:1; 
stroke-linecap:round; stroke-linejoin:round;">
</g>
<g style="fill:#000000; fill-opacity:1.0; 
stroke:#000000; stroke-width:0; stroke-opacity:1; 
stroke-linecap:round; stroke-linejoin:round;">
<circle cx="65472.4" cy="18543.3" r="354.331" /> 
</g>
<g style="fill:#000000; fill-opacity:1.0; 
stroke:#000000; stroke-width:39.3701; stroke-opacity:1; 
stroke-linecap:round; stroke-linejoin:round;">
</g>
<g style="fill:#000000; fill-opacity:1.0; 
stroke:#000000; stroke-width:0; stroke-opacity:1; 
stroke-linecap:round; stroke-linejoin:round;">
<circle cx="40433.1" cy="10511.8" r="354.331" /> 
</g>
<g style="fill:#000000; fill-opacity:1.0; 
stroke:#000000; stroke-width:39.3701; stroke-opacity:1; 
stroke-linecap:round; stroke-linejoin:round;">
</g>
<g style="fill:#000000; fill-opacity:1.0; 
stroke:#000000; stroke-width:0; stroke-opacity:1; 
stroke-linecap:round; stroke-linejoin:round;">
<circle cx="64448.8" cy="4448.82" r="354.331" /> 
</g>
<g style="fill:#000000; fill-opacity:1.0; 
stroke:#000000; stroke-width:39.3701; stroke-opacity:1; 
stroke-linecap:round; stroke-linejoin:round;">
</g>
<g style="fill:#000000; fill-opacity:1.0; 
stroke:#000000; stroke-width:0; stroke-opacity:1; 
stroke-linecap:round; stroke-linejoin:round;">
<circle cx="67519.7" cy="13661.4" r="354.331" /> 
</g>
<g style="fill:#000000; fill-opacity:1.0; 
stroke:#000000; stroke-width:39.3701; stroke-opacity:1; 
stroke-linecap:round; stroke-linejoin:round;">
</g>
<g style="fill:#000000; fill-opacity:1.0; 
stroke:#000000; stroke-width:0; stroke-opacity:1; 
stroke-linecap:round; stroke-linejoin:round;">
<circle cx="62677.2" cy="18543.3" r="354.331" /> 
</g>
<g style="fill:#000000; fill-opacity:1.0; 
stroke:#000000; stroke-width:39.3701; stroke-opacity:1; 
stroke-linecap:round; stroke-linejoin:round;">
</g>
<g style="fill:#000000; fill-opacity:1.0; 
stroke:#000000; stroke-width:0; stroke-opacity:1; 
stroke-linecap:round; stroke-linejoin:round;">
<circle cx="40433.1" cy="11456.7" r="354.331" /> 
</g>
<g style="fill:#000000; fill-opacity:1.0; 
stroke:#000000; stroke-width:39.3701; stroke-opacity:1; 
stroke-linecap:round; stroke-linejoin:round;">
</g>
<g style="fill:#000000; fill-opacity:1.0; 
stroke:#000000; stroke-width:0; stroke-opacity:1; 
stroke-linecap:round; stroke-linejoin:round;">
<circle cx="38779.5" cy="6377.95" r="354.331" /> 
</g>
<g style="fill:#000000; fill-opacity:1.0; 
stroke:#000000; stroke-width:39.3701; stroke-opacity:1; 
stroke-linecap:round; stroke-linejoin:round;">
</g>
<g style="fill:#000000; fill-opacity:1.0; 
stroke:#000000; stroke-width:0; stroke-opacity:1; 
stroke-linecap:round; stroke-linejoin:round;">
<circle cx="46417.3" cy="15787.4" r="354.331" /> 
</g>
<g style="fill:#000000; fill-opacity:1.0; 
stroke:#000000; stroke-width:39.3701; stroke-opacity:1; 
stroke-linecap:round; stroke-linejoin:round;">
</g>
<g style="fill:#000000; fill-opacity:1.0; 
stroke:#000000; stroke-width:0; stroke-opacity:1; 
stroke-linecap:round; stroke-linejoin:round;">
<circle cx="42992.1" cy="9724.41" r="354.331" /> 
</g>
<g style="fill:#000000; fill-opacity:1.0; 
stroke:#000000; stroke-width:39.3701; stroke-opacity:1; 
stroke-linecap:round; stroke-linejoin:round;">
</g>
<g style="fill:#000000; fill-opacity:1.0; 
stroke:#000000; stroke-width:0; stroke-opacity:1; 
stroke-linecap:round; stroke-linejoin:round;">
<circle cx="47519.7" cy="15787.4" r="354.331" /> 
</g>
<g style="fill:#000000; fill-opacity:1.0; 
stroke:#000000; stroke-width:39.3701; stroke-opacity:1; 
stroke-linecap:round; stroke-linejoin:round;">
</g>
<g style="fill:#000000; fill-opacity:1.0; 
stroke:#000000; stroke-width:0; stroke-opacity:1; 
stroke-linecap:round; stroke-linejoin:round;">
<circle cx="41653.5" cy="15787.4" r="354.331" /> 
</g>
<g style="fill:#000000; fill-opacity:1.0; 
stroke:#000000; stroke-width:39.3701; stroke-opacity:1; 
stroke-linecap:round; stroke-linejoin:round;">
</g>
<g style="fill:#000000; fill-opacity:1.0; 
stroke:#000000; stroke-width:236.22; stroke-opacity:1; 
stroke-linecap:round; stroke-linejoin:round;">
</g>
<g style="fill:#000000; fill-opacity:0.0; 
stroke:#000000; stroke-width:236.22; stroke-opacity:1; 
stroke-linecap:round; stroke-linejoin:round;">
<path d="M54665 5000
L54665 6200
" />
<path d="M54409 6456
L50629 6456
" />
<path d="M54665 6200
L54409 6456
" />
<path d="M46653 8366
L46653 7913
" />
<path d="M63700 15864
L62875 15864
" />
<path d="M62401 17125
L61456 17125
" />
<path d="M62637 16889
L62401 17125
" />
<path d="M62637 16102
L62637 16889
" />
<path d="M62875 15864
L62637 16102
" />
<path d="M64862 15433
L64606 15433
" />
<path d="M64606 15433
L64175 15864
" />
<path d="M64175 15864
L63700 15864
" />
<path d="M61712 20551
L65157 20551
" />
<path d="M65157 20551
L65196 20590
" />
<path d="M63700 16864
L67494 16864
" />
<path d="M67494 16864
L67519 16889
" />
<path d="M46535 5000
L46535 5669
" />
<path d="M48188 5748
L49055 4881
" />
<path d="M46614 5748
L48188 5748
" />
<path d="M46535 5669
L46614 5748
" />
</g>
<g style="fill:#000000; fill-opacity:0.0; 
stroke:#000000; stroke-width:157.48; stroke-opacity:1; 
stroke-linecap:round; stroke-linejoin:round;">
<path d="M47933 12755
L46377 12755
" />
<path d="M46377 12755
L46062 12440
" />
<path d="M44586 12440
L46062 12440
" />
<path d="M46062 12440
L46102 12440
" />
<path d="M46102 12440
L46417 12125
" />
<path d="M46417 12125
L47933 12125
" />
<path d="M47519 18326
L47519 18779
" />
<path d="M61456 7874
L59015 7874
" />
<path d="M49488 12992
L49488 13818
" />
<path d="M49488 13818
L49606 13937
" />
<path d="M47933 12755
L48661 12755
" />
<path d="M48661 12755
L48897 12992
" />
</g>
<g style="fill:#000000; fill-opacity:0.0; 
stroke:#000000; stroke-width:236.22; stroke-opacity:1; 
stroke-linecap:round; stroke-linejoin:round;">
<path d="M56181 8287
L56181 7952
" />
</g>
<g style="fill:#000000; fill-opacity:0.0; 
stroke:#000000; stroke-width:157.48; stroke-opacity:1; 
stroke-linecap:round; stroke-linejoin:round;">
<path d="M48661 18267
L48661 19370
" />
</g>
<g style="fill:#000000; fill-opacity:0.0; 
stroke:#000000; stroke-width:236.22; stroke-opacity:1; 
stroke-linecap:round; stroke-linejoin:round;">
<path d="M63700 17364
L64525 17364
" />
<path d="M64525 17364
L64527 17362
" />
<path d="M64488 18346
L65393 18543
" />
<path d="M65393 18543
L65472 18543
" />
<path d="M58700 5177
L58700 4527
" />
</g>
<g style="fill:#000000; fill-opacity:0.0; 
stroke:#000000; stroke-width:314.961; stroke-opacity:1; 
stroke-linecap:round; stroke-linejoin:round;">
<path d="M55413 5000
L55413 6476
" />
<path d="M55413 6476
L55433 6496
" />
</g>
<g style="fill:#000000; fill-opacity:0.0; 
stroke:#000000; stroke-width:157.48; stroke-opacity:1; 
stroke-linecap:round; stroke-linejoin:round;">
<path d="M57795 5275
L57795 4803
" />
<path d="M43070 18267
L43070 18818
" />
<path d="M43858 18267
L43858 18818
" />
<path d="M44645 18267
L44645 18818
" />
<path d="M45433 18267
L45433 18818
" />
<path d="M46220 18267
L46220 18818
" />
</g>
<g style="fill:#000000; fill-opacity:0.0; 
stroke:#000000; stroke-width:236.22; stroke-opacity:1; 
stroke-linecap:round; stroke-linejoin:round;">
<path d="M41574 10511
L40433 10511
" />
<path d="M59803 6431
L60616 6431
" />
</g>
<g style="fill:#000000; fill-opacity:0.0; 
stroke:#000000; stroke-width:157.48; stroke-opacity:1; 
stroke-linecap:round; stroke-linejoin:round;">
<path d="M60616 6431
L60634 6412
" />
</g>
<g style="fill:#000000; fill-opacity:0.0; 
stroke:#000000; stroke-width:236.22; stroke-opacity:1; 
stroke-linecap:round; stroke-linejoin:round;">
<path d="M59803 5431
L60627 5431
" />
</g>
<g style="fill:#000000; fill-opacity:0.0; 
stroke:#000000; stroke-width:157.48; stroke-opacity:1; 
stroke-linecap:round; stroke-linejoin:round;">
<path d="M60627 5431
L60629 5433
" />
</g>
<g style="fill:#000000; fill-opacity:0.0; 
stroke:#000000; stroke-width:236.22; stroke-opacity:1; 
stroke-linecap:round; stroke-linejoin:round;">
<path d="M38897 10925
L38897 10511
" />
</g>
<g style="fill:#000000; fill-opacity:0.0; 
stroke:#000000; stroke-width:157.48; stroke-opacity:1; 
stroke-linecap:round; stroke-linejoin:round;">
<path d="M41574 10511
L41141 10511
" />
</g>
<g style="fill:#000000; fill-opacity:0.0; 
stroke:#000000; stroke-width:236.22; stroke-opacity:1; 
stroke-linecap:round; stroke-linejoin:round;">
<path d="M66023 6377
L67362 6377
" />
<path d="M66023 8740
L67283 8740
" />
</g>
<g style="fill:#000000; fill-opacity:0.0; 
stroke:#000000; stroke-width:157.48; stroke-opacity:1; 
stroke-linecap:round; stroke-linejoin:round;">
<path d="M57795 6062
L57795 6574
" />
</g>
<g style="fill:#000000; fill-opacity:0.0; 
stroke:#000000; stroke-width:236.22; stroke-opacity:1; 
stroke-linecap:round; stroke-linejoin:round;">
<path d="M59803 6931
L58545 6931
" />
</g>
<g style="fill:#000000; fill-opacity:0.0; 
stroke:#000000; stroke-width:157.48; stroke-opacity:1; 
stroke-linecap:round; stroke-linejoin:round;">
<path d="M58545 6931
L58543 6929
" />
</g>
<g style="fill:#000000; fill-opacity:0.0; 
stroke:#000000; stroke-width:236.22; stroke-opacity:1; 
stroke-linecap:round; stroke-linejoin:round;">
<path d="M61929 5431
L62482 5431
" />
<path d="M62677 5236
L62677 4842
" />
<path d="M62482 5431
L62677 5236
" />
<path d="M65610 15433
L66141 15433
" />
<path d="M63700 16364
L64474 16364
" />
</g>
<g style="fill:#000000; fill-opacity:0.0; 
stroke:#000000; stroke-width:157.48; stroke-opacity:1; 
stroke-linecap:round; stroke-linejoin:round;">
<path d="M64474 16364
L64488 16377
" />
<path d="M62244 7874
L62834 7874
" />
</g>
<g style="fill:#000000; fill-opacity:0.0; 
stroke:#000000; stroke-width:236.22; stroke-opacity:1; 
stroke-linecap:round; stroke-linejoin:round;">
<path d="M61929 6931
L62635 6931
" />
</g>
<g style="fill:#000000; fill-opacity:0.0; 
stroke:#000000; stroke-width:157.48; stroke-opacity:1; 
stroke-linecap:round; stroke-linejoin:round;">
<path d="M62635 6931
L62637 6929
" />
</g>
<g style="fill:#000000; fill-opacity:0.0; 
stroke:#000000; stroke-width:236.22; stroke-opacity:1; 
stroke-linecap:round; stroke-linejoin:round;">
<path d="M59803 5931
L58706 5931
" />
<path d="M58706 5931
L58700 5925
" />
<path d="M61929 6431
L63222 6431
" />
</g>
<g style="fill:#000000; fill-opacity:0.0; 
stroke:#000000; stroke-width:157.48; stroke-opacity:1; 
stroke-linecap:round; stroke-linejoin:round;">
<path d="M63222 6431
L63248 6456
" />
</g>
<g style="fill:#000000; fill-opacity:0.0; 
stroke:#000000; stroke-width:236.22; stroke-opacity:1; 
stroke-linecap:round; stroke-linejoin:round;">
<path d="M61929 5931
L62651 5931
" />
<path d="M62992 5590
L63248 5590
" />
<path d="M62651 5931
L62992 5590
" />
<path d="M61712 18346
L62362 18346
" />
<path d="M62362 18346
L62677 18543
" />
</g>
<g style="fill:#000000; fill-opacity:0.0; 
stroke:#000000; stroke-width:157.48; stroke-opacity:1; 
stroke-linecap:round; stroke-linejoin:round;">
<path d="M49488 12204
L49488 11614
" />
</g>
<g style="fill:#000000; fill-opacity:0.0; 
stroke:#000000; stroke-width:236.22; stroke-opacity:1; 
stroke-linecap:round; stroke-linejoin:round;">
<path d="M56181 9035
L56181 9409
" />
</g>
<g style="fill:#000000; fill-opacity:0.0; 
stroke:#000000; stroke-width:157.48; stroke-opacity:1; 
stroke-linecap:round; stroke-linejoin:round;">
<path d="M47933 11811
L48779 11811
" />
<path d="M47933 12440
L48661 12440
" />
<path d="M48661 12440
L48818 12283
" />
</g>
<g style="fill:#000000; fill-opacity:0.0; 
stroke:#000000; stroke-width:393.701; stroke-opacity:1; 
stroke-linecap:round; stroke-linejoin:round;">
<path d="M53385 7047
L53385 7755
" />
<path d="M51811 7047
L51811 7637
" />
</g>
<g style="fill:#000000; fill-opacity:0.0; 
stroke:#000000; stroke-width:236.22; stroke-opacity:1; 
stroke-linecap:round; stroke-linejoin:round;">
<path d="M41397 11456
L40433 11456
" />
</g>
<g style="fill:#000000; fill-opacity:0.0; 
stroke:#000000; stroke-width:157.48; stroke-opacity:1; 
stroke-linecap:round; stroke-linejoin:round;">
<path d="M38779 6377
L37440 6377
" />
<path d="M63425 21456
L64212 21456
" />
<path d="M62637 21456
L63425 21456
" />
<path d="M51771 21456
L62637 21456
" />
<path d="M37637 18188
L38779 18188
" />
<path d="M50039 21456
L51771 21456
" />
<path d="M49251 21456
L50039 21456
" />
<path d="M48464 21456
L49251 21456
" />
<path d="M45511 16299
L45511 16574
" />
<path d="M46220 17283
L46220 17637
" />
<path d="M45511 16574
L46220 17283
" />
</g>
<g style="fill:#000000; fill-opacity:0.0; 
stroke:#000000; stroke-width:236.22; stroke-opacity:1; 
stroke-linecap:round; stroke-linejoin:round;">
<path d="M48661 16318
L48661 17578
" />
<path d="M46161 4212
L46161 3681
" />
<path d="M46161 3681
L46181 3661
" />
<path d="M51811 5866
L51811 5236
" />
</g>
<g style="fill:#000000; fill-opacity:0.0; 
stroke:#000000; stroke-width:157.48; stroke-opacity:1; 
stroke-linecap:round; stroke-linejoin:round;">
<path d="M50039 3110
L49251 3110
" />
<path d="M48464 3110
L49251 3110
" />
<path d="M30866 15255
L30866 14803
" />
<path d="M30866 16003
L30866 16417
" />
</g>
<g style="fill:#000000; fill-opacity:0.0; 
stroke:#000000; stroke-width:236.22; stroke-opacity:1; 
stroke-linecap:round; stroke-linejoin:round;">
<path d="M38897 12066
L38897 12913
" />
</g>
<g style="fill:#000000; fill-opacity:0.0; 
stroke:#000000; stroke-width:157.48; stroke-opacity:1; 
stroke-linecap:round; stroke-linejoin:round;">
<path d="M38897 12913
L38740 13070
" />
<path d="M37440 13070
L38740 13070
" />
<path d="M38740 13070
L44586 13070
" />
<path d="M37440 11496
L39409 11496
" />
<path d="M40039 12125
L44586 12125
" />
<path d="M39409 11496
L40039 12125
" />
</g>
<g style="fill:#000000; fill-opacity:0.0; 
stroke:#000000; stroke-width:314.961; stroke-opacity:1; 
stroke-linecap:round; stroke-linejoin:round;">
<path d="M55039 4212
L55039 3740
" />
</g>
<g style="fill:#000000; fill-opacity:0.0; 
stroke:#000000; stroke-width:236.22; stroke-opacity:1; 
stroke-linecap:round; stroke-linejoin:round;">
<path d="M53385 5866
L53385 5236
" />
</g>
<g style="fill:#000000; fill-opacity:0.0; 
stroke:#000000; stroke-width:157.48; stroke-opacity:1; 
stroke-linecap:round; stroke-linejoin:round;">
<path d="M63425 3110
L64212 3110
" />
<path d="M62637 3110
L63425 3110
" />
<path d="M44586 11181
L44094 11181
" />
<path d="M43976 11062
L43976 9173
" />
<path d="M44094 11181
L43976 11062
" />
<path d="M46417 13956
L46417 15787
" />
<path d="M37440 9724
L42992 9724
" />
<path d="M45157 10610
L45157 10157
" />
<path d="M44527 9527
L44527 9251
" />
<path d="M45157 10157
L44527 9527
" />
<path d="M45472 10610
L45472 10000
" />
<path d="M45078 9606
L45078 9133
" />
<path d="M45472 10000
L45078 9606
" />
</g>
<g style="fill:#000000; fill-opacity:0.0; 
stroke:#000000; stroke-width:236.22; stroke-opacity:1; 
stroke-linecap:round; stroke-linejoin:round;">
<path d="M45787 5000
L45787 6535
" />
<path d="M45787 8366
L45787 7952
" />
<path d="M47519 15787
L47519 17578
" />
</g>
<g style="fill:#000000; fill-opacity:0.0; 
stroke:#000000; stroke-width:157.48; stroke-opacity:1; 
stroke-linecap:round; stroke-linejoin:round;">
<path d="M46732 14527
L47519 15314
" />
<path d="M47519 15314
L47519 15787
" />
<path d="M46732 13956
L46732 14527
" />
<path d="M47047 13956
L47047 14370
" />
<path d="M48661 14921
L48661 15570
" />
<path d="M48503 14763
L48661 14921
" />
<path d="M47440 14763
L48503 14763
" />
<path d="M47047 14370
L47440 14763
" />
</g>
<g style="fill:#000000; fill-opacity:0.0; 
stroke:#000000; stroke-width:236.22; stroke-opacity:1; 
stroke-linecap:round; stroke-linejoin:round;">
<path d="M63996 5590
L64448 5590
" />
<path d="M64881 6377
L65334 6377
" />
<path d="M64606 6102
L64881 6377
" />
<path d="M64606 5748
L64606 6102
" />
<path d="M64448 5590
L64606 5748
" />
<path d="M63996 6456
L64212 6456
" />
<path d="M64763 8740
L65334 8740
" />
<path d="M64606 8582
L64763 8740
" />
<path d="M64606 6850
L64606 8582
" />
<path d="M64212 6456
L64606 6850
" />
</g>
<g style="fill:#000000; fill-opacity:0.0; 
stroke:#000000; stroke-width:157.48; stroke-opacity:1; 
stroke-linecap:round; stroke-linejoin:round;">
<path d="M46102 10610
L46102 10039
" />
<path d="M46653 9488
L46653 9114
" />
<path d="M46102 10039
L46653 9488
" />
<path d="M45787 10610
L45787 9114
" />
</g>
<g style="fill:#000000; fill-opacity:0.0; 
stroke:#000000; stroke-width:236.22; stroke-opacity:1; 
stroke-linecap:round; stroke-linejoin:round;">
<path d="M42362 10511
L43228 10511
" />
<path d="M42539 11456
L43188 11456
" />
</g>
<g style="fill:#000000; fill-opacity:0.0; 
stroke:#000000; stroke-width:157.48; stroke-opacity:1; 
stroke-linecap:round; stroke-linejoin:round;">
<path d="M44586 11496
L43346 11496
" />
<path d="M42578 11496
L42539 11456
" />
<path d="M45196 16299
L45196 16811
" />
<path d="M45433 17047
L45433 17637
" />
<path d="M45196 16811
L45433 17047
" />
<path d="M44881 16299
L44881 16811
" />
<path d="M44645 17047
L44645 17637
" />
<path d="M44881 16811
L44645 17047
" />
<path d="M44566 16299
L44566 16535
" />
<path d="M43858 17244
L43858 17637
" />
<path d="M44566 16535
L43858 17244
" />
<path d="M43582 16318
L43582 16653
" />
<path d="M43070 17165
L43070 17637
" />
<path d="M43582 16653
L43070 17165
" />
<path d="M43582 15570
L43582 13622
" />
<path d="M43818 13385
L44586 13385
" />
<path d="M43582 13622
L43818 13385
" />
<path d="M45157 13956
L45157 14370
" />
<path d="M44566 14960
L44566 15590
" />
<path d="M45157 14370
L44566 14960
" />
<path d="M45787 13956
L45787 14606
" />
<path d="M45196 15196
L45196 15590
" />
<path d="M45787 14606
L45196 15196
" />
<path d="M45472 13956
L45472 14488
" />
<path d="M44881 15078
L44881 15590
" />
<path d="M45472 14488
L44881 15078
" />
<path d="M46102 13956
L46102 14763
" />
<path d="M45511 15354
L45511 15590
" />
<path d="M46102 14763
L45511 15354
" />
</g>
<g style="fill:#000000; fill-opacity:0.0; 
stroke:#000000; stroke-width:236.22; stroke-opacity:1; 
stroke-linecap:round; stroke-linejoin:round;">
<path d="M61712 19645
L63169 19645
" />
</g>
<g style="fill:#000000; fill-opacity:0.0; 
stroke:#000000; stroke-width:157.48; stroke-opacity:1; 
stroke-linecap:round; stroke-linejoin:round;">
<path d="M4114 19960
L4803 19960
" />
<path d="M4114 18937
L4803 18937
" />
<path d="M4114 17913
L4803 17913
" />
<path d="M4114 16889
L4803 16889
" />
<path d="M4114 15866
L4803 15866
" />
<path d="M4114 14842
L4803 14842
" />
<path d="M4114 13818
L4803 13818
" />
<path d="M4114 12795
L4803 12795
" />
<path d="M4114 11771
L4803 11771
" />
<path d="M4114 10748
L4803 10748
" />
<path d="M4114 9724
L4803 9724
" />
<path d="M4114 8700
L4803 8700
" />
<path d="M4114 7677
L4803 7677
" />
<path d="M4114 6653
L4803 6653
" />
<path d="M4114 5629
L4803 5629
" />
<path d="M4114 4606
L4803 4606
" />
<path d="M3051 19960
L2401 19960
" />
<path d="M3051 18937
L2401 18937
" />
<path d="M3051 17913
L2401 17913
" />
<path d="M3051 16889
L2401 16889
" />
<path d="M3051 15866
L2401 15866
" />
<path d="M3051 14842
L2401 14842
" />
<path d="M3051 13818
L2401 13818
" />
<path d="M3051 12795
L2401 12795
" />
<path d="M3051 11771
L2401 11771
" />
<path d="M3051 10748
L2401 10748
" />
<path d="M3051 9724
L2401 9724
" />
<path d="M3051 8700
L2401 8700
" />
<path d="M3051 7677
L2401 7677
" />
<path d="M3051 6653
L2401 6653
" />
<path d="M3051 5629
L2401 5629
" />
<path d="M3051 4606
L2401 4606
" />
</g>
<g style="fill:#000000; fill-opacity:1.0; 
stroke:#000000; stroke-width:39.3701; stroke-opacity:1; 
stroke-linecap:round; stroke-linejoin:round;">
<polyline style="fill-rule:evenodd;"
points="67188,2708
67399,2772
67594,2876
67765,3015
67906,3186
68011,3380
68077,3591
68100,3813
68100,3818
68100,8919
68023,8996
67212,8996
67106,8889
67106,8590
67212,8484
67440,8484
67446,8483
67451,8481
67454,8478
67572,8360
67576,8355
67578,8350
67578,8346
67578,8307
67577,8301
67575,8296
67572,8293
67454,8175
67450,8171
67445,8169
67440,8169
65165,8169
65059,8062
65059,7055
65165,6948
67440,6948
67446,6948
67451,6945
67454,6943
67572,6824
67576,6820
67578,6815
67578,6811
67578,6771
67577,6766
67575,6761
67572,6757
67454,6639
67450,6636
67445,6634
67440,6633
67212,6633
67106,6527
67106,6228
67212,6122
67440,6122
67446,6121
67451,6118
67454,6116
67572,5998
67576,5993
67578,5988
67578,5984
67578,5787
67577,5781
67575,5776
67572,5773
67454,5655
67450,5652
67445,5650
67440,5649
65086,5649
64980,5543
64980,5078
64979,5073
64977,5068
64974,5064
64856,4946
64852,4943
64846,4941
64842,4940
61740,4940
61633,4834
61633,4212
61633,4207
61630,4202
61628,4198
61509,4080
61505,4077
61500,4075
61496,4074
57165,4074
57159,4075
57154,4077
57151,4080
57033,4198
57029,4203
57028,4208
57027,4212
57027,6653
57028,6659
57030,6664
57033,6667
57151,6785
57155,6788
57161,6790
57165,6791
57440,6791
57446,6790
57451,6788
57454,6785
57572,6667
57576,6663
57578,6657
57578,6653
57578,6189
57685,6082
57905,6082
58011,6189
58011,6653
58012,6659
58014,6664
58017,6667
58135,6785
58140,6788
58145,6790
58149,6791
59125,6791
59232,6897
59232,6960
59125,7066
56228,7066
56122,6960
56122,3945
56228,3838
65000,3838
65005,3837
65010,3835
65013,3832
65132,3714
65135,3710
65137,3705
65137,3700
65137,2764
65214,2687
66966,2687
67188,2708
" /> 
<polyline style="fill-rule:evenodd;"
points="31361,2708
31572,2772
31767,2876
31939,3015
32079,3186
32184,3380
32250,3591
32273,3813
32273,3818
32273,11751
31102,11751
31096,11752
31091,11755
31087,11758
31084,11763
31082,11768
31082,11771
31082,14980
30649,14980
30649,2687
31139,2687
31361,2708
" /> 
<polyline style="fill-rule:evenodd;"
points="32273,12874
32274,12878
32274,12883
32274,12883
32274,12883
32275,12887
32277,12892
32277,12892
32277,12892
32279,12896
32281,12900
32281,12901
32281,12901
32284,12904
32287,12908
32287,12908
32287,12908
32291,12911
32295,12914
32295,12914
32295,12914
32299,12917
32303,12919
32303,13222
32300,13224
32295,13226
32295,13226
32295,13226
32292,13229
32288,13232
32288,13232
32288,13232
32285,13236
32282,13239
32282,13240
32282,13240
32279,13244
32277,13248
32277,13248
32277,13248
32276,13253
32274,13257
32274,13257
32274,13257
32274,13262
32273,13267
32273,13267
32273,13267
32273,13267
32273,13267
32273,20745
32251,20967
32187,21179
32084,21374
31944,21545
31774,21686
31580,21791
31369,21856
31147,21879
31141,21879
30649,21879
30649,16279
31082,16279
31082,16614
31083,16619
31085,16624
31089,16628
31093,16631
31099,16633
31102,16633
31535,16633
31540,16633
31545,16630
31550,16627
31553,16622
31554,16617
31555,16614
31555,12814
32273,12814
32273,12874
" /> 
<polyline style="fill-rule:evenodd;"
points="43248,9575
43248,9873
43141,9980
37173,9980
37096,9903
37096,9545
37173,9468
43141,9468
43248,9575
" /> 
<polyline style="fill-rule:evenodd;"
points="44114,8787
44114,9283
44007,9389
43925,9389
43734,9198
43729,9195
43724,9193
43720,9192
37173,9192
37096,9115
37096,8758
37173,8681
44007,8681
44114,8787
" /> 
<polyline style="fill-rule:evenodd;"
points="44665,7803
44665,9283
44558,9389
44496,9389
44389,9283
44389,8346
44388,8340
44386,8335
44383,8332
44265,8214
44261,8211
44256,8209
44251,8208
37173,8208
37096,8131
37096,7773
37173,7696
44558,7696
44665,7803
" /> 
<polyline style="fill-rule:evenodd;"
points="45216,7016
45216,9283
45109,9389
45047,9389
44940,9283
44940,7559
44940,7553
44937,7548
44935,7545
44817,7427
44812,7423
44807,7421
44803,7421
37173,7421
37096,7344
37096,6986
37173,6909
45109,6909
45216,7016
" /> 
<polyline style="fill-rule:evenodd;"
points="39192,6228
39192,6527
39086,6633
37173,6633
37096,6556
37096,6159
37134,6122
39086,6122
39192,6228
" /> 
<polyline style="fill-rule:evenodd;"
points="41003,10362
41003,10661
40897,10767
37173,10767
37096,10690
37096,10332
37173,10255
40897,10255
41003,10362
" /> 
<polyline style="fill-rule:evenodd;"
points="43562,10519
43562,11448
43456,11555
43079,11555
42972,11448
42972,10519
43079,10413
43456,10413
43562,10519
" /> 
<polyline style="fill-rule:evenodd;"
points="42539,12921
42539,13220
42432,13326
37173,13326
37089,13242
37088,13240
37088,13240
37088,13240
37085,13236
37082,13233
37082,13233
37082,13233
37078,13230
37075,13227
37074,13227
37074,13226
37072,13225
37066,13220
37066,12921
37072,12916
37074,12915
37074,12915
37074,12915
37078,12912
37081,12909
37081,12909
37081,12908
37084,12905
37087,12901
37087,12901
37088,12901
37089,12899
37173,12814
42432,12814
42539,12921
" /> 
<polyline style="fill-rule:evenodd;"
points="42539,13866
42539,16881
42432,16988
37173,16988
37096,16911
37096,13836
37173,13759
42432,13759
42539,13866
" /> 
<polyline style="fill-rule:evenodd;"
points="64704,2764
64704,3377
64598,3484
55433,3484
55427,3485
55422,3487
55419,3490
55301,3608
55297,3612
55295,3617
55295,3622
55295,3928
55188,4035
54890,4035
54783,3928
54783,3622
54782,3616
54780,3611
54777,3608
54659,3490
54655,3486
54649,3484
54645,3484
54094,3484
54089,3485
54083,3487
54080,3490
53962,3608
53959,3612
53957,3617
53956,3622
53956,5543
53850,5649
52921,5649
52814,5543
52814,2764
52892,2687
64627,2687
64704,2764
" /> 
<polyline style="fill-rule:evenodd;"
points="52381,2764
52381,5543
52275,5649
51346,5649
51240,5543
51240,3622
51239,3616
51237,3611
51234,3608
51116,3490
51111,3486
51106,3484
51102,3484
46496,3484
46490,3485
46485,3487
46482,3490
46364,3608
46360,3612
46358,3617
46358,3622
46358,3732
46251,3838
46071,3838
45964,3732
45964,3622
45963,3616
45961,3611
45958,3608
45840,3490
45836,3486
45831,3484
45826,3484
45354,3484
45348,3485
45343,3487
45340,3490
45222,3608
45218,3612
45217,3617
45216,3622
45216,6527
45109,6633
39732,6633
39625,6527
39625,5748
39625,5742
39622,5737
39620,5734
39502,5616
39497,5612
39492,5610
39488,5610
37173,5610
37096,5533
37096,3821
37118,3599
37182,3387
37285,3192
37425,3021
37595,2880
37789,2775
38000,2710
38222,2687
38228,2687
52304,2687
52381,2764
" /> 
<polyline style="fill-rule:evenodd;"
points="46003,6425
46003,7983
45897,8090
45677,8090
45570,7983
45570,6425
45677,6318
45897,6318
46003,6425
" /> 
<polyline style="fill-rule:evenodd;"
points="50807,6425
50807,6487
50700,6594
47007,6594
47002,6595
46997,6597
46993,6600
46875,6718
46872,6722
46870,6727
46870,6732
46870,7983
46763,8090
46543,8090
46437,7983
46437,6425
46543,6318
50700,6318
50807,6425
" /> 
<polyline style="fill-rule:evenodd;"
points="50807,4023
50807,5779
50700,5885
46504,5885
46397,5779
46397,5519
46504,5413
46586,5413
46777,5604
46781,5607
46787,5609
46791,5610
47125,5610
47131,5609
47136,5607
47139,5604
47258,5486
47261,5481
47263,5476
47263,5472
47263,4023
47370,3917
50700,3917
50807,4023
" /> 
<polyline style="fill-rule:evenodd;"
points="61318,4535
61318,8102
61212,8208
55244,8208
55137,8102
55137,6307
55244,6200
55582,6200
55688,6307
55688,7401
55689,7407
55692,7412
55694,7415
55812,7533
55817,7536
55822,7538
55826,7539
60275,7539
60281,7538
60286,7536
60289,7533
60407,7415
60410,7411
60412,7405
60413,7401
60413,4803
60412,4797
60410,4792
60407,4789
60289,4671
60285,4667
60279,4665
60275,4665
58149,4665
58144,4666
58139,4668
58135,4671
58017,4789
58014,4793
58012,4798
58011,4803
58011,5109
57905,5216
57685,5216
57578,5109
57578,4535
57685,4429
61212,4429
61318,4535
" /> 
<polyline style="fill-rule:evenodd;"
points="48956,12882
48956,13267
48957,13273
48959,13278
48962,13281
49080,13399
49084,13403
49090,13405
49094,13405
49881,13405
49887,13404
49892,13402
49895,13399
50013,13281
50017,13277
50019,13272
50019,13267
50019,12882
50126,12775
50385,12775
50492,12882
50492,20543
50385,20649
40638,20649
40531,20543
40531,17527
40638,17421
42432,17421
42539,17527
42539,18779
42540,18785
42542,18790
42545,18793
42663,18911
42667,18914
42672,18916
42677,18917
42795,18917
42800,18916
42805,18914
42809,18911
42927,18793
42930,18789
42932,18783
42933,18779
42933,18669
43039,18562
43102,18562
43208,18669
43208,18779
43209,18785
43211,18790
43214,18793
43332,18911
43336,18914
43342,18916
43346,18917
43582,18917
43588,18916
43593,18914
43596,18911
43714,18793
43718,18789
43719,18783
43720,18779
43720,18669
43827,18562
43889,18562
43996,18669
43996,18779
43996,18785
43999,18790
44001,18793
44119,18911
44124,18914
44129,18916
44133,18917
44370,18917
44375,18916
44380,18914
44383,18911
44502,18793
44505,18789
44507,18783
44507,18779
44507,18669
44614,18562
44676,18562
44783,18669
44783,18779
44784,18785
44786,18790
44789,18793
44907,18911
44911,18914
44916,18916
44921,18917
45157,18917
45162,18916
45168,18914
45171,18911
45289,18793
45292,18789
45294,18783
45295,18779
45295,18669
45401,18562
45464,18562
45570,18669
45570,18779
45571,18785
45573,18790
45576,18793
45694,18911
45699,18914
45704,18916
45708,18917
45944,18917
45950,18916
45955,18914
45958,18911
46076,18793
46080,18789
46082,18783
46082,18779
46082,18669
46189,18562
46251,18562
46358,18669
46358,18779
46359,18785
46361,18790
46364,18793
46482,18911
46486,18914
46491,18916
46496,18917
47244,18917
47249,18916
47254,18914
47258,18911
47376,18793
47379,18789
47381,18783
47381,18779
47381,18669
47488,18562
47550,18562
47657,18669
47657,18779
47658,18785
47660,18790
47663,18793
47781,18911
47785,18914
47790,18916
47795,18917
48385,18917
48391,18916
48396,18914
48399,18911
48517,18793
48521,18789
48523,18783
48523,18779
48523,18669
48630,18562
48692,18562
48799,18669
48799,18779
48799,18785
48802,18790
48804,18793
48923,18911
48927,18914
48932,18916
48937,18917
49133,18917
49139,18916
49144,18914
49147,18911
49265,18793
49269,18789
49271,18783
49271,18779
49271,14685
49270,14679
49268,14674
49265,14671
49147,14553
49143,14549
49138,14547
49133,14547
48787,14547
48681,14440
48681,12882
48787,12775
48850,12775
48956,12882
" /> 
<polyline style="fill-rule:evenodd;"
points="46830,15480
46830,16094
46724,16200
46110,16200
46003,16094
46003,15480
46110,15374
46724,15374
46830,15480
" /> 
<polyline style="fill-rule:evenodd;"
points="47933,15480
47933,16094
47826,16200
47212,16200
47106,16094
47106,15480
47212,15374
47826,15374
47933,15480
" /> 
<polyline style="fill-rule:evenodd;"
points="62978,7061
62982,7064
62987,7066
62992,7066
64086,7066
64192,7173
64192,9251
64193,9257
64195,9262
64198,9265
64316,9383
64321,9387
64326,9389
64330,9389
67983,9389
68090,9496
68090,14046
67983,14153
66614,14153
66608,14154
66603,14156
66600,14159
66482,14277
66478,14281
66476,14287
66476,14291
66476,16428
66369,16535
64378,16535
64271,16428
64271,16307
64378,16200
65826,16200
65832,16200
65837,16197
65840,16195
65958,16076
65962,16072
65964,16067
65964,16062
65964,15748
65963,15742
65961,15737
65958,15734
65840,15616
65836,15612
65831,15610
65826,15610
65756,15610
65649,15503
65649,15362
65756,15255
65826,15255
65832,15255
65837,15252
65840,15250
65958,15132
65962,15127
65964,15122
65964,15118
65964,14881
65963,14876
65961,14871
65958,14867
65840,14749
65836,14746
65831,14744
65826,14744
62527,14744
62421,14637
62421,6937
62527,6830
62747,6830
62978,7061
" /> 
<polyline style="fill-rule:evenodd;"
points="41003,11307
41003,11606
40897,11712
39968,11712
39862,11606
39862,11307
39968,11200
40897,11200
41003,11307
" /> 
<polyline style="fill-rule:evenodd;"
points="61870,16897
61870,17314
61763,17421
60748,17421
60742,17422
60737,17424
60734,17427
60616,17545
60612,17549
60610,17554
60610,17559
60610,17992
60611,17997
60613,18002
60616,18006
60734,18124
60738,18127
60743,18129
60748,18129
60857,18129
60964,18236
60964,18456
60857,18562
60559,18562
60452,18456
60452,16897
60559,16791
61763,16791
61870,16897
" /> 
<polyline style="fill-rule:evenodd;"
points="63838,18236
63838,18456
63732,18562
63228,18562
63222,18563
63217,18566
63214,18568
63096,18686
63092,18691
63091,18696
63090,18700
63090,18850
62983,18956
62370,18956
62263,18850
62263,18700
62263,18695
62260,18690
62258,18686
62139,18568
62135,18565
62130,18563
62125,18562
61740,18562
61633,18456
61633,18236
61740,18129
63732,18129
63838,18236
" /> 
<polyline style="fill-rule:evenodd;"
points="65925,17370
65925,19755
65818,19862
64378,19862
64271,19755
64271,19535
64378,19429
64960,19429
64966,19428
64971,19426
64974,19423
65092,19305
65095,19300
65097,19295
65098,19291
65098,18700
65097,18695
65095,18690
65092,18686
64974,18568
64970,18565
64964,18563
64960,18562
64456,18562
64350,18456
64350,18236
64456,18129
64960,18129
64966,18129
64971,18126
64974,18124
65092,18006
65095,18001
65097,17996
65098,17992
65098,17598
65097,17592
65095,17587
65092,17584
64974,17466
64970,17463
64964,17461
64960,17460
64378,17460
64279,17362
64378,17263
65818,17263
65925,17370
" /> 
<polyline style="fill-rule:evenodd;"
points="68100,16632
68100,20745
68078,20967
68014,21179
67911,21374
67771,21545
67601,21686
67407,21791
67196,21856
66974,21879
66968,21879
65057,21879
64980,21802
64980,20559
65086,20452
66220,20452
66225,20451
66231,20449
66234,20446
66352,20328
66355,20324
66357,20319
66358,20314
66358,17370
66464,17263
66771,17263
66777,17263
66782,17260
66785,17258
66903,17139
66907,17135
66908,17130
66909,17125
66909,16661
67016,16555
68023,16555
68100,16632
" /> 
<polyline style="fill-rule:evenodd;"
points="68100,14663
68100,15178
68023,15255
67016,15255
66909,15149
66909,14693
67016,14586
68023,14586
68100,14663
" /> 
<polyline style="fill-rule:evenodd;"
points="50807,7134
50807,7834
50807,7840
50810,7845
50812,7848
50930,7966
50935,7970
50940,7971
50944,7972
51377,7972
51383,7971
51388,7969
51391,7966
51509,7848
51513,7844
51515,7838
51515,7834
51515,7606
51622,7500
51999,7500
52106,7606
52106,7834
52107,7840
52109,7845
52112,7848
52230,7966
52234,7970
52239,7971
52244,7972
52952,7972
52958,7971
52963,7969
52966,7966
53084,7848
53088,7844
53090,7838
53090,7834
53090,7606
53197,7500
53574,7500
53681,7606
53681,7834
53681,7840
53684,7845
53686,7848
53804,7966
53809,7970
53814,7971
53818,7972
54598,7972
54704,8079
54704,8503
54705,8509
54707,8514
54710,8517
54828,8635
54833,8639
54838,8641
54842,8641
55424,8641
55531,8748
55531,8976
55532,8981
55534,8986
55537,8990
55655,9108
55659,9111
55664,9113
55669,9114
56653,9114
56659,9113
56664,9111
56667,9108
56785,8990
56788,8985
56790,8980
56791,8976
56791,8748
56897,8641
61881,8641
61988,8748
61988,14637
61881,14744
60944,14744
60939,14744
60934,14747
60930,14749
60812,14867
60809,14872
60807,14877
60807,14881
60807,15669
60807,15674
60810,15679
60812,15683
60930,15801
60935,15804
60940,15806
60944,15807
61724,15807
61830,15913
61830,16330
61724,16437
60157,16437
60151,16437
60146,16440
60143,16442
60025,16560
60022,16565
60020,16570
60019,16574
60019,18897
60020,18903
60022,18908
60025,18911
60143,19029
60147,19032
60153,19034
60157,19035
60346,19035
60452,19142
60452,19330
60453,19336
60455,19341
60458,19344
60576,19462
60581,19466
60586,19468
60590,19468
60897,19468
61003,19575
61003,19716
60897,19822
60590,19822
60585,19823
60580,19825
60576,19828
60458,19946
60455,19951
60453,19956
60452,19960
60452,20236
60453,20241
60455,20246
60458,20250
60576,20368
60581,20371
60586,20373
60590,20374
60936,20374
61043,20480
61043,20621
60936,20728
60590,20728
60585,20729
60580,20731
60576,20734
60458,20852
60455,20856
60453,20861
60452,20866
60452,21062
60453,21068
60455,21073
60458,21076
60576,21195
60581,21198
60586,21200
60590,21200
62185,21200
62190,21200
62195,21197
62198,21195
62390,21003
64440,21003
64547,21110
64547,21802
64470,21879
38230,21879
38008,21858
37797,21794
37602,21690
37430,21551
37290,21380
37185,21186
37119,20975
37096,20753
37096,20747
37096,17498
37173,17421
39991,17421
40098,17527
40098,20944
40099,20950
40101,20955
40104,20958
40222,21076
40226,21080
40231,21082
40236,21082
50787,21082
50792,21081
50797,21079
50801,21076
50919,20958
50922,20954
50924,20949
50925,20944
50925,12559
50924,12553
50922,12548
50919,12545
50801,12427
50796,12423
50791,12421
50787,12421
50126,12421
50019,12314
50019,11929
50018,11923
50016,11918
50013,11915
49895,11797
49891,11793
49886,11791
49881,11791
49094,11791
49089,11792
49083,11794
49080,11797
48962,11915
48959,11919
48957,11924
48956,11929
48956,12314
48850,12421
48787,12421
48681,12314
48681,9921
48680,9915
48678,9910
48675,9907
48557,9789
48552,9785
48547,9783
48543,9783
47449,9783
47342,9676
47342,7134
47449,7027
50700,7027
50807,7134
" /> 
<polyline style="fill-rule:evenodd;"
points="7185,20216
4153,20216
4153,2687
7185,2687
7185,20216
" /> 
<polyline style="fill-rule:evenodd;"
points="3011,20629
3013,20637
3017,20644
3024,20648
3031,20649
7185,20649
7185,21879
2406,21879
1968,21792
1601,21547
1356,21180
1269,20743
1269,3823
1356,3386
1601,3019
1968,2774
2406,2687
3011,2687
3011,20629
" /> 
<polyline style="fill-rule:evenodd;"
points="15767,20944
15768,20950
15770,20955
15774,20959
15778,20962
15784,20964
15787,20964
18346,20964
18351,20963
18356,20961
18361,20957
18364,20953
18365,20948
18366,20944
18366,17421
20295,17421
20295,20944
20296,20950
20298,20955
20301,20959
20306,20962
20311,20964
20314,20964
22874,20964
22879,20963
22884,20961
22888,20957
22891,20953
22893,20948
22893,20944
22893,10334
24822,10334
24822,20944
24823,20950
24825,20955
24829,20959
24834,20962
24839,20964
24842,20964
27401,20964
27407,20963
27412,20961
27416,20957
27419,20953
27421,20948
27421,20944
27421,17421
29350,17421
29350,21879
9311,21879
9311,17421
11240,17421
11240,20944
11240,20950
11243,20955
11246,20959
11251,20962
11256,20964
11259,20964
13818,20964
13824,20963
13829,20961
13833,20957
13836,20953
13838,20948
13838,20944
13838,10334
15767,10334
15767,20944
" /> 
<polyline style="fill-rule:evenodd;"
points="29350,13838
27421,13838
27421,3622
27420,3616
27418,3611
27414,3607
27409,3604
27404,3602
27401,3602
24842,3602
24837,3603
24831,3605
24827,3609
24824,3613
24823,3618
24822,3622
24822,6751
22893,6751
22893,3622
22892,3616
22890,3611
22887,3607
22882,3604
22877,3602
22874,3602
20314,3602
20309,3603
20304,3605
20300,3609
20297,3613
20295,3618
20295,3622
20295,13838
18366,13838
18366,3622
18365,3616
18363,3611
18359,3607
18354,3604
18349,3602
18346,3602
15787,3602
15781,3603
15776,3605
15772,3609
15769,3613
15767,3618
15767,3622
15767,6751
13838,6751
13838,3622
13837,3616
13835,3611
13831,3607
13827,3604
13822,3602
13818,3602
11259,3602
11254,3603
11249,3605
11245,3609
11242,3613
11240,3618
11240,3622
11240,13838
9311,13838
9311,2687
29350,2687
29350,13838
" /> 
<polyline style="fill-rule:evenodd;"
points="8090,14645
8091,14651
8093,14656
8097,14660
8101,14663
8107,14665
8110,14665
8307,14665
8312,14664
8317,14662
8321,14658
8324,14654
8326,14648
8326,14645
8326,2687
8681,2687
8681,14645
8681,14651
8684,14656
8687,14660
8692,14663
8697,14665
8700,14665
8995,14665
8995,16594
8700,16594
8695,16595
8690,16597
8686,16601
8682,16605
8681,16611
8681,16614
8681,21879
8326,21879
8326,16614
8325,16608
8323,16603
8320,16599
8315,16596
8310,16594
8307,16594
8110,16594
8104,16595
8099,16597
8095,16601
8092,16605
8090,16611
8090,16614
8090,21879
7736,21879
7736,2687
8090,2687
8090,14645
" /> 
<polyline style="fill-rule:evenodd;"
points="12421,7559
12422,7564
12424,7569
12427,7573
12432,7576
12437,7578
12440,7578
12637,7578
12643,7577
12648,7575
12652,7572
12655,7567
12657,7562
12657,7559
12657,4035
13208,4035
13208,7559
13209,7564
13211,7569
13215,7573
13219,7576
13225,7578
13228,7578
13523,7578
13523,9507
13228,9507
13222,9508
13217,9510
13213,9514
13210,9519
13208,9524
13208,9527
13208,20531
12657,20531
12657,16614
12656,16608
12654,16603
12650,16599
12646,16596
12640,16594
12637,16594
12440,16594
12435,16595
12430,16597
12426,16601
12423,16605
12421,16611
12421,16614
12421,20531
11870,20531
11870,16614
11869,16608
11867,16603
11863,16599
11858,16596
11853,16594
11850,16594
11555,16594
11555,14665
11850,14665
11855,14664
11860,14662
11865,14658
11868,14654
11869,14648
11870,14645
11870,9527
12421,9527
12421,14645
12422,14651
12424,14656
12427,14660
12432,14663
12437,14665
12440,14665
12637,14665
12643,14664
12648,14662
12652,14658
12655,14654
12657,14648
12657,14645
12657,9527
12656,9522
12654,9517
12650,9512
12646,9509
12640,9508
12637,9507
12440,9507
12435,9508
12430,9510
12426,9514
12423,9519
12421,9524
12421,9527
11870,9527
11870,4035
12421,4035
12421,7559
" /> 
<polyline style="fill-rule:evenodd;"
points="21476,7559
21477,7564
21479,7569
21483,7573
21487,7576
21492,7578
21496,7578
21692,7578
21698,7577
21703,7575
21707,7572
21710,7567
21712,7562
21712,7559
21712,4035
22263,4035
22263,7559
22264,7564
22266,7569
22270,7573
22275,7576
22280,7578
22283,7578
22578,7578
22578,9507
22283,9507
22277,9508
22272,9510
22268,9514
22265,9519
22264,9524
22263,9527
22263,20531
21712,20531
21712,16614
21711,16608
21709,16603
21705,16599
21701,16596
21696,16594
21692,16594
21496,16594
21490,16595
21485,16597
21481,16601
21478,16605
21476,16611
21476,16614
21476,20531
20925,20531
20925,16614
20924,16608
20922,16603
20918,16599
20913,16596
20908,16594
20905,16594
20610,16594
20610,14665
20905,14665
20910,14664
20916,14662
20920,14658
20923,14654
20924,14648
20925,14645
20925,9527
21476,9527
21476,14645
21477,14651
21479,14656
21483,14660
21487,14663
21492,14665
21496,14665
21692,14665
21698,14664
21703,14662
21707,14658
21710,14654
21712,14648
21712,14645
21712,9527
21711,9522
21709,9517
21705,9512
21701,9509
21696,9508
21692,9507
21496,9507
21490,9508
21485,9510
21481,9514
21478,9519
21476,9524
21476,9527
20925,9527
20925,4035
21476,4035
21476,7559
" /> 
<polyline style="fill-rule:evenodd;"
points="16948,7559
16949,7564
16951,7569
16955,7573
16960,7576
16965,7578
16968,7578
17165,7578
17170,7577
17175,7575
17180,7572
17183,7567
17184,7562
17185,7559
17185,4035
17736,4035
17736,14645
17737,14651
17739,14656
17742,14660
17747,14663
17752,14665
17755,14665
18050,14665
18050,16594
17755,16594
17750,16595
17745,16597
17741,16601
17738,16605
17736,16611
17736,16614
17736,20531
17185,20531
17185,16614
17184,16608
17181,16603
17178,16599
17173,16596
17168,16594
17165,16594
16968,16594
16963,16595
16957,16597
16953,16601
16950,16605
16949,16611
16948,16614
16948,20531
16397,20531
16397,9527
16948,9527
16948,14645
16949,14651
16951,14656
16955,14660
16960,14663
16965,14665
16968,14665
17165,14665
17170,14664
17175,14662
17180,14658
17183,14654
17184,14648
17185,14645
17185,9527
17184,9522
17181,9517
17178,9512
17173,9509
17168,9508
17165,9507
16968,9507
16963,9508
16957,9510
16953,9514
16950,9519
16949,9524
16948,9527
16397,9527
16396,9522
16394,9517
16390,9512
16386,9509
16381,9508
16377,9507
16083,9507
16083,7578
16377,7578
16383,7577
16388,7575
16392,7572
16395,7567
16397,7562
16397,7559
16397,4035
16948,4035
16948,7559
" /> 
<polyline style="fill-rule:evenodd;"
points="26003,7559
26004,7564
26006,7569
26010,7573
26015,7576
26020,7578
26023,7578
26220,7578
26225,7577
26231,7575
26235,7572
26238,7567
26239,7562
26240,7559
26240,4035
26791,4035
26791,14645
26792,14651
26794,14656
26797,14660
26802,14663
26807,14665
26811,14665
27105,14665
27105,16594
26811,16594
26805,16595
26800,16597
26796,16601
26793,16605
26791,16611
26791,16614
26791,20531
26240,20531
26240,16614
26239,16608
26237,16603
26233,16599
26228,16596
26223,16594
26220,16594
26023,16594
26018,16595
26013,16597
26008,16601
26005,16605
26004,16611
26003,16614
26003,20531
25452,20531
25452,9527
26003,9527
26003,14645
26004,14651
26006,14656
26010,14660
26015,14663
26020,14665
26023,14665
26220,14665
26225,14664
26231,14662
26235,14658
26238,14654
26239,14648
26240,14645
26240,9527
26239,9522
26237,9517
26233,9512
26228,9509
26223,9508
26220,9507
26023,9507
26018,9508
26013,9510
26008,9514
26005,9519
26004,9524
26003,9527
25452,9527
25451,9522
25449,9517
25446,9512
25441,9509
25436,9508
25433,9507
25138,9507
25138,7578
25433,7578
25438,7577
25443,7575
25447,7572
25450,7567
25452,7562
25452,7559
25452,4035
26003,4035
26003,7559
" /> 
<polyline style="fill-rule:evenodd;"
points="30334,15551
30335,15556
30337,15561
30341,15565
30345,15568
30351,15570
30354,15570
31122,15570
31122,15688
30354,15688
30348,15689
30343,15692
30339,15695
30336,15700
30334,15705
30334,15708
30334,21879
29783,21879
29783,16614
29782,16608
29780,16603
29776,16599
29772,16596
29766,16594
29763,16594
29665,16594
29665,14665
29960,14665
29966,14664
29971,14662
29975,14658
29978,14654
29980,14648
29980,14645
29980,2687
30334,2687
30334,15551
" /> 
</g>
<g style="fill:#FFFFFF; fill-opacity:1.0; 
stroke:#FFFFFF; stroke-width:39.3701; stroke-opacity:1; 
stroke-linecap:round; stroke-linejoin:round;">
</g>
<g style="fill:#FFFFFF; fill-opacity:1.0; 
stroke:#FFFFFF; stroke-width:0; stroke-opacity:1; 
stroke-linecap:round; stroke-linejoin:round;">
<circle cx="49055.1" cy="4881.89" r="196.85" /> 
</g>
<g style="fill:#FFFFFF; fill-opacity:1.0; 
stroke:#FFFFFF; stroke-width:39.3701; stroke-opacity:1; 
stroke-linecap:round; stroke-linejoin:round;">
</g>
<g style="fill:#FFFFFF; fill-opacity:1.0; 
stroke:#FFFFFF; stroke-width:0; stroke-opacity:1; 
stroke-linecap:round; stroke-linejoin:round;">
<circle cx="59015.7" cy="7874.02" r="196.85" /> 
</g>
<g style="fill:#FFFFFF; fill-opacity:1.0; 
stroke:#FFFFFF; stroke-width:39.3701; stroke-opacity:1; 
stroke-linecap:round; stroke-linejoin:round;">
</g>
<g style="fill:#FFFFFF; fill-opacity:1.0; 
stroke:#FFFFFF; stroke-width:0; stroke-opacity:1; 
stroke-linecap:round; stroke-linejoin:round;">
<circle cx="49881.9" cy="15787.4" r="196.85" /> 
</g>
<g style="fill:#FFFFFF; fill-opacity:1.0; 
stroke:#FFFFFF; stroke-width:39.3701; stroke-opacity:1; 
stroke-linecap:round; stroke-linejoin:round;">
</g>
<g style="fill:#FFFFFF; fill-opacity:1.0; 
stroke:#FFFFFF; stroke-width:0; stroke-opacity:1; 
stroke-linecap:round; stroke-linejoin:round;">
<circle cx="65472.4" cy="18543.3" r="196.85" /> 
</g>
<g style="fill:#FFFFFF; fill-opacity:1.0; 
stroke:#FFFFFF; stroke-width:39.3701; stroke-opacity:1; 
stroke-linecap:round; stroke-linejoin:round;">
</g>
<g style="fill:#FFFFFF; fill-opacity:1.0; 
stroke:#FFFFFF; stroke-width:0; stroke-opacity:1; 
stroke-linecap:round; stroke-linejoin:round;">
<circle cx="40433.1" cy="10511.8" r="196.85" /> 
</g>
<g style="fill:#FFFFFF; fill-opacity:1.0; 
stroke:#FFFFFF; stroke-width:39.3701; stroke-opacity:1; 
stroke-linecap:round; stroke-linejoin:round;">
</g>
<g style="fill:#FFFFFF; fill-opacity:1.0; 
stroke:#FFFFFF; stroke-width:0; stroke-opacity:1; 
stroke-linecap:round; stroke-linejoin:round;">
<circle cx="64448.8" cy="4448.82" r="196.85" /> 
</g>
<g style="fill:#FFFFFF; fill-opacity:1.0; 
stroke:#FFFFFF; stroke-width:39.3701; stroke-opacity:1; 
stroke-linecap:round; stroke-linejoin:round;">
</g>
<g style="fill:#FFFFFF; fill-opacity:1.0; 
stroke:#FFFFFF; stroke-width:0; stroke-opacity:1; 
stroke-linecap:round; stroke-linejoin:round;">
<circle cx="67519.7" cy="13661.4" r="196.85" /> 
</g>
<g style="fill:#FFFFFF; fill-opacity:1.0; 
stroke:#FFFFFF; stroke-width:39.3701; stroke-opacity:1; 
stroke-linecap:round; stroke-linejoin:round;">
</g>
<g style="fill:#FFFFFF; fill-opacity:1.0; 
stroke:#FFFFFF; stroke-width:0; stroke-opacity:1; 
stroke-linecap:round; stroke-linejoin:round;">
<circle cx="62677.2" cy="18543.3" r="196.85" /> 
</g>
<g style="fill:#FFFFFF; fill-opacity:1.0; 
stroke:#FFFFFF; stroke-width:39.3701; stroke-opacity:1; 
stroke-linecap:round; stroke-linejoin:round;">
</g>
<g style="fill:#FFFFFF; fill-opacity:1.0; 
stroke:#FFFFFF; stroke-width:0; stroke-opacity:1; 
stroke-linecap:round; stroke-linejoin:round;">
<circle cx="40433.1" cy="11456.7" r="196.85" /> 
</g>
<g style="fill:#FFFFFF; fill-opacity:1.0; 
stroke:#FFFFFF; stroke-width:39.3701; stroke-opacity:1; 
stroke-linecap:round; stroke-linejoin:round;">
</g>
<g style="fill:#FFFFFF; fill-opacity:1.0; 
stroke:#FFFFFF; stroke-width:0; stroke-opacity:1; 
stroke-linecap:round; stroke-linejoin:round;">
<circle cx="38779.5" cy="6377.95" r="196.85" /> 
</g>
<g style="fill:#FFFFFF; fill-opacity:1.0; 
stroke:#FFFFFF; stroke-width:39.3701; stroke-opacity:1; 
stroke-linecap:round; stroke-linejoin:round;">
</g>
<g style="fill:#FFFFFF; fill-opacity:1.0; 
stroke:#FFFFFF; stroke-width:0; stroke-opacity:1; 
stroke-linecap:round; stroke-linejoin:round;">
<circle cx="46417.3" cy="15787.4" r="196.85" /> 
</g>
<g style="fill:#FFFFFF; fill-opacity:1.0; 
stroke:#FFFFFF; stroke-width:39.3701; stroke-opacity:1; 
stroke-linecap:round; stroke-linejoin:round;">
</g>
<g style="fill:#FFFFFF; fill-opacity:1.0; 
stroke:#FFFFFF; stroke-width:0; stroke-opacity:1; 
stroke-linecap:round; stroke-linejoin:round;">
<circle cx="42992.1" cy="9724.41" r="196.85" /> 
</g>
<g style="fill:#FFFFFF; fill-opacity:1.0; 
stroke:#FFFFFF; stroke-width:39.3701; stroke-opacity:1; 
stroke-linecap:round; stroke-linejoin:round;">
</g>
<g style="fill:#FFFFFF; fill-opacity:1.0; 
stroke:#FFFFFF; stroke-width:0; stroke-opacity:1; 
stroke-linecap:round; stroke-linejoin:round;">
<circle cx="47519.7" cy="15787.4" r="196.85" /> 
</g>
<g style="fill:#FFFFFF; fill-opacity:1.0; 
stroke:#FFFFFF; stroke-width:39.3701; stroke-opacity:1; 
stroke-linecap:round; stroke-linejoin:round;">
</g>
<g style="fill:#FFFFFF; fill-opacity:1.0; 
stroke:#FFFFFF; stroke-width:0; stroke-opacity:1; 
stroke-linecap:round; stroke-linejoin:round;">
<circle cx="41653.5" cy="15787.4" r="196.85" /> 
</g>
<g style="fill:#FFFFFF; fill-opacity:1.0; 
stroke:#FFFFFF; stroke-width:39.3701; stroke-opacity:1; 
stroke-linecap:round; stroke-linejoin:round;">
</g>
<g style="fill:#FFFFFF; fill-opacity:1.0; 
stroke:#FFFFFF; stroke-width:0; stroke-opacity:1; 
stroke-linecap:round; stroke-linejoin:round;">
<circle cx="5157.48" cy="21456.7" r="157.48" /> 
</g>
<g style="fill:#FFFFFF; fill-opacity:1.0; 
stroke:#FFFFFF; stroke-width:39.3701; stroke-opacity:1; 
stroke-linecap:round; stroke-linejoin:round;">
</g>
<g style="fill:#FFFFFF; fill-opacity:1.0; 
stroke:#FFFFFF; stroke-width:0; stroke-opacity:1; 
stroke-linecap:round; stroke-linejoin:round;">
<circle cx="5944.88" cy="21456.7" r="157.48" /> 
</g>
<g style="fill:#FFFFFF; fill-opacity:1.0; 
stroke:#FFFFFF; stroke-width:39.3701; stroke-opacity:1; 
stroke-linecap:round; stroke-linejoin:round;">
</g>
<g style="fill:#FFFFFF; fill-opacity:1.0; 
stroke:#FFFFFF; stroke-width:0; stroke-opacity:1; 
stroke-linecap:round; stroke-linejoin:round;">
<circle cx="6732.28" cy="21456.7" r="157.48" /> 
</g>
<g style="fill:#FFFFFF; fill-opacity:1.0; 
stroke:#FFFFFF; stroke-width:39.3701; stroke-opacity:1; 
stroke-linecap:round; stroke-linejoin:round;">
</g>
<g style="fill:#FFFFFF; fill-opacity:1.0; 
stroke:#FFFFFF; stroke-width:0; stroke-opacity:1; 
stroke-linecap:round; stroke-linejoin:round;">
<circle cx="62637.8" cy="21456.7" r="157.48" /> 
</g>
<g style="fill:#FFFFFF; fill-opacity:1.0; 
stroke:#FFFFFF; stroke-width:39.3701; stroke-opacity:1; 
stroke-linecap:round; stroke-linejoin:round;">
</g>
<g style="fill:#FFFFFF; fill-opacity:1.0; 
stroke:#FFFFFF; stroke-width:0; stroke-opacity:1; 
stroke-linecap:round; stroke-linejoin:round;">
<circle cx="63425.2" cy="21456.7" r="157.48" /> 
</g>
<g style="fill:#FFFFFF; fill-opacity:1.0; 
stroke:#FFFFFF; stroke-width:39.3701; stroke-opacity:1; 
stroke-linecap:round; stroke-linejoin:round;">
</g>
<g style="fill:#FFFFFF; fill-opacity:1.0; 
stroke:#FFFFFF; stroke-width:0; stroke-opacity:1; 
stroke-linecap:round; stroke-linejoin:round;">
<circle cx="64212.6" cy="21456.7" r="157.48" /> 
</g>
<g style="fill:#FFFFFF; fill-opacity:1.0; 
stroke:#FFFFFF; stroke-width:39.3701; stroke-opacity:1; 
stroke-linecap:round; stroke-linejoin:round;">
</g>
<g style="fill:#FFFFFF; fill-opacity:1.0; 
stroke:#FFFFFF; stroke-width:0; stroke-opacity:1; 
stroke-linecap:round; stroke-linejoin:round;">
<circle cx="5157.48" cy="3110.24" r="157.48" /> 
</g>
<g style="fill:#FFFFFF; fill-opacity:1.0; 
stroke:#FFFFFF; stroke-width:39.3701; stroke-opacity:1; 
stroke-linecap:round; stroke-linejoin:round;">
</g>
<g style="fill:#FFFFFF; fill-opacity:1.0; 
stroke:#FFFFFF; stroke-width:0; stroke-opacity:1; 
stroke-linecap:round; stroke-linejoin:round;">
<circle cx="5944.88" cy="3110.24" r="157.48" /> 
</g>
<g style="fill:#FFFFFF; fill-opacity:1.0; 
stroke:#FFFFFF; stroke-width:39.3701; stroke-opacity:1; 
stroke-linecap:round; stroke-linejoin:round;">
</g>
<g style="fill:#FFFFFF; fill-opacity:1.0; 
stroke:#FFFFFF; stroke-width:0; stroke-opacity:1; 
stroke-linecap:round; stroke-linejoin:round;">
<circle cx="6732.28" cy="3110.24" r="157.48" /> 
</g>
<g style="fill:#FFFFFF; fill-opacity:1.0; 
stroke:#FFFFFF; stroke-width:39.3701; stroke-opacity:1; 
stroke-linecap:round; stroke-linejoin:round;">
</g>
<g style="fill:#FFFFFF; fill-opacity:1.0; 
stroke:#FFFFFF; stroke-width:0; stroke-opacity:1; 
stroke-linecap:round; stroke-linejoin:round;">
<circle cx="50039.4" cy="3110.24" r="157.48" /> 
</g>
<g style="fill:#FFFFFF; fill-opacity:1.0; 
stroke:#FFFFFF; stroke-width:39.3701; stroke-opacity:1; 
stroke-linecap:round; stroke-linejoin:round;">
</g>
<g style="fill:#FFFFFF; fill-opacity:1.0; 
stroke:#FFFFFF; stroke-width:0; stroke-opacity:1; 
stroke-linecap:round; stroke-linejoin:round;">
<circle cx="49252" cy="3110.24" r="157.48" /> 
</g>
<g style="fill:#FFFFFF; fill-opacity:1.0; 
stroke:#FFFFFF; stroke-width:39.3701; stroke-opacity:1; 
stroke-linecap:round; stroke-linejoin:round;">
</g>
<g style="fill:#FFFFFF; fill-opacity:1.0; 
stroke:#FFFFFF; stroke-width:0; stroke-opacity:1; 
stroke-linecap:round; stroke-linejoin:round;">
<circle cx="48464.6" cy="3110.24" r="157.48" /> 
</g>
<g style="fill:#FFFFFF; fill-opacity:1.0; 
stroke:#FFFFFF; stroke-width:39.3701; stroke-opacity:1; 
stroke-linecap:round; stroke-linejoin:round;">
</g>
<g style="fill:#FFFFFF; fill-opacity:1.0; 
stroke:#FFFFFF; stroke-width:0; stroke-opacity:1; 
stroke-linecap:round; stroke-linejoin:round;">
<circle cx="37440.9" cy="7952.76" r="157.48" /> 
</g>
<g style="fill:#FFFFFF; fill-opacity:1.0; 
stroke:#FFFFFF; stroke-width:39.3701; stroke-opacity:1; 
stroke-linecap:round; stroke-linejoin:round;">
</g>
<g style="fill:#FFFFFF; fill-opacity:1.0; 
stroke:#FFFFFF; stroke-width:0; stroke-opacity:1; 
stroke-linecap:round; stroke-linejoin:round;">
<circle cx="37440.9" cy="7165.35" r="157.48" /> 
</g>
<g style="fill:#FFFFFF; fill-opacity:1.0; 
stroke:#FFFFFF; stroke-width:39.3701; stroke-opacity:1; 
stroke-linecap:round; stroke-linejoin:round;">
</g>
<g style="fill:#FFFFFF; fill-opacity:1.0; 
stroke:#FFFFFF; stroke-width:0; stroke-opacity:1; 
stroke-linecap:round; stroke-linejoin:round;">
<circle cx="37440.9" cy="6377.95" r="157.48" /> 
</g>
<g style="fill:#FFFFFF; fill-opacity:1.0; 
stroke:#FFFFFF; stroke-width:39.3701; stroke-opacity:1; 
stroke-linecap:round; stroke-linejoin:round;">
</g>
<g style="fill:#FFFFFF; fill-opacity:1.0; 
stroke:#FFFFFF; stroke-width:0; stroke-opacity:1; 
stroke-linecap:round; stroke-linejoin:round;">
<circle cx="37440.9" cy="8937.01" r="157.48" /> 
</g>
<g style="fill:#FFFFFF; fill-opacity:1.0; 
stroke:#FFFFFF; stroke-width:39.3701; stroke-opacity:1; 
stroke-linecap:round; stroke-linejoin:round;">
</g>
<g style="fill:#FFFFFF; fill-opacity:1.0; 
stroke:#FFFFFF; stroke-width:0; stroke-opacity:1; 
stroke-linecap:round; stroke-linejoin:round;">
<circle cx="37440.9" cy="9724.41" r="157.48" /> 
</g>
<g style="fill:#FFFFFF; fill-opacity:1.0; 
stroke:#FFFFFF; stroke-width:39.3701; stroke-opacity:1; 
stroke-linecap:round; stroke-linejoin:round;">
</g>
<g style="fill:#FFFFFF; fill-opacity:1.0; 
stroke:#FFFFFF; stroke-width:0; stroke-opacity:1; 
stroke-linecap:round; stroke-linejoin:round;">
<circle cx="37440.9" cy="10511.8" r="157.48" /> 
</g>
<g style="fill:#FFFFFF; fill-opacity:1.0; 
stroke:#FFFFFF; stroke-width:39.3701; stroke-opacity:1; 
stroke-linecap:round; stroke-linejoin:round;">
</g>
<g style="fill:#FFFFFF; fill-opacity:1.0; 
stroke:#FFFFFF; stroke-width:0; stroke-opacity:1; 
stroke-linecap:round; stroke-linejoin:round;">
<circle cx="64212.6" cy="3110.24" r="157.48" /> 
</g>
<g style="fill:#FFFFFF; fill-opacity:1.0; 
stroke:#FFFFFF; stroke-width:39.3701; stroke-opacity:1; 
stroke-linecap:round; stroke-linejoin:round;">
</g>
<g style="fill:#FFFFFF; fill-opacity:1.0; 
stroke:#FFFFFF; stroke-width:0; stroke-opacity:1; 
stroke-linecap:round; stroke-linejoin:round;">
<circle cx="63425.2" cy="3110.24" r="157.48" /> 
</g>
<g style="fill:#FFFFFF; fill-opacity:1.0; 
stroke:#FFFFFF; stroke-width:39.3701; stroke-opacity:1; 
stroke-linecap:round; stroke-linejoin:round;">
</g>
<g style="fill:#FFFFFF; fill-opacity:1.0; 
stroke:#FFFFFF; stroke-width:0; stroke-opacity:1; 
stroke-linecap:round; stroke-linejoin:round;">
<circle cx="62637.8" cy="3110.24" r="157.48" /> 
</g>
<g style="fill:#FFFFFF; fill-opacity:1.0; 
stroke:#FFFFFF; stroke-width:39.3701; stroke-opacity:1; 
stroke-linecap:round; stroke-linejoin:round;">
</g>
<g style="fill:#FFFFFF; fill-opacity:1.0; 
stroke:#FFFFFF; stroke-width:0; stroke-opacity:1; 
stroke-linecap:round; stroke-linejoin:round;">
<circle cx="19330.7" cy="3110.24" r="157.48" /> 
</g>
<g style="fill:#FFFFFF; fill-opacity:1.0; 
stroke:#FFFFFF; stroke-width:39.3701; stroke-opacity:1; 
stroke-linecap:round; stroke-linejoin:round;">
</g>
<g style="fill:#FFFFFF; fill-opacity:1.0; 
stroke:#FFFFFF; stroke-width:0; stroke-opacity:1; 
stroke-linecap:round; stroke-linejoin:round;">
<circle cx="20118.1" cy="3110.24" r="157.48" /> 
</g>
<g style="fill:#FFFFFF; fill-opacity:1.0; 
stroke:#FFFFFF; stroke-width:39.3701; stroke-opacity:1; 
stroke-linecap:round; stroke-linejoin:round;">
</g>
<g style="fill:#FFFFFF; fill-opacity:1.0; 
stroke:#FFFFFF; stroke-width:0; stroke-opacity:1; 
stroke-linecap:round; stroke-linejoin:round;">
<circle cx="20905.5" cy="3110.24" r="157.48" /> 
</g>
<g style="fill:#FFFFFF; fill-opacity:1.0; 
stroke:#FFFFFF; stroke-width:39.3701; stroke-opacity:1; 
stroke-linecap:round; stroke-linejoin:round;">
</g>
<g style="fill:#FFFFFF; fill-opacity:1.0; 
stroke:#FFFFFF; stroke-width:0; stroke-opacity:1; 
stroke-linecap:round; stroke-linejoin:round;">
<circle cx="48464.6" cy="21456.7" r="157.48" /> 
</g>
<g style="fill:#FFFFFF; fill-opacity:1.0; 
stroke:#FFFFFF; stroke-width:39.3701; stroke-opacity:1; 
stroke-linecap:round; stroke-linejoin:round;">
</g>
<g style="fill:#FFFFFF; fill-opacity:1.0; 
stroke:#FFFFFF; stroke-width:0; stroke-opacity:1; 
stroke-linecap:round; stroke-linejoin:round;">
<circle cx="49252" cy="21456.7" r="157.48" /> 
</g>
<g style="fill:#FFFFFF; fill-opacity:1.0; 
stroke:#FFFFFF; stroke-width:39.3701; stroke-opacity:1; 
stroke-linecap:round; stroke-linejoin:round;">
</g>
<g style="fill:#FFFFFF; fill-opacity:1.0; 
stroke:#FFFFFF; stroke-width:0; stroke-opacity:1; 
stroke-linecap:round; stroke-linejoin:round;">
<circle cx="50039.4" cy="21456.7" r="157.48" /> 
</g>
<g style="fill:#FFFFFF; fill-opacity:1.0; 
stroke:#FFFFFF; stroke-width:39.3701; stroke-opacity:1; 
stroke-linecap:round; stroke-linejoin:round;">
</g>
<g style="fill:#FFFFFF; fill-opacity:1.0; 
stroke:#FFFFFF; stroke-width:0; stroke-opacity:1; 
stroke-linecap:round; stroke-linejoin:round;">
<circle cx="19330.7" cy="21456.7" r="157.48" /> 
</g>
<g style="fill:#FFFFFF; fill-opacity:1.0; 
stroke:#FFFFFF; stroke-width:39.3701; stroke-opacity:1; 
stroke-linecap:round; stroke-linejoin:round;">
</g>
<g style="fill:#FFFFFF; fill-opacity:1.0; 
stroke:#FFFFFF; stroke-width:0; stroke-opacity:1; 
stroke-linecap:round; stroke-linejoin:round;">
<circle cx="20118.1" cy="21456.7" r="157.48" /> 
</g>
<g style="fill:#FFFFFF; fill-opacity:1.0; 
stroke:#FFFFFF; stroke-width:39.3701; stroke-opacity:1; 
stroke-linecap:round; stroke-linejoin:round;">
</g>
<g style="fill:#FFFFFF; fill-opacity:1.0; 
stroke:#FFFFFF; stroke-width:0; stroke-opacity:1; 
stroke-linecap:round; stroke-linejoin:round;">
<circle cx="20905.5" cy="21456.7" r="157.48" /> 
</g>
<g style="fill:#FFFFFF; fill-opacity:1.0; 
stroke:#FFFFFF; stroke-width:39.3701; stroke-opacity:1; 
stroke-linecap:round; stroke-linejoin:round;">
</g>
<g style="fill:#FFFFFF; fill-opacity:1.0; 
stroke:#FFFFFF; stroke-width:0; stroke-opacity:1; 
stroke-linecap:round; stroke-linejoin:round;">
<circle cx="37440.9" cy="13070.9" r="157.48" /> 
</g>
<g style="fill:#FFFFFF; fill-opacity:1.0; 
stroke:#FFFFFF; stroke-width:39.3701; stroke-opacity:1; 
stroke-linecap:round; stroke-linejoin:round;">
</g>
<g style="fill:#FFFFFF; fill-opacity:1.0; 
stroke:#FFFFFF; stroke-width:0; stroke-opacity:1; 
stroke-linecap:round; stroke-linejoin:round;">
<circle cx="37440.9" cy="12283.5" r="157.48" /> 
</g>
<g style="fill:#FFFFFF; fill-opacity:1.0; 
stroke:#FFFFFF; stroke-width:39.3701; stroke-opacity:1; 
stroke-linecap:round; stroke-linejoin:round;">
</g>
<g style="fill:#FFFFFF; fill-opacity:1.0; 
stroke:#FFFFFF; stroke-width:0; stroke-opacity:1; 
stroke-linecap:round; stroke-linejoin:round;">
<circle cx="37440.9" cy="11496.1" r="157.48" /> 
</g>
<g style="fill:#FFFFFF; fill-opacity:1.0; 
stroke:#FFFFFF; stroke-width:39.3701; stroke-opacity:1; 
stroke-linecap:round; stroke-linejoin:round;">
</g>
<g style="fill:#FFFFFF; fill-opacity:1.0; 
stroke:#FFFFFF; stroke-width:0; stroke-opacity:1; 
stroke-linecap:round; stroke-linejoin:round;">
<circle cx="31929.1" cy="11496.1" r="157.48" /> 
</g>
<g style="fill:#FFFFFF; fill-opacity:1.0; 
stroke:#FFFFFF; stroke-width:39.3701; stroke-opacity:1; 
stroke-linecap:round; stroke-linejoin:round;">
</g>
<g style="fill:#FFFFFF; fill-opacity:1.0; 
stroke:#FFFFFF; stroke-width:0; stroke-opacity:1; 
stroke-linecap:round; stroke-linejoin:round;">
<circle cx="31929.1" cy="12283.5" r="157.48" /> 
</g>
<g style="fill:#FFFFFF; fill-opacity:1.0; 
stroke:#FFFFFF; stroke-width:39.3701; stroke-opacity:1; 
stroke-linecap:round; stroke-linejoin:round;">
</g>
<g style="fill:#FFFFFF; fill-opacity:1.0; 
stroke:#FFFFFF; stroke-width:0; stroke-opacity:1; 
stroke-linecap:round; stroke-linejoin:round;">
<circle cx="31929.1" cy="13070.9" r="157.48" /> 
</g>
<g style="fill:#FFFFFF; fill-opacity:1.0; 
stroke:#FFFFFF; stroke-width:39.3701; stroke-opacity:1; 
stroke-linecap:round; stroke-linejoin:round;">
</g>
<g style="fill:#FFFFFF; fill-opacity:1.0; 
stroke:#FFFFFF; stroke-width:0; stroke-opacity:1; 
stroke-linecap:round; stroke-linejoin:round;">
<circle cx="67401.6" cy="14921.3" r="196.85" /> 
</g>
<g style="fill:#FFFFFF; fill-opacity:1.0; 
stroke:#FFFFFF; stroke-width:39.3701; stroke-opacity:1; 
stroke-linecap:round; stroke-linejoin:round;">
</g>
<g style="fill:#FFFFFF; fill-opacity:1.0; 
stroke:#FFFFFF; stroke-width:0; stroke-opacity:1; 
stroke-linecap:round; stroke-linejoin:round;">
<circle cx="67401.6" cy="17283.5" r="196.85" /> 
</g>
<g style="fill:#FFFFFF; fill-opacity:1.0; 
stroke:#FFFFFF; stroke-width:39.3701; stroke-opacity:1; 
stroke-linecap:round; stroke-linejoin:round;">
</g>
<g style="fill:#FFFFFF; fill-opacity:1.0; 
stroke:#FFFFFF; stroke-width:0; stroke-opacity:1; 
stroke-linecap:round; stroke-linejoin:round;">
<circle cx="37795.3" cy="16023.6" r="196.85" /> 
</g>
<g style="fill:#FFFFFF; fill-opacity:1.0; 
stroke:#FFFFFF; stroke-width:39.3701; stroke-opacity:1; 
stroke-linecap:round; stroke-linejoin:round;">
</g>
<g style="fill:#FFFFFF; fill-opacity:1.0; 
stroke:#FFFFFF; stroke-width:0; stroke-opacity:1; 
stroke-linecap:round; stroke-linejoin:round;">
<circle cx="37795.3" cy="18385.8" r="196.85" /> 
</g>
<g style="fill:#FFFFFF; fill-opacity:1.0; 
stroke:#FFFFFF; stroke-width:39.3701; stroke-opacity:1; 
stroke-linecap:round; stroke-linejoin:round;">
</g>
<g style="fill:#000000; fill-opacity:1.0; 
stroke:#000000; stroke-width:39.3701; stroke-opacity:1; 
stroke-linecap:round; stroke-linejoin:round;">
</g> 
</svg>
